<?xml version="1.0" encoding="UTF-8" standalone="no"?>
<!-- Created with Inkscape (http://www.inkscape.org/) -->

<svg
   width="100mm"
   height="100mm"
   viewBox="0 0 100 100"
   version="1.1"
   id="svg1"
   xml:space="preserve"
   inkscape:version="1.3.2 (091e20e, 2023-11-25, custom)"
   sodipodi:docname="drawing.svg"
   xmlns:inkscape="http://www.inkscape.org/namespaces/inkscape"
   xmlns:sodipodi="http://sodipodi.sourceforge.net/DTD/sodipodi-0.dtd"
   xmlns="http://www.w3.org/2000/svg"
   xmlns:svg="http://www.w3.org/2000/svg"><sodipodi:namedview
     id="namedview1"
     pagecolor="#ffffff"
     bordercolor="#111111"
     borderopacity="1"
     inkscape:showpageshadow="0"
     inkscape:pageopacity="0"
     inkscape:pagecheckerboard="1"
     inkscape:deskcolor="#d1d1d1"
     inkscape:document-units="mm"
     showgrid="true"
     inkscape:zoom="2.2431678"
     inkscape:cx="207.07323"
     inkscape:cy="94.286304"
     inkscape:window-width="3840"
     inkscape:window-height="1494"
     inkscape:window-x="-11"
     inkscape:window-y="-11"
     inkscape:window-maximized="1"
     inkscape:current-layer="layer1"><inkscape:grid
       id="grid1"
       units="mm"
       originx="0"
       originy="0"
       spacingx="0.99999999"
       spacingy="0.99999999"
       empcolor="#0099e5"
       empopacity="0.30196078"
       color="#0099e5"
       opacity="0.14901961"
       empspacing="5"
       dotted="false"
       gridanglex="30"
       gridanglez="30"
       visible="true" /></sodipodi:namedview><defs
     id="defs1"><marker
       id="DistanceX"
       orient="auto"
       refX="0"
       refY="0"
       style="overflow:visible"><path
         d="M 3,-3 -3,3 M 0,-5 V 5"
         style="stroke:#000000;stroke-width:0.5"
         id="path1" /></marker><pattern
       id="Hatch"
       patternUnits="userSpaceOnUse"
       width="8"
       height="8"
       x="0"
       y="0"><path
         d="M8 4 l-4,4"
         stroke="#000000"
         stroke-width="0.25"
         linecap="square"
         id="path2" /><path
         d="M6 2 l-4,4"
         stroke="#000000"
         stroke-width="0.25"
         linecap="square"
         id="path3" /><path
         d="M4 0 l-4,4"
         stroke="#000000"
         stroke-width="0.25"
         linecap="square"
         id="path4" /></pattern><symbol
       id="*MODEL_SPACE" /><symbol
       id="*PAPER_SPACE" /></defs><g
     inkscape:label="Layer 1"
     inkscape:groupmode="layer"
     id="layer1"><path
       d="m 52.500002,61.252559 a 5.9999998,5.9999998 0 0 0 1.714285,4.199123 11.5,11.5 0 0 1 -8.214286,19.548316 H 15 A 11.5,11.5 0 0 1 6.7857145,65.451682 5.9999998,5.9999998 0 0 0 8.5000002,61.252559 V 28.747465 A 5.9999998,5.9999998 0 0 0 6.7857145,24.548316 11.5,11.5 0 0 1 15,5 h 31.000001 a 11.5,11.5 0 0 1 8.214286,19.548316 5.9999998,5.9999998 0 0 0 -1.714285,4.199149 z"
       style="fill:#ffffff;stroke:#000000;stroke-width:0.264583;fill-opacity:1"
       id="path16" /><path
       style="font-variation-settings:'wght' 400;fill:none;stroke:#000000;stroke-width:0.1;stroke-linejoin:round;stroke-dasharray:0.60000001,0.60000001;stroke-opacity:1;stroke-dashoffset:0"
       d="m 44.999999,5 h 25"
       id="path5" /><path
       style="font-variation-settings:'wght' 400;fill:none;stroke:#000000;stroke-width:0.1;stroke-linejoin:round;stroke-dasharray:0.6, 0.6;stroke-dashoffset:0;stroke-opacity:1"
       d="m 44.999999,85 h 25"
       id="path6" /><path
       style="font-variation-settings:'wght' 400;fill:none;stroke:#000000;stroke-width:0.1;stroke-linejoin:round;stroke-dasharray:none;stroke-dashoffset:0;stroke-opacity:1"
       d="M 65,85 V 5"
       id="path6-1"
       sodipodi:nodetypes="cc" /><path
       style="font-variation-settings:'wght' 400;fill:none;stroke:#000000;stroke-width:0.0999999;stroke-linejoin:round;stroke-dasharray:none;stroke-dashoffset:0;stroke-opacity:1"
       d="M 57.494734,93.000001 H 3.4947345"
       id="path6-1-1"
       sodipodi:nodetypes="cc" /><path
       style="font-variation-settings:'wght' 400;fill:none;stroke:#000000;stroke-width:0.1;stroke-linejoin:round;stroke-dasharray:none;stroke-dashoffset:0;stroke-opacity:1"
       d="M 64.517677,84.542677 65,85 65.482323,84.542677"
       id="path7" /><path
       style="font-variation-settings:'wght' 400;fill:none;stroke:#000000;stroke-width:0.1;stroke-linejoin:round;stroke-dasharray:none;stroke-dashoffset:0;stroke-opacity:1"
       d="m 57.037411,93.482324 0.457323,-0.482323 -0.457323,-0.482323"
       id="path7-8" /><path
       style="font-variation-settings:'wght' 400;fill:none;stroke:#000000;stroke-width:0.1;stroke-linejoin:round;stroke-dasharray:none;stroke-dashoffset:0;stroke-opacity:1"
       d="m 3.9520575,93.482324 -0.457323,-0.482323 0.457323,-0.482323"
       id="path7-8-8" /><path
       style="font-variation-settings:'wght' 400;fill:none;stroke:#000000;stroke-width:0.1;stroke-linejoin:round;stroke-dasharray:none;stroke-dashoffset:0;stroke-opacity:1"
       d="M 64.517677,5.457323 65,5 65.482323,5.457323"
       id="path7-1" /><text
       xml:space="preserve"
       style="font-size:2.46944px;line-height:0.9;font-family:'Source Code Pro';-inkscape-font-specification:'Source Code Pro, @wght=400';font-variation-settings:'wght' 400;text-align:end;text-anchor:end;fill:#000000;fill-opacity:1;stroke:none;stroke-width:0.1;stroke-linejoin:round;stroke-dasharray:none;stroke-dashoffset:0;stroke-opacity:1"
       x="68.730354"
       y="45.802567"
       id="text7"><tspan
         sodipodi:role="line"
         id="tspan7"
         style="fill:#000000;fill-opacity:1;stroke:none;stroke-width:0.1"
         x="68.730354"
         y="45.802567">80</tspan></text><text
       xml:space="preserve"
       style="font-size:2.46944px;line-height:0.9;font-family:'Source Code Pro';-inkscape-font-specification:'Source Code Pro, @wght=400';font-variation-settings:'wght' 400;text-align:end;text-anchor:end;fill:#000000;fill-opacity:1;stroke:none;stroke-width:0.1;stroke-linejoin:round;stroke-dasharray:none;stroke-dashoffset:0;stroke-opacity:1"
       x="31.980104"
       y="92.488808"
       id="text7-4"><tspan
         sodipodi:role="line"
         id="tspan7-4"
         style="fill:#000000;fill-opacity:1;stroke:none;stroke-width:0.1"
         x="31.980104"
         y="92.488808">54</tspan></text><path
       style="font-variation-settings:'wght' 400;fill:none;stroke:#000000;stroke-width:0.1;stroke-linejoin:round;stroke-dasharray:0.6, 0.6;stroke-dashoffset:0;stroke-opacity:1"
       d="M 3.4947345,94.786647 V 69.786643"
       id="path6-8" /><path
       style="font-variation-settings:'wght' 400;fill:none;stroke:#000000;stroke-width:0.1;stroke-linejoin:round;stroke-dasharray:0.6, 0.6;stroke-dashoffset:0;stroke-opacity:1"
       d="M 57.494735,94.786647 V 69.786643"
       id="path8" /><text
       xml:space="preserve"
       style="font-size:2.46944px;line-height:0.9;font-family:'Source Code Pro';-inkscape-font-specification:'Source Code Pro, @wght=400';font-variation-settings:'wght' 400;text-align:end;text-anchor:end;fill:#000000;fill-opacity:1;stroke:none;stroke-width:0.1;stroke-linejoin:round;stroke-dasharray:none;stroke-dashoffset:0;stroke-opacity:1"
       x="93.58699"
       y="35.864304"
       id="text7-46"><tspan
         sodipodi:role="line"
         id="tspan7-8"
         style="fill:#000000;fill-opacity:1;stroke:none;stroke-width:0.1"
         x="93.58699"
         y="35.864304">h=20+3.7mm</tspan></text><path
       style="font-variation-settings:'wght' 400;fill:none;fill-opacity:1;stroke:#000000;stroke-width:0.265;stroke-linejoin:round;stroke-dasharray:none;stroke-dashoffset:0;stroke-opacity:1"
       d="m 105,10 v 5"
       id="path9" /><path
       style="font-variation-settings:'wght' 400;fill:none;fill-opacity:1;stroke:#000000;stroke-width:0.265;stroke-linejoin:round;stroke-dasharray:none;stroke-dashoffset:0;stroke-opacity:1"
       d="m 115.0545,22.166608 v 5"
       id="path9-4" /><path
       d="m 162.06847,24.927785 a 6.0967533,1.2539468 2.1717478 0 0 2.45471,0.891731 11.685444,2.4033981 2.1717474 0 1 -4.76739,4.151304 h -31 a 11.685444,2.4033981 2.1717474 0 1 -11.66118,-4.151304 6.0967533,1.2539468 2.1717478 0 0 0.97386,-0.891731 l -5.73152,-6.902822 a 6.0967533,1.2539468 2.1717478 0 0 -2.4547,-0.891737 11.685444,2.4033981 2.1717474 0 1 4.76738,-4.151305 h 31 a 11.685444,2.4033981 2.1717474 0 1 11.66119,4.151305 6.0967533,1.2539468 2.1717478 0 0 -0.97387,0.891737 z"
       style="fill:none;stroke:#000000;stroke-width:0.265;stroke-dasharray:none"
       id="path10" /><path
       style="font-variation-settings:'wght' 400;fill:none;fill-opacity:1;stroke:#000000;stroke-width:0.265;stroke-linejoin:round;stroke-dasharray:none;stroke-dashoffset:0;stroke-opacity:1"
       d="m 169.39301,23.06316 v 5"
       id="path9-4-8" /><path
       style="font-variation-settings:'wght' 400;fill:none;fill-opacity:1;stroke:#000000;stroke-width:0.265;stroke-linejoin:round;stroke-dasharray:none;stroke-dashoffset:0;stroke-opacity:1"
       d="m 159.35355,10.812917 v 5"
       id="path9-4-8-1" /><path
       d="m 162.06847,19.927785 a 6.0967533,1.2539468 2.1717478 0 0 2.45471,0.891731 11.685444,2.4033981 2.1717474 0 1 -4.76739,4.151304 h -31 a 11.685444,2.4033981 2.1717474 0 1 -11.66118,-4.151304 6.0967533,1.2539468 2.1717478 0 0 0.97386,-0.891731 l -5.73152,-6.902822 a 6.0967533,1.2539468 2.1717478 0 0 -2.4547,-0.891737 11.685444,2.4033981 2.1717474 0 1 4.76738,-4.1513046 h 31 a 11.685444,2.4033981 2.1717474 0 1 11.66119,4.1513046 6.0967533,1.2539468 2.1717478 0 0 -0.97387,0.891737 z"
       style="fill:#ffffff;stroke:#000000;stroke-width:0.265;stroke-dasharray:none;fill-opacity:1"
       id="path16-7" /></g></svg>
