<?xml version="1.0" encoding="UTF-8" standalone="no"?>
<!-- Created with Inkscape (http://www.inkscape.org/) -->

<svg
   width="100mm"
   height="40mm"
   viewBox="0 0 100 40"
   version="1.1"
   id="svg1"
   inkscape:version="1.4 (86a8ad7, 2024-10-11)"
   sodipodi:docname="design_side_1.svg"
   xml:space="preserve"
   inkscape:export-filename="design_cover.png"
   inkscape:export-xdpi="1000"
   inkscape:export-ydpi="1000"
   xmlns:inkscape="http://www.inkscape.org/namespaces/inkscape"
   xmlns:sodipodi="http://sodipodi.sourceforge.net/DTD/sodipodi-0.dtd"
   xmlns="http://www.w3.org/2000/svg"
   xmlns:svg="http://www.w3.org/2000/svg"><sodipodi:namedview
     id="namedview1"
     pagecolor="#ffffff"
     bordercolor="#111111"
     borderopacity="1"
     inkscape:showpageshadow="0"
     inkscape:pageopacity="0"
     inkscape:pagecheckerboard="1"
     inkscape:deskcolor="#d1d1d1"
     inkscape:document-units="mm"
     inkscape:zoom="5.6568542"
     inkscape:cx="150.08342"
     inkscape:cy="79.284349"
     inkscape:window-width="2560"
     inkscape:window-height="1334"
     inkscape:window-x="-11"
     inkscape:window-y="-11"
     inkscape:window-maximized="1"
     inkscape:current-layer="g211"
     showgrid="true"><inkscape:grid
       id="grid1"
       units="mm"
       originx="0"
       originy="0"
       spacingx="0.99999998"
       spacingy="1"
       empcolor="#0099e5"
       empopacity="0.30196078"
       color="#0099e5"
       opacity="0.14901961"
       empspacing="5"
       dotted="false"
       gridanglex="30"
       gridanglez="30"
       visible="true" /></sodipodi:namedview><defs
     id="defs1" /><g
     inkscape:groupmode="layer"
     id="g211"
     inkscape:label="membrane_drawing"
     style="display:inline"><g
       id="g210"
       transform="translate(4.2983168)" /><text
       xml:space="preserve"
       style="font-style:normal;font-variant:normal;font-weight:normal;font-stretch:normal;font-size:4.23333px;line-height:0.8;font-family:'Source Code Pro';-inkscape-font-specification:'Source Code Pro, @wght=400';font-variant-ligatures:normal;font-variant-caps:normal;font-variant-numeric:normal;font-variant-east-asian:normal;font-variation-settings:'wght' 400;display:inline;fill:#212322;fill-opacity:1;stroke:none;stroke-width:0.2;stroke-linecap:round;stroke-linejoin:round;stroke-dasharray:none;stroke-opacity:1"
       x="39.564701"
       y="21.093973"
       id="text1208-2-1"
       transform="scale(1.0010411,0.99895998)"><tspan
         sodipodi:role="line"
         style="font-style:normal;font-variant:normal;font-weight:normal;font-stretch:normal;font-size:4.23333px;line-height:0.8;font-family:'Source Code Pro';-inkscape-font-specification:'Source Code Pro, @wght=400';font-variant-ligatures:normal;font-variant-caps:normal;font-variant-numeric:normal;font-variant-east-asian:normal;font-variation-settings:'wght' 400;fill:#212322;fill-opacity:1;stroke:none;stroke-width:0.2"
         x="39.564701"
         y="21.093973"
         id="tspan9-8-8">https://embeetle.com</tspan></text><text
       xml:space="preserve"
       style="font-style:normal;font-variant:normal;font-weight:normal;font-stretch:normal;font-size:4.23333px;line-height:0.8;font-family:'Source Code Pro';-inkscape-font-specification:'Source Code Pro, @wght=400';font-variant-ligatures:normal;font-variant-caps:normal;font-variant-numeric:normal;font-variant-east-asian:normal;font-variation-settings:'wght' 400;display:inline;fill:#212322;fill-opacity:1;stroke:none;stroke-width:0.2;stroke-linecap:round;stroke-linejoin:round;stroke-dasharray:none;stroke-opacity:1"
       x="39.564701"
       y="28.101261"
       id="text28"
       transform="scale(1.0010411,0.99895998)"><tspan
         sodipodi:role="line"
         style="font-style:normal;font-variant:normal;font-weight:normal;font-stretch:normal;font-size:4.23333px;line-height:0.8;font-family:'Source Code Pro';-inkscape-font-specification:'Source Code Pro, @wght=400';font-variant-ligatures:normal;font-variant-caps:normal;font-variant-numeric:normal;font-variant-east-asian:normal;font-variation-settings:'wght' 400;fill:#212322;fill-opacity:1;stroke:none;stroke-width:0.2"
         x="39.564701"
         y="28.101261"
         id="tspan28">https://embeetle.cn</tspan></text><g
       style="fill:none;stroke-width:2.37036"
       id="g5"
       transform="matrix(0.59531248,0,0,0.59531248,8.4188301,5.0370223)"><g
         id="g4207"
         transform="translate(-52.5)"
         inkscape:export-filename="beetle_face.png"
         inkscape:export-xdpi="96"
         inkscape:export-ydpi="96"
         style="stroke-width:2.37036"><path
           id="path3805"
           style="fill:#ffd100;fill-opacity:1;stroke-width:3.01115;stroke-linecap:round;stroke-linejoin:round"
           d="m 93.903616,29.392925 c 0,6.918726 -6.218893,12.527462 -13.890287,12.527462 -7.671394,0 -13.890288,-5.608735 -13.890288,-12.527462 0,-6.918727 7.145311,-12.295858 14.816705,-12.295858 7.671394,0 12.96387,5.377132 12.96387,12.295858 z"
           sodipodi:nodetypes="sssss" /><path
           id="path3729-0"
           style="color:#000000;fill:#934d11;fill-opacity:1;stroke-width:2.37036;stroke-linecap:round"
           d="m 67.903579,5.2598041 c -0.348496,0.00417 -0.69289,0.049399 -1.030518,0.1384277 -1.321129,0.3483673 -2.46387,1.3238885 -3.414917,2.7934571 -1.176046,0.4228295 -1.792513,1.6652742 -1.313965,2.8223881 0.489497,1.183589 1.921998,1.788163 3.150879,1.394531 1.228881,-0.393633 1.884762,-1.666998 1.395264,-2.8505861 -0.278151,-0.6725582 -0.861003,-1.1581798 -1.53772,-1.3798828 0.666551,-0.80691 1.362801,-1.2755964 2.067993,-1.4615479 0.921895,-0.2430935 1.940383,-0.04818 3.132935,0.7148437 1.875018,1.1996831 4.046048,3.8319831 6.269898,7.8900151 0.800238,0.317072 1.547306,0.748305 2.210815,1.281738 C 76.225847,11.347383 73.636717,7.9124626 71.08998,6.2829974 70.384238,5.8314465 69.667644,5.5217601 68.958999,5.3689349 68.604678,5.2925222 68.252076,5.2556339 67.903579,5.2598041 Z" /><path
           id="path3731-9"
           style="color:#000000;fill:#934d11;fill-opacity:1;stroke-width:2.37036;stroke-linecap:round"
           d="m 89.885757,2.0005267 c -0.276295,-0.00503 -0.555157,0.033277 -0.823975,0.1193848 -1.228885,0.3936342 -1.884396,1.6669938 -1.394897,2.8505859 0.06479,0.1566573 0.146532,0.3029588 0.241699,0.4383545 -1.420044,1.7284989 -1.659033,4.4987184 -1.680176,7.1828611 -0.01061,1.34721 0.04985,2.691918 0.109131,3.879273 0.145391,-0.0622 0.293032,-0.120884 0.443481,-0.175415 0.301484,-0.109275 0.605621,-0.199858 0.910767,-0.272827 -0.0563,-1.080285 -0.109219,-2.245345 -0.09998,-3.419312 0.02039,-2.588756 0.406992,-5.0841438 1.390503,-6.3369141 0.568934,0.2433822 1.22686,0.2933357 1.835083,0.098511 C 92.046281,5.9713949 92.70216,4.6980338 92.212661,3.5144427 91.83024,2.5897615 90.872522,2.0184911 89.885757,2.0005267 Z" /><ellipse
           transform="matrix(-0.9456025,0.32532433,0.3593372,0.93320779,0,0)"
           inkscape:export-ydpi="928.942"
           inkscape:export-xdpi="928.942"
           inkscape:export-filename="C:\Users\Kristof\Dropbox (Personal)\EMBEDOFFICE\embedoffice_com\homepage\chip_bee_01.png"
           ry="6.6704621"
           rx="7.1852145"
           cy="45.243824"
           cx="-60.215687"
           id="ellipse3739-4"
           style="fill:#eeeeec;fill-opacity:1;stroke:none;stroke-width:3.23536;stroke-linecap:round;stroke-linejoin:miter;stroke-miterlimit:4;stroke-dasharray:none;stroke-dashoffset:0;stroke-opacity:1" /><path
           id="path3741-8"
           style="fill:#212322;fill-opacity:1;stroke:none;stroke-width:2.65847;stroke-linecap:butt;stroke-linejoin:round;stroke-miterlimit:4;stroke-dasharray:none;stroke-dashoffset:0;stroke-opacity:1"
           d="M 72.705688,20.789428 A 1.9544187,2.1085299 84.248667 0 0 72,20.912476 a 1.9544187,2.1085299 84.248667 0 0 -1.279541,2.515869 1.9544187,2.1085299 84.248667 0 0 2.691284,1.149902 1.9544187,2.1085299 84.248667 0 0 1.279541,-2.516235 1.9544187,2.1085299 84.248667 0 0 -1.985596,-1.272584 z m -0.172851,0.641603 a 0.52701415,0.67244094 74.333387 0 1 0.530639,0.320068 0.52701415,0.67244094 74.333387 0 1 -0.445312,0.711182 0.52701415,0.67244094 74.333387 0 1 -0.825073,-0.273926 0.52701415,0.67244094 74.333387 0 1 0.445679,-0.711182 0.52701415,0.67244094 74.333387 0 1 0.294067,-0.04614 z" /><ellipse
           style="fill:#eeeeec;fill-opacity:1;stroke:none;stroke-width:3.23433;stroke-linecap:round;stroke-linejoin:miter;stroke-miterlimit:4;stroke-dasharray:none;stroke-dashoffset:0;stroke-opacity:1"
           id="ellipse3743-8"
           cx="-75.914833"
           cy="52.84726"
           rx="6.874567"
           ry="6.6420555"
           inkscape:export-filename="C:\Users\Kristof\Dropbox (Personal)\EMBEDOFFICE\embedoffice_com\homepage\chip_bee_01.png"
           inkscape:export-xdpi="928.942"
           inkscape:export-ydpi="928.942"
           transform="matrix(-0.94014925,0.34076295,0.34328077,0.93923283,0,0)" /><path
           id="path3745-2"
           style="fill:#212322;fill-opacity:1;stroke:none;stroke-width:2.59568;stroke-linecap:butt;stroke-linejoin:round;stroke-miterlimit:4;stroke-dasharray:none;stroke-dashoffset:0;stroke-opacity:1"
           d="m 89.492798,21.596191 a 1.9555847,2.0088901 72.859524 0 0 -0.686279,0.123414 1.9555847,2.0088901 72.859524 0 0 -1.217286,2.521362 1.9555847,2.0088901 72.859524 0 0 2.559815,1.152466 1.9555847,2.0088901 72.859524 0 0 1.217285,-2.521363 1.9555847,2.0088901 72.859524 0 0 -1.873535,-1.275879 z m -0.179444,0.643433 a 0.52566048,0.64269735 70.386868 0 1 0.504639,0.320801 0.52566048,0.64269735 70.386868 0 1 -0.423706,0.712646 0.52566048,0.64269735 70.386868 0 1 -0.78479,-0.274658 0.52566048,0.64269735 70.386868 0 1 0.424072,-0.712647 0.52566048,0.64269735 70.386868 0 1 0.279785,-0.04614 z" /><path
           style="color:#000000;fill:#eeeeec;fill-opacity:1;stroke-width:2.37036;stroke-linecap:round;stroke-linejoin:round"
           d="m 77.357422,33.226562 c -0.309582,-0.155325 -0.686464,-0.03028 -0.841797,0.279297 -0.195235,0.387497 -0.137407,0.734979 -0.04883,1.085938 0.08858,0.350959 0.246769,0.716691 0.460937,1.089844 0.428336,0.746304 1.08146,1.522192 1.929688,2.060546 0.848228,0.538355 1.938688,0.824515 3.054687,0.457032 1.116,-0.367483 2.180592,-1.335148 3.146485,-3.060547 0.351529,-0.628294 -0.459819,-1.257008 -0.980469,-0.759766 -0.330627,0.316678 -0.808752,0.471921 -1.433594,0.488281 -0.624841,0.01636 -1.366372,-0.1181 -2.08789,-0.326171 -1.443036,-0.416143 -2.77991,-1.104054 -3.199219,-1.314454 z"
           id="path3747-4"
           sodipodi:nodetypes="scssssccssss" /><path
           id="path3749"
           style="fill:#ffd100;fill-opacity:1;stroke:none;stroke-width:2.97285;stroke-linecap:round;stroke-linejoin:miter;stroke-miterlimit:4;stroke-dasharray:none;stroke-dashoffset:0;stroke-opacity:1"
           d="m 69.690589,39.65549 c -1.490741,0.758045 -2.953797,1.646787 -4.345464,2.627303 -0.777763,0.547917 0.393762,2.346807 -0.164088,2.982129 L 89.883634,45.10959 c -0.474048,-1.455864 -1.118913,-2.772385 -1.935926,-3.902693 -0.788995,0.438104 -1.61683,0.810255 -2.470073,1.113206 -5.101804,1.811429 -11.264968,1.138001 -15.787046,-2.664613 z" /><path
           id="path3751-5"
           style="fill:#00337f;fill-opacity:1;stroke:none;stroke-width:2.73237;stroke-linecap:round;stroke-linejoin:round;stroke-miterlimit:4;stroke-dasharray:none;stroke-dashoffset:0;stroke-opacity:1"
           d="m 66.295767,35.641628 c -3.603612,1.622765 -7.64185,4.694436 -10.450586,8.648668 -0.227708,0.320632 -0.447619,0.660062 -0.658253,0.992138 l 10.016952,0.01942 c 1.415986,-2.006927 2.977543,-3.885229 4.638233,-5.520726 -1.345778,-1.10212 -2.551003,-2.476514 -3.546346,-4.139497 z" /></g></g></g></svg>
