<?xml version="1.0" encoding="UTF-8" standalone="no"?>
<!-- Created with Inkscape (http://www.inkscape.org/) -->

<svg
   width="100mm"
   height="40mm"
   viewBox="0 0 100 40"
   version="1.1"
   id="svg1"
   inkscape:version="1.4 (86a8ad7, 2024-10-11)"
   sodipodi:docname="design_side_2.svg"
   xml:space="preserve"
   inkscape:export-filename="design_cover.png"
   inkscape:export-xdpi="1000"
   inkscape:export-ydpi="1000"
   xmlns:inkscape="http://www.inkscape.org/namespaces/inkscape"
   xmlns:sodipodi="http://sodipodi.sourceforge.net/DTD/sodipodi-0.dtd"
   xmlns="http://www.w3.org/2000/svg"
   xmlns:svg="http://www.w3.org/2000/svg"><sodipodi:namedview
     id="namedview1"
     pagecolor="#ffffff"
     bordercolor="#111111"
     borderopacity="1"
     inkscape:showpageshadow="0"
     inkscape:pageopacity="0"
     inkscape:pagecheckerboard="1"
     inkscape:deskcolor="#d1d1d1"
     inkscape:document-units="mm"
     inkscape:zoom="2.8284271"
     inkscape:cx="199.40411"
     inkscape:cy="100.58594"
     inkscape:window-width="2560"
     inkscape:window-height="1334"
     inkscape:window-x="-11"
     inkscape:window-y="-11"
     inkscape:window-maximized="1"
     inkscape:current-layer="g211"
     showgrid="true"><inkscape:grid
       id="grid1"
       units="mm"
       originx="0"
       originy="0"
       spacingx="0.99999998"
       spacingy="1"
       empcolor="#0099e5"
       empopacity="0.30196078"
       color="#0099e5"
       opacity="0.14901961"
       empspacing="5"
       dotted="false"
       gridanglex="30"
       gridanglez="30"
       visible="true" /></sodipodi:namedview><defs
     id="defs1" /><g
     inkscape:groupmode="layer"
     id="g211"
     inkscape:label="membrane_drawing"
     style="display:inline"><g
       id="g210"
       transform="translate(4.2983168)" /><text
       xml:space="preserve"
       style="font-style:normal;font-variant:normal;font-weight:normal;font-stretch:normal;font-size:4.23333px;line-height:1.2;font-family:'Source Code Pro';-inkscape-font-specification:'Source Code Pro, @wght=400';font-variant-ligatures:normal;font-variant-caps:normal;font-variant-numeric:normal;font-variant-east-asian:normal;font-variation-settings:'wght' 400;display:inline;fill:#212322;fill-opacity:1;stroke:none;stroke-width:0.2;stroke-linecap:round;stroke-linejoin:round;stroke-dasharray:none;stroke-opacity:1"
       x="39.958401"
       y="26.027069"
       id="text1208-2-1"
       transform="scale(1.0010411,0.99895998)"><tspan
         sodipodi:role="line"
         style="font-style:normal;font-variant:normal;font-weight:normal;font-stretch:normal;font-size:4.23333px;line-height:1.2;font-family:'Source Code Pro';-inkscape-font-specification:'Source Code Pro, @wght=400';font-variant-ligatures:normal;font-variant-caps:normal;font-variant-numeric:normal;font-variant-east-asian:normal;font-variation-settings:'wght' 400;fill:#212322;fill-opacity:1;stroke:none;stroke-width:0.2"
         x="39.958401"
         y="26.027069"
         id="tspan9-8-8">https://github.com/</tspan><tspan
         sodipodi:role="line"
         style="font-style:normal;font-variant:normal;font-weight:normal;font-stretch:normal;font-size:4.23333px;line-height:1.2;font-family:'Source Code Pro';-inkscape-font-specification:'Source Code Pro, @wght=400';font-variant-ligatures:normal;font-variant-caps:normal;font-variant-numeric:normal;font-variant-east-asian:normal;font-variation-settings:'wght' 400;fill:#212322;fill-opacity:1;stroke:none;stroke-width:0.2"
         x="39.958401"
         y="31.107065"
         id="tspan1"> Embeetle/tiny-scarab</tspan></text><path
       fill-rule="evenodd"
       clip-rule="evenodd"
       d="m 23.438036,6.4380377 c -7.492984,0 -13.5619607,6.0689793 -13.5619607,13.5619633 0,6.001169 3.8821107,11.069954 9.2729907,12.866913 0.678098,0.118667 0.932385,-0.288193 0.932385,-0.644195 0,-0.322096 -0.01696,-1.390101 -0.01696,-2.525914 -3.407443,0.627242 -4.288971,-0.830671 -4.560211,-1.593531 -0.152571,-0.389906 -0.813717,-1.593531 -1.390101,-1.915627 -0.474667,-0.254288 -1.152765,-0.881528 -0.01695,-0.898481 1.068005,-0.01695 1.830865,0.983243 2.085152,1.390102 1.220577,2.051247 3.170109,1.474864 3.949921,1.118862 0.118668,-0.881529 0.474669,-1.474863 0.864576,-1.813913 -3.017537,-0.339049 -6.170694,-1.508769 -6.170694,-6.696219 0,-1.474863 0.525528,-2.69544 1.390102,-3.644778 -0.135619,-0.339048 -0.610288,-1.729149 0.13562,-3.593919 0,0 1.135814,-0.356002 3.72954,1.390101 1.084956,-0.305145 2.237724,-0.457717 3.39049,-0.457717 1.152767,0 2.305534,0.152572 3.390491,0.457717 2.593725,-1.763055 3.72954,-1.390101 3.72954,-1.390101 0.745908,1.86477 0.271239,3.254871 0.135619,3.593919 0.864575,0.949338 1.390102,2.152962 1.390102,3.644778 0,5.204403 -3.170109,6.35717 -6.187646,6.696219 0.491621,0.423811 0.915432,1.23753 0.915432,2.508963 0,1.813914 -0.01695,3.271825 -0.01695,3.729539 0,0.356002 0.254287,0.779814 0.932385,0.644195 C 33.117889,31.069954 37,25.984217 37,20.000001 37,12.507017 30.931022,6.4380378 23.438037,6.4380378 Z"
       fill="#1b1f23"
       id="path1"
       style="fill:#212322;fill-opacity:1;stroke-width:16.9333" /><g
       id="g1"
       transform="matrix(0.31640625,0,0,0.31640625,67.270789,17.250699)"
       style="stroke-width:3.16048"><path
         fill="#0099b0"
         d="m 83.305566,-22.758942 -4.349485,-0.808831 c -0.105834,-0.01984 -0.221721,-0.119327 -0.25744,-0.221456 l -1.333235,-3.110442 c -0.04974,-0.09604 -0.04022,-0.246856 0.02117,-0.336285 l 2.53418,-3.693584 c 0.06059,-0.0889 0.04868,-0.224102 -0.02778,-0.300566 l -3.16521,-3.165211 c -0.07646,-0.07646 -0.211402,-0.0889 -0.300302,-0.02778 l -3.758406,2.579158 c -0.0889,0.06112 -0.2413,0.07197 -0.337873,0.02434 l -3.015192,-1.234281 c -0.102394,-0.03387 -0.202141,-0.148431 -0.22225,-0.254529 L 68.256337,-37.80712 C 68.236752,-37.913217 68.132241,-38 68.024291,-38 h -4.47675 c -0.107685,0 -0.212195,0.08678 -0.231775,0.192881 l -0.837141,4.498711 c -0.02011,0.106098 -0.119592,0.220662 -0.22225,0.254529 l -3.015456,1.234281 c -0.09684,0.04763 -0.249238,0.03678 -0.337873,-0.02434 l -3.758142,-2.579158 c -0.08916,-0.06112 -0.224367,-0.04868 -0.300567,0.02778 l -3.165475,3.165211 c -0.0762,0.07646 -0.0889,0.211666 -0.02778,0.300566 l 2.534444,3.693584 c 0.06085,0.08943 0.07038,0.240241 0.0209,0.336285 l -1.3335,3.110442 c -0.03545,0.102129 -0.151077,0.201612 -0.25744,0.221456 l -4.34922,0.808831 c -0.106363,0.02011 -0.192882,0.124354 -0.192882,0.232304 l 2.65e-4,4.476486 c 0,0.10795 0.08678,0.212989 0.192881,0.232304 l 4.242594,0.789516 c 0.106098,0.01931 0.219604,0.120121 0.251883,0.223044 l 1.324504,3.308615 c 0.04736,0.0971 0.03625,0.248973 -0.02513,0.337873 l -2.409825,3.5118142 c -0.06085,0.0889 -0.04842,0.2243667 0.02778,0.3008313 l 3.16574,3.1652103 c 0.0762,0.075935 0.211402,0.088371 0.300566,0.027781 l 3.449638,-2.3677562 c 0.0889,-0.060854 0.23786,-0.065617 0.330729,-0.011377 l 1.521354,0.8122708 c 0.09631,0.049213 0.208756,0.00767 0.250031,-0.092075 l 3.1369,-7.5795184 c 0.04154,-0.09975 0,-0.227013 -0.09208,-0.283369 l -0.380735,-0.233098 c -0.07038,-0.04286 -0.165894,-0.116681 -0.240771,-0.184414 -1.373452,-0.879475 -2.284677,-2.418027 -2.284677,-4.170098 0,-2.734204 2.216679,-4.950619 4.950619,-4.950619 2.733939,0 4.950354,2.216415 4.950354,4.950619 0,1.752071 -0.910961,3.290623 -2.284677,4.170098 -0.07435,0.06773 -0.170127,0.141552 -0.240242,0.184414 l -0.380735,0.233098 c -0.09155,0.05636 -0.13335,0.183621 -0.09208,0.283369 l 3.136635,7.579783 c 0.04127,0.099748 0.153458,0.1410229 0.250031,0.092075 l 1.521355,-0.8122708 c 0.09313,-0.05424 0.241829,-0.049742 0.330729,0.011377 l 3.449902,2.3677562 c 0.0889,0.06059 0.224366,0.048154 0.300302,-0.027781 l 3.165739,-3.1652103 c 0.07646,-0.076465 0.0889,-0.2119313 0.02778,-0.3008313 l -2.41009,-3.5118148 c -0.06085,-0.0889 -0.07223,-0.240771 -0.02487,-0.337873 l 1.324504,-3.308614 c 0.03254,-0.102923 0.145257,-0.203729 0.251619,-0.223044 l 4.242594,-0.789517 c 0.105833,-0.01931 0.192881,-0.124354 0.192881,-0.232304 l 5.29e-4,-4.476485 c 2.65e-4,-0.108215 -0.08652,-0.212461 -0.192352,-0.232569"
         id="path1-8"
         style="stroke-width:0.836212" /><path
         fill-rule="evenodd"
         fill="#0099b0"
         d="m 55.064206,9.831639 h 0.95594 V 6.5894349 c 0,-1.1710459 -0.805921,-1.5647459 -1.977232,-1.5647459 -0.712258,0 -1.236927,0.1870605 -1.602316,0.6934729 l 0.749564,0.5715 c 0.16854,-0.271727 0.402961,-0.3659187 0.899584,-0.3659187 0.683948,0 0.97446,0.1598083 0.97446,0.6093354 v 0.4966229 h -1.321329 c -1.021292,0 -1.54596,0.6469063 -1.54596,1.4057312 0,0.8247063 0.618331,1.4525625 1.677193,1.4525625 0.646642,0 0.974725,-0.1497541 1.171311,-0.478102 h 0.01879 z m 0,-1.6681979 c 0,0.7405687 -0.271727,0.8247062 -1.068123,0.8247062 -0.646641,0 -0.899848,-0.2812521 -0.899848,-0.5995458 0,-0.3468687 0.262467,-0.5720292 0.824971,-0.5720292 h 1.143 z"
         id="path2"
         style="stroke-width:0.836212" /><path
         fill-rule="evenodd"
         fill="#0099b0"
         d="m 57.070012,9.831639 h 0.955675 V 6.9733453 c 0,-0.6929438 0.459317,-0.9932459 0.927894,-0.9932459 0.243681,0 0.40296,0.065617 0.627856,0.2346855 L 60.274646,5.3900786 C 59.984133,5.1651828 59.665839,5.024689 59.2814,5.024689 c -0.505884,0 -0.937154,0.1875896 -1.236927,0.5622396 h -0.01879 V 5.0810453 h -0.955675 z"
         id="path3"
         style="stroke-width:0.836212" /><path
         fill-rule="evenodd"
         fill="#0099b0"
         d="m 63.133468,9.831639 h 0.955675 V 3.1596411 H 63.133468 V 5.5869286 C 62.777339,5.2495849 62.393164,5.024689 61.905802,5.024689 c -0.581025,0 -1.002506,0.2619375 -1.274233,0.6185959 -0.262467,0.3368145 -0.337344,0.6458479 -0.337344,1.8086916 0,1.1710458 0.07488,1.4800792 0.337344,1.8174229 0.271727,0.3561292 0.693208,0.6185958 1.274233,0.6185958 0.487362,0 0.927894,-0.225425 1.227666,-0.5529791 z M 62.196314,5.9800994 c 0.890323,0 0.937154,0.7876646 0.937154,1.4718771 0,0.6934729 -0.04683,1.4800792 -0.937154,1.4800792 -0.899583,0 -0.946414,-0.7400396 -0.946414,-1.4800792 0,-0.7313083 0.04683,-1.4718771 0.946414,-1.4718771"
         id="path4"
         style="stroke-width:0.836212" /><polygon
         fill-rule="evenodd"
         fill="#0099b0"
         points="93.043,162.826 88.971,175.398 88.9,175.398 85.464,162.826 81.64,162.826 87.377,180.781 90.564,180.781 94.318,168.208 94.389,168.208 98.143,180.781 101.332,180.781 107.068,162.826 103.242,162.826 99.809,175.398 99.736,175.398 95.664,162.826 "
         id="polygon4"
         transform="matrix(0.26458333,0,0,0.26458333,43,-38)"
         style="stroke-width:3.16048" /><path
         fill-rule="evenodd"
         fill="#0099b0"
         d="m 74.270045,9.831639 h 0.95594 V 6.5894349 c 0,-1.1710459 -0.806185,-1.5647459 -1.977231,-1.5647459 -0.711994,0 -1.237192,0.1870605 -1.602581,0.6934729 l 0.749829,0.5715 c 0.168539,-0.271727 0.402431,-0.3659187 0.899054,-0.3659187 0.684212,0 0.974725,0.1598083 0.974725,0.6093354 v 0.4966229 h -1.321329 c -1.021027,0 -1.546225,0.6469063 -1.546225,1.4057312 0,0.8247063 0.618596,1.4525625 1.677458,1.4525625 0.646377,0 0.974725,-0.1497541 1.171575,-0.478102 h 0.01852 V 9.831639 Z m 0,-1.6681979 c 0,0.7405687 -0.271727,0.8247062 -1.068122,0.8247062 -0.646378,0 -0.899584,-0.2812521 -0.899584,-0.5995458 0,-0.3468687 0.262467,-0.5720292 0.824706,-0.5720292 h 1.143 z"
         id="path5"
         style="stroke-width:0.836212" /><path
         fill-rule="evenodd"
         fill="#0099b0"
         d="m 76.276116,9.831639 h 0.955411 V 6.9733453 c 0,-0.6929438 0.458787,-0.9932459 0.927629,-0.9932459 0.243946,0 0.40296,0.065617 0.627856,0.2346855 L 79.480485,5.3900786 C 79.189972,5.1651828 78.87115,5.024689 78.487239,5.024689 c -0.505883,0 -0.936889,0.1875896 -1.236662,0.5622396 h -0.01905 V 5.0810453 h -0.955411 z"
         id="path6"
         style="stroke-width:0.836212" /><path
         fill-rule="evenodd"
         fill="#0099b0"
         d="M 83.414574,7.8171015 V 7.0294369 c 0,-1.227402 -0.908579,-2.0050124 -1.957916,-2.0050124 -0.918369,0 -1.958446,0.5995458 -1.958446,2.4452791 0,1.9491854 1.13374,2.418027 2.108465,2.418027 0.637116,0 1.245922,-0.2248958 1.7145,-0.7683499 l -0.693473,-0.59055 c -0.281252,0.2910416 -0.674952,0.4593166 -1.039813,0.4593166 -0.656166,0 -1.133739,-0.3937 -1.133739,-1.1710458 z m -2.960422,-0.7874 c 0.01852,-0.7215187 0.440266,-1.1059583 1.002506,-1.1059583 0.562239,0 0.974725,0.3844396 1.002506,1.1059583 z"
         id="path7"
         style="stroke-width:0.836212" /><path
         fill-rule="evenodd"
         fill="#0099b0"
         d="m 43,-0.05213589 c 0,1.03055207 0.149754,1.42425209 0.515144,1.82721249 0.262466,0.2905125 0.702998,0.6088062 1.443302,0.6088062 0.740039,0 1.180571,-0.3182937 1.443037,-0.6088062 0.36539,-0.4029604 0.515409,-0.79692501 0.515409,-1.82721249 0,-1.02155621 -0.150019,-1.41499161 -0.515409,-1.81795211 -0.262466,-0.2905125 -0.702998,-0.6093354 -1.443037,-0.6093354 -0.740304,0 -1.180836,0.3188229 -1.443302,0.6093354 C 43.149754,-1.466863 43,-1.0736921 43,-0.05213589 m 2.960952,0.0092604 c 0,0.68421249 -0.05609,0.87127291 -0.234156,1.12447919 -0.140759,0.19685 -0.440531,0.3468687 -0.76835,0.3468687 -0.328084,0 -0.627856,-0.1497541 -0.76835,-0.3468687 -0.178065,-0.25320628 -0.234421,-0.4402667 -0.234421,-1.1337396 0,-0.6842125 0.05636,-0.87180208 0.234421,-1.1244791 0.140494,-0.19685 0.440266,-0.3468688 0.76835,-0.3468688 0.327819,0 0.627591,0.1497542 0.76835,0.3468688 0.178064,0.25267702 0.234156,0.4402666 0.234156,1.13373951"
         id="path8"
         style="stroke-width:0.836212" /><path
         fill-rule="evenodd"
         fill="#0099b0"
         d="m 56.088673,0.31325368 v -0.7871354 c 0,-1.22793128 -0.908844,-2.00554168 -1.958181,-2.00554168 -0.918634,0 -1.958446,0.600075 -1.958446,2.44580834 0,1.94865626 1.133739,2.41749786 2.1082,2.41749786 0.637381,0 1.246187,-0.2248958 1.714764,-0.76835 L 55.301537,1.025512 c -0.280987,0.2905125 -0.674423,0.4593167 -1.039812,0.4593167 -0.656167,0 -1.134004,-0.3937 -1.134004,-1.17157502 z m -2.960952,-0.78687082 c 0.01879,-0.72204786 0.440531,-1.10595836 1.002771,-1.10595836 0.562239,0 0.97446,0.3839105 1.002506,1.10595836 z"
         id="path9"
         style="stroke-width:0.836212" /><path
         fill-rule="evenodd"
         fill="#0099b0"
         d="m 56.904383,2.3275266 h 0.955675 v -2.82918957 c 0,-0.64690623 0.402961,-1.02155623 0.946415,-1.02155623 0.534193,0 0.937154,0.37465 0.937154,1.02155623 V 2.3275266 h 0.955675 v -3.15753748 c 0,-1.07791252 -0.843227,-1.64941252 -1.583531,-1.64941252 -0.505884,0 -0.937155,0.1875896 -1.236663,0.5622396 h -0.01905 v -0.5058833 h -0.955675 z"
         id="path10"
         style="stroke-width:0.836212" /><path
         fill-rule="evenodd"
         fill="#0099b0"
         d="m 63.283487,1.5313953 c 0.609071,0.5715 1.321329,0.8527521 2.089679,0.8527521 1.105694,0 1.967707,-0.5339292 1.967707,-1.46182289 0,-0.75856041 -0.393171,-1.3586354 -1.377421,-1.42425207 l -0.787136,-0.0558271 c -0.477837,-0.0378354 -0.627591,-0.24394583 -0.627591,-0.45005624 0,-0.3275541 0.20611,-0.5715 0.814916,-0.5715 0.515673,0 0.900113,0.1783292 1.274763,0.4402667 l 0.590021,-0.6929438 c -0.468577,-0.3937 -1.030552,-0.6469062 -1.865048,-0.6469062 -1.002506,0 -1.770856,0.4966229 -1.770856,1.4618229 0,0.81491664 0.581025,1.2837583 1.367895,1.34937496 l 0.843492,0.0748771 c 0.328348,0.0277812 0.581025,0.13123333 0.581025,0.46857707 0,0.40296047 -0.393965,0.60880627 -0.937154,0.60880627 -0.637117,0 -1.086908,-0.2055813 -1.499129,-0.60880627 z"
         id="path11"
         style="stroke-width:0.836212" /><path
         fill-rule="evenodd"
         fill="#0099b0"
         d="m 67.884327,-0.05213589 c 0,1.03055207 0.150283,1.42425209 0.515673,1.82721249 0.262466,0.2905125 0.702733,0.6088062 1.442773,0.6088062 0.740568,0 1.180835,-0.3182937 1.443302,-0.6088062 0.365389,-0.4029604 0.515143,-0.79692501 0.515143,-1.82721249 0,-1.02155621 -0.149754,-1.41499161 -0.515143,-1.81795211 -0.262467,-0.2905125 -0.702734,-0.6093354 -1.443302,-0.6093354 -0.74004,0 -1.180307,0.3188229 -1.442773,0.6093354 -0.36539,0.403225 -0.515673,0.7963959 -0.515673,1.81795211 m 2.960952,0.0092604 c 0,0.68421249 -0.05583,0.87127291 -0.234156,1.12447919 -0.140494,0.19685 -0.440267,0.3468687 -0.76835,0.3468687 -0.327555,0 -0.627857,-0.1497541 -0.767821,-0.3468687 -0.178329,-0.25320628 -0.234686,-0.4402667 -0.234686,-1.1337396 0,-0.6842125 0.05636,-0.87180208 0.234686,-1.1244791 0.139964,-0.19685 0.440266,-0.3468688 0.767821,-0.3468688 0.328083,0 0.627856,0.1497542 0.76835,0.3468688 0.178329,0.25267702 0.234156,0.4402666 0.234156,1.13373951"
         id="path12"
         style="stroke-width:0.836212" /><path
         fill-rule="evenodd"
         fill="#0099b0"
         d="m 72.617193,0.73499951 c 0,1.07738329 0.843492,1.64888329 1.593057,1.64888329 0.496093,0 0.927629,-0.1875896 1.227402,-0.5622396 h 0.01852 v 0.5064125 h 0.95541 v -4.7511228 h -0.95541 v 2.8297187 c 0,0.6463771 -0.402961,1.0215562 -0.937419,1.0215562 -0.54319,0 -0.94615,-0.3751791 -0.94615,-1.0215562 v -2.8297187 h -0.955411 z"
         id="path13"
         style="stroke-width:0.836212" /><path
         fill-rule="evenodd"
         fill="#0099b0"
         d="m 77.459862,2.3275266 h 0.95594 v -2.85776457 c 0,-0.69347293 0.458787,-0.99324583 0.927629,-0.99324583 0.243946,0 0.40296,0.065617 0.627856,0.2341563 l 0.693473,-0.8247063 c -0.291042,-0.2248958 -0.608806,-0.3653896 -0.993246,-0.3653896 -0.505883,0 -0.937419,0.1875896 -1.237192,0.5622396 h -0.01852 v -0.5058833 h -0.95594 z"
         id="path14"
         style="stroke-width:0.836212" /><path
         fill-rule="evenodd"
         fill="#0099b0"
         d="M 83.708527,0.93184951 C 83.47437,1.222362 83.137027,1.4284724 82.743856,1.4284724 c -0.777611,0 -1.237192,-0.44079581 -1.237192,-1.47187704 0,-1.03981246 0.459317,-1.48007916 1.237192,-1.48007916 0.393171,0 0.730779,0.2061104 0.964671,0.4966229 l 0.702733,-0.6278562 c -0.411956,-0.4781021 -0.983986,-0.8247063 -1.70524,-0.8247063 -1.096168,0 -2.155031,0.6934729 -2.155031,2.43601876 0,1.73434374 1.058863,2.42728744 2.155031,2.42728744 0.721519,0 1.293548,-0.3468687 1.70524,-0.824177 z"
         id="path15"
         style="stroke-width:0.836212" /><path
         fill-rule="evenodd"
         fill="#0099b0"
         d="m 88.571304,0.31325368 v -0.7871354 c 0,-1.22793128 -0.909638,-2.00554168 -1.958446,-2.00554168 -0.918898,0 -1.958446,0.600075 -1.958446,2.44580834 0,1.94865626 1.13374,2.41749786 2.108465,2.41749786 0.637116,0 1.246452,-0.2248958 1.7145,-0.76835 L 87.783904,1.025512 c -0.281252,0.2905125 -0.674423,0.4593167 -1.039813,0.4593167 -0.656167,0 -1.133739,-0.3937 -1.133739,-1.17157502 z m -2.960952,-0.78687082 c 0.01852,-0.72204786 0.440266,-1.10595836 1.002506,-1.10595836 0.562239,0 0.974196,0.3839105 1.002506,1.10595836 z"
         id="path16"
         style="stroke-width:0.836212" /><path
         fill="#0099b0"
         d="m 49.625431,1.4284724 c 0.899583,0 0.946415,-0.74056872 0.946415,-1.47134788 0,-0.74056874 -0.04683,-1.48060832 -0.946415,-1.48060832 -0.890058,0 -0.937154,0.78713541 -0.937154,1.48060832 0,0.68421249 0.04683,1.47134788 0.937154,1.47134788 M 47.728898,9.831639 V -2.4228025 h 0.959379 v 0.4966229 c 0.300038,-0.3280834 0.740304,-0.5529792 1.227667,-0.5529792 0.58076,0 1.00277,0.2624667 1.274498,0.6185958 0.262202,0.3373438 0.337079,0.6463771 0.337079,1.81795211 0,1.16178539 -0.07488,1.47134789 -0.337079,1.80816249 -0.271728,0.3561291 -0.693738,0.6185958 -1.274498,0.6185958 -0.487363,0 -0.871538,-0.2248958 -1.227667,-0.5622396 l -0.0034,3.7650208 c 0.318559,-0.37465 0.749565,-0.5622396 1.255448,-0.5622396 0.740304,0 1.583532,0.5715 1.583532,1.6488834 V 9.831639 H 50.568142 V 7.0019203 c 0,-0.6469063 -0.402961,-1.0215563 -0.937155,-1.0215563 -0.543454,0 -0.94615,0.37465 -0.94615,1.0215563 V 9.831639 Z"
         id="path17"
         style="stroke-width:0.836212" /></g></g></svg>
