%TF.GenerationSoftware,KiCad,Pcbnew,7.0.10*%
%TF.CreationDate,2024-01-15T20:08:33+01:00*%
%TF.ProjectId,tiny-scarab,74696e79-2d73-4636-9172-61622e6b6963,0.1*%
%TF.SameCoordinates,Original*%
%TF.FileFunction,Drillmap*%
%TF.FilePolarity,Positive*%
%FSLAX45Y45*%
G04 Gerber Fmt 4.5, Leading zero omitted, Abs format (unit mm)*
G04 Created by KiCad (PCBNEW 7.0.10) date 2024-01-15 20:08:33*
%MOMM*%
%LPD*%
G01*
G04 APERTURE LIST*
%ADD10C,0.100000*%
%ADD11C,0.200000*%
%ADD12C,0.300000*%
G04 APERTURE END LIST*
D10*
X7803366Y-7810128D02*
X7803366Y-3888872D01*
X11625000Y-2984500D02*
G75*
G03*
X10990000Y-2349500I-635000J0D01*
G01*
X7425000Y-2984500D02*
G75*
G03*
X7614183Y-3436686I635000J0D01*
G01*
X11625000Y-8714500D02*
G75*
G03*
X11435817Y-8262314I-635000J0D01*
G01*
X11246634Y-7810128D02*
G75*
G03*
X11435817Y-8262314I634996J-2D01*
G01*
X11246634Y-3888872D02*
X11246634Y-7810128D01*
X11435817Y-3436686D02*
G75*
G03*
X11246634Y-3888872I445813J-452184D01*
G01*
X8060000Y-2349500D02*
G75*
G03*
X7425000Y-2984500I0J-635000D01*
G01*
X7614183Y-8262314D02*
G75*
G03*
X7803366Y-7810128I-445813J452184D01*
G01*
X7803366Y-3888872D02*
G75*
G03*
X7614183Y-3436686I-634996J2D01*
G01*
X10990000Y-9349500D02*
G75*
G03*
X11625000Y-8714500I0J635000D01*
G01*
X11435817Y-3436686D02*
G75*
G03*
X11625000Y-2984500I-445817J452186D01*
G01*
X7614183Y-8262314D02*
G75*
G03*
X7425000Y-8714500I445817J-452186D01*
G01*
X8060000Y-2349500D02*
X10990000Y-2349500D01*
X7425000Y-8714500D02*
G75*
G03*
X8060000Y-9349500I635000J0D01*
G01*
X10990000Y-9349500D02*
X8060000Y-9349500D01*
D11*
D10*
X7695250Y-3377250D02*
X7735250Y-3417250D01*
X7735250Y-3377250D02*
X7695250Y-3417250D01*
X7822250Y-3580450D02*
X7862250Y-3620450D01*
X7862250Y-3580450D02*
X7822250Y-3620450D01*
X7885750Y-5377500D02*
X7925750Y-5417500D01*
X7925750Y-5377500D02*
X7885750Y-5417500D01*
X7885750Y-5695000D02*
X7925750Y-5735000D01*
X7925750Y-5695000D02*
X7885750Y-5735000D01*
X7885750Y-6012500D02*
X7925750Y-6052500D01*
X7925750Y-6012500D02*
X7885750Y-6052500D01*
X7885750Y-6647500D02*
X7925750Y-6687500D01*
X7925750Y-6647500D02*
X7885750Y-6687500D01*
X7885750Y-6965000D02*
X7925750Y-7005000D01*
X7925750Y-6965000D02*
X7885750Y-7005000D01*
X7885750Y-7282500D02*
X7925750Y-7322500D01*
X7925750Y-7282500D02*
X7885750Y-7322500D01*
X7885750Y-7917500D02*
X7925750Y-7957500D01*
X7925750Y-7917500D02*
X7885750Y-7957500D01*
X7885750Y-8235000D02*
X7925750Y-8275000D01*
X7925750Y-8235000D02*
X7885750Y-8275000D01*
X7888925Y-6330000D02*
X7928925Y-6370000D01*
X7928925Y-6330000D02*
X7888925Y-6370000D01*
X7888925Y-7600000D02*
X7928925Y-7640000D01*
X7928925Y-7600000D02*
X7888925Y-7640000D01*
X8114350Y-5486800D02*
X8154350Y-5526800D01*
X8154350Y-5486800D02*
X8114350Y-5526800D01*
X8114350Y-5586800D02*
X8154350Y-5626800D01*
X8154350Y-5586800D02*
X8114350Y-5626800D01*
X8165150Y-5936300D02*
X8205150Y-5976300D01*
X8205150Y-5936300D02*
X8165150Y-5976300D01*
X8203250Y-2427925D02*
X8243250Y-2467925D01*
X8243250Y-2427925D02*
X8203250Y-2467925D01*
X8265150Y-5936300D02*
X8305150Y-5976300D01*
X8305150Y-5936300D02*
X8265150Y-5976300D01*
X8358825Y-3726500D02*
X8398825Y-3766500D01*
X8398825Y-3726500D02*
X8358825Y-3766500D01*
X8420975Y-5780725D02*
X8460975Y-5820725D01*
X8460975Y-5780725D02*
X8420975Y-5820725D01*
X8444550Y-6533200D02*
X8484550Y-6573200D01*
X8484550Y-6533200D02*
X8444550Y-6573200D01*
X8444550Y-6787200D02*
X8484550Y-6827200D01*
X8484550Y-6787200D02*
X8444550Y-6827200D01*
X8444550Y-7041200D02*
X8484550Y-7081200D01*
X8484550Y-7041200D02*
X8444550Y-7081200D01*
X8463825Y-3726500D02*
X8503825Y-3766500D01*
X8503825Y-3726500D02*
X8463825Y-3766500D01*
X8495350Y-2831102D02*
X8535350Y-2871102D01*
X8535350Y-2831102D02*
X8495350Y-2871102D01*
X8526400Y-4221800D02*
X8566400Y-4261800D01*
X8566400Y-4221800D02*
X8526400Y-4261800D01*
X8565200Y-3605850D02*
X8605200Y-3645850D01*
X8605200Y-3605850D02*
X8565200Y-3645850D01*
X8566776Y-4686553D02*
X8606776Y-4726553D01*
X8606776Y-4686553D02*
X8566776Y-4726553D01*
X8609650Y-5284975D02*
X8649650Y-5324975D01*
X8649650Y-5284975D02*
X8609650Y-5324975D01*
X8609650Y-5384975D02*
X8649650Y-5424975D01*
X8649650Y-5384975D02*
X8609650Y-5424975D01*
X8638225Y-5765000D02*
X8678225Y-5805000D01*
X8678225Y-5765000D02*
X8638225Y-5805000D01*
X8638525Y-2831102D02*
X8678525Y-2871102D01*
X8678525Y-2831102D02*
X8638525Y-2871102D01*
X8666610Y-4692319D02*
X8706610Y-4732319D01*
X8706610Y-4692319D02*
X8666610Y-4732319D01*
X8673150Y-5602925D02*
X8713150Y-5642925D01*
X8713150Y-5602925D02*
X8673150Y-5642925D01*
X8689025Y-5015550D02*
X8729025Y-5055550D01*
X8729025Y-5015550D02*
X8689025Y-5055550D01*
X8711250Y-7933375D02*
X8751250Y-7973375D01*
X8751250Y-7933375D02*
X8711250Y-7973375D01*
X8714425Y-7673025D02*
X8754425Y-7713025D01*
X8754425Y-7673025D02*
X8714425Y-7713025D01*
X8717600Y-7168200D02*
X8757600Y-7208200D01*
X8757600Y-7168200D02*
X8717600Y-7208200D01*
X8747553Y-5765000D02*
X8787553Y-5805000D01*
X8787553Y-5765000D02*
X8747553Y-5805000D01*
X8789025Y-5015550D02*
X8829025Y-5055550D01*
X8829025Y-5015550D02*
X8789025Y-5055550D01*
X8798712Y-4566775D02*
X8838712Y-4606775D01*
X8838712Y-4566775D02*
X8798712Y-4606775D01*
X8870000Y-3685226D02*
X8910000Y-3725226D01*
X8910000Y-3685226D02*
X8870000Y-3725226D01*
X8895399Y-4693550D02*
X8935399Y-4733550D01*
X8935399Y-4693550D02*
X8895399Y-4733550D01*
X8914000Y-2812100D02*
X8954000Y-2852100D01*
X8954000Y-2812100D02*
X8914000Y-2852100D01*
X8970157Y-5800060D02*
X9010157Y-5840060D01*
X9010157Y-5800060D02*
X8970157Y-5840060D01*
X8990600Y-8076200D02*
X9030600Y-8116200D01*
X9030600Y-8076200D02*
X8990600Y-8116200D01*
X8990650Y-7806375D02*
X9030650Y-7846375D01*
X9030650Y-7806375D02*
X8990650Y-7846375D01*
X8990650Y-7041200D02*
X9030650Y-7081200D01*
X9030650Y-7041200D02*
X8990650Y-7081200D01*
X8990650Y-6533200D02*
X9030650Y-6573200D01*
X9030650Y-6533200D02*
X8990650Y-6573200D01*
X9040868Y-5729349D02*
X9080868Y-5769349D01*
X9080868Y-5729349D02*
X9040868Y-5769349D01*
X9152575Y-4802825D02*
X9192575Y-4842825D01*
X9192575Y-4802825D02*
X9152575Y-4842825D01*
X9185980Y-8489000D02*
X9225980Y-8529000D01*
X9225980Y-8489000D02*
X9185980Y-8529000D01*
X9187500Y-2427925D02*
X9227500Y-2467925D01*
X9227500Y-2427925D02*
X9187500Y-2467925D01*
X9187500Y-2615250D02*
X9227500Y-2655250D01*
X9227500Y-2615250D02*
X9187500Y-2655250D01*
X9250999Y-3424875D02*
X9290999Y-3464875D01*
X9290999Y-3424875D02*
X9250999Y-3464875D01*
X9255775Y-3605770D02*
X9295775Y-3645770D01*
X9295775Y-3605770D02*
X9255775Y-3645770D01*
X9289100Y-8489000D02*
X9329100Y-8529000D01*
X9329100Y-8489000D02*
X9289100Y-8529000D01*
X9292275Y-4263075D02*
X9332275Y-4303075D01*
X9332275Y-4263075D02*
X9292275Y-4303075D01*
X9298625Y-5615625D02*
X9338625Y-5655625D01*
X9338625Y-5615625D02*
X9298625Y-5655625D01*
X9311325Y-5745800D02*
X9351325Y-5785800D01*
X9351325Y-5745800D02*
X9311325Y-5785800D01*
X9318275Y-3231072D02*
X9358275Y-3271072D01*
X9358275Y-3231072D02*
X9318275Y-3271072D01*
X9355775Y-3605850D02*
X9395775Y-3645850D01*
X9395775Y-3605850D02*
X9355775Y-3645850D01*
X9403400Y-2932750D02*
X9443400Y-2972750D01*
X9443400Y-2932750D02*
X9403400Y-2972750D01*
X9424106Y-3231244D02*
X9464106Y-3271244D01*
X9464106Y-3231244D02*
X9424106Y-3271244D01*
X9433575Y-4012532D02*
X9473575Y-4052532D01*
X9473575Y-4012532D02*
X9433575Y-4052532D01*
X9438625Y-5615625D02*
X9478625Y-5655625D01*
X9478625Y-5615625D02*
X9438625Y-5655625D01*
X9501225Y-3365851D02*
X9541225Y-3405851D01*
X9541225Y-3365851D02*
X9501225Y-3405851D01*
X9505000Y-2780350D02*
X9545000Y-2820350D01*
X9545000Y-2780350D02*
X9505000Y-2820350D01*
X9505000Y-2932750D02*
X9545000Y-2972750D01*
X9545000Y-2932750D02*
X9505000Y-2972750D01*
X9532055Y-8489000D02*
X9572055Y-8529000D01*
X9572055Y-8489000D02*
X9532055Y-8529000D01*
X9533576Y-4012250D02*
X9573576Y-4052250D01*
X9573576Y-4012250D02*
X9533576Y-4052250D01*
X9601854Y-3608138D02*
X9641854Y-3648138D01*
X9641854Y-3608138D02*
X9601854Y-3648138D01*
X9606600Y-2780350D02*
X9646600Y-2820350D01*
X9646600Y-2780350D02*
X9606600Y-2820350D01*
X9606600Y-2932749D02*
X9646600Y-2972749D01*
X9646600Y-2932749D02*
X9606600Y-2972749D01*
X9622475Y-4682175D02*
X9662475Y-4722175D01*
X9662475Y-4682175D02*
X9622475Y-4722175D01*
X9635175Y-8489000D02*
X9675175Y-8529000D01*
X9675175Y-8489000D02*
X9635175Y-8529000D01*
X9654225Y-5618800D02*
X9694225Y-5658800D01*
X9694225Y-5618800D02*
X9654225Y-5658800D01*
X9701850Y-3609025D02*
X9741850Y-3649025D01*
X9741850Y-3609025D02*
X9701850Y-3649025D01*
X9752004Y-5735629D02*
X9792004Y-5775629D01*
X9792004Y-5735629D02*
X9752004Y-5775629D01*
X9790750Y-3409000D02*
X9830750Y-3449000D01*
X9830750Y-3409000D02*
X9790750Y-3449000D01*
X9797100Y-3196275D02*
X9837100Y-3236275D01*
X9837100Y-3196275D02*
X9797100Y-3236275D01*
X9824082Y-4032882D02*
X9864082Y-4072882D01*
X9864082Y-4032882D02*
X9824082Y-4072882D01*
X9827900Y-4295251D02*
X9867900Y-4335251D01*
X9867900Y-4295251D02*
X9827900Y-4335251D01*
X9828850Y-2427925D02*
X9868850Y-2467925D01*
X9868850Y-2427925D02*
X9828850Y-2467925D01*
X9828850Y-2615250D02*
X9868850Y-2655250D01*
X9868850Y-2615250D02*
X9828850Y-2655250D01*
X9917750Y-3167700D02*
X9957750Y-3207700D01*
X9957750Y-3167700D02*
X9917750Y-3207700D01*
X9920925Y-3917000D02*
X9960925Y-3957000D01*
X9960925Y-3917000D02*
X9920925Y-3957000D01*
X9958854Y-5837048D02*
X9998854Y-5877048D01*
X9998854Y-5837048D02*
X9958854Y-5877048D01*
X9958925Y-5635457D02*
X9998925Y-5675457D01*
X9998925Y-5635457D02*
X9958925Y-5675457D01*
X9961511Y-3610284D02*
X10001511Y-3650284D01*
X10001511Y-3610284D02*
X9961511Y-3650284D01*
X10017748Y-3168320D02*
X10057748Y-3208320D01*
X10057748Y-3168320D02*
X10017748Y-3208320D01*
X10019350Y-6241100D02*
X10059350Y-6281100D01*
X10059350Y-6241100D02*
X10019350Y-6281100D01*
X10032050Y-3764600D02*
X10072050Y-3804600D01*
X10072050Y-3764600D02*
X10032050Y-3804600D01*
X10086025Y-4142425D02*
X10126025Y-4182425D01*
X10126025Y-4142425D02*
X10086025Y-4182425D01*
X10096000Y-2812100D02*
X10136000Y-2852100D01*
X10136000Y-2812100D02*
X10096000Y-2852100D01*
X10105075Y-8292150D02*
X10145075Y-8332150D01*
X10145075Y-8292150D02*
X10105075Y-8332150D01*
X10155875Y-5152075D02*
X10195875Y-5192075D01*
X10195875Y-5152075D02*
X10155875Y-5192075D01*
X10162225Y-4688525D02*
X10202225Y-4728525D01*
X10202225Y-4688525D02*
X10162225Y-4728525D01*
X10200325Y-3439725D02*
X10240325Y-3479725D01*
X10240325Y-3439725D02*
X10200325Y-3479725D01*
X10237276Y-5845374D02*
X10277276Y-5885374D01*
X10277276Y-5845374D02*
X10237276Y-5885374D01*
X10238425Y-5625150D02*
X10278425Y-5665150D01*
X10278425Y-5625150D02*
X10238425Y-5665150D01*
X10255875Y-5152075D02*
X10295875Y-5192075D01*
X10295875Y-5152075D02*
X10255875Y-5192075D01*
X10267000Y-4234500D02*
X10307000Y-4274500D01*
X10307000Y-4234500D02*
X10267000Y-4274500D01*
X10267499Y-4134501D02*
X10307499Y-4174501D01*
X10307499Y-4134501D02*
X10267499Y-4174501D01*
X10298750Y-8203250D02*
X10338750Y-8243250D01*
X10338750Y-8203250D02*
X10298750Y-8243250D01*
X10311450Y-6660200D02*
X10351450Y-6700200D01*
X10351450Y-6660200D02*
X10311450Y-6700200D01*
X10312075Y-6406072D02*
X10352075Y-6446072D01*
X10352075Y-6406072D02*
X10312075Y-6446072D01*
X10314625Y-6914200D02*
X10354625Y-6954200D01*
X10354625Y-6914200D02*
X10314625Y-6954200D01*
X10330500Y-6152200D02*
X10370500Y-6192200D01*
X10370500Y-6152200D02*
X10330500Y-6192200D01*
X10425750Y-3081975D02*
X10465750Y-3121975D01*
X10465750Y-3081975D02*
X10425750Y-3121975D01*
X10438450Y-3770950D02*
X10478450Y-3810950D01*
X10478450Y-3770950D02*
X10438450Y-3810950D01*
X10438450Y-3897950D02*
X10478450Y-3937950D01*
X10478450Y-3897950D02*
X10438450Y-3937950D01*
X10438450Y-4278950D02*
X10478450Y-4318950D01*
X10478450Y-4278950D02*
X10438450Y-4318950D01*
X10468694Y-3527011D02*
X10508694Y-3567011D01*
X10508694Y-3527011D02*
X10468694Y-3567011D01*
X10522588Y-2978787D02*
X10562588Y-3018787D01*
X10562588Y-2978787D02*
X10522588Y-3018787D01*
X10571800Y-3529440D02*
X10611800Y-3569440D01*
X10611800Y-3529440D02*
X10571800Y-3569440D01*
X10606725Y-5885500D02*
X10646725Y-5925500D01*
X10646725Y-5885500D02*
X10606725Y-5925500D01*
X10606725Y-5985500D02*
X10646725Y-6025500D01*
X10646725Y-5985500D02*
X10606725Y-6025500D01*
X10671800Y-3529494D02*
X10711800Y-3569494D01*
X10711800Y-3529494D02*
X10671800Y-3569494D01*
X10711500Y-8489000D02*
X10751500Y-8529000D01*
X10751500Y-8489000D02*
X10711500Y-8529000D01*
X10755950Y-3897950D02*
X10795950Y-3937950D01*
X10795950Y-3897950D02*
X10755950Y-3937950D01*
X10755950Y-4151950D02*
X10795950Y-4191950D01*
X10795950Y-4151950D02*
X10755950Y-4191950D01*
X10775000Y-2427925D02*
X10815000Y-2467925D01*
X10815000Y-2427925D02*
X10775000Y-2467925D01*
X10806750Y-6787200D02*
X10846750Y-6827200D01*
X10846750Y-6787200D02*
X10806750Y-6827200D01*
X10848025Y-3285175D02*
X10888025Y-3325175D01*
X10888025Y-3285175D02*
X10848025Y-3325175D01*
X10870250Y-8330250D02*
X10910250Y-8370250D01*
X10910250Y-8330250D02*
X10870250Y-8370250D01*
X10890900Y-3866392D02*
X10930900Y-3906392D01*
X10930900Y-3866392D02*
X10890900Y-3906392D01*
X10971491Y-4646150D02*
X11011491Y-4686150D01*
X11011491Y-4646150D02*
X10971491Y-4686150D01*
X10990900Y-3866200D02*
X11030900Y-3906200D01*
X11030900Y-3866200D02*
X10990900Y-3906200D01*
X11046432Y-4579939D02*
X11086432Y-4619939D01*
X11086432Y-4579939D02*
X11046432Y-4619939D01*
X11124250Y-5377500D02*
X11164250Y-5417500D01*
X11164250Y-5377500D02*
X11124250Y-5417500D01*
X11124250Y-5695000D02*
X11164250Y-5735000D01*
X11164250Y-5695000D02*
X11124250Y-5735000D01*
X11124250Y-6012500D02*
X11164250Y-6052500D01*
X11164250Y-6012500D02*
X11124250Y-6052500D01*
X11124250Y-6647500D02*
X11164250Y-6687500D01*
X11164250Y-6647500D02*
X11124250Y-6687500D01*
X11124250Y-6965000D02*
X11164250Y-7005000D01*
X11164250Y-6965000D02*
X11124250Y-7005000D01*
X11124250Y-7282500D02*
X11164250Y-7322500D01*
X11164250Y-7282500D02*
X11124250Y-7322500D01*
X11124250Y-7917500D02*
X11164250Y-7957500D01*
X11164250Y-7917500D02*
X11124250Y-7957500D01*
X11124250Y-8235000D02*
X11164250Y-8275000D01*
X11164250Y-8235000D02*
X11124250Y-8275000D01*
X11127425Y-6330000D02*
X11167425Y-6370000D01*
X11167425Y-6330000D02*
X11127425Y-6370000D01*
X11127425Y-7600000D02*
X11167425Y-7640000D01*
X11167425Y-7600000D02*
X11127425Y-7640000D01*
X11136950Y-3777300D02*
X11176950Y-3817300D01*
X11176950Y-3777300D02*
X11136950Y-3817300D01*
X11184575Y-3593150D02*
X11224575Y-3633150D01*
X11224575Y-3593150D02*
X11184575Y-3633150D01*
X11289350Y-3412175D02*
X11329350Y-3452175D01*
X11329350Y-3412175D02*
X11289350Y-3452175D01*
X10695300Y-4797175D02*
G75*
G03*
X10615300Y-4797175I-40000J0D01*
G01*
X10615300Y-4797175D02*
G75*
G03*
X10695300Y-4797175I40000J0D01*
G01*
X10695300Y-4937125D02*
G75*
G03*
X10615300Y-4937125I-40000J0D01*
G01*
X10615300Y-4937125D02*
G75*
G03*
X10695300Y-4937125I40000J0D01*
G01*
X10695300Y-5077075D02*
G75*
G03*
X10615300Y-5077075I-40000J0D01*
G01*
X10615300Y-5077075D02*
G75*
G03*
X10695300Y-5077075I40000J0D01*
G01*
X10439400Y-5475800D02*
X10439400Y-5555800D01*
X10399400Y-5515800D02*
X10479400Y-5515800D01*
X10439400Y-5725800D02*
X10439400Y-5805800D01*
X10399400Y-5765800D02*
X10479400Y-5765800D01*
X10439400Y-5975800D02*
X10439400Y-6055800D01*
X10399400Y-6015800D02*
X10479400Y-6015800D01*
D12*
X7931067Y-2955567D02*
X7931067Y-2743433D01*
X7718933Y-2743433D01*
X7718933Y-2955567D01*
X7931067Y-2955567D01*
X7931067Y-8955567D02*
X7931067Y-8743433D01*
X7718933Y-8743433D01*
X7718933Y-8955567D01*
X7931067Y-8955567D01*
X11331067Y-2955567D02*
X11331067Y-2743433D01*
X11118933Y-2743433D01*
X11118933Y-2955567D01*
X11331067Y-2955567D01*
X11331067Y-8955567D02*
X11331067Y-8743433D01*
X11118933Y-8743433D01*
X11118933Y-8955567D01*
X11331067Y-8955567D01*
D11*
X7680777Y-9665984D02*
X7680777Y-9465984D01*
X7680777Y-9465984D02*
X7728396Y-9465984D01*
X7728396Y-9465984D02*
X7756967Y-9475508D01*
X7756967Y-9475508D02*
X7776015Y-9494555D01*
X7776015Y-9494555D02*
X7785539Y-9513603D01*
X7785539Y-9513603D02*
X7795062Y-9551698D01*
X7795062Y-9551698D02*
X7795062Y-9580270D01*
X7795062Y-9580270D02*
X7785539Y-9618365D01*
X7785539Y-9618365D02*
X7776015Y-9637412D01*
X7776015Y-9637412D02*
X7756967Y-9656460D01*
X7756967Y-9656460D02*
X7728396Y-9665984D01*
X7728396Y-9665984D02*
X7680777Y-9665984D01*
X7880777Y-9665984D02*
X7880777Y-9532650D01*
X7880777Y-9570746D02*
X7890301Y-9551698D01*
X7890301Y-9551698D02*
X7899824Y-9542174D01*
X7899824Y-9542174D02*
X7918872Y-9532650D01*
X7918872Y-9532650D02*
X7937920Y-9532650D01*
X8004586Y-9665984D02*
X8004586Y-9532650D01*
X8004586Y-9465984D02*
X7995062Y-9475508D01*
X7995062Y-9475508D02*
X8004586Y-9485031D01*
X8004586Y-9485031D02*
X8014110Y-9475508D01*
X8014110Y-9475508D02*
X8004586Y-9465984D01*
X8004586Y-9465984D02*
X8004586Y-9485031D01*
X8128396Y-9665984D02*
X8109348Y-9656460D01*
X8109348Y-9656460D02*
X8099824Y-9637412D01*
X8099824Y-9637412D02*
X8099824Y-9465984D01*
X8233158Y-9665984D02*
X8214110Y-9656460D01*
X8214110Y-9656460D02*
X8204586Y-9637412D01*
X8204586Y-9637412D02*
X8204586Y-9465984D01*
X8461729Y-9665984D02*
X8461729Y-9465984D01*
X8461729Y-9465984D02*
X8528396Y-9608841D01*
X8528396Y-9608841D02*
X8595063Y-9465984D01*
X8595063Y-9465984D02*
X8595063Y-9665984D01*
X8776015Y-9665984D02*
X8776015Y-9561222D01*
X8776015Y-9561222D02*
X8766491Y-9542174D01*
X8766491Y-9542174D02*
X8747444Y-9532650D01*
X8747444Y-9532650D02*
X8709348Y-9532650D01*
X8709348Y-9532650D02*
X8690301Y-9542174D01*
X8776015Y-9656460D02*
X8756967Y-9665984D01*
X8756967Y-9665984D02*
X8709348Y-9665984D01*
X8709348Y-9665984D02*
X8690301Y-9656460D01*
X8690301Y-9656460D02*
X8680777Y-9637412D01*
X8680777Y-9637412D02*
X8680777Y-9618365D01*
X8680777Y-9618365D02*
X8690301Y-9599317D01*
X8690301Y-9599317D02*
X8709348Y-9589793D01*
X8709348Y-9589793D02*
X8756967Y-9589793D01*
X8756967Y-9589793D02*
X8776015Y-9580270D01*
X8871253Y-9532650D02*
X8871253Y-9732650D01*
X8871253Y-9542174D02*
X8890301Y-9532650D01*
X8890301Y-9532650D02*
X8928396Y-9532650D01*
X8928396Y-9532650D02*
X8947444Y-9542174D01*
X8947444Y-9542174D02*
X8956967Y-9551698D01*
X8956967Y-9551698D02*
X8966491Y-9570746D01*
X8966491Y-9570746D02*
X8966491Y-9627889D01*
X8966491Y-9627889D02*
X8956967Y-9646936D01*
X8956967Y-9646936D02*
X8947444Y-9656460D01*
X8947444Y-9656460D02*
X8928396Y-9665984D01*
X8928396Y-9665984D02*
X8890301Y-9665984D01*
X8890301Y-9665984D02*
X8871253Y-9656460D01*
X9052205Y-9646936D02*
X9061729Y-9656460D01*
X9061729Y-9656460D02*
X9052205Y-9665984D01*
X9052205Y-9665984D02*
X9042682Y-9656460D01*
X9042682Y-9656460D02*
X9052205Y-9646936D01*
X9052205Y-9646936D02*
X9052205Y-9665984D01*
X9052205Y-9542174D02*
X9061729Y-9551698D01*
X9061729Y-9551698D02*
X9052205Y-9561222D01*
X9052205Y-9561222D02*
X9042682Y-9551698D01*
X9042682Y-9551698D02*
X9052205Y-9542174D01*
X9052205Y-9542174D02*
X9052205Y-9561222D01*
D10*
X7380000Y-9974500D02*
X7420000Y-10014500D01*
X7420000Y-9974500D02*
X7380000Y-10014500D01*
D11*
X7718872Y-9885984D02*
X7737920Y-9885984D01*
X7737920Y-9885984D02*
X7756967Y-9895508D01*
X7756967Y-9895508D02*
X7766491Y-9905031D01*
X7766491Y-9905031D02*
X7776015Y-9924079D01*
X7776015Y-9924079D02*
X7785539Y-9962174D01*
X7785539Y-9962174D02*
X7785539Y-10009793D01*
X7785539Y-10009793D02*
X7776015Y-10047889D01*
X7776015Y-10047889D02*
X7766491Y-10066936D01*
X7766491Y-10066936D02*
X7756967Y-10076460D01*
X7756967Y-10076460D02*
X7737920Y-10085984D01*
X7737920Y-10085984D02*
X7718872Y-10085984D01*
X7718872Y-10085984D02*
X7699824Y-10076460D01*
X7699824Y-10076460D02*
X7690301Y-10066936D01*
X7690301Y-10066936D02*
X7680777Y-10047889D01*
X7680777Y-10047889D02*
X7671253Y-10009793D01*
X7671253Y-10009793D02*
X7671253Y-9962174D01*
X7671253Y-9962174D02*
X7680777Y-9924079D01*
X7680777Y-9924079D02*
X7690301Y-9905031D01*
X7690301Y-9905031D02*
X7699824Y-9895508D01*
X7699824Y-9895508D02*
X7718872Y-9885984D01*
X7871253Y-10066936D02*
X7880777Y-10076460D01*
X7880777Y-10076460D02*
X7871253Y-10085984D01*
X7871253Y-10085984D02*
X7861729Y-10076460D01*
X7861729Y-10076460D02*
X7871253Y-10066936D01*
X7871253Y-10066936D02*
X7871253Y-10085984D01*
X8052205Y-9952650D02*
X8052205Y-10085984D01*
X8004586Y-9876460D02*
X7956967Y-10019317D01*
X7956967Y-10019317D02*
X8080777Y-10019317D01*
X8195062Y-9885984D02*
X8214110Y-9885984D01*
X8214110Y-9885984D02*
X8233158Y-9895508D01*
X8233158Y-9895508D02*
X8242682Y-9905031D01*
X8242682Y-9905031D02*
X8252205Y-9924079D01*
X8252205Y-9924079D02*
X8261729Y-9962174D01*
X8261729Y-9962174D02*
X8261729Y-10009793D01*
X8261729Y-10009793D02*
X8252205Y-10047889D01*
X8252205Y-10047889D02*
X8242682Y-10066936D01*
X8242682Y-10066936D02*
X8233158Y-10076460D01*
X8233158Y-10076460D02*
X8214110Y-10085984D01*
X8214110Y-10085984D02*
X8195062Y-10085984D01*
X8195062Y-10085984D02*
X8176015Y-10076460D01*
X8176015Y-10076460D02*
X8166491Y-10066936D01*
X8166491Y-10066936D02*
X8156967Y-10047889D01*
X8156967Y-10047889D02*
X8147443Y-10009793D01*
X8147443Y-10009793D02*
X8147443Y-9962174D01*
X8147443Y-9962174D02*
X8156967Y-9924079D01*
X8156967Y-9924079D02*
X8166491Y-9905031D01*
X8166491Y-9905031D02*
X8176015Y-9895508D01*
X8176015Y-9895508D02*
X8195062Y-9885984D01*
X8385539Y-9885984D02*
X8404586Y-9885984D01*
X8404586Y-9885984D02*
X8423634Y-9895508D01*
X8423634Y-9895508D02*
X8433158Y-9905031D01*
X8433158Y-9905031D02*
X8442682Y-9924079D01*
X8442682Y-9924079D02*
X8452205Y-9962174D01*
X8452205Y-9962174D02*
X8452205Y-10009793D01*
X8452205Y-10009793D02*
X8442682Y-10047889D01*
X8442682Y-10047889D02*
X8433158Y-10066936D01*
X8433158Y-10066936D02*
X8423634Y-10076460D01*
X8423634Y-10076460D02*
X8404586Y-10085984D01*
X8404586Y-10085984D02*
X8385539Y-10085984D01*
X8385539Y-10085984D02*
X8366491Y-10076460D01*
X8366491Y-10076460D02*
X8356967Y-10066936D01*
X8356967Y-10066936D02*
X8347443Y-10047889D01*
X8347443Y-10047889D02*
X8337920Y-10009793D01*
X8337920Y-10009793D02*
X8337920Y-9962174D01*
X8337920Y-9962174D02*
X8347443Y-9924079D01*
X8347443Y-9924079D02*
X8356967Y-9905031D01*
X8356967Y-9905031D02*
X8366491Y-9895508D01*
X8366491Y-9895508D02*
X8385539Y-9885984D01*
X8537920Y-10085984D02*
X8537920Y-9952650D01*
X8537920Y-9971698D02*
X8547444Y-9962174D01*
X8547444Y-9962174D02*
X8566491Y-9952650D01*
X8566491Y-9952650D02*
X8595063Y-9952650D01*
X8595063Y-9952650D02*
X8614110Y-9962174D01*
X8614110Y-9962174D02*
X8623634Y-9981222D01*
X8623634Y-9981222D02*
X8623634Y-10085984D01*
X8623634Y-9981222D02*
X8633158Y-9962174D01*
X8633158Y-9962174D02*
X8652205Y-9952650D01*
X8652205Y-9952650D02*
X8680777Y-9952650D01*
X8680777Y-9952650D02*
X8699825Y-9962174D01*
X8699825Y-9962174D02*
X8709348Y-9981222D01*
X8709348Y-9981222D02*
X8709348Y-10085984D01*
X8804586Y-10085984D02*
X8804586Y-9952650D01*
X8804586Y-9971698D02*
X8814110Y-9962174D01*
X8814110Y-9962174D02*
X8833158Y-9952650D01*
X8833158Y-9952650D02*
X8861729Y-9952650D01*
X8861729Y-9952650D02*
X8880777Y-9962174D01*
X8880777Y-9962174D02*
X8890301Y-9981222D01*
X8890301Y-9981222D02*
X8890301Y-10085984D01*
X8890301Y-9981222D02*
X8899825Y-9962174D01*
X8899825Y-9962174D02*
X8918872Y-9952650D01*
X8918872Y-9952650D02*
X8947444Y-9952650D01*
X8947444Y-9952650D02*
X8966491Y-9962174D01*
X8966491Y-9962174D02*
X8976015Y-9981222D01*
X8976015Y-9981222D02*
X8976015Y-10085984D01*
X9366491Y-9876460D02*
X9195063Y-10133603D01*
X9623634Y-9885984D02*
X9642682Y-9885984D01*
X9642682Y-9885984D02*
X9661729Y-9895508D01*
X9661729Y-9895508D02*
X9671253Y-9905031D01*
X9671253Y-9905031D02*
X9680777Y-9924079D01*
X9680777Y-9924079D02*
X9690301Y-9962174D01*
X9690301Y-9962174D02*
X9690301Y-10009793D01*
X9690301Y-10009793D02*
X9680777Y-10047889D01*
X9680777Y-10047889D02*
X9671253Y-10066936D01*
X9671253Y-10066936D02*
X9661729Y-10076460D01*
X9661729Y-10076460D02*
X9642682Y-10085984D01*
X9642682Y-10085984D02*
X9623634Y-10085984D01*
X9623634Y-10085984D02*
X9604587Y-10076460D01*
X9604587Y-10076460D02*
X9595063Y-10066936D01*
X9595063Y-10066936D02*
X9585539Y-10047889D01*
X9585539Y-10047889D02*
X9576015Y-10009793D01*
X9576015Y-10009793D02*
X9576015Y-9962174D01*
X9576015Y-9962174D02*
X9585539Y-9924079D01*
X9585539Y-9924079D02*
X9595063Y-9905031D01*
X9595063Y-9905031D02*
X9604587Y-9895508D01*
X9604587Y-9895508D02*
X9623634Y-9885984D01*
X9776015Y-10066936D02*
X9785539Y-10076460D01*
X9785539Y-10076460D02*
X9776015Y-10085984D01*
X9776015Y-10085984D02*
X9766491Y-10076460D01*
X9766491Y-10076460D02*
X9776015Y-10066936D01*
X9776015Y-10066936D02*
X9776015Y-10085984D01*
X9909348Y-9885984D02*
X9928396Y-9885984D01*
X9928396Y-9885984D02*
X9947444Y-9895508D01*
X9947444Y-9895508D02*
X9956968Y-9905031D01*
X9956968Y-9905031D02*
X9966491Y-9924079D01*
X9966491Y-9924079D02*
X9976015Y-9962174D01*
X9976015Y-9962174D02*
X9976015Y-10009793D01*
X9976015Y-10009793D02*
X9966491Y-10047889D01*
X9966491Y-10047889D02*
X9956968Y-10066936D01*
X9956968Y-10066936D02*
X9947444Y-10076460D01*
X9947444Y-10076460D02*
X9928396Y-10085984D01*
X9928396Y-10085984D02*
X9909348Y-10085984D01*
X9909348Y-10085984D02*
X9890301Y-10076460D01*
X9890301Y-10076460D02*
X9880777Y-10066936D01*
X9880777Y-10066936D02*
X9871253Y-10047889D01*
X9871253Y-10047889D02*
X9861729Y-10009793D01*
X9861729Y-10009793D02*
X9861729Y-9962174D01*
X9861729Y-9962174D02*
X9871253Y-9924079D01*
X9871253Y-9924079D02*
X9880777Y-9905031D01*
X9880777Y-9905031D02*
X9890301Y-9895508D01*
X9890301Y-9895508D02*
X9909348Y-9885984D01*
X10166491Y-10085984D02*
X10052206Y-10085984D01*
X10109348Y-10085984D02*
X10109348Y-9885984D01*
X10109348Y-9885984D02*
X10090301Y-9914555D01*
X10090301Y-9914555D02*
X10071253Y-9933603D01*
X10071253Y-9933603D02*
X10052206Y-9943127D01*
X10347444Y-9885984D02*
X10252206Y-9885984D01*
X10252206Y-9885984D02*
X10242682Y-9981222D01*
X10242682Y-9981222D02*
X10252206Y-9971698D01*
X10252206Y-9971698D02*
X10271253Y-9962174D01*
X10271253Y-9962174D02*
X10318872Y-9962174D01*
X10318872Y-9962174D02*
X10337920Y-9971698D01*
X10337920Y-9971698D02*
X10347444Y-9981222D01*
X10347444Y-9981222D02*
X10356968Y-10000270D01*
X10356968Y-10000270D02*
X10356968Y-10047889D01*
X10356968Y-10047889D02*
X10347444Y-10066936D01*
X10347444Y-10066936D02*
X10337920Y-10076460D01*
X10337920Y-10076460D02*
X10318872Y-10085984D01*
X10318872Y-10085984D02*
X10271253Y-10085984D01*
X10271253Y-10085984D02*
X10252206Y-10076460D01*
X10252206Y-10076460D02*
X10242682Y-10066936D01*
X10423634Y-9885984D02*
X10556968Y-9885984D01*
X10556968Y-9885984D02*
X10471253Y-10085984D01*
X10623634Y-9885984D02*
X10623634Y-9924079D01*
X10699825Y-9885984D02*
X10699825Y-9924079D01*
X10995063Y-10162174D02*
X10985539Y-10152650D01*
X10985539Y-10152650D02*
X10966491Y-10124079D01*
X10966491Y-10124079D02*
X10956968Y-10105031D01*
X10956968Y-10105031D02*
X10947444Y-10076460D01*
X10947444Y-10076460D02*
X10937920Y-10028841D01*
X10937920Y-10028841D02*
X10937920Y-9990746D01*
X10937920Y-9990746D02*
X10947444Y-9943127D01*
X10947444Y-9943127D02*
X10956968Y-9914555D01*
X10956968Y-9914555D02*
X10966491Y-9895508D01*
X10966491Y-9895508D02*
X10985539Y-9866936D01*
X10985539Y-9866936D02*
X10995063Y-9857412D01*
X11176015Y-10085984D02*
X11061730Y-10085984D01*
X11118872Y-10085984D02*
X11118872Y-9885984D01*
X11118872Y-9885984D02*
X11099825Y-9914555D01*
X11099825Y-9914555D02*
X11080777Y-9933603D01*
X11080777Y-9933603D02*
X11061730Y-9943127D01*
X11347444Y-9952650D02*
X11347444Y-10085984D01*
X11299825Y-9876460D02*
X11252206Y-10019317D01*
X11252206Y-10019317D02*
X11376015Y-10019317D01*
X11442682Y-9905031D02*
X11452206Y-9895508D01*
X11452206Y-9895508D02*
X11471253Y-9885984D01*
X11471253Y-9885984D02*
X11518872Y-9885984D01*
X11518872Y-9885984D02*
X11537920Y-9895508D01*
X11537920Y-9895508D02*
X11547444Y-9905031D01*
X11547444Y-9905031D02*
X11556968Y-9924079D01*
X11556968Y-9924079D02*
X11556968Y-9943127D01*
X11556968Y-9943127D02*
X11547444Y-9971698D01*
X11547444Y-9971698D02*
X11433158Y-10085984D01*
X11433158Y-10085984D02*
X11556968Y-10085984D01*
X11795063Y-10085984D02*
X11795063Y-9885984D01*
X11880777Y-10085984D02*
X11880777Y-9981222D01*
X11880777Y-9981222D02*
X11871253Y-9962174D01*
X11871253Y-9962174D02*
X11852206Y-9952650D01*
X11852206Y-9952650D02*
X11823634Y-9952650D01*
X11823634Y-9952650D02*
X11804587Y-9962174D01*
X11804587Y-9962174D02*
X11795063Y-9971698D01*
X12004587Y-10085984D02*
X11985539Y-10076460D01*
X11985539Y-10076460D02*
X11976015Y-10066936D01*
X11976015Y-10066936D02*
X11966491Y-10047889D01*
X11966491Y-10047889D02*
X11966491Y-9990746D01*
X11966491Y-9990746D02*
X11976015Y-9971698D01*
X11976015Y-9971698D02*
X11985539Y-9962174D01*
X11985539Y-9962174D02*
X12004587Y-9952650D01*
X12004587Y-9952650D02*
X12033158Y-9952650D01*
X12033158Y-9952650D02*
X12052206Y-9962174D01*
X12052206Y-9962174D02*
X12061730Y-9971698D01*
X12061730Y-9971698D02*
X12071253Y-9990746D01*
X12071253Y-9990746D02*
X12071253Y-10047889D01*
X12071253Y-10047889D02*
X12061730Y-10066936D01*
X12061730Y-10066936D02*
X12052206Y-10076460D01*
X12052206Y-10076460D02*
X12033158Y-10085984D01*
X12033158Y-10085984D02*
X12004587Y-10085984D01*
X12185539Y-10085984D02*
X12166491Y-10076460D01*
X12166491Y-10076460D02*
X12156968Y-10057412D01*
X12156968Y-10057412D02*
X12156968Y-9885984D01*
X12337920Y-10076460D02*
X12318872Y-10085984D01*
X12318872Y-10085984D02*
X12280777Y-10085984D01*
X12280777Y-10085984D02*
X12261730Y-10076460D01*
X12261730Y-10076460D02*
X12252206Y-10057412D01*
X12252206Y-10057412D02*
X12252206Y-9981222D01*
X12252206Y-9981222D02*
X12261730Y-9962174D01*
X12261730Y-9962174D02*
X12280777Y-9952650D01*
X12280777Y-9952650D02*
X12318872Y-9952650D01*
X12318872Y-9952650D02*
X12337920Y-9962174D01*
X12337920Y-9962174D02*
X12347444Y-9981222D01*
X12347444Y-9981222D02*
X12347444Y-10000270D01*
X12347444Y-10000270D02*
X12252206Y-10019317D01*
X12423634Y-10076460D02*
X12442682Y-10085984D01*
X12442682Y-10085984D02*
X12480777Y-10085984D01*
X12480777Y-10085984D02*
X12499825Y-10076460D01*
X12499825Y-10076460D02*
X12509349Y-10057412D01*
X12509349Y-10057412D02*
X12509349Y-10047889D01*
X12509349Y-10047889D02*
X12499825Y-10028841D01*
X12499825Y-10028841D02*
X12480777Y-10019317D01*
X12480777Y-10019317D02*
X12452206Y-10019317D01*
X12452206Y-10019317D02*
X12433158Y-10009793D01*
X12433158Y-10009793D02*
X12423634Y-9990746D01*
X12423634Y-9990746D02*
X12423634Y-9981222D01*
X12423634Y-9981222D02*
X12433158Y-9962174D01*
X12433158Y-9962174D02*
X12452206Y-9952650D01*
X12452206Y-9952650D02*
X12480777Y-9952650D01*
X12480777Y-9952650D02*
X12499825Y-9962174D01*
X12576015Y-10162174D02*
X12585539Y-10152650D01*
X12585539Y-10152650D02*
X12604587Y-10124079D01*
X12604587Y-10124079D02*
X12614111Y-10105031D01*
X12614111Y-10105031D02*
X12623634Y-10076460D01*
X12623634Y-10076460D02*
X12633158Y-10028841D01*
X12633158Y-10028841D02*
X12633158Y-9990746D01*
X12633158Y-9990746D02*
X12623634Y-9943127D01*
X12623634Y-9943127D02*
X12614111Y-9914555D01*
X12614111Y-9914555D02*
X12604587Y-9895508D01*
X12604587Y-9895508D02*
X12585539Y-9866936D01*
X12585539Y-9866936D02*
X12576015Y-9857412D01*
D10*
X7420000Y-10258500D02*
G75*
G03*
X7340000Y-10258500I-40000J0D01*
G01*
X7340000Y-10258500D02*
G75*
G03*
X7420000Y-10258500I40000J0D01*
G01*
D11*
X7718872Y-10149984D02*
X7737920Y-10149984D01*
X7737920Y-10149984D02*
X7756967Y-10159508D01*
X7756967Y-10159508D02*
X7766491Y-10169031D01*
X7766491Y-10169031D02*
X7776015Y-10188079D01*
X7776015Y-10188079D02*
X7785539Y-10226174D01*
X7785539Y-10226174D02*
X7785539Y-10273793D01*
X7785539Y-10273793D02*
X7776015Y-10311889D01*
X7776015Y-10311889D02*
X7766491Y-10330936D01*
X7766491Y-10330936D02*
X7756967Y-10340460D01*
X7756967Y-10340460D02*
X7737920Y-10349984D01*
X7737920Y-10349984D02*
X7718872Y-10349984D01*
X7718872Y-10349984D02*
X7699824Y-10340460D01*
X7699824Y-10340460D02*
X7690301Y-10330936D01*
X7690301Y-10330936D02*
X7680777Y-10311889D01*
X7680777Y-10311889D02*
X7671253Y-10273793D01*
X7671253Y-10273793D02*
X7671253Y-10226174D01*
X7671253Y-10226174D02*
X7680777Y-10188079D01*
X7680777Y-10188079D02*
X7690301Y-10169031D01*
X7690301Y-10169031D02*
X7699824Y-10159508D01*
X7699824Y-10159508D02*
X7718872Y-10149984D01*
X7871253Y-10330936D02*
X7880777Y-10340460D01*
X7880777Y-10340460D02*
X7871253Y-10349984D01*
X7871253Y-10349984D02*
X7861729Y-10340460D01*
X7861729Y-10340460D02*
X7871253Y-10330936D01*
X7871253Y-10330936D02*
X7871253Y-10349984D01*
X7995062Y-10235698D02*
X7976015Y-10226174D01*
X7976015Y-10226174D02*
X7966491Y-10216650D01*
X7966491Y-10216650D02*
X7956967Y-10197603D01*
X7956967Y-10197603D02*
X7956967Y-10188079D01*
X7956967Y-10188079D02*
X7966491Y-10169031D01*
X7966491Y-10169031D02*
X7976015Y-10159508D01*
X7976015Y-10159508D02*
X7995062Y-10149984D01*
X7995062Y-10149984D02*
X8033158Y-10149984D01*
X8033158Y-10149984D02*
X8052205Y-10159508D01*
X8052205Y-10159508D02*
X8061729Y-10169031D01*
X8061729Y-10169031D02*
X8071253Y-10188079D01*
X8071253Y-10188079D02*
X8071253Y-10197603D01*
X8071253Y-10197603D02*
X8061729Y-10216650D01*
X8061729Y-10216650D02*
X8052205Y-10226174D01*
X8052205Y-10226174D02*
X8033158Y-10235698D01*
X8033158Y-10235698D02*
X7995062Y-10235698D01*
X7995062Y-10235698D02*
X7976015Y-10245222D01*
X7976015Y-10245222D02*
X7966491Y-10254746D01*
X7966491Y-10254746D02*
X7956967Y-10273793D01*
X7956967Y-10273793D02*
X7956967Y-10311889D01*
X7956967Y-10311889D02*
X7966491Y-10330936D01*
X7966491Y-10330936D02*
X7976015Y-10340460D01*
X7976015Y-10340460D02*
X7995062Y-10349984D01*
X7995062Y-10349984D02*
X8033158Y-10349984D01*
X8033158Y-10349984D02*
X8052205Y-10340460D01*
X8052205Y-10340460D02*
X8061729Y-10330936D01*
X8061729Y-10330936D02*
X8071253Y-10311889D01*
X8071253Y-10311889D02*
X8071253Y-10273793D01*
X8071253Y-10273793D02*
X8061729Y-10254746D01*
X8061729Y-10254746D02*
X8052205Y-10245222D01*
X8052205Y-10245222D02*
X8033158Y-10235698D01*
X8195062Y-10149984D02*
X8214110Y-10149984D01*
X8214110Y-10149984D02*
X8233158Y-10159508D01*
X8233158Y-10159508D02*
X8242682Y-10169031D01*
X8242682Y-10169031D02*
X8252205Y-10188079D01*
X8252205Y-10188079D02*
X8261729Y-10226174D01*
X8261729Y-10226174D02*
X8261729Y-10273793D01*
X8261729Y-10273793D02*
X8252205Y-10311889D01*
X8252205Y-10311889D02*
X8242682Y-10330936D01*
X8242682Y-10330936D02*
X8233158Y-10340460D01*
X8233158Y-10340460D02*
X8214110Y-10349984D01*
X8214110Y-10349984D02*
X8195062Y-10349984D01*
X8195062Y-10349984D02*
X8176015Y-10340460D01*
X8176015Y-10340460D02*
X8166491Y-10330936D01*
X8166491Y-10330936D02*
X8156967Y-10311889D01*
X8156967Y-10311889D02*
X8147443Y-10273793D01*
X8147443Y-10273793D02*
X8147443Y-10226174D01*
X8147443Y-10226174D02*
X8156967Y-10188079D01*
X8156967Y-10188079D02*
X8166491Y-10169031D01*
X8166491Y-10169031D02*
X8176015Y-10159508D01*
X8176015Y-10159508D02*
X8195062Y-10149984D01*
X8385539Y-10149984D02*
X8404586Y-10149984D01*
X8404586Y-10149984D02*
X8423634Y-10159508D01*
X8423634Y-10159508D02*
X8433158Y-10169031D01*
X8433158Y-10169031D02*
X8442682Y-10188079D01*
X8442682Y-10188079D02*
X8452205Y-10226174D01*
X8452205Y-10226174D02*
X8452205Y-10273793D01*
X8452205Y-10273793D02*
X8442682Y-10311889D01*
X8442682Y-10311889D02*
X8433158Y-10330936D01*
X8433158Y-10330936D02*
X8423634Y-10340460D01*
X8423634Y-10340460D02*
X8404586Y-10349984D01*
X8404586Y-10349984D02*
X8385539Y-10349984D01*
X8385539Y-10349984D02*
X8366491Y-10340460D01*
X8366491Y-10340460D02*
X8356967Y-10330936D01*
X8356967Y-10330936D02*
X8347443Y-10311889D01*
X8347443Y-10311889D02*
X8337920Y-10273793D01*
X8337920Y-10273793D02*
X8337920Y-10226174D01*
X8337920Y-10226174D02*
X8347443Y-10188079D01*
X8347443Y-10188079D02*
X8356967Y-10169031D01*
X8356967Y-10169031D02*
X8366491Y-10159508D01*
X8366491Y-10159508D02*
X8385539Y-10149984D01*
X8537920Y-10349984D02*
X8537920Y-10216650D01*
X8537920Y-10235698D02*
X8547444Y-10226174D01*
X8547444Y-10226174D02*
X8566491Y-10216650D01*
X8566491Y-10216650D02*
X8595063Y-10216650D01*
X8595063Y-10216650D02*
X8614110Y-10226174D01*
X8614110Y-10226174D02*
X8623634Y-10245222D01*
X8623634Y-10245222D02*
X8623634Y-10349984D01*
X8623634Y-10245222D02*
X8633158Y-10226174D01*
X8633158Y-10226174D02*
X8652205Y-10216650D01*
X8652205Y-10216650D02*
X8680777Y-10216650D01*
X8680777Y-10216650D02*
X8699825Y-10226174D01*
X8699825Y-10226174D02*
X8709348Y-10245222D01*
X8709348Y-10245222D02*
X8709348Y-10349984D01*
X8804586Y-10349984D02*
X8804586Y-10216650D01*
X8804586Y-10235698D02*
X8814110Y-10226174D01*
X8814110Y-10226174D02*
X8833158Y-10216650D01*
X8833158Y-10216650D02*
X8861729Y-10216650D01*
X8861729Y-10216650D02*
X8880777Y-10226174D01*
X8880777Y-10226174D02*
X8890301Y-10245222D01*
X8890301Y-10245222D02*
X8890301Y-10349984D01*
X8890301Y-10245222D02*
X8899825Y-10226174D01*
X8899825Y-10226174D02*
X8918872Y-10216650D01*
X8918872Y-10216650D02*
X8947444Y-10216650D01*
X8947444Y-10216650D02*
X8966491Y-10226174D01*
X8966491Y-10226174D02*
X8976015Y-10245222D01*
X8976015Y-10245222D02*
X8976015Y-10349984D01*
X9366491Y-10140460D02*
X9195063Y-10397603D01*
X9623634Y-10149984D02*
X9642682Y-10149984D01*
X9642682Y-10149984D02*
X9661729Y-10159508D01*
X9661729Y-10159508D02*
X9671253Y-10169031D01*
X9671253Y-10169031D02*
X9680777Y-10188079D01*
X9680777Y-10188079D02*
X9690301Y-10226174D01*
X9690301Y-10226174D02*
X9690301Y-10273793D01*
X9690301Y-10273793D02*
X9680777Y-10311889D01*
X9680777Y-10311889D02*
X9671253Y-10330936D01*
X9671253Y-10330936D02*
X9661729Y-10340460D01*
X9661729Y-10340460D02*
X9642682Y-10349984D01*
X9642682Y-10349984D02*
X9623634Y-10349984D01*
X9623634Y-10349984D02*
X9604587Y-10340460D01*
X9604587Y-10340460D02*
X9595063Y-10330936D01*
X9595063Y-10330936D02*
X9585539Y-10311889D01*
X9585539Y-10311889D02*
X9576015Y-10273793D01*
X9576015Y-10273793D02*
X9576015Y-10226174D01*
X9576015Y-10226174D02*
X9585539Y-10188079D01*
X9585539Y-10188079D02*
X9595063Y-10169031D01*
X9595063Y-10169031D02*
X9604587Y-10159508D01*
X9604587Y-10159508D02*
X9623634Y-10149984D01*
X9776015Y-10330936D02*
X9785539Y-10340460D01*
X9785539Y-10340460D02*
X9776015Y-10349984D01*
X9776015Y-10349984D02*
X9766491Y-10340460D01*
X9766491Y-10340460D02*
X9776015Y-10330936D01*
X9776015Y-10330936D02*
X9776015Y-10349984D01*
X9909348Y-10149984D02*
X9928396Y-10149984D01*
X9928396Y-10149984D02*
X9947444Y-10159508D01*
X9947444Y-10159508D02*
X9956968Y-10169031D01*
X9956968Y-10169031D02*
X9966491Y-10188079D01*
X9966491Y-10188079D02*
X9976015Y-10226174D01*
X9976015Y-10226174D02*
X9976015Y-10273793D01*
X9976015Y-10273793D02*
X9966491Y-10311889D01*
X9966491Y-10311889D02*
X9956968Y-10330936D01*
X9956968Y-10330936D02*
X9947444Y-10340460D01*
X9947444Y-10340460D02*
X9928396Y-10349984D01*
X9928396Y-10349984D02*
X9909348Y-10349984D01*
X9909348Y-10349984D02*
X9890301Y-10340460D01*
X9890301Y-10340460D02*
X9880777Y-10330936D01*
X9880777Y-10330936D02*
X9871253Y-10311889D01*
X9871253Y-10311889D02*
X9861729Y-10273793D01*
X9861729Y-10273793D02*
X9861729Y-10226174D01*
X9861729Y-10226174D02*
X9871253Y-10188079D01*
X9871253Y-10188079D02*
X9880777Y-10169031D01*
X9880777Y-10169031D02*
X9890301Y-10159508D01*
X9890301Y-10159508D02*
X9909348Y-10149984D01*
X10042682Y-10149984D02*
X10166491Y-10149984D01*
X10166491Y-10149984D02*
X10099825Y-10226174D01*
X10099825Y-10226174D02*
X10128396Y-10226174D01*
X10128396Y-10226174D02*
X10147444Y-10235698D01*
X10147444Y-10235698D02*
X10156968Y-10245222D01*
X10156968Y-10245222D02*
X10166491Y-10264270D01*
X10166491Y-10264270D02*
X10166491Y-10311889D01*
X10166491Y-10311889D02*
X10156968Y-10330936D01*
X10156968Y-10330936D02*
X10147444Y-10340460D01*
X10147444Y-10340460D02*
X10128396Y-10349984D01*
X10128396Y-10349984D02*
X10071253Y-10349984D01*
X10071253Y-10349984D02*
X10052206Y-10340460D01*
X10052206Y-10340460D02*
X10042682Y-10330936D01*
X10356968Y-10349984D02*
X10242682Y-10349984D01*
X10299825Y-10349984D02*
X10299825Y-10149984D01*
X10299825Y-10149984D02*
X10280777Y-10178555D01*
X10280777Y-10178555D02*
X10261729Y-10197603D01*
X10261729Y-10197603D02*
X10242682Y-10207127D01*
X10537920Y-10149984D02*
X10442682Y-10149984D01*
X10442682Y-10149984D02*
X10433158Y-10245222D01*
X10433158Y-10245222D02*
X10442682Y-10235698D01*
X10442682Y-10235698D02*
X10461729Y-10226174D01*
X10461729Y-10226174D02*
X10509349Y-10226174D01*
X10509349Y-10226174D02*
X10528396Y-10235698D01*
X10528396Y-10235698D02*
X10537920Y-10245222D01*
X10537920Y-10245222D02*
X10547444Y-10264270D01*
X10547444Y-10264270D02*
X10547444Y-10311889D01*
X10547444Y-10311889D02*
X10537920Y-10330936D01*
X10537920Y-10330936D02*
X10528396Y-10340460D01*
X10528396Y-10340460D02*
X10509349Y-10349984D01*
X10509349Y-10349984D02*
X10461729Y-10349984D01*
X10461729Y-10349984D02*
X10442682Y-10340460D01*
X10442682Y-10340460D02*
X10433158Y-10330936D01*
X10623634Y-10149984D02*
X10623634Y-10188079D01*
X10699825Y-10149984D02*
X10699825Y-10188079D01*
X10995063Y-10426174D02*
X10985539Y-10416650D01*
X10985539Y-10416650D02*
X10966491Y-10388079D01*
X10966491Y-10388079D02*
X10956968Y-10369031D01*
X10956968Y-10369031D02*
X10947444Y-10340460D01*
X10947444Y-10340460D02*
X10937920Y-10292841D01*
X10937920Y-10292841D02*
X10937920Y-10254746D01*
X10937920Y-10254746D02*
X10947444Y-10207127D01*
X10947444Y-10207127D02*
X10956968Y-10178555D01*
X10956968Y-10178555D02*
X10966491Y-10159508D01*
X10966491Y-10159508D02*
X10985539Y-10130936D01*
X10985539Y-10130936D02*
X10995063Y-10121412D01*
X11052206Y-10149984D02*
X11176015Y-10149984D01*
X11176015Y-10149984D02*
X11109349Y-10226174D01*
X11109349Y-10226174D02*
X11137920Y-10226174D01*
X11137920Y-10226174D02*
X11156968Y-10235698D01*
X11156968Y-10235698D02*
X11166491Y-10245222D01*
X11166491Y-10245222D02*
X11176015Y-10264270D01*
X11176015Y-10264270D02*
X11176015Y-10311889D01*
X11176015Y-10311889D02*
X11166491Y-10330936D01*
X11166491Y-10330936D02*
X11156968Y-10340460D01*
X11156968Y-10340460D02*
X11137920Y-10349984D01*
X11137920Y-10349984D02*
X11080777Y-10349984D01*
X11080777Y-10349984D02*
X11061730Y-10340460D01*
X11061730Y-10340460D02*
X11052206Y-10330936D01*
X11414110Y-10349984D02*
X11414110Y-10149984D01*
X11499825Y-10349984D02*
X11499825Y-10245222D01*
X11499825Y-10245222D02*
X11490301Y-10226174D01*
X11490301Y-10226174D02*
X11471253Y-10216650D01*
X11471253Y-10216650D02*
X11442682Y-10216650D01*
X11442682Y-10216650D02*
X11423634Y-10226174D01*
X11423634Y-10226174D02*
X11414110Y-10235698D01*
X11623634Y-10349984D02*
X11604587Y-10340460D01*
X11604587Y-10340460D02*
X11595063Y-10330936D01*
X11595063Y-10330936D02*
X11585539Y-10311889D01*
X11585539Y-10311889D02*
X11585539Y-10254746D01*
X11585539Y-10254746D02*
X11595063Y-10235698D01*
X11595063Y-10235698D02*
X11604587Y-10226174D01*
X11604587Y-10226174D02*
X11623634Y-10216650D01*
X11623634Y-10216650D02*
X11652206Y-10216650D01*
X11652206Y-10216650D02*
X11671253Y-10226174D01*
X11671253Y-10226174D02*
X11680777Y-10235698D01*
X11680777Y-10235698D02*
X11690301Y-10254746D01*
X11690301Y-10254746D02*
X11690301Y-10311889D01*
X11690301Y-10311889D02*
X11680777Y-10330936D01*
X11680777Y-10330936D02*
X11671253Y-10340460D01*
X11671253Y-10340460D02*
X11652206Y-10349984D01*
X11652206Y-10349984D02*
X11623634Y-10349984D01*
X11804587Y-10349984D02*
X11785539Y-10340460D01*
X11785539Y-10340460D02*
X11776015Y-10321412D01*
X11776015Y-10321412D02*
X11776015Y-10149984D01*
X11956968Y-10340460D02*
X11937920Y-10349984D01*
X11937920Y-10349984D02*
X11899825Y-10349984D01*
X11899825Y-10349984D02*
X11880777Y-10340460D01*
X11880777Y-10340460D02*
X11871253Y-10321412D01*
X11871253Y-10321412D02*
X11871253Y-10245222D01*
X11871253Y-10245222D02*
X11880777Y-10226174D01*
X11880777Y-10226174D02*
X11899825Y-10216650D01*
X11899825Y-10216650D02*
X11937920Y-10216650D01*
X11937920Y-10216650D02*
X11956968Y-10226174D01*
X11956968Y-10226174D02*
X11966491Y-10245222D01*
X11966491Y-10245222D02*
X11966491Y-10264270D01*
X11966491Y-10264270D02*
X11871253Y-10283317D01*
X12042682Y-10340460D02*
X12061730Y-10349984D01*
X12061730Y-10349984D02*
X12099825Y-10349984D01*
X12099825Y-10349984D02*
X12118872Y-10340460D01*
X12118872Y-10340460D02*
X12128396Y-10321412D01*
X12128396Y-10321412D02*
X12128396Y-10311889D01*
X12128396Y-10311889D02*
X12118872Y-10292841D01*
X12118872Y-10292841D02*
X12099825Y-10283317D01*
X12099825Y-10283317D02*
X12071253Y-10283317D01*
X12071253Y-10283317D02*
X12052206Y-10273793D01*
X12052206Y-10273793D02*
X12042682Y-10254746D01*
X12042682Y-10254746D02*
X12042682Y-10245222D01*
X12042682Y-10245222D02*
X12052206Y-10226174D01*
X12052206Y-10226174D02*
X12071253Y-10216650D01*
X12071253Y-10216650D02*
X12099825Y-10216650D01*
X12099825Y-10216650D02*
X12118872Y-10226174D01*
X12195063Y-10426174D02*
X12204587Y-10416650D01*
X12204587Y-10416650D02*
X12223634Y-10388079D01*
X12223634Y-10388079D02*
X12233158Y-10369031D01*
X12233158Y-10369031D02*
X12242682Y-10340460D01*
X12242682Y-10340460D02*
X12252206Y-10292841D01*
X12252206Y-10292841D02*
X12252206Y-10254746D01*
X12252206Y-10254746D02*
X12242682Y-10207127D01*
X12242682Y-10207127D02*
X12233158Y-10178555D01*
X12233158Y-10178555D02*
X12223634Y-10159508D01*
X12223634Y-10159508D02*
X12204587Y-10130936D01*
X12204587Y-10130936D02*
X12195063Y-10121412D01*
D10*
X7380000Y-10482500D02*
X7380000Y-10562500D01*
X7340000Y-10522500D02*
X7420000Y-10522500D01*
D11*
X7718872Y-10413984D02*
X7737920Y-10413984D01*
X7737920Y-10413984D02*
X7756967Y-10423508D01*
X7756967Y-10423508D02*
X7766491Y-10433031D01*
X7766491Y-10433031D02*
X7776015Y-10452079D01*
X7776015Y-10452079D02*
X7785539Y-10490174D01*
X7785539Y-10490174D02*
X7785539Y-10537793D01*
X7785539Y-10537793D02*
X7776015Y-10575889D01*
X7776015Y-10575889D02*
X7766491Y-10594936D01*
X7766491Y-10594936D02*
X7756967Y-10604460D01*
X7756967Y-10604460D02*
X7737920Y-10613984D01*
X7737920Y-10613984D02*
X7718872Y-10613984D01*
X7718872Y-10613984D02*
X7699824Y-10604460D01*
X7699824Y-10604460D02*
X7690301Y-10594936D01*
X7690301Y-10594936D02*
X7680777Y-10575889D01*
X7680777Y-10575889D02*
X7671253Y-10537793D01*
X7671253Y-10537793D02*
X7671253Y-10490174D01*
X7671253Y-10490174D02*
X7680777Y-10452079D01*
X7680777Y-10452079D02*
X7690301Y-10433031D01*
X7690301Y-10433031D02*
X7699824Y-10423508D01*
X7699824Y-10423508D02*
X7718872Y-10413984D01*
X7871253Y-10594936D02*
X7880777Y-10604460D01*
X7880777Y-10604460D02*
X7871253Y-10613984D01*
X7871253Y-10613984D02*
X7861729Y-10604460D01*
X7861729Y-10604460D02*
X7871253Y-10594936D01*
X7871253Y-10594936D02*
X7871253Y-10613984D01*
X7995062Y-10499698D02*
X7976015Y-10490174D01*
X7976015Y-10490174D02*
X7966491Y-10480650D01*
X7966491Y-10480650D02*
X7956967Y-10461603D01*
X7956967Y-10461603D02*
X7956967Y-10452079D01*
X7956967Y-10452079D02*
X7966491Y-10433031D01*
X7966491Y-10433031D02*
X7976015Y-10423508D01*
X7976015Y-10423508D02*
X7995062Y-10413984D01*
X7995062Y-10413984D02*
X8033158Y-10413984D01*
X8033158Y-10413984D02*
X8052205Y-10423508D01*
X8052205Y-10423508D02*
X8061729Y-10433031D01*
X8061729Y-10433031D02*
X8071253Y-10452079D01*
X8071253Y-10452079D02*
X8071253Y-10461603D01*
X8071253Y-10461603D02*
X8061729Y-10480650D01*
X8061729Y-10480650D02*
X8052205Y-10490174D01*
X8052205Y-10490174D02*
X8033158Y-10499698D01*
X8033158Y-10499698D02*
X7995062Y-10499698D01*
X7995062Y-10499698D02*
X7976015Y-10509222D01*
X7976015Y-10509222D02*
X7966491Y-10518746D01*
X7966491Y-10518746D02*
X7956967Y-10537793D01*
X7956967Y-10537793D02*
X7956967Y-10575889D01*
X7956967Y-10575889D02*
X7966491Y-10594936D01*
X7966491Y-10594936D02*
X7976015Y-10604460D01*
X7976015Y-10604460D02*
X7995062Y-10613984D01*
X7995062Y-10613984D02*
X8033158Y-10613984D01*
X8033158Y-10613984D02*
X8052205Y-10604460D01*
X8052205Y-10604460D02*
X8061729Y-10594936D01*
X8061729Y-10594936D02*
X8071253Y-10575889D01*
X8071253Y-10575889D02*
X8071253Y-10537793D01*
X8071253Y-10537793D02*
X8061729Y-10518746D01*
X8061729Y-10518746D02*
X8052205Y-10509222D01*
X8052205Y-10509222D02*
X8033158Y-10499698D01*
X8195062Y-10413984D02*
X8214110Y-10413984D01*
X8214110Y-10413984D02*
X8233158Y-10423508D01*
X8233158Y-10423508D02*
X8242682Y-10433031D01*
X8242682Y-10433031D02*
X8252205Y-10452079D01*
X8252205Y-10452079D02*
X8261729Y-10490174D01*
X8261729Y-10490174D02*
X8261729Y-10537793D01*
X8261729Y-10537793D02*
X8252205Y-10575889D01*
X8252205Y-10575889D02*
X8242682Y-10594936D01*
X8242682Y-10594936D02*
X8233158Y-10604460D01*
X8233158Y-10604460D02*
X8214110Y-10613984D01*
X8214110Y-10613984D02*
X8195062Y-10613984D01*
X8195062Y-10613984D02*
X8176015Y-10604460D01*
X8176015Y-10604460D02*
X8166491Y-10594936D01*
X8166491Y-10594936D02*
X8156967Y-10575889D01*
X8156967Y-10575889D02*
X8147443Y-10537793D01*
X8147443Y-10537793D02*
X8147443Y-10490174D01*
X8147443Y-10490174D02*
X8156967Y-10452079D01*
X8156967Y-10452079D02*
X8166491Y-10433031D01*
X8166491Y-10433031D02*
X8176015Y-10423508D01*
X8176015Y-10423508D02*
X8195062Y-10413984D01*
X8385539Y-10413984D02*
X8404586Y-10413984D01*
X8404586Y-10413984D02*
X8423634Y-10423508D01*
X8423634Y-10423508D02*
X8433158Y-10433031D01*
X8433158Y-10433031D02*
X8442682Y-10452079D01*
X8442682Y-10452079D02*
X8452205Y-10490174D01*
X8452205Y-10490174D02*
X8452205Y-10537793D01*
X8452205Y-10537793D02*
X8442682Y-10575889D01*
X8442682Y-10575889D02*
X8433158Y-10594936D01*
X8433158Y-10594936D02*
X8423634Y-10604460D01*
X8423634Y-10604460D02*
X8404586Y-10613984D01*
X8404586Y-10613984D02*
X8385539Y-10613984D01*
X8385539Y-10613984D02*
X8366491Y-10604460D01*
X8366491Y-10604460D02*
X8356967Y-10594936D01*
X8356967Y-10594936D02*
X8347443Y-10575889D01*
X8347443Y-10575889D02*
X8337920Y-10537793D01*
X8337920Y-10537793D02*
X8337920Y-10490174D01*
X8337920Y-10490174D02*
X8347443Y-10452079D01*
X8347443Y-10452079D02*
X8356967Y-10433031D01*
X8356967Y-10433031D02*
X8366491Y-10423508D01*
X8366491Y-10423508D02*
X8385539Y-10413984D01*
X8537920Y-10613984D02*
X8537920Y-10480650D01*
X8537920Y-10499698D02*
X8547444Y-10490174D01*
X8547444Y-10490174D02*
X8566491Y-10480650D01*
X8566491Y-10480650D02*
X8595063Y-10480650D01*
X8595063Y-10480650D02*
X8614110Y-10490174D01*
X8614110Y-10490174D02*
X8623634Y-10509222D01*
X8623634Y-10509222D02*
X8623634Y-10613984D01*
X8623634Y-10509222D02*
X8633158Y-10490174D01*
X8633158Y-10490174D02*
X8652205Y-10480650D01*
X8652205Y-10480650D02*
X8680777Y-10480650D01*
X8680777Y-10480650D02*
X8699825Y-10490174D01*
X8699825Y-10490174D02*
X8709348Y-10509222D01*
X8709348Y-10509222D02*
X8709348Y-10613984D01*
X8804586Y-10613984D02*
X8804586Y-10480650D01*
X8804586Y-10499698D02*
X8814110Y-10490174D01*
X8814110Y-10490174D02*
X8833158Y-10480650D01*
X8833158Y-10480650D02*
X8861729Y-10480650D01*
X8861729Y-10480650D02*
X8880777Y-10490174D01*
X8880777Y-10490174D02*
X8890301Y-10509222D01*
X8890301Y-10509222D02*
X8890301Y-10613984D01*
X8890301Y-10509222D02*
X8899825Y-10490174D01*
X8899825Y-10490174D02*
X8918872Y-10480650D01*
X8918872Y-10480650D02*
X8947444Y-10480650D01*
X8947444Y-10480650D02*
X8966491Y-10490174D01*
X8966491Y-10490174D02*
X8976015Y-10509222D01*
X8976015Y-10509222D02*
X8976015Y-10613984D01*
X9366491Y-10404460D02*
X9195063Y-10661603D01*
X9623634Y-10413984D02*
X9642682Y-10413984D01*
X9642682Y-10413984D02*
X9661729Y-10423508D01*
X9661729Y-10423508D02*
X9671253Y-10433031D01*
X9671253Y-10433031D02*
X9680777Y-10452079D01*
X9680777Y-10452079D02*
X9690301Y-10490174D01*
X9690301Y-10490174D02*
X9690301Y-10537793D01*
X9690301Y-10537793D02*
X9680777Y-10575889D01*
X9680777Y-10575889D02*
X9671253Y-10594936D01*
X9671253Y-10594936D02*
X9661729Y-10604460D01*
X9661729Y-10604460D02*
X9642682Y-10613984D01*
X9642682Y-10613984D02*
X9623634Y-10613984D01*
X9623634Y-10613984D02*
X9604587Y-10604460D01*
X9604587Y-10604460D02*
X9595063Y-10594936D01*
X9595063Y-10594936D02*
X9585539Y-10575889D01*
X9585539Y-10575889D02*
X9576015Y-10537793D01*
X9576015Y-10537793D02*
X9576015Y-10490174D01*
X9576015Y-10490174D02*
X9585539Y-10452079D01*
X9585539Y-10452079D02*
X9595063Y-10433031D01*
X9595063Y-10433031D02*
X9604587Y-10423508D01*
X9604587Y-10423508D02*
X9623634Y-10413984D01*
X9776015Y-10594936D02*
X9785539Y-10604460D01*
X9785539Y-10604460D02*
X9776015Y-10613984D01*
X9776015Y-10613984D02*
X9766491Y-10604460D01*
X9766491Y-10604460D02*
X9776015Y-10594936D01*
X9776015Y-10594936D02*
X9776015Y-10613984D01*
X9909348Y-10413984D02*
X9928396Y-10413984D01*
X9928396Y-10413984D02*
X9947444Y-10423508D01*
X9947444Y-10423508D02*
X9956968Y-10433031D01*
X9956968Y-10433031D02*
X9966491Y-10452079D01*
X9966491Y-10452079D02*
X9976015Y-10490174D01*
X9976015Y-10490174D02*
X9976015Y-10537793D01*
X9976015Y-10537793D02*
X9966491Y-10575889D01*
X9966491Y-10575889D02*
X9956968Y-10594936D01*
X9956968Y-10594936D02*
X9947444Y-10604460D01*
X9947444Y-10604460D02*
X9928396Y-10613984D01*
X9928396Y-10613984D02*
X9909348Y-10613984D01*
X9909348Y-10613984D02*
X9890301Y-10604460D01*
X9890301Y-10604460D02*
X9880777Y-10594936D01*
X9880777Y-10594936D02*
X9871253Y-10575889D01*
X9871253Y-10575889D02*
X9861729Y-10537793D01*
X9861729Y-10537793D02*
X9861729Y-10490174D01*
X9861729Y-10490174D02*
X9871253Y-10452079D01*
X9871253Y-10452079D02*
X9880777Y-10433031D01*
X9880777Y-10433031D02*
X9890301Y-10423508D01*
X9890301Y-10423508D02*
X9909348Y-10413984D01*
X10042682Y-10413984D02*
X10166491Y-10413984D01*
X10166491Y-10413984D02*
X10099825Y-10490174D01*
X10099825Y-10490174D02*
X10128396Y-10490174D01*
X10128396Y-10490174D02*
X10147444Y-10499698D01*
X10147444Y-10499698D02*
X10156968Y-10509222D01*
X10156968Y-10509222D02*
X10166491Y-10528270D01*
X10166491Y-10528270D02*
X10166491Y-10575889D01*
X10166491Y-10575889D02*
X10156968Y-10594936D01*
X10156968Y-10594936D02*
X10147444Y-10604460D01*
X10147444Y-10604460D02*
X10128396Y-10613984D01*
X10128396Y-10613984D02*
X10071253Y-10613984D01*
X10071253Y-10613984D02*
X10052206Y-10604460D01*
X10052206Y-10604460D02*
X10042682Y-10594936D01*
X10356968Y-10613984D02*
X10242682Y-10613984D01*
X10299825Y-10613984D02*
X10299825Y-10413984D01*
X10299825Y-10413984D02*
X10280777Y-10442555D01*
X10280777Y-10442555D02*
X10261729Y-10461603D01*
X10261729Y-10461603D02*
X10242682Y-10471127D01*
X10537920Y-10413984D02*
X10442682Y-10413984D01*
X10442682Y-10413984D02*
X10433158Y-10509222D01*
X10433158Y-10509222D02*
X10442682Y-10499698D01*
X10442682Y-10499698D02*
X10461729Y-10490174D01*
X10461729Y-10490174D02*
X10509349Y-10490174D01*
X10509349Y-10490174D02*
X10528396Y-10499698D01*
X10528396Y-10499698D02*
X10537920Y-10509222D01*
X10537920Y-10509222D02*
X10547444Y-10528270D01*
X10547444Y-10528270D02*
X10547444Y-10575889D01*
X10547444Y-10575889D02*
X10537920Y-10594936D01*
X10537920Y-10594936D02*
X10528396Y-10604460D01*
X10528396Y-10604460D02*
X10509349Y-10613984D01*
X10509349Y-10613984D02*
X10461729Y-10613984D01*
X10461729Y-10613984D02*
X10442682Y-10604460D01*
X10442682Y-10604460D02*
X10433158Y-10594936D01*
X10623634Y-10413984D02*
X10623634Y-10452079D01*
X10699825Y-10413984D02*
X10699825Y-10452079D01*
X10995063Y-10690174D02*
X10985539Y-10680650D01*
X10985539Y-10680650D02*
X10966491Y-10652079D01*
X10966491Y-10652079D02*
X10956968Y-10633031D01*
X10956968Y-10633031D02*
X10947444Y-10604460D01*
X10947444Y-10604460D02*
X10937920Y-10556841D01*
X10937920Y-10556841D02*
X10937920Y-10518746D01*
X10937920Y-10518746D02*
X10947444Y-10471127D01*
X10947444Y-10471127D02*
X10956968Y-10442555D01*
X10956968Y-10442555D02*
X10966491Y-10423508D01*
X10966491Y-10423508D02*
X10985539Y-10394936D01*
X10985539Y-10394936D02*
X10995063Y-10385412D01*
X11052206Y-10413984D02*
X11176015Y-10413984D01*
X11176015Y-10413984D02*
X11109349Y-10490174D01*
X11109349Y-10490174D02*
X11137920Y-10490174D01*
X11137920Y-10490174D02*
X11156968Y-10499698D01*
X11156968Y-10499698D02*
X11166491Y-10509222D01*
X11166491Y-10509222D02*
X11176015Y-10528270D01*
X11176015Y-10528270D02*
X11176015Y-10575889D01*
X11176015Y-10575889D02*
X11166491Y-10594936D01*
X11166491Y-10594936D02*
X11156968Y-10604460D01*
X11156968Y-10604460D02*
X11137920Y-10613984D01*
X11137920Y-10613984D02*
X11080777Y-10613984D01*
X11080777Y-10613984D02*
X11061730Y-10604460D01*
X11061730Y-10604460D02*
X11052206Y-10594936D01*
X11414110Y-10613984D02*
X11414110Y-10413984D01*
X11499825Y-10613984D02*
X11499825Y-10509222D01*
X11499825Y-10509222D02*
X11490301Y-10490174D01*
X11490301Y-10490174D02*
X11471253Y-10480650D01*
X11471253Y-10480650D02*
X11442682Y-10480650D01*
X11442682Y-10480650D02*
X11423634Y-10490174D01*
X11423634Y-10490174D02*
X11414110Y-10499698D01*
X11623634Y-10613984D02*
X11604587Y-10604460D01*
X11604587Y-10604460D02*
X11595063Y-10594936D01*
X11595063Y-10594936D02*
X11585539Y-10575889D01*
X11585539Y-10575889D02*
X11585539Y-10518746D01*
X11585539Y-10518746D02*
X11595063Y-10499698D01*
X11595063Y-10499698D02*
X11604587Y-10490174D01*
X11604587Y-10490174D02*
X11623634Y-10480650D01*
X11623634Y-10480650D02*
X11652206Y-10480650D01*
X11652206Y-10480650D02*
X11671253Y-10490174D01*
X11671253Y-10490174D02*
X11680777Y-10499698D01*
X11680777Y-10499698D02*
X11690301Y-10518746D01*
X11690301Y-10518746D02*
X11690301Y-10575889D01*
X11690301Y-10575889D02*
X11680777Y-10594936D01*
X11680777Y-10594936D02*
X11671253Y-10604460D01*
X11671253Y-10604460D02*
X11652206Y-10613984D01*
X11652206Y-10613984D02*
X11623634Y-10613984D01*
X11804587Y-10613984D02*
X11785539Y-10604460D01*
X11785539Y-10604460D02*
X11776015Y-10585412D01*
X11776015Y-10585412D02*
X11776015Y-10413984D01*
X11956968Y-10604460D02*
X11937920Y-10613984D01*
X11937920Y-10613984D02*
X11899825Y-10613984D01*
X11899825Y-10613984D02*
X11880777Y-10604460D01*
X11880777Y-10604460D02*
X11871253Y-10585412D01*
X11871253Y-10585412D02*
X11871253Y-10509222D01*
X11871253Y-10509222D02*
X11880777Y-10490174D01*
X11880777Y-10490174D02*
X11899825Y-10480650D01*
X11899825Y-10480650D02*
X11937920Y-10480650D01*
X11937920Y-10480650D02*
X11956968Y-10490174D01*
X11956968Y-10490174D02*
X11966491Y-10509222D01*
X11966491Y-10509222D02*
X11966491Y-10528270D01*
X11966491Y-10528270D02*
X11871253Y-10547317D01*
X12042682Y-10604460D02*
X12061730Y-10613984D01*
X12061730Y-10613984D02*
X12099825Y-10613984D01*
X12099825Y-10613984D02*
X12118872Y-10604460D01*
X12118872Y-10604460D02*
X12128396Y-10585412D01*
X12128396Y-10585412D02*
X12128396Y-10575889D01*
X12128396Y-10575889D02*
X12118872Y-10556841D01*
X12118872Y-10556841D02*
X12099825Y-10547317D01*
X12099825Y-10547317D02*
X12071253Y-10547317D01*
X12071253Y-10547317D02*
X12052206Y-10537793D01*
X12052206Y-10537793D02*
X12042682Y-10518746D01*
X12042682Y-10518746D02*
X12042682Y-10509222D01*
X12042682Y-10509222D02*
X12052206Y-10490174D01*
X12052206Y-10490174D02*
X12071253Y-10480650D01*
X12071253Y-10480650D02*
X12099825Y-10480650D01*
X12099825Y-10480650D02*
X12118872Y-10490174D01*
X12195063Y-10690174D02*
X12204587Y-10680650D01*
X12204587Y-10680650D02*
X12223634Y-10652079D01*
X12223634Y-10652079D02*
X12233158Y-10633031D01*
X12233158Y-10633031D02*
X12242682Y-10604460D01*
X12242682Y-10604460D02*
X12252206Y-10556841D01*
X12252206Y-10556841D02*
X12252206Y-10518746D01*
X12252206Y-10518746D02*
X12242682Y-10471127D01*
X12242682Y-10471127D02*
X12233158Y-10442555D01*
X12233158Y-10442555D02*
X12223634Y-10423508D01*
X12223634Y-10423508D02*
X12204587Y-10394936D01*
X12204587Y-10394936D02*
X12195063Y-10385412D01*
X7390711Y-10857211D02*
X7390711Y-10715789D01*
X7249289Y-10715789D01*
X7249289Y-10857211D01*
X7390711Y-10857211D01*
X7661729Y-10677984D02*
X7785539Y-10677984D01*
X7785539Y-10677984D02*
X7718872Y-10754174D01*
X7718872Y-10754174D02*
X7747443Y-10754174D01*
X7747443Y-10754174D02*
X7766491Y-10763698D01*
X7766491Y-10763698D02*
X7776015Y-10773222D01*
X7776015Y-10773222D02*
X7785539Y-10792270D01*
X7785539Y-10792270D02*
X7785539Y-10839889D01*
X7785539Y-10839889D02*
X7776015Y-10858936D01*
X7776015Y-10858936D02*
X7766491Y-10868460D01*
X7766491Y-10868460D02*
X7747443Y-10877984D01*
X7747443Y-10877984D02*
X7690301Y-10877984D01*
X7690301Y-10877984D02*
X7671253Y-10868460D01*
X7671253Y-10868460D02*
X7661729Y-10858936D01*
X7871253Y-10858936D02*
X7880777Y-10868460D01*
X7880777Y-10868460D02*
X7871253Y-10877984D01*
X7871253Y-10877984D02*
X7861729Y-10868460D01*
X7861729Y-10868460D02*
X7871253Y-10858936D01*
X7871253Y-10858936D02*
X7871253Y-10877984D01*
X8004586Y-10677984D02*
X8023634Y-10677984D01*
X8023634Y-10677984D02*
X8042682Y-10687508D01*
X8042682Y-10687508D02*
X8052205Y-10697031D01*
X8052205Y-10697031D02*
X8061729Y-10716079D01*
X8061729Y-10716079D02*
X8071253Y-10754174D01*
X8071253Y-10754174D02*
X8071253Y-10801793D01*
X8071253Y-10801793D02*
X8061729Y-10839889D01*
X8061729Y-10839889D02*
X8052205Y-10858936D01*
X8052205Y-10858936D02*
X8042682Y-10868460D01*
X8042682Y-10868460D02*
X8023634Y-10877984D01*
X8023634Y-10877984D02*
X8004586Y-10877984D01*
X8004586Y-10877984D02*
X7985539Y-10868460D01*
X7985539Y-10868460D02*
X7976015Y-10858936D01*
X7976015Y-10858936D02*
X7966491Y-10839889D01*
X7966491Y-10839889D02*
X7956967Y-10801793D01*
X7956967Y-10801793D02*
X7956967Y-10754174D01*
X7956967Y-10754174D02*
X7966491Y-10716079D01*
X7966491Y-10716079D02*
X7976015Y-10697031D01*
X7976015Y-10697031D02*
X7985539Y-10687508D01*
X7985539Y-10687508D02*
X8004586Y-10677984D01*
X8195062Y-10677984D02*
X8214110Y-10677984D01*
X8214110Y-10677984D02*
X8233158Y-10687508D01*
X8233158Y-10687508D02*
X8242682Y-10697031D01*
X8242682Y-10697031D02*
X8252205Y-10716079D01*
X8252205Y-10716079D02*
X8261729Y-10754174D01*
X8261729Y-10754174D02*
X8261729Y-10801793D01*
X8261729Y-10801793D02*
X8252205Y-10839889D01*
X8252205Y-10839889D02*
X8242682Y-10858936D01*
X8242682Y-10858936D02*
X8233158Y-10868460D01*
X8233158Y-10868460D02*
X8214110Y-10877984D01*
X8214110Y-10877984D02*
X8195062Y-10877984D01*
X8195062Y-10877984D02*
X8176015Y-10868460D01*
X8176015Y-10868460D02*
X8166491Y-10858936D01*
X8166491Y-10858936D02*
X8156967Y-10839889D01*
X8156967Y-10839889D02*
X8147443Y-10801793D01*
X8147443Y-10801793D02*
X8147443Y-10754174D01*
X8147443Y-10754174D02*
X8156967Y-10716079D01*
X8156967Y-10716079D02*
X8166491Y-10697031D01*
X8166491Y-10697031D02*
X8176015Y-10687508D01*
X8176015Y-10687508D02*
X8195062Y-10677984D01*
X8385539Y-10677984D02*
X8404586Y-10677984D01*
X8404586Y-10677984D02*
X8423634Y-10687508D01*
X8423634Y-10687508D02*
X8433158Y-10697031D01*
X8433158Y-10697031D02*
X8442682Y-10716079D01*
X8442682Y-10716079D02*
X8452205Y-10754174D01*
X8452205Y-10754174D02*
X8452205Y-10801793D01*
X8452205Y-10801793D02*
X8442682Y-10839889D01*
X8442682Y-10839889D02*
X8433158Y-10858936D01*
X8433158Y-10858936D02*
X8423634Y-10868460D01*
X8423634Y-10868460D02*
X8404586Y-10877984D01*
X8404586Y-10877984D02*
X8385539Y-10877984D01*
X8385539Y-10877984D02*
X8366491Y-10868460D01*
X8366491Y-10868460D02*
X8356967Y-10858936D01*
X8356967Y-10858936D02*
X8347443Y-10839889D01*
X8347443Y-10839889D02*
X8337920Y-10801793D01*
X8337920Y-10801793D02*
X8337920Y-10754174D01*
X8337920Y-10754174D02*
X8347443Y-10716079D01*
X8347443Y-10716079D02*
X8356967Y-10697031D01*
X8356967Y-10697031D02*
X8366491Y-10687508D01*
X8366491Y-10687508D02*
X8385539Y-10677984D01*
X8537920Y-10877984D02*
X8537920Y-10744650D01*
X8537920Y-10763698D02*
X8547444Y-10754174D01*
X8547444Y-10754174D02*
X8566491Y-10744650D01*
X8566491Y-10744650D02*
X8595063Y-10744650D01*
X8595063Y-10744650D02*
X8614110Y-10754174D01*
X8614110Y-10754174D02*
X8623634Y-10773222D01*
X8623634Y-10773222D02*
X8623634Y-10877984D01*
X8623634Y-10773222D02*
X8633158Y-10754174D01*
X8633158Y-10754174D02*
X8652205Y-10744650D01*
X8652205Y-10744650D02*
X8680777Y-10744650D01*
X8680777Y-10744650D02*
X8699825Y-10754174D01*
X8699825Y-10754174D02*
X8709348Y-10773222D01*
X8709348Y-10773222D02*
X8709348Y-10877984D01*
X8804586Y-10877984D02*
X8804586Y-10744650D01*
X8804586Y-10763698D02*
X8814110Y-10754174D01*
X8814110Y-10754174D02*
X8833158Y-10744650D01*
X8833158Y-10744650D02*
X8861729Y-10744650D01*
X8861729Y-10744650D02*
X8880777Y-10754174D01*
X8880777Y-10754174D02*
X8890301Y-10773222D01*
X8890301Y-10773222D02*
X8890301Y-10877984D01*
X8890301Y-10773222D02*
X8899825Y-10754174D01*
X8899825Y-10754174D02*
X8918872Y-10744650D01*
X8918872Y-10744650D02*
X8947444Y-10744650D01*
X8947444Y-10744650D02*
X8966491Y-10754174D01*
X8966491Y-10754174D02*
X8976015Y-10773222D01*
X8976015Y-10773222D02*
X8976015Y-10877984D01*
X9366491Y-10668460D02*
X9195063Y-10925603D01*
X9623634Y-10677984D02*
X9642682Y-10677984D01*
X9642682Y-10677984D02*
X9661729Y-10687508D01*
X9661729Y-10687508D02*
X9671253Y-10697031D01*
X9671253Y-10697031D02*
X9680777Y-10716079D01*
X9680777Y-10716079D02*
X9690301Y-10754174D01*
X9690301Y-10754174D02*
X9690301Y-10801793D01*
X9690301Y-10801793D02*
X9680777Y-10839889D01*
X9680777Y-10839889D02*
X9671253Y-10858936D01*
X9671253Y-10858936D02*
X9661729Y-10868460D01*
X9661729Y-10868460D02*
X9642682Y-10877984D01*
X9642682Y-10877984D02*
X9623634Y-10877984D01*
X9623634Y-10877984D02*
X9604587Y-10868460D01*
X9604587Y-10868460D02*
X9595063Y-10858936D01*
X9595063Y-10858936D02*
X9585539Y-10839889D01*
X9585539Y-10839889D02*
X9576015Y-10801793D01*
X9576015Y-10801793D02*
X9576015Y-10754174D01*
X9576015Y-10754174D02*
X9585539Y-10716079D01*
X9585539Y-10716079D02*
X9595063Y-10697031D01*
X9595063Y-10697031D02*
X9604587Y-10687508D01*
X9604587Y-10687508D02*
X9623634Y-10677984D01*
X9776015Y-10858936D02*
X9785539Y-10868460D01*
X9785539Y-10868460D02*
X9776015Y-10877984D01*
X9776015Y-10877984D02*
X9766491Y-10868460D01*
X9766491Y-10868460D02*
X9776015Y-10858936D01*
X9776015Y-10858936D02*
X9776015Y-10877984D01*
X9976015Y-10877984D02*
X9861729Y-10877984D01*
X9918872Y-10877984D02*
X9918872Y-10677984D01*
X9918872Y-10677984D02*
X9899825Y-10706555D01*
X9899825Y-10706555D02*
X9880777Y-10725603D01*
X9880777Y-10725603D02*
X9861729Y-10735127D01*
X10166491Y-10877984D02*
X10052206Y-10877984D01*
X10109348Y-10877984D02*
X10109348Y-10677984D01*
X10109348Y-10677984D02*
X10090301Y-10706555D01*
X10090301Y-10706555D02*
X10071253Y-10725603D01*
X10071253Y-10725603D02*
X10052206Y-10735127D01*
X10280777Y-10763698D02*
X10261729Y-10754174D01*
X10261729Y-10754174D02*
X10252206Y-10744650D01*
X10252206Y-10744650D02*
X10242682Y-10725603D01*
X10242682Y-10725603D02*
X10242682Y-10716079D01*
X10242682Y-10716079D02*
X10252206Y-10697031D01*
X10252206Y-10697031D02*
X10261729Y-10687508D01*
X10261729Y-10687508D02*
X10280777Y-10677984D01*
X10280777Y-10677984D02*
X10318872Y-10677984D01*
X10318872Y-10677984D02*
X10337920Y-10687508D01*
X10337920Y-10687508D02*
X10347444Y-10697031D01*
X10347444Y-10697031D02*
X10356968Y-10716079D01*
X10356968Y-10716079D02*
X10356968Y-10725603D01*
X10356968Y-10725603D02*
X10347444Y-10744650D01*
X10347444Y-10744650D02*
X10337920Y-10754174D01*
X10337920Y-10754174D02*
X10318872Y-10763698D01*
X10318872Y-10763698D02*
X10280777Y-10763698D01*
X10280777Y-10763698D02*
X10261729Y-10773222D01*
X10261729Y-10773222D02*
X10252206Y-10782746D01*
X10252206Y-10782746D02*
X10242682Y-10801793D01*
X10242682Y-10801793D02*
X10242682Y-10839889D01*
X10242682Y-10839889D02*
X10252206Y-10858936D01*
X10252206Y-10858936D02*
X10261729Y-10868460D01*
X10261729Y-10868460D02*
X10280777Y-10877984D01*
X10280777Y-10877984D02*
X10318872Y-10877984D01*
X10318872Y-10877984D02*
X10337920Y-10868460D01*
X10337920Y-10868460D02*
X10347444Y-10858936D01*
X10347444Y-10858936D02*
X10356968Y-10839889D01*
X10356968Y-10839889D02*
X10356968Y-10801793D01*
X10356968Y-10801793D02*
X10347444Y-10782746D01*
X10347444Y-10782746D02*
X10337920Y-10773222D01*
X10337920Y-10773222D02*
X10318872Y-10763698D01*
X10547444Y-10877984D02*
X10433158Y-10877984D01*
X10490301Y-10877984D02*
X10490301Y-10677984D01*
X10490301Y-10677984D02*
X10471253Y-10706555D01*
X10471253Y-10706555D02*
X10452206Y-10725603D01*
X10452206Y-10725603D02*
X10433158Y-10735127D01*
X10623634Y-10677984D02*
X10623634Y-10716079D01*
X10699825Y-10677984D02*
X10699825Y-10716079D01*
X10995063Y-10954174D02*
X10985539Y-10944650D01*
X10985539Y-10944650D02*
X10966491Y-10916079D01*
X10966491Y-10916079D02*
X10956968Y-10897031D01*
X10956968Y-10897031D02*
X10947444Y-10868460D01*
X10947444Y-10868460D02*
X10937920Y-10820841D01*
X10937920Y-10820841D02*
X10937920Y-10782746D01*
X10937920Y-10782746D02*
X10947444Y-10735127D01*
X10947444Y-10735127D02*
X10956968Y-10706555D01*
X10956968Y-10706555D02*
X10966491Y-10687508D01*
X10966491Y-10687508D02*
X10985539Y-10658936D01*
X10985539Y-10658936D02*
X10995063Y-10649412D01*
X11156968Y-10744650D02*
X11156968Y-10877984D01*
X11109349Y-10668460D02*
X11061730Y-10811317D01*
X11061730Y-10811317D02*
X11185539Y-10811317D01*
X11414110Y-10877984D02*
X11414110Y-10677984D01*
X11499825Y-10877984D02*
X11499825Y-10773222D01*
X11499825Y-10773222D02*
X11490301Y-10754174D01*
X11490301Y-10754174D02*
X11471253Y-10744650D01*
X11471253Y-10744650D02*
X11442682Y-10744650D01*
X11442682Y-10744650D02*
X11423634Y-10754174D01*
X11423634Y-10754174D02*
X11414110Y-10763698D01*
X11623634Y-10877984D02*
X11604587Y-10868460D01*
X11604587Y-10868460D02*
X11595063Y-10858936D01*
X11595063Y-10858936D02*
X11585539Y-10839889D01*
X11585539Y-10839889D02*
X11585539Y-10782746D01*
X11585539Y-10782746D02*
X11595063Y-10763698D01*
X11595063Y-10763698D02*
X11604587Y-10754174D01*
X11604587Y-10754174D02*
X11623634Y-10744650D01*
X11623634Y-10744650D02*
X11652206Y-10744650D01*
X11652206Y-10744650D02*
X11671253Y-10754174D01*
X11671253Y-10754174D02*
X11680777Y-10763698D01*
X11680777Y-10763698D02*
X11690301Y-10782746D01*
X11690301Y-10782746D02*
X11690301Y-10839889D01*
X11690301Y-10839889D02*
X11680777Y-10858936D01*
X11680777Y-10858936D02*
X11671253Y-10868460D01*
X11671253Y-10868460D02*
X11652206Y-10877984D01*
X11652206Y-10877984D02*
X11623634Y-10877984D01*
X11804587Y-10877984D02*
X11785539Y-10868460D01*
X11785539Y-10868460D02*
X11776015Y-10849412D01*
X11776015Y-10849412D02*
X11776015Y-10677984D01*
X11956968Y-10868460D02*
X11937920Y-10877984D01*
X11937920Y-10877984D02*
X11899825Y-10877984D01*
X11899825Y-10877984D02*
X11880777Y-10868460D01*
X11880777Y-10868460D02*
X11871253Y-10849412D01*
X11871253Y-10849412D02*
X11871253Y-10773222D01*
X11871253Y-10773222D02*
X11880777Y-10754174D01*
X11880777Y-10754174D02*
X11899825Y-10744650D01*
X11899825Y-10744650D02*
X11937920Y-10744650D01*
X11937920Y-10744650D02*
X11956968Y-10754174D01*
X11956968Y-10754174D02*
X11966491Y-10773222D01*
X11966491Y-10773222D02*
X11966491Y-10792270D01*
X11966491Y-10792270D02*
X11871253Y-10811317D01*
X12042682Y-10868460D02*
X12061730Y-10877984D01*
X12061730Y-10877984D02*
X12099825Y-10877984D01*
X12099825Y-10877984D02*
X12118872Y-10868460D01*
X12118872Y-10868460D02*
X12128396Y-10849412D01*
X12128396Y-10849412D02*
X12128396Y-10839889D01*
X12128396Y-10839889D02*
X12118872Y-10820841D01*
X12118872Y-10820841D02*
X12099825Y-10811317D01*
X12099825Y-10811317D02*
X12071253Y-10811317D01*
X12071253Y-10811317D02*
X12052206Y-10801793D01*
X12052206Y-10801793D02*
X12042682Y-10782746D01*
X12042682Y-10782746D02*
X12042682Y-10773222D01*
X12042682Y-10773222D02*
X12052206Y-10754174D01*
X12052206Y-10754174D02*
X12071253Y-10744650D01*
X12071253Y-10744650D02*
X12099825Y-10744650D01*
X12099825Y-10744650D02*
X12118872Y-10754174D01*
X12195063Y-10954174D02*
X12204587Y-10944650D01*
X12204587Y-10944650D02*
X12223634Y-10916079D01*
X12223634Y-10916079D02*
X12233158Y-10897031D01*
X12233158Y-10897031D02*
X12242682Y-10868460D01*
X12242682Y-10868460D02*
X12252206Y-10820841D01*
X12252206Y-10820841D02*
X12252206Y-10782746D01*
X12252206Y-10782746D02*
X12242682Y-10735127D01*
X12242682Y-10735127D02*
X12233158Y-10706555D01*
X12233158Y-10706555D02*
X12223634Y-10687508D01*
X12223634Y-10687508D02*
X12204587Y-10658936D01*
X12204587Y-10658936D02*
X12195063Y-10649412D01*
M02*
