%TF.GenerationSoftware,KiCad,Pcbnew,7.0.10*%
%TF.CreationDate,2024-01-15T20:05:46+01:00*%
%TF.ProjectId,tiny-scarab,74696e79-2d73-4636-9172-61622e6b6963,0.1*%
%TF.SameCoordinates,Original*%
%TF.FileFunction,Copper,L2,Inr*%
%TF.FilePolarity,Positive*%
%FSLAX46Y46*%
G04 Gerber Fmt 4.6, Leading zero omitted, Abs format (unit mm)*
G04 Created by KiCad (PCBNEW 7.0.10) date 2024-01-15 20:05:46*
%MOMM*%
%LPD*%
G01*
G04 APERTURE LIST*
%TA.AperFunction,ComponentPad*%
%ADD10C,6.000000*%
%TD*%
%TA.AperFunction,ComponentPad*%
%ADD11C,1.400000*%
%TD*%
%TA.AperFunction,ViaPad*%
%ADD12C,0.800000*%
%TD*%
%TA.AperFunction,ViaPad*%
%ADD13C,1.200000*%
%TD*%
%TA.AperFunction,Conductor*%
%ADD14C,0.400000*%
%TD*%
%TA.AperFunction,Conductor*%
%ADD15C,0.200000*%
%TD*%
G04 APERTURE END LIST*
D10*
%TO.N,GND*%
%TO.C,J6*%
X78250000Y-28495000D03*
%TD*%
%TO.N,GND*%
%TO.C,J8*%
X78250000Y-88495000D03*
%TD*%
D11*
%TO.N,+3V3*%
%TO.C,SW5*%
X104394000Y-55158000D03*
%TO.N,Net-(SW5-B)*%
X104394000Y-57658000D03*
%TO.N,+5V*%
X104394000Y-60158000D03*
%TD*%
D10*
%TO.N,GND*%
%TO.C,J7*%
X112250000Y-88495000D03*
%TD*%
%TO.N,GND*%
%TO.C,J5*%
X112250000Y-28495000D03*
%TD*%
D12*
%TO.N,+5V*%
X104584500Y-37909500D03*
X104886936Y-35470107D03*
X87675528Y-57850000D03*
X109108999Y-38863923D03*
X100377483Y-31883201D03*
X102874993Y-41545010D03*
X101758750Y-51720750D03*
D13*
X106553000Y-50770753D03*
D12*
X106918002Y-35494941D03*
X110664321Y-45999390D03*
%TO.N,GND*%
X92075000Y-24479250D03*
X111442500Y-79375000D03*
X98171000Y-32162750D03*
X103505000Y-61722000D03*
X86931500Y-56229250D03*
X111442500Y-73025000D03*
X110109000Y-38862000D03*
X78422500Y-36004500D03*
X111569500Y-37973000D03*
X108267500Y-68072000D03*
X85464000Y-42418000D03*
X87376000Y-71882000D03*
X84645502Y-70612000D03*
X95250000Y-28003500D03*
X93757750Y-36258500D03*
X81851500Y-59563000D03*
X99788541Y-58570478D03*
X79057500Y-69850000D03*
X105425875Y-29987875D03*
X79057500Y-79375000D03*
X94535751Y-40325322D03*
X77152500Y-33972500D03*
X102870000Y-42545000D03*
X87344250Y-76930250D03*
X98488500Y-24479250D03*
X103314500Y-66802000D03*
X79057500Y-73025000D03*
X79057500Y-60325000D03*
X105918000Y-35494403D03*
X111442500Y-57150000D03*
X81343500Y-55067997D03*
X102203250Y-34597250D03*
X104584500Y-42989500D03*
X86866099Y-47123194D03*
X111442500Y-60325000D03*
X90106496Y-78263750D03*
X96551750Y-85090000D03*
X98107500Y-34290000D03*
X79057500Y-57150000D03*
X84645500Y-68072002D03*
X87312500Y-79533750D03*
X79057500Y-66675000D03*
X92075000Y-26352500D03*
X83788250Y-37465000D03*
X96266000Y-28003500D03*
X111442500Y-69850000D03*
X99377500Y-31877000D03*
X108902500Y-83502500D03*
X99789253Y-56554574D03*
X79057500Y-82550000D03*
X86296500Y-54049750D03*
X113093500Y-34321750D03*
X111442500Y-53975000D03*
X85153500Y-28511020D03*
X102758753Y-51720750D03*
X93091000Y-85090000D03*
X107950000Y-24479250D03*
X92709986Y-34448750D03*
X88187124Y-45867749D03*
X94586250Y-56356250D03*
X97218500Y-36290250D03*
X111474250Y-63500000D03*
X107315000Y-85090000D03*
X79057500Y-53975000D03*
X84409750Y-58007250D03*
X112045750Y-36131500D03*
X90608676Y-57493490D03*
X90106000Y-80962000D03*
X79089250Y-76200000D03*
X90106500Y-70612000D03*
X88900000Y-37052258D03*
X103187500Y-82232500D03*
X82232500Y-24479250D03*
X79089250Y-63500000D03*
X88090253Y-50355500D03*
X98488500Y-26352500D03*
X106267250Y-60055003D03*
X111474250Y-76200000D03*
D13*
X106553000Y-49371250D03*
D12*
X109914910Y-46661500D03*
X111442500Y-66675000D03*
X111442500Y-82550000D03*
X103346250Y-69342000D03*
%TO.N,+3V3*%
X101822250Y-47085250D03*
X99815112Y-36302838D03*
X96218537Y-36281385D03*
X95535756Y-40322500D03*
X92757748Y-36257704D03*
X86585250Y-28511020D03*
X85867761Y-47065526D03*
D13*
X106553000Y-47971747D03*
D12*
X89153994Y-47135500D03*
X104457500Y-31019750D03*
X84838253Y-37465000D03*
%TO.N,/RST_IN*%
X104584500Y-39179500D03*
X93122750Y-42830750D03*
X85852000Y-36258500D03*
X98440819Y-40528819D03*
%TO.N,/WCH-LinkE-R0-1v3/IAP*%
X108680250Y-33051750D03*
X98479000Y-43152509D03*
%TO.N,/TX*%
X91725750Y-48228250D03*
X96424750Y-47021750D03*
%TO.N,/RST_OUT*%
X96742250Y-56388000D03*
X97720044Y-57556294D03*
%TO.N,/USB/CC1*%
X95212250Y-33858512D03*
X101160000Y-28321004D03*
%TO.N,/USB_P*%
X95250000Y-29527500D03*
X93382746Y-32510719D03*
%TO.N,/USB_N*%
X96266000Y-29527495D03*
X94441058Y-32512443D03*
%TO.N,/USB/CC2*%
X89340000Y-28321000D03*
X94234000Y-29527498D03*
%TO.N,/SWCLK_IN*%
X107759500Y-39179500D03*
X100520500Y-37846000D03*
%TO.N,/SWDIO_IN*%
X101060250Y-41624250D03*
X99409250Y-39370000D03*
X107759500Y-41719500D03*
%TO.N,VDD*%
X101250750Y-83121500D03*
X84645500Y-65531998D03*
X86296500Y-53049747D03*
X106267250Y-59055000D03*
X87090250Y-50355500D03*
X103320750Y-64260717D03*
X90106502Y-65532000D03*
X95520553Y-85090000D03*
X102584250Y-56451500D03*
X93186250Y-56356250D03*
X100393500Y-62611000D03*
X82851503Y-59563000D03*
X81343500Y-56068000D03*
X89901568Y-58200599D03*
X102572756Y-58653744D03*
X92059803Y-85090000D03*
%TO.N,/PD0*%
X86582250Y-57850000D03*
X93313250Y-57658000D03*
%TD*%
D14*
%TO.N,GND*%
X87884000Y-75565000D02*
X87884000Y-75628504D01*
X106553000Y-57610375D02*
X105187750Y-58975625D01*
X92854879Y-55556250D02*
X93656250Y-55556250D01*
X100128911Y-32766000D02*
X99377500Y-32014589D01*
D15*
X93944050Y-28827498D02*
X94426002Y-28827498D01*
D14*
X90963750Y-45180250D02*
X90963750Y-38512750D01*
X105918000Y-35570414D02*
X105918000Y-35494403D01*
X105187750Y-47879000D02*
X105187750Y-48020711D01*
D15*
X95141058Y-32802393D02*
X95141058Y-32212558D01*
D14*
X87344250Y-76104750D02*
X87884000Y-75565000D01*
X104584500Y-36270107D02*
X105218307Y-36270107D01*
X83788250Y-38163500D02*
X83788250Y-37465000D01*
D15*
X94731008Y-33212443D02*
X95141058Y-32802393D01*
D14*
X102203250Y-34575750D02*
X103251000Y-33528000D01*
X107791250Y-35236818D02*
X107249373Y-34694941D01*
X90106000Y-80962000D02*
X90106000Y-80263500D01*
X102520750Y-69342000D02*
X102520750Y-81565750D01*
X105918000Y-40544750D02*
X108997750Y-40544750D01*
X104584500Y-41560750D02*
X104584500Y-42989500D01*
X100774500Y-34290000D02*
X101822250Y-33242250D01*
D15*
X94426002Y-28827498D02*
X95250000Y-28003500D01*
D14*
X87884000Y-67500500D02*
X87884000Y-75565000D01*
X105187750Y-58975625D02*
X105187750Y-59237365D01*
X88187124Y-45867749D02*
X90276251Y-45867749D01*
X105494000Y-60102750D02*
X105494000Y-62029939D01*
X92297250Y-65309750D02*
X90106500Y-67500500D01*
X94586250Y-57086500D02*
X94586250Y-56356250D01*
D15*
X96966000Y-29817445D02*
X96966000Y-29237545D01*
D14*
X87312500Y-79533750D02*
X87772875Y-79073375D01*
X101123750Y-32766000D02*
X100128911Y-32766000D01*
X102520750Y-62642750D02*
X101568250Y-62642750D01*
X96456500Y-41275000D02*
X96456500Y-37592000D01*
X105187750Y-59237365D02*
X105494000Y-59543615D01*
X103346250Y-69342000D02*
X102520750Y-69342000D01*
X90995436Y-57880250D02*
X91567000Y-57880250D01*
X97599500Y-36290250D02*
X99599750Y-34290000D01*
X105600500Y-40544750D02*
X105918000Y-40544750D01*
X105854500Y-40544750D02*
X105441750Y-40132000D01*
D15*
X94535751Y-35290251D02*
X93345000Y-34099500D01*
D14*
X105600500Y-40544750D02*
X104584500Y-41560750D01*
X102520750Y-66802000D02*
X102520750Y-64484250D01*
X104584500Y-37109500D02*
X104584500Y-36270107D01*
X106538289Y-49371250D02*
X106553000Y-49371250D01*
X87884000Y-75628504D02*
X88979373Y-76723877D01*
X105187750Y-48020711D02*
X106538289Y-49371250D01*
X99377500Y-31877000D02*
X98456750Y-31877000D01*
X86360480Y-29718000D02*
X85153500Y-28511020D01*
X105918000Y-40544750D02*
X105854500Y-40544750D01*
D15*
X94773750Y-39370000D02*
X95059500Y-39084250D01*
D14*
X105218307Y-36270107D02*
X105918000Y-35570414D01*
X100062129Y-61811000D02*
X99325629Y-62547500D01*
X94586250Y-57086500D02*
X94586250Y-57717935D01*
X93757750Y-39547321D02*
X93757750Y-38512750D01*
D15*
X94551500Y-31623000D02*
X94551500Y-30765750D01*
D14*
X109440370Y-39663923D02*
X108997750Y-39663923D01*
D15*
X94551500Y-30765750D02*
X95089755Y-30227495D01*
D14*
X103028750Y-50800000D02*
X105168033Y-50800000D01*
X105494000Y-59543615D02*
X105494000Y-60102750D01*
X110109000Y-38995293D02*
X109440370Y-39663923D01*
X99409250Y-42100500D02*
X97282000Y-42100500D01*
X102489000Y-32766000D02*
X102076250Y-32766000D01*
X84137500Y-38512750D02*
X83788250Y-38163500D01*
X104881189Y-62642750D02*
X102520750Y-62642750D01*
X110109000Y-38862000D02*
X110109000Y-38639750D01*
X99377500Y-32014589D02*
X99377500Y-31877000D01*
X92297250Y-62547500D02*
X88950000Y-62547500D01*
D15*
X93534000Y-31369515D02*
X93534000Y-29237548D01*
X95059500Y-34829750D02*
X94170500Y-33940750D01*
D14*
X105918000Y-35369800D02*
X105123950Y-34575750D01*
X102203250Y-34597250D02*
X102203250Y-34575750D01*
D15*
X93345000Y-34099500D02*
X93345000Y-33462924D01*
D14*
X90963750Y-38512750D02*
X84137500Y-38512750D01*
D15*
X96966000Y-29237545D02*
X96266000Y-28537545D01*
D14*
X102870000Y-45561250D02*
X102870000Y-42545000D01*
X105187750Y-47879000D02*
X102870000Y-45561250D01*
D15*
X95141058Y-32212558D02*
X94551500Y-31623000D01*
D14*
X87884000Y-67500500D02*
X86106000Y-67500500D01*
X96456500Y-41275000D02*
X95313500Y-41275000D01*
D15*
X92682746Y-32800669D02*
X92682746Y-32220769D01*
D14*
X106553000Y-52184967D02*
X109914910Y-48823057D01*
D15*
X96555950Y-30227495D02*
X96966000Y-29817445D01*
D14*
X94535751Y-40325322D02*
X93757750Y-39547321D01*
X102520750Y-81565750D02*
X103187500Y-82232500D01*
X87772875Y-79073375D02*
X87772875Y-77930375D01*
X102758753Y-51069997D02*
X103028750Y-50800000D01*
D15*
X95089755Y-30227495D02*
X96555950Y-30227495D01*
D14*
X103251000Y-33528000D02*
X102489000Y-32766000D01*
X90963750Y-38512750D02*
X90963750Y-33051750D01*
X106251253Y-60071000D02*
X106267250Y-60055003D01*
X84836002Y-67500500D02*
X84645500Y-67691002D01*
X94583250Y-56359250D02*
X94586250Y-56356250D01*
X108997750Y-44323000D02*
X110103545Y-45428795D01*
D15*
X93345000Y-33462924D02*
X92682746Y-32800669D01*
D14*
X92386250Y-57061000D02*
X92386250Y-56024879D01*
D15*
X94535751Y-39370000D02*
X94773750Y-39370000D01*
D14*
X105918000Y-35494403D02*
X105918000Y-35369800D01*
D15*
X96266000Y-28537545D02*
X96266000Y-28003500D01*
D14*
X102758753Y-51720750D02*
X102758753Y-51069997D01*
X90608676Y-57493490D02*
X90995436Y-57880250D01*
X109864321Y-46610911D02*
X109914910Y-46661500D01*
X101822250Y-33242250D02*
X101822250Y-32766000D01*
X104298750Y-34575750D02*
X103251000Y-33528000D01*
X106586631Y-34694941D02*
X105918000Y-35363572D01*
X98107500Y-32226250D02*
X98171000Y-32162750D01*
X102870000Y-45561250D02*
X99409250Y-42100500D01*
X102520750Y-69342000D02*
X102520750Y-66802000D01*
X105918000Y-35659105D02*
X105918000Y-35494403D01*
D15*
X94295557Y-33212443D02*
X94731008Y-33212443D01*
D14*
X92297250Y-62547500D02*
X92297250Y-65309750D01*
X96456500Y-37592000D02*
X97218500Y-36830000D01*
D15*
X94170500Y-33337500D02*
X94295557Y-33212443D01*
D14*
X86106000Y-68770502D02*
X84645502Y-70231000D01*
X105384500Y-37578129D02*
X104915871Y-37109500D01*
D15*
X94535751Y-40325322D02*
X94535751Y-39370000D01*
D14*
X109914910Y-48823057D02*
X109914910Y-46661500D01*
X93656250Y-55556250D02*
X94456250Y-56356250D01*
X96202500Y-62547500D02*
X92297250Y-62547500D01*
X90963750Y-33051750D02*
X87630000Y-29718000D01*
X105123950Y-34575750D02*
X104298750Y-34575750D01*
X97282000Y-42100500D02*
X96456500Y-41275000D01*
X110109000Y-38639750D02*
X107791250Y-36322000D01*
X105134310Y-38491060D02*
X105384500Y-38240871D01*
X90106496Y-77851000D02*
X90106496Y-78263750D01*
X94535751Y-40497251D02*
X94535751Y-40325322D01*
D15*
X92682746Y-32220769D02*
X93534000Y-31369515D01*
D14*
X102520750Y-64484250D02*
X102520750Y-62642750D01*
X105918000Y-35363572D02*
X105918000Y-35494403D01*
X94586250Y-57597500D02*
X94586250Y-57086500D01*
X87630000Y-29718000D02*
X86360480Y-29718000D01*
X88979373Y-76723877D02*
X87772875Y-77930375D01*
X94456250Y-56356250D02*
X94586250Y-56356250D01*
X90106500Y-67500500D02*
X90106500Y-70231000D01*
X93757750Y-38512750D02*
X90963750Y-38512750D01*
X110103545Y-45428795D02*
X109864321Y-45668019D01*
D15*
X93534000Y-29237548D02*
X93944050Y-28827498D01*
D14*
X96202500Y-59213750D02*
X94586250Y-57597500D01*
X90276251Y-45867749D02*
X90963750Y-45180250D01*
X105494000Y-60102750D02*
X105525750Y-60071000D01*
X103314500Y-66802000D02*
X102520750Y-66802000D01*
X97218500Y-36830000D02*
X97218500Y-36290250D01*
X105441750Y-38798500D02*
X105134310Y-38491060D01*
X99599750Y-34290000D02*
X100774500Y-34290000D01*
X105384500Y-38240871D02*
X105384500Y-37578129D01*
X90106500Y-67500500D02*
X87884000Y-67500500D01*
X98456750Y-31877000D02*
X98171000Y-32162750D01*
X101568250Y-62642750D02*
X100736500Y-61811000D01*
X88950000Y-62547500D02*
X84409750Y-58007250D01*
X95313500Y-41275000D02*
X94535751Y-40497251D01*
D15*
X94170500Y-33940750D02*
X94170500Y-33337500D01*
D14*
X102076250Y-32766000D02*
X101123750Y-32766000D01*
X101123750Y-32766000D02*
X103901875Y-29987875D01*
X106553000Y-52184967D02*
X106553000Y-57610375D01*
X87344250Y-76930250D02*
X87344250Y-76104750D01*
X88979373Y-76723877D02*
X90106496Y-77851000D01*
X109864321Y-45668019D02*
X109864321Y-46610911D01*
X110109000Y-38862000D02*
X110109000Y-38995293D01*
D15*
X94535751Y-39370000D02*
X94535751Y-35290251D01*
D14*
X104915871Y-37109500D02*
X104584500Y-37109500D01*
X107249373Y-34694941D02*
X106586631Y-34694941D01*
X108997750Y-39663923D02*
X108997750Y-44323000D01*
X86106000Y-67500500D02*
X84836002Y-67500500D01*
X97218500Y-36290250D02*
X97599500Y-36290250D01*
X99325629Y-62547500D02*
X96202500Y-62547500D01*
X91567000Y-57880250D02*
X92386250Y-57061000D01*
X105494000Y-62029939D02*
X104881189Y-62642750D01*
X93757750Y-38512750D02*
X93757750Y-36258500D01*
X92386250Y-56024879D02*
X92854879Y-55556250D01*
X96202500Y-62547500D02*
X96202500Y-59213750D01*
X98107500Y-34290000D02*
X98107500Y-32226250D01*
X107791250Y-36322000D02*
X107791250Y-35236818D01*
X103901875Y-29987875D02*
X105425875Y-29987875D01*
X90106000Y-80263500D02*
X87772875Y-77930375D01*
X105525750Y-60071000D02*
X106251253Y-60071000D01*
X105441750Y-40132000D02*
X105441750Y-38798500D01*
X105168033Y-50800000D02*
X106553000Y-52184967D01*
X100736500Y-61811000D02*
X100062129Y-61811000D01*
X86106000Y-67500500D02*
X86106000Y-68770502D01*
D15*
X95059500Y-39084250D02*
X95059500Y-34829750D01*
%TD*%
%TA.AperFunction,Conductor*%
%TO.N,GND*%
G36*
X109901934Y-23995576D02*
G01*
X110355070Y-24013379D01*
X110362801Y-24013988D01*
X110811215Y-24067061D01*
X110818860Y-24068272D01*
X111261739Y-24156366D01*
X111269273Y-24158175D01*
X111703861Y-24280741D01*
X111711231Y-24283136D01*
X112134877Y-24439427D01*
X112142031Y-24442391D01*
X112552089Y-24631430D01*
X112558996Y-24634949D01*
X112952974Y-24855587D01*
X112959575Y-24859633D01*
X113335031Y-25110504D01*
X113341302Y-25115061D01*
X113695887Y-25394594D01*
X113701798Y-25399642D01*
X113752015Y-25446062D01*
X113781912Y-25499446D01*
X113774720Y-25560207D01*
X113733188Y-25605137D01*
X113673178Y-25617074D01*
X113643211Y-25608349D01*
X113643182Y-25608420D01*
X113642541Y-25608154D01*
X113641859Y-25607956D01*
X113640612Y-25607355D01*
X113308556Y-25469813D01*
X112963187Y-25370314D01*
X112608861Y-25310112D01*
X112608841Y-25310109D01*
X112250005Y-25289958D01*
X112249995Y-25289958D01*
X111891158Y-25310109D01*
X111891138Y-25310112D01*
X111536812Y-25370314D01*
X111191443Y-25469813D01*
X110859379Y-25607358D01*
X110544819Y-25781210D01*
X110251692Y-25989194D01*
X110170397Y-26061843D01*
X111380117Y-27271563D01*
X111325523Y-27307232D01*
X111142632Y-27475596D01*
X111026389Y-27624943D01*
X109816843Y-26415397D01*
X109744194Y-26496692D01*
X109536210Y-26789819D01*
X109362358Y-27104379D01*
X109224813Y-27436443D01*
X109125314Y-27781812D01*
X109065112Y-28136138D01*
X109065109Y-28136158D01*
X109044958Y-28494995D01*
X109044958Y-28495004D01*
X109065109Y-28853841D01*
X109065112Y-28853861D01*
X109125314Y-29208187D01*
X109224813Y-29553556D01*
X109362358Y-29885620D01*
X109536210Y-30200180D01*
X109744198Y-30493313D01*
X109816843Y-30574601D01*
X111026388Y-29365055D01*
X111142632Y-29514404D01*
X111325523Y-29682768D01*
X111380116Y-29718435D01*
X110170397Y-30928155D01*
X110251686Y-31000801D01*
X110544819Y-31208789D01*
X110859380Y-31382641D01*
X110859379Y-31382641D01*
X111191443Y-31520186D01*
X111536812Y-31619685D01*
X111891138Y-31679887D01*
X111891158Y-31679890D01*
X112249995Y-31700042D01*
X112250005Y-31700042D01*
X112608841Y-31679890D01*
X112608861Y-31679887D01*
X112963187Y-31619685D01*
X113308556Y-31520186D01*
X113640620Y-31382641D01*
X113955180Y-31208789D01*
X114248313Y-31000800D01*
X114329601Y-30928155D01*
X113119882Y-29718436D01*
X113174477Y-29682768D01*
X113357368Y-29514404D01*
X113473610Y-29365056D01*
X114683155Y-30574601D01*
X114755800Y-30493313D01*
X114963789Y-30200180D01*
X115137641Y-29885620D01*
X115275186Y-29553556D01*
X115374685Y-29208187D01*
X115434887Y-28853861D01*
X115434890Y-28853841D01*
X115441226Y-28741022D01*
X115463366Y-28683983D01*
X115514805Y-28650851D01*
X115575894Y-28654282D01*
X115623299Y-28692965D01*
X115637168Y-28727259D01*
X115676724Y-28926122D01*
X115677940Y-28933800D01*
X115731010Y-29382189D01*
X115731620Y-29389938D01*
X115749353Y-29841275D01*
X115749365Y-29848727D01*
X115734454Y-30262503D01*
X115733940Y-30269616D01*
X115689268Y-30681376D01*
X115688245Y-30688433D01*
X115614042Y-31095953D01*
X115612512Y-31102918D01*
X115509176Y-31504003D01*
X115507150Y-31510840D01*
X115375204Y-31903469D01*
X115372690Y-31910142D01*
X115212830Y-32292239D01*
X115209843Y-32298713D01*
X115022887Y-32668328D01*
X115019441Y-32674572D01*
X114806372Y-33029756D01*
X114802486Y-33035735D01*
X114564396Y-33374669D01*
X114560090Y-33380352D01*
X114298220Y-33701270D01*
X114293515Y-33706629D01*
X114008026Y-34009133D01*
X114005526Y-34011688D01*
X113830969Y-34183755D01*
X113505217Y-34554830D01*
X113207037Y-34948370D01*
X113207033Y-34948376D01*
X112937962Y-35362347D01*
X112937942Y-35362379D01*
X112699367Y-35794646D01*
X112492519Y-36242981D01*
X112492514Y-36242993D01*
X112318475Y-36705053D01*
X112178147Y-37178450D01*
X112178146Y-37178455D01*
X112160032Y-37260955D01*
X112072256Y-37660732D01*
X112001361Y-38149353D01*
X112001358Y-38149385D01*
X111965819Y-38641832D01*
X111965842Y-38888717D01*
X111965842Y-78112023D01*
X111965820Y-78348167D01*
X112001359Y-78840614D01*
X112001362Y-78840646D01*
X112072257Y-79329267D01*
X112072259Y-79329275D01*
X112178146Y-79811538D01*
X112178148Y-79811548D01*
X112318476Y-80284945D01*
X112492515Y-80747005D01*
X112492520Y-80747017D01*
X112699368Y-81195352D01*
X112937943Y-81627620D01*
X112937963Y-81627652D01*
X113207034Y-82041623D01*
X113207038Y-82041629D01*
X113505217Y-82435168D01*
X113505218Y-82435169D01*
X113505223Y-82435175D01*
X113830965Y-82806239D01*
X114005495Y-82978279D01*
X114007979Y-82980819D01*
X114293515Y-83283373D01*
X114298219Y-83288731D01*
X114560087Y-83609645D01*
X114564394Y-83615329D01*
X114802485Y-83954265D01*
X114806371Y-83960244D01*
X115019440Y-84315428D01*
X115022886Y-84321671D01*
X115209843Y-84691285D01*
X115212830Y-84697760D01*
X115372689Y-85079857D01*
X115375203Y-85086530D01*
X115507149Y-85479159D01*
X115509175Y-85485996D01*
X115612511Y-85887081D01*
X115614041Y-85894046D01*
X115688244Y-86301566D01*
X115689267Y-86308623D01*
X115733939Y-86720383D01*
X115734453Y-86727496D01*
X115749365Y-87141278D01*
X115749353Y-87148730D01*
X115731620Y-87600061D01*
X115731010Y-87607810D01*
X115677940Y-88056199D01*
X115676724Y-88063877D01*
X115637168Y-88262740D01*
X115607271Y-88316124D01*
X115551706Y-88341740D01*
X115491697Y-88329803D01*
X115450164Y-88284873D01*
X115441226Y-88248977D01*
X115434890Y-88136158D01*
X115434887Y-88136138D01*
X115374685Y-87781812D01*
X115275186Y-87436443D01*
X115137641Y-87104379D01*
X114963789Y-86789819D01*
X114755801Y-86496686D01*
X114683155Y-86415397D01*
X113473609Y-87624942D01*
X113357368Y-87475596D01*
X113174477Y-87307232D01*
X113119881Y-87271562D01*
X114329601Y-86061843D01*
X114248313Y-85989198D01*
X113955180Y-85781210D01*
X113640619Y-85607358D01*
X113640620Y-85607358D01*
X113308556Y-85469813D01*
X112963187Y-85370314D01*
X112608861Y-85310112D01*
X112608841Y-85310109D01*
X112250005Y-85289958D01*
X112249995Y-85289958D01*
X111891158Y-85310109D01*
X111891138Y-85310112D01*
X111536812Y-85370314D01*
X111191443Y-85469813D01*
X110859379Y-85607358D01*
X110544819Y-85781210D01*
X110251692Y-85989194D01*
X110170397Y-86061843D01*
X111380117Y-87271563D01*
X111325523Y-87307232D01*
X111142632Y-87475596D01*
X111026389Y-87624943D01*
X109816843Y-86415397D01*
X109744194Y-86496692D01*
X109536210Y-86789819D01*
X109362358Y-87104379D01*
X109224813Y-87436443D01*
X109125314Y-87781812D01*
X109065112Y-88136138D01*
X109065109Y-88136158D01*
X109044958Y-88494995D01*
X109044958Y-88495004D01*
X109065109Y-88853841D01*
X109065112Y-88853861D01*
X109125314Y-89208187D01*
X109224813Y-89553556D01*
X109362358Y-89885620D01*
X109536210Y-90200180D01*
X109744198Y-90493313D01*
X109816843Y-90574601D01*
X111026388Y-89365055D01*
X111142632Y-89514404D01*
X111325523Y-89682768D01*
X111380116Y-89718435D01*
X110170397Y-90928155D01*
X110251686Y-91000801D01*
X110544819Y-91208789D01*
X110859380Y-91382641D01*
X110859379Y-91382641D01*
X111191443Y-91520186D01*
X111536812Y-91619685D01*
X111891138Y-91679887D01*
X111891158Y-91679890D01*
X112249995Y-91700042D01*
X112250005Y-91700042D01*
X112608841Y-91679890D01*
X112608861Y-91679887D01*
X112963187Y-91619685D01*
X113308556Y-91520186D01*
X113640614Y-91382643D01*
X113641840Y-91382053D01*
X113642137Y-91382012D01*
X113643182Y-91381580D01*
X113643296Y-91381855D01*
X113702470Y-91373826D01*
X113756356Y-91402808D01*
X113782915Y-91457928D01*
X113772003Y-91518133D01*
X113752015Y-91543937D01*
X113701798Y-91590357D01*
X113695887Y-91595405D01*
X113341302Y-91874938D01*
X113335013Y-91879508D01*
X112959592Y-92130356D01*
X112952965Y-92134417D01*
X112559011Y-92355042D01*
X112552084Y-92358571D01*
X112142044Y-92547602D01*
X112134863Y-92550577D01*
X111711242Y-92706859D01*
X111703849Y-92709261D01*
X111269285Y-92831821D01*
X111261726Y-92833636D01*
X110818877Y-92921724D01*
X110811199Y-92922940D01*
X110362810Y-92976010D01*
X110355061Y-92976620D01*
X109901934Y-92994424D01*
X109898047Y-92994500D01*
X80601953Y-92994500D01*
X80598066Y-92994424D01*
X80144938Y-92976620D01*
X80137189Y-92976010D01*
X79688800Y-92922940D01*
X79681122Y-92921724D01*
X79238273Y-92833636D01*
X79230714Y-92831821D01*
X78796150Y-92709261D01*
X78788757Y-92706859D01*
X78365136Y-92550577D01*
X78357955Y-92547602D01*
X77947915Y-92358571D01*
X77940993Y-92355044D01*
X77547032Y-92134416D01*
X77540417Y-92130362D01*
X77164972Y-91879498D01*
X77158697Y-91874938D01*
X76804112Y-91595405D01*
X76798201Y-91590357D01*
X76747984Y-91543937D01*
X76718087Y-91490553D01*
X76725279Y-91429792D01*
X76766811Y-91384862D01*
X76826821Y-91372925D01*
X76856788Y-91381651D01*
X76856818Y-91381580D01*
X76857469Y-91381849D01*
X76858150Y-91382048D01*
X76859390Y-91382645D01*
X77191443Y-91520186D01*
X77536812Y-91619685D01*
X77891138Y-91679887D01*
X77891158Y-91679890D01*
X78249995Y-91700042D01*
X78250005Y-91700042D01*
X78608841Y-91679890D01*
X78608861Y-91679887D01*
X78963187Y-91619685D01*
X79308556Y-91520186D01*
X79640620Y-91382641D01*
X79955180Y-91208789D01*
X80248313Y-91000800D01*
X80329601Y-90928155D01*
X79119882Y-89718436D01*
X79174477Y-89682768D01*
X79357368Y-89514404D01*
X79473610Y-89365056D01*
X80683155Y-90574601D01*
X80755800Y-90493313D01*
X80963789Y-90200180D01*
X81137641Y-89885620D01*
X81275186Y-89553556D01*
X81374685Y-89208187D01*
X81434887Y-88853861D01*
X81434890Y-88853841D01*
X81455042Y-88495004D01*
X81455042Y-88494995D01*
X81434890Y-88136158D01*
X81434887Y-88136138D01*
X81374685Y-87781812D01*
X81275186Y-87436443D01*
X81137641Y-87104379D01*
X80963789Y-86789819D01*
X80755801Y-86496686D01*
X80683155Y-86415397D01*
X79473609Y-87624942D01*
X79357368Y-87475596D01*
X79174477Y-87307232D01*
X79119881Y-87271562D01*
X80329601Y-86061843D01*
X80248313Y-85989198D01*
X79955180Y-85781210D01*
X79640619Y-85607358D01*
X79640620Y-85607358D01*
X79308556Y-85469813D01*
X78963187Y-85370314D01*
X78608861Y-85310112D01*
X78608841Y-85310109D01*
X78250005Y-85289958D01*
X78249995Y-85289958D01*
X77891158Y-85310109D01*
X77891138Y-85310112D01*
X77536812Y-85370314D01*
X77191443Y-85469813D01*
X76859379Y-85607358D01*
X76544819Y-85781210D01*
X76251692Y-85989194D01*
X76170397Y-86061843D01*
X77380117Y-87271563D01*
X77325523Y-87307232D01*
X77142632Y-87475596D01*
X77026389Y-87624943D01*
X75816843Y-86415397D01*
X75744194Y-86496692D01*
X75536210Y-86789819D01*
X75362358Y-87104379D01*
X75224813Y-87436443D01*
X75125314Y-87781812D01*
X75065112Y-88136138D01*
X75065109Y-88136158D01*
X75058773Y-88248978D01*
X75036632Y-88306017D01*
X74985193Y-88339148D01*
X74924104Y-88335717D01*
X74876699Y-88297034D01*
X74862832Y-88262744D01*
X74823272Y-88063860D01*
X74822061Y-88056215D01*
X74768988Y-87607801D01*
X74768379Y-87600061D01*
X74761950Y-87436443D01*
X74750645Y-87148715D01*
X74750634Y-87141272D01*
X74750904Y-87133778D01*
X74765546Y-86727472D01*
X74766057Y-86720407D01*
X74810734Y-86308598D01*
X74811750Y-86301591D01*
X74885961Y-85894027D01*
X74887482Y-85887100D01*
X74990829Y-85485974D01*
X74992840Y-85479189D01*
X75123629Y-85090000D01*
X91454121Y-85090000D01*
X91474758Y-85246758D01*
X91474760Y-85246766D01*
X91535265Y-85392838D01*
X91535265Y-85392839D01*
X91601501Y-85479159D01*
X91631521Y-85518282D01*
X91756962Y-85614536D01*
X91903041Y-85675044D01*
X92020612Y-85690522D01*
X92059802Y-85695682D01*
X92059803Y-85695682D01*
X92059804Y-85695682D01*
X92091155Y-85691554D01*
X92216565Y-85675044D01*
X92362644Y-85614536D01*
X92488085Y-85518282D01*
X92584339Y-85392841D01*
X92644847Y-85246762D01*
X92665485Y-85090000D01*
X94914871Y-85090000D01*
X94935508Y-85246758D01*
X94935510Y-85246766D01*
X94996015Y-85392838D01*
X94996015Y-85392839D01*
X95062251Y-85479159D01*
X95092271Y-85518282D01*
X95217712Y-85614536D01*
X95363791Y-85675044D01*
X95481362Y-85690522D01*
X95520552Y-85695682D01*
X95520553Y-85695682D01*
X95520554Y-85695682D01*
X95551905Y-85691554D01*
X95677315Y-85675044D01*
X95823394Y-85614536D01*
X95948835Y-85518282D01*
X96045089Y-85392841D01*
X96105597Y-85246762D01*
X96126235Y-85090000D01*
X96125333Y-85083152D01*
X96105597Y-84933241D01*
X96105597Y-84933238D01*
X96045090Y-84787161D01*
X96045090Y-84787160D01*
X95948839Y-84661723D01*
X95948838Y-84661722D01*
X95948835Y-84661718D01*
X95948830Y-84661714D01*
X95948829Y-84661713D01*
X95823391Y-84565462D01*
X95677319Y-84504957D01*
X95677311Y-84504955D01*
X95520554Y-84484318D01*
X95520552Y-84484318D01*
X95363794Y-84504955D01*
X95363786Y-84504957D01*
X95217714Y-84565462D01*
X95217713Y-84565462D01*
X95092276Y-84661713D01*
X95092266Y-84661723D01*
X94996015Y-84787160D01*
X94996015Y-84787161D01*
X94935510Y-84933233D01*
X94935508Y-84933241D01*
X94914871Y-85089999D01*
X94914871Y-85090000D01*
X92665485Y-85090000D01*
X92664583Y-85083152D01*
X92644847Y-84933241D01*
X92644847Y-84933238D01*
X92584340Y-84787161D01*
X92584340Y-84787160D01*
X92488089Y-84661723D01*
X92488088Y-84661722D01*
X92488085Y-84661718D01*
X92488080Y-84661714D01*
X92488079Y-84661713D01*
X92362641Y-84565462D01*
X92216569Y-84504957D01*
X92216561Y-84504955D01*
X92059804Y-84484318D01*
X92059802Y-84484318D01*
X91903044Y-84504955D01*
X91903036Y-84504957D01*
X91756964Y-84565462D01*
X91756963Y-84565462D01*
X91631526Y-84661713D01*
X91631516Y-84661723D01*
X91535265Y-84787160D01*
X91535265Y-84787161D01*
X91474760Y-84933233D01*
X91474758Y-84933241D01*
X91454121Y-85089999D01*
X91454121Y-85090000D01*
X75123629Y-85090000D01*
X75124802Y-85086510D01*
X75127304Y-85079870D01*
X75287173Y-84697749D01*
X75290156Y-84691286D01*
X75305114Y-84661713D01*
X75477118Y-84321659D01*
X75480546Y-84315448D01*
X75693636Y-83960227D01*
X75697503Y-83954279D01*
X75935619Y-83615308D01*
X75939892Y-83609668D01*
X76201802Y-83288702D01*
X76206460Y-83283396D01*
X76359250Y-83121500D01*
X100645068Y-83121500D01*
X100665705Y-83278258D01*
X100665707Y-83278266D01*
X100726212Y-83424338D01*
X100726212Y-83424339D01*
X100726214Y-83424341D01*
X100822468Y-83549782D01*
X100947909Y-83646036D01*
X101093988Y-83706544D01*
X101211559Y-83722022D01*
X101250749Y-83727182D01*
X101250750Y-83727182D01*
X101250751Y-83727182D01*
X101282102Y-83723054D01*
X101407512Y-83706544D01*
X101553591Y-83646036D01*
X101679032Y-83549782D01*
X101775286Y-83424341D01*
X101835794Y-83278262D01*
X101856432Y-83121500D01*
X101835794Y-82964738D01*
X101775287Y-82818661D01*
X101775287Y-82818660D01*
X101679036Y-82693223D01*
X101679035Y-82693222D01*
X101679032Y-82693218D01*
X101679027Y-82693214D01*
X101679026Y-82693213D01*
X101553588Y-82596962D01*
X101407516Y-82536457D01*
X101407508Y-82536455D01*
X101250751Y-82515818D01*
X101250749Y-82515818D01*
X101093991Y-82536455D01*
X101093983Y-82536457D01*
X100947911Y-82596962D01*
X100947910Y-82596962D01*
X100822473Y-82693213D01*
X100822463Y-82693223D01*
X100726212Y-82818660D01*
X100726212Y-82818661D01*
X100665707Y-82964733D01*
X100665705Y-82964741D01*
X100645068Y-83121499D01*
X100645068Y-83121500D01*
X76359250Y-83121500D01*
X76492002Y-82980836D01*
X76494420Y-82978363D01*
X76669035Y-82806239D01*
X76994777Y-82435176D01*
X77292964Y-82041627D01*
X77562049Y-81627635D01*
X77800635Y-81195348D01*
X78007485Y-80747008D01*
X78181526Y-80284941D01*
X78321854Y-79811545D01*
X78427742Y-79329275D01*
X78498640Y-78840635D01*
X78534181Y-78348159D01*
X78534158Y-78101281D01*
X78534158Y-78035388D01*
X78534158Y-65531998D01*
X84039818Y-65531998D01*
X84060455Y-65688756D01*
X84060457Y-65688764D01*
X84120962Y-65834836D01*
X84120962Y-65834837D01*
X84217213Y-65960274D01*
X84217218Y-65960280D01*
X84342659Y-66056534D01*
X84342660Y-66056534D01*
X84342661Y-66056535D01*
X84342666Y-66056537D01*
X84488738Y-66117042D01*
X84606309Y-66132520D01*
X84645499Y-66137680D01*
X84645500Y-66137680D01*
X84645501Y-66137680D01*
X84676852Y-66133552D01*
X84802262Y-66117042D01*
X84948341Y-66056534D01*
X85073782Y-65960280D01*
X85170036Y-65834839D01*
X85230544Y-65688760D01*
X85251182Y-65532000D01*
X89500820Y-65532000D01*
X89521457Y-65688758D01*
X89521459Y-65688766D01*
X89581964Y-65834838D01*
X89581964Y-65834839D01*
X89678215Y-65960276D01*
X89678220Y-65960282D01*
X89803661Y-66056536D01*
X89949740Y-66117044D01*
X90067311Y-66132522D01*
X90106501Y-66137682D01*
X90106502Y-66137682D01*
X90106503Y-66137682D01*
X90137854Y-66133554D01*
X90263264Y-66117044D01*
X90409343Y-66056536D01*
X90534784Y-65960282D01*
X90631038Y-65834841D01*
X90691546Y-65688762D01*
X90712184Y-65532000D01*
X90691546Y-65375238D01*
X90631039Y-65229161D01*
X90631039Y-65229160D01*
X90534788Y-65103723D01*
X90534786Y-65103721D01*
X90534784Y-65103718D01*
X90534779Y-65103714D01*
X90534778Y-65103713D01*
X90409340Y-65007462D01*
X90263268Y-64946957D01*
X90263260Y-64946955D01*
X90106503Y-64926318D01*
X90106501Y-64926318D01*
X89949743Y-64946955D01*
X89949735Y-64946957D01*
X89803663Y-65007462D01*
X89803662Y-65007462D01*
X89678225Y-65103713D01*
X89678215Y-65103723D01*
X89581964Y-65229160D01*
X89581964Y-65229161D01*
X89521459Y-65375233D01*
X89521457Y-65375241D01*
X89500820Y-65531999D01*
X89500820Y-65532000D01*
X85251182Y-65532000D01*
X85251182Y-65531998D01*
X85230544Y-65375236D01*
X85170037Y-65229159D01*
X85170037Y-65229158D01*
X85073786Y-65103721D01*
X85073785Y-65103720D01*
X85073782Y-65103716D01*
X85073777Y-65103712D01*
X85073776Y-65103711D01*
X85002604Y-65049099D01*
X84948341Y-65007462D01*
X84948340Y-65007461D01*
X84948338Y-65007460D01*
X84802266Y-64946955D01*
X84802258Y-64946953D01*
X84645501Y-64926316D01*
X84645499Y-64926316D01*
X84488741Y-64946953D01*
X84488733Y-64946955D01*
X84342661Y-65007460D01*
X84342660Y-65007460D01*
X84217223Y-65103711D01*
X84217213Y-65103721D01*
X84120962Y-65229158D01*
X84120962Y-65229159D01*
X84060457Y-65375231D01*
X84060455Y-65375239D01*
X84039818Y-65531997D01*
X84039818Y-65531998D01*
X78534158Y-65531998D01*
X78534158Y-64260717D01*
X102715068Y-64260717D01*
X102735705Y-64417475D01*
X102735707Y-64417483D01*
X102796212Y-64563555D01*
X102796212Y-64563556D01*
X102796214Y-64563558D01*
X102892468Y-64688999D01*
X103017909Y-64785253D01*
X103163988Y-64845761D01*
X103281559Y-64861239D01*
X103320749Y-64866399D01*
X103320750Y-64866399D01*
X103320751Y-64866399D01*
X103352102Y-64862271D01*
X103477512Y-64845761D01*
X103623591Y-64785253D01*
X103749032Y-64688999D01*
X103845286Y-64563558D01*
X103905794Y-64417479D01*
X103926432Y-64260717D01*
X103905794Y-64103955D01*
X103845287Y-63957878D01*
X103845287Y-63957877D01*
X103749036Y-63832440D01*
X103749035Y-63832439D01*
X103749032Y-63832435D01*
X103749027Y-63832431D01*
X103749026Y-63832430D01*
X103623588Y-63736179D01*
X103477516Y-63675674D01*
X103477508Y-63675672D01*
X103320751Y-63655035D01*
X103320749Y-63655035D01*
X103163991Y-63675672D01*
X103163983Y-63675674D01*
X103017911Y-63736179D01*
X103017910Y-63736179D01*
X102892473Y-63832430D01*
X102892463Y-63832440D01*
X102796212Y-63957877D01*
X102796212Y-63957878D01*
X102735707Y-64103950D01*
X102735705Y-64103958D01*
X102715068Y-64260716D01*
X102715068Y-64260717D01*
X78534158Y-64260717D01*
X78534158Y-62611000D01*
X99787818Y-62611000D01*
X99808455Y-62767758D01*
X99808457Y-62767766D01*
X99868962Y-62913838D01*
X99868962Y-62913839D01*
X99868964Y-62913841D01*
X99965218Y-63039282D01*
X100090659Y-63135536D01*
X100236738Y-63196044D01*
X100354309Y-63211522D01*
X100393499Y-63216682D01*
X100393500Y-63216682D01*
X100393501Y-63216682D01*
X100424852Y-63212554D01*
X100550262Y-63196044D01*
X100696341Y-63135536D01*
X100821782Y-63039282D01*
X100918036Y-62913841D01*
X100978544Y-62767762D01*
X100999182Y-62611000D01*
X100978544Y-62454238D01*
X100918037Y-62308161D01*
X100918037Y-62308160D01*
X100821786Y-62182723D01*
X100821785Y-62182722D01*
X100821782Y-62182718D01*
X100821777Y-62182714D01*
X100821776Y-62182713D01*
X100696338Y-62086462D01*
X100550266Y-62025957D01*
X100550258Y-62025955D01*
X100393501Y-62005318D01*
X100393499Y-62005318D01*
X100236741Y-62025955D01*
X100236733Y-62025957D01*
X100090661Y-62086462D01*
X100090660Y-62086462D01*
X99965223Y-62182713D01*
X99965213Y-62182723D01*
X99868962Y-62308160D01*
X99868962Y-62308161D01*
X99808457Y-62454233D01*
X99808455Y-62454241D01*
X99787818Y-62610999D01*
X99787818Y-62611000D01*
X78534158Y-62611000D01*
X78534158Y-59563000D01*
X82245821Y-59563000D01*
X82266458Y-59719758D01*
X82266460Y-59719766D01*
X82326965Y-59865838D01*
X82326965Y-59865839D01*
X82406694Y-59969744D01*
X82423221Y-59991282D01*
X82548662Y-60087536D01*
X82694741Y-60148044D01*
X82812312Y-60163522D01*
X82851502Y-60168682D01*
X82851503Y-60168682D01*
X82851504Y-60168682D01*
X82882855Y-60164554D01*
X82932639Y-60158000D01*
X103488540Y-60158000D01*
X103508327Y-60346261D01*
X103566819Y-60526279D01*
X103566825Y-60526293D01*
X103642015Y-60656525D01*
X103661467Y-60690216D01*
X103788129Y-60830888D01*
X103941270Y-60942151D01*
X104114197Y-61019144D01*
X104299354Y-61058500D01*
X104299357Y-61058500D01*
X104488643Y-61058500D01*
X104488646Y-61058500D01*
X104673803Y-61019144D01*
X104846730Y-60942151D01*
X104999871Y-60830888D01*
X105126533Y-60690216D01*
X105221179Y-60526284D01*
X105279674Y-60346256D01*
X105299460Y-60158000D01*
X105279674Y-59969744D01*
X105221179Y-59789716D01*
X105221176Y-59789711D01*
X105221174Y-59789706D01*
X105146681Y-59660682D01*
X105126533Y-59625784D01*
X104999871Y-59485112D01*
X104997352Y-59483282D01*
X104846731Y-59373850D01*
X104846732Y-59373850D01*
X104846730Y-59373849D01*
X104846725Y-59373847D01*
X104846722Y-59373845D01*
X104673805Y-59296857D01*
X104673803Y-59296856D01*
X104673800Y-59296855D01*
X104673799Y-59296855D01*
X104638580Y-59289369D01*
X104488646Y-59257500D01*
X104299354Y-59257500D01*
X104181289Y-59282595D01*
X104114200Y-59296855D01*
X104114194Y-59296857D01*
X103941277Y-59373845D01*
X103941268Y-59373850D01*
X103788129Y-59485111D01*
X103788124Y-59485116D01*
X103661469Y-59625781D01*
X103661465Y-59625787D01*
X103566825Y-59789706D01*
X103566819Y-59789720D01*
X103508327Y-59969738D01*
X103508326Y-59969742D01*
X103508326Y-59969744D01*
X103506062Y-59991286D01*
X103488540Y-60158000D01*
X82932639Y-60158000D01*
X83008265Y-60148044D01*
X83154344Y-60087536D01*
X83279785Y-59991282D01*
X83376039Y-59865841D01*
X83436547Y-59719762D01*
X83457185Y-59563000D01*
X83436547Y-59406238D01*
X83436545Y-59406233D01*
X83376040Y-59260161D01*
X83376040Y-59260160D01*
X83279789Y-59134723D01*
X83279788Y-59134722D01*
X83279785Y-59134718D01*
X83279780Y-59134714D01*
X83279779Y-59134713D01*
X83154341Y-59038462D01*
X83008269Y-58977957D01*
X83008261Y-58977955D01*
X82851504Y-58957318D01*
X82851502Y-58957318D01*
X82694744Y-58977955D01*
X82694736Y-58977957D01*
X82548664Y-59038462D01*
X82548663Y-59038462D01*
X82423226Y-59134713D01*
X82423216Y-59134723D01*
X82326965Y-59260160D01*
X82326965Y-59260161D01*
X82266460Y-59406233D01*
X82266458Y-59406241D01*
X82245821Y-59562999D01*
X82245821Y-59563000D01*
X78534158Y-59563000D01*
X78534158Y-57850000D01*
X85976568Y-57850000D01*
X85997205Y-58006758D01*
X85997207Y-58006766D01*
X86057712Y-58152838D01*
X86057712Y-58152839D01*
X86114153Y-58226394D01*
X86153968Y-58278282D01*
X86279409Y-58374536D01*
X86425488Y-58435044D01*
X86543059Y-58450522D01*
X86582249Y-58455682D01*
X86582250Y-58455682D01*
X86582251Y-58455682D01*
X86613602Y-58451554D01*
X86739012Y-58435044D01*
X86885091Y-58374536D01*
X87010532Y-58278282D01*
X87050348Y-58226392D01*
X87100770Y-58191737D01*
X87161935Y-58193338D01*
X87207429Y-58226392D01*
X87247246Y-58278282D01*
X87372687Y-58374536D01*
X87518766Y-58435044D01*
X87636337Y-58450522D01*
X87675527Y-58455682D01*
X87675528Y-58455682D01*
X87675529Y-58455682D01*
X87706880Y-58451554D01*
X87832290Y-58435044D01*
X87978369Y-58374536D01*
X88103810Y-58278282D01*
X88163418Y-58200599D01*
X89295886Y-58200599D01*
X89316523Y-58357357D01*
X89316525Y-58357365D01*
X89377030Y-58503437D01*
X89377030Y-58503438D01*
X89471622Y-58626713D01*
X89473286Y-58628881D01*
X89598727Y-58725135D01*
X89598728Y-58725135D01*
X89598729Y-58725136D01*
X89663971Y-58752160D01*
X89744806Y-58785643D01*
X89862377Y-58801121D01*
X89901567Y-58806281D01*
X89901568Y-58806281D01*
X89901569Y-58806281D01*
X89932920Y-58802153D01*
X90058330Y-58785643D01*
X90204409Y-58725135D01*
X90297448Y-58653744D01*
X101967074Y-58653744D01*
X101987711Y-58810502D01*
X101987713Y-58810510D01*
X102048218Y-58956582D01*
X102048218Y-58956583D01*
X102123736Y-59055000D01*
X102144474Y-59082026D01*
X102269915Y-59178280D01*
X102269916Y-59178280D01*
X102269917Y-59178281D01*
X102350757Y-59211766D01*
X102415994Y-59238788D01*
X102533565Y-59254266D01*
X102572755Y-59259426D01*
X102572756Y-59259426D01*
X102572757Y-59259426D01*
X102604108Y-59255298D01*
X102729518Y-59238788D01*
X102875597Y-59178280D01*
X103001038Y-59082026D01*
X103021776Y-59055000D01*
X105661568Y-59055000D01*
X105682205Y-59211758D01*
X105682207Y-59211766D01*
X105742712Y-59357838D01*
X105742712Y-59357839D01*
X105838963Y-59483276D01*
X105838968Y-59483282D01*
X105838972Y-59483285D01*
X105838973Y-59483286D01*
X105841353Y-59485112D01*
X105964409Y-59579536D01*
X105964410Y-59579536D01*
X105964411Y-59579537D01*
X106110483Y-59640042D01*
X106110488Y-59640044D01*
X106228059Y-59655522D01*
X106267249Y-59660682D01*
X106267250Y-59660682D01*
X106267251Y-59660682D01*
X106298602Y-59656554D01*
X106424012Y-59640044D01*
X106570091Y-59579536D01*
X106695532Y-59483282D01*
X106791786Y-59357841D01*
X106852294Y-59211762D01*
X106872932Y-59055000D01*
X106852294Y-58898238D01*
X106791787Y-58752161D01*
X106791787Y-58752160D01*
X106695536Y-58626723D01*
X106695535Y-58626722D01*
X106695532Y-58626718D01*
X106695527Y-58626714D01*
X106695526Y-58626713D01*
X106570088Y-58530462D01*
X106424016Y-58469957D01*
X106424008Y-58469955D01*
X106267251Y-58449318D01*
X106267249Y-58449318D01*
X106110491Y-58469955D01*
X106110483Y-58469957D01*
X105964411Y-58530462D01*
X105964410Y-58530462D01*
X105838973Y-58626713D01*
X105838963Y-58626723D01*
X105742712Y-58752160D01*
X105742712Y-58752161D01*
X105682207Y-58898233D01*
X105682205Y-58898241D01*
X105661568Y-59054999D01*
X105661568Y-59055000D01*
X103021776Y-59055000D01*
X103097292Y-58956585D01*
X103157800Y-58810506D01*
X103178438Y-58653744D01*
X103157800Y-58496982D01*
X103146606Y-58469957D01*
X103097293Y-58350905D01*
X103097293Y-58350904D01*
X103001042Y-58225467D01*
X103001041Y-58225466D01*
X103001038Y-58225462D01*
X103001033Y-58225458D01*
X103001032Y-58225457D01*
X102906396Y-58152841D01*
X102875597Y-58129208D01*
X102875596Y-58129207D01*
X102875594Y-58129206D01*
X102729522Y-58068701D01*
X102729514Y-58068699D01*
X102572757Y-58048062D01*
X102572755Y-58048062D01*
X102415997Y-58068699D01*
X102415989Y-58068701D01*
X102269917Y-58129206D01*
X102269916Y-58129206D01*
X102144479Y-58225457D01*
X102144469Y-58225467D01*
X102048218Y-58350904D01*
X102048218Y-58350905D01*
X101987713Y-58496977D01*
X101987711Y-58496985D01*
X101967074Y-58653743D01*
X101967074Y-58653744D01*
X90297448Y-58653744D01*
X90329850Y-58628881D01*
X90426104Y-58503440D01*
X90486612Y-58357361D01*
X90507250Y-58200599D01*
X90486612Y-58043837D01*
X90426105Y-57897760D01*
X90426105Y-57897759D01*
X90329854Y-57772322D01*
X90329853Y-57772321D01*
X90329850Y-57772317D01*
X90329845Y-57772313D01*
X90329844Y-57772312D01*
X90204406Y-57676061D01*
X90058334Y-57615556D01*
X90058326Y-57615554D01*
X89901569Y-57594917D01*
X89901567Y-57594917D01*
X89744809Y-57615554D01*
X89744801Y-57615556D01*
X89598729Y-57676061D01*
X89598728Y-57676061D01*
X89473291Y-57772312D01*
X89473281Y-57772322D01*
X89377030Y-57897759D01*
X89377030Y-57897760D01*
X89316525Y-58043832D01*
X89316523Y-58043840D01*
X89295886Y-58200598D01*
X89295886Y-58200599D01*
X88163418Y-58200599D01*
X88200064Y-58152841D01*
X88260572Y-58006762D01*
X88281210Y-57850000D01*
X88260572Y-57693238D01*
X88203848Y-57556294D01*
X88200065Y-57547161D01*
X88200065Y-57547160D01*
X88103814Y-57421723D01*
X88103813Y-57421722D01*
X88103810Y-57421718D01*
X88103805Y-57421714D01*
X88103804Y-57421713D01*
X87978366Y-57325462D01*
X87832294Y-57264957D01*
X87832286Y-57264955D01*
X87675529Y-57244318D01*
X87675527Y-57244318D01*
X87518769Y-57264955D01*
X87518761Y-57264957D01*
X87372689Y-57325462D01*
X87372688Y-57325462D01*
X87247251Y-57421713D01*
X87247241Y-57421723D01*
X87207431Y-57473606D01*
X87157007Y-57508262D01*
X87095842Y-57506661D01*
X87050347Y-57473606D01*
X87010536Y-57421723D01*
X87010535Y-57421722D01*
X87010532Y-57421718D01*
X87010527Y-57421714D01*
X87010526Y-57421713D01*
X86885088Y-57325462D01*
X86739016Y-57264957D01*
X86739008Y-57264955D01*
X86582251Y-57244318D01*
X86582249Y-57244318D01*
X86425491Y-57264955D01*
X86425483Y-57264957D01*
X86279411Y-57325462D01*
X86279410Y-57325462D01*
X86153973Y-57421713D01*
X86153963Y-57421723D01*
X86057712Y-57547160D01*
X86057712Y-57547161D01*
X85997207Y-57693233D01*
X85997205Y-57693241D01*
X85976568Y-57849999D01*
X85976568Y-57850000D01*
X78534158Y-57850000D01*
X78534158Y-56068000D01*
X80737818Y-56068000D01*
X80758455Y-56224758D01*
X80758457Y-56224766D01*
X80818962Y-56370838D01*
X80818962Y-56370839D01*
X80915213Y-56496276D01*
X80915218Y-56496282D01*
X81040659Y-56592536D01*
X81040660Y-56592536D01*
X81040661Y-56592537D01*
X81186733Y-56653042D01*
X81186738Y-56653044D01*
X81304309Y-56668522D01*
X81343499Y-56673682D01*
X81343500Y-56673682D01*
X81343501Y-56673682D01*
X81374852Y-56669554D01*
X81500262Y-56653044D01*
X81646341Y-56592536D01*
X81771782Y-56496282D01*
X81868036Y-56370841D01*
X81874080Y-56356250D01*
X92580568Y-56356250D01*
X92601205Y-56513008D01*
X92601207Y-56513016D01*
X92661712Y-56659088D01*
X92661712Y-56659089D01*
X92757963Y-56784526D01*
X92757968Y-56784532D01*
X92883409Y-56880786D01*
X92883410Y-56880786D01*
X92883411Y-56880787D01*
X93031103Y-56941963D01*
X93077629Y-56981699D01*
X93091913Y-57041194D01*
X93068498Y-57097722D01*
X93031106Y-57124890D01*
X93010411Y-57133462D01*
X93010410Y-57133462D01*
X92884973Y-57229713D01*
X92884963Y-57229723D01*
X92788712Y-57355160D01*
X92788712Y-57355161D01*
X92728207Y-57501233D01*
X92728205Y-57501241D01*
X92707568Y-57657999D01*
X92707568Y-57658000D01*
X92728205Y-57814758D01*
X92728207Y-57814766D01*
X92788712Y-57960838D01*
X92788712Y-57960839D01*
X92880785Y-58080831D01*
X92884968Y-58086282D01*
X93010409Y-58182536D01*
X93156488Y-58243044D01*
X93274059Y-58258522D01*
X93313249Y-58263682D01*
X93313250Y-58263682D01*
X93313251Y-58263682D01*
X93344602Y-58259554D01*
X93470012Y-58243044D01*
X93616091Y-58182536D01*
X93741532Y-58086282D01*
X93837786Y-57960841D01*
X93898294Y-57814762D01*
X93918932Y-57658000D01*
X93905542Y-57556294D01*
X97114362Y-57556294D01*
X97134999Y-57713052D01*
X97135001Y-57713060D01*
X97195506Y-57859132D01*
X97195506Y-57859133D01*
X97291757Y-57984570D01*
X97291762Y-57984576D01*
X97417203Y-58080830D01*
X97417204Y-58080830D01*
X97417205Y-58080831D01*
X97563277Y-58141336D01*
X97563282Y-58141338D01*
X97680853Y-58156816D01*
X97720043Y-58161976D01*
X97720044Y-58161976D01*
X97720045Y-58161976D01*
X97751396Y-58157848D01*
X97876806Y-58141338D01*
X98022885Y-58080830D01*
X98148326Y-57984576D01*
X98244580Y-57859135D01*
X98305088Y-57713056D01*
X98312336Y-57658000D01*
X103488540Y-57658000D01*
X103505016Y-57814766D01*
X103508327Y-57846261D01*
X103566819Y-58026279D01*
X103566825Y-58026293D01*
X103609080Y-58099479D01*
X103661467Y-58190216D01*
X103661469Y-58190218D01*
X103740758Y-58278278D01*
X103788129Y-58330888D01*
X103941270Y-58442151D01*
X104114197Y-58519144D01*
X104299354Y-58558500D01*
X104299357Y-58558500D01*
X104488643Y-58558500D01*
X104488646Y-58558500D01*
X104673803Y-58519144D01*
X104846730Y-58442151D01*
X104999871Y-58330888D01*
X105126533Y-58190216D01*
X105221179Y-58026284D01*
X105279674Y-57846256D01*
X105299460Y-57658000D01*
X105279674Y-57469744D01*
X105221179Y-57289716D01*
X105221176Y-57289711D01*
X105221174Y-57289706D01*
X105172551Y-57205490D01*
X105126533Y-57125784D01*
X105042584Y-57032549D01*
X104999875Y-56985116D01*
X104999870Y-56985111D01*
X104856278Y-56880786D01*
X104846730Y-56873849D01*
X104846725Y-56873847D01*
X104846722Y-56873845D01*
X104673805Y-56796857D01*
X104673803Y-56796856D01*
X104673800Y-56796855D01*
X104673799Y-56796855D01*
X104615841Y-56784536D01*
X104488646Y-56757500D01*
X104299354Y-56757500D01*
X104181289Y-56782595D01*
X104114200Y-56796855D01*
X104114194Y-56796857D01*
X103941277Y-56873845D01*
X103941268Y-56873850D01*
X103788129Y-56985111D01*
X103788124Y-56985116D01*
X103661469Y-57125781D01*
X103661465Y-57125787D01*
X103566825Y-57289706D01*
X103566819Y-57289720D01*
X103508327Y-57469738D01*
X103508326Y-57469742D01*
X103508326Y-57469744D01*
X103488540Y-57658000D01*
X98312336Y-57658000D01*
X98325726Y-57556294D01*
X98324523Y-57547160D01*
X98320566Y-57517103D01*
X98305088Y-57399532D01*
X98286709Y-57355161D01*
X98244581Y-57253455D01*
X98244581Y-57253454D01*
X98148330Y-57128017D01*
X98148329Y-57128016D01*
X98148326Y-57128012D01*
X98148321Y-57128008D01*
X98148320Y-57128007D01*
X98029122Y-57036544D01*
X98022885Y-57031758D01*
X98022884Y-57031757D01*
X98022882Y-57031756D01*
X97876810Y-56971251D01*
X97876802Y-56971249D01*
X97720045Y-56950612D01*
X97720043Y-56950612D01*
X97563285Y-56971249D01*
X97563277Y-56971251D01*
X97417205Y-57031756D01*
X97417204Y-57031756D01*
X97291767Y-57128007D01*
X97291757Y-57128017D01*
X97195506Y-57253454D01*
X97195506Y-57253455D01*
X97135001Y-57399527D01*
X97134999Y-57399535D01*
X97114362Y-57556293D01*
X97114362Y-57556294D01*
X93905542Y-57556294D01*
X93898294Y-57501238D01*
X93898292Y-57501233D01*
X93837787Y-57355161D01*
X93837787Y-57355160D01*
X93741536Y-57229723D01*
X93741535Y-57229722D01*
X93741532Y-57229718D01*
X93741527Y-57229714D01*
X93741526Y-57229713D01*
X93688147Y-57188754D01*
X93616091Y-57133464D01*
X93616089Y-57133463D01*
X93468395Y-57072286D01*
X93421870Y-57032549D01*
X93407586Y-56973054D01*
X93431001Y-56916527D01*
X93468396Y-56889357D01*
X93489091Y-56880786D01*
X93614532Y-56784532D01*
X93710786Y-56659091D01*
X93771294Y-56513012D01*
X93787752Y-56388000D01*
X96136568Y-56388000D01*
X96157205Y-56544758D01*
X96157207Y-56544766D01*
X96217712Y-56690838D01*
X96217712Y-56690839D01*
X96313963Y-56816276D01*
X96313968Y-56816282D01*
X96439409Y-56912536D01*
X96585488Y-56973044D01*
X96703059Y-56988522D01*
X96742249Y-56993682D01*
X96742250Y-56993682D01*
X96742251Y-56993682D01*
X96773602Y-56989554D01*
X96899012Y-56973044D01*
X97045091Y-56912536D01*
X97170532Y-56816282D01*
X97266786Y-56690841D01*
X97327294Y-56544762D01*
X97339572Y-56451500D01*
X101978568Y-56451500D01*
X101999205Y-56608258D01*
X101999207Y-56608266D01*
X102059712Y-56754338D01*
X102059712Y-56754339D01*
X102107246Y-56816286D01*
X102155968Y-56879782D01*
X102281409Y-56976036D01*
X102281410Y-56976036D01*
X102281411Y-56976037D01*
X102417843Y-57032549D01*
X102427488Y-57036544D01*
X102545059Y-57052022D01*
X102584249Y-57057182D01*
X102584250Y-57057182D01*
X102584251Y-57057182D01*
X102621196Y-57052318D01*
X102741012Y-57036544D01*
X102887091Y-56976036D01*
X103012532Y-56879782D01*
X103108786Y-56754341D01*
X103169294Y-56608262D01*
X103189932Y-56451500D01*
X103169294Y-56294738D01*
X103142993Y-56231241D01*
X103108787Y-56148661D01*
X103108787Y-56148660D01*
X103012536Y-56023223D01*
X103012535Y-56023222D01*
X103012532Y-56023218D01*
X103012527Y-56023214D01*
X103012526Y-56023213D01*
X102906883Y-55942151D01*
X102887091Y-55926964D01*
X102887090Y-55926963D01*
X102887088Y-55926962D01*
X102741016Y-55866457D01*
X102741008Y-55866455D01*
X102584251Y-55845818D01*
X102584249Y-55845818D01*
X102427491Y-55866455D01*
X102427483Y-55866457D01*
X102281411Y-55926962D01*
X102281410Y-55926962D01*
X102155973Y-56023213D01*
X102155963Y-56023223D01*
X102059712Y-56148660D01*
X102059712Y-56148661D01*
X101999207Y-56294733D01*
X101999205Y-56294741D01*
X101978568Y-56451499D01*
X101978568Y-56451500D01*
X97339572Y-56451500D01*
X97347932Y-56388000D01*
X97327294Y-56231238D01*
X97314141Y-56199483D01*
X97266787Y-56085161D01*
X97266787Y-56085160D01*
X97170536Y-55959723D01*
X97170535Y-55959722D01*
X97170532Y-55959718D01*
X97170527Y-55959714D01*
X97170526Y-55959713D01*
X97099354Y-55905101D01*
X97045091Y-55863464D01*
X97045090Y-55863463D01*
X97045088Y-55863462D01*
X96899016Y-55802957D01*
X96899008Y-55802955D01*
X96742251Y-55782318D01*
X96742249Y-55782318D01*
X96585491Y-55802955D01*
X96585483Y-55802957D01*
X96439411Y-55863462D01*
X96439410Y-55863462D01*
X96313973Y-55959713D01*
X96313963Y-55959723D01*
X96217712Y-56085160D01*
X96217712Y-56085161D01*
X96157207Y-56231233D01*
X96157205Y-56231241D01*
X96136568Y-56387999D01*
X96136568Y-56388000D01*
X93787752Y-56388000D01*
X93791932Y-56356250D01*
X93771294Y-56199488D01*
X93716830Y-56068000D01*
X93710787Y-56053411D01*
X93710787Y-56053410D01*
X93614536Y-55927973D01*
X93614535Y-55927972D01*
X93614532Y-55927968D01*
X93614527Y-55927964D01*
X93614526Y-55927963D01*
X93534366Y-55866455D01*
X93489091Y-55831714D01*
X93489090Y-55831713D01*
X93489088Y-55831712D01*
X93343016Y-55771207D01*
X93343008Y-55771205D01*
X93186251Y-55750568D01*
X93186249Y-55750568D01*
X93029491Y-55771205D01*
X93029483Y-55771207D01*
X92883411Y-55831712D01*
X92883410Y-55831712D01*
X92757973Y-55927963D01*
X92757963Y-55927973D01*
X92661712Y-56053410D01*
X92661712Y-56053411D01*
X92601207Y-56199483D01*
X92601205Y-56199491D01*
X92580568Y-56356249D01*
X92580568Y-56356250D01*
X81874080Y-56356250D01*
X81928544Y-56224762D01*
X81949182Y-56068000D01*
X81928544Y-55911238D01*
X81895260Y-55830883D01*
X81868037Y-55765161D01*
X81868037Y-55765160D01*
X81771786Y-55639723D01*
X81771785Y-55639722D01*
X81771782Y-55639718D01*
X81771777Y-55639714D01*
X81771776Y-55639713D01*
X81646338Y-55543462D01*
X81500266Y-55482957D01*
X81500258Y-55482955D01*
X81343501Y-55462318D01*
X81343499Y-55462318D01*
X81186741Y-55482955D01*
X81186733Y-55482957D01*
X81040661Y-55543462D01*
X81040660Y-55543462D01*
X80915223Y-55639713D01*
X80915213Y-55639723D01*
X80818962Y-55765160D01*
X80818962Y-55765161D01*
X80758457Y-55911233D01*
X80758455Y-55911241D01*
X80737818Y-56067999D01*
X80737818Y-56068000D01*
X78534158Y-56068000D01*
X78534158Y-55158000D01*
X103488540Y-55158000D01*
X103508327Y-55346261D01*
X103566819Y-55526279D01*
X103566825Y-55526293D01*
X103632309Y-55639713D01*
X103661467Y-55690216D01*
X103661469Y-55690218D01*
X103762979Y-55802957D01*
X103788129Y-55830888D01*
X103941270Y-55942151D01*
X104114197Y-56019144D01*
X104299354Y-56058500D01*
X104299357Y-56058500D01*
X104488643Y-56058500D01*
X104488646Y-56058500D01*
X104673803Y-56019144D01*
X104846730Y-55942151D01*
X104999871Y-55830888D01*
X105126533Y-55690216D01*
X105221179Y-55526284D01*
X105279674Y-55346256D01*
X105299460Y-55158000D01*
X105279674Y-54969744D01*
X105221179Y-54789716D01*
X105221176Y-54789711D01*
X105221174Y-54789706D01*
X105172551Y-54705490D01*
X105126533Y-54625784D01*
X104999871Y-54485112D01*
X104846730Y-54373849D01*
X104846725Y-54373847D01*
X104846722Y-54373845D01*
X104673805Y-54296857D01*
X104673803Y-54296856D01*
X104673800Y-54296855D01*
X104673799Y-54296855D01*
X104638580Y-54289369D01*
X104488646Y-54257500D01*
X104299354Y-54257500D01*
X104181289Y-54282595D01*
X104114200Y-54296855D01*
X104114194Y-54296857D01*
X103941277Y-54373845D01*
X103941268Y-54373850D01*
X103788129Y-54485111D01*
X103788124Y-54485116D01*
X103661469Y-54625781D01*
X103661465Y-54625787D01*
X103566825Y-54789706D01*
X103566819Y-54789720D01*
X103508327Y-54969738D01*
X103488540Y-55158000D01*
X78534158Y-55158000D01*
X78534158Y-53049747D01*
X85690818Y-53049747D01*
X85711455Y-53206505D01*
X85711457Y-53206513D01*
X85771962Y-53352585D01*
X85771962Y-53352586D01*
X85771964Y-53352588D01*
X85868218Y-53478029D01*
X85993659Y-53574283D01*
X86139738Y-53634791D01*
X86257309Y-53650269D01*
X86296499Y-53655429D01*
X86296500Y-53655429D01*
X86296501Y-53655429D01*
X86327852Y-53651301D01*
X86453262Y-53634791D01*
X86599341Y-53574283D01*
X86724782Y-53478029D01*
X86821036Y-53352588D01*
X86881544Y-53206509D01*
X86902182Y-53049747D01*
X86881544Y-52892985D01*
X86821037Y-52746908D01*
X86821037Y-52746907D01*
X86724786Y-52621470D01*
X86724785Y-52621469D01*
X86724782Y-52621465D01*
X86724777Y-52621461D01*
X86724776Y-52621460D01*
X86599338Y-52525209D01*
X86453266Y-52464704D01*
X86453258Y-52464702D01*
X86296501Y-52444065D01*
X86296499Y-52444065D01*
X86139741Y-52464702D01*
X86139733Y-52464704D01*
X85993661Y-52525209D01*
X85993660Y-52525209D01*
X85868223Y-52621460D01*
X85868213Y-52621470D01*
X85771962Y-52746907D01*
X85771962Y-52746908D01*
X85711457Y-52892980D01*
X85711455Y-52892988D01*
X85690818Y-53049746D01*
X85690818Y-53049747D01*
X78534158Y-53049747D01*
X78534158Y-51720750D01*
X101153068Y-51720750D01*
X101173705Y-51877508D01*
X101173707Y-51877516D01*
X101234212Y-52023588D01*
X101234212Y-52023589D01*
X101234214Y-52023591D01*
X101330468Y-52149032D01*
X101455909Y-52245286D01*
X101601988Y-52305794D01*
X101719559Y-52321272D01*
X101758749Y-52326432D01*
X101758750Y-52326432D01*
X101758751Y-52326432D01*
X101790102Y-52322304D01*
X101915512Y-52305794D01*
X102061591Y-52245286D01*
X102187032Y-52149032D01*
X102283286Y-52023591D01*
X102343794Y-51877512D01*
X102364432Y-51720750D01*
X102343794Y-51563988D01*
X102315857Y-51496542D01*
X102283287Y-51417911D01*
X102283287Y-51417910D01*
X102187036Y-51292473D01*
X102187035Y-51292472D01*
X102187032Y-51292468D01*
X102187027Y-51292464D01*
X102187026Y-51292463D01*
X102061588Y-51196212D01*
X101915516Y-51135707D01*
X101915508Y-51135705D01*
X101758751Y-51115068D01*
X101758749Y-51115068D01*
X101601991Y-51135705D01*
X101601983Y-51135707D01*
X101455911Y-51196212D01*
X101455910Y-51196212D01*
X101330473Y-51292463D01*
X101330463Y-51292473D01*
X101234212Y-51417910D01*
X101234212Y-51417911D01*
X101173707Y-51563983D01*
X101173705Y-51563991D01*
X101153068Y-51720749D01*
X101153068Y-51720750D01*
X78534158Y-51720750D01*
X78534158Y-50355500D01*
X86484568Y-50355500D01*
X86505205Y-50512258D01*
X86505207Y-50512266D01*
X86565712Y-50658338D01*
X86565712Y-50658339D01*
X86661963Y-50783776D01*
X86661968Y-50783782D01*
X86787409Y-50880036D01*
X86933488Y-50940544D01*
X87051059Y-50956022D01*
X87090249Y-50961182D01*
X87090250Y-50961182D01*
X87090251Y-50961182D01*
X87121602Y-50957054D01*
X87247012Y-50940544D01*
X87393091Y-50880036D01*
X87518532Y-50783782D01*
X87528529Y-50770753D01*
X105747435Y-50770753D01*
X105767632Y-50950010D01*
X105767633Y-50950014D01*
X105827211Y-51120275D01*
X105827211Y-51120276D01*
X105923181Y-51273011D01*
X105923184Y-51273015D01*
X106050738Y-51400569D01*
X106050740Y-51400570D01*
X106050741Y-51400571D01*
X106078337Y-51417911D01*
X106203478Y-51496542D01*
X106271657Y-51520399D01*
X106373738Y-51556119D01*
X106373742Y-51556120D01*
X106373745Y-51556121D01*
X106553000Y-51576318D01*
X106732255Y-51556121D01*
X106902522Y-51496542D01*
X107055262Y-51400569D01*
X107182816Y-51273015D01*
X107278789Y-51120275D01*
X107338368Y-50950008D01*
X107358565Y-50770753D01*
X107338368Y-50591498D01*
X107278789Y-50421231D01*
X107237487Y-50355500D01*
X107182818Y-50268494D01*
X107182817Y-50268493D01*
X107182816Y-50268491D01*
X107055262Y-50140937D01*
X107055259Y-50140935D01*
X107055258Y-50140934D01*
X106902523Y-50044964D01*
X106732261Y-49985386D01*
X106732257Y-49985385D01*
X106553000Y-49965188D01*
X106373742Y-49985385D01*
X106373738Y-49985386D01*
X106203477Y-50044964D01*
X106203476Y-50044964D01*
X106050741Y-50140934D01*
X105923181Y-50268494D01*
X105827211Y-50421229D01*
X105827211Y-50421230D01*
X105767633Y-50591491D01*
X105767632Y-50591495D01*
X105747435Y-50770753D01*
X87528529Y-50770753D01*
X87614786Y-50658341D01*
X87675294Y-50512262D01*
X87695932Y-50355500D01*
X87675294Y-50198738D01*
X87614787Y-50052661D01*
X87614787Y-50052660D01*
X87518536Y-49927223D01*
X87518535Y-49927222D01*
X87518532Y-49927218D01*
X87518527Y-49927214D01*
X87518526Y-49927213D01*
X87393088Y-49830962D01*
X87247016Y-49770457D01*
X87247008Y-49770455D01*
X87090251Y-49749818D01*
X87090249Y-49749818D01*
X86933491Y-49770455D01*
X86933483Y-49770457D01*
X86787411Y-49830962D01*
X86787410Y-49830962D01*
X86661973Y-49927213D01*
X86661963Y-49927223D01*
X86565712Y-50052660D01*
X86565712Y-50052661D01*
X86505207Y-50198733D01*
X86505205Y-50198741D01*
X86484568Y-50355499D01*
X86484568Y-50355500D01*
X78534158Y-50355500D01*
X78534158Y-48228250D01*
X91120068Y-48228250D01*
X91140705Y-48385008D01*
X91140707Y-48385016D01*
X91201212Y-48531088D01*
X91201212Y-48531089D01*
X91255290Y-48601565D01*
X91297468Y-48656532D01*
X91422909Y-48752786D01*
X91422910Y-48752786D01*
X91422911Y-48752787D01*
X91433360Y-48757115D01*
X91568988Y-48813294D01*
X91686559Y-48828772D01*
X91725749Y-48833932D01*
X91725750Y-48833932D01*
X91725751Y-48833932D01*
X91757102Y-48829804D01*
X91882512Y-48813294D01*
X92028591Y-48752786D01*
X92154032Y-48656532D01*
X92250286Y-48531091D01*
X92310794Y-48385012D01*
X92331432Y-48228250D01*
X92310794Y-48071488D01*
X92269480Y-47971747D01*
X105747435Y-47971747D01*
X105767632Y-48151004D01*
X105767633Y-48151008D01*
X105827211Y-48321269D01*
X105827211Y-48321270D01*
X105923181Y-48474005D01*
X105923184Y-48474009D01*
X106050738Y-48601563D01*
X106050740Y-48601564D01*
X106050741Y-48601565D01*
X106138220Y-48656532D01*
X106203478Y-48697536D01*
X106271657Y-48721393D01*
X106373738Y-48757113D01*
X106373742Y-48757114D01*
X106373745Y-48757115D01*
X106553000Y-48777312D01*
X106732255Y-48757115D01*
X106902522Y-48697536D01*
X107055262Y-48601563D01*
X107182816Y-48474009D01*
X107278789Y-48321269D01*
X107338368Y-48151002D01*
X107358565Y-47971747D01*
X107338368Y-47792492D01*
X107278789Y-47622225D01*
X107242069Y-47563786D01*
X107182818Y-47469488D01*
X107182817Y-47469487D01*
X107182816Y-47469485D01*
X107055262Y-47341931D01*
X107055259Y-47341929D01*
X107055258Y-47341928D01*
X106902523Y-47245958D01*
X106732261Y-47186380D01*
X106732257Y-47186379D01*
X106553000Y-47166182D01*
X106373742Y-47186379D01*
X106373738Y-47186380D01*
X106203477Y-47245958D01*
X106203476Y-47245958D01*
X106050741Y-47341928D01*
X105923181Y-47469488D01*
X105827211Y-47622223D01*
X105827211Y-47622224D01*
X105767633Y-47792485D01*
X105767632Y-47792489D01*
X105747435Y-47971747D01*
X92269480Y-47971747D01*
X92250287Y-47925411D01*
X92250287Y-47925410D01*
X92154036Y-47799973D01*
X92154035Y-47799972D01*
X92154032Y-47799968D01*
X92154027Y-47799964D01*
X92154026Y-47799963D01*
X92028588Y-47703712D01*
X91882516Y-47643207D01*
X91882508Y-47643205D01*
X91725751Y-47622568D01*
X91725749Y-47622568D01*
X91568991Y-47643205D01*
X91568983Y-47643207D01*
X91422911Y-47703712D01*
X91422910Y-47703712D01*
X91297473Y-47799963D01*
X91297463Y-47799973D01*
X91201212Y-47925410D01*
X91201212Y-47925411D01*
X91140707Y-48071483D01*
X91140705Y-48071491D01*
X91120068Y-48228249D01*
X91120068Y-48228250D01*
X78534158Y-48228250D01*
X78534158Y-47065526D01*
X85262079Y-47065526D01*
X85282716Y-47222284D01*
X85282718Y-47222292D01*
X85343223Y-47368364D01*
X85343223Y-47368365D01*
X85439474Y-47493802D01*
X85439479Y-47493808D01*
X85564920Y-47590062D01*
X85564921Y-47590062D01*
X85564922Y-47590063D01*
X85612538Y-47609786D01*
X85710999Y-47650570D01*
X85828570Y-47666048D01*
X85867760Y-47671208D01*
X85867761Y-47671208D01*
X85867762Y-47671208D01*
X85899113Y-47667080D01*
X86024523Y-47650570D01*
X86170602Y-47590062D01*
X86296043Y-47493808D01*
X86392297Y-47368367D01*
X86452805Y-47222288D01*
X86464231Y-47135500D01*
X88548312Y-47135500D01*
X88568949Y-47292258D01*
X88568951Y-47292266D01*
X88629456Y-47438338D01*
X88629456Y-47438339D01*
X88725707Y-47563776D01*
X88725712Y-47563782D01*
X88851153Y-47660036D01*
X88851154Y-47660036D01*
X88851155Y-47660037D01*
X88925742Y-47690932D01*
X88997232Y-47720544D01*
X89114803Y-47736022D01*
X89153993Y-47741182D01*
X89153994Y-47741182D01*
X89153995Y-47741182D01*
X89185346Y-47737054D01*
X89310756Y-47720544D01*
X89456835Y-47660036D01*
X89582276Y-47563782D01*
X89678530Y-47438341D01*
X89739038Y-47292262D01*
X89759676Y-47135500D01*
X89744701Y-47021750D01*
X95819068Y-47021750D01*
X95839705Y-47178508D01*
X95839707Y-47178516D01*
X95900212Y-47324588D01*
X95900212Y-47324589D01*
X95987497Y-47438341D01*
X95996468Y-47450032D01*
X96121909Y-47546286D01*
X96121910Y-47546286D01*
X96121911Y-47546287D01*
X96227593Y-47590062D01*
X96267988Y-47606794D01*
X96385184Y-47622223D01*
X96424749Y-47627432D01*
X96424750Y-47627432D01*
X96424751Y-47627432D01*
X96464316Y-47622223D01*
X96581512Y-47606794D01*
X96727591Y-47546286D01*
X96853032Y-47450032D01*
X96949286Y-47324591D01*
X97009794Y-47178512D01*
X97022072Y-47085250D01*
X101216568Y-47085250D01*
X101237205Y-47242008D01*
X101237207Y-47242016D01*
X101297712Y-47388088D01*
X101297712Y-47388089D01*
X101378833Y-47493808D01*
X101393968Y-47513532D01*
X101519409Y-47609786D01*
X101519410Y-47609786D01*
X101519411Y-47609787D01*
X101549437Y-47622224D01*
X101665488Y-47670294D01*
X101783059Y-47685772D01*
X101822249Y-47690932D01*
X101822250Y-47690932D01*
X101822251Y-47690932D01*
X101853602Y-47686804D01*
X101979012Y-47670294D01*
X102125091Y-47609786D01*
X102250532Y-47513532D01*
X102346786Y-47388091D01*
X102407294Y-47242012D01*
X102427932Y-47085250D01*
X102407294Y-46928488D01*
X102380993Y-46864991D01*
X102346787Y-46782411D01*
X102346787Y-46782410D01*
X102250536Y-46656973D01*
X102250535Y-46656972D01*
X102250532Y-46656968D01*
X102250527Y-46656964D01*
X102250526Y-46656963D01*
X102167770Y-46593463D01*
X102125091Y-46560714D01*
X102125090Y-46560713D01*
X102125088Y-46560712D01*
X101979016Y-46500207D01*
X101979008Y-46500205D01*
X101822251Y-46479568D01*
X101822249Y-46479568D01*
X101665491Y-46500205D01*
X101665483Y-46500207D01*
X101519411Y-46560712D01*
X101519410Y-46560712D01*
X101393973Y-46656963D01*
X101393963Y-46656973D01*
X101297712Y-46782410D01*
X101297712Y-46782411D01*
X101237207Y-46928483D01*
X101237205Y-46928491D01*
X101216568Y-47085249D01*
X101216568Y-47085250D01*
X97022072Y-47085250D01*
X97030432Y-47021750D01*
X97009794Y-46864988D01*
X96996403Y-46832659D01*
X96949287Y-46718911D01*
X96949287Y-46718910D01*
X96853036Y-46593473D01*
X96853035Y-46593472D01*
X96853032Y-46593468D01*
X96853027Y-46593464D01*
X96853026Y-46593463D01*
X96762403Y-46523926D01*
X96727591Y-46497214D01*
X96727590Y-46497213D01*
X96727588Y-46497212D01*
X96581516Y-46436707D01*
X96581508Y-46436705D01*
X96424751Y-46416068D01*
X96424749Y-46416068D01*
X96267991Y-46436705D01*
X96267983Y-46436707D01*
X96121911Y-46497212D01*
X96121910Y-46497212D01*
X95996473Y-46593463D01*
X95996463Y-46593473D01*
X95900212Y-46718910D01*
X95900212Y-46718911D01*
X95839707Y-46864983D01*
X95839705Y-46864991D01*
X95819068Y-47021749D01*
X95819068Y-47021750D01*
X89744701Y-47021750D01*
X89739038Y-46978738D01*
X89710052Y-46908759D01*
X89678531Y-46832661D01*
X89678531Y-46832660D01*
X89582280Y-46707223D01*
X89582279Y-46707222D01*
X89582276Y-46707218D01*
X89582271Y-46707214D01*
X89582270Y-46707213D01*
X89456832Y-46610962D01*
X89310760Y-46550457D01*
X89310752Y-46550455D01*
X89153995Y-46529818D01*
X89153993Y-46529818D01*
X88997235Y-46550455D01*
X88997227Y-46550457D01*
X88851155Y-46610962D01*
X88851154Y-46610962D01*
X88725717Y-46707213D01*
X88725707Y-46707223D01*
X88629456Y-46832660D01*
X88629456Y-46832661D01*
X88568951Y-46978733D01*
X88568949Y-46978741D01*
X88548312Y-47135499D01*
X88548312Y-47135500D01*
X86464231Y-47135500D01*
X86473443Y-47065526D01*
X86452805Y-46908764D01*
X86400468Y-46782411D01*
X86392298Y-46762687D01*
X86392298Y-46762686D01*
X86296047Y-46637249D01*
X86296046Y-46637248D01*
X86296043Y-46637244D01*
X86296038Y-46637240D01*
X86296037Y-46637239D01*
X86196304Y-46560712D01*
X86170602Y-46540990D01*
X86170601Y-46540989D01*
X86170599Y-46540988D01*
X86024527Y-46480483D01*
X86024519Y-46480481D01*
X85867762Y-46459844D01*
X85867760Y-46459844D01*
X85711002Y-46480481D01*
X85710994Y-46480483D01*
X85564922Y-46540988D01*
X85564921Y-46540988D01*
X85439484Y-46637239D01*
X85439474Y-46637249D01*
X85343223Y-46762686D01*
X85343223Y-46762687D01*
X85282718Y-46908759D01*
X85282716Y-46908767D01*
X85262079Y-47065525D01*
X85262079Y-47065526D01*
X78534158Y-47065526D01*
X78534158Y-45999390D01*
X110058639Y-45999390D01*
X110079276Y-46156148D01*
X110079278Y-46156156D01*
X110139783Y-46302228D01*
X110139783Y-46302229D01*
X110139785Y-46302231D01*
X110236039Y-46427672D01*
X110361480Y-46523926D01*
X110361481Y-46523926D01*
X110361482Y-46523927D01*
X110425529Y-46550456D01*
X110507559Y-46584434D01*
X110625130Y-46599912D01*
X110664320Y-46605072D01*
X110664321Y-46605072D01*
X110664322Y-46605072D01*
X110695673Y-46600944D01*
X110821083Y-46584434D01*
X110967162Y-46523926D01*
X111092603Y-46427672D01*
X111188857Y-46302231D01*
X111249365Y-46156152D01*
X111270003Y-45999390D01*
X111249365Y-45842628D01*
X111188858Y-45696551D01*
X111188858Y-45696550D01*
X111092607Y-45571113D01*
X111092606Y-45571112D01*
X111092603Y-45571108D01*
X111092598Y-45571104D01*
X111092597Y-45571103D01*
X110967159Y-45474852D01*
X110821087Y-45414347D01*
X110821079Y-45414345D01*
X110664322Y-45393708D01*
X110664320Y-45393708D01*
X110507562Y-45414345D01*
X110507554Y-45414347D01*
X110361482Y-45474852D01*
X110361481Y-45474852D01*
X110236044Y-45571103D01*
X110236034Y-45571113D01*
X110139783Y-45696550D01*
X110139783Y-45696551D01*
X110079278Y-45842623D01*
X110079276Y-45842631D01*
X110058639Y-45999389D01*
X110058639Y-45999390D01*
X78534158Y-45999390D01*
X78534158Y-44343987D01*
X104491950Y-44343987D01*
X104532387Y-44508044D01*
X104532388Y-44508047D01*
X104610913Y-44657664D01*
X104610913Y-44657665D01*
X104722959Y-44784138D01*
X104799615Y-44837050D01*
X104862021Y-44880125D01*
X105020011Y-44940043D01*
X105145665Y-44955300D01*
X105145670Y-44955300D01*
X105229830Y-44955300D01*
X105229835Y-44955300D01*
X105355489Y-44940043D01*
X105513479Y-44880125D01*
X105652539Y-44784139D01*
X105652540Y-44784138D01*
X105764586Y-44657665D01*
X105764586Y-44657664D01*
X105764585Y-44657664D01*
X105764588Y-44657662D01*
X105843112Y-44508046D01*
X105883550Y-44343987D01*
X106523950Y-44343987D01*
X106564387Y-44508044D01*
X106564388Y-44508047D01*
X106642913Y-44657664D01*
X106642913Y-44657665D01*
X106754959Y-44784138D01*
X106831615Y-44837050D01*
X106894021Y-44880125D01*
X107052011Y-44940043D01*
X107177665Y-44955300D01*
X107177670Y-44955300D01*
X107261830Y-44955300D01*
X107261835Y-44955300D01*
X107387489Y-44940043D01*
X107545479Y-44880125D01*
X107684539Y-44784139D01*
X107684540Y-44784138D01*
X107796586Y-44657665D01*
X107796586Y-44657664D01*
X107796585Y-44657664D01*
X107796588Y-44657662D01*
X107875112Y-44508046D01*
X107915550Y-44343985D01*
X107915550Y-44175015D01*
X107875112Y-44010954D01*
X107796588Y-43861338D01*
X107796586Y-43861336D01*
X107796586Y-43861335D01*
X107796586Y-43861334D01*
X107684540Y-43734861D01*
X107545479Y-43638875D01*
X107387489Y-43578957D01*
X107387487Y-43578956D01*
X107387486Y-43578956D01*
X107261846Y-43563701D01*
X107261840Y-43563700D01*
X107261835Y-43563700D01*
X107177665Y-43563700D01*
X107177660Y-43563700D01*
X107177653Y-43563701D01*
X107052013Y-43578956D01*
X107052011Y-43578957D01*
X106894020Y-43638875D01*
X106754960Y-43734861D01*
X106754959Y-43734861D01*
X106642913Y-43861334D01*
X106642913Y-43861335D01*
X106564388Y-44010952D01*
X106564387Y-44010955D01*
X106523950Y-44175012D01*
X106523950Y-44343987D01*
X105883550Y-44343987D01*
X105883550Y-44343985D01*
X105883550Y-44175015D01*
X105843112Y-44010954D01*
X105764588Y-43861338D01*
X105764586Y-43861336D01*
X105764586Y-43861335D01*
X105764586Y-43861334D01*
X105652540Y-43734861D01*
X105513479Y-43638875D01*
X105355489Y-43578957D01*
X105355487Y-43578956D01*
X105355486Y-43578956D01*
X105229846Y-43563701D01*
X105229840Y-43563700D01*
X105229835Y-43563700D01*
X105145665Y-43563700D01*
X105145660Y-43563700D01*
X105145653Y-43563701D01*
X105020013Y-43578956D01*
X105020011Y-43578957D01*
X104862020Y-43638875D01*
X104722960Y-43734861D01*
X104722959Y-43734861D01*
X104610913Y-43861334D01*
X104610913Y-43861335D01*
X104532388Y-44010952D01*
X104532387Y-44010955D01*
X104491950Y-44175012D01*
X104491950Y-44343987D01*
X78534158Y-44343987D01*
X78534158Y-42830750D01*
X92517068Y-42830750D01*
X92537705Y-42987508D01*
X92537707Y-42987516D01*
X92598212Y-43133588D01*
X92598212Y-43133589D01*
X92598214Y-43133591D01*
X92694468Y-43259032D01*
X92819909Y-43355286D01*
X92965988Y-43415794D01*
X93083559Y-43431272D01*
X93122749Y-43436432D01*
X93122750Y-43436432D01*
X93122751Y-43436432D01*
X93154102Y-43432304D01*
X93279512Y-43415794D01*
X93425591Y-43355286D01*
X93551032Y-43259032D01*
X93632770Y-43152509D01*
X97873318Y-43152509D01*
X97893955Y-43309267D01*
X97893957Y-43309275D01*
X97954462Y-43455347D01*
X97954462Y-43455348D01*
X98050713Y-43580785D01*
X98050718Y-43580791D01*
X98176159Y-43677045D01*
X98322238Y-43737553D01*
X98439809Y-43753031D01*
X98478999Y-43758191D01*
X98479000Y-43758191D01*
X98479001Y-43758191D01*
X98510352Y-43754063D01*
X98635762Y-43737553D01*
X98781841Y-43677045D01*
X98907282Y-43580791D01*
X99003536Y-43455350D01*
X99064044Y-43309271D01*
X99084682Y-43152509D01*
X99064044Y-42995747D01*
X99003537Y-42849670D01*
X99003537Y-42849669D01*
X98907286Y-42724232D01*
X98907285Y-42724231D01*
X98907282Y-42724227D01*
X98907277Y-42724223D01*
X98907276Y-42724222D01*
X98781838Y-42627971D01*
X98635766Y-42567466D01*
X98635758Y-42567464D01*
X98479001Y-42546827D01*
X98478999Y-42546827D01*
X98322241Y-42567464D01*
X98322233Y-42567466D01*
X98176161Y-42627971D01*
X98176160Y-42627971D01*
X98050723Y-42724222D01*
X98050713Y-42724232D01*
X97954462Y-42849669D01*
X97954462Y-42849670D01*
X97893957Y-42995742D01*
X97893955Y-42995750D01*
X97873318Y-43152508D01*
X97873318Y-43152509D01*
X93632770Y-43152509D01*
X93647286Y-43133591D01*
X93707794Y-42987512D01*
X93728432Y-42830750D01*
X93707794Y-42673988D01*
X93647287Y-42527911D01*
X93647287Y-42527910D01*
X93551036Y-42402473D01*
X93551035Y-42402472D01*
X93551032Y-42402468D01*
X93551027Y-42402464D01*
X93551026Y-42402463D01*
X93479854Y-42347851D01*
X93425591Y-42306214D01*
X93425590Y-42306213D01*
X93425588Y-42306212D01*
X93279516Y-42245707D01*
X93279508Y-42245705D01*
X93122751Y-42225068D01*
X93122749Y-42225068D01*
X92965991Y-42245705D01*
X92965983Y-42245707D01*
X92819911Y-42306212D01*
X92819910Y-42306212D01*
X92694473Y-42402463D01*
X92694463Y-42402473D01*
X92598212Y-42527910D01*
X92598212Y-42527911D01*
X92537707Y-42673983D01*
X92537705Y-42673991D01*
X92517068Y-42830749D01*
X92517068Y-42830750D01*
X78534158Y-42830750D01*
X78534158Y-41624250D01*
X100454568Y-41624250D01*
X100475205Y-41781008D01*
X100475207Y-41781016D01*
X100535712Y-41927088D01*
X100535712Y-41927089D01*
X100631963Y-42052526D01*
X100631968Y-42052532D01*
X100757409Y-42148786D01*
X100903488Y-42209294D01*
X101021059Y-42224772D01*
X101060249Y-42229932D01*
X101060250Y-42229932D01*
X101060251Y-42229932D01*
X101097196Y-42225068D01*
X101217012Y-42209294D01*
X101363091Y-42148786D01*
X101488532Y-42052532D01*
X101584786Y-41927091D01*
X101645294Y-41781012D01*
X101665932Y-41624250D01*
X101655500Y-41545010D01*
X102269311Y-41545010D01*
X102289948Y-41701768D01*
X102289950Y-41701776D01*
X102350455Y-41847848D01*
X102350455Y-41847849D01*
X102446706Y-41973286D01*
X102446711Y-41973292D01*
X102572152Y-42069546D01*
X102718231Y-42130054D01*
X102835802Y-42145532D01*
X102874992Y-42150692D01*
X102874993Y-42150692D01*
X102874994Y-42150692D01*
X102906345Y-42146564D01*
X103031755Y-42130054D01*
X103177834Y-42069546D01*
X103303275Y-41973292D01*
X103399529Y-41847851D01*
X103452694Y-41719500D01*
X107153818Y-41719500D01*
X107174455Y-41876258D01*
X107174457Y-41876266D01*
X107234962Y-42022338D01*
X107234962Y-42022339D01*
X107331213Y-42147776D01*
X107331218Y-42147782D01*
X107456659Y-42244036D01*
X107456660Y-42244036D01*
X107456661Y-42244037D01*
X107460693Y-42245707D01*
X107602738Y-42304544D01*
X107720309Y-42320022D01*
X107759499Y-42325182D01*
X107759500Y-42325182D01*
X107759501Y-42325182D01*
X107790852Y-42321054D01*
X107916262Y-42304544D01*
X108062341Y-42244036D01*
X108187782Y-42147782D01*
X108284036Y-42022341D01*
X108344544Y-41876262D01*
X108365182Y-41719500D01*
X108344544Y-41562738D01*
X108284037Y-41416661D01*
X108284037Y-41416660D01*
X108187786Y-41291223D01*
X108187785Y-41291222D01*
X108187782Y-41291218D01*
X108187777Y-41291214D01*
X108187776Y-41291213D01*
X108062338Y-41194962D01*
X107916266Y-41134457D01*
X107916258Y-41134455D01*
X107759501Y-41113818D01*
X107759499Y-41113818D01*
X107602741Y-41134455D01*
X107602733Y-41134457D01*
X107456661Y-41194962D01*
X107456660Y-41194962D01*
X107331223Y-41291213D01*
X107331213Y-41291223D01*
X107234962Y-41416660D01*
X107234962Y-41416661D01*
X107174457Y-41562733D01*
X107174455Y-41562741D01*
X107153818Y-41719499D01*
X107153818Y-41719500D01*
X103452694Y-41719500D01*
X103460037Y-41701772D01*
X103480675Y-41545010D01*
X103460037Y-41388248D01*
X103399530Y-41242171D01*
X103399530Y-41242170D01*
X103303279Y-41116733D01*
X103303278Y-41116732D01*
X103303275Y-41116728D01*
X103303270Y-41116724D01*
X103303269Y-41116723D01*
X103177831Y-41020472D01*
X103031759Y-40959967D01*
X103031751Y-40959965D01*
X102874994Y-40939328D01*
X102874992Y-40939328D01*
X102718234Y-40959965D01*
X102718226Y-40959967D01*
X102572154Y-41020472D01*
X102572153Y-41020472D01*
X102446716Y-41116723D01*
X102446706Y-41116733D01*
X102350455Y-41242170D01*
X102350455Y-41242171D01*
X102289950Y-41388243D01*
X102289948Y-41388251D01*
X102269311Y-41545009D01*
X102269311Y-41545010D01*
X101655500Y-41545010D01*
X101645294Y-41467488D01*
X101584787Y-41321411D01*
X101584787Y-41321410D01*
X101488536Y-41195973D01*
X101488535Y-41195972D01*
X101488532Y-41195968D01*
X101488527Y-41195964D01*
X101488526Y-41195963D01*
X101408366Y-41134455D01*
X101363091Y-41099714D01*
X101363090Y-41099713D01*
X101363088Y-41099712D01*
X101217016Y-41039207D01*
X101217008Y-41039205D01*
X101060251Y-41018568D01*
X101060249Y-41018568D01*
X100903491Y-41039205D01*
X100903483Y-41039207D01*
X100757411Y-41099712D01*
X100757410Y-41099712D01*
X100631973Y-41195963D01*
X100631963Y-41195973D01*
X100535712Y-41321410D01*
X100535712Y-41321411D01*
X100475207Y-41467483D01*
X100475205Y-41467491D01*
X100454568Y-41624249D01*
X100454568Y-41624250D01*
X78534158Y-41624250D01*
X78534158Y-40322500D01*
X94930074Y-40322500D01*
X94950711Y-40479258D01*
X94950713Y-40479266D01*
X95011218Y-40625338D01*
X95011218Y-40625339D01*
X95107469Y-40750776D01*
X95107474Y-40750782D01*
X95232915Y-40847036D01*
X95378994Y-40907544D01*
X95496565Y-40923022D01*
X95535755Y-40928182D01*
X95535756Y-40928182D01*
X95535757Y-40928182D01*
X95567108Y-40924054D01*
X95692518Y-40907544D01*
X95838597Y-40847036D01*
X95964038Y-40750782D01*
X96060292Y-40625341D01*
X96100273Y-40528819D01*
X97835137Y-40528819D01*
X97855774Y-40685577D01*
X97855776Y-40685585D01*
X97916281Y-40831657D01*
X97916281Y-40831658D01*
X97998899Y-40939328D01*
X98012537Y-40957101D01*
X98137978Y-41053355D01*
X98137979Y-41053355D01*
X98137980Y-41053356D01*
X98249898Y-41099714D01*
X98284057Y-41113863D01*
X98401628Y-41129341D01*
X98440818Y-41134501D01*
X98440819Y-41134501D01*
X98440820Y-41134501D01*
X98472171Y-41130373D01*
X98597581Y-41113863D01*
X98743660Y-41053355D01*
X98869101Y-40957101D01*
X98965355Y-40831660D01*
X99025863Y-40685581D01*
X99046501Y-40528819D01*
X99025863Y-40372057D01*
X98965356Y-40225980D01*
X98965356Y-40225979D01*
X98869105Y-40100542D01*
X98869104Y-40100541D01*
X98869101Y-40100537D01*
X98869096Y-40100533D01*
X98869095Y-40100532D01*
X98743657Y-40004281D01*
X98597585Y-39943776D01*
X98597577Y-39943774D01*
X98440820Y-39923137D01*
X98440818Y-39923137D01*
X98284060Y-39943774D01*
X98284052Y-39943776D01*
X98137980Y-40004281D01*
X98137979Y-40004281D01*
X98012542Y-40100532D01*
X98012532Y-40100542D01*
X97916281Y-40225979D01*
X97916281Y-40225980D01*
X97855776Y-40372052D01*
X97855774Y-40372060D01*
X97835137Y-40528818D01*
X97835137Y-40528819D01*
X96100273Y-40528819D01*
X96120800Y-40479262D01*
X96141438Y-40322500D01*
X96120800Y-40165738D01*
X96060293Y-40019661D01*
X96060293Y-40019660D01*
X95964042Y-39894223D01*
X95964041Y-39894222D01*
X95964038Y-39894218D01*
X95964033Y-39894214D01*
X95964032Y-39894213D01*
X95892860Y-39839601D01*
X95838597Y-39797964D01*
X95838596Y-39797963D01*
X95838594Y-39797962D01*
X95692522Y-39737457D01*
X95692514Y-39737455D01*
X95535757Y-39716818D01*
X95535755Y-39716818D01*
X95378997Y-39737455D01*
X95378989Y-39737457D01*
X95232917Y-39797962D01*
X95232916Y-39797962D01*
X95107479Y-39894213D01*
X95107469Y-39894223D01*
X95011218Y-40019660D01*
X95011218Y-40019661D01*
X94950713Y-40165733D01*
X94950711Y-40165741D01*
X94930074Y-40322499D01*
X94930074Y-40322500D01*
X78534158Y-40322500D01*
X78534158Y-39370000D01*
X98803568Y-39370000D01*
X98824205Y-39526758D01*
X98824207Y-39526766D01*
X98884712Y-39672838D01*
X98884712Y-39672839D01*
X98934295Y-39737457D01*
X98980968Y-39798282D01*
X99106409Y-39894536D01*
X99106410Y-39894536D01*
X99106411Y-39894537D01*
X99252483Y-39955042D01*
X99252488Y-39955044D01*
X99370059Y-39970522D01*
X99409249Y-39975682D01*
X99409250Y-39975682D01*
X99409251Y-39975682D01*
X99440602Y-39971554D01*
X99566012Y-39955044D01*
X99712091Y-39894536D01*
X99837532Y-39798282D01*
X99933786Y-39672841D01*
X99994294Y-39526762D01*
X100014932Y-39370000D01*
X99994294Y-39213238D01*
X99980319Y-39179500D01*
X103978818Y-39179500D01*
X103999455Y-39336258D01*
X103999457Y-39336266D01*
X104059962Y-39482338D01*
X104059962Y-39482339D01*
X104059964Y-39482341D01*
X104156218Y-39607782D01*
X104281659Y-39704036D01*
X104427738Y-39764544D01*
X104545309Y-39780022D01*
X104584499Y-39785182D01*
X104584500Y-39785182D01*
X104584501Y-39785182D01*
X104615852Y-39781054D01*
X104741262Y-39764544D01*
X104887341Y-39704036D01*
X105012782Y-39607782D01*
X105109036Y-39482341D01*
X105169544Y-39336262D01*
X105190182Y-39179500D01*
X107153818Y-39179500D01*
X107174455Y-39336258D01*
X107174457Y-39336266D01*
X107234962Y-39482338D01*
X107234962Y-39482339D01*
X107234964Y-39482341D01*
X107331218Y-39607782D01*
X107456659Y-39704036D01*
X107602738Y-39764544D01*
X107720309Y-39780022D01*
X107759499Y-39785182D01*
X107759500Y-39785182D01*
X107759501Y-39785182D01*
X107790852Y-39781054D01*
X107916262Y-39764544D01*
X108062341Y-39704036D01*
X108187782Y-39607782D01*
X108284036Y-39482341D01*
X108344544Y-39336262D01*
X108365182Y-39179500D01*
X108358708Y-39130327D01*
X108369858Y-39070168D01*
X108414240Y-39028050D01*
X108474902Y-39020064D01*
X108528673Y-39049258D01*
X108548325Y-39079520D01*
X108584463Y-39166764D01*
X108680717Y-39292205D01*
X108806158Y-39388459D01*
X108952237Y-39448967D01*
X109069808Y-39464445D01*
X109108998Y-39469605D01*
X109108999Y-39469605D01*
X109109000Y-39469605D01*
X109140351Y-39465477D01*
X109265761Y-39448967D01*
X109411840Y-39388459D01*
X109537281Y-39292205D01*
X109633535Y-39166764D01*
X109694043Y-39020685D01*
X109714681Y-38863923D01*
X109694043Y-38707161D01*
X109672422Y-38654963D01*
X109633536Y-38561084D01*
X109633536Y-38561083D01*
X109537285Y-38435646D01*
X109537284Y-38435645D01*
X109537281Y-38435641D01*
X109537276Y-38435637D01*
X109537275Y-38435636D01*
X109466103Y-38381024D01*
X109411840Y-38339387D01*
X109411839Y-38339386D01*
X109411837Y-38339385D01*
X109265765Y-38278880D01*
X109265757Y-38278878D01*
X109109000Y-38258241D01*
X109108998Y-38258241D01*
X108952240Y-38278878D01*
X108952232Y-38278880D01*
X108806160Y-38339385D01*
X108806159Y-38339385D01*
X108680722Y-38435636D01*
X108680712Y-38435646D01*
X108584461Y-38561083D01*
X108584461Y-38561084D01*
X108523956Y-38707156D01*
X108523954Y-38707164D01*
X108503317Y-38863922D01*
X108503317Y-38863924D01*
X108509790Y-38913095D01*
X108498640Y-38973255D01*
X108454257Y-39015372D01*
X108393595Y-39023358D01*
X108339824Y-38994163D01*
X108320173Y-38963901D01*
X108284037Y-38876661D01*
X108284036Y-38876659D01*
X108187786Y-38751223D01*
X108187785Y-38751222D01*
X108187782Y-38751218D01*
X108187777Y-38751214D01*
X108187776Y-38751213D01*
X108062338Y-38654962D01*
X107916266Y-38594457D01*
X107916258Y-38594455D01*
X107759501Y-38573818D01*
X107759499Y-38573818D01*
X107602741Y-38594455D01*
X107602733Y-38594457D01*
X107456661Y-38654962D01*
X107456660Y-38654962D01*
X107331223Y-38751213D01*
X107331213Y-38751223D01*
X107234964Y-38876659D01*
X107234962Y-38876661D01*
X107174457Y-39022733D01*
X107174455Y-39022741D01*
X107153818Y-39179499D01*
X107153818Y-39179500D01*
X105190182Y-39179500D01*
X105169544Y-39022738D01*
X105157708Y-38994163D01*
X105109037Y-38876661D01*
X105109036Y-38876659D01*
X105012786Y-38751223D01*
X105012785Y-38751222D01*
X105012782Y-38751218D01*
X105012777Y-38751214D01*
X105012776Y-38751213D01*
X104887338Y-38654962D01*
X104841472Y-38635964D01*
X104794946Y-38596228D01*
X104780662Y-38536733D01*
X104804077Y-38480205D01*
X104841472Y-38453036D01*
X104883478Y-38435636D01*
X104887341Y-38434036D01*
X105012782Y-38337782D01*
X105109036Y-38212341D01*
X105169544Y-38066262D01*
X105190182Y-37909500D01*
X105169544Y-37752738D01*
X105143243Y-37689241D01*
X105109037Y-37606661D01*
X105109037Y-37606660D01*
X105012786Y-37481223D01*
X105012785Y-37481222D01*
X105012782Y-37481218D01*
X105012777Y-37481214D01*
X105012776Y-37481213D01*
X104887338Y-37384962D01*
X104741266Y-37324457D01*
X104741258Y-37324455D01*
X104584501Y-37303818D01*
X104584499Y-37303818D01*
X104427741Y-37324455D01*
X104427733Y-37324457D01*
X104281661Y-37384962D01*
X104281660Y-37384962D01*
X104156223Y-37481213D01*
X104156213Y-37481223D01*
X104059962Y-37606660D01*
X104059962Y-37606661D01*
X103999457Y-37752733D01*
X103999455Y-37752741D01*
X103978818Y-37909499D01*
X103978818Y-37909500D01*
X103999455Y-38066258D01*
X103999457Y-38066266D01*
X104059962Y-38212338D01*
X104059962Y-38212339D01*
X104107496Y-38274286D01*
X104156218Y-38337782D01*
X104156222Y-38337785D01*
X104156223Y-38337786D01*
X104178242Y-38354681D01*
X104281659Y-38434036D01*
X104304777Y-38443611D01*
X104327528Y-38453036D01*
X104374054Y-38492773D01*
X104388337Y-38552268D01*
X104364922Y-38608796D01*
X104327528Y-38635964D01*
X104281660Y-38654963D01*
X104156223Y-38751213D01*
X104156213Y-38751223D01*
X104059964Y-38876659D01*
X104059962Y-38876661D01*
X103999457Y-39022733D01*
X103999455Y-39022741D01*
X103978818Y-39179499D01*
X103978818Y-39179500D01*
X99980319Y-39179500D01*
X99938906Y-39079520D01*
X99933787Y-39067161D01*
X99933787Y-39067160D01*
X99837536Y-38941723D01*
X99837535Y-38941722D01*
X99837532Y-38941718D01*
X99837527Y-38941714D01*
X99837526Y-38941713D01*
X99752745Y-38876659D01*
X99712091Y-38845464D01*
X99712090Y-38845463D01*
X99712088Y-38845462D01*
X99566016Y-38784957D01*
X99566008Y-38784955D01*
X99409251Y-38764318D01*
X99409249Y-38764318D01*
X99252491Y-38784955D01*
X99252483Y-38784957D01*
X99106411Y-38845462D01*
X99106410Y-38845462D01*
X98980973Y-38941713D01*
X98980963Y-38941723D01*
X98884712Y-39067160D01*
X98884712Y-39067161D01*
X98824207Y-39213233D01*
X98824205Y-39213241D01*
X98803568Y-39369999D01*
X98803568Y-39370000D01*
X78534158Y-39370000D01*
X78534158Y-38876659D01*
X78534180Y-38641841D01*
X78498639Y-38149365D01*
X78427741Y-37660725D01*
X78384767Y-37465000D01*
X84232571Y-37465000D01*
X84253208Y-37621758D01*
X84253210Y-37621766D01*
X84313715Y-37767838D01*
X84313715Y-37767839D01*
X84373690Y-37846000D01*
X84409971Y-37893282D01*
X84535412Y-37989536D01*
X84535413Y-37989536D01*
X84535414Y-37989537D01*
X84567342Y-38002762D01*
X84681491Y-38050044D01*
X84799062Y-38065522D01*
X84838252Y-38070682D01*
X84838253Y-38070682D01*
X84838254Y-38070682D01*
X84871857Y-38066258D01*
X84995015Y-38050044D01*
X85141094Y-37989536D01*
X85266535Y-37893282D01*
X85302816Y-37846000D01*
X99914818Y-37846000D01*
X99935455Y-38002758D01*
X99935457Y-38002766D01*
X99995962Y-38148838D01*
X99995962Y-38148839D01*
X100044689Y-38212341D01*
X100092218Y-38274282D01*
X100092222Y-38274285D01*
X100092223Y-38274286D01*
X100098209Y-38278879D01*
X100217659Y-38370536D01*
X100363738Y-38431044D01*
X100481309Y-38446522D01*
X100520499Y-38451682D01*
X100520500Y-38451682D01*
X100520501Y-38451682D01*
X100551852Y-38447554D01*
X100677262Y-38431044D01*
X100823341Y-38370536D01*
X100948782Y-38274282D01*
X101045036Y-38148841D01*
X101105544Y-38002762D01*
X101126182Y-37846000D01*
X101105544Y-37689238D01*
X101077596Y-37621766D01*
X101045037Y-37543161D01*
X101045037Y-37543160D01*
X100948786Y-37417723D01*
X100948785Y-37417722D01*
X100948782Y-37417718D01*
X100948777Y-37417714D01*
X100948776Y-37417713D01*
X100841370Y-37335298D01*
X100823341Y-37321464D01*
X100823340Y-37321463D01*
X100823338Y-37321462D01*
X100677266Y-37260957D01*
X100677258Y-37260955D01*
X100520501Y-37240318D01*
X100520499Y-37240318D01*
X100363741Y-37260955D01*
X100363733Y-37260957D01*
X100217661Y-37321462D01*
X100217660Y-37321462D01*
X100092223Y-37417713D01*
X100092213Y-37417723D01*
X99995962Y-37543160D01*
X99995962Y-37543161D01*
X99935457Y-37689233D01*
X99935455Y-37689241D01*
X99914818Y-37845999D01*
X99914818Y-37846000D01*
X85302816Y-37846000D01*
X85362789Y-37767841D01*
X85423297Y-37621762D01*
X85443935Y-37465000D01*
X85423297Y-37308238D01*
X85403368Y-37260125D01*
X85362790Y-37162161D01*
X85362790Y-37162160D01*
X85266539Y-37036723D01*
X85266538Y-37036722D01*
X85266535Y-37036718D01*
X85266530Y-37036714D01*
X85266529Y-37036713D01*
X85141091Y-36940462D01*
X84995019Y-36879957D01*
X84995011Y-36879955D01*
X84838254Y-36859318D01*
X84838252Y-36859318D01*
X84681494Y-36879955D01*
X84681486Y-36879957D01*
X84535414Y-36940462D01*
X84535413Y-36940462D01*
X84409976Y-37036713D01*
X84409966Y-37036723D01*
X84313715Y-37162160D01*
X84313715Y-37162161D01*
X84253210Y-37308233D01*
X84253208Y-37308241D01*
X84232571Y-37464999D01*
X84232571Y-37465000D01*
X78384767Y-37465000D01*
X78321853Y-37178456D01*
X78181525Y-36705060D01*
X78181522Y-36705053D01*
X78072072Y-36414470D01*
X78013325Y-36258500D01*
X85246318Y-36258500D01*
X85266955Y-36415258D01*
X85266957Y-36415266D01*
X85327462Y-36561338D01*
X85327462Y-36561339D01*
X85423107Y-36685986D01*
X85423718Y-36686782D01*
X85549159Y-36783036D01*
X85549160Y-36783036D01*
X85549161Y-36783037D01*
X85693311Y-36842746D01*
X85695238Y-36843544D01*
X85812809Y-36859022D01*
X85851999Y-36864182D01*
X85852000Y-36864182D01*
X85852001Y-36864182D01*
X85888946Y-36859318D01*
X86008762Y-36843544D01*
X86154841Y-36783036D01*
X86280282Y-36686782D01*
X86376536Y-36561341D01*
X86437044Y-36415262D01*
X86457682Y-36258500D01*
X86457577Y-36257704D01*
X92152066Y-36257704D01*
X92172703Y-36414462D01*
X92172705Y-36414470D01*
X92233210Y-36560542D01*
X92233210Y-36560543D01*
X92267844Y-36605679D01*
X92329466Y-36685986D01*
X92329470Y-36685989D01*
X92329471Y-36685990D01*
X92354315Y-36705053D01*
X92454907Y-36782240D01*
X92454908Y-36782240D01*
X92454909Y-36782241D01*
X92456831Y-36783037D01*
X92600986Y-36842748D01*
X92718557Y-36858226D01*
X92757747Y-36863386D01*
X92757748Y-36863386D01*
X92757749Y-36863386D01*
X92789100Y-36859258D01*
X92914510Y-36842748D01*
X93060589Y-36782240D01*
X93186030Y-36685986D01*
X93282284Y-36560545D01*
X93342792Y-36414466D01*
X93360312Y-36281385D01*
X95612855Y-36281385D01*
X95633492Y-36438143D01*
X95633494Y-36438151D01*
X95693999Y-36584223D01*
X95693999Y-36584224D01*
X95786715Y-36705054D01*
X95790255Y-36709667D01*
X95915696Y-36805921D01*
X95915697Y-36805921D01*
X95915698Y-36805922D01*
X96056350Y-36864182D01*
X96061775Y-36866429D01*
X96164531Y-36879957D01*
X96218536Y-36887067D01*
X96218537Y-36887067D01*
X96218538Y-36887067D01*
X96249889Y-36882939D01*
X96375299Y-36866429D01*
X96521378Y-36805921D01*
X96646819Y-36709667D01*
X96743073Y-36584226D01*
X96803581Y-36438147D01*
X96821395Y-36302838D01*
X99209430Y-36302838D01*
X99230067Y-36459596D01*
X99230069Y-36459604D01*
X99290574Y-36605676D01*
X99290574Y-36605677D01*
X99386825Y-36731114D01*
X99386830Y-36731120D01*
X99512271Y-36827374D01*
X99512272Y-36827374D01*
X99512273Y-36827375D01*
X99639215Y-36879956D01*
X99658350Y-36887882D01*
X99775921Y-36903360D01*
X99815111Y-36908520D01*
X99815112Y-36908520D01*
X99815113Y-36908520D01*
X99846464Y-36904392D01*
X99971874Y-36887882D01*
X100117953Y-36827374D01*
X100243394Y-36731120D01*
X100248867Y-36723987D01*
X105507950Y-36723987D01*
X105548387Y-36888044D01*
X105548388Y-36888047D01*
X105626913Y-37037664D01*
X105626913Y-37037665D01*
X105738959Y-37164138D01*
X105759710Y-37178461D01*
X105878021Y-37260125D01*
X106036011Y-37320043D01*
X106161665Y-37335300D01*
X106161670Y-37335300D01*
X106245830Y-37335300D01*
X106245835Y-37335300D01*
X106371489Y-37320043D01*
X106529479Y-37260125D01*
X106668539Y-37164139D01*
X106668540Y-37164138D01*
X106780586Y-37037665D01*
X106780586Y-37037664D01*
X106780585Y-37037664D01*
X106780588Y-37037662D01*
X106859112Y-36888046D01*
X106899550Y-36723985D01*
X106899550Y-36555015D01*
X106859112Y-36390954D01*
X106780588Y-36241338D01*
X106780587Y-36241337D01*
X106779796Y-36239829D01*
X106769495Y-36179517D01*
X106796612Y-36124669D01*
X106850789Y-36096235D01*
X106880373Y-36095669D01*
X106918002Y-36100623D01*
X107074764Y-36079985D01*
X107220843Y-36019477D01*
X107346284Y-35923223D01*
X107442538Y-35797782D01*
X107503046Y-35651703D01*
X107523684Y-35494941D01*
X107503046Y-35338179D01*
X107442539Y-35192102D01*
X107442539Y-35192101D01*
X107346288Y-35066664D01*
X107346287Y-35066663D01*
X107346284Y-35066659D01*
X107346279Y-35066655D01*
X107346278Y-35066654D01*
X107220840Y-34970403D01*
X107074768Y-34909898D01*
X107074760Y-34909896D01*
X106918003Y-34889259D01*
X106918001Y-34889259D01*
X106761243Y-34909896D01*
X106761235Y-34909898D01*
X106615163Y-34970403D01*
X106615162Y-34970403D01*
X106489725Y-35066654D01*
X106489715Y-35066664D01*
X106393464Y-35192101D01*
X106393464Y-35192102D01*
X106332959Y-35338174D01*
X106332957Y-35338182D01*
X106312320Y-35494940D01*
X106312320Y-35494941D01*
X106332957Y-35651699D01*
X106332959Y-35651707D01*
X106393463Y-35797777D01*
X106396076Y-35802302D01*
X106408799Y-35862150D01*
X106383915Y-35918046D01*
X106330928Y-35948641D01*
X106298408Y-35950083D01*
X106245846Y-35943701D01*
X106245840Y-35943700D01*
X106245835Y-35943700D01*
X106161665Y-35943700D01*
X106161660Y-35943700D01*
X106161653Y-35943701D01*
X106036013Y-35958956D01*
X106036011Y-35958957D01*
X105878020Y-36018875D01*
X105738960Y-36114861D01*
X105738959Y-36114861D01*
X105626913Y-36241334D01*
X105626913Y-36241335D01*
X105548388Y-36390952D01*
X105548387Y-36390955D01*
X105507950Y-36555012D01*
X105507950Y-36723987D01*
X100248867Y-36723987D01*
X100339648Y-36605679D01*
X100400156Y-36459600D01*
X100420794Y-36302838D01*
X100400156Y-36146076D01*
X100381791Y-36101738D01*
X100339649Y-35999999D01*
X100339649Y-35999998D01*
X100243398Y-35874561D01*
X100243397Y-35874560D01*
X100243394Y-35874556D01*
X100243389Y-35874552D01*
X100243388Y-35874551D01*
X100117950Y-35778300D01*
X99971878Y-35717795D01*
X99971870Y-35717793D01*
X99815113Y-35697156D01*
X99815111Y-35697156D01*
X99658353Y-35717793D01*
X99658345Y-35717795D01*
X99512273Y-35778300D01*
X99512272Y-35778300D01*
X99386835Y-35874551D01*
X99386825Y-35874561D01*
X99290574Y-35999998D01*
X99290574Y-35999999D01*
X99230069Y-36146071D01*
X99230067Y-36146079D01*
X99209430Y-36302837D01*
X99209430Y-36302838D01*
X96821395Y-36302838D01*
X96824219Y-36281385D01*
X96803581Y-36124623D01*
X96803579Y-36124618D01*
X96743074Y-35978546D01*
X96743074Y-35978545D01*
X96646823Y-35853108D01*
X96646822Y-35853107D01*
X96646819Y-35853103D01*
X96646814Y-35853099D01*
X96646813Y-35853098D01*
X96549336Y-35778302D01*
X96521378Y-35756849D01*
X96521377Y-35756848D01*
X96521375Y-35756847D01*
X96375303Y-35696342D01*
X96375295Y-35696340D01*
X96218538Y-35675703D01*
X96218536Y-35675703D01*
X96061778Y-35696340D01*
X96061770Y-35696342D01*
X95915698Y-35756847D01*
X95915697Y-35756847D01*
X95790260Y-35853098D01*
X95790250Y-35853108D01*
X95693999Y-35978545D01*
X95693999Y-35978546D01*
X95633494Y-36124618D01*
X95633492Y-36124626D01*
X95612855Y-36281384D01*
X95612855Y-36281385D01*
X93360312Y-36281385D01*
X93363430Y-36257704D01*
X93342792Y-36100942D01*
X93342660Y-36100623D01*
X93282285Y-35954865D01*
X93282285Y-35954864D01*
X93186034Y-35829427D01*
X93186033Y-35829426D01*
X93186030Y-35829422D01*
X93186025Y-35829418D01*
X93186024Y-35829417D01*
X93061626Y-35733964D01*
X93060589Y-35733168D01*
X93060588Y-35733167D01*
X93060586Y-35733166D01*
X92914514Y-35672661D01*
X92914506Y-35672659D01*
X92757749Y-35652022D01*
X92757747Y-35652022D01*
X92600989Y-35672659D01*
X92600981Y-35672661D01*
X92454909Y-35733166D01*
X92454908Y-35733166D01*
X92329471Y-35829417D01*
X92329461Y-35829427D01*
X92233210Y-35954864D01*
X92233210Y-35954865D01*
X92172705Y-36100937D01*
X92172703Y-36100945D01*
X92152066Y-36257703D01*
X92152066Y-36257704D01*
X86457577Y-36257704D01*
X86455640Y-36242993D01*
X86447284Y-36179517D01*
X86437044Y-36101738D01*
X86394902Y-35999998D01*
X86376537Y-35955661D01*
X86376537Y-35955660D01*
X86280286Y-35830223D01*
X86280285Y-35830222D01*
X86280282Y-35830218D01*
X86280277Y-35830214D01*
X86280276Y-35830213D01*
X86154838Y-35733962D01*
X86008766Y-35673457D01*
X86008758Y-35673455D01*
X85852001Y-35652818D01*
X85851999Y-35652818D01*
X85695241Y-35673455D01*
X85695233Y-35673457D01*
X85549161Y-35733962D01*
X85549160Y-35733962D01*
X85423723Y-35830213D01*
X85423713Y-35830223D01*
X85327462Y-35955660D01*
X85327462Y-35955661D01*
X85266957Y-36101733D01*
X85266955Y-36101741D01*
X85246318Y-36258499D01*
X85246318Y-36258500D01*
X78013325Y-36258500D01*
X78007484Y-36242993D01*
X78007478Y-36242981D01*
X77942311Y-36101733D01*
X77800634Y-35794653D01*
X77779769Y-35756849D01*
X77621512Y-35470107D01*
X104281254Y-35470107D01*
X104301891Y-35626865D01*
X104301893Y-35626873D01*
X104362398Y-35772945D01*
X104362398Y-35772946D01*
X104440366Y-35874556D01*
X104458654Y-35898389D01*
X104584095Y-35994643D01*
X104584096Y-35994643D01*
X104584097Y-35994644D01*
X104642596Y-36018875D01*
X104730174Y-36055151D01*
X104847745Y-36070629D01*
X104886935Y-36075789D01*
X104886936Y-36075789D01*
X104886937Y-36075789D01*
X104918288Y-36071661D01*
X105043698Y-36055151D01*
X105189777Y-35994643D01*
X105315218Y-35898389D01*
X105411472Y-35772948D01*
X105471980Y-35626869D01*
X105492618Y-35470107D01*
X105471980Y-35313345D01*
X105471978Y-35313340D01*
X105411473Y-35167268D01*
X105411473Y-35167267D01*
X105315222Y-35041830D01*
X105315221Y-35041829D01*
X105315218Y-35041825D01*
X105315213Y-35041821D01*
X105315212Y-35041820D01*
X105222139Y-34970403D01*
X105189777Y-34945571D01*
X105189776Y-34945570D01*
X105189774Y-34945569D01*
X105043702Y-34885064D01*
X105043694Y-34885062D01*
X104886937Y-34864425D01*
X104886935Y-34864425D01*
X104730177Y-34885062D01*
X104730169Y-34885064D01*
X104584097Y-34945569D01*
X104584096Y-34945569D01*
X104458659Y-35041820D01*
X104458649Y-35041830D01*
X104362398Y-35167267D01*
X104362398Y-35167268D01*
X104301893Y-35313340D01*
X104301891Y-35313348D01*
X104281254Y-35470106D01*
X104281254Y-35470107D01*
X77621512Y-35470107D01*
X77562056Y-35362379D01*
X77562053Y-35362375D01*
X77562048Y-35362365D01*
X77292963Y-34948373D01*
X77290840Y-34945571D01*
X76994782Y-34554831D01*
X76990502Y-34549956D01*
X76669035Y-34183761D01*
X76494473Y-34011688D01*
X76492014Y-34009174D01*
X76349827Y-33858512D01*
X94606568Y-33858512D01*
X94627205Y-34015270D01*
X94627207Y-34015278D01*
X94687712Y-34161350D01*
X94687712Y-34161351D01*
X94704908Y-34183761D01*
X94783968Y-34286794D01*
X94909409Y-34383048D01*
X95055488Y-34443556D01*
X95173059Y-34459034D01*
X95212249Y-34464194D01*
X95212250Y-34464194D01*
X95212251Y-34464194D01*
X95243602Y-34460066D01*
X95369012Y-34443556D01*
X95515091Y-34383048D01*
X95640532Y-34286794D01*
X95736786Y-34161353D01*
X95797294Y-34015274D01*
X95817932Y-33858512D01*
X95797294Y-33701750D01*
X95770388Y-33636794D01*
X95736787Y-33555673D01*
X95736787Y-33555672D01*
X95640536Y-33430235D01*
X95640535Y-33430234D01*
X95640532Y-33430230D01*
X95640527Y-33430226D01*
X95640526Y-33430225D01*
X95515088Y-33333974D01*
X95369016Y-33273469D01*
X95369008Y-33273467D01*
X95212251Y-33252830D01*
X95212249Y-33252830D01*
X95055491Y-33273467D01*
X95055483Y-33273469D01*
X94909411Y-33333974D01*
X94909410Y-33333974D01*
X94783973Y-33430225D01*
X94783963Y-33430235D01*
X94687712Y-33555672D01*
X94687712Y-33555673D01*
X94627207Y-33701745D01*
X94627205Y-33701753D01*
X94606568Y-33858511D01*
X94606568Y-33858512D01*
X76349827Y-33858512D01*
X76206484Y-33706626D01*
X76201780Y-33701268D01*
X75939912Y-33380354D01*
X75935605Y-33374670D01*
X75697514Y-33035734D01*
X75693628Y-33029755D01*
X75640223Y-32940729D01*
X75480553Y-32674561D01*
X75477113Y-32668328D01*
X75398263Y-32512442D01*
X75397391Y-32510719D01*
X92777064Y-32510719D01*
X92797701Y-32667477D01*
X92797703Y-32667485D01*
X92858208Y-32813557D01*
X92858208Y-32813558D01*
X92920694Y-32894991D01*
X92954464Y-32939001D01*
X93079905Y-33035255D01*
X93079906Y-33035255D01*
X93079907Y-33035256D01*
X93119725Y-33051749D01*
X93225984Y-33095763D01*
X93343555Y-33111241D01*
X93382745Y-33116401D01*
X93382746Y-33116401D01*
X93382747Y-33116401D01*
X93414098Y-33112273D01*
X93539508Y-33095763D01*
X93685587Y-33035255D01*
X93811028Y-32939001D01*
X93832699Y-32910758D01*
X93883121Y-32876103D01*
X93944285Y-32877704D01*
X93989782Y-32910759D01*
X94011448Y-32938995D01*
X94012776Y-32940725D01*
X94138217Y-33036979D01*
X94284296Y-33097487D01*
X94401867Y-33112965D01*
X94441057Y-33118125D01*
X94441058Y-33118125D01*
X94441059Y-33118125D01*
X94472410Y-33113997D01*
X94597820Y-33097487D01*
X94708239Y-33051750D01*
X108074568Y-33051750D01*
X108095205Y-33208508D01*
X108095207Y-33208516D01*
X108155712Y-33354588D01*
X108155712Y-33354589D01*
X108251963Y-33480026D01*
X108251968Y-33480032D01*
X108377409Y-33576286D01*
X108523488Y-33636794D01*
X108641059Y-33652272D01*
X108680249Y-33657432D01*
X108680250Y-33657432D01*
X108680251Y-33657432D01*
X108711602Y-33653304D01*
X108837012Y-33636794D01*
X108983091Y-33576286D01*
X109108532Y-33480032D01*
X109204786Y-33354591D01*
X109265294Y-33208512D01*
X109285932Y-33051750D01*
X109283823Y-33035734D01*
X109271315Y-32940725D01*
X109265294Y-32894988D01*
X109257472Y-32876103D01*
X109204787Y-32748911D01*
X109204787Y-32748910D01*
X109108536Y-32623473D01*
X109108535Y-32623472D01*
X109108532Y-32623468D01*
X109108527Y-32623464D01*
X109108526Y-32623463D01*
X108983088Y-32527212D01*
X108837016Y-32466707D01*
X108837008Y-32466705D01*
X108680251Y-32446068D01*
X108680249Y-32446068D01*
X108523491Y-32466705D01*
X108523483Y-32466707D01*
X108377411Y-32527212D01*
X108377410Y-32527212D01*
X108251973Y-32623463D01*
X108251963Y-32623473D01*
X108155712Y-32748910D01*
X108155712Y-32748911D01*
X108095207Y-32894983D01*
X108095205Y-32894991D01*
X108074568Y-33051749D01*
X108074568Y-33051750D01*
X94708239Y-33051750D01*
X94743899Y-33036979D01*
X94869340Y-32940725D01*
X94965594Y-32815284D01*
X95026102Y-32669205D01*
X95046740Y-32512443D01*
X95026102Y-32355681D01*
X95007792Y-32311477D01*
X94965595Y-32209604D01*
X94965595Y-32209603D01*
X94869344Y-32084166D01*
X94869343Y-32084165D01*
X94869340Y-32084161D01*
X94869335Y-32084157D01*
X94869334Y-32084156D01*
X94743896Y-31987905D01*
X94597824Y-31927400D01*
X94597816Y-31927398D01*
X94441059Y-31906761D01*
X94441057Y-31906761D01*
X94284299Y-31927398D01*
X94284291Y-31927400D01*
X94138219Y-31987905D01*
X94138218Y-31987905D01*
X94012781Y-32084156D01*
X94012770Y-32084167D01*
X93991104Y-32112403D01*
X93940679Y-32147059D01*
X93879515Y-32145456D01*
X93834021Y-32112402D01*
X93811032Y-32082442D01*
X93811031Y-32082441D01*
X93811028Y-32082437D01*
X93811023Y-32082433D01*
X93811022Y-32082432D01*
X93739850Y-32027820D01*
X93685587Y-31986183D01*
X93685586Y-31986182D01*
X93685584Y-31986181D01*
X93539512Y-31925676D01*
X93539504Y-31925674D01*
X93382747Y-31905037D01*
X93382745Y-31905037D01*
X93225987Y-31925674D01*
X93225979Y-31925676D01*
X93079907Y-31986181D01*
X93079906Y-31986181D01*
X92954469Y-32082432D01*
X92954459Y-32082442D01*
X92858208Y-32207879D01*
X92858208Y-32207880D01*
X92797703Y-32353952D01*
X92797701Y-32353960D01*
X92777064Y-32510718D01*
X92777064Y-32510719D01*
X75397391Y-32510719D01*
X75290156Y-32298714D01*
X75287169Y-32292239D01*
X75252596Y-32209602D01*
X75127308Y-31910139D01*
X75124796Y-31903469D01*
X75117985Y-31883201D01*
X99771801Y-31883201D01*
X99792438Y-32039959D01*
X99792440Y-32039967D01*
X99852945Y-32186039D01*
X99852945Y-32186040D01*
X99939402Y-32298713D01*
X99949201Y-32311483D01*
X100074642Y-32407737D01*
X100074643Y-32407737D01*
X100074644Y-32407738D01*
X100217008Y-32466707D01*
X100220721Y-32468245D01*
X100338292Y-32483723D01*
X100377482Y-32488883D01*
X100377483Y-32488883D01*
X100377484Y-32488883D01*
X100408835Y-32484755D01*
X100534245Y-32468245D01*
X100680324Y-32407737D01*
X100805765Y-32311483D01*
X100902019Y-32186042D01*
X100962527Y-32039963D01*
X100983165Y-31883201D01*
X100962527Y-31726439D01*
X100943246Y-31679890D01*
X100902020Y-31580362D01*
X100902020Y-31580361D01*
X100805769Y-31454924D01*
X100805768Y-31454923D01*
X100805765Y-31454919D01*
X100805760Y-31454915D01*
X100805759Y-31454914D01*
X100680321Y-31358663D01*
X100534249Y-31298158D01*
X100534241Y-31298156D01*
X100377484Y-31277519D01*
X100377482Y-31277519D01*
X100220724Y-31298156D01*
X100220716Y-31298158D01*
X100074644Y-31358663D01*
X100074643Y-31358663D01*
X99949206Y-31454914D01*
X99949196Y-31454924D01*
X99852945Y-31580361D01*
X99852945Y-31580362D01*
X99792440Y-31726434D01*
X99792438Y-31726442D01*
X99771801Y-31883200D01*
X99771801Y-31883201D01*
X75117985Y-31883201D01*
X74992843Y-31510818D01*
X74990828Y-31504017D01*
X74887485Y-31102905D01*
X74885961Y-31095966D01*
X74811752Y-30688412D01*
X74810735Y-30681397D01*
X74766058Y-30269594D01*
X74765547Y-30262525D01*
X74750634Y-29848691D01*
X74750646Y-29841275D01*
X74768379Y-29389927D01*
X74768989Y-29382189D01*
X74822062Y-28933780D01*
X74823271Y-28926142D01*
X74862832Y-28727256D01*
X74892728Y-28673875D01*
X74948293Y-28648259D01*
X75008302Y-28660196D01*
X75049835Y-28705126D01*
X75058773Y-28741021D01*
X75065109Y-28853841D01*
X75065112Y-28853861D01*
X75125314Y-29208187D01*
X75224813Y-29553556D01*
X75362358Y-29885620D01*
X75536210Y-30200180D01*
X75744198Y-30493313D01*
X75816843Y-30574601D01*
X77026389Y-29365056D01*
X77142632Y-29514404D01*
X77325523Y-29682768D01*
X77380116Y-29718435D01*
X76170397Y-30928155D01*
X76251686Y-31000801D01*
X76544819Y-31208789D01*
X76859380Y-31382641D01*
X76859379Y-31382641D01*
X77191443Y-31520186D01*
X77536812Y-31619685D01*
X77891138Y-31679887D01*
X77891158Y-31679890D01*
X78249995Y-31700042D01*
X78250005Y-31700042D01*
X78608841Y-31679890D01*
X78608861Y-31679887D01*
X78963187Y-31619685D01*
X79308556Y-31520186D01*
X79640620Y-31382641D01*
X79955180Y-31208789D01*
X80221605Y-31019750D01*
X103851818Y-31019750D01*
X103872455Y-31176508D01*
X103872457Y-31176516D01*
X103932962Y-31322588D01*
X103932962Y-31322589D01*
X104029213Y-31448026D01*
X104029218Y-31448032D01*
X104154659Y-31544286D01*
X104154660Y-31544286D01*
X104154661Y-31544287D01*
X104241754Y-31580362D01*
X104300738Y-31604794D01*
X104413847Y-31619685D01*
X104457499Y-31625432D01*
X104457500Y-31625432D01*
X104457501Y-31625432D01*
X104501153Y-31619685D01*
X104614262Y-31604794D01*
X104760341Y-31544286D01*
X104885782Y-31448032D01*
X104982036Y-31322591D01*
X105042544Y-31176512D01*
X105063182Y-31019750D01*
X105042544Y-30862988D01*
X104982037Y-30716911D01*
X104982037Y-30716910D01*
X104885786Y-30591473D01*
X104885785Y-30591472D01*
X104885782Y-30591468D01*
X104885777Y-30591464D01*
X104885776Y-30591463D01*
X104760338Y-30495212D01*
X104614266Y-30434707D01*
X104614258Y-30434705D01*
X104457501Y-30414068D01*
X104457499Y-30414068D01*
X104300741Y-30434705D01*
X104300733Y-30434707D01*
X104154661Y-30495212D01*
X104154660Y-30495212D01*
X104029223Y-30591463D01*
X104029213Y-30591473D01*
X103932962Y-30716910D01*
X103932962Y-30716911D01*
X103872457Y-30862983D01*
X103872455Y-30862991D01*
X103851818Y-31019749D01*
X103851818Y-31019750D01*
X80221605Y-31019750D01*
X80248313Y-31000800D01*
X80329601Y-30928155D01*
X79119882Y-29718436D01*
X79174477Y-29682768D01*
X79357368Y-29514404D01*
X79473610Y-29365056D01*
X80683155Y-30574601D01*
X80755800Y-30493313D01*
X80963789Y-30200180D01*
X81137641Y-29885620D01*
X81165153Y-29819199D01*
X91830796Y-29819199D01*
X91860184Y-29960628D01*
X91860186Y-29960636D01*
X91926644Y-30088892D01*
X91926646Y-30088895D01*
X92025245Y-30194469D01*
X92148672Y-30269526D01*
X92287772Y-30308500D01*
X92287773Y-30308500D01*
X92395943Y-30308500D01*
X92395949Y-30308500D01*
X92503111Y-30293771D01*
X92635609Y-30236219D01*
X92747665Y-30145054D01*
X92830971Y-30027037D01*
X92879346Y-29890921D01*
X92889204Y-29746801D01*
X92876207Y-29684257D01*
X92859815Y-29605371D01*
X92859813Y-29605363D01*
X92819466Y-29527498D01*
X93628318Y-29527498D01*
X93648955Y-29684256D01*
X93648957Y-29684264D01*
X93709462Y-29830336D01*
X93709462Y-29830337D01*
X93802522Y-29951615D01*
X93805718Y-29955780D01*
X93931159Y-30052034D01*
X93931160Y-30052034D01*
X93931161Y-30052035D01*
X93931166Y-30052037D01*
X94077238Y-30112542D01*
X94194809Y-30128020D01*
X94233999Y-30133180D01*
X94234000Y-30133180D01*
X94234001Y-30133180D01*
X94265352Y-30129052D01*
X94390762Y-30112542D01*
X94536841Y-30052034D01*
X94662282Y-29955780D01*
X94663454Y-29954251D01*
X94664588Y-29953472D01*
X94666870Y-29951191D01*
X94667292Y-29951613D01*
X94713875Y-29919594D01*
X94775039Y-29921191D01*
X94816795Y-29951527D01*
X94817130Y-29951193D01*
X94819241Y-29953304D01*
X94820541Y-29954249D01*
X94821718Y-29955782D01*
X94947159Y-30052036D01*
X95093238Y-30112544D01*
X95210809Y-30128022D01*
X95249999Y-30133182D01*
X95250000Y-30133182D01*
X95250001Y-30133182D01*
X95281352Y-30129054D01*
X95406762Y-30112544D01*
X95552841Y-30052036D01*
X95678282Y-29955782D01*
X95679456Y-29954251D01*
X95680591Y-29953471D01*
X95682870Y-29951193D01*
X95683292Y-29951615D01*
X95729874Y-29919594D01*
X95791039Y-29921189D01*
X95832795Y-29951522D01*
X95833130Y-29951188D01*
X95835240Y-29953298D01*
X95836538Y-29954241D01*
X95837709Y-29955767D01*
X95837713Y-29955771D01*
X95837718Y-29955777D01*
X95837721Y-29955779D01*
X95837723Y-29955781D01*
X95837726Y-29955783D01*
X95963159Y-30052031D01*
X95963160Y-30052031D01*
X95963161Y-30052032D01*
X95963171Y-30052036D01*
X96109238Y-30112539D01*
X96226809Y-30128017D01*
X96265999Y-30133177D01*
X96266000Y-30133177D01*
X96266001Y-30133177D01*
X96297352Y-30129049D01*
X96422762Y-30112539D01*
X96568841Y-30052031D01*
X96694282Y-29955777D01*
X96790536Y-29830336D01*
X96795149Y-29819199D01*
X97610796Y-29819199D01*
X97640184Y-29960628D01*
X97640186Y-29960636D01*
X97706644Y-30088892D01*
X97706646Y-30088895D01*
X97805245Y-30194469D01*
X97928672Y-30269526D01*
X98067772Y-30308500D01*
X98067773Y-30308500D01*
X98175943Y-30308500D01*
X98175949Y-30308500D01*
X98283111Y-30293771D01*
X98415609Y-30236219D01*
X98527665Y-30145054D01*
X98610971Y-30027037D01*
X98659346Y-29890921D01*
X98669204Y-29746801D01*
X98656207Y-29684257D01*
X98639815Y-29605371D01*
X98639813Y-29605363D01*
X98573355Y-29477107D01*
X98573353Y-29477104D01*
X98488319Y-29386054D01*
X98474755Y-29371531D01*
X98474754Y-29371530D01*
X98351328Y-29296474D01*
X98212228Y-29257500D01*
X98104051Y-29257500D01*
X97996888Y-29272228D01*
X97864389Y-29329781D01*
X97752334Y-29420945D01*
X97669029Y-29538962D01*
X97620653Y-29675078D01*
X97610796Y-29819199D01*
X96795149Y-29819199D01*
X96851044Y-29684257D01*
X96871682Y-29527495D01*
X96851044Y-29370733D01*
X96790537Y-29224656D01*
X96790537Y-29224655D01*
X96694286Y-29099218D01*
X96694284Y-29099216D01*
X96694282Y-29099213D01*
X96694277Y-29099209D01*
X96694276Y-29099208D01*
X96611322Y-29035556D01*
X96568841Y-29002959D01*
X96568840Y-29002958D01*
X96568838Y-29002957D01*
X96422766Y-28942452D01*
X96422758Y-28942450D01*
X96266001Y-28921813D01*
X96265999Y-28921813D01*
X96109241Y-28942450D01*
X96109233Y-28942452D01*
X95963161Y-29002957D01*
X95963160Y-29002957D01*
X95837723Y-29099208D01*
X95837714Y-29099217D01*
X95836536Y-29100753D01*
X95835394Y-29101537D01*
X95833130Y-29103802D01*
X95832710Y-29103382D01*
X95786109Y-29135405D01*
X95724945Y-29133799D01*
X95683204Y-29103472D01*
X95682870Y-29103807D01*
X95680760Y-29101697D01*
X95679459Y-29100752D01*
X95678284Y-29099221D01*
X95678282Y-29099218D01*
X95678277Y-29099214D01*
X95678276Y-29099213D01*
X95552838Y-29002962D01*
X95406766Y-28942457D01*
X95406758Y-28942455D01*
X95250001Y-28921818D01*
X95249999Y-28921818D01*
X95093241Y-28942455D01*
X95093233Y-28942457D01*
X94947161Y-29002962D01*
X94947160Y-29002962D01*
X94821723Y-29099213D01*
X94821713Y-29099223D01*
X94820535Y-29100759D01*
X94819394Y-29101542D01*
X94817131Y-29103806D01*
X94816711Y-29103386D01*
X94770106Y-29135408D01*
X94708942Y-29133800D01*
X94667204Y-29103470D01*
X94666870Y-29103805D01*
X94664757Y-29101692D01*
X94663457Y-29100747D01*
X94662282Y-29099216D01*
X94662277Y-29099212D01*
X94662276Y-29099211D01*
X94579318Y-29035556D01*
X94536841Y-29002962D01*
X94536840Y-29002961D01*
X94536838Y-29002960D01*
X94390766Y-28942455D01*
X94390758Y-28942453D01*
X94234001Y-28921816D01*
X94233999Y-28921816D01*
X94077241Y-28942453D01*
X94077233Y-28942455D01*
X93931161Y-29002960D01*
X93931160Y-29002960D01*
X93805723Y-29099211D01*
X93805713Y-29099221D01*
X93709462Y-29224658D01*
X93709462Y-29224659D01*
X93648957Y-29370731D01*
X93648955Y-29370739D01*
X93628318Y-29527497D01*
X93628318Y-29527498D01*
X92819466Y-29527498D01*
X92793355Y-29477107D01*
X92793353Y-29477104D01*
X92708319Y-29386054D01*
X92694755Y-29371531D01*
X92694754Y-29371530D01*
X92571328Y-29296474D01*
X92432228Y-29257500D01*
X92324051Y-29257500D01*
X92216888Y-29272228D01*
X92084389Y-29329781D01*
X91972334Y-29420945D01*
X91889029Y-29538962D01*
X91840653Y-29675078D01*
X91830796Y-29819199D01*
X81165153Y-29819199D01*
X81275186Y-29553556D01*
X81374685Y-29208187D01*
X81434887Y-28853861D01*
X81434890Y-28853841D01*
X81454143Y-28511020D01*
X85979568Y-28511020D01*
X86000205Y-28667778D01*
X86000207Y-28667786D01*
X86060712Y-28813858D01*
X86060712Y-28813859D01*
X86147284Y-28926682D01*
X86156968Y-28939302D01*
X86156972Y-28939305D01*
X86156973Y-28939306D01*
X86161072Y-28942451D01*
X86282409Y-29035556D01*
X86428488Y-29096064D01*
X86546059Y-29111542D01*
X86585249Y-29116702D01*
X86585250Y-29116702D01*
X86585251Y-29116702D01*
X86619082Y-29112248D01*
X86742012Y-29096064D01*
X86888091Y-29035556D01*
X87013532Y-28939302D01*
X87109786Y-28813861D01*
X87170294Y-28667782D01*
X87190932Y-28511020D01*
X87188823Y-28495004D01*
X87170294Y-28354261D01*
X87170294Y-28354258D01*
X87156518Y-28321000D01*
X88734318Y-28321000D01*
X88754955Y-28477758D01*
X88754957Y-28477766D01*
X88815462Y-28623838D01*
X88815462Y-28623839D01*
X88911713Y-28749276D01*
X88911718Y-28749282D01*
X89037159Y-28845536D01*
X89037160Y-28845536D01*
X89037161Y-28845537D01*
X89057209Y-28853841D01*
X89183238Y-28906044D01*
X89300809Y-28921522D01*
X89339999Y-28926682D01*
X89340000Y-28926682D01*
X89340001Y-28926682D01*
X89376984Y-28921813D01*
X89496762Y-28906044D01*
X89642841Y-28845536D01*
X89768282Y-28749282D01*
X89864536Y-28623841D01*
X89925044Y-28477762D01*
X89945681Y-28321004D01*
X100554318Y-28321004D01*
X100574955Y-28477762D01*
X100574957Y-28477770D01*
X100635462Y-28623842D01*
X100635462Y-28623843D01*
X100731710Y-28749276D01*
X100731718Y-28749286D01*
X100857159Y-28845540D01*
X100857160Y-28845540D01*
X100857161Y-28845541D01*
X101003228Y-28906044D01*
X101003238Y-28906048D01*
X101120809Y-28921526D01*
X101159999Y-28926686D01*
X101160000Y-28926686D01*
X101160001Y-28926686D01*
X101196976Y-28921818D01*
X101316762Y-28906048D01*
X101462841Y-28845540D01*
X101588282Y-28749286D01*
X101684536Y-28623845D01*
X101745044Y-28477766D01*
X101765682Y-28321004D01*
X101765681Y-28321000D01*
X101760522Y-28281813D01*
X101745044Y-28164242D01*
X101684537Y-28018165D01*
X101684537Y-28018164D01*
X101588286Y-27892727D01*
X101588285Y-27892726D01*
X101588282Y-27892722D01*
X101588277Y-27892718D01*
X101588276Y-27892717D01*
X101462838Y-27796466D01*
X101316766Y-27735961D01*
X101316758Y-27735959D01*
X101160001Y-27715322D01*
X101159999Y-27715322D01*
X101003241Y-27735959D01*
X101003233Y-27735961D01*
X100857161Y-27796466D01*
X100857160Y-27796466D01*
X100731723Y-27892717D01*
X100731713Y-27892727D01*
X100635462Y-28018164D01*
X100635462Y-28018165D01*
X100574957Y-28164237D01*
X100574955Y-28164245D01*
X100554318Y-28321003D01*
X100554318Y-28321004D01*
X89945681Y-28321004D01*
X89945682Y-28321000D01*
X89925044Y-28164238D01*
X89891286Y-28082738D01*
X89864537Y-28018161D01*
X89864537Y-28018160D01*
X89768286Y-27892723D01*
X89768285Y-27892722D01*
X89768282Y-27892718D01*
X89768277Y-27892714D01*
X89768276Y-27892713D01*
X89642846Y-27796468D01*
X89642841Y-27796464D01*
X89642840Y-27796463D01*
X89642838Y-27796462D01*
X89496766Y-27735957D01*
X89496758Y-27735955D01*
X89340001Y-27715318D01*
X89339999Y-27715318D01*
X89183241Y-27735955D01*
X89183233Y-27735957D01*
X89037161Y-27796462D01*
X89037160Y-27796462D01*
X88911723Y-27892713D01*
X88911713Y-27892723D01*
X88815462Y-28018160D01*
X88815462Y-28018161D01*
X88754957Y-28164233D01*
X88754955Y-28164241D01*
X88734318Y-28320999D01*
X88734318Y-28321000D01*
X87156518Y-28321000D01*
X87109787Y-28208181D01*
X87109787Y-28208180D01*
X87013536Y-28082743D01*
X87013535Y-28082742D01*
X87013532Y-28082738D01*
X87013527Y-28082734D01*
X87013526Y-28082733D01*
X86888088Y-27986482D01*
X86742016Y-27925977D01*
X86742008Y-27925975D01*
X86585251Y-27905338D01*
X86585249Y-27905338D01*
X86428491Y-27925975D01*
X86428483Y-27925977D01*
X86282411Y-27986482D01*
X86282410Y-27986482D01*
X86156973Y-28082733D01*
X86156963Y-28082743D01*
X86060712Y-28208180D01*
X86060712Y-28208181D01*
X86000207Y-28354253D01*
X86000205Y-28354261D01*
X85979568Y-28511019D01*
X85979568Y-28511020D01*
X81454143Y-28511020D01*
X81455042Y-28495004D01*
X81455042Y-28494995D01*
X81434890Y-28136158D01*
X81434887Y-28136138D01*
X81374685Y-27781812D01*
X81275186Y-27436443D01*
X81137641Y-27104379D01*
X80963789Y-26789819D01*
X80755801Y-26496686D01*
X80683155Y-26415397D01*
X79473609Y-27624942D01*
X79357368Y-27475596D01*
X79174477Y-27307232D01*
X79119882Y-27271563D01*
X80329601Y-26061843D01*
X80248313Y-25989198D01*
X79955180Y-25781210D01*
X79640619Y-25607358D01*
X79640620Y-25607358D01*
X79308556Y-25469813D01*
X78963187Y-25370314D01*
X78608861Y-25310112D01*
X78608841Y-25310109D01*
X78250005Y-25289958D01*
X78249995Y-25289958D01*
X77891158Y-25310109D01*
X77891138Y-25310112D01*
X77536812Y-25370314D01*
X77191443Y-25469813D01*
X76859378Y-25607359D01*
X76858131Y-25607960D01*
X76857830Y-25608000D01*
X76856818Y-25608420D01*
X76856707Y-25608152D01*
X76797498Y-25616167D01*
X76743621Y-25587168D01*
X76717080Y-25532039D01*
X76728011Y-25471838D01*
X76747984Y-25446062D01*
X76798201Y-25399642D01*
X76804112Y-25394594D01*
X76911277Y-25310112D01*
X77158709Y-25115051D01*
X77164955Y-25110513D01*
X77540435Y-24859625D01*
X77547013Y-24855594D01*
X77941013Y-24634943D01*
X77947899Y-24631435D01*
X78357977Y-24442387D01*
X78365113Y-24439431D01*
X78788775Y-24283133D01*
X78796131Y-24280744D01*
X79230732Y-24158173D01*
X79238254Y-24156367D01*
X79681142Y-24068271D01*
X79688780Y-24067062D01*
X80137200Y-24013988D01*
X80144927Y-24013379D01*
X80598066Y-23995576D01*
X80601953Y-23995500D01*
X80665892Y-23995500D01*
X109834108Y-23995500D01*
X109898047Y-23995500D01*
X109901934Y-23995576D01*
G37*
%TD.AperFunction*%
%TD*%
M02*
