%TF.GenerationSoftware,KiCad,Pcbnew,7.0.10*%
%TF.CreationDate,2024-01-15T20:05:46+01:00*%
%TF.ProjectId,tiny-scarab,74696e79-2d73-4636-9172-61622e6b6963,0.1*%
%TF.SameCoordinates,Original*%
%TF.FileFunction,Copper,L1,Top*%
%TF.FilePolarity,Positive*%
%FSLAX46Y46*%
G04 Gerber Fmt 4.6, Leading zero omitted, Abs format (unit mm)*
G04 Created by KiCad (PCBNEW 7.0.10) date 2024-01-15 20:05:46*
%MOMM*%
%LPD*%
G01*
G04 APERTURE LIST*
G04 Aperture macros list*
%AMRoundRect*
0 Rectangle with rounded corners*
0 $1 Rounding radius*
0 $2 $3 $4 $5 $6 $7 $8 $9 X,Y pos of 4 corners*
0 Add a 4 corners polygon primitive as box body*
4,1,4,$2,$3,$4,$5,$6,$7,$8,$9,$2,$3,0*
0 Add four circle primitives for the rounded corners*
1,1,$1+$1,$2,$3*
1,1,$1+$1,$4,$5*
1,1,$1+$1,$6,$7*
1,1,$1+$1,$8,$9*
0 Add four rect primitives between the rounded corners*
20,1,$1+$1,$2,$3,$4,$5,0*
20,1,$1+$1,$4,$5,$6,$7,0*
20,1,$1+$1,$6,$7,$8,$9,0*
20,1,$1+$1,$8,$9,$2,$3,0*%
G04 Aperture macros list end*
%TA.AperFunction,ComponentPad*%
%ADD10C,6.000000*%
%TD*%
%TA.AperFunction,SMDPad,CuDef*%
%ADD11RoundRect,0.155000X0.212500X0.155000X-0.212500X0.155000X-0.212500X-0.155000X0.212500X-0.155000X0*%
%TD*%
%TA.AperFunction,SMDPad,CuDef*%
%ADD12RoundRect,0.160000X-0.197500X-0.160000X0.197500X-0.160000X0.197500X0.160000X-0.197500X0.160000X0*%
%TD*%
%TA.AperFunction,SMDPad,CuDef*%
%ADD13RoundRect,0.250000X-0.650000X0.800000X-0.650000X-0.800000X0.650000X-0.800000X0.650000X0.800000X0*%
%TD*%
%TA.AperFunction,SMDPad,CuDef*%
%ADD14RoundRect,0.100000X-0.800000X0.950000X-0.800000X-0.950000X0.800000X-0.950000X0.800000X0.950000X0*%
%TD*%
%TA.AperFunction,SMDPad,CuDef*%
%ADD15RoundRect,0.160000X-0.160000X0.197500X-0.160000X-0.197500X0.160000X-0.197500X0.160000X0.197500X0*%
%TD*%
%TA.AperFunction,SMDPad,CuDef*%
%ADD16RoundRect,0.155000X-0.155000X0.212500X-0.155000X-0.212500X0.155000X-0.212500X0.155000X0.212500X0*%
%TD*%
%TA.AperFunction,SMDPad,CuDef*%
%ADD17RoundRect,0.150000X-0.150000X0.587500X-0.150000X-0.587500X0.150000X-0.587500X0.150000X0.587500X0*%
%TD*%
%TA.AperFunction,SMDPad,CuDef*%
%ADD18RoundRect,0.155000X-0.212500X-0.155000X0.212500X-0.155000X0.212500X0.155000X-0.212500X0.155000X0*%
%TD*%
%TA.AperFunction,SMDPad,CuDef*%
%ADD19RoundRect,0.155000X0.155000X-0.212500X0.155000X0.212500X-0.155000X0.212500X-0.155000X-0.212500X0*%
%TD*%
%TA.AperFunction,SMDPad,CuDef*%
%ADD20RoundRect,0.108750X0.191250X-0.108750X0.191250X0.108750X-0.191250X0.108750X-0.191250X-0.108750X0*%
%TD*%
%TA.AperFunction,SMDPad,CuDef*%
%ADD21RoundRect,0.030000X0.370000X0.220000X-0.370000X0.220000X-0.370000X-0.220000X0.370000X-0.220000X0*%
%TD*%
%TA.AperFunction,SMDPad,CuDef*%
%ADD22RoundRect,0.250000X-0.250000X-0.475000X0.250000X-0.475000X0.250000X0.475000X-0.250000X0.475000X0*%
%TD*%
%TA.AperFunction,SMDPad,CuDef*%
%ADD23RoundRect,0.200000X0.550000X-0.625000X0.550000X0.625000X-0.550000X0.625000X-0.550000X-0.625000X0*%
%TD*%
%TA.AperFunction,SMDPad,CuDef*%
%ADD24RoundRect,0.250000X-0.475000X0.250000X-0.475000X-0.250000X0.475000X-0.250000X0.475000X0.250000X0*%
%TD*%
%TA.AperFunction,SMDPad,CuDef*%
%ADD25RoundRect,0.250001X-0.462499X-0.624999X0.462499X-0.624999X0.462499X0.624999X-0.462499X0.624999X0*%
%TD*%
%TA.AperFunction,SMDPad,CuDef*%
%ADD26R,1.900000X0.950000*%
%TD*%
%TA.AperFunction,SMDPad,CuDef*%
%ADD27R,1.900000X3.250000*%
%TD*%
%TA.AperFunction,ComponentPad*%
%ADD28C,1.400000*%
%TD*%
%TA.AperFunction,SMDPad,CuDef*%
%ADD29RoundRect,0.100000X0.100000X-0.637500X0.100000X0.637500X-0.100000X0.637500X-0.100000X-0.637500X0*%
%TD*%
%TA.AperFunction,ConnectorPad*%
%ADD30C,0.787400*%
%TD*%
%TA.AperFunction,SMDPad,CuDef*%
%ADD31RoundRect,0.250000X0.475000X-0.250000X0.475000X0.250000X-0.475000X0.250000X-0.475000X-0.250000X0*%
%TD*%
%TA.AperFunction,SMDPad,CuDef*%
%ADD32C,1.000000*%
%TD*%
%TA.AperFunction,SMDPad,CuDef*%
%ADD33RoundRect,0.250000X0.250000X0.475000X-0.250000X0.475000X-0.250000X-0.475000X0.250000X-0.475000X0*%
%TD*%
%TA.AperFunction,SMDPad,CuDef*%
%ADD34RoundRect,0.160000X-0.252791X0.026517X0.026517X-0.252791X0.252791X-0.026517X-0.026517X0.252791X0*%
%TD*%
%TA.AperFunction,SMDPad,CuDef*%
%ADD35RoundRect,0.160000X0.197500X0.160000X-0.197500X0.160000X-0.197500X-0.160000X0.197500X-0.160000X0*%
%TD*%
%TA.AperFunction,SMDPad,CuDef*%
%ADD36RoundRect,0.237500X-0.237500X0.287500X-0.237500X-0.287500X0.237500X-0.287500X0.237500X0.287500X0*%
%TD*%
%TA.AperFunction,SMDPad,CuDef*%
%ADD37RoundRect,0.200000X-0.550000X0.625000X-0.550000X-0.625000X0.550000X-0.625000X0.550000X0.625000X0*%
%TD*%
%TA.AperFunction,SMDPad,CuDef*%
%ADD38RoundRect,0.160000X0.160000X-0.197500X0.160000X0.197500X-0.160000X0.197500X-0.160000X-0.197500X0*%
%TD*%
%TA.AperFunction,SMDPad,CuDef*%
%ADD39R,1.400000X1.200000*%
%TD*%
%TA.AperFunction,SMDPad,CuDef*%
%ADD40RoundRect,0.200000X-0.625000X-0.550000X0.625000X-0.550000X0.625000X0.550000X-0.625000X0.550000X0*%
%TD*%
%TA.AperFunction,SMDPad,CuDef*%
%ADD41RoundRect,0.237500X0.237500X-0.287500X0.237500X0.287500X-0.237500X0.287500X-0.237500X-0.287500X0*%
%TD*%
%TA.AperFunction,SMDPad,CuDef*%
%ADD42RoundRect,0.157500X-0.257500X0.157500X-0.257500X-0.157500X0.257500X-0.157500X0.257500X0.157500X0*%
%TD*%
%TA.AperFunction,SMDPad,CuDef*%
%ADD43R,3.180000X1.270000*%
%TD*%
%TA.AperFunction,SMDPad,CuDef*%
%ADD44RoundRect,0.100000X-0.100000X0.637500X-0.100000X-0.637500X0.100000X-0.637500X0.100000X0.637500X0*%
%TD*%
%TA.AperFunction,SMDPad,CuDef*%
%ADD45RoundRect,0.150000X0.150000X0.421750X-0.150000X0.421750X-0.150000X-0.421750X0.150000X-0.421750X0*%
%TD*%
%TA.AperFunction,SMDPad,CuDef*%
%ADD46RoundRect,0.150000X0.150000X0.425000X-0.150000X0.425000X-0.150000X-0.425000X0.150000X-0.425000X0*%
%TD*%
%TA.AperFunction,SMDPad,CuDef*%
%ADD47RoundRect,0.075000X0.075000X0.500000X-0.075000X0.500000X-0.075000X-0.500000X0.075000X-0.500000X0*%
%TD*%
%TA.AperFunction,SMDPad,CuDef*%
%ADD48RoundRect,0.250000X0.840000X0.750000X-0.840000X0.750000X-0.840000X-0.750000X0.840000X-0.750000X0*%
%TD*%
%TA.AperFunction,SMDPad,CuDef*%
%ADD49R,1.600200X1.244600*%
%TD*%
%TA.AperFunction,ViaPad*%
%ADD50C,0.800000*%
%TD*%
%TA.AperFunction,ViaPad*%
%ADD51C,1.200000*%
%TD*%
%TA.AperFunction,Conductor*%
%ADD52C,0.300000*%
%TD*%
%TA.AperFunction,Conductor*%
%ADD53C,0.400000*%
%TD*%
%TA.AperFunction,Conductor*%
%ADD54C,0.200000*%
%TD*%
G04 APERTURE END LIST*
D10*
%TO.P,J6,1,Pin_1*%
%TO.N,GND*%
X78250000Y-28495000D03*
%TD*%
D11*
%TO.P,C15,1*%
%TO.N,+3V3*%
X109089000Y-48228250D03*
%TO.P,C15,2*%
%TO.N,GND*%
X107954000Y-48228250D03*
%TD*%
D12*
%TO.P,R15,1*%
%TO.N,/RST_IN*%
X86111750Y-35306000D03*
%TO.P,R15,2*%
%TO.N,+3V3*%
X87306750Y-35306000D03*
%TD*%
D13*
%TO.P,D1,1,A1*%
%TO.N,+5V*%
X102171500Y-32947250D03*
D14*
%TO.P,D1,2,A2*%
%TO.N,GND*%
X102171500Y-37347250D03*
%TD*%
D15*
%TO.P,R8,1*%
%TO.N,/SWCLK_IN*%
X99504500Y-42741250D03*
%TO.P,R8,2*%
%TO.N,/WCH-LinkE-R0-1v3/PB13*%
X99504500Y-43936250D03*
%TD*%
D16*
%TO.P,C27,1*%
%TO.N,VDD*%
X91503500Y-55534750D03*
%TO.P,C27,2*%
%TO.N,GND*%
X91503500Y-56669750D03*
%TD*%
D17*
%TO.P,Q3,1,G*%
%TO.N,Net-(Q3-G)*%
X85309750Y-58022250D03*
%TO.P,Q3,2,S*%
%TO.N,GND*%
X83409750Y-58022250D03*
%TO.P,Q3,3,D*%
%TO.N,Net-(Q3-D)*%
X84359750Y-59897250D03*
%TD*%
D18*
%TO.P,C6,1*%
%TO.N,+5V*%
X107890500Y-35210750D03*
%TO.P,C6,2*%
%TO.N,GND*%
X109025500Y-35210750D03*
%TD*%
D19*
%TO.P,C11,1*%
%TO.N,+5V*%
X110077250Y-51081750D03*
%TO.P,C11,2*%
%TO.N,GND*%
X110077250Y-49946750D03*
%TD*%
D20*
%TO.P,F2,1*%
%TO.N,Net-(SW5-B)*%
X107124500Y-57490500D03*
%TO.P,F2,2*%
%TO.N,VDD*%
X107124500Y-56555500D03*
%TD*%
D21*
%TO.P,D3,1*%
%TO.N,/USB_N*%
X94159250Y-33718500D03*
%TO.P,D3,2*%
%TO.N,GND*%
X91959250Y-33718500D03*
%TD*%
D10*
%TO.P,J8,1,Pin_1*%
%TO.N,GND*%
X78250000Y-88495000D03*
%TD*%
D22*
%TO.P,C18,1*%
%TO.N,+3V3*%
X84425750Y-48387000D03*
%TO.P,C18,2*%
%TO.N,GND*%
X86325750Y-48387000D03*
%TD*%
D16*
%TO.P,C10,1*%
%TO.N,+5V*%
X110077250Y-52328000D03*
%TO.P,C10,2*%
%TO.N,GND*%
X110077250Y-53463000D03*
%TD*%
D23*
%TO.P,SW2,1,1*%
%TO.N,/WCH-LinkE-R0-1v3/IAP*%
X106140250Y-33160000D03*
%TO.P,SW2,2,2*%
%TO.N,GND*%
X106140250Y-25260000D03*
%TD*%
D15*
%TO.P,R12,1*%
%TO.N,/WCH-LinkE-R0-1v3/LED_CON*%
X90328750Y-42360250D03*
%TO.P,R12,2*%
%TO.N,Net-(Q1-G)*%
X90328750Y-43555250D03*
%TD*%
D18*
%TO.P,C28,1*%
%TO.N,VDD*%
X93317250Y-53467000D03*
%TO.P,C28,2*%
%TO.N,GND*%
X94452250Y-53467000D03*
%TD*%
D24*
%TO.P,C31,1*%
%TO.N,VDD*%
X101060250Y-59152750D03*
%TO.P,C31,2*%
%TO.N,GND*%
X101060250Y-61052750D03*
%TD*%
D11*
%TO.P,C13,1*%
%TO.N,+5V*%
X109089000Y-52800250D03*
%TO.P,C13,2*%
%TO.N,GND*%
X107954000Y-52800250D03*
%TD*%
D16*
%TO.P,C33,1*%
%TO.N,VDD*%
X99599750Y-53185250D03*
%TO.P,C33,2*%
%TO.N,GND*%
X99599750Y-54320250D03*
%TD*%
D25*
%TO.P,F1,1*%
%TO.N,/USB/VBUS*%
X96524750Y-34321750D03*
%TO.P,F1,2*%
%TO.N,+5V*%
X99499750Y-34321750D03*
%TD*%
D11*
%TO.P,C24,1*%
%TO.N,GND*%
X89150000Y-41338500D03*
%TO.P,C24,2*%
%TO.N,Net-(C24-Pad2)*%
X88015000Y-41338500D03*
%TD*%
D23*
%TO.P,SW3,1,1*%
%TO.N,/WCH-LinkE-R0-1v3/ModeS*%
X84359750Y-33160000D03*
%TO.P,SW3,2,2*%
%TO.N,GND*%
X84359750Y-25260000D03*
%TD*%
D26*
%TO.P,U1,1,VI*%
%TO.N,+5V*%
X108364750Y-51671250D03*
%TO.P,U1,2,GND*%
%TO.N,GND*%
X108364750Y-49371250D03*
D27*
X102264750Y-49371250D03*
D26*
%TO.P,U1,3,VO*%
%TO.N,+3V3*%
X108364750Y-47071250D03*
%TD*%
D28*
%TO.P,SW5,1,A*%
%TO.N,+3V3*%
X104394000Y-55158000D03*
%TO.P,SW5,2,B*%
%TO.N,Net-(SW5-B)*%
X104394000Y-57658000D03*
%TO.P,SW5,3,C*%
%TO.N,+5V*%
X104394000Y-60158000D03*
%TD*%
D11*
%TO.P,C42,1*%
%TO.N,GND*%
X91404250Y-53625750D03*
%TO.P,C42,2*%
%TO.N,/XO*%
X90269250Y-53625750D03*
%TD*%
D18*
%TO.P,C8,1*%
%TO.N,+5V*%
X109033500Y-37052250D03*
%TO.P,C8,2*%
%TO.N,GND*%
X110168500Y-37052250D03*
%TD*%
D29*
%TO.P,U2,1,NRST*%
%TO.N,/RST_IN*%
X92579000Y-44582000D03*
%TO.P,U2,2,PA5*%
%TO.N,unconnected-(U2-PA5-Pad2)*%
X93229000Y-44582000D03*
%TO.P,U2,3,PB10*%
%TO.N,Net-(U2-PB10)*%
X93879000Y-44582000D03*
%TO.P,U2,4,PB11*%
%TO.N,Net-(U2-PB11)*%
X94529000Y-44582000D03*
%TO.P,U2,5,PB12*%
%TO.N,unconnected-(U2-PB12-Pad5)*%
X95179000Y-44582000D03*
%TO.P,U2,6,PB13*%
%TO.N,/WCH-LinkE-R0-1v3/PB13*%
X95829000Y-44582000D03*
%TO.P,U2,7,PB14*%
%TO.N,unconnected-(U2-PB14-Pad7)*%
X96479000Y-44582000D03*
%TO.P,U2,8,PB15*%
%TO.N,unconnected-(U2-PB15-Pad8)*%
X97129000Y-44582000D03*
%TO.P,U2,9,PC6*%
%TO.N,/WCH-LinkE-R0-1v3/PC6*%
X97779000Y-44582000D03*
%TO.P,U2,10,PC7*%
%TO.N,/WCH-LinkE-R0-1v3/IAP*%
X98429000Y-44582000D03*
%TO.P,U2,11,PC8*%
%TO.N,/RST_OUT*%
X98429000Y-38857000D03*
%TO.P,U2,12,PC9*%
%TO.N,/WCH-LinkE-R0-1v3/LED_CON*%
X97779000Y-38857000D03*
%TO.P,U2,13,PA9*%
%TO.N,/SWDIO_IN*%
X97129000Y-38857000D03*
%TO.P,U2,14,VDD*%
%TO.N,+3V3*%
X96479000Y-38857000D03*
%TO.P,U2,15,PA14*%
%TO.N,/SWCLK_IN*%
X95829000Y-38857000D03*
%TO.P,U2,16,PB6*%
%TO.N,/USB_N*%
X95179000Y-38857000D03*
%TO.P,U2,17,PB7*%
%TO.N,/USB_P*%
X94529000Y-38857000D03*
%TO.P,U2,18,GND*%
%TO.N,GND*%
X93879000Y-38857000D03*
%TO.P,U2,19,PD0*%
%TO.N,/WCH-LinkE-R0-1v3/PD0*%
X93229000Y-38857000D03*
%TO.P,U2,20,PD1*%
%TO.N,/WCH-LinkE-R0-1v3/PD1*%
X92579000Y-38857000D03*
%TD*%
D19*
%TO.P,C26,1*%
%TO.N,VDD*%
X90011250Y-56669750D03*
%TO.P,C26,2*%
%TO.N,GND*%
X90011250Y-55534750D03*
%TD*%
D10*
%TO.P,J7,1,Pin_1*%
%TO.N,GND*%
X112250000Y-88495000D03*
%TD*%
D11*
%TO.P,C12,1*%
%TO.N,+5V*%
X109089000Y-53721000D03*
%TO.P,C12,2*%
%TO.N,GND*%
X107954000Y-53721000D03*
%TD*%
%TO.P,C41,1*%
%TO.N,GND*%
X91404250Y-54546500D03*
%TO.P,C41,2*%
%TO.N,/XI*%
X90269250Y-54546500D03*
%TD*%
D13*
%TO.P,D2,1,A1*%
%TO.N,+5V*%
X102425500Y-39837000D03*
D14*
%TO.P,D2,2,A2*%
%TO.N,GND*%
X102425500Y-44237000D03*
%TD*%
D19*
%TO.P,C17,1*%
%TO.N,+3V3*%
X108997750Y-45906500D03*
%TO.P,C17,2*%
%TO.N,GND*%
X108997750Y-44771500D03*
%TD*%
D30*
%TO.P,J2,1,5V*%
%TO.N,+5V*%
X105568750Y-37909500D03*
%TO.P,J2,2,RST*%
%TO.N,/RST_IN*%
X105568750Y-39179500D03*
%TO.P,J2,3,3V3*%
%TO.N,unconnected-(J2-3V3-Pad3)*%
X105568750Y-40449500D03*
%TO.P,J2,4,TDI*%
%TO.N,unconnected-(J2-TDI-Pad4)*%
X105568750Y-41719500D03*
%TO.P,J2,5,GND*%
%TO.N,GND*%
X105568750Y-42989500D03*
%TO.P,J2,6,TDO*%
%TO.N,unconnected-(J2-TDO-Pad6)*%
X106838750Y-42989500D03*
%TO.P,J2,7,TMS/SWDIO*%
%TO.N,/SWDIO_IN*%
X106838750Y-41719500D03*
%TO.P,J2,8,TX*%
%TO.N,unconnected-(J2-TX-Pad8)*%
X106838750Y-40449500D03*
%TO.P,J2,9,TCK/SWCLK*%
%TO.N,/SWCLK_IN*%
X106838750Y-39179500D03*
%TO.P,J2,10,RX*%
%TO.N,unconnected-(J2-RX-Pad10)*%
X106838750Y-37909500D03*
%TD*%
D18*
%TO.P,C29,1*%
%TO.N,Net-(C29-Pad1)*%
X98238500Y-84709000D03*
%TO.P,C29,2*%
%TO.N,GND*%
X99373500Y-84709000D03*
%TD*%
D15*
%TO.P,R5,1*%
%TO.N,/TX*%
X95504000Y-47027500D03*
%TO.P,R5,2*%
%TO.N,Net-(U2-PB11)*%
X95504000Y-48222500D03*
%TD*%
D31*
%TO.P,C37,1*%
%TO.N,VDD*%
X82708750Y-56068000D03*
%TO.P,C37,2*%
%TO.N,GND*%
X82708750Y-54168000D03*
%TD*%
D18*
%TO.P,C5,1*%
%TO.N,+5V*%
X105445750Y-34544000D03*
%TO.P,C5,2*%
%TO.N,GND*%
X106580750Y-34544000D03*
%TD*%
D32*
%TO.P,TP5,1,1*%
%TO.N,/RST_OUT*%
X90297000Y-49720500D03*
%TD*%
D33*
%TO.P,C38,1*%
%TO.N,VDD*%
X83182500Y-60928250D03*
%TO.P,C38,2*%
%TO.N,GND*%
X81282500Y-60928250D03*
%TD*%
D32*
%TO.P,TP6,1,1*%
%TO.N,/TX*%
X92297250Y-49720500D03*
%TD*%
D18*
%TO.P,C20,1*%
%TO.N,+3V3*%
X96206500Y-37179250D03*
%TO.P,C20,2*%
%TO.N,GND*%
X97341500Y-37179250D03*
%TD*%
D15*
%TO.P,R7,1*%
%TO.N,/RX*%
X93599000Y-47027500D03*
%TO.P,R7,2*%
%TO.N,Net-(U2-PB10)*%
X93599000Y-48222500D03*
%TD*%
D34*
%TO.P,R22,1*%
%TO.N,/RST_OUT*%
X94668754Y-77841254D03*
%TO.P,R22,2*%
%TO.N,Net-(C29-Pad1)*%
X95513746Y-78686246D03*
%TD*%
D24*
%TO.P,C32,1*%
%TO.N,VDD*%
X107664250Y-58549500D03*
%TO.P,C32,2*%
%TO.N,GND*%
X107664250Y-60449500D03*
%TD*%
D18*
%TO.P,C9,1*%
%TO.N,+5V*%
X109033500Y-37973000D03*
%TO.P,C9,2*%
%TO.N,GND*%
X110168500Y-37973000D03*
%TD*%
D35*
%TO.P,R13,1*%
%TO.N,Net-(Q1-D)*%
X87529000Y-33401000D03*
%TO.P,R13,2*%
%TO.N,Net-(LED2-K)*%
X86334000Y-33401000D03*
%TD*%
%TO.P,R14,1*%
%TO.N,Net-(Q2-D)*%
X87306750Y-34353500D03*
%TO.P,R14,2*%
%TO.N,Net-(LED3-K)*%
X86111750Y-34353500D03*
%TD*%
D32*
%TO.P,TP1,1,1*%
%TO.N,+5V*%
X100393500Y-51720750D03*
%TD*%
D36*
%TO.P,LED3,1,K*%
%TO.N,Net-(LED3-K)*%
X87693500Y-26747500D03*
%TO.P,LED3,2,A*%
%TO.N,+3V3*%
X87693500Y-28497500D03*
%TD*%
%TO.P,LED1,1,K*%
%TO.N,GND*%
X102806500Y-26747500D03*
%TO.P,LED1,2,A*%
%TO.N,Net-(LED1-A)*%
X102806500Y-28497500D03*
%TD*%
D11*
%TO.P,C36,1*%
%TO.N,VDD*%
X85371750Y-52705000D03*
%TO.P,C36,2*%
%TO.N,GND*%
X84236750Y-52705000D03*
%TD*%
D17*
%TO.P,Q1,1,G*%
%TO.N,Net-(Q1-G)*%
X89119750Y-42655250D03*
%TO.P,Q1,2,S*%
%TO.N,GND*%
X87219750Y-42655250D03*
%TO.P,Q1,3,D*%
%TO.N,Net-(Q1-D)*%
X88169750Y-44530250D03*
%TD*%
D37*
%TO.P,SW1,1,1*%
%TO.N,/RST_IN*%
X84359750Y-35864500D03*
%TO.P,SW1,2,2*%
%TO.N,GND*%
X84359750Y-43764500D03*
%TD*%
D22*
%TO.P,C40,1*%
%TO.N,VDD*%
X95030250Y-83820000D03*
%TO.P,C40,2*%
%TO.N,GND*%
X96930250Y-83820000D03*
%TD*%
D38*
%TO.P,R4,1*%
%TO.N,/TX*%
X92646500Y-48222500D03*
%TO.P,R4,2*%
%TO.N,Net-(U2-PB10)*%
X92646500Y-47027500D03*
%TD*%
D12*
%TO.P,R18,1*%
%TO.N,Net-(C24-Pad2)*%
X89953500Y-35877500D03*
%TO.P,R18,2*%
%TO.N,/WCH-LinkE-R0-1v3/PD1*%
X91148500Y-35877500D03*
%TD*%
D11*
%TO.P,C21,1*%
%TO.N,+3V3*%
X99532250Y-37179250D03*
%TO.P,C21,2*%
%TO.N,GND*%
X98397250Y-37179250D03*
%TD*%
D19*
%TO.P,C34,1*%
%TO.N,VDD*%
X99599750Y-60956000D03*
%TO.P,C34,2*%
%TO.N,GND*%
X99599750Y-59821000D03*
%TD*%
D10*
%TO.P,J5,1,Pin_1*%
%TO.N,GND*%
X112250000Y-28495000D03*
%TD*%
D38*
%TO.P,R6,1*%
%TO.N,/RX*%
X94551500Y-48222500D03*
%TO.P,R6,2*%
%TO.N,Net-(U2-PB11)*%
X94551500Y-47027500D03*
%TD*%
D32*
%TO.P,TP4,1,1*%
%TO.N,/SWDIO_OUT*%
X96297750Y-49720500D03*
%TD*%
D31*
%TO.P,C30,1*%
%TO.N,VDD*%
X101060250Y-55972750D03*
%TO.P,C30,2*%
%TO.N,GND*%
X101060250Y-54072750D03*
%TD*%
D38*
%TO.P,R3,1*%
%TO.N,+5V*%
X102425500Y-31014000D03*
%TO.P,R3,2*%
%TO.N,Net-(LED1-A)*%
X102425500Y-29819000D03*
%TD*%
D15*
%TO.P,R25,1*%
%TO.N,Net-(LED4-K)*%
X87471250Y-58806750D03*
%TO.P,R25,2*%
%TO.N,Net-(Q3-D)*%
X87471250Y-60001750D03*
%TD*%
D35*
%TO.P,R2,1*%
%TO.N,/USB/CC2*%
X87148000Y-25400000D03*
%TO.P,R2,2*%
%TO.N,GND*%
X85953000Y-25400000D03*
%TD*%
D39*
%TO.P,XTAL1,1,1*%
%TO.N,Net-(C25-Pad2)*%
X90635000Y-38266000D03*
%TO.P,XTAL1,2,2*%
%TO.N,GND*%
X88435000Y-38266000D03*
%TO.P,XTAL1,3,3*%
%TO.N,Net-(C24-Pad2)*%
X88435000Y-39966000D03*
%TO.P,XTAL1,4,4*%
%TO.N,GND*%
X90635000Y-39966000D03*
%TD*%
D18*
%TO.P,C7,1*%
%TO.N,+5V*%
X108557250Y-36131500D03*
%TO.P,C7,2*%
%TO.N,GND*%
X109692250Y-36131500D03*
%TD*%
D35*
%TO.P,R17,1*%
%TO.N,/WCH-LinkE-R0-1v3/PD1*%
X91148500Y-34925000D03*
%TO.P,R17,2*%
%TO.N,/WCH-LinkE-R0-1v3/ModeS*%
X89953500Y-34925000D03*
%TD*%
D22*
%TO.P,C35,1*%
%TO.N,VDD*%
X86648250Y-51720750D03*
%TO.P,C35,2*%
%TO.N,GND*%
X88548250Y-51720750D03*
%TD*%
D38*
%TO.P,R24,1*%
%TO.N,Net-(Q3-G)*%
X86518750Y-60001750D03*
%TO.P,R24,2*%
%TO.N,/PD0*%
X86518750Y-58806750D03*
%TD*%
D40*
%TO.P,SW4,1,1*%
%TO.N,Net-(C29-Pad1)*%
X99269250Y-83439000D03*
%TO.P,SW4,2,2*%
%TO.N,GND*%
X107169250Y-83439000D03*
%TD*%
D41*
%TO.P,LED4,1,K*%
%TO.N,Net-(LED4-K)*%
X88773000Y-59676000D03*
%TO.P,LED4,2,A*%
%TO.N,+5V*%
X88773000Y-57926000D03*
%TD*%
D17*
%TO.P,Q2,1,G*%
%TO.N,Net-(Q1-D)*%
X89119750Y-45385750D03*
%TO.P,Q2,2,S*%
%TO.N,GND*%
X87219750Y-45385750D03*
%TO.P,Q2,3,D*%
%TO.N,Net-(Q2-D)*%
X88169750Y-47260750D03*
%TD*%
D22*
%TO.P,C39,1*%
%TO.N,VDD*%
X91601250Y-83820000D03*
%TO.P,C39,2*%
%TO.N,GND*%
X93501250Y-83820000D03*
%TD*%
D12*
%TO.P,R1,1*%
%TO.N,/USB/CC1*%
X103352000Y-25400000D03*
%TO.P,R1,2*%
%TO.N,GND*%
X104547000Y-25400000D03*
%TD*%
D42*
%TO.P,D5,1,K*%
%TO.N,+5V*%
X109283500Y-39683750D03*
%TO.P,D5,2,A*%
%TO.N,+3V3*%
X109283500Y-41913750D03*
%TD*%
D11*
%TO.P,C14,1*%
%TO.N,+5V*%
X109089000Y-50514250D03*
%TO.P,C14,2*%
%TO.N,GND*%
X107954000Y-50514250D03*
%TD*%
D15*
%TO.P,R11,1*%
%TO.N,/WCH-LinkE-R0-1v3/LED_CON*%
X90328750Y-44582750D03*
%TO.P,R11,2*%
%TO.N,+3V3*%
X90328750Y-45777750D03*
%TD*%
D38*
%TO.P,R10,1*%
%TO.N,/WCH-LinkE-R0-1v3/PC6*%
X99504500Y-41555000D03*
%TO.P,R10,2*%
%TO.N,/SWDIO_IN*%
X99504500Y-40360000D03*
%TD*%
D18*
%TO.P,C2,1*%
%TO.N,GND*%
X91253500Y-32448500D03*
%TO.P,C2,2*%
%TO.N,/USB/VBUS*%
X92388500Y-32448500D03*
%TD*%
%TO.P,C19,1*%
%TO.N,+3V3*%
X92745750Y-37179250D03*
%TO.P,C19,2*%
%TO.N,GND*%
X93880750Y-37179250D03*
%TD*%
D43*
%TO.P,J4,1,Pin_1*%
%TO.N,VDD*%
X100394000Y-64262000D03*
%TO.P,J4,2,Pin_2*%
X105854000Y-64262000D03*
%TO.P,J4,3,Pin_3*%
%TO.N,GND*%
X100394000Y-66802000D03*
%TO.P,J4,4,Pin_4*%
X105854000Y-66802000D03*
%TO.P,J4,5,Pin_5*%
%TO.N,/PD3*%
X100394000Y-69342000D03*
%TO.P,J4,6,Pin_6*%
%TO.N,GND*%
X105854000Y-69342000D03*
%TO.P,J4,7,Pin_7*%
%TO.N,/PD2*%
X100394000Y-71882000D03*
%TO.P,J4,8,Pin_8*%
%TO.N,/PC7*%
X105854000Y-71882000D03*
%TO.P,J4,9,Pin_9*%
%TO.N,/PC6*%
X100394000Y-74422000D03*
%TO.P,J4,10,Pin_10*%
%TO.N,/PC5*%
X105854000Y-74422000D03*
%TO.P,J4,11,Pin_11*%
%TO.N,/PC4*%
X100394000Y-76962000D03*
%TO.P,J4,12,Pin_12*%
%TO.N,/PC3*%
X105854000Y-76962000D03*
%TO.P,J4,13,Pin_13*%
%TO.N,/PC2*%
X100394000Y-79502000D03*
%TO.P,J4,14,Pin_14*%
%TO.N,/PC1*%
X105854000Y-79502000D03*
%TD*%
D32*
%TO.P,TP2,1,1*%
%TO.N,GND*%
X100425250Y-49720500D03*
%TD*%
D44*
%TO.P,U3,1,PD4*%
%TO.N,/PD4*%
X98429000Y-54922500D03*
%TO.P,U3,2,PD5*%
%TO.N,/RX*%
X97779000Y-54922500D03*
%TO.P,U3,3,PD6*%
%TO.N,/TX*%
X97129000Y-54922500D03*
%TO.P,U3,4,PD7*%
%TO.N,/RST_OUT*%
X96479000Y-54922500D03*
%TO.P,U3,5,PA1*%
%TO.N,/XI*%
X95829000Y-54922500D03*
%TO.P,U3,6,PA2*%
%TO.N,/XO*%
X95179000Y-54922500D03*
%TO.P,U3,7,VSS*%
%TO.N,GND*%
X94529000Y-54922500D03*
%TO.P,U3,8,PD0*%
%TO.N,/PD0*%
X93879000Y-54922500D03*
%TO.P,U3,9,VDD*%
%TO.N,VDD*%
X93229000Y-54922500D03*
%TO.P,U3,10,PC0*%
%TO.N,/PC0*%
X92579000Y-54922500D03*
%TO.P,U3,11,PC1*%
%TO.N,/PC1*%
X92579000Y-60647500D03*
%TO.P,U3,12,PC2*%
%TO.N,/PC2*%
X93229000Y-60647500D03*
%TO.P,U3,13,PC3*%
%TO.N,/PC3*%
X93879000Y-60647500D03*
%TO.P,U3,14,PC4*%
%TO.N,/PC4*%
X94529000Y-60647500D03*
%TO.P,U3,15,PC5*%
%TO.N,/PC5*%
X95179000Y-60647500D03*
%TO.P,U3,16,PC6*%
%TO.N,/PC6*%
X95829000Y-60647500D03*
%TO.P,U3,17,PC7*%
%TO.N,/PC7*%
X96479000Y-60647500D03*
%TO.P,U3,18,PD1*%
%TO.N,/SWDIO_OUT*%
X97129000Y-60647500D03*
%TO.P,U3,19,PD2*%
%TO.N,/PD2*%
X97779000Y-60647500D03*
%TO.P,U3,20,PD3*%
%TO.N,/PD3*%
X98429000Y-60647500D03*
%TD*%
D11*
%TO.P,C1,1*%
%TO.N,GND*%
X97341500Y-32734250D03*
%TO.P,C1,2*%
%TO.N,/USB/VBUS*%
X96206500Y-32734250D03*
%TD*%
D21*
%TO.P,D4,1*%
%TO.N,/USB_P*%
X94381500Y-35242500D03*
%TO.P,D4,2*%
%TO.N,GND*%
X92181500Y-35242500D03*
%TD*%
D45*
%TO.P,J1,A1,GND*%
%TO.N,GND*%
X98450000Y-30861250D03*
D46*
%TO.P,J1,A4,VBUS*%
%TO.N,/USB/VBUS*%
X97650000Y-30858000D03*
D47*
%TO.P,J1,A5,CC1*%
%TO.N,/USB/CC1*%
X96500000Y-30858000D03*
%TO.P,J1,A6,D+*%
%TO.N,/USB_P*%
X95500000Y-30858000D03*
%TO.P,J1,A7,D-*%
%TO.N,/USB_N*%
X95000000Y-30858000D03*
%TO.P,J1,A8,SBU1*%
%TO.N,unconnected-(J1-SBU1-PadA8)*%
X94000000Y-30858000D03*
D46*
%TO.P,J1,A9,VBUS*%
%TO.N,/USB/VBUS*%
X92850000Y-30858000D03*
D45*
%TO.P,J1,A12,GND*%
%TO.N,GND*%
X92050000Y-30861250D03*
%TO.P,J1,B1,GND*%
X92050000Y-30861250D03*
D46*
%TO.P,J1,B4,VBUS*%
%TO.N,/USB/VBUS*%
X92850000Y-30858000D03*
D47*
%TO.P,J1,B5,CC2*%
%TO.N,/USB/CC2*%
X93500000Y-30858000D03*
%TO.P,J1,B6,D+*%
%TO.N,/USB_P*%
X94500000Y-30858000D03*
%TO.P,J1,B7,D-*%
%TO.N,/USB_N*%
X96000000Y-30858000D03*
%TO.P,J1,B8,SBU2*%
%TO.N,unconnected-(J1-SBU2-PadB8)*%
X97000000Y-30858000D03*
D46*
%TO.P,J1,B9,VBUS*%
%TO.N,/USB/VBUS*%
X97650000Y-30858000D03*
D45*
%TO.P,J1,B12,GND*%
%TO.N,GND*%
X98450000Y-30861250D03*
D48*
%TO.P,J1,S1,SHIELD*%
X100360000Y-30283000D03*
X100360000Y-26353000D03*
X90140000Y-30283000D03*
X90140000Y-26353000D03*
%TD*%
D11*
%TO.P,C3,1*%
%TO.N,+5V*%
X100167250Y-32734250D03*
%TO.P,C3,2*%
%TO.N,GND*%
X99032250Y-32734250D03*
%TD*%
D32*
%TO.P,TP3,1,1*%
%TO.N,+3V3*%
X100425250Y-47720250D03*
%TD*%
D16*
%TO.P,C4,1*%
%TO.N,+5V*%
X104267000Y-33246250D03*
%TO.P,C4,2*%
%TO.N,GND*%
X104267000Y-34381250D03*
%TD*%
D18*
%TO.P,C25,1*%
%TO.N,GND*%
X90237500Y-41338500D03*
%TO.P,C25,2*%
%TO.N,Net-(C25-Pad2)*%
X91372500Y-41338500D03*
%TD*%
D12*
%TO.P,R23,1*%
%TO.N,Net-(C29-Pad1)*%
X98176750Y-82169000D03*
%TO.P,R23,2*%
%TO.N,VDD*%
X99371750Y-82169000D03*
%TD*%
D16*
%TO.P,C16,1*%
%TO.N,+3V3*%
X110077250Y-47629000D03*
%TO.P,C16,2*%
%TO.N,GND*%
X110077250Y-48764000D03*
%TD*%
D12*
%TO.P,R19,1*%
%TO.N,Net-(C25-Pad2)*%
X89953500Y-36830000D03*
%TO.P,R19,2*%
%TO.N,/WCH-LinkE-R0-1v3/PD0*%
X91148500Y-36830000D03*
%TD*%
D38*
%TO.P,R9,1*%
%TO.N,/SWDIO_OUT*%
X100457000Y-43936250D03*
%TO.P,R9,2*%
%TO.N,/SWDIO_IN*%
X100457000Y-42741250D03*
%TD*%
D32*
%TO.P,TP7,1,1*%
%TO.N,/RX*%
X94297500Y-49720500D03*
%TD*%
D16*
%TO.P,C22,1*%
%TO.N,/RST_IN*%
X82518250Y-34865500D03*
%TO.P,C22,2*%
%TO.N,GND*%
X82518250Y-36000500D03*
%TD*%
D15*
%TO.P,R16,1*%
%TO.N,/WCH-LinkE-R0-1v3/IAP*%
X103409750Y-29819000D03*
%TO.P,R16,2*%
%TO.N,+3V3*%
X103409750Y-31014000D03*
%TD*%
D16*
%TO.P,C23,1*%
%TO.N,/WCH-LinkE-R0-1v3/IAP*%
X107759500Y-33087500D03*
%TO.P,C23,2*%
%TO.N,GND*%
X107759500Y-34222500D03*
%TD*%
D49*
%TO.P,XTAL2,1,1*%
%TO.N,/XO*%
X88463999Y-54049750D03*
%TO.P,XTAL2,2,2*%
%TO.N,GND*%
X84764001Y-54049750D03*
%TO.P,XTAL2,3,3*%
%TO.N,/XI*%
X84764001Y-56249750D03*
%TO.P,XTAL2,4,4*%
%TO.N,GND*%
X88463999Y-56249750D03*
%TD*%
D36*
%TO.P,LED2,1,K*%
%TO.N,Net-(LED2-K)*%
X87693500Y-30176500D03*
%TO.P,LED2,2,A*%
%TO.N,+3V3*%
X87693500Y-31926500D03*
%TD*%
D43*
%TO.P,J3,1,Pin_1*%
%TO.N,VDD*%
X84646000Y-64262000D03*
%TO.P,J3,2,Pin_2*%
X90106000Y-64262000D03*
%TO.P,J3,3,Pin_3*%
%TO.N,/PD4*%
X84646000Y-66802000D03*
%TO.P,J3,4,Pin_4*%
%TO.N,VDD*%
X90106000Y-66802000D03*
%TO.P,J3,5,Pin_5*%
%TO.N,GND*%
X84646000Y-69342000D03*
%TO.P,J3,6,Pin_6*%
X90106000Y-69342000D03*
%TO.P,J3,7,Pin_7*%
X84646000Y-71882000D03*
%TO.P,J3,8,Pin_8*%
X90106000Y-71882000D03*
%TO.P,J3,9,Pin_9*%
%TO.N,/PD0*%
X84646000Y-74422000D03*
%TO.P,J3,10,Pin_10*%
%TO.N,/PC0*%
X90106000Y-74422000D03*
%TO.P,J3,11,Pin_11*%
%TO.N,GND*%
X84646000Y-76962000D03*
%TO.P,J3,12,Pin_12*%
X90106000Y-76962000D03*
%TO.P,J3,13,Pin_13*%
X84646000Y-79502000D03*
%TO.P,J3,14,Pin_14*%
X90106000Y-79502000D03*
%TD*%
D50*
%TO.N,+5V*%
X104584500Y-37909500D03*
X104886936Y-35470107D03*
X87675528Y-57850000D03*
X109108999Y-38863923D03*
X100377483Y-31883201D03*
X102874993Y-41545010D03*
X101758750Y-51720750D03*
D51*
X106553000Y-50770753D03*
D50*
X106918002Y-35494941D03*
X110664321Y-45999390D03*
%TO.N,GND*%
X92075000Y-24479250D03*
X111442500Y-79375000D03*
X98171000Y-32162750D03*
X103505000Y-61722000D03*
X86931500Y-56229250D03*
X111442500Y-73025000D03*
X110109000Y-38862000D03*
X78422500Y-36004500D03*
X111569500Y-37973000D03*
X108267500Y-68072000D03*
X85464000Y-42418000D03*
X87376000Y-71882000D03*
X84645502Y-70612000D03*
X95250000Y-28003500D03*
X93757750Y-36258500D03*
X81851500Y-59563000D03*
X99788541Y-58570478D03*
X79057500Y-69850000D03*
X105425875Y-29987875D03*
X79057500Y-79375000D03*
X94535751Y-40325322D03*
X77152500Y-33972500D03*
X102870000Y-42545000D03*
X87344250Y-76930250D03*
X98488500Y-24479250D03*
X103314500Y-66802000D03*
X79057500Y-73025000D03*
X79057500Y-60325000D03*
X105918000Y-35494403D03*
X111442500Y-57150000D03*
X81343500Y-55067997D03*
X102203250Y-34597250D03*
X104584500Y-42989500D03*
X86866099Y-47123194D03*
X111442500Y-60325000D03*
X90106496Y-78263750D03*
X96551750Y-85090000D03*
X98107500Y-34290000D03*
X79057500Y-57150000D03*
X84645500Y-68072002D03*
X87312500Y-79533750D03*
X79057500Y-66675000D03*
X92075000Y-26352500D03*
X83788250Y-37465000D03*
X96266000Y-28003500D03*
X111442500Y-69850000D03*
X99377500Y-31877000D03*
X108902500Y-83502500D03*
X99789253Y-56554574D03*
X79057500Y-82550000D03*
X86296500Y-54049750D03*
X113093500Y-34321750D03*
X111442500Y-53975000D03*
X85153500Y-28511020D03*
X102758753Y-51720750D03*
X93091000Y-85090000D03*
X107950000Y-24479250D03*
X92709986Y-34448750D03*
X88187124Y-45867749D03*
X94586250Y-56356250D03*
X97218500Y-36290250D03*
X111474250Y-63500000D03*
X107315000Y-85090000D03*
X79057500Y-53975000D03*
X84409750Y-58007250D03*
X112045750Y-36131500D03*
X90608676Y-57493490D03*
X90106000Y-80962000D03*
X79089250Y-76200000D03*
X90106500Y-70612000D03*
X88900000Y-37052258D03*
X103187500Y-82232500D03*
X82232500Y-24479250D03*
X79089250Y-63500000D03*
X88090253Y-50355500D03*
X98488500Y-26352500D03*
X106267250Y-60055003D03*
X111474250Y-76200000D03*
D51*
X106553000Y-49371250D03*
D50*
X109914910Y-46661500D03*
X111442500Y-66675000D03*
X111442500Y-82550000D03*
X103346250Y-69342000D03*
%TO.N,+3V3*%
X101822250Y-47085250D03*
X99815112Y-36302838D03*
X96218537Y-36281385D03*
X95535756Y-40322500D03*
X92757748Y-36257704D03*
X86585250Y-28511020D03*
X85867761Y-47065526D03*
D51*
X106553000Y-47971747D03*
D50*
X89153994Y-47135500D03*
X104457500Y-31019750D03*
X84838253Y-37465000D03*
%TO.N,/RST_IN*%
X104584500Y-39179500D03*
X93122750Y-42830750D03*
X85852000Y-36258500D03*
X98440819Y-40528819D03*
%TO.N,/WCH-LinkE-R0-1v3/IAP*%
X108680250Y-33051750D03*
X98479000Y-43152509D03*
%TO.N,/TX*%
X91725750Y-48228250D03*
X96424750Y-47021750D03*
%TO.N,/RST_OUT*%
X96742250Y-56388000D03*
X97720044Y-57556294D03*
%TO.N,/USB/CC1*%
X95212250Y-33858512D03*
X101160000Y-28321004D03*
%TO.N,/USB_P*%
X95250000Y-29527500D03*
X93382746Y-32510719D03*
%TO.N,/USB_N*%
X96266000Y-29527495D03*
X94441058Y-32512443D03*
%TO.N,/USB/CC2*%
X89340000Y-28321000D03*
X94234000Y-29527498D03*
%TO.N,/SWCLK_IN*%
X107759500Y-39179500D03*
X100520500Y-37846000D03*
%TO.N,/SWDIO_IN*%
X101060250Y-41624250D03*
X99409250Y-39370000D03*
X107759500Y-41719500D03*
%TO.N,VDD*%
X101250750Y-83121500D03*
X84645500Y-65531998D03*
X86296500Y-53049747D03*
X106267250Y-59055000D03*
X87090250Y-50355500D03*
X103320750Y-64260717D03*
X90106502Y-65532000D03*
X95520553Y-85090000D03*
X102584250Y-56451500D03*
X93186250Y-56356250D03*
X100393500Y-62611000D03*
X82851503Y-59563000D03*
X81343500Y-56068000D03*
X89901568Y-58200599D03*
X102572756Y-58653744D03*
X92059803Y-85090000D03*
%TO.N,/PD0*%
X86582250Y-57850000D03*
X93313250Y-57658000D03*
%TD*%
D52*
%TO.N,+5V*%
X106963247Y-51181000D02*
X106553000Y-50770753D01*
X110077250Y-51081750D02*
X110737250Y-50421750D01*
D53*
X108557250Y-36131500D02*
X108557250Y-36294250D01*
X104267000Y-33246250D02*
X104747250Y-33246250D01*
D52*
X110059500Y-51671250D02*
X108364750Y-51671250D01*
D53*
X99499750Y-34321750D02*
X100765250Y-34321750D01*
X108557250Y-36040250D02*
X107890500Y-35373500D01*
X105156000Y-34833750D02*
X105156000Y-35201043D01*
X104990250Y-34088500D02*
X105445750Y-34544000D01*
D54*
X100377483Y-31883201D02*
X100677684Y-31583000D01*
X88773000Y-57926000D02*
X87751528Y-57926000D01*
D53*
X100167250Y-32734250D02*
X100167250Y-32093434D01*
D52*
X107442000Y-51181000D02*
X106963247Y-51181000D01*
D53*
X108557250Y-36131500D02*
X108557250Y-36040250D01*
D52*
X109601000Y-41094174D02*
X110048500Y-41541674D01*
D54*
X101434744Y-31583000D02*
X101750000Y-31267744D01*
D52*
X111237250Y-48311106D02*
X111237250Y-46995920D01*
X110077250Y-51689000D02*
X110059500Y-51671250D01*
X109283500Y-40544750D02*
X109601000Y-40862250D01*
X109283500Y-39683750D02*
X109283500Y-40544750D01*
D53*
X109033500Y-38788424D02*
X109108999Y-38863923D01*
X102593500Y-33369250D02*
X104144000Y-33369250D01*
X102657000Y-39837000D02*
X104584500Y-37909500D01*
X105156000Y-35201043D02*
X104886936Y-35470107D01*
D54*
X87751528Y-57926000D02*
X87675528Y-57850000D01*
D53*
X104144000Y-33369250D02*
X104267000Y-33246250D01*
X104747250Y-33246250D02*
X104990250Y-33489250D01*
D54*
X101986750Y-31014000D02*
X102425500Y-31014000D01*
X101750000Y-31267744D02*
X101750000Y-31250750D01*
D53*
X101990250Y-32734250D02*
X100167250Y-32734250D01*
X100167250Y-32770000D02*
X100167250Y-32734250D01*
D52*
X109632750Y-60061456D02*
X108394706Y-61299500D01*
X110157750Y-44934644D02*
X110157750Y-45783500D01*
D53*
X100765250Y-34321750D02*
X102171500Y-32915500D01*
X104990250Y-33489250D02*
X104990250Y-34088500D01*
X102425500Y-39837000D02*
X102425500Y-41095517D01*
D52*
X110737250Y-50421750D02*
X110737250Y-48811106D01*
D54*
X105568750Y-37909500D02*
X104584500Y-37909500D01*
D52*
X107932250Y-51671250D02*
X107442000Y-51181000D01*
D53*
X109033500Y-37052250D02*
X109033500Y-37973000D01*
D52*
X109657750Y-44316250D02*
X109657750Y-44434644D01*
D53*
X109033500Y-36770500D02*
X109033500Y-37052250D01*
X107202193Y-35210750D02*
X106918002Y-35494941D01*
X102425500Y-39837000D02*
X102657000Y-39837000D01*
D52*
X110664321Y-46422991D02*
X110664321Y-45999390D01*
X110737250Y-48811106D02*
X111237250Y-48311106D01*
D54*
X100677684Y-31583000D02*
X101434744Y-31583000D01*
D52*
X110077250Y-51689000D02*
X110077250Y-51081750D01*
D53*
X102425500Y-41095517D02*
X102874993Y-41545010D01*
D52*
X109657750Y-44434644D02*
X110157750Y-44934644D01*
X105535500Y-61299500D02*
X104394000Y-60158000D01*
D53*
X107890500Y-35373500D02*
X107890500Y-35210750D01*
D52*
X108364750Y-51671250D02*
X109089000Y-51671250D01*
X109089000Y-52800250D02*
X109089000Y-51671250D01*
X108364750Y-51671250D02*
X107932250Y-51671250D01*
X109089000Y-51671250D02*
X109089000Y-50514250D01*
X109089000Y-53721000D02*
X109089000Y-52800250D01*
X110077250Y-52328000D02*
X110077250Y-51689000D01*
X110664321Y-45999390D02*
X110373640Y-45999390D01*
D53*
X102171500Y-32915500D02*
X101990250Y-32734250D01*
D52*
X109362875Y-44021375D02*
X109657750Y-44316250D01*
X109362875Y-43068875D02*
X109362875Y-44021375D01*
X108394706Y-61299500D02*
X105535500Y-61299500D01*
D54*
X100393500Y-51720750D02*
X101758750Y-51720750D01*
D53*
X102171500Y-32947250D02*
X102593500Y-33369250D01*
D52*
X109089000Y-53721000D02*
X109632750Y-54264750D01*
D54*
X101750000Y-31250750D02*
X101986750Y-31014000D01*
D53*
X107890500Y-35210750D02*
X107202193Y-35210750D01*
X109033500Y-37973000D02*
X109033500Y-38788424D01*
D52*
X109632750Y-54264750D02*
X109632750Y-60061456D01*
X110048500Y-42383250D02*
X109362875Y-43068875D01*
D53*
X105445750Y-34544000D02*
X105156000Y-34833750D01*
D52*
X109601000Y-40862250D02*
X109601000Y-41094174D01*
X111237250Y-46995920D02*
X110664321Y-46422991D01*
D53*
X108557250Y-36294250D02*
X109033500Y-36770500D01*
D52*
X110373640Y-45999390D02*
X110157750Y-45783500D01*
X110048500Y-41541674D02*
X110048500Y-42383250D01*
D53*
X100167250Y-32093434D02*
X100377483Y-31883201D01*
%TO.N,GND*%
X104251000Y-34397250D02*
X102403250Y-34397250D01*
D54*
X82518250Y-36000500D02*
X82518250Y-36195000D01*
D53*
X102425500Y-44237000D02*
X103337000Y-44237000D01*
D54*
X93879000Y-37181000D02*
X93879000Y-38857000D01*
D53*
X103251000Y-83058000D02*
X106788250Y-83058000D01*
X101600000Y-84709000D02*
X103251000Y-83058000D01*
D54*
X94529000Y-54922500D02*
X94529000Y-56299000D01*
D53*
X90106000Y-80962000D02*
X90106000Y-79121000D01*
D52*
X109657750Y-45173500D02*
X109255750Y-44771500D01*
D53*
X104086936Y-35801478D02*
X104086936Y-35138736D01*
D54*
X85953000Y-25400000D02*
X84499750Y-25400000D01*
X91404250Y-54546500D02*
X90893500Y-55057250D01*
D53*
X81808753Y-55067997D02*
X82708750Y-54168000D01*
X83109751Y-58022250D02*
X83409750Y-58022250D01*
X110168500Y-36857750D02*
X110168500Y-37052250D01*
D52*
X107954000Y-52800250D02*
X107954000Y-53721000D01*
D54*
X97341500Y-37179250D02*
X97341500Y-36413250D01*
D53*
X110168500Y-38802500D02*
X110109000Y-38862000D01*
D54*
X93880750Y-37179250D02*
X93879000Y-37181000D01*
D53*
X109347000Y-35532250D02*
X109025500Y-35210750D01*
X82708750Y-54168000D02*
X84645751Y-54168000D01*
X102758753Y-51720750D02*
X102758753Y-49865253D01*
D54*
X89150000Y-41338500D02*
X90237500Y-41338500D01*
D52*
X107954000Y-53721000D02*
X108003026Y-53721000D01*
D53*
X110168500Y-37052250D02*
X110168500Y-37973000D01*
X87312500Y-79533750D02*
X90074250Y-79533750D01*
X106134000Y-35278403D02*
X105918000Y-35494403D01*
D54*
X84764001Y-53232251D02*
X84236750Y-52705000D01*
X93880750Y-36381500D02*
X93757750Y-36258500D01*
D53*
X90106000Y-78263254D02*
X90106496Y-78263750D01*
D54*
X91344750Y-32448500D02*
X91253500Y-32448500D01*
D52*
X103582500Y-61799500D02*
X103505000Y-61722000D01*
D53*
X104086936Y-35138736D02*
X104267000Y-34958672D01*
X84645751Y-54168000D02*
X84764001Y-54049750D01*
D54*
X90889500Y-55534750D02*
X90893500Y-55530750D01*
D53*
X105918000Y-35494403D02*
X105918000Y-35570414D01*
D54*
X92709986Y-34004236D02*
X92709986Y-34448750D01*
D53*
X105218307Y-36270107D02*
X104555565Y-36270107D01*
X100724500Y-55072750D02*
X100309084Y-55072750D01*
X109692250Y-36131500D02*
X109692250Y-36381500D01*
X102758753Y-49865253D02*
X102264750Y-49371250D01*
X104267000Y-34958672D02*
X104267000Y-34381250D01*
D52*
X110737250Y-48104000D02*
X110737250Y-47203026D01*
X110195724Y-46661500D02*
X109914910Y-46661500D01*
X109132750Y-54471856D02*
X109132750Y-59854350D01*
D53*
X81851500Y-59280501D02*
X83109751Y-58022250D01*
X84677750Y-76930250D02*
X84646000Y-76962000D01*
X99788541Y-58570478D02*
X99788541Y-59532207D01*
D54*
X94452250Y-53240750D02*
X94068500Y-52857000D01*
D53*
X90106500Y-69342500D02*
X90106000Y-69342000D01*
X107759500Y-34222500D02*
X108168250Y-34222500D01*
D54*
X88931750Y-41338500D02*
X89150000Y-41338500D01*
D52*
X106267250Y-60055003D02*
X106661747Y-60449500D01*
D54*
X93879000Y-39668571D02*
X94535751Y-40325322D01*
X84645500Y-43236500D02*
X85464000Y-42418000D01*
X85953000Y-24785750D02*
X85947250Y-24780000D01*
X105425875Y-29987875D02*
X105822750Y-29591000D01*
D53*
X90106000Y-76581000D02*
X90106000Y-78263254D01*
D52*
X92050000Y-30427594D02*
X92050000Y-30861250D01*
D53*
X102203250Y-37347250D02*
X102203250Y-34597250D01*
D52*
X110077250Y-53463000D02*
X110132750Y-53518500D01*
X107954000Y-50514250D02*
X107954000Y-49782000D01*
D53*
X93091000Y-84230250D02*
X93501250Y-83820000D01*
X100309084Y-60052750D02*
X100077334Y-59821000D01*
D54*
X106000250Y-25400000D02*
X106140250Y-25260000D01*
D53*
X99377500Y-31877000D02*
X98456750Y-31877000D01*
D54*
X88420262Y-41948500D02*
X88682500Y-41686262D01*
X90635000Y-39966000D02*
X90297000Y-40304000D01*
D52*
X109657750Y-46404340D02*
X109657750Y-45173500D01*
D53*
X86325750Y-48387000D02*
X86325750Y-47738908D01*
D54*
X84409750Y-58007250D02*
X84394750Y-58022250D01*
D52*
X109255750Y-44771500D02*
X108997750Y-44771500D01*
D54*
X106140250Y-26701750D02*
X106140250Y-25260000D01*
X84499750Y-25400000D02*
X84359750Y-25260000D01*
D53*
X86325750Y-47738908D02*
X86866099Y-47198559D01*
D54*
X88682500Y-41686262D02*
X88682500Y-41587750D01*
X90679760Y-57493490D02*
X90608676Y-57493490D01*
D53*
X92050000Y-31616250D02*
X92050000Y-30861250D01*
X100360000Y-30283000D02*
X100360000Y-26353000D01*
D54*
X94068500Y-52857000D02*
X92772858Y-52857000D01*
X104547000Y-25400000D02*
X106000250Y-25400000D01*
D53*
X106788250Y-83058000D02*
X107169250Y-83439000D01*
D54*
X84645500Y-43764500D02*
X84645500Y-43236500D01*
X90575500Y-39966000D02*
X90635000Y-39966000D01*
X92424250Y-33718500D02*
X92709986Y-34004236D01*
D53*
X81851500Y-59563000D02*
X81851500Y-59280501D01*
D54*
X90106500Y-68961500D02*
X90106000Y-68961000D01*
D53*
X106580750Y-34544000D02*
X107029250Y-34544000D01*
D54*
X82518250Y-36195000D02*
X83788250Y-37465000D01*
D52*
X109914910Y-46661500D02*
X109657750Y-46404340D01*
D54*
X90140000Y-26353000D02*
X90106500Y-26386500D01*
D53*
X103187500Y-82232500D02*
X103251000Y-82296000D01*
X84646000Y-69342000D02*
X84646000Y-68072502D01*
X98456750Y-31877000D02*
X98450000Y-31883750D01*
D54*
X88567000Y-24780000D02*
X90140000Y-26353000D01*
D53*
X101060250Y-60388500D02*
X100724500Y-60052750D01*
D54*
X94452250Y-54845750D02*
X94529000Y-54922500D01*
D52*
X91685000Y-29503406D02*
X91685000Y-30062594D01*
D53*
X87376000Y-71882000D02*
X84646000Y-71882000D01*
D54*
X91959250Y-33063000D02*
X91344750Y-32448500D01*
X84394750Y-58022250D02*
X83409750Y-58022250D01*
X92004108Y-53625750D02*
X91404250Y-53625750D01*
X91959250Y-33718500D02*
X92424250Y-33718500D01*
X87615000Y-42655250D02*
X88321750Y-41948500D01*
D52*
X107954000Y-48960500D02*
X108364750Y-49371250D01*
D54*
X105568750Y-42989500D02*
X104584500Y-42989500D01*
D52*
X98815000Y-29503406D02*
X98815000Y-30062594D01*
D54*
X92772858Y-52857000D02*
X92004108Y-53625750D01*
D53*
X84646000Y-71882000D02*
X84646000Y-70612498D01*
X109692250Y-36381500D02*
X110168500Y-36857750D01*
D54*
X102806500Y-26747500D02*
X103199500Y-26747500D01*
D53*
X90106500Y-70612000D02*
X90106500Y-69342500D01*
D52*
X96551750Y-28003500D02*
X97656250Y-29108000D01*
D53*
X101060250Y-54737000D02*
X100724500Y-55072750D01*
X103314500Y-66802000D02*
X105854000Y-66802000D01*
D52*
X110077250Y-49339500D02*
X110045500Y-49371250D01*
X110132750Y-53518500D02*
X110132750Y-60268562D01*
D54*
X90201750Y-55534750D02*
X90889500Y-55534750D01*
D53*
X96551750Y-85090000D02*
X96551750Y-84198500D01*
X101060250Y-54072750D02*
X101060250Y-54737000D01*
X87312500Y-79533750D02*
X84677750Y-79533750D01*
X99781750Y-30861250D02*
X100360000Y-30283000D01*
X88548250Y-50813497D02*
X88548250Y-51720750D01*
D52*
X95250000Y-28003500D02*
X93990230Y-28003500D01*
X107238994Y-52800250D02*
X105603000Y-51164256D01*
D54*
X85153500Y-28416254D02*
X85153500Y-28448004D01*
D53*
X98450000Y-30861250D02*
X98450000Y-31883750D01*
X102425500Y-42989500D02*
X102870000Y-42545000D01*
X91253500Y-32412750D02*
X92050000Y-31616250D01*
D54*
X91959250Y-33718500D02*
X91959250Y-33063000D01*
D53*
X98450000Y-31883750D02*
X98171000Y-32162750D01*
D54*
X92741750Y-35242500D02*
X92181500Y-35242500D01*
D53*
X84645502Y-69342498D02*
X84646000Y-69342000D01*
X103346250Y-69342000D02*
X105854000Y-69342000D01*
D54*
X92818215Y-35318965D02*
X92818215Y-34556979D01*
D53*
X101060250Y-61052750D02*
X101060250Y-60388500D01*
D54*
X94452250Y-53467000D02*
X94452250Y-53240750D01*
X87585750Y-45751750D02*
X87219750Y-45385750D01*
X84764001Y-54049750D02*
X84764001Y-53232251D01*
D53*
X81282500Y-60928250D02*
X81282500Y-60132000D01*
D54*
X88875500Y-38266000D02*
X90575500Y-39966000D01*
D52*
X108537600Y-60449500D02*
X107664250Y-60449500D01*
D53*
X87344250Y-76930250D02*
X84677750Y-76930250D01*
D54*
X85953000Y-25400000D02*
X85953000Y-24785750D01*
D53*
X92074500Y-26353000D02*
X92075000Y-26352500D01*
D52*
X91685000Y-30062594D02*
X92050000Y-30427594D01*
D53*
X84646000Y-70612498D02*
X84645502Y-70612000D01*
X98171000Y-32734250D02*
X98171000Y-34226500D01*
X91253500Y-32448500D02*
X91253500Y-32412750D01*
D54*
X92818215Y-35318965D02*
X92741750Y-35242500D01*
X90106500Y-30249500D02*
X90140000Y-30283000D01*
X90297000Y-41279000D02*
X90237500Y-41338500D01*
X97341500Y-36413250D02*
X97218500Y-36290250D01*
D53*
X90140000Y-30283000D02*
X90140000Y-26353000D01*
D54*
X91404250Y-54546500D02*
X91404250Y-53625750D01*
X98397250Y-37179250D02*
X97341500Y-37179250D01*
X88187124Y-45867749D02*
X88071125Y-45751750D01*
D53*
X104267000Y-34381250D02*
X104251000Y-34397250D01*
D54*
X105822750Y-29591000D02*
X105822750Y-27019250D01*
X103199500Y-26747500D02*
X104547000Y-25400000D01*
D53*
X99373500Y-84709000D02*
X101600000Y-84709000D01*
X84645502Y-70612000D02*
X84645502Y-69342498D01*
D54*
X88435000Y-38266000D02*
X88435000Y-37517258D01*
D53*
X84677750Y-79533750D02*
X84646000Y-79502000D01*
D54*
X93757750Y-36258500D02*
X92818215Y-35318965D01*
D52*
X98815000Y-30062594D02*
X98450000Y-30427594D01*
D54*
X84764001Y-54049750D02*
X86296500Y-54049750D01*
D53*
X102425500Y-44237000D02*
X102425500Y-42989500D01*
D54*
X88435000Y-38266000D02*
X88875500Y-38266000D01*
D53*
X107029250Y-34544000D02*
X107350750Y-34222500D01*
D54*
X88435000Y-37517258D02*
X88900000Y-37052258D01*
D53*
X86866099Y-47198559D02*
X86866099Y-47123194D01*
D54*
X94452250Y-53467000D02*
X94452250Y-54845750D01*
D53*
X103251000Y-82296000D02*
X103251000Y-83058000D01*
D54*
X90893500Y-56059750D02*
X91503500Y-56669750D01*
D53*
X90106500Y-71881500D02*
X90106000Y-71882000D01*
D54*
X86952000Y-56249750D02*
X86931500Y-56229250D01*
D52*
X93990230Y-28003500D02*
X92885730Y-29108000D01*
D53*
X99032250Y-32734250D02*
X99377500Y-32389000D01*
X84646000Y-68072502D02*
X84645500Y-68072002D01*
D54*
X88463999Y-56249750D02*
X86952000Y-56249750D01*
X93879000Y-38857000D02*
X93879000Y-39668571D01*
X100425250Y-49720500D02*
X101915500Y-49720500D01*
D52*
X110045500Y-49371250D02*
X108364750Y-49371250D01*
X96266000Y-28003500D02*
X96551750Y-28003500D01*
X98450000Y-30427594D02*
X98450000Y-30861250D01*
D54*
X85089996Y-28352750D02*
X85153500Y-28416254D01*
D52*
X110077250Y-49339500D02*
X110077250Y-48764000D01*
D54*
X88682500Y-41587750D02*
X88931750Y-41338500D01*
X94529000Y-56299000D02*
X94586250Y-56356250D01*
X90297000Y-40304000D02*
X90297000Y-41279000D01*
D53*
X98171000Y-34226500D02*
X98107500Y-34290000D01*
X84359750Y-25260000D02*
X84359750Y-27717270D01*
X109025500Y-35079750D02*
X109025500Y-35210750D01*
X109347000Y-35786250D02*
X109347000Y-35532250D01*
X108168250Y-34222500D02*
X109025500Y-35079750D01*
D54*
X88321750Y-41948500D02*
X88420262Y-41948500D01*
D52*
X108704856Y-54471856D02*
X109132750Y-54471856D01*
X110077250Y-48764000D02*
X110737250Y-48104000D01*
D53*
X106580750Y-34544000D02*
X106134000Y-34990750D01*
X102403250Y-34397250D02*
X102203250Y-34597250D01*
X97341500Y-32734250D02*
X98171000Y-32734250D01*
X92050000Y-30861250D02*
X90718250Y-30861250D01*
D52*
X97656250Y-29108000D02*
X98419594Y-29108000D01*
X108601812Y-61799500D02*
X103582500Y-61799500D01*
X110077250Y-49946750D02*
X110077250Y-49339500D01*
X107954000Y-53721000D02*
X108704856Y-54471856D01*
D53*
X105918000Y-35570414D02*
X105218307Y-36270107D01*
X90074250Y-79533750D02*
X90106000Y-79502000D01*
X96551750Y-84198500D02*
X96930250Y-83820000D01*
X90106500Y-70612000D02*
X90106500Y-71881500D01*
X103337000Y-44237000D02*
X104584500Y-42989500D01*
X99789253Y-55592581D02*
X99789253Y-56554574D01*
D52*
X110132750Y-60268562D02*
X108601812Y-61799500D01*
D53*
X100724500Y-60052750D02*
X100309084Y-60052750D01*
X99032250Y-32734250D02*
X98171000Y-32734250D01*
X84359750Y-27717270D02*
X85153500Y-28511020D01*
X98450000Y-30861250D02*
X99781750Y-30861250D01*
D52*
X107954000Y-49782000D02*
X108364750Y-49371250D01*
D53*
X81282500Y-60132000D02*
X81851500Y-59563000D01*
D52*
X107954000Y-52800250D02*
X107238994Y-52800250D01*
D53*
X90718250Y-30861250D02*
X90140000Y-30283000D01*
D54*
X92818215Y-34556979D02*
X92709986Y-34448750D01*
D53*
X93091000Y-85090000D02*
X93091000Y-84230250D01*
X98489000Y-26353000D02*
X98488500Y-26352500D01*
X100309084Y-55072750D02*
X99789253Y-55592581D01*
D54*
X91503500Y-56669750D02*
X90679760Y-57493490D01*
X105822750Y-27019250D02*
X106140250Y-26701750D01*
D52*
X108364750Y-49371250D02*
X106553000Y-49371250D01*
D53*
X100360000Y-26353000D02*
X98489000Y-26353000D01*
D52*
X105603000Y-51164256D02*
X105603000Y-50321250D01*
X107954000Y-48228250D02*
X107954000Y-48960500D01*
D54*
X90106000Y-71882000D02*
X90106000Y-71501000D01*
D53*
X87376000Y-71882000D02*
X90106000Y-71882000D01*
D54*
X88071125Y-45751750D02*
X87585750Y-45751750D01*
D53*
X106134000Y-34990750D02*
X106134000Y-35278403D01*
X88090253Y-50355500D02*
X88548250Y-50813497D01*
D52*
X106661747Y-60449500D02*
X107664250Y-60449500D01*
D53*
X110168500Y-37973000D02*
X110168500Y-38802500D01*
D54*
X101915500Y-49720500D02*
X102264750Y-49371250D01*
D53*
X98171000Y-32162750D02*
X98171000Y-32734250D01*
X107350750Y-34222500D02*
X107759500Y-34222500D01*
X99788541Y-59532207D02*
X99599750Y-59720998D01*
D52*
X98419594Y-29108000D02*
X98815000Y-29503406D01*
X99847250Y-54072750D02*
X101060250Y-54072750D01*
D54*
X87219750Y-42655250D02*
X87615000Y-42655250D01*
D53*
X81343500Y-55067997D02*
X81808753Y-55067997D01*
X99377500Y-32389000D02*
X99377500Y-31877000D01*
D52*
X105603000Y-50321250D02*
X106553000Y-49371250D01*
D53*
X100077334Y-59821000D02*
X99599750Y-59821000D01*
D54*
X90893500Y-55057250D02*
X90893500Y-55530750D01*
D52*
X92080406Y-29108000D02*
X91685000Y-29503406D01*
D54*
X85947250Y-24780000D02*
X88567000Y-24780000D01*
D53*
X90140000Y-26353000D02*
X92074500Y-26353000D01*
X104555565Y-36270107D02*
X104086936Y-35801478D01*
D54*
X90893500Y-55530750D02*
X90893500Y-56059750D01*
D53*
X109692250Y-36131500D02*
X109347000Y-35786250D01*
D52*
X109132750Y-59854350D02*
X108537600Y-60449500D01*
D53*
X99599750Y-59720998D02*
X99599750Y-59821000D01*
D52*
X92885730Y-29108000D02*
X92080406Y-29108000D01*
X110737250Y-47203026D02*
X110195724Y-46661500D01*
D54*
X93880750Y-37179250D02*
X93880750Y-36381500D01*
D52*
X99599750Y-54320250D02*
X99847250Y-54072750D01*
D54*
%TO.N,/XI*%
X89820750Y-54546500D02*
X90269250Y-54546500D01*
X85895751Y-55118000D02*
X89249250Y-55118000D01*
X92441487Y-52057000D02*
X94623197Y-52057000D01*
X90272000Y-53015750D02*
X90672000Y-52615750D01*
X90672000Y-52615750D02*
X91882736Y-52615750D01*
X91882736Y-52615750D02*
X92441487Y-52057000D01*
X89249250Y-55118000D02*
X89820750Y-54546500D01*
X84764001Y-56249750D02*
X85895751Y-55118000D01*
X94623197Y-52057000D02*
X95829000Y-53262803D01*
X95829000Y-53262803D02*
X95829000Y-54922500D01*
X87351000Y-53015750D02*
X90272000Y-53015750D01*
X87026750Y-53340000D02*
X87351000Y-53015750D01*
X87026750Y-55118000D02*
X87026750Y-53340000D01*
%TO.N,/XO*%
X90998988Y-53015750D02*
X90388988Y-53625750D01*
X88463999Y-54049750D02*
X89365000Y-54049750D01*
X90388988Y-53625750D02*
X90269250Y-53625750D01*
X94457511Y-52457000D02*
X92607172Y-52457000D01*
X92048421Y-53015750D02*
X90998988Y-53015750D01*
X95179000Y-53178489D02*
X94457511Y-52457000D01*
X95179000Y-54922500D02*
X95179000Y-53178489D01*
X92607172Y-52457000D02*
X92048421Y-53015750D01*
X89365000Y-54049750D02*
X89789000Y-53625750D01*
X89789000Y-53625750D02*
X90269250Y-53625750D01*
%TO.N,+3V3*%
X89328499Y-47135500D02*
X89153994Y-47135500D01*
X101250750Y-47085250D02*
X101822250Y-47085250D01*
X92745750Y-37179250D02*
X92745750Y-36269702D01*
X86598770Y-28497500D02*
X86585250Y-28511020D01*
D52*
X108997750Y-47071250D02*
X108997750Y-45906500D01*
X109089000Y-48228250D02*
X109478000Y-48228250D01*
D54*
X96479000Y-38857000D02*
X96479000Y-39633250D01*
X88468500Y-31151500D02*
X87693500Y-31926500D01*
D52*
X108862875Y-43505375D02*
X108862875Y-42861769D01*
X108364750Y-47071250D02*
X108997750Y-47071250D01*
D54*
X96479000Y-37451750D02*
X96479000Y-38857000D01*
X96206500Y-37179250D02*
X96479000Y-37451750D01*
X87693500Y-28497500D02*
X86598770Y-28497500D01*
D52*
X107442000Y-47561500D02*
X106963247Y-47561500D01*
X105103000Y-49934750D02*
X105603000Y-49434750D01*
D53*
X84425750Y-48387000D02*
X84899500Y-48387000D01*
D52*
X105603000Y-48921747D02*
X106553000Y-47971747D01*
D54*
X103409750Y-31014000D02*
X104451750Y-31014000D01*
D52*
X109283500Y-42441144D02*
X109283500Y-41913750D01*
D54*
X100615750Y-47720250D02*
X101250750Y-47085250D01*
D52*
X108862875Y-42861769D02*
X109283500Y-42441144D01*
X108997750Y-45857474D02*
X108337750Y-45197474D01*
D54*
X85706161Y-37465000D02*
X84838253Y-37465000D01*
X96206500Y-36293422D02*
X96218537Y-36281385D01*
X96479000Y-39633250D02*
X95789750Y-40322500D01*
D52*
X107080500Y-53348862D02*
X105103000Y-51371363D01*
X107932250Y-47071250D02*
X107442000Y-47561500D01*
X108997750Y-45906500D02*
X108997750Y-45857474D01*
D53*
X85425750Y-47507537D02*
X85867761Y-47065526D01*
D52*
X104394000Y-55158000D02*
X106056250Y-55158000D01*
D54*
X104451750Y-31014000D02*
X104457500Y-31019750D01*
X87693500Y-28497500D02*
X88468500Y-29272500D01*
D52*
X106963247Y-47561500D02*
X106553000Y-47971747D01*
X105103000Y-51371363D02*
X105103000Y-49934750D01*
X105603000Y-49434750D02*
X105603000Y-48921747D01*
X109089000Y-47071250D02*
X108364750Y-47071250D01*
X109478000Y-48228250D02*
X110077250Y-47629000D01*
D54*
X88468500Y-29272500D02*
X88468500Y-31151500D01*
X87306750Y-35864411D02*
X85706161Y-37465000D01*
D52*
X107080500Y-54133750D02*
X107080500Y-53348862D01*
D54*
X99532250Y-36585700D02*
X99815112Y-36302838D01*
X96206500Y-37179250D02*
X96206500Y-36293422D01*
X99532250Y-37179250D02*
X99532250Y-36585700D01*
D52*
X108337750Y-45197474D02*
X108337750Y-44030500D01*
D53*
X84899500Y-48387000D02*
X85425750Y-47860750D01*
D54*
X92745750Y-36269702D02*
X92757748Y-36257704D01*
X100425250Y-47720250D02*
X100615750Y-47720250D01*
X95789750Y-40322500D02*
X95535756Y-40322500D01*
X90328750Y-46135249D02*
X89328499Y-47135500D01*
D53*
X85425750Y-47860750D02*
X85425750Y-47507537D01*
D54*
X87306750Y-35306000D02*
X87306750Y-35864411D01*
D52*
X106056250Y-55158000D02*
X107080500Y-54133750D01*
X108364750Y-47071250D02*
X107932250Y-47071250D01*
D54*
X90328750Y-45777750D02*
X90328750Y-46135249D01*
D52*
X109089000Y-48228250D02*
X109089000Y-47071250D01*
X108337750Y-44030500D02*
X108862875Y-43505375D01*
D54*
%TO.N,Net-(Q1-G)*%
X89119750Y-42655250D02*
X89532500Y-43068000D01*
X89532500Y-43068000D02*
X89841500Y-43068000D01*
X89841500Y-43068000D02*
X90328750Y-43555250D01*
%TO.N,Net-(Q1-D)*%
X88364250Y-35977594D02*
X86614000Y-37727844D01*
X87529000Y-33401000D02*
X88364250Y-34236250D01*
X87128448Y-44227750D02*
X87867250Y-44227750D01*
X89119750Y-45385750D02*
X89119750Y-44796750D01*
X89119750Y-44796750D02*
X88853250Y-44530250D01*
X87867250Y-44227750D02*
X88169750Y-44530250D01*
X86614000Y-37727844D02*
X86614000Y-43713302D01*
X88364250Y-34236250D02*
X88364250Y-35977594D01*
X88853250Y-44530250D02*
X88169750Y-44530250D01*
X86614000Y-43713302D02*
X87128448Y-44227750D01*
%TO.N,/RST_IN*%
X86111750Y-35306000D02*
X84918250Y-35306000D01*
X94128269Y-41825231D02*
X97144407Y-41825231D01*
X82518250Y-34865500D02*
X83517250Y-35864500D01*
X92579000Y-43374500D02*
X93122750Y-42830750D01*
X84918250Y-35306000D02*
X84359750Y-35864500D01*
X86111750Y-35306000D02*
X86111750Y-35998750D01*
X105568750Y-39179500D02*
X104584500Y-39179500D01*
X83517250Y-35864500D02*
X84359750Y-35864500D01*
X93122750Y-42830750D02*
X94128269Y-41825231D01*
X92579000Y-44582000D02*
X92579000Y-43374500D01*
X97144407Y-41825231D02*
X98440819Y-40528819D01*
X86111750Y-35998750D02*
X85852000Y-36258500D01*
%TO.N,/WCH-LinkE-R0-1v3/IAP*%
X104267050Y-29819000D02*
X106140250Y-31692200D01*
X107156250Y-33160000D02*
X107228750Y-33087500D01*
X106140250Y-31692200D02*
X106140250Y-33160000D01*
X98429000Y-44582000D02*
X98429000Y-43202509D01*
X108644500Y-33087500D02*
X108680250Y-33051750D01*
X103409750Y-29819000D02*
X104267050Y-29819000D01*
X107228750Y-33087500D02*
X108644500Y-33087500D01*
X106140250Y-33160000D02*
X107156250Y-33160000D01*
X98429000Y-43202509D02*
X98479000Y-43152509D01*
D53*
%TO.N,/USB/VBUS*%
X92850000Y-31664778D02*
X92850000Y-30858000D01*
D52*
X93376750Y-29720844D02*
X93376750Y-29324087D01*
D53*
X97650000Y-30858000D02*
X97650000Y-31552379D01*
X96894816Y-32024250D02*
X96206500Y-32712566D01*
D52*
X92850000Y-30858000D02*
X92850000Y-30247594D01*
D53*
X97650000Y-31552379D02*
X97178129Y-32024250D01*
X96206500Y-32734250D02*
X96206500Y-34003500D01*
X96206500Y-34003500D02*
X96524750Y-34321750D01*
D52*
X97016000Y-29216834D02*
X97016000Y-29613594D01*
D53*
X92388500Y-32448500D02*
X92388500Y-32126278D01*
X92388500Y-32126278D02*
X92850000Y-31664778D01*
X97178129Y-32024250D02*
X96894816Y-32024250D01*
X96206500Y-32712566D02*
X96206500Y-32734250D01*
D52*
X93923342Y-28777495D02*
X96576661Y-28777495D01*
X93376750Y-29324087D02*
X93923342Y-28777495D01*
X97016000Y-29613594D02*
X97650000Y-30247594D01*
X96576661Y-28777495D02*
X97016000Y-29216834D01*
X97650000Y-30247594D02*
X97650000Y-30858000D01*
X92850000Y-30247594D02*
X93376750Y-29720844D01*
D54*
%TO.N,/RX*%
X94297500Y-49720500D02*
X94297500Y-50336500D01*
X93599000Y-47027500D02*
X93599000Y-47087472D01*
X94297500Y-50336500D02*
X94805500Y-50844500D01*
X94805500Y-50844500D02*
X95107755Y-50844500D01*
X94297500Y-49720500D02*
X94297500Y-48926750D01*
X93599000Y-47087472D02*
X94551500Y-48039972D01*
X94551500Y-48039972D02*
X94551500Y-48222500D01*
X97779000Y-53515746D02*
X97779000Y-54922500D01*
X94297500Y-48926750D02*
X94551500Y-48672750D01*
X95107755Y-50844500D02*
X97779000Y-53515746D01*
X94551500Y-48672750D02*
X94551500Y-48222500D01*
%TO.N,/TX*%
X92297250Y-49720500D02*
X92297250Y-49053750D01*
X95932068Y-52234500D02*
X97129000Y-53431432D01*
X96419000Y-47027500D02*
X96424750Y-47021750D01*
X97129000Y-53431432D02*
X97129000Y-54922500D01*
X95504000Y-47027500D02*
X96419000Y-47027500D01*
X91725750Y-48228250D02*
X91731500Y-48222500D01*
X91731500Y-48222500D02*
X92646500Y-48222500D01*
X92297250Y-50482500D02*
X92297250Y-49720500D01*
X94942069Y-51244500D02*
X95932068Y-52234500D01*
X92297250Y-49053750D02*
X92646500Y-48704500D01*
X92646500Y-48704500D02*
X92646500Y-48222500D01*
X94942069Y-51244500D02*
X93059250Y-51244500D01*
X93059250Y-51244500D02*
X92297250Y-50482500D01*
%TO.N,/SWDIO_OUT*%
X100457000Y-43936250D02*
X100457000Y-44425641D01*
X98933000Y-56102250D02*
X98933000Y-52079278D01*
X97129000Y-59208000D02*
X99060000Y-57277000D01*
X96574222Y-49720500D02*
X96297750Y-49720500D01*
X98794392Y-46398358D02*
X96297750Y-48895000D01*
X98933000Y-52079278D02*
X96574222Y-49720500D01*
X99060000Y-57277000D02*
X99060000Y-56229250D01*
X99060000Y-56229250D02*
X98933000Y-56102250D01*
X100457000Y-44425641D02*
X98794392Y-46088250D01*
X97129000Y-60647500D02*
X97129000Y-59208000D01*
X98794392Y-46088250D02*
X98794392Y-46398358D01*
X96297750Y-48895000D02*
X96297750Y-49720500D01*
%TO.N,/RST_OUT*%
X96234088Y-59042250D02*
X97720044Y-57556294D01*
X94805500Y-64160936D02*
X94805500Y-77704508D01*
X91979174Y-58810000D02*
X93475185Y-58810000D01*
X90297000Y-49117250D02*
X90995500Y-48418750D01*
X96479000Y-53347117D02*
X94776383Y-51644500D01*
X92593943Y-63588750D02*
X91279000Y-62273806D01*
X94776383Y-51644500D02*
X91490750Y-51644500D01*
X91490750Y-51644500D02*
X90297000Y-50450750D01*
X90995500Y-48418750D02*
X90995500Y-47625000D01*
X91279001Y-59510172D02*
X91979174Y-58810000D01*
X98429000Y-39550686D02*
X98429000Y-38857000D01*
X96554455Y-41425231D02*
X98429000Y-39550686D01*
X91979750Y-42913089D02*
X93467608Y-41425231D01*
X91279000Y-62273806D02*
X91279001Y-59510172D01*
X94805500Y-64160936D02*
X94233314Y-63588750D01*
X93475185Y-58810000D02*
X93707435Y-59042250D01*
X91979750Y-46640750D02*
X91979750Y-42913089D01*
X96479000Y-56124750D02*
X96479000Y-54922500D01*
X96742250Y-56388000D02*
X96479000Y-56124750D01*
X90297000Y-50450750D02*
X90297000Y-49720500D01*
X94805500Y-77704508D02*
X94668754Y-77841254D01*
X93467608Y-41425231D02*
X96554455Y-41425231D01*
X96479000Y-54922500D02*
X96479000Y-53347117D01*
X90297000Y-49720500D02*
X90297000Y-49117250D01*
X93707435Y-59042250D02*
X96234088Y-59042250D01*
X94233314Y-63588750D02*
X92593943Y-63588750D01*
X90995500Y-47625000D02*
X91979750Y-46640750D01*
%TO.N,/USB/CC1*%
X101750000Y-27337744D02*
X101160000Y-27927744D01*
X95212250Y-33858512D02*
X95212250Y-32010000D01*
X96500000Y-31465410D02*
X96500000Y-30858000D01*
X95212250Y-32010000D02*
X95489250Y-31733000D01*
X101750000Y-26075500D02*
X101750000Y-27337744D01*
X103352000Y-25400000D02*
X102425500Y-25400000D01*
X95489250Y-31733000D02*
X96232410Y-31733000D01*
X102425500Y-25400000D02*
X101750000Y-26075500D01*
X101160000Y-27927744D02*
X101160000Y-28321004D01*
X96232410Y-31733000D02*
X96500000Y-31465410D01*
%TO.N,/USB_P*%
X94381500Y-35242500D02*
X94381500Y-35066800D01*
X94500000Y-30858000D02*
X94500000Y-31465410D01*
X94548250Y-35409250D02*
X94381500Y-35242500D01*
X95500000Y-29777500D02*
X95250000Y-29527500D01*
X93382746Y-34068046D02*
X93382746Y-32510719D01*
X94232410Y-31733000D02*
X93838250Y-31733000D01*
X95500000Y-30858000D02*
X95500000Y-29777500D01*
X94500000Y-31465410D02*
X94232410Y-31733000D01*
X94381500Y-35066800D02*
X93382746Y-34068046D01*
X94548250Y-38837750D02*
X94548250Y-35409250D01*
X93382746Y-32188504D02*
X93382746Y-32510719D01*
X94529000Y-38857000D02*
X94548250Y-38837750D01*
X93838250Y-31733000D02*
X93382746Y-32188504D01*
%TO.N,/USB_N*%
X94159250Y-33951000D02*
X94159250Y-33718500D01*
X94159250Y-32794251D02*
X94441058Y-32512443D01*
X95179000Y-38857000D02*
X95179000Y-38020817D01*
X95179000Y-38020817D02*
X95091250Y-37933067D01*
X96000000Y-30858000D02*
X96000000Y-29793495D01*
X94159250Y-33718500D02*
X94159250Y-32794251D01*
X95000000Y-30858000D02*
X95000000Y-31656565D01*
X94441058Y-32215507D02*
X94441058Y-32512443D01*
X96000000Y-29793495D02*
X96266000Y-29527495D01*
X95091250Y-37933067D02*
X95091250Y-34883000D01*
X95091250Y-34883000D02*
X94159250Y-33951000D01*
X95000000Y-31656565D02*
X94441058Y-32215507D01*
%TO.N,/USB/CC2*%
X88750000Y-26075500D02*
X88750000Y-27731000D01*
X93500000Y-30858000D02*
X93500000Y-30250590D01*
X88074500Y-25400000D02*
X88750000Y-26075500D01*
X88750000Y-27731000D02*
X89340000Y-28321000D01*
X93500000Y-30250590D02*
X94223092Y-29527498D01*
X87148000Y-25400000D02*
X88074500Y-25400000D01*
X94223092Y-29527498D02*
X94234000Y-29527498D01*
%TO.N,/SWCLK_IN*%
X100520500Y-37846000D02*
X100234750Y-38131750D01*
X100138000Y-35526750D02*
X95983222Y-35526750D01*
X100520500Y-35909250D02*
X100138000Y-35526750D01*
X106838750Y-39179500D02*
X107759500Y-39179500D01*
X99504500Y-42567472D02*
X99504500Y-42741250D01*
X100234750Y-41837222D02*
X99504500Y-42567472D01*
X95518537Y-35991435D02*
X95518537Y-37794669D01*
X95829000Y-38105132D02*
X95829000Y-38857000D01*
X100520500Y-37846000D02*
X100520500Y-35909250D01*
X100234750Y-38131750D02*
X100234750Y-41837222D01*
X95983222Y-35526750D02*
X95518537Y-35991435D01*
X95518537Y-37794669D02*
X95829000Y-38105132D01*
%TO.N,/SWDIO_IN*%
X99504500Y-40360000D02*
X99504500Y-39465250D01*
X97429001Y-37819500D02*
X97129000Y-38119501D01*
X99504500Y-39465250D02*
X99409250Y-39370000D01*
X106838750Y-41719500D02*
X107759500Y-41719500D01*
X100457000Y-42227500D02*
X101060250Y-41624250D01*
X98697456Y-37819500D02*
X97429001Y-37819500D01*
X99409250Y-38531294D02*
X98697456Y-37819500D01*
X100457000Y-42741250D02*
X100457000Y-42227500D01*
X97129000Y-38119501D02*
X97129000Y-38857000D01*
X99409250Y-39370000D02*
X99409250Y-38531294D01*
%TO.N,Net-(Q2-D)*%
X86214000Y-37562158D02*
X86214000Y-45758052D01*
X86214000Y-45758052D02*
X86879198Y-46423250D01*
X87306750Y-34353500D02*
X87664249Y-34353500D01*
X88169750Y-47021750D02*
X88169750Y-47260750D01*
X87565776Y-46417776D02*
X88169750Y-47021750D01*
X87964250Y-35811908D02*
X86214000Y-37562158D01*
X87964250Y-34653501D02*
X87964250Y-35811908D01*
X86879198Y-46423250D02*
X87560302Y-46423250D01*
X87560302Y-46423250D02*
X87565776Y-46417776D01*
X87664249Y-34353500D02*
X87964250Y-34653501D01*
%TO.N,/WCH-LinkE-R0-1v3/PD1*%
X92035000Y-37488500D02*
X92035000Y-36279502D01*
X92579000Y-38032500D02*
X92035000Y-37488500D01*
X92579000Y-38857000D02*
X92579000Y-38032500D01*
X91632999Y-35877500D02*
X91148500Y-35877500D01*
X92035000Y-36279502D02*
X91632999Y-35877500D01*
X91148500Y-34925000D02*
X91148500Y-35877500D01*
%TO.N,/WCH-LinkE-R0-1v3/PD0*%
X93229000Y-39676500D02*
X93011000Y-39894500D01*
X91471750Y-36830000D02*
X91148500Y-36830000D01*
X92218500Y-39894500D02*
X92035000Y-39711000D01*
X93011000Y-39894500D02*
X92218500Y-39894500D01*
X93229000Y-38857000D02*
X93229000Y-39676500D01*
X92035000Y-39711000D02*
X92035000Y-38054186D01*
X91635000Y-36993250D02*
X91471750Y-36830000D01*
X91635000Y-37654185D02*
X91635000Y-36993250D01*
X92035000Y-38054186D02*
X91635000Y-37654185D01*
%TO.N,/WCH-LinkE-R0-1v3/ModeS*%
X89408000Y-34925000D02*
X89953500Y-34925000D01*
X84645500Y-33160000D02*
X85054000Y-32751500D01*
X87891972Y-32751500D02*
X88836500Y-33696028D01*
X85054000Y-32751500D02*
X87891972Y-32751500D01*
X88836500Y-34353500D02*
X89408000Y-34925000D01*
X88836500Y-33696028D02*
X88836500Y-34353500D01*
%TO.N,/WCH-LinkE-R0-1v3/LED_CON*%
X93301922Y-41025231D02*
X91966903Y-42360250D01*
X97779000Y-38857000D02*
X97779000Y-39512956D01*
X90328750Y-44582750D02*
X90948750Y-43962750D01*
X91966903Y-42360250D02*
X90328750Y-42360250D01*
X97779000Y-39512956D02*
X96266725Y-41025231D01*
X90948750Y-42980250D02*
X90328750Y-42360250D01*
X90948750Y-43962750D02*
X90948750Y-42980250D01*
X96266725Y-41025231D02*
X93301922Y-41025231D01*
%TO.N,/WCH-LinkE-R0-1v3/PB13*%
X98996500Y-44444250D02*
X98996500Y-45320456D01*
X98996500Y-45320456D02*
X98628706Y-45688250D01*
X95829000Y-45473500D02*
X95829000Y-44582000D01*
X96043750Y-45688250D02*
X95829000Y-45473500D01*
X99504500Y-43936250D02*
X98996500Y-44444250D01*
X98628706Y-45688250D02*
X96043750Y-45688250D01*
%TO.N,/WCH-LinkE-R0-1v3/PC6*%
X97779000Y-42714750D02*
X98938750Y-41555000D01*
X98938750Y-41555000D02*
X99504500Y-41555000D01*
X97779000Y-44582000D02*
X97779000Y-42714750D01*
%TO.N,Net-(LED1-A)*%
X102806500Y-29146500D02*
X102552500Y-29400500D01*
X102806500Y-28497500D02*
X102806500Y-29146500D01*
X102552500Y-29400500D02*
X102552500Y-29819000D01*
%TO.N,Net-(LED2-K)*%
X84675852Y-30956250D02*
X86913750Y-30956250D01*
X83309750Y-32322352D02*
X84675852Y-30956250D01*
X86334000Y-33401000D02*
X86006398Y-33401000D01*
X83309750Y-33997648D02*
X83309750Y-32322352D01*
X86913750Y-30956250D02*
X87693500Y-30176500D01*
X86006398Y-33401000D02*
X85122398Y-34285000D01*
X85122398Y-34285000D02*
X83597102Y-34285000D01*
X83597102Y-34285000D02*
X83309750Y-33997648D01*
D52*
%TO.N,VDD*%
X100339544Y-61912500D02*
X101780956Y-61912500D01*
D54*
X91503500Y-55534750D02*
X92079000Y-54959250D01*
D53*
X100395283Y-64260717D02*
X100394000Y-64262000D01*
X103320750Y-64260717D02*
X100395283Y-64260717D01*
D52*
X101780956Y-53213000D02*
X102135250Y-53567294D01*
D54*
X93317250Y-54834250D02*
X93229000Y-54922500D01*
D52*
X102135250Y-56224750D02*
X102362000Y-56451500D01*
D54*
X89901568Y-56969932D02*
X90201750Y-56669750D01*
D53*
X101060250Y-59152750D02*
X101851500Y-59152750D01*
D54*
X92079000Y-54116544D02*
X92728544Y-53467000D01*
D53*
X86648250Y-51720750D02*
X86648250Y-52697997D01*
D52*
X105854500Y-56546750D02*
X105757000Y-56449250D01*
X107115750Y-56546750D02*
X105854500Y-56546750D01*
X107774500Y-56720500D02*
X107609500Y-56555500D01*
X99627500Y-53213000D02*
X101780956Y-53213000D01*
D54*
X93317250Y-53467000D02*
X93317250Y-54834250D01*
D52*
X102135250Y-61558206D02*
X102135250Y-58869000D01*
D53*
X103320750Y-64260717D02*
X105852717Y-64260717D01*
D52*
X102586500Y-56449250D02*
X102584250Y-56451500D01*
X102135250Y-58869000D02*
X102350506Y-58653744D01*
D54*
X93229000Y-54922500D02*
X93229000Y-56313500D01*
D52*
X107774500Y-57792284D02*
X107774500Y-56720500D01*
X101780956Y-61912500D02*
X102135250Y-61558206D01*
D54*
X84645500Y-65531998D02*
X84645500Y-65150998D01*
D53*
X95535750Y-84325500D02*
X95535750Y-85074803D01*
X81343500Y-56068000D02*
X82708750Y-56068000D01*
X95030250Y-83820000D02*
X95535750Y-84325500D01*
D52*
X99599750Y-60956000D02*
X99599750Y-61172706D01*
D54*
X85716497Y-53049747D02*
X86296500Y-53049747D01*
D53*
X101851500Y-59152750D02*
X102350506Y-58653744D01*
D52*
X99599750Y-53185250D02*
X99627500Y-53213000D01*
D53*
X83182500Y-59893997D02*
X82851503Y-59563000D01*
X83182500Y-60928250D02*
X83182500Y-59893997D01*
X99371750Y-82169000D02*
X100298250Y-82169000D01*
D52*
X107664250Y-58549500D02*
X107664250Y-57902534D01*
X107664250Y-57902534D02*
X107774500Y-57792284D01*
D54*
X85371750Y-52705000D02*
X85716497Y-53049747D01*
D53*
X90106502Y-65532000D02*
X90106502Y-64262502D01*
D52*
X107609500Y-56555500D02*
X107124500Y-56555500D01*
D53*
X100298250Y-82169000D02*
X101250750Y-83121500D01*
X87090250Y-50355500D02*
X86648250Y-50797500D01*
X100394000Y-62611500D02*
X100393500Y-62611000D01*
X101060250Y-59152750D02*
X101060250Y-55972750D01*
X90106502Y-66801498D02*
X90106000Y-66802000D01*
D52*
X102135250Y-53567294D02*
X102135250Y-56224750D01*
D54*
X89901568Y-58200599D02*
X89901568Y-56969932D01*
D53*
X92059803Y-84278553D02*
X91601250Y-83820000D01*
X86648250Y-52697997D02*
X86296500Y-53049747D01*
X92059803Y-85090000D02*
X92059803Y-84278553D01*
D52*
X106772750Y-58549500D02*
X106267250Y-59055000D01*
X99599750Y-60956000D02*
X99599750Y-61817250D01*
D53*
X101060250Y-55972750D02*
X101883250Y-55972750D01*
X105852717Y-64260717D02*
X105854000Y-64262000D01*
D52*
X107664250Y-58549500D02*
X106772750Y-58549500D01*
X99599750Y-61172706D02*
X100339544Y-61912500D01*
X99599750Y-61817250D02*
X100393500Y-62611000D01*
D53*
X100394000Y-64262000D02*
X100394000Y-62611500D01*
D54*
X92079000Y-54959250D02*
X92079000Y-54116544D01*
X93229000Y-56313500D02*
X93186250Y-56356250D01*
D52*
X105757000Y-56449250D02*
X102586500Y-56449250D01*
D53*
X101883250Y-55972750D02*
X102362000Y-56451500D01*
D52*
X107124500Y-56555500D02*
X107115750Y-56546750D01*
D53*
X86648250Y-50797500D02*
X86648250Y-51720750D01*
X90106502Y-64262502D02*
X90106000Y-64262000D01*
X84646000Y-64262000D02*
X84646000Y-65531498D01*
X90106502Y-65532000D02*
X90106502Y-66801498D01*
D54*
X92728544Y-53467000D02*
X93317250Y-53467000D01*
D53*
X84646000Y-65531498D02*
X84645500Y-65531998D01*
X95535750Y-85074803D02*
X95520553Y-85090000D01*
D54*
%TO.N,/PC1*%
X102743000Y-77628750D02*
X102139750Y-78232000D01*
X103282750Y-75723750D02*
X102743000Y-76263500D01*
X102743000Y-76263500D02*
X102743000Y-77628750D01*
X106428000Y-79502000D02*
X108013500Y-77916500D01*
X107537250Y-75723750D02*
X103282750Y-75723750D01*
X93091000Y-62388750D02*
X92579000Y-61876750D01*
X108013500Y-76200000D02*
X107537250Y-75723750D01*
X94730372Y-62388750D02*
X93091000Y-62388750D01*
X92579000Y-61876750D02*
X92579000Y-60647500D01*
X96005500Y-75685500D02*
X96005500Y-63663878D01*
X102139750Y-78232000D02*
X98552000Y-78232000D01*
X98552000Y-78232000D02*
X96005500Y-75685500D01*
X108013500Y-77916500D02*
X108013500Y-76200000D01*
X105854000Y-79502000D02*
X106428000Y-79502000D01*
X96005500Y-63663878D02*
X94730372Y-62388750D01*
%TO.N,/PC2*%
X100394000Y-79502000D02*
X98298000Y-79502000D01*
X92310544Y-59610000D02*
X92928999Y-59610000D01*
X92079000Y-59841544D02*
X92310544Y-59610000D01*
X92928999Y-59610000D02*
X93229000Y-59910001D01*
X94564685Y-62788750D02*
X92925314Y-62788750D01*
X93229000Y-59910001D02*
X93229000Y-60647500D01*
X92079000Y-61942436D02*
X92079000Y-59841544D01*
X95605500Y-76809500D02*
X95605500Y-63829564D01*
X98298000Y-79502000D02*
X95605500Y-76809500D01*
X95605500Y-63829564D02*
X94564685Y-62788750D01*
X92925314Y-62788750D02*
X92079000Y-61942436D01*
%TO.N,/PC3*%
X92759628Y-63188750D02*
X91679000Y-62108121D01*
X105854000Y-76962000D02*
X104518000Y-76962000D01*
X91679000Y-62108121D02*
X91679000Y-59675858D01*
X104518000Y-76962000D02*
X102679500Y-78800500D01*
X102679500Y-78800500D02*
X102679500Y-80168750D01*
X92144859Y-59210000D02*
X93309500Y-59210000D01*
X95205500Y-77362000D02*
X95205500Y-63995250D01*
X93879000Y-59779500D02*
X93879000Y-60647500D01*
X94399000Y-63188750D02*
X92759628Y-63188750D01*
X102108000Y-80740250D02*
X98583750Y-80740250D01*
X93309500Y-59210000D02*
X93879000Y-59779500D01*
X98583750Y-80740250D02*
X95205500Y-77362000D01*
X91679000Y-59675858D02*
X92144859Y-59210000D01*
X95205500Y-63995250D02*
X94399000Y-63188750D01*
X102679500Y-80168750D02*
X102108000Y-80740250D01*
%TO.N,/PC4*%
X100394000Y-76962000D02*
X98552000Y-76962000D01*
X94529000Y-61621692D02*
X94529000Y-60647500D01*
X96405500Y-63498192D02*
X94529000Y-61621692D01*
X98552000Y-76962000D02*
X96405500Y-74815500D01*
X96405500Y-74815500D02*
X96405500Y-63498192D01*
%TO.N,/PC5*%
X102076250Y-75755500D02*
X98615500Y-75755500D01*
X96805500Y-63332506D02*
X95179000Y-61706006D01*
X95179000Y-61706006D02*
X95179000Y-60647500D01*
X103409750Y-74422000D02*
X102076250Y-75755500D01*
X98615500Y-75755500D02*
X96805500Y-73945500D01*
X105854000Y-74422000D02*
X103409750Y-74422000D01*
X96805500Y-73945500D02*
X96805500Y-63332506D01*
%TO.N,/PC6*%
X97205499Y-63166820D02*
X95829000Y-61790321D01*
X95829000Y-61790321D02*
X95829000Y-60647500D01*
X100394000Y-74422000D02*
X98615500Y-74422000D01*
X97205500Y-73012000D02*
X97205499Y-63166820D01*
X98615500Y-74422000D02*
X97205500Y-73012000D01*
%TO.N,/PC7*%
X98837750Y-73183750D02*
X97624745Y-71970745D01*
X104552250Y-73183750D02*
X98837750Y-73183750D01*
X97624745Y-62832559D02*
X96479000Y-61686814D01*
X97624745Y-71970745D02*
X97624745Y-62832559D01*
X105854000Y-71882000D02*
X104552250Y-73183750D01*
X96479000Y-61686814D02*
X96479000Y-60647500D01*
%TO.N,/PD2*%
X99820000Y-71882000D02*
X98024740Y-70086740D01*
X97779000Y-62421129D02*
X97779000Y-60647500D01*
X98024740Y-62666869D02*
X97779000Y-62421129D01*
X100394000Y-71882000D02*
X99820000Y-71882000D01*
X98024740Y-70086740D02*
X98024740Y-62666869D01*
%TO.N,/PD3*%
X98429000Y-67951000D02*
X99820000Y-69342000D01*
X98429000Y-60647500D02*
X98429000Y-67951000D01*
X99820000Y-69342000D02*
X100394000Y-69342000D01*
%TO.N,/PC0*%
X82678501Y-62546000D02*
X87498250Y-62546000D01*
X82356000Y-75180500D02*
X82356000Y-62868500D01*
X91821000Y-57610000D02*
X92419750Y-57011250D01*
X92579000Y-55907046D02*
X92579000Y-54922500D01*
X90079001Y-59965249D02*
X90079001Y-59013117D01*
X90079001Y-59013117D02*
X91482116Y-57610000D01*
X90106000Y-74422000D02*
X88519000Y-74422000D01*
X87280750Y-75660250D02*
X82835750Y-75660250D01*
X92419750Y-56066296D02*
X92579000Y-55907046D01*
X92419750Y-57011250D02*
X92419750Y-56066296D01*
X87498250Y-62546000D02*
X90079001Y-59965249D01*
X88519000Y-74422000D02*
X87280750Y-75660250D01*
X82835750Y-75660250D02*
X82356000Y-75180500D01*
X91482116Y-57610000D02*
X91821000Y-57610000D01*
X82356000Y-62868500D02*
X82678501Y-62546000D01*
%TO.N,/PD0*%
X90479001Y-60130935D02*
X87663936Y-62946000D01*
X82756000Y-73993000D02*
X83185000Y-74422000D01*
X91647802Y-58010000D02*
X90479001Y-59178802D01*
X93886250Y-57085000D02*
X93886250Y-54929750D01*
X92961250Y-58010000D02*
X91647802Y-58010000D01*
X86518750Y-57913500D02*
X86582250Y-57850000D01*
X93313250Y-57658000D02*
X93886250Y-57085000D01*
X90479001Y-59178802D02*
X90479001Y-60130935D01*
X87663936Y-62946000D02*
X82844186Y-62946000D01*
X82756000Y-63034186D02*
X82756000Y-73993000D01*
X86518750Y-58806750D02*
X86518750Y-57913500D01*
X93313250Y-57658000D02*
X92961250Y-58010000D01*
X83185000Y-74422000D02*
X84646000Y-74422000D01*
X82844186Y-62946000D02*
X82756000Y-63034186D01*
X93886250Y-54929750D02*
X93879000Y-54922500D01*
%TO.N,/PD4*%
X86804500Y-66103500D02*
X86487000Y-66421000D01*
X86487000Y-66421000D02*
X84646000Y-66421000D01*
X93873120Y-58642250D02*
X93640870Y-58410000D01*
X98429000Y-54922500D02*
X98429000Y-55761911D01*
X91813488Y-58410000D02*
X90879001Y-59344487D01*
X93640870Y-58410000D02*
X91813488Y-58410000D01*
X98429000Y-55761911D02*
X95548661Y-58642250D01*
X90879001Y-59344487D02*
X90879001Y-60296621D01*
X95548661Y-58642250D02*
X93873120Y-58642250D01*
X90879001Y-60296621D02*
X86804500Y-64371121D01*
X86804500Y-64371121D02*
X86804500Y-66103500D01*
%TO.N,Net-(Q3-G)*%
X85309750Y-58022250D02*
X85309750Y-58792750D01*
X85309750Y-58792750D02*
X86518750Y-60001750D01*
%TO.N,Net-(Q3-D)*%
X87012499Y-60659250D02*
X85121750Y-60659250D01*
X85121750Y-60659250D02*
X84359750Y-59897250D01*
X87471250Y-60200499D02*
X87012499Y-60659250D01*
X87471250Y-60001750D02*
X87471250Y-60200499D01*
%TO.N,Net-(LED3-K)*%
X86111750Y-34353500D02*
X85780250Y-34685000D01*
X82909750Y-31898250D02*
X85885250Y-28922750D01*
X82909750Y-34163333D02*
X82909750Y-31898250D01*
X85885250Y-28922750D02*
X85885250Y-27462250D01*
X85885250Y-27462250D02*
X86600000Y-26747500D01*
X85780250Y-34685000D02*
X83431416Y-34685000D01*
X86600000Y-26747500D02*
X87693500Y-26747500D01*
X83431416Y-34685000D02*
X82909750Y-34163333D01*
%TO.N,Net-(U2-PB10)*%
X93879000Y-46011500D02*
X93879000Y-44582000D01*
X92868750Y-46291500D02*
X93599000Y-46291500D01*
X93599000Y-48162528D02*
X93599000Y-48222500D01*
X92646500Y-47210028D02*
X93599000Y-48162528D01*
X92646500Y-47027500D02*
X92646500Y-46513750D01*
X92646500Y-47027500D02*
X92646500Y-47210028D01*
X92646500Y-46513750D02*
X92868750Y-46291500D01*
X93599000Y-46291500D02*
X93879000Y-46011500D01*
%TO.N,Net-(U2-PB11)*%
X94551500Y-47027500D02*
X94551500Y-44604500D01*
X95504000Y-48222500D02*
X95504000Y-48039972D01*
X94551500Y-47087472D02*
X94551500Y-47027500D01*
X95504000Y-48039972D02*
X94551500Y-47087472D01*
X94551500Y-44604500D02*
X94529000Y-44582000D01*
%TO.N,Net-(C24-Pad2)*%
X87280750Y-37626780D02*
X89030030Y-35877500D01*
X88435000Y-40918500D02*
X88015000Y-41338500D01*
X89030030Y-35877500D02*
X89953500Y-35877500D01*
X88435000Y-39966000D02*
X88335000Y-39966000D01*
X87280750Y-38911750D02*
X87280750Y-37626780D01*
X88335000Y-39966000D02*
X87280750Y-38911750D01*
X88435000Y-39966000D02*
X88435000Y-40918500D01*
%TO.N,Net-(C25-Pad2)*%
X91531500Y-41247000D02*
X91440000Y-41338500D01*
X91635000Y-41247000D02*
X91531500Y-41247000D01*
X89953500Y-36830000D02*
X89953500Y-37584500D01*
X91034500Y-38266000D02*
X91635000Y-38866500D01*
X89953500Y-37584500D02*
X90635000Y-38266000D01*
X91440000Y-41338500D02*
X91372500Y-41338500D01*
X91635000Y-38866500D02*
X91635000Y-41247000D01*
X90635000Y-38266000D02*
X91034500Y-38266000D01*
%TO.N,Net-(C29-Pad1)*%
X98238500Y-84469750D02*
X99269250Y-83439000D01*
X99269250Y-83439000D02*
X99269250Y-83261500D01*
X98176750Y-82169000D02*
X98176750Y-81158750D01*
X98176750Y-81158750D02*
X95704246Y-78686246D01*
X98238500Y-84709000D02*
X98238500Y-84469750D01*
X99269250Y-83261500D02*
X98176750Y-82169000D01*
X95704246Y-78686246D02*
X95513746Y-78686246D01*
%TO.N,Net-(LED4-K)*%
X87903750Y-58806750D02*
X88773000Y-59676000D01*
X87471250Y-58806750D02*
X87903750Y-58806750D01*
D52*
%TO.N,Net-(SW5-B)*%
X104561500Y-57490500D02*
X104394000Y-57658000D01*
X107124500Y-57490500D02*
X104561500Y-57490500D01*
%TD*%
%TA.AperFunction,Conductor*%
%TO.N,VDD*%
G36*
X103466735Y-55263907D02*
G01*
X103502699Y-55313407D01*
X103507000Y-55333645D01*
X103507303Y-55336520D01*
X103508327Y-55346261D01*
X103566819Y-55526279D01*
X103566825Y-55526293D01*
X103642015Y-55656525D01*
X103661467Y-55690216D01*
X103788129Y-55830888D01*
X103941270Y-55942151D01*
X104114197Y-56019144D01*
X104299354Y-56058500D01*
X104299357Y-56058500D01*
X104488643Y-56058500D01*
X104488646Y-56058500D01*
X104673803Y-56019144D01*
X104846730Y-55942151D01*
X104999871Y-55830888D01*
X105126533Y-55690216D01*
X105202868Y-55557998D01*
X105248337Y-55517059D01*
X105288604Y-55508500D01*
X106009631Y-55508500D01*
X106029946Y-55510607D01*
X106031856Y-55511007D01*
X106041565Y-55513043D01*
X106071912Y-55509259D01*
X106084157Y-55508500D01*
X106085293Y-55508500D01*
X106104771Y-55505249D01*
X106108802Y-55504661D01*
X106157643Y-55498573D01*
X106157646Y-55498571D01*
X106164679Y-55496477D01*
X106171625Y-55494092D01*
X106171631Y-55494092D01*
X106214905Y-55470671D01*
X106218529Y-55468807D01*
X106262732Y-55447199D01*
X106262732Y-55447198D01*
X106262734Y-55447198D01*
X106262735Y-55447196D01*
X106268720Y-55442923D01*
X106274505Y-55438420D01*
X106274505Y-55438419D01*
X106274508Y-55438418D01*
X106307828Y-55402220D01*
X106310639Y-55399292D01*
X106435936Y-55273996D01*
X106490452Y-55246219D01*
X106505939Y-55245000D01*
X108486705Y-55245000D01*
X108544896Y-55263907D01*
X108580860Y-55313407D01*
X108585702Y-55343293D01*
X108601289Y-57525681D01*
X108582798Y-57584005D01*
X108533556Y-57620322D01*
X108472373Y-57620759D01*
X108460456Y-57616114D01*
X108458372Y-57615142D01*
X108291943Y-57559993D01*
X108189237Y-57549500D01*
X107724000Y-57549500D01*
X107665809Y-57530593D01*
X107629845Y-57481093D01*
X107625000Y-57450500D01*
X107625000Y-57335576D01*
X107624999Y-57335573D01*
X107622000Y-57309724D01*
X107622000Y-57309721D01*
X107616105Y-57296371D01*
X107609897Y-57235506D01*
X107640651Y-57182611D01*
X107646403Y-57177842D01*
X107749915Y-57098415D01*
X107749920Y-57098410D01*
X107847491Y-56971253D01*
X107847492Y-56971251D01*
X107908829Y-56823168D01*
X107908831Y-56823162D01*
X107924499Y-56704150D01*
X107924500Y-56704149D01*
X107924500Y-56655501D01*
X107924499Y-56655500D01*
X106324501Y-56655500D01*
X106324500Y-56655501D01*
X106324500Y-56704150D01*
X106340168Y-56823162D01*
X106340170Y-56823168D01*
X106401507Y-56971249D01*
X106408784Y-56980733D01*
X106429207Y-57038409D01*
X106411829Y-57097075D01*
X106363287Y-57134322D01*
X106330241Y-57140000D01*
X105183411Y-57140000D01*
X105125220Y-57121093D01*
X105109840Y-57107244D01*
X104999876Y-56985116D01*
X104999870Y-56985111D01*
X104923300Y-56929480D01*
X104846730Y-56873849D01*
X104846725Y-56873847D01*
X104846722Y-56873845D01*
X104673805Y-56796857D01*
X104673803Y-56796856D01*
X104673800Y-56796855D01*
X104673799Y-56796855D01*
X104638580Y-56789369D01*
X104488646Y-56757500D01*
X104299354Y-56757500D01*
X104181289Y-56782595D01*
X104114200Y-56796855D01*
X104114194Y-56796857D01*
X103941277Y-56873845D01*
X103941268Y-56873850D01*
X103788129Y-56985111D01*
X103788124Y-56985116D01*
X103661469Y-57125781D01*
X103661465Y-57125787D01*
X103566825Y-57289706D01*
X103566819Y-57289720D01*
X103508327Y-57469738D01*
X103508326Y-57469742D01*
X103508326Y-57469744D01*
X103488540Y-57658000D01*
X103501198Y-57778440D01*
X103508327Y-57846261D01*
X103566819Y-58026279D01*
X103566825Y-58026293D01*
X103636404Y-58146806D01*
X103661467Y-58190216D01*
X103665039Y-58194183D01*
X103714857Y-58249512D01*
X103788129Y-58330888D01*
X103941270Y-58442151D01*
X104114197Y-58519144D01*
X104299354Y-58558500D01*
X104299357Y-58558500D01*
X104488643Y-58558500D01*
X104488646Y-58558500D01*
X104673803Y-58519144D01*
X104846730Y-58442151D01*
X104999871Y-58330888D01*
X105126533Y-58190216D01*
X105221179Y-58026284D01*
X105259155Y-57909404D01*
X105295118Y-57859907D01*
X105353309Y-57841000D01*
X106414486Y-57841000D01*
X106472677Y-57859907D01*
X106508641Y-57909407D01*
X106508641Y-57970593D01*
X106505452Y-57978687D01*
X106449743Y-58146806D01*
X106439250Y-58249512D01*
X106439250Y-58449499D01*
X106439251Y-58449500D01*
X107564249Y-58449500D01*
X107564250Y-58449499D01*
X107564250Y-57822955D01*
X107572684Y-57782970D01*
X107574684Y-57778440D01*
X107615483Y-57732843D01*
X107675292Y-57719936D01*
X107731264Y-57744648D01*
X107762022Y-57797540D01*
X107764250Y-57818425D01*
X107764250Y-58550500D01*
X107745343Y-58608691D01*
X107695843Y-58644655D01*
X107665250Y-58649500D01*
X106439252Y-58649500D01*
X106439251Y-58649501D01*
X106439251Y-58849486D01*
X106449742Y-58952187D01*
X106449745Y-58952199D01*
X106504893Y-59118624D01*
X106596930Y-59267840D01*
X106720909Y-59391819D01*
X106870125Y-59483856D01*
X106909865Y-59497025D01*
X106959155Y-59533276D01*
X106977723Y-59591576D01*
X106958478Y-59649656D01*
X106908769Y-59685331D01*
X106878725Y-59690000D01*
X106792909Y-59690000D01*
X106734718Y-59671093D01*
X106714367Y-59651267D01*
X106695536Y-59626726D01*
X106695535Y-59626725D01*
X106695532Y-59626721D01*
X106695527Y-59626717D01*
X106695526Y-59626716D01*
X106609110Y-59560407D01*
X106570091Y-59530467D01*
X106570090Y-59530466D01*
X106570088Y-59530465D01*
X106424016Y-59469960D01*
X106424008Y-59469958D01*
X106267251Y-59449321D01*
X106267249Y-59449321D01*
X106110491Y-59469958D01*
X106110483Y-59469960D01*
X105964411Y-59530465D01*
X105964410Y-59530465D01*
X105838973Y-59626716D01*
X105838963Y-59626726D01*
X105820133Y-59651267D01*
X105769709Y-59685923D01*
X105741591Y-59690000D01*
X105220766Y-59690000D01*
X105162575Y-59671093D01*
X105135031Y-59640502D01*
X105131291Y-59634026D01*
X105126533Y-59625784D01*
X105027247Y-59515516D01*
X104999875Y-59485116D01*
X104999870Y-59485111D01*
X104881445Y-59399071D01*
X104846730Y-59373849D01*
X104846725Y-59373847D01*
X104846722Y-59373845D01*
X104673805Y-59296857D01*
X104673803Y-59296856D01*
X104673800Y-59296855D01*
X104673799Y-59296855D01*
X104638580Y-59289369D01*
X104488646Y-59257500D01*
X104299354Y-59257500D01*
X104181289Y-59282595D01*
X104114200Y-59296855D01*
X104114194Y-59296857D01*
X103941277Y-59373845D01*
X103941268Y-59373850D01*
X103788129Y-59485111D01*
X103788124Y-59485116D01*
X103661469Y-59625781D01*
X103661465Y-59625787D01*
X103652969Y-59640502D01*
X103607499Y-59681442D01*
X103567234Y-59690000D01*
X102367268Y-59690000D01*
X102309077Y-59671093D01*
X102273113Y-59621593D01*
X102273113Y-59560407D01*
X102273294Y-59559856D01*
X102274755Y-59555445D01*
X102274757Y-59555439D01*
X102285250Y-59452737D01*
X102285250Y-59252751D01*
X102285249Y-59252750D01*
X101059250Y-59252750D01*
X101001059Y-59233843D01*
X100965095Y-59184343D01*
X100960250Y-59153750D01*
X100960250Y-59052749D01*
X101160250Y-59052749D01*
X101160251Y-59052750D01*
X102285248Y-59052750D01*
X102285249Y-59052749D01*
X102285249Y-58852763D01*
X102274757Y-58750062D01*
X102274754Y-58750050D01*
X102219606Y-58583625D01*
X102127569Y-58434409D01*
X102003590Y-58310430D01*
X101854374Y-58218393D01*
X101687943Y-58163243D01*
X101585237Y-58152750D01*
X101160251Y-58152750D01*
X101160250Y-58152751D01*
X101160250Y-59052749D01*
X100960250Y-59052749D01*
X100960250Y-58152751D01*
X100960249Y-58152750D01*
X100535263Y-58152750D01*
X100432562Y-58163242D01*
X100432547Y-58163245D01*
X100340257Y-58193827D01*
X100279073Y-58194183D01*
X100230576Y-58160119D01*
X100216827Y-58142201D01*
X100216826Y-58142200D01*
X100216823Y-58142196D01*
X100216818Y-58142192D01*
X100216817Y-58142191D01*
X100091379Y-58045940D01*
X99945307Y-57985435D01*
X99945299Y-57985433D01*
X99782108Y-57963949D01*
X99782488Y-57961055D01*
X99735809Y-57945889D01*
X99699845Y-57896389D01*
X99695000Y-57865796D01*
X99695000Y-57259256D01*
X99713907Y-57201065D01*
X99763407Y-57165101D01*
X99782939Y-57162007D01*
X99782820Y-57161103D01*
X99789253Y-57160256D01*
X99946015Y-57139618D01*
X100092094Y-57079110D01*
X100217535Y-56982856D01*
X100230870Y-56965477D01*
X100281293Y-56930821D01*
X100340553Y-56931769D01*
X100432553Y-56962255D01*
X100432560Y-56962257D01*
X100535262Y-56972749D01*
X100960248Y-56972749D01*
X100960250Y-56972748D01*
X101160250Y-56972748D01*
X101160251Y-56972749D01*
X101585236Y-56972749D01*
X101687937Y-56962257D01*
X101687949Y-56962254D01*
X101854374Y-56907106D01*
X102003590Y-56815069D01*
X102127569Y-56691090D01*
X102219606Y-56541874D01*
X102248228Y-56455499D01*
X106324500Y-56455499D01*
X106324501Y-56455500D01*
X107024499Y-56455500D01*
X107024500Y-56455499D01*
X107224500Y-56455499D01*
X107224501Y-56455500D01*
X107924499Y-56455500D01*
X107924500Y-56455499D01*
X107924500Y-56406851D01*
X107924499Y-56406849D01*
X107908831Y-56287837D01*
X107908829Y-56287831D01*
X107847492Y-56139748D01*
X107847491Y-56139746D01*
X107749920Y-56012589D01*
X107749910Y-56012579D01*
X107622753Y-55915008D01*
X107622751Y-55915007D01*
X107474668Y-55853670D01*
X107474662Y-55853668D01*
X107355650Y-55838000D01*
X107224501Y-55838000D01*
X107224500Y-55838001D01*
X107224500Y-56455499D01*
X107024500Y-56455499D01*
X107024500Y-55838001D01*
X107024499Y-55838000D01*
X106893349Y-55838000D01*
X106774337Y-55853668D01*
X106774331Y-55853670D01*
X106626248Y-55915007D01*
X106626246Y-55915008D01*
X106499089Y-56012579D01*
X106499079Y-56012589D01*
X106401508Y-56139746D01*
X106401507Y-56139748D01*
X106340170Y-56287831D01*
X106340168Y-56287837D01*
X106324500Y-56406849D01*
X106324500Y-56455499D01*
X102248228Y-56455499D01*
X102274756Y-56375443D01*
X102285250Y-56272737D01*
X102285250Y-56072751D01*
X102285249Y-56072750D01*
X101160251Y-56072750D01*
X101160250Y-56072751D01*
X101160250Y-56972748D01*
X100960250Y-56972748D01*
X100960250Y-55971750D01*
X100979157Y-55913559D01*
X101028657Y-55877595D01*
X101059250Y-55872750D01*
X102285248Y-55872750D01*
X102285249Y-55872749D01*
X102285249Y-55672763D01*
X102274757Y-55570062D01*
X102274754Y-55570050D01*
X102219606Y-55403624D01*
X102214887Y-55395973D01*
X102200430Y-55336520D01*
X102223680Y-55279924D01*
X102275756Y-55247803D01*
X102299147Y-55245000D01*
X103408544Y-55245000D01*
X103466735Y-55263907D01*
G37*
%TD.AperFunction*%
%TD*%
%TA.AperFunction,Conductor*%
%TO.N,GND*%
G36*
X108809422Y-54226643D02*
G01*
X108842758Y-54231500D01*
X109052456Y-54231500D01*
X109119495Y-54251185D01*
X109140137Y-54267819D01*
X109245931Y-54373613D01*
X109279416Y-54434936D01*
X109282250Y-54461294D01*
X109282250Y-59864911D01*
X109262565Y-59931950D01*
X109245931Y-59952592D01*
X109088096Y-60110427D01*
X109026773Y-60143912D01*
X108957081Y-60138928D01*
X108901148Y-60097056D01*
X108881178Y-60053134D01*
X108880886Y-60053231D01*
X108879980Y-60050499D01*
X108879160Y-60048694D01*
X108878754Y-60046797D01*
X108823608Y-59880380D01*
X108823606Y-59880375D01*
X108731567Y-59731157D01*
X108621318Y-59620907D01*
X108587834Y-59559584D01*
X108585000Y-59533226D01*
X108585000Y-58906265D01*
X108586567Y-58891748D01*
X108586192Y-58891713D01*
X108589750Y-58853769D01*
X108589750Y-58245231D01*
X108586192Y-58207290D01*
X108586567Y-58207254D01*
X108585000Y-58192736D01*
X108585000Y-57897668D01*
X108604685Y-57830629D01*
X108650501Y-57790928D01*
X108649497Y-57789188D01*
X108655523Y-57785710D01*
X108655531Y-57785707D01*
X108704773Y-57749390D01*
X108732343Y-57724954D01*
X108778689Y-57646110D01*
X108797180Y-57587786D01*
X108806784Y-57524213D01*
X108791197Y-55341825D01*
X108789358Y-55319957D01*
X108788558Y-55310433D01*
X108783721Y-55280577D01*
X108783057Y-55276714D01*
X108781149Y-55272250D01*
X108747113Y-55192617D01*
X108711149Y-55143117D01*
X108686908Y-55115372D01*
X108645399Y-55090571D01*
X108597946Y-55039287D01*
X108585000Y-54984124D01*
X108585000Y-54435172D01*
X108604685Y-54368133D01*
X108621319Y-54347490D01*
X108688162Y-54280647D01*
X108692942Y-54274485D01*
X108695409Y-54276398D01*
X108735861Y-54238583D01*
X108804596Y-54226038D01*
X108809422Y-54226643D01*
G37*
%TD.AperFunction*%
%TA.AperFunction,Conductor*%
G36*
X110270289Y-48533685D02*
G01*
X110316044Y-48586489D01*
X110327250Y-48638000D01*
X110327250Y-50072750D01*
X110307565Y-50139789D01*
X110254761Y-50185544D01*
X110203250Y-50196750D01*
X109951250Y-50196750D01*
X109884211Y-50177065D01*
X109838456Y-50124261D01*
X109827250Y-50072750D01*
X109827250Y-48638000D01*
X109846935Y-48570961D01*
X109899739Y-48525206D01*
X109951250Y-48514000D01*
X110203250Y-48514000D01*
X110270289Y-48533685D01*
G37*
%TD.AperFunction*%
%TA.AperFunction,Conductor*%
G36*
X109726584Y-45438991D02*
G01*
X109782517Y-45480863D01*
X109806934Y-45546327D01*
X109807250Y-45555173D01*
X109807250Y-45734288D01*
X109804611Y-45759732D01*
X109802707Y-45768811D01*
X109802707Y-45768816D01*
X109806298Y-45797621D01*
X109807146Y-45811295D01*
X109807249Y-45812532D01*
X109810416Y-45831515D01*
X109811153Y-45836577D01*
X109817176Y-45884890D01*
X109819274Y-45891935D01*
X109821657Y-45898879D01*
X109821658Y-45898881D01*
X109833317Y-45920424D01*
X109844832Y-45941703D01*
X109847171Y-45946247D01*
X109868552Y-45989984D01*
X109868554Y-45989986D01*
X109868555Y-45989988D01*
X109872812Y-45995951D01*
X109877333Y-46001759D01*
X109913148Y-46034730D01*
X109916846Y-46038278D01*
X110091001Y-46212433D01*
X110107131Y-46232296D01*
X110110875Y-46238027D01*
X110121624Y-46258389D01*
X110125027Y-46266603D01*
X110139785Y-46302231D01*
X110166348Y-46336849D01*
X110220470Y-46407383D01*
X110236039Y-46427672D01*
X110280511Y-46461796D01*
X110321712Y-46518223D01*
X110323865Y-46524780D01*
X110325840Y-46531412D01*
X110328228Y-46538370D01*
X110328229Y-46538372D01*
X110329646Y-46540990D01*
X110351403Y-46581194D01*
X110353742Y-46585738D01*
X110375123Y-46629475D01*
X110375125Y-46629477D01*
X110375126Y-46629479D01*
X110379383Y-46635442D01*
X110383904Y-46641250D01*
X110419719Y-46674221D01*
X110423417Y-46677769D01*
X110850431Y-47104783D01*
X110883916Y-47166106D01*
X110886750Y-47192464D01*
X110886750Y-47980327D01*
X110867065Y-48047366D01*
X110814261Y-48093121D01*
X110745103Y-48103065D01*
X110681547Y-48074040D01*
X110675069Y-48068008D01*
X110636900Y-48029839D01*
X110630732Y-48025055D01*
X110632634Y-48022601D01*
X110594781Y-47982034D01*
X110582300Y-47913288D01*
X110582900Y-47908529D01*
X110587750Y-47875241D01*
X110587750Y-47382763D01*
X110587750Y-47382758D01*
X110577683Y-47313660D01*
X110525574Y-47207071D01*
X110525573Y-47207070D01*
X110525573Y-47207069D01*
X110441680Y-47123176D01*
X110335092Y-47071067D01*
X110317815Y-47068550D01*
X110265992Y-47061000D01*
X109888508Y-47061000D01*
X109842442Y-47067711D01*
X109819407Y-47071067D01*
X109712820Y-47123176D01*
X109711300Y-47124262D01*
X109708879Y-47125102D01*
X109703590Y-47127689D01*
X109703277Y-47127049D01*
X109645301Y-47147194D01*
X109577381Y-47130805D01*
X109529104Y-47080297D01*
X109515250Y-47023342D01*
X109515250Y-46576499D01*
X109515249Y-46576497D01*
X109503618Y-46518020D01*
X109503617Y-46518019D01*
X109456478Y-46447471D01*
X109435600Y-46380794D01*
X109448178Y-46324123D01*
X109498183Y-46221840D01*
X109508250Y-46152742D01*
X109508250Y-45660258D01*
X109503399Y-45626964D01*
X109513213Y-45557791D01*
X109552584Y-45512181D01*
X109551235Y-45510442D01*
X109557402Y-45505658D01*
X109595569Y-45467492D01*
X109656892Y-45434007D01*
X109726584Y-45438991D01*
G37*
%TD.AperFunction*%
%TA.AperFunction,Conductor*%
G36*
X83227357Y-24015185D02*
G01*
X83273112Y-24067989D01*
X83283056Y-24137147D01*
X83257929Y-24195972D01*
X83254678Y-24200120D01*
X83166730Y-24345604D01*
X83116159Y-24507893D01*
X83109750Y-24578427D01*
X83109750Y-25010000D01*
X85528750Y-25010000D01*
X85595789Y-25029685D01*
X85641544Y-25082489D01*
X85652750Y-25134000D01*
X85652750Y-25150000D01*
X85703000Y-25150000D01*
X85703000Y-24580000D01*
X85697159Y-24574159D01*
X85650012Y-24560315D01*
X85604257Y-24507511D01*
X85598666Y-24492891D01*
X85552768Y-24345603D01*
X85464821Y-24200120D01*
X85461571Y-24195972D01*
X85435722Y-24131060D01*
X85449071Y-24062477D01*
X85497380Y-24011999D01*
X85559182Y-23995500D01*
X104940818Y-23995500D01*
X105007857Y-24015185D01*
X105053612Y-24067989D01*
X105063556Y-24137147D01*
X105038429Y-24195972D01*
X105035178Y-24200120D01*
X104947232Y-24345600D01*
X104901336Y-24492890D01*
X104862598Y-24551038D01*
X104798573Y-24579012D01*
X104797948Y-24579051D01*
X104797000Y-24580000D01*
X104797000Y-25150000D01*
X104847250Y-25150000D01*
X104847250Y-25134000D01*
X104866935Y-25066961D01*
X104919739Y-25021206D01*
X104971250Y-25010000D01*
X107390249Y-25010000D01*
X107390249Y-24578417D01*
X107383841Y-24507897D01*
X107383840Y-24507892D01*
X107333268Y-24345603D01*
X107245321Y-24200120D01*
X107242071Y-24195972D01*
X107216222Y-24131060D01*
X107229571Y-24062477D01*
X107277880Y-24011999D01*
X107339682Y-23995500D01*
X109834108Y-23995500D01*
X109897575Y-23995500D01*
X109902443Y-23995596D01*
X110354096Y-24013341D01*
X110363766Y-24014102D01*
X110810230Y-24066945D01*
X110819835Y-24068466D01*
X111260763Y-24156172D01*
X111270223Y-24158443D01*
X111702897Y-24280470D01*
X111712157Y-24283478D01*
X112133937Y-24439081D01*
X112142933Y-24442807D01*
X112551203Y-24631022D01*
X112559866Y-24635437D01*
X112862826Y-24805103D01*
X112911699Y-24855034D01*
X112925819Y-24923462D01*
X112900703Y-24988661D01*
X112844324Y-25029931D01*
X112782840Y-25035765D01*
X112616355Y-25009397D01*
X112250001Y-24990197D01*
X112249999Y-24990197D01*
X111883646Y-25009397D01*
X111521315Y-25066784D01*
X111521313Y-25066784D01*
X111166948Y-25161736D01*
X110824464Y-25293204D01*
X110497594Y-25459754D01*
X110189924Y-25659557D01*
X109956849Y-25848296D01*
X109956849Y-25848297D01*
X111380116Y-27271564D01*
X111325523Y-27307232D01*
X111142632Y-27475596D01*
X111026390Y-27624942D01*
X109603297Y-26201849D01*
X109603296Y-26201849D01*
X109414557Y-26434924D01*
X109214754Y-26742594D01*
X109048204Y-27069464D01*
X108916736Y-27411948D01*
X108821784Y-27766313D01*
X108821784Y-27766315D01*
X108764397Y-28128646D01*
X108745197Y-28494999D01*
X108745197Y-28495000D01*
X108764397Y-28861353D01*
X108821784Y-29223684D01*
X108821784Y-29223686D01*
X108916736Y-29578051D01*
X109048204Y-29920535D01*
X109214754Y-30247406D01*
X109414553Y-30555070D01*
X109603297Y-30788148D01*
X111026389Y-29365056D01*
X111142632Y-29514404D01*
X111325523Y-29682768D01*
X111380116Y-29718435D01*
X109956850Y-31141701D01*
X110189929Y-31330446D01*
X110497593Y-31530245D01*
X110824464Y-31696795D01*
X111166948Y-31828263D01*
X111521314Y-31923215D01*
X111883646Y-31980602D01*
X112249999Y-31999803D01*
X112250001Y-31999803D01*
X112616353Y-31980602D01*
X112978684Y-31923215D01*
X112978686Y-31923215D01*
X113333051Y-31828263D01*
X113675535Y-31696795D01*
X114002406Y-31530245D01*
X114310064Y-31330450D01*
X114543148Y-31141701D01*
X113119882Y-29718435D01*
X113174477Y-29682768D01*
X113357368Y-29514404D01*
X113473610Y-29365057D01*
X114896701Y-30788148D01*
X115085450Y-30555064D01*
X115285245Y-30247406D01*
X115451796Y-29920532D01*
X115508545Y-29772696D01*
X115550946Y-29717163D01*
X115616640Y-29693370D01*
X115684769Y-29708871D01*
X115733702Y-29758744D01*
X115748213Y-29812262D01*
X115749316Y-29840319D01*
X115749332Y-29849656D01*
X115734486Y-30261595D01*
X115733843Y-30270503D01*
X115689363Y-30680500D01*
X115688080Y-30689339D01*
X115614206Y-31095051D01*
X115612291Y-31103775D01*
X115509397Y-31503144D01*
X115506858Y-31511707D01*
X115375494Y-31902605D01*
X115372346Y-31910964D01*
X115213175Y-32291416D01*
X115209433Y-32299526D01*
X115023298Y-32667517D01*
X115018983Y-32675336D01*
X114806832Y-33028989D01*
X114801964Y-33036478D01*
X114564914Y-33373931D01*
X114559520Y-33381050D01*
X114298794Y-33700566D01*
X114292902Y-33707278D01*
X114008325Y-34008816D01*
X114005193Y-34012017D01*
X113830968Y-34183757D01*
X113505225Y-34554820D01*
X113505214Y-34554834D01*
X113207039Y-34948367D01*
X113207030Y-34948380D01*
X113000367Y-35266337D01*
X112942881Y-35354781D01*
X112937946Y-35362373D01*
X112937944Y-35362376D01*
X112699364Y-35794652D01*
X112699363Y-35794654D01*
X112492517Y-36242985D01*
X112492513Y-36242996D01*
X112318477Y-36705048D01*
X112263652Y-36890000D01*
X112223868Y-37024214D01*
X112178146Y-37178456D01*
X112178142Y-37178472D01*
X112072258Y-37660720D01*
X112001358Y-38149371D01*
X111965820Y-38641822D01*
X111965819Y-38641852D01*
X111965842Y-38884844D01*
X111965842Y-78108336D01*
X111965820Y-78348147D01*
X111965821Y-78348177D01*
X112001359Y-78840628D01*
X112072259Y-79329279D01*
X112178143Y-79811526D01*
X112178147Y-79811544D01*
X112306452Y-80244379D01*
X112318478Y-80284950D01*
X112492514Y-80747002D01*
X112492518Y-80747014D01*
X112699357Y-81195330D01*
X112699361Y-81195338D01*
X112699365Y-81195345D01*
X112699366Y-81195347D01*
X112937952Y-81627635D01*
X113052514Y-81803890D01*
X113207031Y-82041619D01*
X113207040Y-82041632D01*
X113505214Y-82435164D01*
X113505237Y-82435192D01*
X113830958Y-82806232D01*
X113830965Y-82806239D01*
X113982064Y-82955183D01*
X114005158Y-82977947D01*
X114008290Y-82981148D01*
X114277152Y-83266035D01*
X114292901Y-83282722D01*
X114298790Y-83289431D01*
X114299854Y-83290734D01*
X114559520Y-83608950D01*
X114564914Y-83616069D01*
X114801963Y-83953522D01*
X114806831Y-83961011D01*
X114854342Y-84040211D01*
X115006574Y-84293981D01*
X115018982Y-84314664D01*
X115023293Y-84322476D01*
X115208687Y-84688998D01*
X115209433Y-84690473D01*
X115213175Y-84698584D01*
X115372345Y-85079035D01*
X115375493Y-85087393D01*
X115506857Y-85478292D01*
X115509396Y-85486855D01*
X115612290Y-85886224D01*
X115614205Y-85894948D01*
X115688079Y-86300660D01*
X115689362Y-86309499D01*
X115733842Y-86719496D01*
X115734485Y-86728404D01*
X115749331Y-87140355D01*
X115749315Y-87149690D01*
X115748213Y-87177735D01*
X115725912Y-87243950D01*
X115671352Y-87287596D01*
X115601856Y-87294816D01*
X115539489Y-87263318D01*
X115508545Y-87217303D01*
X115451796Y-87069467D01*
X115285245Y-86742594D01*
X115085446Y-86434929D01*
X114896701Y-86201850D01*
X113473609Y-87624942D01*
X113357368Y-87475596D01*
X113174477Y-87307232D01*
X113119883Y-87271564D01*
X114543149Y-85848297D01*
X114310070Y-85659553D01*
X114002406Y-85459754D01*
X113675535Y-85293204D01*
X113333051Y-85161736D01*
X112978685Y-85066784D01*
X112616353Y-85009397D01*
X112250001Y-84990197D01*
X112249999Y-84990197D01*
X111883646Y-85009397D01*
X111521315Y-85066784D01*
X111521313Y-85066784D01*
X111166948Y-85161736D01*
X110824464Y-85293204D01*
X110497594Y-85459754D01*
X110189924Y-85659557D01*
X109956849Y-85848296D01*
X109956849Y-85848297D01*
X111380116Y-87271564D01*
X111325523Y-87307232D01*
X111142632Y-87475596D01*
X111026390Y-87624942D01*
X109603297Y-86201849D01*
X109603296Y-86201849D01*
X109414557Y-86434924D01*
X109214754Y-86742594D01*
X109048204Y-87069464D01*
X108916736Y-87411948D01*
X108821784Y-87766313D01*
X108821784Y-87766315D01*
X108764397Y-88128646D01*
X108745197Y-88494999D01*
X108745197Y-88495000D01*
X108764397Y-88861353D01*
X108821784Y-89223684D01*
X108821784Y-89223686D01*
X108916736Y-89578051D01*
X109048204Y-89920535D01*
X109214754Y-90247406D01*
X109414553Y-90555070D01*
X109603297Y-90788148D01*
X111026389Y-89365056D01*
X111142632Y-89514404D01*
X111325523Y-89682768D01*
X111380116Y-89718435D01*
X109956850Y-91141701D01*
X110189929Y-91330446D01*
X110497593Y-91530245D01*
X110824464Y-91696795D01*
X111166948Y-91828263D01*
X111521314Y-91923215D01*
X111883646Y-91980602D01*
X112249999Y-91999803D01*
X112250001Y-91999803D01*
X112616353Y-91980602D01*
X112782839Y-91954234D01*
X112852132Y-91963189D01*
X112905584Y-92008185D01*
X112926224Y-92074936D01*
X112907499Y-92142250D01*
X112862826Y-92184896D01*
X112559866Y-92354562D01*
X112551191Y-92358983D01*
X112142932Y-92547192D01*
X112133937Y-92550918D01*
X111712157Y-92706521D01*
X111702897Y-92709529D01*
X111270227Y-92831555D01*
X111260759Y-92833828D01*
X110819840Y-92921532D01*
X110810224Y-92923055D01*
X110363785Y-92975895D01*
X110354078Y-92976659D01*
X109902443Y-92994404D01*
X109897575Y-92994500D01*
X80602425Y-92994500D01*
X80597557Y-92994404D01*
X80145921Y-92976659D01*
X80136214Y-92975895D01*
X79689775Y-92923055D01*
X79680159Y-92921532D01*
X79239240Y-92833828D01*
X79229772Y-92831555D01*
X78797102Y-92709529D01*
X78787842Y-92706521D01*
X78366062Y-92550918D01*
X78357067Y-92547192D01*
X77948808Y-92358983D01*
X77940133Y-92354562D01*
X77637173Y-92184896D01*
X77588300Y-92134965D01*
X77574180Y-92066537D01*
X77599296Y-92001338D01*
X77655675Y-91960068D01*
X77717160Y-91954234D01*
X77883646Y-91980602D01*
X78249999Y-91999803D01*
X78250001Y-91999803D01*
X78616353Y-91980602D01*
X78978684Y-91923215D01*
X78978686Y-91923215D01*
X79333051Y-91828263D01*
X79675535Y-91696795D01*
X80002406Y-91530245D01*
X80310064Y-91330450D01*
X80543148Y-91141701D01*
X79119882Y-89718435D01*
X79174477Y-89682768D01*
X79357368Y-89514404D01*
X79473610Y-89365057D01*
X80896701Y-90788148D01*
X81085450Y-90555064D01*
X81285245Y-90247406D01*
X81451795Y-89920535D01*
X81583263Y-89578051D01*
X81678215Y-89223686D01*
X81678215Y-89223684D01*
X81735602Y-88861353D01*
X81754803Y-88495000D01*
X81754803Y-88494999D01*
X81735602Y-88128646D01*
X81678215Y-87766315D01*
X81678215Y-87766313D01*
X81583263Y-87411948D01*
X81451795Y-87069464D01*
X81285245Y-86742594D01*
X81085446Y-86434929D01*
X80896701Y-86201850D01*
X79473609Y-87624942D01*
X79357368Y-87475596D01*
X79174477Y-87307232D01*
X79119883Y-87271564D01*
X80543149Y-85848297D01*
X80310070Y-85659553D01*
X80002406Y-85459754D01*
X79675535Y-85293204D01*
X79333051Y-85161736D01*
X78978685Y-85066784D01*
X78616353Y-85009397D01*
X78250001Y-84990197D01*
X78249999Y-84990197D01*
X77883646Y-85009397D01*
X77521315Y-85066784D01*
X77521313Y-85066784D01*
X77166948Y-85161736D01*
X76824464Y-85293204D01*
X76497594Y-85459754D01*
X76189924Y-85659557D01*
X75956849Y-85848296D01*
X75956849Y-85848297D01*
X77380116Y-87271564D01*
X77325523Y-87307232D01*
X77142632Y-87475596D01*
X77026390Y-87624942D01*
X75603297Y-86201849D01*
X75603296Y-86201849D01*
X75414557Y-86434924D01*
X75214754Y-86742594D01*
X75048204Y-87069464D01*
X74991454Y-87217304D01*
X74949052Y-87272836D01*
X74883358Y-87296629D01*
X74815229Y-87281127D01*
X74766297Y-87231254D01*
X74751786Y-87177737D01*
X74751532Y-87171268D01*
X74750682Y-87149656D01*
X74750667Y-87140355D01*
X74765513Y-86728400D01*
X74766156Y-86719496D01*
X74810639Y-86309475D01*
X74811915Y-86300684D01*
X74885795Y-85894935D01*
X74887704Y-85886237D01*
X74990605Y-85486842D01*
X74993136Y-85478306D01*
X75124509Y-85087382D01*
X75127653Y-85079035D01*
X75129998Y-85073431D01*
X75286836Y-84698556D01*
X75290553Y-84690500D01*
X75463152Y-84349269D01*
X90900750Y-84349269D01*
X90903603Y-84379699D01*
X90903603Y-84379701D01*
X90948456Y-84507880D01*
X90948457Y-84507882D01*
X91029100Y-84617150D01*
X91138368Y-84697793D01*
X91181095Y-84712744D01*
X91266549Y-84742646D01*
X91296980Y-84745500D01*
X91296984Y-84745500D01*
X91366944Y-84745500D01*
X91433983Y-84765185D01*
X91479738Y-84817989D01*
X91489682Y-84887147D01*
X91481506Y-84916947D01*
X91476929Y-84928000D01*
X91474758Y-84933240D01*
X91454121Y-85089998D01*
X91454121Y-85090001D01*
X91474758Y-85246760D01*
X91474759Y-85246762D01*
X91532292Y-85385660D01*
X91535267Y-85392841D01*
X91631521Y-85518282D01*
X91756962Y-85614536D01*
X91903041Y-85675044D01*
X91981422Y-85685363D01*
X92059802Y-85695682D01*
X92059803Y-85695682D01*
X92059804Y-85695682D01*
X92112057Y-85688802D01*
X92216565Y-85675044D01*
X92362644Y-85614536D01*
X92488085Y-85518282D01*
X92584339Y-85392841D01*
X92644847Y-85246762D01*
X92665485Y-85090000D01*
X92660125Y-85049289D01*
X92670890Y-84980256D01*
X92717269Y-84928000D01*
X92784538Y-84909114D01*
X92848161Y-84927566D01*
X92932125Y-84979356D01*
X92932130Y-84979358D01*
X93098552Y-85034505D01*
X93098559Y-85034506D01*
X93201269Y-85044999D01*
X93751250Y-85044999D01*
X93801222Y-85044999D01*
X93801236Y-85044998D01*
X93903947Y-85034505D01*
X94070369Y-84979358D01*
X94070374Y-84979356D01*
X94219595Y-84887315D01*
X94343567Y-84763343D01*
X94370615Y-84719492D01*
X94422563Y-84672767D01*
X94491525Y-84661544D01*
X94549786Y-84684817D01*
X94567368Y-84697793D01*
X94610095Y-84712744D01*
X94695549Y-84742646D01*
X94725980Y-84745500D01*
X94725984Y-84745500D01*
X94827694Y-84745500D01*
X94894733Y-84765185D01*
X94940488Y-84817989D01*
X94950432Y-84887147D01*
X94942256Y-84916947D01*
X94937679Y-84928000D01*
X94935508Y-84933240D01*
X94914871Y-85089998D01*
X94914871Y-85090001D01*
X94935508Y-85246760D01*
X94935509Y-85246762D01*
X94993042Y-85385660D01*
X94996017Y-85392841D01*
X95092271Y-85518282D01*
X95217712Y-85614536D01*
X95363791Y-85675044D01*
X95442172Y-85685363D01*
X95520552Y-85695682D01*
X95520553Y-85695682D01*
X95520554Y-85695682D01*
X95572807Y-85688802D01*
X95677315Y-85675044D01*
X95823394Y-85614536D01*
X95948835Y-85518282D01*
X96045089Y-85392841D01*
X96105597Y-85246762D01*
X96126235Y-85090000D01*
X96123681Y-85070603D01*
X96134445Y-85001571D01*
X96180824Y-84949315D01*
X96248093Y-84930428D01*
X96311718Y-84948881D01*
X96361123Y-84979355D01*
X96361130Y-84979358D01*
X96527552Y-85034505D01*
X96527559Y-85034506D01*
X96630269Y-85044999D01*
X96680249Y-85044998D01*
X96680250Y-85044998D01*
X96680250Y-82595000D01*
X96680249Y-82594999D01*
X96630279Y-82595000D01*
X96630261Y-82595001D01*
X96527552Y-82605494D01*
X96361130Y-82660641D01*
X96361125Y-82660643D01*
X96211904Y-82752684D01*
X96087934Y-82876654D01*
X95995893Y-83025875D01*
X95995891Y-83025880D01*
X95940155Y-83194082D01*
X95900382Y-83251527D01*
X95835867Y-83278350D01*
X95767091Y-83266035D01*
X95715891Y-83218492D01*
X95705408Y-83196033D01*
X95683043Y-83132119D01*
X95683042Y-83132117D01*
X95675207Y-83121501D01*
X95602400Y-83022850D01*
X95493132Y-82942207D01*
X95493130Y-82942206D01*
X95364950Y-82897353D01*
X95334520Y-82894500D01*
X95334516Y-82894500D01*
X94725984Y-82894500D01*
X94725980Y-82894500D01*
X94695550Y-82897353D01*
X94695548Y-82897353D01*
X94567369Y-82942206D01*
X94567365Y-82942208D01*
X94549785Y-82955183D01*
X94484156Y-82979153D01*
X94415986Y-82963835D01*
X94370616Y-82920508D01*
X94343569Y-82876659D01*
X94343566Y-82876655D01*
X94219595Y-82752684D01*
X94070374Y-82660643D01*
X94070369Y-82660641D01*
X93903947Y-82605494D01*
X93903940Y-82605493D01*
X93801236Y-82595000D01*
X93751250Y-82595000D01*
X93751250Y-85044999D01*
X93201269Y-85044999D01*
X93251249Y-85044998D01*
X93251250Y-85044998D01*
X93251250Y-82595000D01*
X93251249Y-82594999D01*
X93201279Y-82595000D01*
X93201261Y-82595001D01*
X93098552Y-82605494D01*
X92932130Y-82660641D01*
X92932125Y-82660643D01*
X92782904Y-82752684D01*
X92658934Y-82876654D01*
X92566893Y-83025875D01*
X92566891Y-83025880D01*
X92511155Y-83194082D01*
X92471382Y-83251527D01*
X92406867Y-83278350D01*
X92338091Y-83266035D01*
X92286891Y-83218492D01*
X92276408Y-83196033D01*
X92254043Y-83132119D01*
X92254042Y-83132117D01*
X92246207Y-83121501D01*
X92173400Y-83022850D01*
X92064132Y-82942207D01*
X92064130Y-82942206D01*
X91935950Y-82897353D01*
X91905520Y-82894500D01*
X91905516Y-82894500D01*
X91296984Y-82894500D01*
X91296980Y-82894500D01*
X91266550Y-82897353D01*
X91266548Y-82897353D01*
X91138369Y-82942206D01*
X91138367Y-82942207D01*
X91029100Y-83022850D01*
X90948457Y-83132117D01*
X90948456Y-83132119D01*
X90903603Y-83260298D01*
X90903603Y-83260300D01*
X90900750Y-83290730D01*
X90900750Y-84349269D01*
X75463152Y-84349269D01*
X75476716Y-84322453D01*
X75481000Y-84314691D01*
X75693175Y-83960997D01*
X75698025Y-83953535D01*
X75935095Y-83616053D01*
X75940468Y-83608963D01*
X76201221Y-83289413D01*
X76207080Y-83282739D01*
X76491708Y-82981148D01*
X76494760Y-82978028D01*
X76669035Y-82806239D01*
X76994777Y-82435176D01*
X77292964Y-82041627D01*
X77562049Y-81627635D01*
X77800635Y-81195348D01*
X78007485Y-80747008D01*
X78181526Y-80284941D01*
X78321854Y-79811545D01*
X78334928Y-79752000D01*
X82556000Y-79752000D01*
X82556000Y-80184844D01*
X82562401Y-80244372D01*
X82562403Y-80244379D01*
X82612645Y-80379086D01*
X82612649Y-80379093D01*
X82698809Y-80494187D01*
X82698812Y-80494190D01*
X82813906Y-80580350D01*
X82813913Y-80580354D01*
X82948620Y-80630596D01*
X82948627Y-80630598D01*
X83008155Y-80636999D01*
X83008172Y-80637000D01*
X84396000Y-80637000D01*
X84396000Y-79752000D01*
X84896000Y-79752000D01*
X84896000Y-80637000D01*
X86283828Y-80637000D01*
X86283844Y-80636999D01*
X86343372Y-80630598D01*
X86343379Y-80630596D01*
X86478086Y-80580354D01*
X86478093Y-80580350D01*
X86593187Y-80494190D01*
X86593190Y-80494187D01*
X86679350Y-80379093D01*
X86679354Y-80379086D01*
X86729596Y-80244379D01*
X86729598Y-80244372D01*
X86735999Y-80184844D01*
X86736000Y-80184827D01*
X86736000Y-79752000D01*
X88016000Y-79752000D01*
X88016000Y-80184844D01*
X88022401Y-80244372D01*
X88022403Y-80244379D01*
X88072645Y-80379086D01*
X88072649Y-80379093D01*
X88158809Y-80494187D01*
X88158812Y-80494190D01*
X88273906Y-80580350D01*
X88273913Y-80580354D01*
X88408620Y-80630596D01*
X88408627Y-80630598D01*
X88468155Y-80636999D01*
X88468172Y-80637000D01*
X89856000Y-80637000D01*
X89856000Y-79752000D01*
X90356000Y-79752000D01*
X90356000Y-80637000D01*
X91743828Y-80637000D01*
X91743844Y-80636999D01*
X91803372Y-80630598D01*
X91803379Y-80630596D01*
X91938086Y-80580354D01*
X91938093Y-80580350D01*
X92053187Y-80494190D01*
X92053190Y-80494187D01*
X92139350Y-80379093D01*
X92139354Y-80379086D01*
X92189596Y-80244379D01*
X92189598Y-80244372D01*
X92195999Y-80184844D01*
X92196000Y-80184827D01*
X92196000Y-79752000D01*
X90356000Y-79752000D01*
X89856000Y-79752000D01*
X88016000Y-79752000D01*
X86736000Y-79752000D01*
X84896000Y-79752000D01*
X84396000Y-79752000D01*
X82556000Y-79752000D01*
X78334928Y-79752000D01*
X78427742Y-79329275D01*
X78438954Y-79252000D01*
X82556000Y-79252000D01*
X84396000Y-79252000D01*
X84396000Y-78367000D01*
X84896000Y-78367000D01*
X84896000Y-79252000D01*
X86736000Y-79252000D01*
X88016000Y-79252000D01*
X89856000Y-79252000D01*
X89856000Y-78367000D01*
X90356000Y-78367000D01*
X90356000Y-79252000D01*
X92196000Y-79252000D01*
X92196000Y-78819172D01*
X92195999Y-78819155D01*
X92189598Y-78759627D01*
X92189596Y-78759620D01*
X92139354Y-78624913D01*
X92139350Y-78624906D01*
X92053190Y-78509812D01*
X92053187Y-78509809D01*
X91938093Y-78423649D01*
X91938086Y-78423645D01*
X91803379Y-78373403D01*
X91803372Y-78373401D01*
X91743844Y-78367000D01*
X90356000Y-78367000D01*
X89856000Y-78367000D01*
X88468155Y-78367000D01*
X88408627Y-78373401D01*
X88408620Y-78373403D01*
X88273913Y-78423645D01*
X88273906Y-78423649D01*
X88158812Y-78509809D01*
X88158809Y-78509812D01*
X88072649Y-78624906D01*
X88072645Y-78624913D01*
X88022403Y-78759620D01*
X88022401Y-78759627D01*
X88016000Y-78819155D01*
X88016000Y-79252000D01*
X86736000Y-79252000D01*
X86736000Y-78819172D01*
X86735999Y-78819155D01*
X86729598Y-78759627D01*
X86729596Y-78759620D01*
X86679354Y-78624913D01*
X86679350Y-78624906D01*
X86593190Y-78509812D01*
X86593187Y-78509809D01*
X86478093Y-78423649D01*
X86478086Y-78423645D01*
X86343379Y-78373403D01*
X86343372Y-78373401D01*
X86283844Y-78367000D01*
X84896000Y-78367000D01*
X84396000Y-78367000D01*
X83008155Y-78367000D01*
X82948627Y-78373401D01*
X82948620Y-78373403D01*
X82813913Y-78423645D01*
X82813906Y-78423649D01*
X82698812Y-78509809D01*
X82698809Y-78509812D01*
X82612649Y-78624906D01*
X82612645Y-78624913D01*
X82562403Y-78759620D01*
X82562401Y-78759627D01*
X82556000Y-78819155D01*
X82556000Y-79252000D01*
X78438954Y-79252000D01*
X78498640Y-78840635D01*
X78500032Y-78821356D01*
X78516037Y-78599568D01*
X78534181Y-78348159D01*
X78534158Y-78101281D01*
X78534158Y-78035388D01*
X78534158Y-77212000D01*
X82556000Y-77212000D01*
X82556000Y-77644844D01*
X82562401Y-77704372D01*
X82562403Y-77704379D01*
X82612645Y-77839086D01*
X82612649Y-77839093D01*
X82698809Y-77954187D01*
X82698812Y-77954190D01*
X82813906Y-78040350D01*
X82813913Y-78040354D01*
X82948620Y-78090596D01*
X82948627Y-78090598D01*
X83008155Y-78096999D01*
X83008172Y-78097000D01*
X84396000Y-78097000D01*
X84396000Y-77212000D01*
X84896000Y-77212000D01*
X84896000Y-78097000D01*
X86283828Y-78097000D01*
X86283844Y-78096999D01*
X86343372Y-78090598D01*
X86343379Y-78090596D01*
X86478086Y-78040354D01*
X86478093Y-78040350D01*
X86593187Y-77954190D01*
X86593190Y-77954187D01*
X86679350Y-77839093D01*
X86679354Y-77839086D01*
X86729596Y-77704379D01*
X86729598Y-77704372D01*
X86735999Y-77644844D01*
X86736000Y-77644827D01*
X86736000Y-77212000D01*
X88016000Y-77212000D01*
X88016000Y-77644844D01*
X88022401Y-77704372D01*
X88022403Y-77704379D01*
X88072645Y-77839086D01*
X88072649Y-77839093D01*
X88158809Y-77954187D01*
X88158812Y-77954190D01*
X88273906Y-78040350D01*
X88273913Y-78040354D01*
X88408620Y-78090596D01*
X88408627Y-78090598D01*
X88468155Y-78096999D01*
X88468172Y-78097000D01*
X89856000Y-78097000D01*
X89856000Y-77212000D01*
X90356000Y-77212000D01*
X90356000Y-78097000D01*
X91743828Y-78097000D01*
X91743844Y-78096999D01*
X91803372Y-78090598D01*
X91803379Y-78090596D01*
X91938086Y-78040354D01*
X91938093Y-78040350D01*
X92053187Y-77954190D01*
X92053190Y-77954187D01*
X92139350Y-77839093D01*
X92139354Y-77839086D01*
X92189596Y-77704379D01*
X92189598Y-77704372D01*
X92195999Y-77644844D01*
X92196000Y-77644827D01*
X92196000Y-77212000D01*
X90356000Y-77212000D01*
X89856000Y-77212000D01*
X88016000Y-77212000D01*
X86736000Y-77212000D01*
X84896000Y-77212000D01*
X84396000Y-77212000D01*
X82556000Y-77212000D01*
X78534158Y-77212000D01*
X78534158Y-61178250D01*
X80282501Y-61178250D01*
X80282501Y-61453236D01*
X80292994Y-61555947D01*
X80348141Y-61722369D01*
X80348143Y-61722374D01*
X80440184Y-61871595D01*
X80564154Y-61995565D01*
X80713375Y-62087606D01*
X80713380Y-62087608D01*
X80879802Y-62142755D01*
X80879809Y-62142756D01*
X80982519Y-62153249D01*
X81032499Y-62153248D01*
X81032500Y-62153248D01*
X81032500Y-61178250D01*
X80282501Y-61178250D01*
X78534158Y-61178250D01*
X78534158Y-60678250D01*
X80282500Y-60678250D01*
X81032500Y-60678250D01*
X81032500Y-59703250D01*
X81032499Y-59703249D01*
X80982529Y-59703250D01*
X80982511Y-59703251D01*
X80879802Y-59713744D01*
X80713380Y-59768891D01*
X80713375Y-59768893D01*
X80564154Y-59860934D01*
X80440184Y-59984904D01*
X80348143Y-60134125D01*
X80348141Y-60134130D01*
X80292994Y-60300552D01*
X80292993Y-60300559D01*
X80282500Y-60403263D01*
X80282500Y-60678250D01*
X78534158Y-60678250D01*
X78534158Y-56068001D01*
X80737818Y-56068001D01*
X80758455Y-56224760D01*
X80758456Y-56224762D01*
X80779271Y-56275015D01*
X80818964Y-56370841D01*
X80915218Y-56496282D01*
X81040659Y-56592536D01*
X81186738Y-56653044D01*
X81265119Y-56663363D01*
X81343499Y-56673682D01*
X81343500Y-56673682D01*
X81343501Y-56673682D01*
X81395754Y-56666802D01*
X81500262Y-56653044D01*
X81646341Y-56592536D01*
X81693027Y-56556712D01*
X81758192Y-56531519D01*
X81826637Y-56545556D01*
X81868279Y-56581453D01*
X81890770Y-56611927D01*
X81914741Y-56677554D01*
X81915000Y-56685560D01*
X81915000Y-59618173D01*
X81895315Y-59685212D01*
X81842511Y-59730967D01*
X81773353Y-59740911D01*
X81751997Y-59735879D01*
X81685201Y-59713745D01*
X81685190Y-59713743D01*
X81582486Y-59703250D01*
X81532500Y-59703250D01*
X81532500Y-62153249D01*
X81582472Y-62153249D01*
X81582486Y-62153248D01*
X81685195Y-62142756D01*
X81751995Y-62120620D01*
X81821823Y-62118218D01*
X81881865Y-62153949D01*
X81913058Y-62216469D01*
X81915000Y-62238326D01*
X81915000Y-63500000D01*
X81931500Y-63500000D01*
X81998539Y-63519685D01*
X82044294Y-63572489D01*
X82055500Y-63624000D01*
X82055500Y-75113361D01*
X82054312Y-75130488D01*
X82053227Y-75138265D01*
X82055368Y-75184579D01*
X82055500Y-75190304D01*
X82055500Y-75208342D01*
X82055947Y-75213171D01*
X82057181Y-75223805D01*
X82058415Y-75250492D01*
X82058416Y-75250497D01*
X82061214Y-75256834D01*
X82069664Y-75284120D01*
X82070937Y-75290929D01*
X82070937Y-75290930D01*
X82070939Y-75290933D01*
X82085001Y-75313646D01*
X82092997Y-75328815D01*
X82103794Y-75353265D01*
X82103795Y-75353266D01*
X82103796Y-75353268D01*
X82108689Y-75358161D01*
X82126435Y-75380565D01*
X82130077Y-75386448D01*
X82130079Y-75386450D01*
X82130080Y-75386451D01*
X82130081Y-75386452D01*
X82143024Y-75396226D01*
X82151396Y-75402548D01*
X82164350Y-75413821D01*
X82575789Y-75825260D01*
X82587060Y-75838212D01*
X82591789Y-75844475D01*
X82591791Y-75844477D01*
X82591792Y-75844478D01*
X82606611Y-75857987D01*
X82626067Y-75875724D01*
X82630208Y-75879679D01*
X82632051Y-75881522D01*
X82665536Y-75942845D01*
X82660552Y-76012537D01*
X82643637Y-76043514D01*
X82612646Y-76084911D01*
X82612645Y-76084913D01*
X82562403Y-76219620D01*
X82562401Y-76219627D01*
X82556000Y-76279155D01*
X82556000Y-76712000D01*
X86736000Y-76712000D01*
X88016000Y-76712000D01*
X89856000Y-76712000D01*
X89856000Y-75827000D01*
X90356000Y-75827000D01*
X90356000Y-76712000D01*
X92196000Y-76712000D01*
X92196000Y-76279172D01*
X92195999Y-76279155D01*
X92189598Y-76219627D01*
X92189596Y-76219620D01*
X92139354Y-76084913D01*
X92139350Y-76084906D01*
X92053190Y-75969812D01*
X92053187Y-75969809D01*
X91938093Y-75883649D01*
X91938086Y-75883645D01*
X91803379Y-75833403D01*
X91803372Y-75833401D01*
X91743844Y-75827000D01*
X90356000Y-75827000D01*
X89856000Y-75827000D01*
X88468155Y-75827000D01*
X88408627Y-75833401D01*
X88408620Y-75833403D01*
X88273913Y-75883645D01*
X88273906Y-75883649D01*
X88158812Y-75969809D01*
X88158809Y-75969812D01*
X88072649Y-76084906D01*
X88072645Y-76084913D01*
X88022403Y-76219620D01*
X88022401Y-76219627D01*
X88016000Y-76279155D01*
X88016000Y-76712000D01*
X86736000Y-76712000D01*
X86736000Y-76279172D01*
X86735999Y-76279155D01*
X86729598Y-76219627D01*
X86729596Y-76219619D01*
X86695456Y-76128083D01*
X86690472Y-76058391D01*
X86723957Y-75997068D01*
X86785281Y-75963584D01*
X86811638Y-75960750D01*
X87213612Y-75960750D01*
X87230740Y-75961939D01*
X87238511Y-75963022D01*
X87238511Y-75963021D01*
X87238515Y-75963023D01*
X87284830Y-75960882D01*
X87290555Y-75960750D01*
X87308593Y-75960750D01*
X87308594Y-75960750D01*
X87308594Y-75960749D01*
X87313481Y-75960296D01*
X87324068Y-75959067D01*
X87350742Y-75957835D01*
X87357072Y-75955039D01*
X87384379Y-75946582D01*
X87391183Y-75945311D01*
X87391185Y-75945309D01*
X87391187Y-75945309D01*
X87413888Y-75931253D01*
X87429075Y-75923246D01*
X87453515Y-75912456D01*
X87458411Y-75907559D01*
X87480819Y-75889811D01*
X87486702Y-75886169D01*
X87502803Y-75864845D01*
X87514064Y-75851905D01*
X88181684Y-75184285D01*
X88243006Y-75150802D01*
X88312698Y-75155786D01*
X88362591Y-75193137D01*
X88362812Y-75192917D01*
X88364342Y-75194447D01*
X88368631Y-75197658D01*
X88371242Y-75201347D01*
X88371446Y-75201551D01*
X88437769Y-75245867D01*
X88437770Y-75245868D01*
X88496247Y-75257499D01*
X88496250Y-75257500D01*
X88496252Y-75257500D01*
X91715750Y-75257500D01*
X91715751Y-75257499D01*
X91730568Y-75254552D01*
X91774229Y-75245868D01*
X91774229Y-75245867D01*
X91774231Y-75245867D01*
X91840552Y-75201552D01*
X91884867Y-75135231D01*
X91884867Y-75135229D01*
X91884868Y-75135229D01*
X91896499Y-75076752D01*
X91896500Y-75076750D01*
X91896500Y-73767249D01*
X91896499Y-73767247D01*
X91884868Y-73708770D01*
X91884867Y-73708769D01*
X91840552Y-73642447D01*
X91774230Y-73598132D01*
X91774229Y-73598131D01*
X91715752Y-73586500D01*
X91715748Y-73586500D01*
X88496252Y-73586500D01*
X88496247Y-73586500D01*
X88437770Y-73598131D01*
X88437769Y-73598132D01*
X88371447Y-73642447D01*
X88327132Y-73708769D01*
X88327131Y-73708770D01*
X88315500Y-73767247D01*
X88315500Y-74149166D01*
X88295815Y-74216205D01*
X88279181Y-74236847D01*
X87192598Y-75323431D01*
X87131275Y-75356916D01*
X87104917Y-75359750D01*
X86506836Y-75359750D01*
X86439797Y-75340065D01*
X86394042Y-75287261D01*
X86384098Y-75218103D01*
X86403734Y-75166859D01*
X86414463Y-75150802D01*
X86424867Y-75135231D01*
X86424867Y-75135229D01*
X86424868Y-75135229D01*
X86436499Y-75076752D01*
X86436500Y-75076750D01*
X86436500Y-73767249D01*
X86436499Y-73767247D01*
X86424868Y-73708770D01*
X86424867Y-73708769D01*
X86380552Y-73642447D01*
X86314230Y-73598132D01*
X86314229Y-73598131D01*
X86255752Y-73586500D01*
X86255748Y-73586500D01*
X83180500Y-73586500D01*
X83113461Y-73566815D01*
X83067706Y-73514011D01*
X83056500Y-73462500D01*
X83056500Y-73141000D01*
X83076185Y-73073961D01*
X83128989Y-73028206D01*
X83180500Y-73017000D01*
X84396000Y-73017000D01*
X84396000Y-72132000D01*
X84896000Y-72132000D01*
X84896000Y-73017000D01*
X86283828Y-73017000D01*
X86283844Y-73016999D01*
X86343372Y-73010598D01*
X86343379Y-73010596D01*
X86478086Y-72960354D01*
X86478093Y-72960350D01*
X86593187Y-72874190D01*
X86593190Y-72874187D01*
X86679350Y-72759093D01*
X86679354Y-72759086D01*
X86729596Y-72624379D01*
X86729598Y-72624372D01*
X86735999Y-72564844D01*
X86736000Y-72564827D01*
X86736000Y-72132000D01*
X88016000Y-72132000D01*
X88016000Y-72564844D01*
X88022401Y-72624372D01*
X88022403Y-72624379D01*
X88072645Y-72759086D01*
X88072649Y-72759093D01*
X88158809Y-72874187D01*
X88158812Y-72874190D01*
X88273906Y-72960350D01*
X88273913Y-72960354D01*
X88408620Y-73010596D01*
X88408627Y-73010598D01*
X88468155Y-73016999D01*
X88468172Y-73017000D01*
X89856000Y-73017000D01*
X89856000Y-72132000D01*
X90356000Y-72132000D01*
X90356000Y-73017000D01*
X91743828Y-73017000D01*
X91743844Y-73016999D01*
X91803372Y-73010598D01*
X91803379Y-73010596D01*
X91938086Y-72960354D01*
X91938093Y-72960350D01*
X92053187Y-72874190D01*
X92053190Y-72874187D01*
X92139350Y-72759093D01*
X92139354Y-72759086D01*
X92189596Y-72624379D01*
X92189598Y-72624372D01*
X92195999Y-72564844D01*
X92196000Y-72564827D01*
X92196000Y-72132000D01*
X90356000Y-72132000D01*
X89856000Y-72132000D01*
X88016000Y-72132000D01*
X86736000Y-72132000D01*
X84896000Y-72132000D01*
X84396000Y-72132000D01*
X84396000Y-70747000D01*
X84896000Y-70747000D01*
X84896000Y-71632000D01*
X86736000Y-71632000D01*
X88016000Y-71632000D01*
X89856000Y-71632000D01*
X89856000Y-70747000D01*
X90356000Y-70747000D01*
X90356000Y-71632000D01*
X92196000Y-71632000D01*
X92196000Y-71199172D01*
X92195999Y-71199155D01*
X92189598Y-71139627D01*
X92189596Y-71139620D01*
X92139354Y-71004913D01*
X92139350Y-71004906D01*
X92053190Y-70889812D01*
X92053187Y-70889809D01*
X91938093Y-70803649D01*
X91938086Y-70803645D01*
X91803379Y-70753403D01*
X91803372Y-70753401D01*
X91743844Y-70747000D01*
X90356000Y-70747000D01*
X89856000Y-70747000D01*
X88468155Y-70747000D01*
X88408627Y-70753401D01*
X88408620Y-70753403D01*
X88273913Y-70803645D01*
X88273906Y-70803649D01*
X88158812Y-70889809D01*
X88158809Y-70889812D01*
X88072649Y-71004906D01*
X88072645Y-71004913D01*
X88022403Y-71139620D01*
X88022401Y-71139627D01*
X88016000Y-71199155D01*
X88016000Y-71632000D01*
X86736000Y-71632000D01*
X86736000Y-71199172D01*
X86735999Y-71199155D01*
X86729598Y-71139627D01*
X86729596Y-71139620D01*
X86679354Y-71004913D01*
X86679350Y-71004906D01*
X86593190Y-70889812D01*
X86593187Y-70889809D01*
X86478093Y-70803649D01*
X86478086Y-70803645D01*
X86343379Y-70753403D01*
X86343372Y-70753401D01*
X86283844Y-70747000D01*
X84896000Y-70747000D01*
X84396000Y-70747000D01*
X83180500Y-70747000D01*
X83113461Y-70727315D01*
X83067706Y-70674511D01*
X83056500Y-70623000D01*
X83056500Y-70601000D01*
X83076185Y-70533961D01*
X83128989Y-70488206D01*
X83180500Y-70477000D01*
X84396000Y-70477000D01*
X84396000Y-69592000D01*
X84896000Y-69592000D01*
X84896000Y-70477000D01*
X86283828Y-70477000D01*
X86283844Y-70476999D01*
X86343372Y-70470598D01*
X86343379Y-70470596D01*
X86478086Y-70420354D01*
X86478093Y-70420350D01*
X86593187Y-70334190D01*
X86593190Y-70334187D01*
X86679350Y-70219093D01*
X86679354Y-70219086D01*
X86729596Y-70084379D01*
X86729598Y-70084372D01*
X86735999Y-70024844D01*
X86736000Y-70024827D01*
X86736000Y-69592000D01*
X88016000Y-69592000D01*
X88016000Y-70024844D01*
X88022401Y-70084372D01*
X88022403Y-70084379D01*
X88072645Y-70219086D01*
X88072649Y-70219093D01*
X88158809Y-70334187D01*
X88158812Y-70334190D01*
X88273906Y-70420350D01*
X88273913Y-70420354D01*
X88408620Y-70470596D01*
X88408627Y-70470598D01*
X88468155Y-70476999D01*
X88468172Y-70477000D01*
X89856000Y-70477000D01*
X89856000Y-69592000D01*
X90356000Y-69592000D01*
X90356000Y-70477000D01*
X91743828Y-70477000D01*
X91743844Y-70476999D01*
X91803372Y-70470598D01*
X91803379Y-70470596D01*
X91938086Y-70420354D01*
X91938093Y-70420350D01*
X92053187Y-70334190D01*
X92053190Y-70334187D01*
X92139350Y-70219093D01*
X92139354Y-70219086D01*
X92189596Y-70084379D01*
X92189598Y-70084372D01*
X92195999Y-70024844D01*
X92196000Y-70024827D01*
X92196000Y-69592000D01*
X90356000Y-69592000D01*
X89856000Y-69592000D01*
X88016000Y-69592000D01*
X86736000Y-69592000D01*
X84896000Y-69592000D01*
X84396000Y-69592000D01*
X84396000Y-68207000D01*
X84896000Y-68207000D01*
X84896000Y-69092000D01*
X86736000Y-69092000D01*
X88016000Y-69092000D01*
X89856000Y-69092000D01*
X89856000Y-68207000D01*
X90356000Y-68207000D01*
X90356000Y-69092000D01*
X92196000Y-69092000D01*
X92196000Y-68659172D01*
X92195999Y-68659155D01*
X92189598Y-68599627D01*
X92189596Y-68599620D01*
X92139354Y-68464913D01*
X92139350Y-68464906D01*
X92053190Y-68349812D01*
X92053187Y-68349809D01*
X91938093Y-68263649D01*
X91938086Y-68263645D01*
X91803379Y-68213403D01*
X91803372Y-68213401D01*
X91743844Y-68207000D01*
X90356000Y-68207000D01*
X89856000Y-68207000D01*
X88468155Y-68207000D01*
X88408627Y-68213401D01*
X88408620Y-68213403D01*
X88273913Y-68263645D01*
X88273906Y-68263649D01*
X88158812Y-68349809D01*
X88158809Y-68349812D01*
X88072649Y-68464906D01*
X88072645Y-68464913D01*
X88022403Y-68599620D01*
X88022401Y-68599627D01*
X88016000Y-68659155D01*
X88016000Y-69092000D01*
X86736000Y-69092000D01*
X86736000Y-68659172D01*
X86735999Y-68659155D01*
X86729598Y-68599627D01*
X86729596Y-68599620D01*
X86679354Y-68464913D01*
X86679350Y-68464906D01*
X86593190Y-68349812D01*
X86593187Y-68349809D01*
X86478093Y-68263649D01*
X86478086Y-68263645D01*
X86343379Y-68213403D01*
X86343372Y-68213401D01*
X86283844Y-68207000D01*
X84896000Y-68207000D01*
X84396000Y-68207000D01*
X83180500Y-68207000D01*
X83113461Y-68187315D01*
X83067706Y-68134511D01*
X83056500Y-68083000D01*
X83056500Y-67761500D01*
X83076185Y-67694461D01*
X83128989Y-67648706D01*
X83180500Y-67637500D01*
X86255750Y-67637500D01*
X86255751Y-67637499D01*
X86270568Y-67634552D01*
X86314229Y-67625868D01*
X86314229Y-67625867D01*
X86314231Y-67625867D01*
X86380552Y-67581552D01*
X86424867Y-67515231D01*
X86424867Y-67515229D01*
X86424868Y-67515229D01*
X86436499Y-67456752D01*
X86436500Y-67456750D01*
X86436500Y-66842554D01*
X86456185Y-66775515D01*
X86508989Y-66729760D01*
X86554778Y-66718687D01*
X86556992Y-66718585D01*
X86563322Y-66715789D01*
X86590629Y-66707332D01*
X86597433Y-66706061D01*
X86597435Y-66706059D01*
X86597437Y-66706059D01*
X86620138Y-66692003D01*
X86635325Y-66683996D01*
X86659765Y-66673206D01*
X86664661Y-66668309D01*
X86687069Y-66650561D01*
X86692952Y-66646919D01*
X86709053Y-66625595D01*
X86720314Y-66612655D01*
X86969511Y-66363458D01*
X86982463Y-66352188D01*
X86988723Y-66347460D01*
X86988728Y-66347458D01*
X87019988Y-66313166D01*
X87023902Y-66309067D01*
X87036674Y-66296297D01*
X87036675Y-66296296D01*
X87039782Y-66292554D01*
X87046416Y-66284176D01*
X87064416Y-66264433D01*
X87066917Y-66257976D01*
X87080250Y-66232684D01*
X87080266Y-66232659D01*
X87084157Y-66226981D01*
X87090272Y-66200978D01*
X87095354Y-66184571D01*
X87105000Y-66159673D01*
X87105000Y-66152748D01*
X87108294Y-66124356D01*
X87109879Y-66117619D01*
X87106189Y-66091165D01*
X87105000Y-66074035D01*
X87105000Y-64546954D01*
X87124685Y-64479915D01*
X87141319Y-64459273D01*
X88064273Y-63536319D01*
X88125596Y-63502834D01*
X88151954Y-63500000D01*
X88191500Y-63500000D01*
X88258539Y-63519685D01*
X88304294Y-63572489D01*
X88315500Y-63624000D01*
X88315500Y-64916752D01*
X88327131Y-64975229D01*
X88327132Y-64975230D01*
X88371447Y-65041552D01*
X88437769Y-65085867D01*
X88437770Y-65085868D01*
X88496247Y-65097499D01*
X88496250Y-65097500D01*
X88496252Y-65097500D01*
X89450922Y-65097500D01*
X89517961Y-65117185D01*
X89563716Y-65169989D01*
X89573660Y-65239147D01*
X89565483Y-65268953D01*
X89521458Y-65375237D01*
X89521457Y-65375239D01*
X89500820Y-65531998D01*
X89500820Y-65532001D01*
X89521457Y-65688760D01*
X89521458Y-65688762D01*
X89565483Y-65795047D01*
X89572952Y-65864517D01*
X89541677Y-65926996D01*
X89481588Y-65962648D01*
X89450922Y-65966500D01*
X88496247Y-65966500D01*
X88437770Y-65978131D01*
X88437769Y-65978132D01*
X88371447Y-66022447D01*
X88327132Y-66088769D01*
X88327131Y-66088770D01*
X88315500Y-66147247D01*
X88315500Y-67456752D01*
X88327131Y-67515229D01*
X88327132Y-67515230D01*
X88371447Y-67581552D01*
X88437769Y-67625867D01*
X88437770Y-67625868D01*
X88496247Y-67637499D01*
X88496250Y-67637500D01*
X88496252Y-67637500D01*
X91715750Y-67637500D01*
X91715751Y-67637499D01*
X91730568Y-67634552D01*
X91774229Y-67625868D01*
X91774229Y-67625867D01*
X91774231Y-67625867D01*
X91840552Y-67581552D01*
X91884867Y-67515231D01*
X91884867Y-67515229D01*
X91884868Y-67515229D01*
X91896499Y-67456752D01*
X91896500Y-67456750D01*
X91896500Y-66147249D01*
X91896499Y-66147247D01*
X91884868Y-66088770D01*
X91884867Y-66088769D01*
X91840552Y-66022447D01*
X91774230Y-65978132D01*
X91774229Y-65978131D01*
X91715752Y-65966500D01*
X91715748Y-65966500D01*
X90762082Y-65966500D01*
X90695043Y-65946815D01*
X90649288Y-65894011D01*
X90639344Y-65824853D01*
X90647521Y-65795047D01*
X90677095Y-65723649D01*
X90691546Y-65688762D01*
X90712184Y-65532000D01*
X90712183Y-65531996D01*
X90691546Y-65375239D01*
X90691546Y-65375238D01*
X90647520Y-65268952D01*
X90640052Y-65199483D01*
X90671327Y-65137004D01*
X90731416Y-65101352D01*
X90762082Y-65097500D01*
X91715750Y-65097500D01*
X91715751Y-65097499D01*
X91730568Y-65094552D01*
X91774229Y-65085868D01*
X91774229Y-65085867D01*
X91774231Y-65085867D01*
X91840552Y-65041552D01*
X91884867Y-64975231D01*
X91884867Y-64975229D01*
X91884868Y-64975229D01*
X91896499Y-64916752D01*
X91896500Y-64916750D01*
X91896500Y-63624000D01*
X91916185Y-63556961D01*
X91968989Y-63511206D01*
X92020500Y-63500000D01*
X92028860Y-63500000D01*
X92095899Y-63519685D01*
X92116541Y-63536319D01*
X92333982Y-63753760D01*
X92345253Y-63766712D01*
X92349982Y-63772975D01*
X92384260Y-63804224D01*
X92388401Y-63808179D01*
X92401146Y-63820924D01*
X92404874Y-63824020D01*
X92413267Y-63830668D01*
X92417573Y-63834593D01*
X92433007Y-63848664D01*
X92433008Y-63848664D01*
X92433010Y-63848666D01*
X92439473Y-63851169D01*
X92464750Y-63864493D01*
X92470462Y-63868406D01*
X92496457Y-63874519D01*
X92512853Y-63879596D01*
X92537770Y-63889250D01*
X92544694Y-63889250D01*
X92573084Y-63892543D01*
X92579824Y-63894129D01*
X92602598Y-63890951D01*
X92606277Y-63890439D01*
X92623407Y-63889250D01*
X94057481Y-63889250D01*
X94124520Y-63908935D01*
X94145162Y-63925569D01*
X94468681Y-64249088D01*
X94502166Y-64310411D01*
X94505000Y-64336769D01*
X94505000Y-77177437D01*
X94485315Y-77244476D01*
X94455124Y-77276843D01*
X94411518Y-77309357D01*
X94411513Y-77309362D01*
X94136861Y-77584015D01*
X94136860Y-77584016D01*
X94094530Y-77640783D01*
X94055463Y-77754579D01*
X94055463Y-77754581D01*
X94055463Y-77874894D01*
X94094529Y-77988689D01*
X94094530Y-77988690D01*
X94094530Y-77988691D01*
X94136857Y-78045456D01*
X94136862Y-78045461D01*
X94464548Y-78373146D01*
X94464549Y-78373147D01*
X94464893Y-78373403D01*
X94521319Y-78415479D01*
X94605368Y-78444333D01*
X94635113Y-78454545D01*
X94635114Y-78454545D01*
X94755427Y-78454545D01*
X94758195Y-78454083D01*
X94762019Y-78454545D01*
X94765702Y-78454545D01*
X94765702Y-78454989D01*
X94827560Y-78462463D01*
X94881384Y-78507014D01*
X94902576Y-78573592D01*
X94900918Y-78596793D01*
X94900455Y-78599568D01*
X94900455Y-78719887D01*
X94903775Y-78729557D01*
X94939521Y-78833681D01*
X94939522Y-78833682D01*
X94939522Y-78833683D01*
X94981849Y-78890448D01*
X94981854Y-78890453D01*
X95309540Y-79218138D01*
X95309541Y-79218139D01*
X95339922Y-79240793D01*
X95366311Y-79260471D01*
X95450360Y-79289325D01*
X95480105Y-79299537D01*
X95480106Y-79299537D01*
X95600420Y-79299537D01*
X95619953Y-79292830D01*
X95714214Y-79260471D01*
X95714220Y-79260465D01*
X95722733Y-79255974D01*
X95724351Y-79259040D01*
X95773454Y-79240793D01*
X95841710Y-79255725D01*
X95869835Y-79276806D01*
X97839931Y-81246902D01*
X97873416Y-81308225D01*
X97876250Y-81334583D01*
X97876250Y-81580675D01*
X97856565Y-81647714D01*
X97806711Y-81692075D01*
X97766875Y-81711549D01*
X97681800Y-81796624D01*
X97681798Y-81796627D01*
X97628960Y-81904710D01*
X97628959Y-81904712D01*
X97628959Y-81904714D01*
X97618750Y-81974785D01*
X97618750Y-81974789D01*
X97618750Y-81974790D01*
X97618750Y-82363213D01*
X97624330Y-82401516D01*
X97628959Y-82433286D01*
X97628960Y-82433288D01*
X97657173Y-82490999D01*
X97668933Y-82559872D01*
X97641589Y-82624170D01*
X97583825Y-82663477D01*
X97513980Y-82665315D01*
X97506346Y-82662552D01*
X97506227Y-82662914D01*
X97332947Y-82605494D01*
X97332940Y-82605493D01*
X97230236Y-82595000D01*
X97180250Y-82595000D01*
X97180250Y-83570000D01*
X97930249Y-83570000D01*
X97930249Y-83295028D01*
X97930248Y-83295013D01*
X97919755Y-83192302D01*
X97864608Y-83025880D01*
X97864606Y-83025875D01*
X97768775Y-82870509D01*
X97771270Y-82868969D01*
X97750100Y-82816540D01*
X97763119Y-82747894D01*
X97811185Y-82697184D01*
X97879036Y-82680510D01*
X97891365Y-82681680D01*
X97945035Y-82689500D01*
X98125169Y-82689499D01*
X98192208Y-82709183D01*
X98237963Y-82761987D01*
X98247907Y-82831145D01*
X98247643Y-82832893D01*
X98243750Y-82857477D01*
X98243750Y-83988164D01*
X98224065Y-84055203D01*
X98207431Y-84075845D01*
X98141930Y-84141346D01*
X98080607Y-84174831D01*
X98010915Y-84169847D01*
X97954982Y-84127975D01*
X97935207Y-84074958D01*
X97930250Y-84070000D01*
X97180250Y-84070000D01*
X97180250Y-85044999D01*
X97230222Y-85044999D01*
X97230236Y-85044998D01*
X97332947Y-85034505D01*
X97499369Y-84979358D01*
X97499371Y-84979357D01*
X97526866Y-84962398D01*
X97594258Y-84943957D01*
X97660922Y-84964878D01*
X97703365Y-85013474D01*
X97732677Y-85073431D01*
X97816569Y-85157323D01*
X97923157Y-85209432D01*
X97923158Y-85209432D01*
X97923160Y-85209433D01*
X97992258Y-85219500D01*
X97992264Y-85219500D01*
X98484742Y-85219500D01*
X98518030Y-85214650D01*
X98587206Y-85224463D01*
X98632814Y-85263832D01*
X98634555Y-85262482D01*
X98639339Y-85268650D01*
X98756349Y-85385660D01*
X98756357Y-85385666D01*
X98898802Y-85469907D01*
X98898805Y-85469908D01*
X99057716Y-85516077D01*
X99057722Y-85516078D01*
X99094842Y-85518999D01*
X99094858Y-85519000D01*
X99123500Y-85519000D01*
X99123500Y-84959000D01*
X99623500Y-84959000D01*
X99623500Y-85519000D01*
X99652142Y-85519000D01*
X99652157Y-85518999D01*
X99689277Y-85516078D01*
X99689283Y-85516077D01*
X99848194Y-85469908D01*
X99848197Y-85469907D01*
X99990642Y-85385666D01*
X99990650Y-85385660D01*
X100107660Y-85268650D01*
X100107666Y-85268642D01*
X100191907Y-85126197D01*
X100191909Y-85126194D01*
X100238078Y-84967281D01*
X100238730Y-84959000D01*
X99623500Y-84959000D01*
X99123500Y-84959000D01*
X99123500Y-84583000D01*
X99143185Y-84515961D01*
X99195989Y-84470206D01*
X99247500Y-84459000D01*
X100238730Y-84459000D01*
X100238078Y-84450720D01*
X100204159Y-84333973D01*
X100204358Y-84264103D01*
X100218139Y-84236176D01*
X100217869Y-84236038D01*
X100231866Y-84208567D01*
X100279896Y-84114304D01*
X100279896Y-84114302D01*
X100279897Y-84114301D01*
X100294749Y-84020524D01*
X100294750Y-84020519D01*
X100294749Y-83031252D01*
X100314433Y-82964214D01*
X100367237Y-82918459D01*
X100436396Y-82908515D01*
X100499952Y-82937540D01*
X100506406Y-82943549D01*
X100609349Y-83046491D01*
X100642832Y-83107813D01*
X100644605Y-83117985D01*
X100665706Y-83278261D01*
X100665706Y-83278262D01*
X100672644Y-83295013D01*
X100726214Y-83424341D01*
X100822468Y-83549782D01*
X100947909Y-83646036D01*
X101093988Y-83706544D01*
X101172369Y-83716863D01*
X101250749Y-83727182D01*
X101250750Y-83727182D01*
X101250751Y-83727182D01*
X101303004Y-83720302D01*
X101407512Y-83706544D01*
X101449867Y-83689000D01*
X105844251Y-83689000D01*
X105844251Y-84045582D01*
X105850658Y-84116102D01*
X105850659Y-84116107D01*
X105901231Y-84278396D01*
X105989177Y-84423877D01*
X106109372Y-84544072D01*
X106254854Y-84632019D01*
X106254853Y-84632019D01*
X106417144Y-84682590D01*
X106417143Y-84682590D01*
X106487677Y-84688999D01*
X106919249Y-84688999D01*
X106919250Y-84688998D01*
X106919250Y-83689000D01*
X107419250Y-83689000D01*
X107419250Y-84688999D01*
X107850831Y-84688999D01*
X107921352Y-84682591D01*
X107921357Y-84682590D01*
X108083646Y-84632018D01*
X108229127Y-84544072D01*
X108349322Y-84423877D01*
X108437269Y-84278395D01*
X108487840Y-84116106D01*
X108494250Y-84045572D01*
X108494250Y-83689000D01*
X107419250Y-83689000D01*
X106919250Y-83689000D01*
X105844251Y-83689000D01*
X101449867Y-83689000D01*
X101553591Y-83646036D01*
X101679032Y-83549782D01*
X101775286Y-83424341D01*
X101835794Y-83278262D01*
X101847546Y-83189000D01*
X105844250Y-83189000D01*
X106919250Y-83189000D01*
X106919250Y-82189000D01*
X107419250Y-82189000D01*
X107419250Y-83189000D01*
X108494249Y-83189000D01*
X108494249Y-82832417D01*
X108487841Y-82761897D01*
X108487840Y-82761892D01*
X108437268Y-82599603D01*
X108349322Y-82454122D01*
X108229127Y-82333927D01*
X108083645Y-82245980D01*
X108083646Y-82245980D01*
X107921355Y-82195409D01*
X107921356Y-82195409D01*
X107850822Y-82189000D01*
X107419250Y-82189000D01*
X106919250Y-82189000D01*
X106487667Y-82189000D01*
X106417147Y-82195408D01*
X106417142Y-82195409D01*
X106254853Y-82245981D01*
X106109372Y-82333927D01*
X105989177Y-82454122D01*
X105901230Y-82599604D01*
X105850659Y-82761893D01*
X105844250Y-82832427D01*
X105844250Y-83189000D01*
X101847546Y-83189000D01*
X101856432Y-83121500D01*
X101835794Y-82964738D01*
X101775286Y-82818659D01*
X101679032Y-82693218D01*
X101553591Y-82596964D01*
X101548849Y-82595000D01*
X101419387Y-82541375D01*
X101407512Y-82536456D01*
X101351327Y-82529059D01*
X101247235Y-82515355D01*
X101183339Y-82487088D01*
X101175740Y-82480097D01*
X100556063Y-81860419D01*
X100556032Y-81860390D01*
X100536592Y-81840950D01*
X100536590Y-81840949D01*
X100516850Y-81830890D01*
X100500264Y-81820726D01*
X100482340Y-81807704D01*
X100482341Y-81807704D01*
X100461268Y-81800857D01*
X100443295Y-81793412D01*
X100423557Y-81783355D01*
X100423554Y-81783354D01*
X100401668Y-81779887D01*
X100382757Y-81775346D01*
X100361689Y-81768501D01*
X100361684Y-81768500D01*
X100361683Y-81768500D01*
X100361679Y-81768500D01*
X99889937Y-81768500D01*
X99822898Y-81748815D01*
X99802256Y-81732181D01*
X99781625Y-81711550D01*
X99781622Y-81711548D01*
X99673539Y-81658710D01*
X99673537Y-81658709D01*
X99673536Y-81658709D01*
X99603465Y-81648500D01*
X99603459Y-81648500D01*
X99140036Y-81648500D01*
X99090592Y-81655703D01*
X99069964Y-81658709D01*
X99069962Y-81658709D01*
X99069960Y-81658710D01*
X99069958Y-81658710D01*
X98961877Y-81711548D01*
X98961874Y-81711550D01*
X98876799Y-81796625D01*
X98875164Y-81798916D01*
X98872127Y-81801297D01*
X98869535Y-81803890D01*
X98869221Y-81803576D01*
X98820186Y-81842035D01*
X98750625Y-81848587D01*
X98688564Y-81816490D01*
X98673336Y-81798916D01*
X98671700Y-81796625D01*
X98586624Y-81711549D01*
X98546789Y-81692075D01*
X98495207Y-81644946D01*
X98477250Y-81580675D01*
X98477250Y-81225887D01*
X98478439Y-81208756D01*
X98479522Y-81200988D01*
X98479523Y-81200986D01*
X98478184Y-81172030D01*
X98494752Y-81104155D01*
X98545387Y-81056011D01*
X98584929Y-81043494D01*
X98590191Y-81042760D01*
X98596094Y-81041938D01*
X98613214Y-81040750D01*
X102040862Y-81040750D01*
X102057990Y-81041939D01*
X102065761Y-81043022D01*
X102065761Y-81043021D01*
X102065765Y-81043023D01*
X102112080Y-81040882D01*
X102117805Y-81040750D01*
X102135843Y-81040750D01*
X102135844Y-81040750D01*
X102135844Y-81040749D01*
X102140731Y-81040296D01*
X102151318Y-81039067D01*
X102177992Y-81037835D01*
X102184322Y-81035039D01*
X102211629Y-81026582D01*
X102218433Y-81025311D01*
X102218435Y-81025309D01*
X102218437Y-81025309D01*
X102241138Y-81011253D01*
X102256325Y-81003246D01*
X102280765Y-80992456D01*
X102285661Y-80987559D01*
X102308069Y-80969811D01*
X102313952Y-80966169D01*
X102330053Y-80944845D01*
X102341314Y-80931905D01*
X102844511Y-80428708D01*
X102857463Y-80417438D01*
X102863723Y-80412710D01*
X102863728Y-80412708D01*
X102894988Y-80378416D01*
X102898902Y-80374317D01*
X102911674Y-80361547D01*
X102911675Y-80361546D01*
X102914782Y-80357804D01*
X102921416Y-80349426D01*
X102939416Y-80329683D01*
X102941916Y-80323228D01*
X102955249Y-80297932D01*
X102959156Y-80292231D01*
X102965270Y-80266231D01*
X102970346Y-80249839D01*
X102980000Y-80224923D01*
X102980000Y-80217998D01*
X102983295Y-80189605D01*
X102984878Y-80182873D01*
X102984879Y-80182869D01*
X102981189Y-80156415D01*
X102980000Y-80139285D01*
X102980000Y-78976332D01*
X102999685Y-78909293D01*
X103016314Y-78888655D01*
X104083298Y-77821671D01*
X104144619Y-77788188D01*
X104195169Y-77787737D01*
X104244249Y-77797500D01*
X107408167Y-77797500D01*
X107475206Y-77817185D01*
X107520961Y-77869989D01*
X107530905Y-77939147D01*
X107501880Y-78002703D01*
X107495848Y-78009181D01*
X106874848Y-78630181D01*
X106813525Y-78663666D01*
X106787167Y-78666500D01*
X104244247Y-78666500D01*
X104185770Y-78678131D01*
X104185769Y-78678132D01*
X104119447Y-78722447D01*
X104075132Y-78788769D01*
X104075131Y-78788770D01*
X104063500Y-78847247D01*
X104063500Y-80156752D01*
X104075131Y-80215229D01*
X104075132Y-80215230D01*
X104119447Y-80281552D01*
X104185769Y-80325867D01*
X104185770Y-80325868D01*
X104244247Y-80337499D01*
X104244250Y-80337500D01*
X104244252Y-80337500D01*
X107463750Y-80337500D01*
X107463751Y-80337499D01*
X107478568Y-80334552D01*
X107522229Y-80325868D01*
X107522229Y-80325867D01*
X107522231Y-80325867D01*
X107588552Y-80281552D01*
X107632867Y-80215231D01*
X107632867Y-80215229D01*
X107632868Y-80215229D01*
X107644499Y-80156752D01*
X107644500Y-80156750D01*
X107644500Y-78847249D01*
X107634737Y-78798169D01*
X107640964Y-78728577D01*
X107668670Y-78686299D01*
X108178515Y-78176455D01*
X108191467Y-78165185D01*
X108197723Y-78160460D01*
X108197728Y-78160458D01*
X108228977Y-78126177D01*
X108232892Y-78122078D01*
X108245675Y-78109297D01*
X108245681Y-78109287D01*
X108248806Y-78105525D01*
X108255420Y-78097172D01*
X108273416Y-78077433D01*
X108275915Y-78070980D01*
X108289249Y-78045684D01*
X108289402Y-78045461D01*
X108293157Y-78039980D01*
X108299275Y-78013967D01*
X108304348Y-77997586D01*
X108314000Y-77972673D01*
X108314000Y-77965748D01*
X108317295Y-77937355D01*
X108318878Y-77930623D01*
X108318879Y-77930619D01*
X108315189Y-77904165D01*
X108314000Y-77887035D01*
X108314000Y-76267136D01*
X108315189Y-76250005D01*
X108316271Y-76242239D01*
X108316273Y-76242235D01*
X108314132Y-76195920D01*
X108314000Y-76190195D01*
X108314000Y-76172159D01*
X108313546Y-76167266D01*
X108312317Y-76156680D01*
X108311085Y-76130008D01*
X108308288Y-76123675D01*
X108299832Y-76096368D01*
X108298561Y-76089567D01*
X108284499Y-76066856D01*
X108276498Y-76051678D01*
X108265706Y-76027235D01*
X108260809Y-76022338D01*
X108243063Y-75999934D01*
X108241288Y-75997068D01*
X108239419Y-75994048D01*
X108239418Y-75994047D01*
X108239417Y-75994046D01*
X108218102Y-75977950D01*
X108205148Y-75966677D01*
X107797212Y-75558741D01*
X107785937Y-75545785D01*
X107781205Y-75539518D01*
X107746933Y-75508275D01*
X107742810Y-75504339D01*
X107730047Y-75491576D01*
X107730046Y-75491575D01*
X107730044Y-75491573D01*
X107726327Y-75488487D01*
X107717929Y-75481834D01*
X107698183Y-75463834D01*
X107691720Y-75461330D01*
X107666442Y-75448006D01*
X107660731Y-75444094D01*
X107660728Y-75444093D01*
X107660729Y-75444093D01*
X107634733Y-75437978D01*
X107618338Y-75432901D01*
X107602784Y-75426876D01*
X107547381Y-75384305D01*
X107523789Y-75318539D01*
X107539497Y-75250459D01*
X107578682Y-75208146D01*
X107588552Y-75201552D01*
X107632867Y-75135231D01*
X107632867Y-75135229D01*
X107632868Y-75135229D01*
X107644499Y-75076752D01*
X107644500Y-75076750D01*
X107644500Y-73767249D01*
X107644499Y-73767247D01*
X107632868Y-73708770D01*
X107632867Y-73708769D01*
X107588552Y-73642447D01*
X107522230Y-73598132D01*
X107522229Y-73598131D01*
X107463752Y-73586500D01*
X107463748Y-73586500D01*
X104873832Y-73586500D01*
X104806793Y-73566815D01*
X104761038Y-73514011D01*
X104751094Y-73444853D01*
X104780119Y-73381297D01*
X104786151Y-73374819D01*
X105407153Y-72753819D01*
X105468476Y-72720334D01*
X105494834Y-72717500D01*
X107463750Y-72717500D01*
X107463751Y-72717499D01*
X107478568Y-72714552D01*
X107522229Y-72705868D01*
X107522229Y-72705867D01*
X107522231Y-72705867D01*
X107588552Y-72661552D01*
X107632867Y-72595231D01*
X107632867Y-72595229D01*
X107632868Y-72595229D01*
X107644499Y-72536752D01*
X107644500Y-72536750D01*
X107644500Y-71227249D01*
X107644499Y-71227247D01*
X107632868Y-71168770D01*
X107632867Y-71168769D01*
X107588552Y-71102447D01*
X107522230Y-71058132D01*
X107522229Y-71058131D01*
X107463752Y-71046500D01*
X107463748Y-71046500D01*
X104244252Y-71046500D01*
X104244247Y-71046500D01*
X104185770Y-71058131D01*
X104185769Y-71058132D01*
X104119447Y-71102447D01*
X104075132Y-71168769D01*
X104075131Y-71168770D01*
X104063500Y-71227247D01*
X104063500Y-72536752D01*
X104075131Y-72595229D01*
X104075132Y-72595230D01*
X104119448Y-72661553D01*
X104128083Y-72670188D01*
X104125364Y-72672906D01*
X104156163Y-72709755D01*
X104164873Y-72779080D01*
X104134721Y-72842109D01*
X104075280Y-72878830D01*
X104042469Y-72883250D01*
X102205531Y-72883250D01*
X102138492Y-72863565D01*
X102092737Y-72810761D01*
X102082793Y-72741603D01*
X102111818Y-72678047D01*
X102120296Y-72670567D01*
X102119917Y-72670188D01*
X102128551Y-72661553D01*
X102128552Y-72661552D01*
X102172867Y-72595231D01*
X102172867Y-72595229D01*
X102172868Y-72595229D01*
X102184499Y-72536752D01*
X102184500Y-72536750D01*
X102184500Y-71227249D01*
X102184499Y-71227247D01*
X102172868Y-71168770D01*
X102172867Y-71168769D01*
X102128552Y-71102447D01*
X102062230Y-71058132D01*
X102062229Y-71058131D01*
X102003752Y-71046500D01*
X102003748Y-71046500D01*
X99460833Y-71046500D01*
X99393794Y-71026815D01*
X99373152Y-71010181D01*
X98752152Y-70389181D01*
X98718667Y-70327858D01*
X98723651Y-70258166D01*
X98765523Y-70202233D01*
X98830987Y-70177816D01*
X98839833Y-70177500D01*
X102003750Y-70177500D01*
X102003751Y-70177499D01*
X102018568Y-70174552D01*
X102062229Y-70165868D01*
X102062229Y-70165867D01*
X102062231Y-70165867D01*
X102128552Y-70121552D01*
X102172867Y-70055231D01*
X102172867Y-70055229D01*
X102172868Y-70055229D01*
X102184499Y-69996752D01*
X102184500Y-69996750D01*
X102184500Y-69592000D01*
X103764000Y-69592000D01*
X103764000Y-70024844D01*
X103770401Y-70084372D01*
X103770403Y-70084379D01*
X103820645Y-70219086D01*
X103820649Y-70219093D01*
X103906809Y-70334187D01*
X103906812Y-70334190D01*
X104021906Y-70420350D01*
X104021913Y-70420354D01*
X104156620Y-70470596D01*
X104156627Y-70470598D01*
X104216155Y-70476999D01*
X104216172Y-70477000D01*
X105604000Y-70477000D01*
X105604000Y-69592000D01*
X106104000Y-69592000D01*
X106104000Y-70477000D01*
X107491828Y-70477000D01*
X107491844Y-70476999D01*
X107551372Y-70470598D01*
X107551379Y-70470596D01*
X107686086Y-70420354D01*
X107686093Y-70420350D01*
X107801187Y-70334190D01*
X107801190Y-70334187D01*
X107887350Y-70219093D01*
X107887354Y-70219086D01*
X107937596Y-70084379D01*
X107937598Y-70084372D01*
X107943999Y-70024844D01*
X107944000Y-70024827D01*
X107944000Y-69592000D01*
X106104000Y-69592000D01*
X105604000Y-69592000D01*
X103764000Y-69592000D01*
X102184500Y-69592000D01*
X102184500Y-69092000D01*
X103764000Y-69092000D01*
X105604000Y-69092000D01*
X105604000Y-68207000D01*
X106104000Y-68207000D01*
X106104000Y-69092000D01*
X107944000Y-69092000D01*
X107944000Y-68659172D01*
X107943999Y-68659155D01*
X107937598Y-68599627D01*
X107937596Y-68599620D01*
X107887354Y-68464913D01*
X107887350Y-68464906D01*
X107801190Y-68349812D01*
X107801187Y-68349809D01*
X107686093Y-68263649D01*
X107686086Y-68263645D01*
X107551379Y-68213403D01*
X107551372Y-68213401D01*
X107491844Y-68207000D01*
X106104000Y-68207000D01*
X105604000Y-68207000D01*
X104216155Y-68207000D01*
X104156627Y-68213401D01*
X104156620Y-68213403D01*
X104021913Y-68263645D01*
X104021906Y-68263649D01*
X103906812Y-68349809D01*
X103906809Y-68349812D01*
X103820649Y-68464906D01*
X103820645Y-68464913D01*
X103770403Y-68599620D01*
X103770401Y-68599627D01*
X103764000Y-68659155D01*
X103764000Y-69092000D01*
X102184500Y-69092000D01*
X102184500Y-68687249D01*
X102184499Y-68687247D01*
X102172868Y-68628770D01*
X102172867Y-68628769D01*
X102128552Y-68562447D01*
X102062230Y-68518132D01*
X102062229Y-68518131D01*
X102003752Y-68506500D01*
X102003748Y-68506500D01*
X99460833Y-68506500D01*
X99393794Y-68486815D01*
X99373152Y-68470181D01*
X99051652Y-68148681D01*
X99018167Y-68087358D01*
X99023151Y-68017666D01*
X99065023Y-67961733D01*
X99130487Y-67937316D01*
X99139333Y-67937000D01*
X100144000Y-67937000D01*
X100144000Y-67052000D01*
X100644000Y-67052000D01*
X100644000Y-67937000D01*
X102031828Y-67937000D01*
X102031844Y-67936999D01*
X102091372Y-67930598D01*
X102091379Y-67930596D01*
X102226086Y-67880354D01*
X102226093Y-67880350D01*
X102341187Y-67794190D01*
X102341190Y-67794187D01*
X102427350Y-67679093D01*
X102427354Y-67679086D01*
X102477596Y-67544379D01*
X102477598Y-67544372D01*
X102483999Y-67484844D01*
X102484000Y-67484827D01*
X102484000Y-67052000D01*
X103764000Y-67052000D01*
X103764000Y-67484844D01*
X103770401Y-67544372D01*
X103770403Y-67544379D01*
X103820645Y-67679086D01*
X103820649Y-67679093D01*
X103906809Y-67794187D01*
X103906812Y-67794190D01*
X104021906Y-67880350D01*
X104021913Y-67880354D01*
X104156620Y-67930596D01*
X104156627Y-67930598D01*
X104216155Y-67936999D01*
X104216172Y-67937000D01*
X105604000Y-67937000D01*
X105604000Y-67052000D01*
X106104000Y-67052000D01*
X106104000Y-67937000D01*
X107491828Y-67937000D01*
X107491844Y-67936999D01*
X107551372Y-67930598D01*
X107551379Y-67930596D01*
X107686086Y-67880354D01*
X107686093Y-67880350D01*
X107801187Y-67794190D01*
X107801190Y-67794187D01*
X107887350Y-67679093D01*
X107887354Y-67679086D01*
X107937596Y-67544379D01*
X107937598Y-67544372D01*
X107943999Y-67484844D01*
X107944000Y-67484827D01*
X107944000Y-67052000D01*
X106104000Y-67052000D01*
X105604000Y-67052000D01*
X103764000Y-67052000D01*
X102484000Y-67052000D01*
X100644000Y-67052000D01*
X100144000Y-67052000D01*
X100144000Y-65667000D01*
X100644000Y-65667000D01*
X100644000Y-66552000D01*
X102484000Y-66552000D01*
X103764000Y-66552000D01*
X105604000Y-66552000D01*
X105604000Y-65667000D01*
X106104000Y-65667000D01*
X106104000Y-66552000D01*
X107944000Y-66552000D01*
X107944000Y-66119172D01*
X107943999Y-66119155D01*
X107937598Y-66059627D01*
X107937596Y-66059620D01*
X107887354Y-65924913D01*
X107887350Y-65924906D01*
X107801190Y-65809812D01*
X107801187Y-65809809D01*
X107686093Y-65723649D01*
X107686086Y-65723645D01*
X107551379Y-65673403D01*
X107551372Y-65673401D01*
X107491844Y-65667000D01*
X106104000Y-65667000D01*
X105604000Y-65667000D01*
X104216155Y-65667000D01*
X104156627Y-65673401D01*
X104156620Y-65673403D01*
X104021913Y-65723645D01*
X104021906Y-65723649D01*
X103906812Y-65809809D01*
X103906809Y-65809812D01*
X103820649Y-65924906D01*
X103820645Y-65924913D01*
X103770403Y-66059620D01*
X103770401Y-66059627D01*
X103764000Y-66119155D01*
X103764000Y-66552000D01*
X102484000Y-66552000D01*
X102484000Y-66119172D01*
X102483999Y-66119155D01*
X102477598Y-66059627D01*
X102477596Y-66059620D01*
X102427354Y-65924913D01*
X102427350Y-65924906D01*
X102341190Y-65809812D01*
X102341187Y-65809809D01*
X102226093Y-65723649D01*
X102226086Y-65723645D01*
X102091379Y-65673403D01*
X102091372Y-65673401D01*
X102031844Y-65667000D01*
X100644000Y-65667000D01*
X100144000Y-65667000D01*
X98853500Y-65667000D01*
X98786461Y-65647315D01*
X98740706Y-65594511D01*
X98729500Y-65543000D01*
X98729500Y-65221500D01*
X98749185Y-65154461D01*
X98801989Y-65108706D01*
X98853500Y-65097500D01*
X102003750Y-65097500D01*
X102003751Y-65097499D01*
X102018568Y-65094552D01*
X102062229Y-65085868D01*
X102062229Y-65085867D01*
X102062231Y-65085867D01*
X102128552Y-65041552D01*
X102172867Y-64975231D01*
X102172867Y-64975229D01*
X102172868Y-64975229D01*
X102184499Y-64916752D01*
X102184500Y-64916750D01*
X102184500Y-64785217D01*
X102204185Y-64718178D01*
X102256989Y-64672423D01*
X102308500Y-64661217D01*
X102814170Y-64661217D01*
X102881209Y-64680902D01*
X102889657Y-64686841D01*
X102892466Y-64688996D01*
X102892468Y-64688999D01*
X103017909Y-64785253D01*
X103163988Y-64845761D01*
X103242369Y-64856080D01*
X103320749Y-64866399D01*
X103320750Y-64866399D01*
X103320751Y-64866399D01*
X103373004Y-64859519D01*
X103477512Y-64845761D01*
X103623591Y-64785253D01*
X103749032Y-64688999D01*
X103749033Y-64688996D01*
X103751843Y-64686841D01*
X103817013Y-64661647D01*
X103827330Y-64661217D01*
X103939500Y-64661217D01*
X104006539Y-64680902D01*
X104052294Y-64733706D01*
X104063500Y-64785217D01*
X104063500Y-64916752D01*
X104075131Y-64975229D01*
X104075132Y-64975230D01*
X104119447Y-65041552D01*
X104185769Y-65085867D01*
X104185770Y-65085868D01*
X104244247Y-65097499D01*
X104244250Y-65097500D01*
X104244252Y-65097500D01*
X107463750Y-65097500D01*
X107463751Y-65097499D01*
X107478568Y-65094552D01*
X107522229Y-65085868D01*
X107522229Y-65085867D01*
X107522231Y-65085867D01*
X107588552Y-65041552D01*
X107632867Y-64975231D01*
X107632867Y-64975229D01*
X107632868Y-64975229D01*
X107644499Y-64916752D01*
X107644500Y-64916750D01*
X107644500Y-63624000D01*
X107664185Y-63556961D01*
X107716989Y-63511206D01*
X107768500Y-63500000D01*
X107950000Y-63500000D01*
X108585000Y-62865000D01*
X108585000Y-61658680D01*
X108604685Y-61591641D01*
X108617768Y-61574699D01*
X108645960Y-61544072D01*
X108649462Y-61540424D01*
X109845796Y-60344090D01*
X109865652Y-60327967D01*
X109873419Y-60322893D01*
X109891246Y-60299987D01*
X109900295Y-60289741D01*
X109901112Y-60288775D01*
X109901126Y-60288762D01*
X109912320Y-60273082D01*
X109915365Y-60268999D01*
X109945264Y-60230586D01*
X109945264Y-60230585D01*
X109945267Y-60230582D01*
X109945268Y-60230577D01*
X109948766Y-60224113D01*
X109951986Y-60217526D01*
X109951990Y-60217522D01*
X109965881Y-60170860D01*
X109967436Y-60166006D01*
X109976732Y-60138928D01*
X109983250Y-60119944D01*
X109983250Y-60119939D01*
X109984455Y-60112714D01*
X109985367Y-60105406D01*
X109983356Y-60056776D01*
X109983250Y-60051652D01*
X109983250Y-54313961D01*
X109985889Y-54288514D01*
X109986230Y-54286887D01*
X109987793Y-54279435D01*
X109984693Y-54254571D01*
X109984202Y-54250627D01*
X109983354Y-54236975D01*
X109983250Y-54235721D01*
X109983250Y-54235710D01*
X109980079Y-54216716D01*
X109979344Y-54211664D01*
X109977536Y-54197160D01*
X109973323Y-54163358D01*
X109973319Y-54163351D01*
X109971225Y-54156316D01*
X109968842Y-54149372D01*
X109968842Y-54149369D01*
X109945670Y-54106552D01*
X109943326Y-54101997D01*
X109921948Y-54058266D01*
X109917685Y-54052296D01*
X109913170Y-54046496D01*
X109913168Y-54046492D01*
X109877338Y-54013508D01*
X109873660Y-54009979D01*
X109863563Y-53999882D01*
X109830082Y-53938558D01*
X109827250Y-53912206D01*
X109827250Y-53713000D01*
X110327250Y-53713000D01*
X110327250Y-54328228D01*
X110327251Y-54328229D01*
X110335525Y-54327579D01*
X110335532Y-54327577D01*
X110494444Y-54281409D01*
X110494447Y-54281407D01*
X110636892Y-54197166D01*
X110636900Y-54197160D01*
X110753910Y-54080150D01*
X110753916Y-54080142D01*
X110838157Y-53937697D01*
X110838158Y-53937694D01*
X110884327Y-53778783D01*
X110884328Y-53778777D01*
X110887249Y-53741657D01*
X110887250Y-53741642D01*
X110887250Y-53713000D01*
X110327250Y-53713000D01*
X109827250Y-53713000D01*
X109827250Y-53337000D01*
X109846935Y-53269961D01*
X109899739Y-53224206D01*
X109951250Y-53213000D01*
X110887250Y-53213000D01*
X110887250Y-53184357D01*
X110887249Y-53184342D01*
X110884328Y-53147222D01*
X110884327Y-53147216D01*
X110838158Y-52988305D01*
X110838157Y-52988302D01*
X110753916Y-52845857D01*
X110753910Y-52845849D01*
X110636900Y-52728839D01*
X110630732Y-52724055D01*
X110632634Y-52721601D01*
X110594781Y-52681034D01*
X110582300Y-52612288D01*
X110582900Y-52607529D01*
X110584210Y-52598543D01*
X110587750Y-52574242D01*
X110587750Y-52081758D01*
X110577683Y-52012660D01*
X110566502Y-51989790D01*
X110525573Y-51906069D01*
X110464069Y-51844565D01*
X110430584Y-51783242D01*
X110427750Y-51756884D01*
X110427750Y-51738206D01*
X110430389Y-51712760D01*
X110432292Y-51703685D01*
X110428701Y-51674883D01*
X110427750Y-51659546D01*
X110427750Y-51652865D01*
X110447435Y-51585826D01*
X110464064Y-51565188D01*
X110525574Y-51503679D01*
X110577683Y-51397090D01*
X110587750Y-51327992D01*
X110587750Y-51118293D01*
X110607435Y-51051254D01*
X110624065Y-51030616D01*
X110950296Y-50704384D01*
X110970152Y-50688261D01*
X110977919Y-50683187D01*
X110995746Y-50660281D01*
X111004790Y-50650041D01*
X111005610Y-50649071D01*
X111005625Y-50649057D01*
X111016834Y-50633355D01*
X111019854Y-50629306D01*
X111049767Y-50590876D01*
X111049768Y-50590870D01*
X111053263Y-50584413D01*
X111056486Y-50577820D01*
X111056490Y-50577816D01*
X111070388Y-50531132D01*
X111071924Y-50526333D01*
X111087750Y-50480238D01*
X111087750Y-50480231D01*
X111088956Y-50473002D01*
X111089867Y-50465702D01*
X111087856Y-50417081D01*
X111087750Y-50411956D01*
X111087750Y-49007648D01*
X111107435Y-48940609D01*
X111124065Y-48919971D01*
X111450289Y-48593746D01*
X111470152Y-48577617D01*
X111477919Y-48572543D01*
X111495750Y-48549631D01*
X111504778Y-48539410D01*
X111505616Y-48538420D01*
X111505625Y-48538412D01*
X111516820Y-48522730D01*
X111519831Y-48518692D01*
X111549767Y-48480232D01*
X111549768Y-48480228D01*
X111553263Y-48473769D01*
X111556486Y-48467176D01*
X111556490Y-48467172D01*
X111570388Y-48420488D01*
X111571924Y-48415689D01*
X111587750Y-48369594D01*
X111587750Y-48369587D01*
X111588956Y-48362360D01*
X111589867Y-48355057D01*
X111587856Y-48306427D01*
X111587750Y-48301303D01*
X111587750Y-47045131D01*
X111590389Y-47019684D01*
X111592293Y-47010605D01*
X111588702Y-46981797D01*
X111587852Y-46968112D01*
X111587751Y-46966890D01*
X111587750Y-46966884D01*
X111587750Y-46966880D01*
X111584580Y-46947886D01*
X111583845Y-46942838D01*
X111577823Y-46894527D01*
X111575726Y-46887487D01*
X111573342Y-46880542D01*
X111573342Y-46880539D01*
X111550174Y-46837730D01*
X111547829Y-46833174D01*
X111547765Y-46833044D01*
X111526448Y-46789436D01*
X111526446Y-46789434D01*
X111522176Y-46783454D01*
X111517670Y-46777665D01*
X111517669Y-46777664D01*
X111517668Y-46777662D01*
X111481837Y-46744677D01*
X111478164Y-46741152D01*
X111200792Y-46463780D01*
X111167307Y-46402457D01*
X111172291Y-46332765D01*
X111185183Y-46309490D01*
X111184795Y-46309266D01*
X111188856Y-46302232D01*
X111188857Y-46302231D01*
X111249365Y-46156152D01*
X111270003Y-45999390D01*
X111269550Y-45995951D01*
X111249365Y-45842629D01*
X111249365Y-45842628D01*
X111188857Y-45696549D01*
X111092603Y-45571108D01*
X110967162Y-45474854D01*
X110821083Y-45414346D01*
X110821081Y-45414345D01*
X110664322Y-45393708D01*
X110664318Y-45393708D01*
X110648434Y-45395799D01*
X110579399Y-45385033D01*
X110527143Y-45338652D01*
X110508250Y-45272860D01*
X110508250Y-44983855D01*
X110510889Y-44958408D01*
X110512793Y-44949329D01*
X110509202Y-44920521D01*
X110508352Y-44906836D01*
X110508251Y-44905614D01*
X110508250Y-44905608D01*
X110508250Y-44905604D01*
X110505080Y-44886610D01*
X110504345Y-44881562D01*
X110498323Y-44833251D01*
X110496226Y-44826211D01*
X110493842Y-44819266D01*
X110493842Y-44819263D01*
X110491245Y-44814465D01*
X110470678Y-44776461D01*
X110468329Y-44771898D01*
X110446949Y-44728162D01*
X110442676Y-44722178D01*
X110438170Y-44716389D01*
X110438169Y-44716388D01*
X110438168Y-44716386D01*
X110402337Y-44683401D01*
X110398664Y-44679876D01*
X110037634Y-44318846D01*
X110004149Y-44257523D01*
X110002267Y-44246501D01*
X109998323Y-44214857D01*
X109998321Y-44214854D01*
X109996227Y-44207816D01*
X109993842Y-44200868D01*
X109970678Y-44158067D01*
X109968329Y-44153504D01*
X109946949Y-44109768D01*
X109942676Y-44103784D01*
X109938170Y-44097995D01*
X109938169Y-44097994D01*
X109938168Y-44097992D01*
X109902337Y-44065007D01*
X109898664Y-44061482D01*
X109749694Y-43912512D01*
X109716209Y-43851189D01*
X109713375Y-43824831D01*
X109713375Y-43265418D01*
X109733060Y-43198379D01*
X109749690Y-43177741D01*
X110261546Y-42665884D01*
X110281402Y-42649761D01*
X110289169Y-42644687D01*
X110306996Y-42621781D01*
X110316051Y-42611529D01*
X110316865Y-42610566D01*
X110316875Y-42610557D01*
X110328076Y-42594866D01*
X110331072Y-42590847D01*
X110361017Y-42552376D01*
X110361019Y-42552368D01*
X110364513Y-42545911D01*
X110367735Y-42539320D01*
X110367739Y-42539316D01*
X110381633Y-42492643D01*
X110383179Y-42487817D01*
X110399000Y-42441738D01*
X110399000Y-42441732D01*
X110400206Y-42434506D01*
X110401117Y-42427202D01*
X110399106Y-42378582D01*
X110399000Y-42373457D01*
X110399000Y-41590885D01*
X110401639Y-41565438D01*
X110402205Y-41562738D01*
X110403543Y-41556359D01*
X110399952Y-41527551D01*
X110399104Y-41513899D01*
X110399000Y-41512645D01*
X110399000Y-41512634D01*
X110395829Y-41493640D01*
X110395094Y-41488588D01*
X110389073Y-41440286D01*
X110389073Y-41440282D01*
X110389069Y-41440275D01*
X110386975Y-41433240D01*
X110384592Y-41426296D01*
X110384592Y-41426293D01*
X110361420Y-41383476D01*
X110359076Y-41378921D01*
X110337698Y-41335190D01*
X110333435Y-41329220D01*
X110328920Y-41323420D01*
X110328918Y-41323416D01*
X110293088Y-41290432D01*
X110289391Y-41286884D01*
X109990216Y-40987708D01*
X109956731Y-40926385D01*
X109956585Y-40887238D01*
X109955618Y-40887198D01*
X109956041Y-40876941D01*
X109956043Y-40876935D01*
X109952452Y-40848127D01*
X109951602Y-40834442D01*
X109951501Y-40833220D01*
X109951500Y-40833214D01*
X109951500Y-40833210D01*
X109948330Y-40814216D01*
X109947595Y-40809168D01*
X109946366Y-40799312D01*
X109941573Y-40760857D01*
X109939476Y-40753817D01*
X109937092Y-40746872D01*
X109937092Y-40746869D01*
X109913924Y-40704060D01*
X109911579Y-40699504D01*
X109890199Y-40655768D01*
X109885926Y-40649784D01*
X109881420Y-40643995D01*
X109881419Y-40643994D01*
X109881418Y-40643992D01*
X109845587Y-40611007D01*
X109841914Y-40607482D01*
X109670319Y-40435887D01*
X109636834Y-40374564D01*
X109634000Y-40348206D01*
X109634000Y-40271679D01*
X109653685Y-40204640D01*
X109703537Y-40160279D01*
X109751902Y-40136636D01*
X109836386Y-40052152D01*
X109888861Y-39944813D01*
X109899000Y-39875224D01*
X109899000Y-39492276D01*
X109888861Y-39422687D01*
X109836386Y-39315348D01*
X109836385Y-39315347D01*
X109836385Y-39315346D01*
X109751903Y-39230864D01*
X109736085Y-39223131D01*
X109684503Y-39176003D01*
X109666589Y-39108468D01*
X109675985Y-39064279D01*
X109694043Y-39020685D01*
X109711690Y-38886639D01*
X109739956Y-38822743D01*
X109798281Y-38784272D01*
X109846255Y-38781467D01*
X109846404Y-38779581D01*
X109889842Y-38782999D01*
X109889858Y-38783000D01*
X109918500Y-38783000D01*
X109918500Y-38223000D01*
X110418500Y-38223000D01*
X110418500Y-38783000D01*
X110447142Y-38783000D01*
X110447157Y-38782999D01*
X110484277Y-38780078D01*
X110484283Y-38780077D01*
X110643194Y-38733908D01*
X110643197Y-38733907D01*
X110785642Y-38649666D01*
X110785650Y-38649660D01*
X110902660Y-38532650D01*
X110902666Y-38532642D01*
X110986907Y-38390197D01*
X110986909Y-38390194D01*
X111033078Y-38231281D01*
X111033730Y-38223000D01*
X110418500Y-38223000D01*
X109918500Y-38223000D01*
X109918500Y-37302250D01*
X110418500Y-37302250D01*
X110418500Y-37723000D01*
X111033730Y-37723000D01*
X111033078Y-37714718D01*
X110984731Y-37548309D01*
X110987762Y-37547428D01*
X110980963Y-37492599D01*
X110985495Y-37477163D01*
X110984731Y-37476941D01*
X111033078Y-37310531D01*
X111033730Y-37302250D01*
X110418500Y-37302250D01*
X109918500Y-37302250D01*
X109918500Y-36926250D01*
X109938185Y-36859211D01*
X109990989Y-36813456D01*
X110042500Y-36802250D01*
X111033730Y-36802250D01*
X111033078Y-36793968D01*
X110986909Y-36635055D01*
X110986907Y-36635052D01*
X110902666Y-36492607D01*
X110902660Y-36492599D01*
X110785650Y-36375589D01*
X110785642Y-36375583D01*
X110643197Y-36291342D01*
X110643195Y-36291341D01*
X110602749Y-36279590D01*
X110594429Y-36285837D01*
X110583065Y-36324539D01*
X110530261Y-36370294D01*
X110478750Y-36381500D01*
X109566250Y-36381500D01*
X109499211Y-36361815D01*
X109453456Y-36309011D01*
X109442250Y-36257500D01*
X109442250Y-36005500D01*
X109461935Y-35938461D01*
X109514739Y-35892706D01*
X109566250Y-35881500D01*
X110557480Y-35881500D01*
X110556828Y-35873218D01*
X110510659Y-35714305D01*
X110510657Y-35714302D01*
X110426416Y-35571857D01*
X110426410Y-35571849D01*
X110309400Y-35454839D01*
X110309392Y-35454833D01*
X110166947Y-35370592D01*
X110166944Y-35370591D01*
X110008033Y-35324422D01*
X110008027Y-35324421D01*
X109970907Y-35321500D01*
X109936000Y-35321500D01*
X109936000Y-35336750D01*
X109916315Y-35403789D01*
X109863511Y-35449544D01*
X109812000Y-35460750D01*
X108899500Y-35460750D01*
X108832461Y-35441065D01*
X108786706Y-35388261D01*
X108775500Y-35336750D01*
X108775500Y-34400750D01*
X109275500Y-34400750D01*
X109275500Y-34960750D01*
X109890730Y-34960750D01*
X109890078Y-34952468D01*
X109843909Y-34793555D01*
X109843907Y-34793552D01*
X109759666Y-34651107D01*
X109759660Y-34651099D01*
X109642650Y-34534089D01*
X109642642Y-34534083D01*
X109500197Y-34449842D01*
X109500194Y-34449841D01*
X109341283Y-34403672D01*
X109341277Y-34403671D01*
X109304157Y-34400750D01*
X109275500Y-34400750D01*
X108775500Y-34400750D01*
X108746842Y-34400750D01*
X108709727Y-34403671D01*
X108709721Y-34403672D01*
X108603853Y-34434429D01*
X108563239Y-34464743D01*
X108520070Y-34472500D01*
X108450000Y-34472500D01*
X107950000Y-33972500D01*
X108569500Y-33972500D01*
X108569500Y-33943857D01*
X108569499Y-33943842D01*
X108566578Y-33906722D01*
X108566577Y-33906716D01*
X108539719Y-33814272D01*
X108539918Y-33744403D01*
X108577860Y-33685733D01*
X108641498Y-33656889D01*
X108674978Y-33656738D01*
X108680250Y-33657432D01*
X108837012Y-33636794D01*
X108983091Y-33576286D01*
X109108532Y-33480032D01*
X109204786Y-33354591D01*
X109265294Y-33208512D01*
X109285932Y-33051750D01*
X109283987Y-33036979D01*
X109268350Y-32918200D01*
X109265294Y-32894988D01*
X109204786Y-32748909D01*
X109108532Y-32623468D01*
X108983091Y-32527214D01*
X108894996Y-32490724D01*
X108837012Y-32466706D01*
X108837010Y-32466705D01*
X108680251Y-32446068D01*
X108680249Y-32446068D01*
X108523489Y-32466705D01*
X108523487Y-32466706D01*
X108377407Y-32527214D01*
X108289440Y-32594714D01*
X108224271Y-32619908D01*
X108155826Y-32605869D01*
X108126273Y-32584019D01*
X108123932Y-32581678D01*
X108123930Y-32581677D01*
X108123929Y-32581676D01*
X108072701Y-32556631D01*
X108019538Y-32530641D01*
X107967956Y-32483512D01*
X107950000Y-32419241D01*
X107950000Y-26987500D01*
X107327977Y-26365477D01*
X107294492Y-26304154D01*
X107299476Y-26234462D01*
X107309542Y-26213645D01*
X107333268Y-26174397D01*
X107333269Y-26174396D01*
X107383840Y-26012106D01*
X107390250Y-25941572D01*
X107390250Y-25510000D01*
X105447500Y-25510000D01*
X105447500Y-25526000D01*
X105427815Y-25593039D01*
X105375011Y-25638794D01*
X105323500Y-25650000D01*
X104421000Y-25650000D01*
X104353961Y-25630315D01*
X104308206Y-25577511D01*
X104297000Y-25526000D01*
X104297000Y-24580000D01*
X104296163Y-24580000D01*
X104229656Y-24586043D01*
X104076640Y-24633724D01*
X104076636Y-24633726D01*
X103939480Y-24716639D01*
X103826143Y-24829975D01*
X103817629Y-24844059D01*
X103766099Y-24891245D01*
X103697240Y-24903082D01*
X103657053Y-24891306D01*
X103653786Y-24889709D01*
X103583715Y-24879500D01*
X103583709Y-24879500D01*
X103120286Y-24879500D01*
X103070842Y-24886703D01*
X103050214Y-24889709D01*
X103050212Y-24889709D01*
X103050210Y-24889710D01*
X103050208Y-24889710D01*
X102942127Y-24942548D01*
X102942124Y-24942550D01*
X102857051Y-25027623D01*
X102855908Y-25029962D01*
X102853499Y-25032598D01*
X102851079Y-25035988D01*
X102850669Y-25035695D01*
X102808779Y-25081544D01*
X102744508Y-25099500D01*
X102492638Y-25099500D01*
X102475510Y-25098311D01*
X102467738Y-25097227D01*
X102467735Y-25097227D01*
X102427472Y-25099088D01*
X102421420Y-25099368D01*
X102415695Y-25099500D01*
X102397656Y-25099500D01*
X102397651Y-25099500D01*
X102392826Y-25099948D01*
X102382197Y-25101181D01*
X102355508Y-25102415D01*
X102349163Y-25105215D01*
X102321880Y-25113665D01*
X102315068Y-25114938D01*
X102315067Y-25114939D01*
X102292357Y-25128999D01*
X102277178Y-25137000D01*
X102252735Y-25147793D01*
X102247836Y-25152693D01*
X102225442Y-25170431D01*
X102219548Y-25174080D01*
X102203449Y-25195398D01*
X102192179Y-25208349D01*
X102083451Y-25317076D01*
X102022128Y-25350560D01*
X101952436Y-25345576D01*
X101896503Y-25303704D01*
X101888269Y-25289950D01*
X101888149Y-25290025D01*
X101845565Y-25220986D01*
X100714051Y-26352500D01*
X100005947Y-26352500D01*
X98874433Y-25220986D01*
X98874432Y-25220986D01*
X98835643Y-25283874D01*
X98780494Y-25450302D01*
X98780493Y-25450309D01*
X98770000Y-25553013D01*
X98770000Y-26228500D01*
X98750315Y-26295539D01*
X98697511Y-26341294D01*
X98646000Y-26352500D01*
X91853999Y-26352500D01*
X91786960Y-26332815D01*
X91741205Y-26280011D01*
X91729999Y-26228500D01*
X91729999Y-25553028D01*
X91729998Y-25553013D01*
X91719505Y-25450302D01*
X91664358Y-25283880D01*
X91664356Y-25283875D01*
X91625565Y-25220986D01*
X90494051Y-26352500D01*
X89785947Y-26352500D01*
X88654433Y-25220986D01*
X88654432Y-25220986D01*
X88611850Y-25290025D01*
X88610243Y-25289034D01*
X88570429Y-25334245D01*
X88503234Y-25353391D01*
X88436354Y-25333169D01*
X88416547Y-25317076D01*
X88334462Y-25234991D01*
X88323187Y-25222035D01*
X88318455Y-25215768D01*
X88284183Y-25184525D01*
X88280060Y-25180589D01*
X88267297Y-25167826D01*
X88267296Y-25167825D01*
X88267294Y-25167823D01*
X88263577Y-25164737D01*
X88255179Y-25158084D01*
X88235433Y-25140084D01*
X88228970Y-25137580D01*
X88203692Y-25124256D01*
X88197981Y-25120344D01*
X88197978Y-25120343D01*
X88197979Y-25120343D01*
X88171983Y-25114228D01*
X88155589Y-25109151D01*
X88130674Y-25099500D01*
X88130673Y-25099500D01*
X88123749Y-25099500D01*
X88095358Y-25096206D01*
X88088619Y-25094621D01*
X88062166Y-25098311D01*
X88045036Y-25099500D01*
X87755492Y-25099500D01*
X87688453Y-25079815D01*
X87649247Y-25035755D01*
X87648921Y-25035988D01*
X87646756Y-25032955D01*
X87644092Y-25029962D01*
X87642948Y-25027623D01*
X87557875Y-24942550D01*
X87557872Y-24942548D01*
X87469097Y-24899149D01*
X89039701Y-24899149D01*
X90140000Y-25999447D01*
X90140001Y-25999447D01*
X91240297Y-24899149D01*
X99259701Y-24899149D01*
X100360000Y-25999447D01*
X100360001Y-25999447D01*
X101460297Y-24899149D01*
X101460297Y-24899148D01*
X101352697Y-24863494D01*
X101249980Y-24853000D01*
X99470028Y-24853000D01*
X99470012Y-24853001D01*
X99367303Y-24863494D01*
X99367297Y-24863495D01*
X99259701Y-24899148D01*
X99259701Y-24899149D01*
X91240297Y-24899149D01*
X91240297Y-24899148D01*
X91132697Y-24863494D01*
X91029980Y-24853000D01*
X89250028Y-24853000D01*
X89250012Y-24853001D01*
X89147303Y-24863494D01*
X89147297Y-24863495D01*
X89039701Y-24899148D01*
X89039701Y-24899149D01*
X87469097Y-24899149D01*
X87449789Y-24889710D01*
X87449787Y-24889709D01*
X87449786Y-24889709D01*
X87379715Y-24879500D01*
X87379709Y-24879500D01*
X86916286Y-24879500D01*
X86846213Y-24889709D01*
X86844371Y-24890609D01*
X86842942Y-24891308D01*
X86838687Y-24892034D01*
X86837013Y-24892552D01*
X86836945Y-24892332D01*
X86774071Y-24903065D01*
X86709774Y-24875721D01*
X86682369Y-24844056D01*
X86673858Y-24829977D01*
X86560523Y-24716642D01*
X86560519Y-24716639D01*
X86423363Y-24633726D01*
X86423359Y-24633724D01*
X86270342Y-24586043D01*
X86270343Y-24586043D01*
X86203837Y-24580000D01*
X86203000Y-24580000D01*
X86203000Y-25526000D01*
X86183315Y-25593039D01*
X86130511Y-25638794D01*
X86079000Y-25650000D01*
X85176500Y-25650000D01*
X85109461Y-25630315D01*
X85063706Y-25577511D01*
X85052500Y-25526000D01*
X85052500Y-25510000D01*
X83109751Y-25510000D01*
X83109751Y-25941582D01*
X83116158Y-26012102D01*
X83116159Y-26012107D01*
X83166731Y-26174396D01*
X83190458Y-26213646D01*
X83208294Y-26281201D01*
X83186776Y-26347675D01*
X83172022Y-26365477D01*
X82550000Y-26987499D01*
X82550000Y-34173500D01*
X82530315Y-34240539D01*
X82477511Y-34286294D01*
X82426000Y-34297500D01*
X82329508Y-34297500D01*
X82283442Y-34304211D01*
X82260407Y-34307567D01*
X82153819Y-34359676D01*
X82153818Y-34359678D01*
X82069928Y-34443568D01*
X82069926Y-34443569D01*
X82017817Y-34550157D01*
X82017140Y-34554807D01*
X82007750Y-34619258D01*
X82007750Y-35111742D01*
X82008108Y-35114196D01*
X82012600Y-35145034D01*
X82002785Y-35214210D01*
X81963415Y-35259815D01*
X81964766Y-35261556D01*
X81958602Y-35266337D01*
X81841589Y-35383349D01*
X81841583Y-35383357D01*
X81757342Y-35525802D01*
X81757341Y-35525805D01*
X81711172Y-35684716D01*
X81711171Y-35684722D01*
X81708250Y-35721842D01*
X81708250Y-35750500D01*
X82550000Y-35750500D01*
X82550000Y-35877500D01*
X82177000Y-36250500D01*
X81708250Y-36250500D01*
X81708250Y-36279157D01*
X81711171Y-36316277D01*
X81711172Y-36316283D01*
X81757341Y-36475194D01*
X81757342Y-36475197D01*
X81841583Y-36617642D01*
X81841589Y-36617650D01*
X81878680Y-36654740D01*
X81912166Y-36716062D01*
X81915000Y-36742422D01*
X81915000Y-53164205D01*
X81895315Y-53231244D01*
X81856097Y-53269743D01*
X81765409Y-53325680D01*
X81765405Y-53325683D01*
X81641434Y-53449654D01*
X81549393Y-53598875D01*
X81549391Y-53598880D01*
X81494244Y-53765302D01*
X81494243Y-53765309D01*
X81483750Y-53868013D01*
X81483750Y-53918000D01*
X81915000Y-53918000D01*
X81915000Y-54418000D01*
X81483751Y-54418000D01*
X81483751Y-54467986D01*
X81494244Y-54570697D01*
X81549391Y-54737119D01*
X81549393Y-54737124D01*
X81641434Y-54886345D01*
X81765404Y-55010315D01*
X81856097Y-55066255D01*
X81902821Y-55118203D01*
X81915000Y-55171794D01*
X81915000Y-55450439D01*
X81895315Y-55517478D01*
X81890770Y-55524074D01*
X81868281Y-55554545D01*
X81812633Y-55596795D01*
X81742976Y-55602252D01*
X81693024Y-55579285D01*
X81646342Y-55543464D01*
X81500262Y-55482956D01*
X81500260Y-55482955D01*
X81343501Y-55462318D01*
X81343499Y-55462318D01*
X81186739Y-55482955D01*
X81186737Y-55482956D01*
X81040660Y-55543463D01*
X80915218Y-55639718D01*
X80818963Y-55765160D01*
X80758456Y-55911237D01*
X80758455Y-55911239D01*
X80737818Y-56067998D01*
X80737818Y-56068001D01*
X78534158Y-56068001D01*
X78534158Y-38876659D01*
X78534180Y-38641841D01*
X78513734Y-38358529D01*
X78498640Y-38149371D01*
X78442943Y-37765500D01*
X78427741Y-37660725D01*
X78426372Y-37654492D01*
X78401200Y-37539844D01*
X78321853Y-37178456D01*
X78181525Y-36705060D01*
X78181520Y-36705048D01*
X78115409Y-36529527D01*
X78007484Y-36242993D01*
X78007482Y-36242990D01*
X78007481Y-36242985D01*
X77800642Y-35794669D01*
X77800638Y-35794661D01*
X77798972Y-35791643D01*
X77562048Y-35362365D01*
X77353705Y-35041825D01*
X77292968Y-34948380D01*
X77292959Y-34948367D01*
X76994785Y-34554835D01*
X76994762Y-34554807D01*
X76669041Y-34183767D01*
X76669034Y-34183760D01*
X76494819Y-34012029D01*
X76491687Y-34008828D01*
X76467339Y-33983029D01*
X76207093Y-33707272D01*
X76201206Y-33700565D01*
X76178041Y-33672177D01*
X75940478Y-33381048D01*
X75935085Y-33373930D01*
X75817671Y-33206785D01*
X75698035Y-33036476D01*
X75693168Y-33028988D01*
X75481008Y-32675319D01*
X75476703Y-32667517D01*
X75290558Y-32299509D01*
X75286827Y-32291422D01*
X75127653Y-31910963D01*
X75124506Y-31902606D01*
X75118297Y-31884131D01*
X74993140Y-31511701D01*
X74990603Y-31503144D01*
X74887707Y-31103767D01*
X74885794Y-31095051D01*
X74881778Y-31072993D01*
X74811917Y-30689319D01*
X74810639Y-30680520D01*
X74766156Y-30270502D01*
X74765514Y-30261595D01*
X74765003Y-30247406D01*
X74750668Y-29849634D01*
X74750684Y-29840309D01*
X74751514Y-29819199D01*
X74751786Y-29812263D01*
X74774087Y-29746049D01*
X74828647Y-29702403D01*
X74898143Y-29695183D01*
X74960510Y-29726681D01*
X74991454Y-29772695D01*
X75048204Y-29920535D01*
X75214754Y-30247406D01*
X75414553Y-30555070D01*
X75603297Y-30788148D01*
X77026389Y-29365056D01*
X77142632Y-29514404D01*
X77325523Y-29682768D01*
X77380116Y-29718435D01*
X75956850Y-31141701D01*
X76189929Y-31330446D01*
X76497593Y-31530245D01*
X76824464Y-31696795D01*
X77166948Y-31828263D01*
X77521314Y-31923215D01*
X77883646Y-31980602D01*
X78249999Y-31999803D01*
X78250001Y-31999803D01*
X78616353Y-31980602D01*
X78978684Y-31923215D01*
X78978686Y-31923215D01*
X79333051Y-31828263D01*
X79675535Y-31696795D01*
X80002406Y-31530245D01*
X80310064Y-31330450D01*
X80543148Y-31141701D01*
X79119882Y-29718435D01*
X79174477Y-29682768D01*
X79357368Y-29514404D01*
X79473610Y-29365057D01*
X80896701Y-30788148D01*
X81085450Y-30555064D01*
X81285245Y-30247406D01*
X81451795Y-29920535D01*
X81583263Y-29578051D01*
X81678215Y-29223686D01*
X81678215Y-29223684D01*
X81735602Y-28861353D01*
X81754803Y-28495000D01*
X81754803Y-28494999D01*
X81735602Y-28128646D01*
X81678215Y-27766315D01*
X81678215Y-27766313D01*
X81583263Y-27411948D01*
X81451795Y-27069464D01*
X81285245Y-26742594D01*
X81085446Y-26434929D01*
X80896701Y-26201850D01*
X79473609Y-27624942D01*
X79357368Y-27475596D01*
X79174477Y-27307232D01*
X79119882Y-27271563D01*
X80543148Y-25848297D01*
X80310070Y-25659553D01*
X80002406Y-25459754D01*
X79675535Y-25293204D01*
X79333051Y-25161736D01*
X78978685Y-25066784D01*
X78616353Y-25009397D01*
X78250001Y-24990197D01*
X78249999Y-24990197D01*
X77883644Y-25009397D01*
X77717159Y-25035765D01*
X77647866Y-25026810D01*
X77594414Y-24981814D01*
X77573775Y-24915062D01*
X77592500Y-24847748D01*
X77637173Y-24805103D01*
X77940133Y-24635437D01*
X77948786Y-24631027D01*
X78357075Y-24442803D01*
X78366053Y-24439084D01*
X78787850Y-24283475D01*
X78797094Y-24280472D01*
X79229782Y-24158441D01*
X79239230Y-24156173D01*
X79680168Y-24068465D01*
X79689765Y-24066945D01*
X80136235Y-24014102D01*
X80145901Y-24013341D01*
X80597557Y-23995596D01*
X80602425Y-23995500D01*
X80665892Y-23995500D01*
X83160318Y-23995500D01*
X83227357Y-24015185D01*
G37*
%TD.AperFunction*%
%TD*%
M02*
