%TF.GenerationSoftware,KiCad,Pcbnew,7.0.10*%
%TF.CreationDate,2024-01-15T20:05:46+01:00*%
%TF.ProjectId,tiny-scarab,74696e79-2d73-4636-9172-61622e6b6963,0.1*%
%TF.SameCoordinates,Original*%
%TF.FileFunction,Soldermask,Top*%
%TF.FilePolarity,Negative*%
%FSLAX46Y46*%
G04 Gerber Fmt 4.6, Leading zero omitted, Abs format (unit mm)*
G04 Created by KiCad (PCBNEW 7.0.10) date 2024-01-15 20:05:46*
%MOMM*%
%LPD*%
G01*
G04 APERTURE LIST*
G04 Aperture macros list*
%AMRoundRect*
0 Rectangle with rounded corners*
0 $1 Rounding radius*
0 $2 $3 $4 $5 $6 $7 $8 $9 X,Y pos of 4 corners*
0 Add a 4 corners polygon primitive as box body*
4,1,4,$2,$3,$4,$5,$6,$7,$8,$9,$2,$3,0*
0 Add four circle primitives for the rounded corners*
1,1,$1+$1,$2,$3*
1,1,$1+$1,$4,$5*
1,1,$1+$1,$6,$7*
1,1,$1+$1,$8,$9*
0 Add four rect primitives between the rounded corners*
20,1,$1+$1,$2,$3,$4,$5,0*
20,1,$1+$1,$4,$5,$6,$7,0*
20,1,$1+$1,$6,$7,$8,$9,0*
20,1,$1+$1,$8,$9,$2,$3,0*%
G04 Aperture macros list end*
%ADD10C,6.000000*%
%ADD11RoundRect,0.155000X0.212500X0.155000X-0.212500X0.155000X-0.212500X-0.155000X0.212500X-0.155000X0*%
%ADD12RoundRect,0.160000X-0.197500X-0.160000X0.197500X-0.160000X0.197500X0.160000X-0.197500X0.160000X0*%
%ADD13RoundRect,0.250000X-0.650000X0.800000X-0.650000X-0.800000X0.650000X-0.800000X0.650000X0.800000X0*%
%ADD14RoundRect,0.100000X-0.800000X0.950000X-0.800000X-0.950000X0.800000X-0.950000X0.800000X0.950000X0*%
%ADD15RoundRect,0.160000X-0.160000X0.197500X-0.160000X-0.197500X0.160000X-0.197500X0.160000X0.197500X0*%
%ADD16RoundRect,0.155000X-0.155000X0.212500X-0.155000X-0.212500X0.155000X-0.212500X0.155000X0.212500X0*%
%ADD17RoundRect,0.150000X-0.150000X0.587500X-0.150000X-0.587500X0.150000X-0.587500X0.150000X0.587500X0*%
%ADD18RoundRect,0.155000X-0.212500X-0.155000X0.212500X-0.155000X0.212500X0.155000X-0.212500X0.155000X0*%
%ADD19RoundRect,0.155000X0.155000X-0.212500X0.155000X0.212500X-0.155000X0.212500X-0.155000X-0.212500X0*%
%ADD20RoundRect,0.108750X0.191250X-0.108750X0.191250X0.108750X-0.191250X0.108750X-0.191250X-0.108750X0*%
%ADD21RoundRect,0.042240X0.459760X0.309760X-0.459760X0.309760X-0.459760X-0.309760X0.459760X-0.309760X0*%
%ADD22RoundRect,0.250000X-0.250000X-0.475000X0.250000X-0.475000X0.250000X0.475000X-0.250000X0.475000X0*%
%ADD23RoundRect,0.200000X0.550000X-0.625000X0.550000X0.625000X-0.550000X0.625000X-0.550000X-0.625000X0*%
%ADD24RoundRect,0.250000X-0.475000X0.250000X-0.475000X-0.250000X0.475000X-0.250000X0.475000X0.250000X0*%
%ADD25RoundRect,0.250001X-0.462499X-0.624999X0.462499X-0.624999X0.462499X0.624999X-0.462499X0.624999X0*%
%ADD26R,1.900000X0.950000*%
%ADD27R,1.900000X3.250000*%
%ADD28C,1.400000*%
%ADD29RoundRect,0.100000X0.100000X-0.637500X0.100000X0.637500X-0.100000X0.637500X-0.100000X-0.637500X0*%
%ADD30C,0.990600*%
%ADD31C,0.787400*%
%ADD32RoundRect,0.250000X0.475000X-0.250000X0.475000X0.250000X-0.475000X0.250000X-0.475000X-0.250000X0*%
%ADD33C,1.000000*%
%ADD34RoundRect,0.250000X0.250000X0.475000X-0.250000X0.475000X-0.250000X-0.475000X0.250000X-0.475000X0*%
%ADD35RoundRect,0.160000X-0.252791X0.026517X0.026517X-0.252791X0.252791X-0.026517X-0.026517X0.252791X0*%
%ADD36RoundRect,0.160000X0.197500X0.160000X-0.197500X0.160000X-0.197500X-0.160000X0.197500X-0.160000X0*%
%ADD37RoundRect,0.237500X-0.237500X0.287500X-0.237500X-0.287500X0.237500X-0.287500X0.237500X0.287500X0*%
%ADD38RoundRect,0.200000X-0.550000X0.625000X-0.550000X-0.625000X0.550000X-0.625000X0.550000X0.625000X0*%
%ADD39RoundRect,0.160000X0.160000X-0.197500X0.160000X0.197500X-0.160000X0.197500X-0.160000X-0.197500X0*%
%ADD40R,1.400000X1.200000*%
%ADD41RoundRect,0.200000X-0.625000X-0.550000X0.625000X-0.550000X0.625000X0.550000X-0.625000X0.550000X0*%
%ADD42RoundRect,0.237500X0.237500X-0.287500X0.237500X0.287500X-0.237500X0.287500X-0.237500X-0.287500X0*%
%ADD43RoundRect,0.157500X-0.257500X0.157500X-0.257500X-0.157500X0.257500X-0.157500X0.257500X0.157500X0*%
%ADD44R,3.180000X1.270000*%
%ADD45RoundRect,0.100000X-0.100000X0.637500X-0.100000X-0.637500X0.100000X-0.637500X0.100000X0.637500X0*%
%ADD46C,0.650000*%
%ADD47RoundRect,0.150000X0.150000X0.421750X-0.150000X0.421750X-0.150000X-0.421750X0.150000X-0.421750X0*%
%ADD48RoundRect,0.150000X0.150000X0.425000X-0.150000X0.425000X-0.150000X-0.425000X0.150000X-0.425000X0*%
%ADD49RoundRect,0.075000X0.075000X0.500000X-0.075000X0.500000X-0.075000X-0.500000X0.075000X-0.500000X0*%
%ADD50RoundRect,0.250000X0.840000X0.750000X-0.840000X0.750000X-0.840000X-0.750000X0.840000X-0.750000X0*%
%ADD51R,1.600200X1.244600*%
G04 APERTURE END LIST*
D10*
%TO.C,J6*%
X78250000Y-28495000D03*
%TD*%
D11*
%TO.C,C15*%
X109089000Y-48228250D03*
X107954000Y-48228250D03*
%TD*%
D12*
%TO.C,R15*%
X86111750Y-35306000D03*
X87306750Y-35306000D03*
%TD*%
D13*
%TO.C,D1*%
X102171500Y-32947250D03*
D14*
X102171500Y-37347250D03*
%TD*%
D15*
%TO.C,R8*%
X99504500Y-42741250D03*
X99504500Y-43936250D03*
%TD*%
D16*
%TO.C,C27*%
X91503500Y-55534750D03*
X91503500Y-56669750D03*
%TD*%
D17*
%TO.C,Q3*%
X85309750Y-58022250D03*
X83409750Y-58022250D03*
X84359750Y-59897250D03*
%TD*%
D18*
%TO.C,C6*%
X107890500Y-35210750D03*
X109025500Y-35210750D03*
%TD*%
D19*
%TO.C,C11*%
X110077250Y-51081750D03*
X110077250Y-49946750D03*
%TD*%
D20*
%TO.C,F2*%
X107124500Y-57490500D03*
X107124500Y-56555500D03*
%TD*%
D21*
%TO.C,D3*%
X94159250Y-33718500D03*
X91959250Y-33718500D03*
%TD*%
D10*
%TO.C,J8*%
X78250000Y-88495000D03*
%TD*%
D22*
%TO.C,C18*%
X84425750Y-48387000D03*
X86325750Y-48387000D03*
%TD*%
D16*
%TO.C,C10*%
X110077250Y-52328000D03*
X110077250Y-53463000D03*
%TD*%
D23*
%TO.C,SW2*%
X106140250Y-33160000D03*
X106140250Y-25260000D03*
%TD*%
D15*
%TO.C,R12*%
X90328750Y-42360250D03*
X90328750Y-43555250D03*
%TD*%
D18*
%TO.C,C28*%
X93317250Y-53467000D03*
X94452250Y-53467000D03*
%TD*%
D24*
%TO.C,C31*%
X101060250Y-59152750D03*
X101060250Y-61052750D03*
%TD*%
D11*
%TO.C,C13*%
X109089000Y-52800250D03*
X107954000Y-52800250D03*
%TD*%
D16*
%TO.C,C33*%
X99599750Y-53185250D03*
X99599750Y-54320250D03*
%TD*%
D25*
%TO.C,F1*%
X96524750Y-34321750D03*
X99499750Y-34321750D03*
%TD*%
D11*
%TO.C,C24*%
X89150000Y-41338500D03*
X88015000Y-41338500D03*
%TD*%
D23*
%TO.C,SW3*%
X84359750Y-33160000D03*
X84359750Y-25260000D03*
%TD*%
D26*
%TO.C,U1*%
X108364750Y-51671250D03*
X108364750Y-49371250D03*
D27*
X102264750Y-49371250D03*
D26*
X108364750Y-47071250D03*
%TD*%
D28*
%TO.C,SW5*%
X104394000Y-55158000D03*
X104394000Y-57658000D03*
X104394000Y-60158000D03*
%TD*%
D11*
%TO.C,C42*%
X91404250Y-53625750D03*
X90269250Y-53625750D03*
%TD*%
D18*
%TO.C,C8*%
X109033500Y-37052250D03*
X110168500Y-37052250D03*
%TD*%
D29*
%TO.C,U2*%
X92579000Y-44582000D03*
X93229000Y-44582000D03*
X93879000Y-44582000D03*
X94529000Y-44582000D03*
X95179000Y-44582000D03*
X95829000Y-44582000D03*
X96479000Y-44582000D03*
X97129000Y-44582000D03*
X97779000Y-44582000D03*
X98429000Y-44582000D03*
X98429000Y-38857000D03*
X97779000Y-38857000D03*
X97129000Y-38857000D03*
X96479000Y-38857000D03*
X95829000Y-38857000D03*
X95179000Y-38857000D03*
X94529000Y-38857000D03*
X93879000Y-38857000D03*
X93229000Y-38857000D03*
X92579000Y-38857000D03*
%TD*%
D19*
%TO.C,C26*%
X90011250Y-56669750D03*
X90011250Y-55534750D03*
%TD*%
D10*
%TO.C,J7*%
X112250000Y-88495000D03*
%TD*%
D11*
%TO.C,C12*%
X109089000Y-53721000D03*
X107954000Y-53721000D03*
%TD*%
%TO.C,C41*%
X91404250Y-54546500D03*
X90269250Y-54546500D03*
%TD*%
D13*
%TO.C,D2*%
X102425500Y-39837000D03*
D14*
X102425500Y-44237000D03*
%TD*%
D19*
%TO.C,C17*%
X108997750Y-45906500D03*
X108997750Y-44771500D03*
%TD*%
D30*
%TO.C,J2*%
X106203750Y-36639500D03*
X107219750Y-44259500D03*
X105187750Y-44259500D03*
D31*
X105568750Y-37909500D03*
X105568750Y-39179500D03*
X105568750Y-40449500D03*
X105568750Y-41719500D03*
X105568750Y-42989500D03*
X106838750Y-42989500D03*
X106838750Y-41719500D03*
X106838750Y-40449500D03*
X106838750Y-39179500D03*
X106838750Y-37909500D03*
%TD*%
D18*
%TO.C,C29*%
X98238500Y-84709000D03*
X99373500Y-84709000D03*
%TD*%
D15*
%TO.C,R5*%
X95504000Y-47027500D03*
X95504000Y-48222500D03*
%TD*%
D32*
%TO.C,C37*%
X82708750Y-56068000D03*
X82708750Y-54168000D03*
%TD*%
D18*
%TO.C,C5*%
X105445750Y-34544000D03*
X106580750Y-34544000D03*
%TD*%
D33*
%TO.C,TP5*%
X90297000Y-49720500D03*
%TD*%
D34*
%TO.C,C38*%
X83182500Y-60928250D03*
X81282500Y-60928250D03*
%TD*%
D33*
%TO.C,TP6*%
X92297250Y-49720500D03*
%TD*%
D18*
%TO.C,C20*%
X96206500Y-37179250D03*
X97341500Y-37179250D03*
%TD*%
D15*
%TO.C,R7*%
X93599000Y-47027500D03*
X93599000Y-48222500D03*
%TD*%
D35*
%TO.C,R22*%
X94668754Y-77841254D03*
X95513746Y-78686246D03*
%TD*%
D24*
%TO.C,C32*%
X107664250Y-58549500D03*
X107664250Y-60449500D03*
%TD*%
D18*
%TO.C,C9*%
X109033500Y-37973000D03*
X110168500Y-37973000D03*
%TD*%
D36*
%TO.C,R13*%
X87529000Y-33401000D03*
X86334000Y-33401000D03*
%TD*%
%TO.C,R14*%
X87306750Y-34353500D03*
X86111750Y-34353500D03*
%TD*%
D33*
%TO.C,TP1*%
X100393500Y-51720750D03*
%TD*%
D37*
%TO.C,LED3*%
X87693500Y-26747500D03*
X87693500Y-28497500D03*
%TD*%
%TO.C,LED1*%
X102806500Y-26747500D03*
X102806500Y-28497500D03*
%TD*%
D11*
%TO.C,C36*%
X85371750Y-52705000D03*
X84236750Y-52705000D03*
%TD*%
D17*
%TO.C,Q1*%
X89119750Y-42655250D03*
X87219750Y-42655250D03*
X88169750Y-44530250D03*
%TD*%
D38*
%TO.C,SW1*%
X84359750Y-35864500D03*
X84359750Y-43764500D03*
%TD*%
D22*
%TO.C,C40*%
X95030250Y-83820000D03*
X96930250Y-83820000D03*
%TD*%
D39*
%TO.C,R4*%
X92646500Y-48222500D03*
X92646500Y-47027500D03*
%TD*%
D12*
%TO.C,R18*%
X89953500Y-35877500D03*
X91148500Y-35877500D03*
%TD*%
D11*
%TO.C,C21*%
X99532250Y-37179250D03*
X98397250Y-37179250D03*
%TD*%
D19*
%TO.C,C34*%
X99599750Y-60956000D03*
X99599750Y-59821000D03*
%TD*%
D10*
%TO.C,J5*%
X112250000Y-28495000D03*
%TD*%
D39*
%TO.C,R6*%
X94551500Y-48222500D03*
X94551500Y-47027500D03*
%TD*%
D33*
%TO.C,TP4*%
X96297750Y-49720500D03*
%TD*%
D32*
%TO.C,C30*%
X101060250Y-55972750D03*
X101060250Y-54072750D03*
%TD*%
D39*
%TO.C,R3*%
X102425500Y-31014000D03*
X102425500Y-29819000D03*
%TD*%
D15*
%TO.C,R25*%
X87471250Y-58806750D03*
X87471250Y-60001750D03*
%TD*%
D36*
%TO.C,R2*%
X87148000Y-25400000D03*
X85953000Y-25400000D03*
%TD*%
D40*
%TO.C,XTAL1*%
X90635000Y-38266000D03*
X88435000Y-38266000D03*
X88435000Y-39966000D03*
X90635000Y-39966000D03*
%TD*%
D18*
%TO.C,C7*%
X108557250Y-36131500D03*
X109692250Y-36131500D03*
%TD*%
D36*
%TO.C,R17*%
X91148500Y-34925000D03*
X89953500Y-34925000D03*
%TD*%
D22*
%TO.C,C35*%
X86648250Y-51720750D03*
X88548250Y-51720750D03*
%TD*%
D39*
%TO.C,R24*%
X86518750Y-60001750D03*
X86518750Y-58806750D03*
%TD*%
D41*
%TO.C,SW4*%
X99269250Y-83439000D03*
X107169250Y-83439000D03*
%TD*%
D42*
%TO.C,LED4*%
X88773000Y-59676000D03*
X88773000Y-57926000D03*
%TD*%
D17*
%TO.C,Q2*%
X89119750Y-45385750D03*
X87219750Y-45385750D03*
X88169750Y-47260750D03*
%TD*%
D22*
%TO.C,C39*%
X91601250Y-83820000D03*
X93501250Y-83820000D03*
%TD*%
D12*
%TO.C,R1*%
X103352000Y-25400000D03*
X104547000Y-25400000D03*
%TD*%
D43*
%TO.C,D5*%
X109283500Y-39683750D03*
X109283500Y-41913750D03*
%TD*%
D11*
%TO.C,C14*%
X109089000Y-50514250D03*
X107954000Y-50514250D03*
%TD*%
D15*
%TO.C,R11*%
X90328750Y-44582750D03*
X90328750Y-45777750D03*
%TD*%
D39*
%TO.C,R10*%
X99504500Y-41555000D03*
X99504500Y-40360000D03*
%TD*%
D18*
%TO.C,C2*%
X91253500Y-32448500D03*
X92388500Y-32448500D03*
%TD*%
%TO.C,C19*%
X92745750Y-37179250D03*
X93880750Y-37179250D03*
%TD*%
D44*
%TO.C,J4*%
X100394000Y-64262000D03*
X105854000Y-64262000D03*
X100394000Y-66802000D03*
X105854000Y-66802000D03*
X100394000Y-69342000D03*
X105854000Y-69342000D03*
X100394000Y-71882000D03*
X105854000Y-71882000D03*
X100394000Y-74422000D03*
X105854000Y-74422000D03*
X100394000Y-76962000D03*
X105854000Y-76962000D03*
X100394000Y-79502000D03*
X105854000Y-79502000D03*
%TD*%
D33*
%TO.C,TP2*%
X100425250Y-49720500D03*
%TD*%
D45*
%TO.C,U3*%
X98429000Y-54922500D03*
X97779000Y-54922500D03*
X97129000Y-54922500D03*
X96479000Y-54922500D03*
X95829000Y-54922500D03*
X95179000Y-54922500D03*
X94529000Y-54922500D03*
X93879000Y-54922500D03*
X93229000Y-54922500D03*
X92579000Y-54922500D03*
X92579000Y-60647500D03*
X93229000Y-60647500D03*
X93879000Y-60647500D03*
X94529000Y-60647500D03*
X95179000Y-60647500D03*
X95829000Y-60647500D03*
X96479000Y-60647500D03*
X97129000Y-60647500D03*
X97779000Y-60647500D03*
X98429000Y-60647500D03*
%TD*%
D11*
%TO.C,C1*%
X97341500Y-32734250D03*
X96206500Y-32734250D03*
%TD*%
D21*
%TO.C,D4*%
X94381500Y-35242500D03*
X92181500Y-35242500D03*
%TD*%
D46*
%TO.C,J1*%
X98140000Y-29783000D03*
X92360000Y-29783000D03*
D47*
X98450000Y-30861250D03*
D48*
X97650000Y-30858000D03*
D49*
X96500000Y-30858000D03*
X95500000Y-30858000D03*
X95000000Y-30858000D03*
X94000000Y-30858000D03*
D48*
X92850000Y-30858000D03*
D47*
X92050000Y-30861250D03*
X92050000Y-30861250D03*
D48*
X92850000Y-30858000D03*
D49*
X93500000Y-30858000D03*
X94500000Y-30858000D03*
X96000000Y-30858000D03*
X97000000Y-30858000D03*
D48*
X97650000Y-30858000D03*
D47*
X98450000Y-30861250D03*
D50*
X100360000Y-30283000D03*
X100360000Y-26353000D03*
X90140000Y-30283000D03*
X90140000Y-26353000D03*
%TD*%
D11*
%TO.C,C3*%
X100167250Y-32734250D03*
X99032250Y-32734250D03*
%TD*%
D33*
%TO.C,TP3*%
X100425250Y-47720250D03*
%TD*%
D16*
%TO.C,C4*%
X104267000Y-33246250D03*
X104267000Y-34381250D03*
%TD*%
D18*
%TO.C,C25*%
X90237500Y-41338500D03*
X91372500Y-41338500D03*
%TD*%
D12*
%TO.C,R23*%
X98176750Y-82169000D03*
X99371750Y-82169000D03*
%TD*%
D16*
%TO.C,C16*%
X110077250Y-47629000D03*
X110077250Y-48764000D03*
%TD*%
D12*
%TO.C,R19*%
X89953500Y-36830000D03*
X91148500Y-36830000D03*
%TD*%
D39*
%TO.C,R9*%
X100457000Y-43936250D03*
X100457000Y-42741250D03*
%TD*%
D33*
%TO.C,TP7*%
X94297500Y-49720500D03*
%TD*%
D16*
%TO.C,C22*%
X82518250Y-34865500D03*
X82518250Y-36000500D03*
%TD*%
D15*
%TO.C,R16*%
X103409750Y-29819000D03*
X103409750Y-31014000D03*
%TD*%
D16*
%TO.C,C23*%
X107759500Y-33087500D03*
X107759500Y-34222500D03*
%TD*%
D51*
%TO.C,XTAL2*%
X88463999Y-54049750D03*
X84764001Y-54049750D03*
X84764001Y-56249750D03*
X88463999Y-56249750D03*
%TD*%
D37*
%TO.C,LED2*%
X87693500Y-30176500D03*
X87693500Y-31926500D03*
%TD*%
D44*
%TO.C,J3*%
X84646000Y-64262000D03*
X90106000Y-64262000D03*
X84646000Y-66802000D03*
X90106000Y-66802000D03*
X84646000Y-69342000D03*
X90106000Y-69342000D03*
X84646000Y-71882000D03*
X90106000Y-71882000D03*
X84646000Y-74422000D03*
X90106000Y-74422000D03*
X84646000Y-76962000D03*
X90106000Y-76962000D03*
X84646000Y-79502000D03*
X90106000Y-79502000D03*
%TD*%
M02*
