%TF.GenerationSoftware,KiCad,Pcbnew,7.0.10*%
%TF.CreationDate,2024-01-15T20:08:33+01:00*%
%TF.ProjectId,tiny-scarab,74696e79-2d73-4636-9172-61622e6b6963,0.1*%
%TF.SameCoordinates,Original*%
%TF.FileFunction,Drillmap*%
%TF.FilePolarity,Positive*%
%FSLAX45Y45*%
G04 Gerber Fmt 4.5, Leading zero omitted, Abs format (unit mm)*
G04 Created by KiCad (PCBNEW 7.0.10) date 2024-01-15 20:08:33*
%MOMM*%
%LPD*%
G01*
G04 APERTURE LIST*
%ADD10C,0.100000*%
%ADD11C,0.200000*%
G04 APERTURE END LIST*
D10*
X7803366Y-7810128D02*
X7803366Y-3888872D01*
X11625000Y-2984500D02*
G75*
G03*
X10990000Y-2349500I-635000J0D01*
G01*
X7425000Y-2984500D02*
G75*
G03*
X7614183Y-3436686I635000J0D01*
G01*
X11625000Y-8714500D02*
G75*
G03*
X11435817Y-8262314I-635000J0D01*
G01*
X11246634Y-7810128D02*
G75*
G03*
X11435817Y-8262314I634996J-2D01*
G01*
X11246634Y-3888872D02*
X11246634Y-7810128D01*
X11435817Y-3436686D02*
G75*
G03*
X11246634Y-3888872I445813J-452184D01*
G01*
X8060000Y-2349500D02*
G75*
G03*
X7425000Y-2984500I0J-635000D01*
G01*
X7614183Y-8262314D02*
G75*
G03*
X7803366Y-7810128I-445813J452184D01*
G01*
X7803366Y-3888872D02*
G75*
G03*
X7614183Y-3436686I-634996J2D01*
G01*
X10990000Y-9349500D02*
G75*
G03*
X11625000Y-8714500I0J635000D01*
G01*
X11435817Y-3436686D02*
G75*
G03*
X11625000Y-2984500I-445817J452186D01*
G01*
X7614183Y-8262314D02*
G75*
G03*
X7425000Y-8714500I445817J-452186D01*
G01*
X8060000Y-2349500D02*
X10990000Y-2349500D01*
X7425000Y-8714500D02*
G75*
G03*
X8060000Y-9349500I635000J0D01*
G01*
X10990000Y-9349500D02*
X8060000Y-9349500D01*
D11*
D10*
X9203500Y-2945800D02*
X9268500Y-3010800D01*
X9268500Y-2945800D02*
X9203500Y-3010800D01*
X9781500Y-2945800D02*
X9846500Y-3010800D01*
X9846500Y-2945800D02*
X9781500Y-3010800D01*
X10568305Y-4425950D02*
G75*
G03*
X10469245Y-4425950I-49530J0D01*
G01*
X10469245Y-4425950D02*
G75*
G03*
X10568305Y-4425950I49530J0D01*
G01*
X10669905Y-3663950D02*
G75*
G03*
X10570845Y-3663950I-49530J0D01*
G01*
X10570845Y-3663950D02*
G75*
G03*
X10669905Y-3663950I49530J0D01*
G01*
X10771505Y-4425950D02*
G75*
G03*
X10672445Y-4425950I-49530J0D01*
G01*
X10672445Y-4425950D02*
G75*
G03*
X10771505Y-4425950I49530J0D01*
G01*
D11*
X7680777Y-9665984D02*
X7680777Y-9465984D01*
X7680777Y-9465984D02*
X7728396Y-9465984D01*
X7728396Y-9465984D02*
X7756967Y-9475508D01*
X7756967Y-9475508D02*
X7776015Y-9494555D01*
X7776015Y-9494555D02*
X7785539Y-9513603D01*
X7785539Y-9513603D02*
X7795062Y-9551698D01*
X7795062Y-9551698D02*
X7795062Y-9580270D01*
X7795062Y-9580270D02*
X7785539Y-9618365D01*
X7785539Y-9618365D02*
X7776015Y-9637412D01*
X7776015Y-9637412D02*
X7756967Y-9656460D01*
X7756967Y-9656460D02*
X7728396Y-9665984D01*
X7728396Y-9665984D02*
X7680777Y-9665984D01*
X7880777Y-9665984D02*
X7880777Y-9532650D01*
X7880777Y-9570746D02*
X7890301Y-9551698D01*
X7890301Y-9551698D02*
X7899824Y-9542174D01*
X7899824Y-9542174D02*
X7918872Y-9532650D01*
X7918872Y-9532650D02*
X7937920Y-9532650D01*
X8004586Y-9665984D02*
X8004586Y-9532650D01*
X8004586Y-9465984D02*
X7995062Y-9475508D01*
X7995062Y-9475508D02*
X8004586Y-9485031D01*
X8004586Y-9485031D02*
X8014110Y-9475508D01*
X8014110Y-9475508D02*
X8004586Y-9465984D01*
X8004586Y-9465984D02*
X8004586Y-9485031D01*
X8128396Y-9665984D02*
X8109348Y-9656460D01*
X8109348Y-9656460D02*
X8099824Y-9637412D01*
X8099824Y-9637412D02*
X8099824Y-9465984D01*
X8233158Y-9665984D02*
X8214110Y-9656460D01*
X8214110Y-9656460D02*
X8204586Y-9637412D01*
X8204586Y-9637412D02*
X8204586Y-9465984D01*
X8461729Y-9665984D02*
X8461729Y-9465984D01*
X8461729Y-9465984D02*
X8528396Y-9608841D01*
X8528396Y-9608841D02*
X8595063Y-9465984D01*
X8595063Y-9465984D02*
X8595063Y-9665984D01*
X8776015Y-9665984D02*
X8776015Y-9561222D01*
X8776015Y-9561222D02*
X8766491Y-9542174D01*
X8766491Y-9542174D02*
X8747444Y-9532650D01*
X8747444Y-9532650D02*
X8709348Y-9532650D01*
X8709348Y-9532650D02*
X8690301Y-9542174D01*
X8776015Y-9656460D02*
X8756967Y-9665984D01*
X8756967Y-9665984D02*
X8709348Y-9665984D01*
X8709348Y-9665984D02*
X8690301Y-9656460D01*
X8690301Y-9656460D02*
X8680777Y-9637412D01*
X8680777Y-9637412D02*
X8680777Y-9618365D01*
X8680777Y-9618365D02*
X8690301Y-9599317D01*
X8690301Y-9599317D02*
X8709348Y-9589793D01*
X8709348Y-9589793D02*
X8756967Y-9589793D01*
X8756967Y-9589793D02*
X8776015Y-9580270D01*
X8871253Y-9532650D02*
X8871253Y-9732650D01*
X8871253Y-9542174D02*
X8890301Y-9532650D01*
X8890301Y-9532650D02*
X8928396Y-9532650D01*
X8928396Y-9532650D02*
X8947444Y-9542174D01*
X8947444Y-9542174D02*
X8956967Y-9551698D01*
X8956967Y-9551698D02*
X8966491Y-9570746D01*
X8966491Y-9570746D02*
X8966491Y-9627889D01*
X8966491Y-9627889D02*
X8956967Y-9646936D01*
X8956967Y-9646936D02*
X8947444Y-9656460D01*
X8947444Y-9656460D02*
X8928396Y-9665984D01*
X8928396Y-9665984D02*
X8890301Y-9665984D01*
X8890301Y-9665984D02*
X8871253Y-9656460D01*
X9052205Y-9646936D02*
X9061729Y-9656460D01*
X9061729Y-9656460D02*
X9052205Y-9665984D01*
X9052205Y-9665984D02*
X9042682Y-9656460D01*
X9042682Y-9656460D02*
X9052205Y-9646936D01*
X9052205Y-9646936D02*
X9052205Y-9665984D01*
X9052205Y-9542174D02*
X9061729Y-9551698D01*
X9061729Y-9551698D02*
X9052205Y-9561222D01*
X9052205Y-9561222D02*
X9042682Y-9551698D01*
X9042682Y-9551698D02*
X9052205Y-9542174D01*
X9052205Y-9542174D02*
X9052205Y-9561222D01*
D10*
X7355000Y-9962000D02*
X7420000Y-10027000D01*
X7420000Y-9962000D02*
X7355000Y-10027000D01*
D11*
X7718872Y-9885984D02*
X7737920Y-9885984D01*
X7737920Y-9885984D02*
X7756967Y-9895508D01*
X7756967Y-9895508D02*
X7766491Y-9905031D01*
X7766491Y-9905031D02*
X7776015Y-9924079D01*
X7776015Y-9924079D02*
X7785539Y-9962174D01*
X7785539Y-9962174D02*
X7785539Y-10009793D01*
X7785539Y-10009793D02*
X7776015Y-10047889D01*
X7776015Y-10047889D02*
X7766491Y-10066936D01*
X7766491Y-10066936D02*
X7756967Y-10076460D01*
X7756967Y-10076460D02*
X7737920Y-10085984D01*
X7737920Y-10085984D02*
X7718872Y-10085984D01*
X7718872Y-10085984D02*
X7699824Y-10076460D01*
X7699824Y-10076460D02*
X7690301Y-10066936D01*
X7690301Y-10066936D02*
X7680777Y-10047889D01*
X7680777Y-10047889D02*
X7671253Y-10009793D01*
X7671253Y-10009793D02*
X7671253Y-9962174D01*
X7671253Y-9962174D02*
X7680777Y-9924079D01*
X7680777Y-9924079D02*
X7690301Y-9905031D01*
X7690301Y-9905031D02*
X7699824Y-9895508D01*
X7699824Y-9895508D02*
X7718872Y-9885984D01*
X7871253Y-10066936D02*
X7880777Y-10076460D01*
X7880777Y-10076460D02*
X7871253Y-10085984D01*
X7871253Y-10085984D02*
X7861729Y-10076460D01*
X7861729Y-10076460D02*
X7871253Y-10066936D01*
X7871253Y-10066936D02*
X7871253Y-10085984D01*
X8052205Y-9885984D02*
X8014110Y-9885984D01*
X8014110Y-9885984D02*
X7995062Y-9895508D01*
X7995062Y-9895508D02*
X7985539Y-9905031D01*
X7985539Y-9905031D02*
X7966491Y-9933603D01*
X7966491Y-9933603D02*
X7956967Y-9971698D01*
X7956967Y-9971698D02*
X7956967Y-10047889D01*
X7956967Y-10047889D02*
X7966491Y-10066936D01*
X7966491Y-10066936D02*
X7976015Y-10076460D01*
X7976015Y-10076460D02*
X7995062Y-10085984D01*
X7995062Y-10085984D02*
X8033158Y-10085984D01*
X8033158Y-10085984D02*
X8052205Y-10076460D01*
X8052205Y-10076460D02*
X8061729Y-10066936D01*
X8061729Y-10066936D02*
X8071253Y-10047889D01*
X8071253Y-10047889D02*
X8071253Y-10000270D01*
X8071253Y-10000270D02*
X8061729Y-9981222D01*
X8061729Y-9981222D02*
X8052205Y-9971698D01*
X8052205Y-9971698D02*
X8033158Y-9962174D01*
X8033158Y-9962174D02*
X7995062Y-9962174D01*
X7995062Y-9962174D02*
X7976015Y-9971698D01*
X7976015Y-9971698D02*
X7966491Y-9981222D01*
X7966491Y-9981222D02*
X7956967Y-10000270D01*
X8252205Y-9885984D02*
X8156967Y-9885984D01*
X8156967Y-9885984D02*
X8147443Y-9981222D01*
X8147443Y-9981222D02*
X8156967Y-9971698D01*
X8156967Y-9971698D02*
X8176015Y-9962174D01*
X8176015Y-9962174D02*
X8223634Y-9962174D01*
X8223634Y-9962174D02*
X8242682Y-9971698D01*
X8242682Y-9971698D02*
X8252205Y-9981222D01*
X8252205Y-9981222D02*
X8261729Y-10000270D01*
X8261729Y-10000270D02*
X8261729Y-10047889D01*
X8261729Y-10047889D02*
X8252205Y-10066936D01*
X8252205Y-10066936D02*
X8242682Y-10076460D01*
X8242682Y-10076460D02*
X8223634Y-10085984D01*
X8223634Y-10085984D02*
X8176015Y-10085984D01*
X8176015Y-10085984D02*
X8156967Y-10076460D01*
X8156967Y-10076460D02*
X8147443Y-10066936D01*
X8385539Y-9885984D02*
X8404586Y-9885984D01*
X8404586Y-9885984D02*
X8423634Y-9895508D01*
X8423634Y-9895508D02*
X8433158Y-9905031D01*
X8433158Y-9905031D02*
X8442682Y-9924079D01*
X8442682Y-9924079D02*
X8452205Y-9962174D01*
X8452205Y-9962174D02*
X8452205Y-10009793D01*
X8452205Y-10009793D02*
X8442682Y-10047889D01*
X8442682Y-10047889D02*
X8433158Y-10066936D01*
X8433158Y-10066936D02*
X8423634Y-10076460D01*
X8423634Y-10076460D02*
X8404586Y-10085984D01*
X8404586Y-10085984D02*
X8385539Y-10085984D01*
X8385539Y-10085984D02*
X8366491Y-10076460D01*
X8366491Y-10076460D02*
X8356967Y-10066936D01*
X8356967Y-10066936D02*
X8347443Y-10047889D01*
X8347443Y-10047889D02*
X8337920Y-10009793D01*
X8337920Y-10009793D02*
X8337920Y-9962174D01*
X8337920Y-9962174D02*
X8347443Y-9924079D01*
X8347443Y-9924079D02*
X8356967Y-9905031D01*
X8356967Y-9905031D02*
X8366491Y-9895508D01*
X8366491Y-9895508D02*
X8385539Y-9885984D01*
X8537920Y-10085984D02*
X8537920Y-9952650D01*
X8537920Y-9971698D02*
X8547444Y-9962174D01*
X8547444Y-9962174D02*
X8566491Y-9952650D01*
X8566491Y-9952650D02*
X8595063Y-9952650D01*
X8595063Y-9952650D02*
X8614110Y-9962174D01*
X8614110Y-9962174D02*
X8623634Y-9981222D01*
X8623634Y-9981222D02*
X8623634Y-10085984D01*
X8623634Y-9981222D02*
X8633158Y-9962174D01*
X8633158Y-9962174D02*
X8652205Y-9952650D01*
X8652205Y-9952650D02*
X8680777Y-9952650D01*
X8680777Y-9952650D02*
X8699825Y-9962174D01*
X8699825Y-9962174D02*
X8709348Y-9981222D01*
X8709348Y-9981222D02*
X8709348Y-10085984D01*
X8804586Y-10085984D02*
X8804586Y-9952650D01*
X8804586Y-9971698D02*
X8814110Y-9962174D01*
X8814110Y-9962174D02*
X8833158Y-9952650D01*
X8833158Y-9952650D02*
X8861729Y-9952650D01*
X8861729Y-9952650D02*
X8880777Y-9962174D01*
X8880777Y-9962174D02*
X8890301Y-9981222D01*
X8890301Y-9981222D02*
X8890301Y-10085984D01*
X8890301Y-9981222D02*
X8899825Y-9962174D01*
X8899825Y-9962174D02*
X8918872Y-9952650D01*
X8918872Y-9952650D02*
X8947444Y-9952650D01*
X8947444Y-9952650D02*
X8966491Y-9962174D01*
X8966491Y-9962174D02*
X8976015Y-9981222D01*
X8976015Y-9981222D02*
X8976015Y-10085984D01*
X9366491Y-9876460D02*
X9195063Y-10133603D01*
X9623634Y-9885984D02*
X9642682Y-9885984D01*
X9642682Y-9885984D02*
X9661729Y-9895508D01*
X9661729Y-9895508D02*
X9671253Y-9905031D01*
X9671253Y-9905031D02*
X9680777Y-9924079D01*
X9680777Y-9924079D02*
X9690301Y-9962174D01*
X9690301Y-9962174D02*
X9690301Y-10009793D01*
X9690301Y-10009793D02*
X9680777Y-10047889D01*
X9680777Y-10047889D02*
X9671253Y-10066936D01*
X9671253Y-10066936D02*
X9661729Y-10076460D01*
X9661729Y-10076460D02*
X9642682Y-10085984D01*
X9642682Y-10085984D02*
X9623634Y-10085984D01*
X9623634Y-10085984D02*
X9604587Y-10076460D01*
X9604587Y-10076460D02*
X9595063Y-10066936D01*
X9595063Y-10066936D02*
X9585539Y-10047889D01*
X9585539Y-10047889D02*
X9576015Y-10009793D01*
X9576015Y-10009793D02*
X9576015Y-9962174D01*
X9576015Y-9962174D02*
X9585539Y-9924079D01*
X9585539Y-9924079D02*
X9595063Y-9905031D01*
X9595063Y-9905031D02*
X9604587Y-9895508D01*
X9604587Y-9895508D02*
X9623634Y-9885984D01*
X9776015Y-10066936D02*
X9785539Y-10076460D01*
X9785539Y-10076460D02*
X9776015Y-10085984D01*
X9776015Y-10085984D02*
X9766491Y-10076460D01*
X9766491Y-10076460D02*
X9776015Y-10066936D01*
X9776015Y-10066936D02*
X9776015Y-10085984D01*
X9909348Y-9885984D02*
X9928396Y-9885984D01*
X9928396Y-9885984D02*
X9947444Y-9895508D01*
X9947444Y-9895508D02*
X9956968Y-9905031D01*
X9956968Y-9905031D02*
X9966491Y-9924079D01*
X9966491Y-9924079D02*
X9976015Y-9962174D01*
X9976015Y-9962174D02*
X9976015Y-10009793D01*
X9976015Y-10009793D02*
X9966491Y-10047889D01*
X9966491Y-10047889D02*
X9956968Y-10066936D01*
X9956968Y-10066936D02*
X9947444Y-10076460D01*
X9947444Y-10076460D02*
X9928396Y-10085984D01*
X9928396Y-10085984D02*
X9909348Y-10085984D01*
X9909348Y-10085984D02*
X9890301Y-10076460D01*
X9890301Y-10076460D02*
X9880777Y-10066936D01*
X9880777Y-10066936D02*
X9871253Y-10047889D01*
X9871253Y-10047889D02*
X9861729Y-10009793D01*
X9861729Y-10009793D02*
X9861729Y-9962174D01*
X9861729Y-9962174D02*
X9871253Y-9924079D01*
X9871253Y-9924079D02*
X9880777Y-9905031D01*
X9880777Y-9905031D02*
X9890301Y-9895508D01*
X9890301Y-9895508D02*
X9909348Y-9885984D01*
X10052206Y-9905031D02*
X10061729Y-9895508D01*
X10061729Y-9895508D02*
X10080777Y-9885984D01*
X10080777Y-9885984D02*
X10128396Y-9885984D01*
X10128396Y-9885984D02*
X10147444Y-9895508D01*
X10147444Y-9895508D02*
X10156968Y-9905031D01*
X10156968Y-9905031D02*
X10166491Y-9924079D01*
X10166491Y-9924079D02*
X10166491Y-9943127D01*
X10166491Y-9943127D02*
X10156968Y-9971698D01*
X10156968Y-9971698D02*
X10042682Y-10085984D01*
X10042682Y-10085984D02*
X10166491Y-10085984D01*
X10347444Y-9885984D02*
X10252206Y-9885984D01*
X10252206Y-9885984D02*
X10242682Y-9981222D01*
X10242682Y-9981222D02*
X10252206Y-9971698D01*
X10252206Y-9971698D02*
X10271253Y-9962174D01*
X10271253Y-9962174D02*
X10318872Y-9962174D01*
X10318872Y-9962174D02*
X10337920Y-9971698D01*
X10337920Y-9971698D02*
X10347444Y-9981222D01*
X10347444Y-9981222D02*
X10356968Y-10000270D01*
X10356968Y-10000270D02*
X10356968Y-10047889D01*
X10356968Y-10047889D02*
X10347444Y-10066936D01*
X10347444Y-10066936D02*
X10337920Y-10076460D01*
X10337920Y-10076460D02*
X10318872Y-10085984D01*
X10318872Y-10085984D02*
X10271253Y-10085984D01*
X10271253Y-10085984D02*
X10252206Y-10076460D01*
X10252206Y-10076460D02*
X10242682Y-10066936D01*
X10528396Y-9885984D02*
X10490301Y-9885984D01*
X10490301Y-9885984D02*
X10471253Y-9895508D01*
X10471253Y-9895508D02*
X10461729Y-9905031D01*
X10461729Y-9905031D02*
X10442682Y-9933603D01*
X10442682Y-9933603D02*
X10433158Y-9971698D01*
X10433158Y-9971698D02*
X10433158Y-10047889D01*
X10433158Y-10047889D02*
X10442682Y-10066936D01*
X10442682Y-10066936D02*
X10452206Y-10076460D01*
X10452206Y-10076460D02*
X10471253Y-10085984D01*
X10471253Y-10085984D02*
X10509349Y-10085984D01*
X10509349Y-10085984D02*
X10528396Y-10076460D01*
X10528396Y-10076460D02*
X10537920Y-10066936D01*
X10537920Y-10066936D02*
X10547444Y-10047889D01*
X10547444Y-10047889D02*
X10547444Y-10000270D01*
X10547444Y-10000270D02*
X10537920Y-9981222D01*
X10537920Y-9981222D02*
X10528396Y-9971698D01*
X10528396Y-9971698D02*
X10509349Y-9962174D01*
X10509349Y-9962174D02*
X10471253Y-9962174D01*
X10471253Y-9962174D02*
X10452206Y-9971698D01*
X10452206Y-9971698D02*
X10442682Y-9981222D01*
X10442682Y-9981222D02*
X10433158Y-10000270D01*
X10623634Y-9885984D02*
X10623634Y-9924079D01*
X10699825Y-9885984D02*
X10699825Y-9924079D01*
X10995063Y-10162174D02*
X10985539Y-10152650D01*
X10985539Y-10152650D02*
X10966491Y-10124079D01*
X10966491Y-10124079D02*
X10956968Y-10105031D01*
X10956968Y-10105031D02*
X10947444Y-10076460D01*
X10947444Y-10076460D02*
X10937920Y-10028841D01*
X10937920Y-10028841D02*
X10937920Y-9990746D01*
X10937920Y-9990746D02*
X10947444Y-9943127D01*
X10947444Y-9943127D02*
X10956968Y-9914555D01*
X10956968Y-9914555D02*
X10966491Y-9895508D01*
X10966491Y-9895508D02*
X10985539Y-9866936D01*
X10985539Y-9866936D02*
X10995063Y-9857412D01*
X11061730Y-9905031D02*
X11071253Y-9895508D01*
X11071253Y-9895508D02*
X11090301Y-9885984D01*
X11090301Y-9885984D02*
X11137920Y-9885984D01*
X11137920Y-9885984D02*
X11156968Y-9895508D01*
X11156968Y-9895508D02*
X11166491Y-9905031D01*
X11166491Y-9905031D02*
X11176015Y-9924079D01*
X11176015Y-9924079D02*
X11176015Y-9943127D01*
X11176015Y-9943127D02*
X11166491Y-9971698D01*
X11166491Y-9971698D02*
X11052206Y-10085984D01*
X11052206Y-10085984D02*
X11176015Y-10085984D01*
X11414110Y-10085984D02*
X11414110Y-9885984D01*
X11499825Y-10085984D02*
X11499825Y-9981222D01*
X11499825Y-9981222D02*
X11490301Y-9962174D01*
X11490301Y-9962174D02*
X11471253Y-9952650D01*
X11471253Y-9952650D02*
X11442682Y-9952650D01*
X11442682Y-9952650D02*
X11423634Y-9962174D01*
X11423634Y-9962174D02*
X11414110Y-9971698D01*
X11623634Y-10085984D02*
X11604587Y-10076460D01*
X11604587Y-10076460D02*
X11595063Y-10066936D01*
X11595063Y-10066936D02*
X11585539Y-10047889D01*
X11585539Y-10047889D02*
X11585539Y-9990746D01*
X11585539Y-9990746D02*
X11595063Y-9971698D01*
X11595063Y-9971698D02*
X11604587Y-9962174D01*
X11604587Y-9962174D02*
X11623634Y-9952650D01*
X11623634Y-9952650D02*
X11652206Y-9952650D01*
X11652206Y-9952650D02*
X11671253Y-9962174D01*
X11671253Y-9962174D02*
X11680777Y-9971698D01*
X11680777Y-9971698D02*
X11690301Y-9990746D01*
X11690301Y-9990746D02*
X11690301Y-10047889D01*
X11690301Y-10047889D02*
X11680777Y-10066936D01*
X11680777Y-10066936D02*
X11671253Y-10076460D01*
X11671253Y-10076460D02*
X11652206Y-10085984D01*
X11652206Y-10085984D02*
X11623634Y-10085984D01*
X11804587Y-10085984D02*
X11785539Y-10076460D01*
X11785539Y-10076460D02*
X11776015Y-10057412D01*
X11776015Y-10057412D02*
X11776015Y-9885984D01*
X11956968Y-10076460D02*
X11937920Y-10085984D01*
X11937920Y-10085984D02*
X11899825Y-10085984D01*
X11899825Y-10085984D02*
X11880777Y-10076460D01*
X11880777Y-10076460D02*
X11871253Y-10057412D01*
X11871253Y-10057412D02*
X11871253Y-9981222D01*
X11871253Y-9981222D02*
X11880777Y-9962174D01*
X11880777Y-9962174D02*
X11899825Y-9952650D01*
X11899825Y-9952650D02*
X11937920Y-9952650D01*
X11937920Y-9952650D02*
X11956968Y-9962174D01*
X11956968Y-9962174D02*
X11966491Y-9981222D01*
X11966491Y-9981222D02*
X11966491Y-10000270D01*
X11966491Y-10000270D02*
X11871253Y-10019317D01*
X12042682Y-10076460D02*
X12061730Y-10085984D01*
X12061730Y-10085984D02*
X12099825Y-10085984D01*
X12099825Y-10085984D02*
X12118872Y-10076460D01*
X12118872Y-10076460D02*
X12128396Y-10057412D01*
X12128396Y-10057412D02*
X12128396Y-10047889D01*
X12128396Y-10047889D02*
X12118872Y-10028841D01*
X12118872Y-10028841D02*
X12099825Y-10019317D01*
X12099825Y-10019317D02*
X12071253Y-10019317D01*
X12071253Y-10019317D02*
X12052206Y-10009793D01*
X12052206Y-10009793D02*
X12042682Y-9990746D01*
X12042682Y-9990746D02*
X12042682Y-9981222D01*
X12042682Y-9981222D02*
X12052206Y-9962174D01*
X12052206Y-9962174D02*
X12071253Y-9952650D01*
X12071253Y-9952650D02*
X12099825Y-9952650D01*
X12099825Y-9952650D02*
X12118872Y-9962174D01*
X12195063Y-10162174D02*
X12204587Y-10152650D01*
X12204587Y-10152650D02*
X12223634Y-10124079D01*
X12223634Y-10124079D02*
X12233158Y-10105031D01*
X12233158Y-10105031D02*
X12242682Y-10076460D01*
X12242682Y-10076460D02*
X12252206Y-10028841D01*
X12252206Y-10028841D02*
X12252206Y-9990746D01*
X12252206Y-9990746D02*
X12242682Y-9943127D01*
X12242682Y-9943127D02*
X12233158Y-9914555D01*
X12233158Y-9914555D02*
X12223634Y-9895508D01*
X12223634Y-9895508D02*
X12204587Y-9866936D01*
X12204587Y-9866936D02*
X12195063Y-9857412D01*
X12556968Y-10162174D02*
X12547444Y-10152650D01*
X12547444Y-10152650D02*
X12528396Y-10124079D01*
X12528396Y-10124079D02*
X12518872Y-10105031D01*
X12518872Y-10105031D02*
X12509349Y-10076460D01*
X12509349Y-10076460D02*
X12499825Y-10028841D01*
X12499825Y-10028841D02*
X12499825Y-9990746D01*
X12499825Y-9990746D02*
X12509349Y-9943127D01*
X12509349Y-9943127D02*
X12518872Y-9914555D01*
X12518872Y-9914555D02*
X12528396Y-9895508D01*
X12528396Y-9895508D02*
X12547444Y-9866936D01*
X12547444Y-9866936D02*
X12556968Y-9857412D01*
X12633158Y-9952650D02*
X12633158Y-10085984D01*
X12633158Y-9971698D02*
X12642682Y-9962174D01*
X12642682Y-9962174D02*
X12661730Y-9952650D01*
X12661730Y-9952650D02*
X12690301Y-9952650D01*
X12690301Y-9952650D02*
X12709349Y-9962174D01*
X12709349Y-9962174D02*
X12718872Y-9981222D01*
X12718872Y-9981222D02*
X12718872Y-10085984D01*
X12842682Y-10085984D02*
X12823634Y-10076460D01*
X12823634Y-10076460D02*
X12814111Y-10066936D01*
X12814111Y-10066936D02*
X12804587Y-10047889D01*
X12804587Y-10047889D02*
X12804587Y-9990746D01*
X12804587Y-9990746D02*
X12814111Y-9971698D01*
X12814111Y-9971698D02*
X12823634Y-9962174D01*
X12823634Y-9962174D02*
X12842682Y-9952650D01*
X12842682Y-9952650D02*
X12871253Y-9952650D01*
X12871253Y-9952650D02*
X12890301Y-9962174D01*
X12890301Y-9962174D02*
X12899825Y-9971698D01*
X12899825Y-9971698D02*
X12909349Y-9990746D01*
X12909349Y-9990746D02*
X12909349Y-10047889D01*
X12909349Y-10047889D02*
X12899825Y-10066936D01*
X12899825Y-10066936D02*
X12890301Y-10076460D01*
X12890301Y-10076460D02*
X12871253Y-10085984D01*
X12871253Y-10085984D02*
X12842682Y-10085984D01*
X12966492Y-9952650D02*
X13042682Y-9952650D01*
X12995063Y-9885984D02*
X12995063Y-10057412D01*
X12995063Y-10057412D02*
X13004587Y-10076460D01*
X13004587Y-10076460D02*
X13023634Y-10085984D01*
X13023634Y-10085984D02*
X13042682Y-10085984D01*
X13261730Y-9952650D02*
X13261730Y-10152650D01*
X13261730Y-9962174D02*
X13280777Y-9952650D01*
X13280777Y-9952650D02*
X13318873Y-9952650D01*
X13318873Y-9952650D02*
X13337920Y-9962174D01*
X13337920Y-9962174D02*
X13347444Y-9971698D01*
X13347444Y-9971698D02*
X13356968Y-9990746D01*
X13356968Y-9990746D02*
X13356968Y-10047889D01*
X13356968Y-10047889D02*
X13347444Y-10066936D01*
X13347444Y-10066936D02*
X13337920Y-10076460D01*
X13337920Y-10076460D02*
X13318873Y-10085984D01*
X13318873Y-10085984D02*
X13280777Y-10085984D01*
X13280777Y-10085984D02*
X13261730Y-10076460D01*
X13471253Y-10085984D02*
X13452206Y-10076460D01*
X13452206Y-10076460D02*
X13442682Y-10057412D01*
X13442682Y-10057412D02*
X13442682Y-9885984D01*
X13633158Y-10085984D02*
X13633158Y-9981222D01*
X13633158Y-9981222D02*
X13623634Y-9962174D01*
X13623634Y-9962174D02*
X13604587Y-9952650D01*
X13604587Y-9952650D02*
X13566492Y-9952650D01*
X13566492Y-9952650D02*
X13547444Y-9962174D01*
X13633158Y-10076460D02*
X13614111Y-10085984D01*
X13614111Y-10085984D02*
X13566492Y-10085984D01*
X13566492Y-10085984D02*
X13547444Y-10076460D01*
X13547444Y-10076460D02*
X13537920Y-10057412D01*
X13537920Y-10057412D02*
X13537920Y-10038365D01*
X13537920Y-10038365D02*
X13547444Y-10019317D01*
X13547444Y-10019317D02*
X13566492Y-10009793D01*
X13566492Y-10009793D02*
X13614111Y-10009793D01*
X13614111Y-10009793D02*
X13633158Y-10000270D01*
X13699825Y-9952650D02*
X13776015Y-9952650D01*
X13728396Y-9885984D02*
X13728396Y-10057412D01*
X13728396Y-10057412D02*
X13737920Y-10076460D01*
X13737920Y-10076460D02*
X13756968Y-10085984D01*
X13756968Y-10085984D02*
X13776015Y-10085984D01*
X13918873Y-10076460D02*
X13899825Y-10085984D01*
X13899825Y-10085984D02*
X13861730Y-10085984D01*
X13861730Y-10085984D02*
X13842682Y-10076460D01*
X13842682Y-10076460D02*
X13833158Y-10057412D01*
X13833158Y-10057412D02*
X13833158Y-9981222D01*
X13833158Y-9981222D02*
X13842682Y-9962174D01*
X13842682Y-9962174D02*
X13861730Y-9952650D01*
X13861730Y-9952650D02*
X13899825Y-9952650D01*
X13899825Y-9952650D02*
X13918873Y-9962174D01*
X13918873Y-9962174D02*
X13928396Y-9981222D01*
X13928396Y-9981222D02*
X13928396Y-10000270D01*
X13928396Y-10000270D02*
X13833158Y-10019317D01*
X14099825Y-10085984D02*
X14099825Y-9885984D01*
X14099825Y-10076460D02*
X14080777Y-10085984D01*
X14080777Y-10085984D02*
X14042682Y-10085984D01*
X14042682Y-10085984D02*
X14023634Y-10076460D01*
X14023634Y-10076460D02*
X14014111Y-10066936D01*
X14014111Y-10066936D02*
X14004587Y-10047889D01*
X14004587Y-10047889D02*
X14004587Y-9990746D01*
X14004587Y-9990746D02*
X14014111Y-9971698D01*
X14014111Y-9971698D02*
X14023634Y-9962174D01*
X14023634Y-9962174D02*
X14042682Y-9952650D01*
X14042682Y-9952650D02*
X14080777Y-9952650D01*
X14080777Y-9952650D02*
X14099825Y-9962174D01*
X14176015Y-10162174D02*
X14185539Y-10152650D01*
X14185539Y-10152650D02*
X14204587Y-10124079D01*
X14204587Y-10124079D02*
X14214111Y-10105031D01*
X14214111Y-10105031D02*
X14223634Y-10076460D01*
X14223634Y-10076460D02*
X14233158Y-10028841D01*
X14233158Y-10028841D02*
X14233158Y-9990746D01*
X14233158Y-9990746D02*
X14223634Y-9943127D01*
X14223634Y-9943127D02*
X14214111Y-9914555D01*
X14214111Y-9914555D02*
X14204587Y-9895508D01*
X14204587Y-9895508D02*
X14185539Y-9866936D01*
X14185539Y-9866936D02*
X14176015Y-9857412D01*
D10*
X7420000Y-10258500D02*
G75*
G03*
X7320940Y-10258500I-49530J0D01*
G01*
X7320940Y-10258500D02*
G75*
G03*
X7420000Y-10258500I49530J0D01*
G01*
D11*
X7718872Y-10149984D02*
X7737920Y-10149984D01*
X7737920Y-10149984D02*
X7756967Y-10159508D01*
X7756967Y-10159508D02*
X7766491Y-10169031D01*
X7766491Y-10169031D02*
X7776015Y-10188079D01*
X7776015Y-10188079D02*
X7785539Y-10226174D01*
X7785539Y-10226174D02*
X7785539Y-10273793D01*
X7785539Y-10273793D02*
X7776015Y-10311889D01*
X7776015Y-10311889D02*
X7766491Y-10330936D01*
X7766491Y-10330936D02*
X7756967Y-10340460D01*
X7756967Y-10340460D02*
X7737920Y-10349984D01*
X7737920Y-10349984D02*
X7718872Y-10349984D01*
X7718872Y-10349984D02*
X7699824Y-10340460D01*
X7699824Y-10340460D02*
X7690301Y-10330936D01*
X7690301Y-10330936D02*
X7680777Y-10311889D01*
X7680777Y-10311889D02*
X7671253Y-10273793D01*
X7671253Y-10273793D02*
X7671253Y-10226174D01*
X7671253Y-10226174D02*
X7680777Y-10188079D01*
X7680777Y-10188079D02*
X7690301Y-10169031D01*
X7690301Y-10169031D02*
X7699824Y-10159508D01*
X7699824Y-10159508D02*
X7718872Y-10149984D01*
X7871253Y-10330936D02*
X7880777Y-10340460D01*
X7880777Y-10340460D02*
X7871253Y-10349984D01*
X7871253Y-10349984D02*
X7861729Y-10340460D01*
X7861729Y-10340460D02*
X7871253Y-10330936D01*
X7871253Y-10330936D02*
X7871253Y-10349984D01*
X7976015Y-10349984D02*
X8014110Y-10349984D01*
X8014110Y-10349984D02*
X8033158Y-10340460D01*
X8033158Y-10340460D02*
X8042682Y-10330936D01*
X8042682Y-10330936D02*
X8061729Y-10302365D01*
X8061729Y-10302365D02*
X8071253Y-10264270D01*
X8071253Y-10264270D02*
X8071253Y-10188079D01*
X8071253Y-10188079D02*
X8061729Y-10169031D01*
X8061729Y-10169031D02*
X8052205Y-10159508D01*
X8052205Y-10159508D02*
X8033158Y-10149984D01*
X8033158Y-10149984D02*
X7995062Y-10149984D01*
X7995062Y-10149984D02*
X7976015Y-10159508D01*
X7976015Y-10159508D02*
X7966491Y-10169031D01*
X7966491Y-10169031D02*
X7956967Y-10188079D01*
X7956967Y-10188079D02*
X7956967Y-10235698D01*
X7956967Y-10235698D02*
X7966491Y-10254746D01*
X7966491Y-10254746D02*
X7976015Y-10264270D01*
X7976015Y-10264270D02*
X7995062Y-10273793D01*
X7995062Y-10273793D02*
X8033158Y-10273793D01*
X8033158Y-10273793D02*
X8052205Y-10264270D01*
X8052205Y-10264270D02*
X8061729Y-10254746D01*
X8061729Y-10254746D02*
X8071253Y-10235698D01*
X8166491Y-10349984D02*
X8204586Y-10349984D01*
X8204586Y-10349984D02*
X8223634Y-10340460D01*
X8223634Y-10340460D02*
X8233158Y-10330936D01*
X8233158Y-10330936D02*
X8252205Y-10302365D01*
X8252205Y-10302365D02*
X8261729Y-10264270D01*
X8261729Y-10264270D02*
X8261729Y-10188079D01*
X8261729Y-10188079D02*
X8252205Y-10169031D01*
X8252205Y-10169031D02*
X8242682Y-10159508D01*
X8242682Y-10159508D02*
X8223634Y-10149984D01*
X8223634Y-10149984D02*
X8185539Y-10149984D01*
X8185539Y-10149984D02*
X8166491Y-10159508D01*
X8166491Y-10159508D02*
X8156967Y-10169031D01*
X8156967Y-10169031D02*
X8147443Y-10188079D01*
X8147443Y-10188079D02*
X8147443Y-10235698D01*
X8147443Y-10235698D02*
X8156967Y-10254746D01*
X8156967Y-10254746D02*
X8166491Y-10264270D01*
X8166491Y-10264270D02*
X8185539Y-10273793D01*
X8185539Y-10273793D02*
X8223634Y-10273793D01*
X8223634Y-10273793D02*
X8242682Y-10264270D01*
X8242682Y-10264270D02*
X8252205Y-10254746D01*
X8252205Y-10254746D02*
X8261729Y-10235698D01*
X8452205Y-10349984D02*
X8337920Y-10349984D01*
X8395063Y-10349984D02*
X8395063Y-10149984D01*
X8395063Y-10149984D02*
X8376015Y-10178555D01*
X8376015Y-10178555D02*
X8356967Y-10197603D01*
X8356967Y-10197603D02*
X8337920Y-10207127D01*
X8537920Y-10349984D02*
X8537920Y-10216650D01*
X8537920Y-10235698D02*
X8547444Y-10226174D01*
X8547444Y-10226174D02*
X8566491Y-10216650D01*
X8566491Y-10216650D02*
X8595063Y-10216650D01*
X8595063Y-10216650D02*
X8614110Y-10226174D01*
X8614110Y-10226174D02*
X8623634Y-10245222D01*
X8623634Y-10245222D02*
X8623634Y-10349984D01*
X8623634Y-10245222D02*
X8633158Y-10226174D01*
X8633158Y-10226174D02*
X8652205Y-10216650D01*
X8652205Y-10216650D02*
X8680777Y-10216650D01*
X8680777Y-10216650D02*
X8699825Y-10226174D01*
X8699825Y-10226174D02*
X8709348Y-10245222D01*
X8709348Y-10245222D02*
X8709348Y-10349984D01*
X8804586Y-10349984D02*
X8804586Y-10216650D01*
X8804586Y-10235698D02*
X8814110Y-10226174D01*
X8814110Y-10226174D02*
X8833158Y-10216650D01*
X8833158Y-10216650D02*
X8861729Y-10216650D01*
X8861729Y-10216650D02*
X8880777Y-10226174D01*
X8880777Y-10226174D02*
X8890301Y-10245222D01*
X8890301Y-10245222D02*
X8890301Y-10349984D01*
X8890301Y-10245222D02*
X8899825Y-10226174D01*
X8899825Y-10226174D02*
X8918872Y-10216650D01*
X8918872Y-10216650D02*
X8947444Y-10216650D01*
X8947444Y-10216650D02*
X8966491Y-10226174D01*
X8966491Y-10226174D02*
X8976015Y-10245222D01*
X8976015Y-10245222D02*
X8976015Y-10349984D01*
X9366491Y-10140460D02*
X9195063Y-10397603D01*
X9623634Y-10149984D02*
X9642682Y-10149984D01*
X9642682Y-10149984D02*
X9661729Y-10159508D01*
X9661729Y-10159508D02*
X9671253Y-10169031D01*
X9671253Y-10169031D02*
X9680777Y-10188079D01*
X9680777Y-10188079D02*
X9690301Y-10226174D01*
X9690301Y-10226174D02*
X9690301Y-10273793D01*
X9690301Y-10273793D02*
X9680777Y-10311889D01*
X9680777Y-10311889D02*
X9671253Y-10330936D01*
X9671253Y-10330936D02*
X9661729Y-10340460D01*
X9661729Y-10340460D02*
X9642682Y-10349984D01*
X9642682Y-10349984D02*
X9623634Y-10349984D01*
X9623634Y-10349984D02*
X9604587Y-10340460D01*
X9604587Y-10340460D02*
X9595063Y-10330936D01*
X9595063Y-10330936D02*
X9585539Y-10311889D01*
X9585539Y-10311889D02*
X9576015Y-10273793D01*
X9576015Y-10273793D02*
X9576015Y-10226174D01*
X9576015Y-10226174D02*
X9585539Y-10188079D01*
X9585539Y-10188079D02*
X9595063Y-10169031D01*
X9595063Y-10169031D02*
X9604587Y-10159508D01*
X9604587Y-10159508D02*
X9623634Y-10149984D01*
X9776015Y-10330936D02*
X9785539Y-10340460D01*
X9785539Y-10340460D02*
X9776015Y-10349984D01*
X9776015Y-10349984D02*
X9766491Y-10340460D01*
X9766491Y-10340460D02*
X9776015Y-10330936D01*
X9776015Y-10330936D02*
X9776015Y-10349984D01*
X9909348Y-10149984D02*
X9928396Y-10149984D01*
X9928396Y-10149984D02*
X9947444Y-10159508D01*
X9947444Y-10159508D02*
X9956968Y-10169031D01*
X9956968Y-10169031D02*
X9966491Y-10188079D01*
X9966491Y-10188079D02*
X9976015Y-10226174D01*
X9976015Y-10226174D02*
X9976015Y-10273793D01*
X9976015Y-10273793D02*
X9966491Y-10311889D01*
X9966491Y-10311889D02*
X9956968Y-10330936D01*
X9956968Y-10330936D02*
X9947444Y-10340460D01*
X9947444Y-10340460D02*
X9928396Y-10349984D01*
X9928396Y-10349984D02*
X9909348Y-10349984D01*
X9909348Y-10349984D02*
X9890301Y-10340460D01*
X9890301Y-10340460D02*
X9880777Y-10330936D01*
X9880777Y-10330936D02*
X9871253Y-10311889D01*
X9871253Y-10311889D02*
X9861729Y-10273793D01*
X9861729Y-10273793D02*
X9861729Y-10226174D01*
X9861729Y-10226174D02*
X9871253Y-10188079D01*
X9871253Y-10188079D02*
X9880777Y-10169031D01*
X9880777Y-10169031D02*
X9890301Y-10159508D01*
X9890301Y-10159508D02*
X9909348Y-10149984D01*
X10042682Y-10149984D02*
X10166491Y-10149984D01*
X10166491Y-10149984D02*
X10099825Y-10226174D01*
X10099825Y-10226174D02*
X10128396Y-10226174D01*
X10128396Y-10226174D02*
X10147444Y-10235698D01*
X10147444Y-10235698D02*
X10156968Y-10245222D01*
X10156968Y-10245222D02*
X10166491Y-10264270D01*
X10166491Y-10264270D02*
X10166491Y-10311889D01*
X10166491Y-10311889D02*
X10156968Y-10330936D01*
X10156968Y-10330936D02*
X10147444Y-10340460D01*
X10147444Y-10340460D02*
X10128396Y-10349984D01*
X10128396Y-10349984D02*
X10071253Y-10349984D01*
X10071253Y-10349984D02*
X10052206Y-10340460D01*
X10052206Y-10340460D02*
X10042682Y-10330936D01*
X10261729Y-10349984D02*
X10299825Y-10349984D01*
X10299825Y-10349984D02*
X10318872Y-10340460D01*
X10318872Y-10340460D02*
X10328396Y-10330936D01*
X10328396Y-10330936D02*
X10347444Y-10302365D01*
X10347444Y-10302365D02*
X10356968Y-10264270D01*
X10356968Y-10264270D02*
X10356968Y-10188079D01*
X10356968Y-10188079D02*
X10347444Y-10169031D01*
X10347444Y-10169031D02*
X10337920Y-10159508D01*
X10337920Y-10159508D02*
X10318872Y-10149984D01*
X10318872Y-10149984D02*
X10280777Y-10149984D01*
X10280777Y-10149984D02*
X10261729Y-10159508D01*
X10261729Y-10159508D02*
X10252206Y-10169031D01*
X10252206Y-10169031D02*
X10242682Y-10188079D01*
X10242682Y-10188079D02*
X10242682Y-10235698D01*
X10242682Y-10235698D02*
X10252206Y-10254746D01*
X10252206Y-10254746D02*
X10261729Y-10264270D01*
X10261729Y-10264270D02*
X10280777Y-10273793D01*
X10280777Y-10273793D02*
X10318872Y-10273793D01*
X10318872Y-10273793D02*
X10337920Y-10264270D01*
X10337920Y-10264270D02*
X10347444Y-10254746D01*
X10347444Y-10254746D02*
X10356968Y-10235698D01*
X10480777Y-10149984D02*
X10499825Y-10149984D01*
X10499825Y-10149984D02*
X10518872Y-10159508D01*
X10518872Y-10159508D02*
X10528396Y-10169031D01*
X10528396Y-10169031D02*
X10537920Y-10188079D01*
X10537920Y-10188079D02*
X10547444Y-10226174D01*
X10547444Y-10226174D02*
X10547444Y-10273793D01*
X10547444Y-10273793D02*
X10537920Y-10311889D01*
X10537920Y-10311889D02*
X10528396Y-10330936D01*
X10528396Y-10330936D02*
X10518872Y-10340460D01*
X10518872Y-10340460D02*
X10499825Y-10349984D01*
X10499825Y-10349984D02*
X10480777Y-10349984D01*
X10480777Y-10349984D02*
X10461729Y-10340460D01*
X10461729Y-10340460D02*
X10452206Y-10330936D01*
X10452206Y-10330936D02*
X10442682Y-10311889D01*
X10442682Y-10311889D02*
X10433158Y-10273793D01*
X10433158Y-10273793D02*
X10433158Y-10226174D01*
X10433158Y-10226174D02*
X10442682Y-10188079D01*
X10442682Y-10188079D02*
X10452206Y-10169031D01*
X10452206Y-10169031D02*
X10461729Y-10159508D01*
X10461729Y-10159508D02*
X10480777Y-10149984D01*
X10623634Y-10149984D02*
X10623634Y-10188079D01*
X10699825Y-10149984D02*
X10699825Y-10188079D01*
X10995063Y-10426174D02*
X10985539Y-10416650D01*
X10985539Y-10416650D02*
X10966491Y-10388079D01*
X10966491Y-10388079D02*
X10956968Y-10369031D01*
X10956968Y-10369031D02*
X10947444Y-10340460D01*
X10947444Y-10340460D02*
X10937920Y-10292841D01*
X10937920Y-10292841D02*
X10937920Y-10254746D01*
X10937920Y-10254746D02*
X10947444Y-10207127D01*
X10947444Y-10207127D02*
X10956968Y-10178555D01*
X10956968Y-10178555D02*
X10966491Y-10159508D01*
X10966491Y-10159508D02*
X10985539Y-10130936D01*
X10985539Y-10130936D02*
X10995063Y-10121412D01*
X11052206Y-10149984D02*
X11176015Y-10149984D01*
X11176015Y-10149984D02*
X11109349Y-10226174D01*
X11109349Y-10226174D02*
X11137920Y-10226174D01*
X11137920Y-10226174D02*
X11156968Y-10235698D01*
X11156968Y-10235698D02*
X11166491Y-10245222D01*
X11166491Y-10245222D02*
X11176015Y-10264270D01*
X11176015Y-10264270D02*
X11176015Y-10311889D01*
X11176015Y-10311889D02*
X11166491Y-10330936D01*
X11166491Y-10330936D02*
X11156968Y-10340460D01*
X11156968Y-10340460D02*
X11137920Y-10349984D01*
X11137920Y-10349984D02*
X11080777Y-10349984D01*
X11080777Y-10349984D02*
X11061730Y-10340460D01*
X11061730Y-10340460D02*
X11052206Y-10330936D01*
X11414110Y-10349984D02*
X11414110Y-10149984D01*
X11499825Y-10349984D02*
X11499825Y-10245222D01*
X11499825Y-10245222D02*
X11490301Y-10226174D01*
X11490301Y-10226174D02*
X11471253Y-10216650D01*
X11471253Y-10216650D02*
X11442682Y-10216650D01*
X11442682Y-10216650D02*
X11423634Y-10226174D01*
X11423634Y-10226174D02*
X11414110Y-10235698D01*
X11623634Y-10349984D02*
X11604587Y-10340460D01*
X11604587Y-10340460D02*
X11595063Y-10330936D01*
X11595063Y-10330936D02*
X11585539Y-10311889D01*
X11585539Y-10311889D02*
X11585539Y-10254746D01*
X11585539Y-10254746D02*
X11595063Y-10235698D01*
X11595063Y-10235698D02*
X11604587Y-10226174D01*
X11604587Y-10226174D02*
X11623634Y-10216650D01*
X11623634Y-10216650D02*
X11652206Y-10216650D01*
X11652206Y-10216650D02*
X11671253Y-10226174D01*
X11671253Y-10226174D02*
X11680777Y-10235698D01*
X11680777Y-10235698D02*
X11690301Y-10254746D01*
X11690301Y-10254746D02*
X11690301Y-10311889D01*
X11690301Y-10311889D02*
X11680777Y-10330936D01*
X11680777Y-10330936D02*
X11671253Y-10340460D01*
X11671253Y-10340460D02*
X11652206Y-10349984D01*
X11652206Y-10349984D02*
X11623634Y-10349984D01*
X11804587Y-10349984D02*
X11785539Y-10340460D01*
X11785539Y-10340460D02*
X11776015Y-10321412D01*
X11776015Y-10321412D02*
X11776015Y-10149984D01*
X11956968Y-10340460D02*
X11937920Y-10349984D01*
X11937920Y-10349984D02*
X11899825Y-10349984D01*
X11899825Y-10349984D02*
X11880777Y-10340460D01*
X11880777Y-10340460D02*
X11871253Y-10321412D01*
X11871253Y-10321412D02*
X11871253Y-10245222D01*
X11871253Y-10245222D02*
X11880777Y-10226174D01*
X11880777Y-10226174D02*
X11899825Y-10216650D01*
X11899825Y-10216650D02*
X11937920Y-10216650D01*
X11937920Y-10216650D02*
X11956968Y-10226174D01*
X11956968Y-10226174D02*
X11966491Y-10245222D01*
X11966491Y-10245222D02*
X11966491Y-10264270D01*
X11966491Y-10264270D02*
X11871253Y-10283317D01*
X12042682Y-10340460D02*
X12061730Y-10349984D01*
X12061730Y-10349984D02*
X12099825Y-10349984D01*
X12099825Y-10349984D02*
X12118872Y-10340460D01*
X12118872Y-10340460D02*
X12128396Y-10321412D01*
X12128396Y-10321412D02*
X12128396Y-10311889D01*
X12128396Y-10311889D02*
X12118872Y-10292841D01*
X12118872Y-10292841D02*
X12099825Y-10283317D01*
X12099825Y-10283317D02*
X12071253Y-10283317D01*
X12071253Y-10283317D02*
X12052206Y-10273793D01*
X12052206Y-10273793D02*
X12042682Y-10254746D01*
X12042682Y-10254746D02*
X12042682Y-10245222D01*
X12042682Y-10245222D02*
X12052206Y-10226174D01*
X12052206Y-10226174D02*
X12071253Y-10216650D01*
X12071253Y-10216650D02*
X12099825Y-10216650D01*
X12099825Y-10216650D02*
X12118872Y-10226174D01*
X12195063Y-10426174D02*
X12204587Y-10416650D01*
X12204587Y-10416650D02*
X12223634Y-10388079D01*
X12223634Y-10388079D02*
X12233158Y-10369031D01*
X12233158Y-10369031D02*
X12242682Y-10340460D01*
X12242682Y-10340460D02*
X12252206Y-10292841D01*
X12252206Y-10292841D02*
X12252206Y-10254746D01*
X12252206Y-10254746D02*
X12242682Y-10207127D01*
X12242682Y-10207127D02*
X12233158Y-10178555D01*
X12233158Y-10178555D02*
X12223634Y-10159508D01*
X12223634Y-10159508D02*
X12204587Y-10130936D01*
X12204587Y-10130936D02*
X12195063Y-10121412D01*
X12556968Y-10426174D02*
X12547444Y-10416650D01*
X12547444Y-10416650D02*
X12528396Y-10388079D01*
X12528396Y-10388079D02*
X12518872Y-10369031D01*
X12518872Y-10369031D02*
X12509349Y-10340460D01*
X12509349Y-10340460D02*
X12499825Y-10292841D01*
X12499825Y-10292841D02*
X12499825Y-10254746D01*
X12499825Y-10254746D02*
X12509349Y-10207127D01*
X12509349Y-10207127D02*
X12518872Y-10178555D01*
X12518872Y-10178555D02*
X12528396Y-10159508D01*
X12528396Y-10159508D02*
X12547444Y-10130936D01*
X12547444Y-10130936D02*
X12556968Y-10121412D01*
X12633158Y-10216650D02*
X12633158Y-10349984D01*
X12633158Y-10235698D02*
X12642682Y-10226174D01*
X12642682Y-10226174D02*
X12661730Y-10216650D01*
X12661730Y-10216650D02*
X12690301Y-10216650D01*
X12690301Y-10216650D02*
X12709349Y-10226174D01*
X12709349Y-10226174D02*
X12718872Y-10245222D01*
X12718872Y-10245222D02*
X12718872Y-10349984D01*
X12842682Y-10349984D02*
X12823634Y-10340460D01*
X12823634Y-10340460D02*
X12814111Y-10330936D01*
X12814111Y-10330936D02*
X12804587Y-10311889D01*
X12804587Y-10311889D02*
X12804587Y-10254746D01*
X12804587Y-10254746D02*
X12814111Y-10235698D01*
X12814111Y-10235698D02*
X12823634Y-10226174D01*
X12823634Y-10226174D02*
X12842682Y-10216650D01*
X12842682Y-10216650D02*
X12871253Y-10216650D01*
X12871253Y-10216650D02*
X12890301Y-10226174D01*
X12890301Y-10226174D02*
X12899825Y-10235698D01*
X12899825Y-10235698D02*
X12909349Y-10254746D01*
X12909349Y-10254746D02*
X12909349Y-10311889D01*
X12909349Y-10311889D02*
X12899825Y-10330936D01*
X12899825Y-10330936D02*
X12890301Y-10340460D01*
X12890301Y-10340460D02*
X12871253Y-10349984D01*
X12871253Y-10349984D02*
X12842682Y-10349984D01*
X12966492Y-10216650D02*
X13042682Y-10216650D01*
X12995063Y-10149984D02*
X12995063Y-10321412D01*
X12995063Y-10321412D02*
X13004587Y-10340460D01*
X13004587Y-10340460D02*
X13023634Y-10349984D01*
X13023634Y-10349984D02*
X13042682Y-10349984D01*
X13261730Y-10216650D02*
X13261730Y-10416650D01*
X13261730Y-10226174D02*
X13280777Y-10216650D01*
X13280777Y-10216650D02*
X13318873Y-10216650D01*
X13318873Y-10216650D02*
X13337920Y-10226174D01*
X13337920Y-10226174D02*
X13347444Y-10235698D01*
X13347444Y-10235698D02*
X13356968Y-10254746D01*
X13356968Y-10254746D02*
X13356968Y-10311889D01*
X13356968Y-10311889D02*
X13347444Y-10330936D01*
X13347444Y-10330936D02*
X13337920Y-10340460D01*
X13337920Y-10340460D02*
X13318873Y-10349984D01*
X13318873Y-10349984D02*
X13280777Y-10349984D01*
X13280777Y-10349984D02*
X13261730Y-10340460D01*
X13471253Y-10349984D02*
X13452206Y-10340460D01*
X13452206Y-10340460D02*
X13442682Y-10321412D01*
X13442682Y-10321412D02*
X13442682Y-10149984D01*
X13633158Y-10349984D02*
X13633158Y-10245222D01*
X13633158Y-10245222D02*
X13623634Y-10226174D01*
X13623634Y-10226174D02*
X13604587Y-10216650D01*
X13604587Y-10216650D02*
X13566492Y-10216650D01*
X13566492Y-10216650D02*
X13547444Y-10226174D01*
X13633158Y-10340460D02*
X13614111Y-10349984D01*
X13614111Y-10349984D02*
X13566492Y-10349984D01*
X13566492Y-10349984D02*
X13547444Y-10340460D01*
X13547444Y-10340460D02*
X13537920Y-10321412D01*
X13537920Y-10321412D02*
X13537920Y-10302365D01*
X13537920Y-10302365D02*
X13547444Y-10283317D01*
X13547444Y-10283317D02*
X13566492Y-10273793D01*
X13566492Y-10273793D02*
X13614111Y-10273793D01*
X13614111Y-10273793D02*
X13633158Y-10264270D01*
X13699825Y-10216650D02*
X13776015Y-10216650D01*
X13728396Y-10149984D02*
X13728396Y-10321412D01*
X13728396Y-10321412D02*
X13737920Y-10340460D01*
X13737920Y-10340460D02*
X13756968Y-10349984D01*
X13756968Y-10349984D02*
X13776015Y-10349984D01*
X13918873Y-10340460D02*
X13899825Y-10349984D01*
X13899825Y-10349984D02*
X13861730Y-10349984D01*
X13861730Y-10349984D02*
X13842682Y-10340460D01*
X13842682Y-10340460D02*
X13833158Y-10321412D01*
X13833158Y-10321412D02*
X13833158Y-10245222D01*
X13833158Y-10245222D02*
X13842682Y-10226174D01*
X13842682Y-10226174D02*
X13861730Y-10216650D01*
X13861730Y-10216650D02*
X13899825Y-10216650D01*
X13899825Y-10216650D02*
X13918873Y-10226174D01*
X13918873Y-10226174D02*
X13928396Y-10245222D01*
X13928396Y-10245222D02*
X13928396Y-10264270D01*
X13928396Y-10264270D02*
X13833158Y-10283317D01*
X14099825Y-10349984D02*
X14099825Y-10149984D01*
X14099825Y-10340460D02*
X14080777Y-10349984D01*
X14080777Y-10349984D02*
X14042682Y-10349984D01*
X14042682Y-10349984D02*
X14023634Y-10340460D01*
X14023634Y-10340460D02*
X14014111Y-10330936D01*
X14014111Y-10330936D02*
X14004587Y-10311889D01*
X14004587Y-10311889D02*
X14004587Y-10254746D01*
X14004587Y-10254746D02*
X14014111Y-10235698D01*
X14014111Y-10235698D02*
X14023634Y-10226174D01*
X14023634Y-10226174D02*
X14042682Y-10216650D01*
X14042682Y-10216650D02*
X14080777Y-10216650D01*
X14080777Y-10216650D02*
X14099825Y-10226174D01*
X14176015Y-10426174D02*
X14185539Y-10416650D01*
X14185539Y-10416650D02*
X14204587Y-10388079D01*
X14204587Y-10388079D02*
X14214111Y-10369031D01*
X14214111Y-10369031D02*
X14223634Y-10340460D01*
X14223634Y-10340460D02*
X14233158Y-10292841D01*
X14233158Y-10292841D02*
X14233158Y-10254746D01*
X14233158Y-10254746D02*
X14223634Y-10207127D01*
X14223634Y-10207127D02*
X14214111Y-10178555D01*
X14214111Y-10178555D02*
X14204587Y-10159508D01*
X14204587Y-10159508D02*
X14185539Y-10130936D01*
X14185539Y-10130936D02*
X14176015Y-10121412D01*
M02*
