M48
; DRILL file {KiCad 7.0.10} date Mon Jan 15 20:07:17 2024
; FORMAT={-:-/ absolute / metric / decimal}
; #@! TF.CreationDate,2024-01-15T20:07:17+01:00
; #@! TF.GenerationSoftware,Kicad,Pcbnew,7.0.10
; #@! TF.FileFunction,Plated,1,4,PTH
FMAT,2
METRIC
; #@! TA.AperFunction,Plated,PTH,ViaDrill
T1C0.400
; #@! TA.AperFunction,Plated,PTH,ViaDrill
T2C0.800
; #@! TA.AperFunction,Plated,PTH,ComponentDrill
T3C0.800
; #@! TA.AperFunction,Plated,PTH,ComponentDrill
T4C3.000
%
G90
G05
T1
X77.153Y-33.972
X78.422Y-36.005
X79.057Y-53.975
X79.057Y-57.15
X79.057Y-60.325
X79.057Y-66.675
X79.057Y-69.85
X79.057Y-73.025
X79.057Y-79.375
X79.057Y-82.55
X79.089Y-63.5
X79.089Y-76.2
X81.343Y-55.068
X81.343Y-56.068
X81.852Y-59.563
X82.233Y-24.479
X82.852Y-59.563
X83.788Y-37.465
X84.41Y-58.007
X84.645Y-65.532
X84.645Y-68.072
X84.646Y-70.612
X84.838Y-37.465
X85.153Y-28.511
X85.464Y-42.418
X85.852Y-36.258
X85.868Y-47.066
X86.296Y-53.05
X86.296Y-54.05
X86.582Y-57.85
X86.585Y-28.511
X86.866Y-47.123
X86.931Y-56.229
X87.09Y-50.355
X87.312Y-79.534
X87.344Y-76.93
X87.376Y-71.882
X87.676Y-57.85
X88.09Y-50.355
X88.187Y-45.868
X88.9Y-37.052
X89.154Y-47.136
X89.34Y-28.321
X89.902Y-58.201
X90.106Y-80.962
X90.106Y-78.264
X90.106Y-70.612
X90.107Y-65.532
X90.609Y-57.493
X91.726Y-48.228
X92.06Y-85.09
X92.075Y-24.479
X92.075Y-26.352
X92.71Y-34.449
X92.758Y-36.258
X93.091Y-85.09
X93.123Y-42.831
X93.186Y-56.356
X93.313Y-57.658
X93.383Y-32.511
X93.758Y-36.258
X94.234Y-29.527
X94.441Y-32.512
X94.536Y-40.325
X94.586Y-56.356
X95.212Y-33.859
X95.25Y-28.003
X95.25Y-29.527
X95.521Y-85.09
X95.536Y-40.322
X96.219Y-36.281
X96.266Y-28.003
X96.266Y-29.527
X96.425Y-47.022
X96.552Y-85.09
X96.742Y-56.388
X97.218Y-36.29
X97.72Y-57.556
X98.108Y-34.29
X98.171Y-32.163
X98.441Y-40.529
X98.479Y-43.153
X98.489Y-24.479
X98.489Y-26.352
X99.377Y-31.877
X99.409Y-39.37
X99.789Y-58.57
X99.789Y-56.555
X99.815Y-36.303
X100.377Y-31.883
X100.393Y-62.611
X100.52Y-37.846
X101.06Y-41.624
X101.16Y-28.321
X101.251Y-83.121
X101.759Y-51.721
X101.822Y-47.085
X102.203Y-34.597
X102.573Y-58.654
X102.584Y-56.451
X102.759Y-51.721
X102.87Y-42.545
X102.875Y-41.545
X103.188Y-82.233
X103.314Y-66.802
X103.321Y-64.261
X103.346Y-69.342
X103.505Y-61.722
X104.457Y-31.02
X104.584Y-37.91
X104.584Y-39.179
X104.584Y-42.989
X104.887Y-35.47
X105.426Y-29.988
X105.918Y-35.494
X106.267Y-59.055
X106.267Y-60.055
X106.918Y-35.495
X107.315Y-85.09
X107.759Y-39.179
X107.759Y-41.719
X107.95Y-24.479
X108.267Y-68.072
X108.68Y-33.052
X108.902Y-83.502
X109.109Y-38.864
X109.915Y-46.661
X110.109Y-38.862
X110.664Y-45.999
X111.442Y-53.975
X111.442Y-57.15
X111.442Y-60.325
X111.442Y-66.675
X111.442Y-69.85
X111.442Y-73.025
X111.442Y-79.375
X111.442Y-82.55
X111.474Y-63.5
X111.474Y-76.2
X111.569Y-37.973
X112.046Y-36.131
X113.093Y-34.322
T2
X106.553Y-47.972
X106.553Y-49.371
X106.553Y-50.771
T3
X104.394Y-55.158
X104.394Y-57.658
X104.394Y-60.158
T4
X78.25Y-28.495
X78.25Y-88.495
X112.25Y-28.495
X112.25Y-88.495
M30
