%TF.GenerationSoftware,KiCad,Pcbnew,7.0.10*%
%TF.CreationDate,2024-01-15T20:05:46+01:00*%
%TF.ProjectId,tiny-scarab,74696e79-2d73-4636-9172-61622e6b6963,0.1*%
%TF.SameCoordinates,Original*%
%TF.FileFunction,Copper,L3,Inr*%
%TF.FilePolarity,Positive*%
%FSLAX46Y46*%
G04 Gerber Fmt 4.6, Leading zero omitted, Abs format (unit mm)*
G04 Created by KiCad (PCBNEW 7.0.10) date 2024-01-15 20:05:46*
%MOMM*%
%LPD*%
G01*
G04 APERTURE LIST*
%TA.AperFunction,ComponentPad*%
%ADD10C,6.000000*%
%TD*%
%TA.AperFunction,ComponentPad*%
%ADD11C,1.400000*%
%TD*%
%TA.AperFunction,ViaPad*%
%ADD12C,0.800000*%
%TD*%
%TA.AperFunction,ViaPad*%
%ADD13C,1.200000*%
%TD*%
%TA.AperFunction,Conductor*%
%ADD14C,0.400000*%
%TD*%
G04 APERTURE END LIST*
D10*
%TO.N,GND*%
%TO.C,J6*%
X78250000Y-28495000D03*
%TD*%
%TO.N,GND*%
%TO.C,J8*%
X78250000Y-88495000D03*
%TD*%
D11*
%TO.N,+3V3*%
%TO.C,SW5*%
X104394000Y-55158000D03*
%TO.N,Net-(SW5-B)*%
X104394000Y-57658000D03*
%TO.N,+5V*%
X104394000Y-60158000D03*
%TD*%
D10*
%TO.N,GND*%
%TO.C,J7*%
X112250000Y-88495000D03*
%TD*%
%TO.N,GND*%
%TO.C,J5*%
X112250000Y-28495000D03*
%TD*%
D12*
%TO.N,+5V*%
X104584500Y-37909500D03*
X104886936Y-35470107D03*
X87675528Y-57850000D03*
X109108999Y-38863923D03*
X100377483Y-31883201D03*
X102874993Y-41545010D03*
X101758750Y-51720750D03*
D13*
X106553000Y-50770753D03*
D12*
X106918002Y-35494941D03*
X110664321Y-45999390D03*
%TO.N,GND*%
X92075000Y-24479250D03*
X111442500Y-79375000D03*
X98171000Y-32162750D03*
X103505000Y-61722000D03*
X86931500Y-56229250D03*
X111442500Y-73025000D03*
X110109000Y-38862000D03*
X78422500Y-36004500D03*
X111569500Y-37973000D03*
X108267500Y-68072000D03*
X85464000Y-42418000D03*
X87376000Y-71882000D03*
X84645502Y-70612000D03*
X95250000Y-28003500D03*
X93757750Y-36258500D03*
X81851500Y-59563000D03*
X99788541Y-58570478D03*
X79057500Y-69850000D03*
X105425875Y-29987875D03*
X79057500Y-79375000D03*
X94535751Y-40325322D03*
X77152500Y-33972500D03*
X102870000Y-42545000D03*
X87344250Y-76930250D03*
X98488500Y-24479250D03*
X103314500Y-66802000D03*
X79057500Y-73025000D03*
X79057500Y-60325000D03*
X105918000Y-35494403D03*
X111442500Y-57150000D03*
X81343500Y-55067997D03*
X102203250Y-34597250D03*
X104584500Y-42989500D03*
X86866099Y-47123194D03*
X111442500Y-60325000D03*
X90106496Y-78263750D03*
X96551750Y-85090000D03*
X98107500Y-34290000D03*
X79057500Y-57150000D03*
X84645500Y-68072002D03*
X87312500Y-79533750D03*
X79057500Y-66675000D03*
X92075000Y-26352500D03*
X83788250Y-37465000D03*
X96266000Y-28003500D03*
X111442500Y-69850000D03*
X99377500Y-31877000D03*
X108902500Y-83502500D03*
X99789253Y-56554574D03*
X79057500Y-82550000D03*
X86296500Y-54049750D03*
X113093500Y-34321750D03*
X111442500Y-53975000D03*
X85153500Y-28511020D03*
X102758753Y-51720750D03*
X93091000Y-85090000D03*
X107950000Y-24479250D03*
X92709986Y-34448750D03*
X88187124Y-45867749D03*
X94586250Y-56356250D03*
X97218500Y-36290250D03*
X111474250Y-63500000D03*
X107315000Y-85090000D03*
X79057500Y-53975000D03*
X84409750Y-58007250D03*
X112045750Y-36131500D03*
X90608676Y-57493490D03*
X90106000Y-80962000D03*
X79089250Y-76200000D03*
X90106500Y-70612000D03*
X88900000Y-37052258D03*
X103187500Y-82232500D03*
X82232500Y-24479250D03*
X79089250Y-63500000D03*
X88090253Y-50355500D03*
X98488500Y-26352500D03*
X106267250Y-60055003D03*
X111474250Y-76200000D03*
D13*
X106553000Y-49371250D03*
D12*
X109914910Y-46661500D03*
X111442500Y-66675000D03*
X111442500Y-82550000D03*
X103346250Y-69342000D03*
%TO.N,+3V3*%
X101822250Y-47085250D03*
X99815112Y-36302838D03*
X96218537Y-36281385D03*
X95535756Y-40322500D03*
X92757748Y-36257704D03*
X86585250Y-28511020D03*
X85867761Y-47065526D03*
D13*
X106553000Y-47971747D03*
D12*
X89153994Y-47135500D03*
X104457500Y-31019750D03*
X84838253Y-37465000D03*
%TO.N,/RST_IN*%
X104584500Y-39179500D03*
X93122750Y-42830750D03*
X85852000Y-36258500D03*
X98440819Y-40528819D03*
%TO.N,/WCH-LinkE-R0-1v3/IAP*%
X108680250Y-33051750D03*
X98479000Y-43152509D03*
%TO.N,/TX*%
X91725750Y-48228250D03*
X96424750Y-47021750D03*
%TO.N,/RST_OUT*%
X96742250Y-56388000D03*
X97720044Y-57556294D03*
%TO.N,/USB/CC1*%
X95212250Y-33858512D03*
X101160000Y-28321004D03*
%TO.N,/USB_P*%
X95250000Y-29527500D03*
X93382746Y-32510719D03*
%TO.N,/USB_N*%
X96266000Y-29527495D03*
X94441058Y-32512443D03*
%TO.N,/USB/CC2*%
X89340000Y-28321000D03*
X94234000Y-29527498D03*
%TO.N,/SWCLK_IN*%
X107759500Y-39179500D03*
X100520500Y-37846000D03*
%TO.N,/SWDIO_IN*%
X101060250Y-41624250D03*
X99409250Y-39370000D03*
X107759500Y-41719500D03*
%TO.N,VDD*%
X101250750Y-83121500D03*
X84645500Y-65531998D03*
X86296500Y-53049747D03*
X106267250Y-59055000D03*
X87090250Y-50355500D03*
X103320750Y-64260717D03*
X90106502Y-65532000D03*
X95520553Y-85090000D03*
X102584250Y-56451500D03*
X93186250Y-56356250D03*
X100393500Y-62611000D03*
X82851503Y-59563000D03*
X81343500Y-56068000D03*
X89901568Y-58200599D03*
X102572756Y-58653744D03*
X92059803Y-85090000D03*
%TO.N,/PD0*%
X86582250Y-57850000D03*
X93313250Y-57658000D03*
%TD*%
D14*
%TO.N,+5V*%
X108997750Y-40544750D02*
X105854500Y-40544750D01*
X104584500Y-37941250D02*
X104584500Y-37909500D01*
X106918002Y-35363034D02*
X106918002Y-35494941D01*
X105441750Y-38798500D02*
X104584500Y-37941250D01*
X106249371Y-34694403D02*
X106918002Y-35363034D01*
X106553000Y-57626250D02*
X105187750Y-58991500D01*
X110714910Y-47971590D02*
X107915747Y-50770753D01*
X104584500Y-37909500D02*
X104584500Y-35772543D01*
X101300030Y-31883201D02*
X100377483Y-31883201D01*
X101758750Y-51530250D02*
X101758750Y-51720750D01*
X108997750Y-38975172D02*
X109108999Y-38863923D01*
X106553000Y-50770753D02*
X106553000Y-57626250D01*
X105187750Y-59364250D02*
X104394000Y-60158000D01*
X108997750Y-44332819D02*
X110664321Y-45999390D01*
X110714910Y-46049979D02*
X110714910Y-47971590D01*
X108997750Y-40544750D02*
X108997750Y-44332819D01*
X109108999Y-37685938D02*
X109108999Y-38863923D01*
X106918002Y-35494941D02*
X109108999Y-37685938D01*
X107915747Y-50770753D02*
X106553000Y-50770753D01*
X105586629Y-34694403D02*
X106249371Y-34694403D01*
X105854500Y-40544750D02*
X105441750Y-40132000D01*
X102518247Y-50770753D02*
X101758750Y-51530250D01*
X104886936Y-35394096D02*
X105586629Y-34694403D01*
X104886936Y-35470107D02*
X101300030Y-31883201D01*
X110664321Y-45999390D02*
X110714910Y-46049979D01*
X104584500Y-35772543D02*
X104886936Y-35470107D01*
X108997750Y-40544750D02*
X108997750Y-38975172D01*
X105187750Y-58991500D02*
X105187750Y-59364250D01*
X104886936Y-35470107D02*
X104886936Y-35394096D01*
X106553000Y-50770753D02*
X102518247Y-50770753D01*
X105441750Y-40132000D02*
X105441750Y-38798500D01*
%TO.N,+3V3*%
X90932000Y-38512750D02*
X85886003Y-38512750D01*
X105375747Y-47971747D02*
X106553000Y-47971747D01*
X103266875Y-45862875D02*
X105375747Y-47971747D01*
X90932000Y-45357494D02*
X89153994Y-47135500D01*
X95631000Y-40227256D02*
X95535756Y-40322500D01*
X103266875Y-45862875D02*
X102044500Y-47085250D01*
X90932000Y-38512750D02*
X90932000Y-32857770D01*
X95535756Y-40322500D02*
X95535756Y-39274756D01*
X96218537Y-37067963D02*
X96218537Y-36281385D01*
X95535756Y-40322500D02*
X97250256Y-42037000D01*
X95535756Y-39274756D02*
X94773750Y-38512750D01*
X85886003Y-38512750D02*
X84838253Y-37465000D01*
X92773500Y-36273456D02*
X92757748Y-36257704D01*
X90932000Y-32857770D02*
X86585250Y-28511020D01*
X97250256Y-42037000D02*
X99441000Y-42037000D01*
X99441000Y-42037000D02*
X103266875Y-45862875D01*
X90932000Y-38512750D02*
X90932000Y-45357494D01*
X92773500Y-38512750D02*
X92773500Y-36273456D01*
X94773750Y-38512750D02*
X96218537Y-37067963D01*
X90932000Y-38512750D02*
X94773750Y-38512750D01*
%TO.N,VDD*%
X102076250Y-82296000D02*
X101250750Y-83121500D01*
X103320750Y-64260717D02*
X103822500Y-63758967D01*
X96202500Y-59320303D02*
X93238447Y-56356250D01*
X103822500Y-63758967D02*
X103822500Y-62611000D01*
X89901568Y-58200599D02*
X89994459Y-58293490D01*
X92646502Y-62611000D02*
X90106502Y-65151000D01*
X96202500Y-62611000D02*
X92646502Y-62611000D01*
X103320750Y-64260717D02*
X102076250Y-65505217D01*
X84645502Y-65151000D02*
X84645500Y-65150998D01*
X96202500Y-62611000D02*
X96202500Y-59320303D01*
X89994459Y-58293490D02*
X91249010Y-58293490D01*
X102076250Y-65505217D02*
X102076250Y-82296000D01*
X90106502Y-65151000D02*
X84645502Y-65151000D01*
X91249010Y-58293490D02*
X93186250Y-56356250D01*
X100393500Y-62611000D02*
X96202500Y-62611000D01*
X93238447Y-56356250D02*
X93186250Y-56356250D01*
X103822500Y-62611000D02*
X100393500Y-62611000D01*
%TD*%
%TA.AperFunction,Conductor*%
%TO.N,VDD*%
G36*
X88918591Y-49548907D02*
G01*
X88928672Y-49557306D01*
X89566750Y-50165000D01*
X100866000Y-50165000D01*
X100924191Y-50183907D01*
X100960155Y-50233407D01*
X100965000Y-50264000D01*
X100965000Y-52387500D01*
X106053500Y-52387500D01*
X106111691Y-52406407D01*
X106147655Y-52455907D01*
X106152500Y-52486500D01*
X106152500Y-57419349D01*
X106133593Y-57477540D01*
X106123504Y-57489353D01*
X104882265Y-58730592D01*
X104859700Y-58753158D01*
X104859698Y-58753160D01*
X104848747Y-58774651D01*
X104840637Y-58787885D01*
X104826456Y-58807406D01*
X104826451Y-58807415D01*
X104818999Y-58830352D01*
X104813055Y-58844702D01*
X104802105Y-58866191D01*
X104802102Y-58866201D01*
X104798327Y-58890029D01*
X104794703Y-58905124D01*
X104787251Y-58928062D01*
X104787250Y-58928069D01*
X104787250Y-59157349D01*
X104768343Y-59215540D01*
X104758253Y-59227354D01*
X104724138Y-59261468D01*
X104669621Y-59289244D01*
X104633553Y-59288300D01*
X104544830Y-59269442D01*
X104488646Y-59257500D01*
X104299354Y-59257500D01*
X104181289Y-59282595D01*
X104114200Y-59296855D01*
X104114194Y-59296857D01*
X103941277Y-59373845D01*
X103941268Y-59373850D01*
X103788129Y-59485111D01*
X103788124Y-59485116D01*
X103661469Y-59625781D01*
X103661465Y-59625787D01*
X103566825Y-59789706D01*
X103566819Y-59789720D01*
X103508327Y-59969738D01*
X103508326Y-59969742D01*
X103508326Y-59969744D01*
X103488540Y-60158000D01*
X103494190Y-60211761D01*
X103508327Y-60346261D01*
X103566819Y-60526279D01*
X103566825Y-60526293D01*
X103625455Y-60627841D01*
X103661467Y-60690216D01*
X103661469Y-60690218D01*
X103780936Y-60822900D01*
X103788129Y-60830888D01*
X103941270Y-60942151D01*
X104114197Y-61019144D01*
X104299354Y-61058500D01*
X104299357Y-61058500D01*
X104488643Y-61058500D01*
X104488646Y-61058500D01*
X104673803Y-61019144D01*
X104846730Y-60942151D01*
X104999871Y-60830888D01*
X105126533Y-60690216D01*
X105221179Y-60526284D01*
X105279674Y-60346256D01*
X105299460Y-60158000D01*
X105288635Y-60055003D01*
X105661568Y-60055003D01*
X105682205Y-60211761D01*
X105682207Y-60211769D01*
X105742712Y-60357841D01*
X105742712Y-60357842D01*
X105742714Y-60357844D01*
X105838968Y-60483285D01*
X105964409Y-60579539D01*
X105964410Y-60579539D01*
X105964411Y-60579540D01*
X106110483Y-60640045D01*
X106110488Y-60640047D01*
X106228059Y-60655525D01*
X106267249Y-60660685D01*
X106267250Y-60660685D01*
X106267251Y-60660685D01*
X106298602Y-60656557D01*
X106424012Y-60640047D01*
X106570091Y-60579539D01*
X106695532Y-60483285D01*
X106791786Y-60357844D01*
X106852294Y-60211765D01*
X106872932Y-60055003D01*
X106852294Y-59898241D01*
X106839505Y-59867365D01*
X106791787Y-59752164D01*
X106791787Y-59752163D01*
X106695536Y-59626726D01*
X106695535Y-59626725D01*
X106695532Y-59626721D01*
X106695527Y-59626717D01*
X106695526Y-59626716D01*
X106612488Y-59562999D01*
X106570091Y-59530467D01*
X106570090Y-59530466D01*
X106570088Y-59530465D01*
X106424016Y-59469960D01*
X106424008Y-59469958D01*
X106267251Y-59449321D01*
X106267249Y-59449321D01*
X106110491Y-59469958D01*
X106110483Y-59469960D01*
X105964411Y-59530465D01*
X105964410Y-59530465D01*
X105838973Y-59626716D01*
X105838963Y-59626726D01*
X105742712Y-59752163D01*
X105742712Y-59752164D01*
X105682207Y-59898236D01*
X105682205Y-59898244D01*
X105661568Y-60055002D01*
X105661568Y-60055003D01*
X105288635Y-60055003D01*
X105279674Y-59969744D01*
X105266289Y-59928550D01*
X105266288Y-59867365D01*
X105290440Y-59827952D01*
X105378436Y-59739957D01*
X105493234Y-59625159D01*
X105493234Y-59625158D01*
X105498871Y-59619522D01*
X105498880Y-59619510D01*
X105515800Y-59602592D01*
X105526750Y-59581099D01*
X105534861Y-59567862D01*
X105549046Y-59548340D01*
X105556498Y-59525401D01*
X105562440Y-59511052D01*
X105573396Y-59489554D01*
X105577171Y-59465715D01*
X105580793Y-59450632D01*
X105588250Y-59427683D01*
X105588250Y-59300817D01*
X105588250Y-59198400D01*
X105607157Y-59140209D01*
X105617240Y-59128402D01*
X106858484Y-57887159D01*
X106858485Y-57887157D01*
X106864127Y-57881515D01*
X106864129Y-57881511D01*
X106881050Y-57864592D01*
X106892000Y-57843099D01*
X106900111Y-57829862D01*
X106914296Y-57810340D01*
X106921748Y-57787401D01*
X106927690Y-57773052D01*
X106938646Y-57751554D01*
X106942421Y-57727715D01*
X106946043Y-57712632D01*
X106953500Y-57689683D01*
X106953500Y-57562817D01*
X106953500Y-52486500D01*
X106972407Y-52428309D01*
X107021907Y-52392345D01*
X107052500Y-52387500D01*
X111866842Y-52387500D01*
X111925033Y-52406407D01*
X111960997Y-52455907D01*
X111965842Y-52486500D01*
X111965842Y-53418908D01*
X111946935Y-53477099D01*
X111897435Y-53513063D01*
X111836249Y-53513063D01*
X111806575Y-53497450D01*
X111763903Y-53464707D01*
X111745341Y-53450464D01*
X111745340Y-53450463D01*
X111745338Y-53450462D01*
X111599266Y-53389957D01*
X111599258Y-53389955D01*
X111442501Y-53369318D01*
X111442499Y-53369318D01*
X111285741Y-53389955D01*
X111285733Y-53389957D01*
X111139661Y-53450462D01*
X111139660Y-53450462D01*
X111014223Y-53546713D01*
X111014213Y-53546723D01*
X110917962Y-53672160D01*
X110917962Y-53672161D01*
X110857457Y-53818233D01*
X110857455Y-53818241D01*
X110836818Y-53974999D01*
X110836818Y-53975000D01*
X110857455Y-54131758D01*
X110857457Y-54131766D01*
X110917962Y-54277838D01*
X110917962Y-54277839D01*
X110991630Y-54373845D01*
X111014218Y-54403282D01*
X111139659Y-54499536D01*
X111139660Y-54499536D01*
X111139661Y-54499537D01*
X111215839Y-54531091D01*
X111285738Y-54560044D01*
X111393925Y-54574287D01*
X111442499Y-54580682D01*
X111442500Y-54580682D01*
X111442501Y-54580682D01*
X111491075Y-54574287D01*
X111599262Y-54560044D01*
X111745341Y-54499536D01*
X111806577Y-54452547D01*
X111864250Y-54432125D01*
X111922916Y-54449502D01*
X111960163Y-54498044D01*
X111965842Y-54531091D01*
X111965842Y-56593908D01*
X111946935Y-56652099D01*
X111897435Y-56688063D01*
X111836249Y-56688063D01*
X111806575Y-56672450D01*
X111772792Y-56646528D01*
X111745341Y-56625464D01*
X111745340Y-56625463D01*
X111745338Y-56625462D01*
X111599266Y-56564957D01*
X111599258Y-56564955D01*
X111442501Y-56544318D01*
X111442499Y-56544318D01*
X111285741Y-56564955D01*
X111285733Y-56564957D01*
X111139661Y-56625462D01*
X111139660Y-56625462D01*
X111014223Y-56721713D01*
X111014213Y-56721723D01*
X110917962Y-56847160D01*
X110917962Y-56847161D01*
X110857457Y-56993233D01*
X110857455Y-56993241D01*
X110836818Y-57149999D01*
X110836818Y-57150000D01*
X110857455Y-57306758D01*
X110857457Y-57306766D01*
X110917962Y-57452838D01*
X110917962Y-57452839D01*
X110990337Y-57547160D01*
X111014218Y-57578282D01*
X111014222Y-57578285D01*
X111014223Y-57578286D01*
X111043199Y-57600520D01*
X111139659Y-57674536D01*
X111139660Y-57674536D01*
X111139661Y-57674537D01*
X111268090Y-57727734D01*
X111285738Y-57735044D01*
X111403309Y-57750522D01*
X111442499Y-57755682D01*
X111442500Y-57755682D01*
X111442501Y-57755682D01*
X111473852Y-57751554D01*
X111599262Y-57735044D01*
X111745341Y-57674536D01*
X111806577Y-57627547D01*
X111864250Y-57607125D01*
X111922916Y-57624502D01*
X111960163Y-57673044D01*
X111965842Y-57706091D01*
X111965842Y-59768908D01*
X111946935Y-59827099D01*
X111897435Y-59863063D01*
X111836249Y-59863063D01*
X111806575Y-59847450D01*
X111772792Y-59821528D01*
X111745341Y-59800464D01*
X111745340Y-59800463D01*
X111745338Y-59800462D01*
X111599266Y-59739957D01*
X111599258Y-59739955D01*
X111442501Y-59719318D01*
X111442499Y-59719318D01*
X111285741Y-59739955D01*
X111285733Y-59739957D01*
X111139661Y-59800462D01*
X111139660Y-59800462D01*
X111014223Y-59896713D01*
X111014213Y-59896723D01*
X110917962Y-60022160D01*
X110917962Y-60022161D01*
X110857457Y-60168233D01*
X110857455Y-60168241D01*
X110836818Y-60324999D01*
X110836818Y-60325000D01*
X110857455Y-60481758D01*
X110857457Y-60481766D01*
X110917962Y-60627838D01*
X110917962Y-60627839D01*
X110965827Y-60690218D01*
X111014218Y-60753282D01*
X111139659Y-60849536D01*
X111139660Y-60849536D01*
X111139661Y-60849537D01*
X111215839Y-60881091D01*
X111285738Y-60910044D01*
X111403309Y-60925522D01*
X111442499Y-60930682D01*
X111442500Y-60930682D01*
X111442501Y-60930682D01*
X111473852Y-60926554D01*
X111599262Y-60910044D01*
X111745341Y-60849536D01*
X111806577Y-60802547D01*
X111864250Y-60782125D01*
X111922916Y-60799502D01*
X111960163Y-60848044D01*
X111965842Y-60881091D01*
X111965842Y-62919545D01*
X111946935Y-62977736D01*
X111897435Y-63013700D01*
X111836249Y-63013700D01*
X111806576Y-62998088D01*
X111777088Y-62975462D01*
X111631016Y-62914957D01*
X111631008Y-62914955D01*
X111474251Y-62894318D01*
X111474249Y-62894318D01*
X111317491Y-62914955D01*
X111317483Y-62914957D01*
X111171411Y-62975462D01*
X111171410Y-62975462D01*
X111045973Y-63071713D01*
X111045963Y-63071723D01*
X110949712Y-63197160D01*
X110949712Y-63197161D01*
X110889207Y-63343233D01*
X110889205Y-63343241D01*
X110868568Y-63499999D01*
X110868568Y-63500000D01*
X110889205Y-63656758D01*
X110889207Y-63656766D01*
X110949712Y-63802838D01*
X110949712Y-63802839D01*
X111045963Y-63928276D01*
X111045968Y-63928282D01*
X111045972Y-63928285D01*
X111045973Y-63928286D01*
X111075332Y-63950813D01*
X111171409Y-64024536D01*
X111317488Y-64085044D01*
X111435059Y-64100522D01*
X111474249Y-64105682D01*
X111474250Y-64105682D01*
X111474251Y-64105682D01*
X111505602Y-64101554D01*
X111631012Y-64085044D01*
X111777091Y-64024536D01*
X111806575Y-64001911D01*
X111864251Y-63981488D01*
X111922916Y-63998866D01*
X111960164Y-64047407D01*
X111965842Y-64080454D01*
X111965842Y-66118908D01*
X111946935Y-66177099D01*
X111897435Y-66213063D01*
X111836249Y-66213063D01*
X111806575Y-66197450D01*
X111772792Y-66171528D01*
X111745341Y-66150464D01*
X111745340Y-66150463D01*
X111745338Y-66150462D01*
X111599266Y-66089957D01*
X111599258Y-66089955D01*
X111442501Y-66069318D01*
X111442499Y-66069318D01*
X111285741Y-66089955D01*
X111285733Y-66089957D01*
X111139661Y-66150462D01*
X111139660Y-66150462D01*
X111014223Y-66246713D01*
X111014213Y-66246723D01*
X110917962Y-66372160D01*
X110917962Y-66372161D01*
X110857457Y-66518233D01*
X110857455Y-66518241D01*
X110836818Y-66674999D01*
X110836818Y-66675000D01*
X110857455Y-66831758D01*
X110857457Y-66831766D01*
X110917962Y-66977838D01*
X110917962Y-66977839D01*
X111014213Y-67103276D01*
X111014218Y-67103282D01*
X111139659Y-67199536D01*
X111139660Y-67199536D01*
X111139661Y-67199537D01*
X111213872Y-67230276D01*
X111285738Y-67260044D01*
X111403309Y-67275522D01*
X111442499Y-67280682D01*
X111442500Y-67280682D01*
X111442501Y-67280682D01*
X111473852Y-67276554D01*
X111599262Y-67260044D01*
X111745341Y-67199536D01*
X111806577Y-67152547D01*
X111864250Y-67132125D01*
X111922916Y-67149502D01*
X111960163Y-67198044D01*
X111965842Y-67231091D01*
X111965842Y-69293908D01*
X111946935Y-69352099D01*
X111897435Y-69388063D01*
X111836249Y-69388063D01*
X111806575Y-69372450D01*
X111766890Y-69341999D01*
X111745341Y-69325464D01*
X111745340Y-69325463D01*
X111745338Y-69325462D01*
X111599266Y-69264957D01*
X111599258Y-69264955D01*
X111442501Y-69244318D01*
X111442499Y-69244318D01*
X111285741Y-69264955D01*
X111285733Y-69264957D01*
X111139661Y-69325462D01*
X111139660Y-69325462D01*
X111014223Y-69421713D01*
X111014213Y-69421723D01*
X110917962Y-69547160D01*
X110917962Y-69547161D01*
X110857457Y-69693233D01*
X110857455Y-69693241D01*
X110836818Y-69849999D01*
X110836818Y-69850000D01*
X110857455Y-70006758D01*
X110857457Y-70006766D01*
X110917962Y-70152838D01*
X110917962Y-70152839D01*
X111014213Y-70278276D01*
X111014218Y-70278282D01*
X111139659Y-70374536D01*
X111139660Y-70374536D01*
X111139661Y-70374537D01*
X111215839Y-70406091D01*
X111285738Y-70435044D01*
X111403309Y-70450522D01*
X111442499Y-70455682D01*
X111442500Y-70455682D01*
X111442501Y-70455682D01*
X111473852Y-70451554D01*
X111599262Y-70435044D01*
X111745341Y-70374536D01*
X111806577Y-70327547D01*
X111864250Y-70307125D01*
X111922916Y-70324502D01*
X111960163Y-70373044D01*
X111965842Y-70406091D01*
X111965842Y-72468908D01*
X111946935Y-72527099D01*
X111897435Y-72563063D01*
X111836249Y-72563063D01*
X111806575Y-72547450D01*
X111772792Y-72521528D01*
X111745341Y-72500464D01*
X111745340Y-72500463D01*
X111745338Y-72500462D01*
X111599266Y-72439957D01*
X111599258Y-72439955D01*
X111442501Y-72419318D01*
X111442499Y-72419318D01*
X111285741Y-72439955D01*
X111285733Y-72439957D01*
X111139661Y-72500462D01*
X111139660Y-72500462D01*
X111014223Y-72596713D01*
X111014213Y-72596723D01*
X110917962Y-72722160D01*
X110917962Y-72722161D01*
X110857457Y-72868233D01*
X110857455Y-72868241D01*
X110836818Y-73024999D01*
X110836818Y-73025000D01*
X110857455Y-73181758D01*
X110857457Y-73181766D01*
X110917962Y-73327838D01*
X110917962Y-73327839D01*
X111014213Y-73453276D01*
X111014218Y-73453282D01*
X111139659Y-73549536D01*
X111139660Y-73549536D01*
X111139661Y-73549537D01*
X111215839Y-73581091D01*
X111285738Y-73610044D01*
X111403309Y-73625522D01*
X111442499Y-73630682D01*
X111442500Y-73630682D01*
X111442501Y-73630682D01*
X111473852Y-73626554D01*
X111599262Y-73610044D01*
X111745341Y-73549536D01*
X111806577Y-73502547D01*
X111864250Y-73482125D01*
X111922916Y-73499502D01*
X111960163Y-73548044D01*
X111965842Y-73581091D01*
X111965842Y-75619545D01*
X111946935Y-75677736D01*
X111897435Y-75713700D01*
X111836249Y-75713700D01*
X111806576Y-75698088D01*
X111777088Y-75675462D01*
X111631016Y-75614957D01*
X111631008Y-75614955D01*
X111474251Y-75594318D01*
X111474249Y-75594318D01*
X111317491Y-75614955D01*
X111317483Y-75614957D01*
X111171411Y-75675462D01*
X111171410Y-75675462D01*
X111045973Y-75771713D01*
X111045963Y-75771723D01*
X110949712Y-75897160D01*
X110949712Y-75897161D01*
X110889207Y-76043233D01*
X110889205Y-76043241D01*
X110868568Y-76199999D01*
X110868568Y-76200000D01*
X110889205Y-76356758D01*
X110889207Y-76356766D01*
X110949712Y-76502838D01*
X110949712Y-76502839D01*
X111045963Y-76628276D01*
X111045968Y-76628282D01*
X111045972Y-76628285D01*
X111045973Y-76628286D01*
X111075332Y-76650813D01*
X111171409Y-76724536D01*
X111171410Y-76724536D01*
X111171411Y-76724537D01*
X111306407Y-76780454D01*
X111317488Y-76785044D01*
X111435059Y-76800522D01*
X111474249Y-76805682D01*
X111474250Y-76805682D01*
X111474251Y-76805682D01*
X111505602Y-76801554D01*
X111631012Y-76785044D01*
X111777091Y-76724536D01*
X111806575Y-76701911D01*
X111864251Y-76681488D01*
X111922916Y-76698866D01*
X111960164Y-76747407D01*
X111965842Y-76780454D01*
X111965842Y-78106997D01*
X111965820Y-78348167D01*
X112001253Y-78839151D01*
X111986583Y-78898552D01*
X111939801Y-78937985D01*
X111878774Y-78942389D01*
X111842243Y-78924819D01*
X111792743Y-78886837D01*
X111745341Y-78850464D01*
X111745340Y-78850463D01*
X111745338Y-78850462D01*
X111599266Y-78789957D01*
X111599258Y-78789955D01*
X111442501Y-78769318D01*
X111442499Y-78769318D01*
X111285741Y-78789955D01*
X111285733Y-78789957D01*
X111139661Y-78850462D01*
X111139660Y-78850462D01*
X111014223Y-78946713D01*
X111014213Y-78946723D01*
X110917962Y-79072160D01*
X110917962Y-79072161D01*
X110857457Y-79218233D01*
X110857455Y-79218241D01*
X110836818Y-79374999D01*
X110836818Y-79375000D01*
X110857455Y-79531758D01*
X110857457Y-79531766D01*
X110917962Y-79677838D01*
X110917962Y-79677839D01*
X111014213Y-79803276D01*
X111014218Y-79803282D01*
X111014222Y-79803285D01*
X111014223Y-79803286D01*
X111024990Y-79811548D01*
X111139659Y-79899536D01*
X111285738Y-79960044D01*
X111403309Y-79975522D01*
X111442499Y-79980682D01*
X111442500Y-79980682D01*
X111442501Y-79980682D01*
X111473852Y-79976554D01*
X111599262Y-79960044D01*
X111745341Y-79899536D01*
X111870782Y-79803282D01*
X111967036Y-79677841D01*
X111967037Y-79677839D01*
X111970283Y-79672218D01*
X111972608Y-79673560D01*
X112004942Y-79635673D01*
X112064432Y-79621366D01*
X112120969Y-79644758D01*
X112152958Y-79696915D01*
X112153398Y-79698827D01*
X112178146Y-79811538D01*
X112178148Y-79811548D01*
X112318476Y-80284945D01*
X112492515Y-80747005D01*
X112492520Y-80747017D01*
X112699368Y-81195352D01*
X112937943Y-81627620D01*
X112937963Y-81627652D01*
X113207034Y-82041623D01*
X113207038Y-82041629D01*
X113505217Y-82435168D01*
X113787772Y-82757037D01*
X113830965Y-82806239D01*
X114005175Y-82977964D01*
X114005491Y-82978275D01*
X114007969Y-82980809D01*
X114293515Y-83283373D01*
X114298219Y-83288731D01*
X114560087Y-83609645D01*
X114564394Y-83615329D01*
X114802485Y-83954265D01*
X114806371Y-83960244D01*
X115019440Y-84315428D01*
X115022886Y-84321671D01*
X115209843Y-84691285D01*
X115212830Y-84697760D01*
X115372689Y-85079857D01*
X115375203Y-85086530D01*
X115503849Y-85469341D01*
X115507149Y-85479159D01*
X115509175Y-85485996D01*
X115612511Y-85887081D01*
X115614041Y-85894046D01*
X115688244Y-86301566D01*
X115689267Y-86308623D01*
X115733939Y-86720383D01*
X115734453Y-86727496D01*
X115748027Y-87104167D01*
X115749365Y-87141278D01*
X115749353Y-87148730D01*
X115731620Y-87600061D01*
X115731010Y-87607810D01*
X115677940Y-88056199D01*
X115676724Y-88063877D01*
X115637558Y-88260776D01*
X115607661Y-88314160D01*
X115552096Y-88339776D01*
X115492086Y-88327839D01*
X115450554Y-88282909D01*
X115441616Y-88247012D01*
X115435388Y-88136103D01*
X115435385Y-88136082D01*
X115375175Y-87781712D01*
X115375171Y-87781692D01*
X115275659Y-87436276D01*
X115138092Y-87104162D01*
X114964212Y-86789550D01*
X114920182Y-86727496D01*
X114756194Y-86496377D01*
X114516661Y-86228339D01*
X114248623Y-85988806D01*
X114248620Y-85988804D01*
X114248618Y-85988802D01*
X113955449Y-85780787D01*
X113640836Y-85606907D01*
X113640837Y-85606907D01*
X113308723Y-85469340D01*
X112963307Y-85369828D01*
X112963287Y-85369824D01*
X112608917Y-85309614D01*
X112608897Y-85309611D01*
X112250005Y-85289457D01*
X112249995Y-85289457D01*
X111891102Y-85309611D01*
X111891082Y-85309614D01*
X111536712Y-85369824D01*
X111536692Y-85369828D01*
X111191276Y-85469340D01*
X110859162Y-85606907D01*
X110544550Y-85780787D01*
X110251381Y-85988802D01*
X109983346Y-86228332D01*
X109983332Y-86228346D01*
X109743802Y-86496381D01*
X109535787Y-86789550D01*
X109361907Y-87104162D01*
X109224340Y-87436276D01*
X109124828Y-87781692D01*
X109124824Y-87781712D01*
X109064614Y-88136082D01*
X109064611Y-88136102D01*
X109044457Y-88494995D01*
X109044457Y-88495004D01*
X109064611Y-88853897D01*
X109064614Y-88853917D01*
X109124824Y-89208287D01*
X109124828Y-89208307D01*
X109224340Y-89553723D01*
X109361907Y-89885837D01*
X109535787Y-90200449D01*
X109535789Y-90200452D01*
X109743806Y-90493623D01*
X109983339Y-90761661D01*
X110251377Y-91001194D01*
X110544548Y-91209211D01*
X110544550Y-91209212D01*
X110859163Y-91383092D01*
X110859162Y-91383092D01*
X111191276Y-91520659D01*
X111536692Y-91620171D01*
X111536695Y-91620171D01*
X111536700Y-91620173D01*
X111891093Y-91680387D01*
X111891096Y-91680387D01*
X111891102Y-91680388D01*
X112249995Y-91700543D01*
X112250000Y-91700543D01*
X112250005Y-91700543D01*
X112608897Y-91680388D01*
X112608901Y-91680387D01*
X112608907Y-91680387D01*
X112963300Y-91620173D01*
X113308724Y-91520659D01*
X113640833Y-91383094D01*
X113640833Y-91383093D01*
X113643399Y-91382031D01*
X113643711Y-91382785D01*
X113701223Y-91374987D01*
X113755106Y-91403973D01*
X113781662Y-91459095D01*
X113770746Y-91519299D01*
X113750761Y-91545098D01*
X113701798Y-91590358D01*
X113695887Y-91595405D01*
X113341302Y-91874938D01*
X113335013Y-91879508D01*
X112959592Y-92130356D01*
X112952965Y-92134417D01*
X112559011Y-92355042D01*
X112552084Y-92358571D01*
X112142044Y-92547602D01*
X112134863Y-92550577D01*
X111711242Y-92706859D01*
X111703849Y-92709261D01*
X111269285Y-92831821D01*
X111261726Y-92833636D01*
X110818877Y-92921724D01*
X110811199Y-92922940D01*
X110362810Y-92976010D01*
X110355061Y-92976620D01*
X109901934Y-92994424D01*
X109898047Y-92994500D01*
X80601953Y-92994500D01*
X80598066Y-92994424D01*
X80144938Y-92976620D01*
X80137189Y-92976010D01*
X79688800Y-92922940D01*
X79681122Y-92921724D01*
X79238273Y-92833636D01*
X79230714Y-92831821D01*
X78796150Y-92709261D01*
X78788757Y-92706859D01*
X78365136Y-92550577D01*
X78357955Y-92547602D01*
X77947915Y-92358571D01*
X77940993Y-92355044D01*
X77547032Y-92134416D01*
X77540417Y-92130362D01*
X77164972Y-91879498D01*
X77158697Y-91874938D01*
X76804112Y-91595405D01*
X76798201Y-91590358D01*
X76749236Y-91545095D01*
X76719341Y-91491714D01*
X76726532Y-91430953D01*
X76768065Y-91386022D01*
X76828074Y-91374085D01*
X76856468Y-91382351D01*
X76856601Y-91382031D01*
X76859166Y-91383093D01*
X76859167Y-91383094D01*
X77121397Y-91491714D01*
X77191276Y-91520659D01*
X77536692Y-91620171D01*
X77536695Y-91620171D01*
X77536700Y-91620173D01*
X77891093Y-91680387D01*
X77891096Y-91680387D01*
X77891102Y-91680388D01*
X78249995Y-91700543D01*
X78250000Y-91700543D01*
X78250005Y-91700543D01*
X78608897Y-91680388D01*
X78608901Y-91680387D01*
X78608907Y-91680387D01*
X78963300Y-91620173D01*
X79308724Y-91520659D01*
X79640833Y-91383094D01*
X79642178Y-91382351D01*
X79825159Y-91281221D01*
X79955452Y-91209211D01*
X80248623Y-91001194D01*
X80516661Y-90761661D01*
X80756194Y-90493623D01*
X80964211Y-90200452D01*
X81138094Y-89885833D01*
X81275659Y-89553724D01*
X81375173Y-89208300D01*
X81435387Y-88853907D01*
X81454671Y-88510539D01*
X81455543Y-88495004D01*
X81455543Y-88494995D01*
X81435388Y-88136102D01*
X81435385Y-88136082D01*
X81375175Y-87781712D01*
X81375171Y-87781692D01*
X81275659Y-87436276D01*
X81138092Y-87104162D01*
X80964212Y-86789550D01*
X80920182Y-86727496D01*
X80756194Y-86496377D01*
X80516661Y-86228339D01*
X80248623Y-85988806D01*
X80248620Y-85988804D01*
X80248618Y-85988802D01*
X79955449Y-85780787D01*
X79640836Y-85606907D01*
X79640837Y-85606907D01*
X79308723Y-85469340D01*
X78963307Y-85369828D01*
X78963287Y-85369824D01*
X78608917Y-85309614D01*
X78608897Y-85309611D01*
X78250005Y-85289457D01*
X78249995Y-85289457D01*
X77891102Y-85309611D01*
X77891082Y-85309614D01*
X77536712Y-85369824D01*
X77536692Y-85369828D01*
X77191276Y-85469340D01*
X76859162Y-85606907D01*
X76544550Y-85780787D01*
X76251381Y-85988802D01*
X75983346Y-86228332D01*
X75983332Y-86228346D01*
X75743802Y-86496381D01*
X75535787Y-86789550D01*
X75361907Y-87104162D01*
X75224340Y-87436276D01*
X75124828Y-87781692D01*
X75124824Y-87781712D01*
X75064614Y-88136082D01*
X75064611Y-88136102D01*
X75058383Y-88247013D01*
X75036243Y-88304052D01*
X74984804Y-88337184D01*
X74923715Y-88333753D01*
X74876309Y-88295070D01*
X74862441Y-88260776D01*
X74823272Y-88063860D01*
X74822061Y-88056215D01*
X74768988Y-87607801D01*
X74768379Y-87600061D01*
X74750646Y-87148730D01*
X74750645Y-87148715D01*
X74750634Y-87141272D01*
X74750904Y-87133778D01*
X74765546Y-86727472D01*
X74766057Y-86720407D01*
X74810734Y-86308598D01*
X74811750Y-86301591D01*
X74885961Y-85894027D01*
X74887482Y-85887100D01*
X74990829Y-85485974D01*
X74992840Y-85479189D01*
X75123629Y-85090000D01*
X92485318Y-85090000D01*
X92505955Y-85246758D01*
X92505957Y-85246766D01*
X92566462Y-85392838D01*
X92566462Y-85392839D01*
X92625164Y-85469341D01*
X92662718Y-85518282D01*
X92788159Y-85614536D01*
X92934238Y-85675044D01*
X93051809Y-85690522D01*
X93090999Y-85695682D01*
X93091000Y-85695682D01*
X93091001Y-85695682D01*
X93122352Y-85691554D01*
X93247762Y-85675044D01*
X93393841Y-85614536D01*
X93519282Y-85518282D01*
X93615536Y-85392841D01*
X93676044Y-85246762D01*
X93696682Y-85090000D01*
X95946068Y-85090000D01*
X95966705Y-85246758D01*
X95966707Y-85246766D01*
X96027212Y-85392838D01*
X96027212Y-85392839D01*
X96085914Y-85469341D01*
X96123468Y-85518282D01*
X96248909Y-85614536D01*
X96394988Y-85675044D01*
X96512559Y-85690522D01*
X96551749Y-85695682D01*
X96551750Y-85695682D01*
X96551751Y-85695682D01*
X96583102Y-85691554D01*
X96708512Y-85675044D01*
X96854591Y-85614536D01*
X96980032Y-85518282D01*
X97076286Y-85392841D01*
X97136794Y-85246762D01*
X97157432Y-85090000D01*
X106709318Y-85090000D01*
X106729955Y-85246758D01*
X106729957Y-85246766D01*
X106790462Y-85392838D01*
X106790462Y-85392839D01*
X106849164Y-85469341D01*
X106886718Y-85518282D01*
X107012159Y-85614536D01*
X107158238Y-85675044D01*
X107275809Y-85690522D01*
X107314999Y-85695682D01*
X107315000Y-85695682D01*
X107315001Y-85695682D01*
X107346352Y-85691554D01*
X107471762Y-85675044D01*
X107617841Y-85614536D01*
X107743282Y-85518282D01*
X107839536Y-85392841D01*
X107900044Y-85246762D01*
X107920682Y-85090000D01*
X107919780Y-85083152D01*
X107900044Y-84933241D01*
X107900044Y-84933238D01*
X107839537Y-84787161D01*
X107839537Y-84787160D01*
X107743286Y-84661723D01*
X107743285Y-84661722D01*
X107743282Y-84661718D01*
X107743277Y-84661714D01*
X107743276Y-84661713D01*
X107617838Y-84565462D01*
X107471766Y-84504957D01*
X107471758Y-84504955D01*
X107315001Y-84484318D01*
X107314999Y-84484318D01*
X107158241Y-84504955D01*
X107158233Y-84504957D01*
X107012161Y-84565462D01*
X107012160Y-84565462D01*
X106886723Y-84661713D01*
X106886713Y-84661723D01*
X106790462Y-84787160D01*
X106790462Y-84787161D01*
X106729957Y-84933233D01*
X106729955Y-84933241D01*
X106709318Y-85089999D01*
X106709318Y-85090000D01*
X97157432Y-85090000D01*
X97156530Y-85083152D01*
X97136794Y-84933241D01*
X97136794Y-84933238D01*
X97076287Y-84787161D01*
X97076287Y-84787160D01*
X96980036Y-84661723D01*
X96980035Y-84661722D01*
X96980032Y-84661718D01*
X96980027Y-84661714D01*
X96980026Y-84661713D01*
X96854588Y-84565462D01*
X96708516Y-84504957D01*
X96708508Y-84504955D01*
X96551751Y-84484318D01*
X96551749Y-84484318D01*
X96394991Y-84504955D01*
X96394983Y-84504957D01*
X96248911Y-84565462D01*
X96248910Y-84565462D01*
X96123473Y-84661713D01*
X96123463Y-84661723D01*
X96027212Y-84787160D01*
X96027212Y-84787161D01*
X95966707Y-84933233D01*
X95966705Y-84933241D01*
X95946068Y-85089999D01*
X95946068Y-85090000D01*
X93696682Y-85090000D01*
X93695780Y-85083152D01*
X93676044Y-84933241D01*
X93676044Y-84933238D01*
X93615537Y-84787161D01*
X93615537Y-84787160D01*
X93519286Y-84661723D01*
X93519285Y-84661722D01*
X93519282Y-84661718D01*
X93519277Y-84661714D01*
X93519276Y-84661713D01*
X93393838Y-84565462D01*
X93247766Y-84504957D01*
X93247758Y-84504955D01*
X93091001Y-84484318D01*
X93090999Y-84484318D01*
X92934241Y-84504955D01*
X92934233Y-84504957D01*
X92788161Y-84565462D01*
X92788160Y-84565462D01*
X92662723Y-84661713D01*
X92662713Y-84661723D01*
X92566462Y-84787160D01*
X92566462Y-84787161D01*
X92505957Y-84933233D01*
X92505955Y-84933241D01*
X92485318Y-85089999D01*
X92485318Y-85090000D01*
X75123629Y-85090000D01*
X75124802Y-85086510D01*
X75127304Y-85079870D01*
X75287173Y-84697749D01*
X75290156Y-84691286D01*
X75305114Y-84661713D01*
X75477118Y-84321659D01*
X75480546Y-84315448D01*
X75693636Y-83960227D01*
X75697503Y-83954279D01*
X75935619Y-83615308D01*
X75939892Y-83609668D01*
X76027342Y-83502500D01*
X108296818Y-83502500D01*
X108317455Y-83659258D01*
X108317457Y-83659266D01*
X108377962Y-83805338D01*
X108377962Y-83805339D01*
X108377964Y-83805341D01*
X108474218Y-83930782D01*
X108599659Y-84027036D01*
X108599660Y-84027036D01*
X108599661Y-84027037D01*
X108745733Y-84087542D01*
X108745738Y-84087544D01*
X108863309Y-84103022D01*
X108902499Y-84108182D01*
X108902500Y-84108182D01*
X108902501Y-84108182D01*
X108933852Y-84104054D01*
X109059262Y-84087544D01*
X109205341Y-84027036D01*
X109330782Y-83930782D01*
X109427036Y-83805341D01*
X109487544Y-83659262D01*
X109508182Y-83502500D01*
X109487544Y-83345738D01*
X109427037Y-83199661D01*
X109427037Y-83199660D01*
X109330786Y-83074223D01*
X109330785Y-83074222D01*
X109330782Y-83074218D01*
X109330777Y-83074214D01*
X109330776Y-83074213D01*
X109209123Y-82980866D01*
X109205341Y-82977964D01*
X109205340Y-82977963D01*
X109205338Y-82977962D01*
X109059266Y-82917457D01*
X109059258Y-82917455D01*
X108902501Y-82896818D01*
X108902499Y-82896818D01*
X108745741Y-82917455D01*
X108745733Y-82917457D01*
X108599661Y-82977962D01*
X108599660Y-82977962D01*
X108474223Y-83074213D01*
X108474213Y-83074223D01*
X108377962Y-83199660D01*
X108377962Y-83199661D01*
X108317457Y-83345733D01*
X108317455Y-83345741D01*
X108296818Y-83502499D01*
X108296818Y-83502500D01*
X76027342Y-83502500D01*
X76201802Y-83288702D01*
X76206460Y-83283396D01*
X76492002Y-82980836D01*
X76494420Y-82978363D01*
X76669035Y-82806239D01*
X76893977Y-82550000D01*
X78451818Y-82550000D01*
X78472455Y-82706758D01*
X78472457Y-82706766D01*
X78532962Y-82852838D01*
X78532962Y-82852839D01*
X78629212Y-82978275D01*
X78629214Y-82978277D01*
X78629218Y-82978282D01*
X78629222Y-82978285D01*
X78629223Y-82978286D01*
X78658582Y-83000813D01*
X78754659Y-83074536D01*
X78900738Y-83135044D01*
X79018309Y-83150522D01*
X79057499Y-83155682D01*
X79057500Y-83155682D01*
X79057501Y-83155682D01*
X79088852Y-83151554D01*
X79214262Y-83135044D01*
X79360341Y-83074536D01*
X79485782Y-82978282D01*
X79485785Y-82978276D01*
X79485788Y-82978275D01*
X79548291Y-82896818D01*
X79582036Y-82852841D01*
X79642544Y-82706762D01*
X79663182Y-82550000D01*
X79642544Y-82393238D01*
X79640897Y-82389262D01*
X79582037Y-82247161D01*
X79582037Y-82247160D01*
X79570788Y-82232500D01*
X102581818Y-82232500D01*
X102602455Y-82389258D01*
X102602457Y-82389266D01*
X102662962Y-82535338D01*
X102662962Y-82535339D01*
X102662964Y-82535341D01*
X102759218Y-82660782D01*
X102884659Y-82757036D01*
X102884660Y-82757036D01*
X102884661Y-82757037D01*
X103030733Y-82817542D01*
X103030738Y-82817544D01*
X103148309Y-82833022D01*
X103187499Y-82838182D01*
X103187500Y-82838182D01*
X103187501Y-82838182D01*
X103218852Y-82834054D01*
X103344262Y-82817544D01*
X103490341Y-82757036D01*
X103615782Y-82660782D01*
X103700788Y-82550000D01*
X110836818Y-82550000D01*
X110857455Y-82706758D01*
X110857457Y-82706766D01*
X110917962Y-82852838D01*
X110917962Y-82852839D01*
X111014212Y-82978275D01*
X111014214Y-82978277D01*
X111014218Y-82978282D01*
X111014222Y-82978285D01*
X111014223Y-82978286D01*
X111043582Y-83000813D01*
X111139659Y-83074536D01*
X111285738Y-83135044D01*
X111403309Y-83150522D01*
X111442499Y-83155682D01*
X111442500Y-83155682D01*
X111442501Y-83155682D01*
X111473852Y-83151554D01*
X111599262Y-83135044D01*
X111745341Y-83074536D01*
X111870782Y-82978282D01*
X111870785Y-82978276D01*
X111870788Y-82978275D01*
X111933291Y-82896818D01*
X111967036Y-82852841D01*
X112027544Y-82706762D01*
X112048182Y-82550000D01*
X112027544Y-82393238D01*
X112025897Y-82389262D01*
X111967037Y-82247161D01*
X111967037Y-82247160D01*
X111870786Y-82121723D01*
X111870785Y-82121722D01*
X111870782Y-82121718D01*
X111870777Y-82121714D01*
X111870776Y-82121713D01*
X111799604Y-82067101D01*
X111745341Y-82025464D01*
X111745340Y-82025463D01*
X111745338Y-82025462D01*
X111599266Y-81964957D01*
X111599258Y-81964955D01*
X111442501Y-81944318D01*
X111442499Y-81944318D01*
X111285741Y-81964955D01*
X111285733Y-81964957D01*
X111139661Y-82025462D01*
X111139660Y-82025462D01*
X111014223Y-82121713D01*
X111014213Y-82121723D01*
X110917962Y-82247160D01*
X110917962Y-82247161D01*
X110857457Y-82393233D01*
X110857455Y-82393241D01*
X110836818Y-82549999D01*
X110836818Y-82550000D01*
X103700788Y-82550000D01*
X103712036Y-82535341D01*
X103772544Y-82389262D01*
X103793182Y-82232500D01*
X103772544Y-82075738D01*
X103724733Y-81960312D01*
X103712037Y-81929661D01*
X103712037Y-81929660D01*
X103615786Y-81804223D01*
X103615785Y-81804222D01*
X103615782Y-81804218D01*
X103615777Y-81804214D01*
X103615776Y-81804213D01*
X103490338Y-81707962D01*
X103344266Y-81647457D01*
X103344258Y-81647455D01*
X103187501Y-81626818D01*
X103187499Y-81626818D01*
X103030741Y-81647455D01*
X103030733Y-81647457D01*
X102884661Y-81707962D01*
X102884660Y-81707962D01*
X102759223Y-81804213D01*
X102759213Y-81804223D01*
X102662962Y-81929660D01*
X102662962Y-81929661D01*
X102602457Y-82075733D01*
X102602455Y-82075741D01*
X102581818Y-82232499D01*
X102581818Y-82232500D01*
X79570788Y-82232500D01*
X79485786Y-82121723D01*
X79485785Y-82121722D01*
X79485782Y-82121718D01*
X79485777Y-82121714D01*
X79485776Y-82121713D01*
X79414604Y-82067101D01*
X79360341Y-82025464D01*
X79360340Y-82025463D01*
X79360338Y-82025462D01*
X79214266Y-81964957D01*
X79214258Y-81964955D01*
X79057501Y-81944318D01*
X79057499Y-81944318D01*
X78900741Y-81964955D01*
X78900733Y-81964957D01*
X78754661Y-82025462D01*
X78754660Y-82025462D01*
X78629223Y-82121713D01*
X78629213Y-82121723D01*
X78532962Y-82247160D01*
X78532962Y-82247161D01*
X78472457Y-82393233D01*
X78472455Y-82393241D01*
X78451818Y-82549999D01*
X78451818Y-82550000D01*
X76893977Y-82550000D01*
X76994777Y-82435176D01*
X77292964Y-82041627D01*
X77562049Y-81627635D01*
X77800635Y-81195348D01*
X77908294Y-80962000D01*
X89500318Y-80962000D01*
X89520955Y-81118758D01*
X89520957Y-81118766D01*
X89581462Y-81264838D01*
X89581462Y-81264839D01*
X89600079Y-81289101D01*
X89677718Y-81390282D01*
X89803159Y-81486536D01*
X89949238Y-81547044D01*
X90066809Y-81562522D01*
X90105999Y-81567682D01*
X90106000Y-81567682D01*
X90106001Y-81567682D01*
X90137352Y-81563554D01*
X90262762Y-81547044D01*
X90408841Y-81486536D01*
X90534282Y-81390282D01*
X90630536Y-81264841D01*
X90691044Y-81118762D01*
X90711682Y-80962000D01*
X90691044Y-80805238D01*
X90691042Y-80805233D01*
X90630537Y-80659161D01*
X90630537Y-80659160D01*
X90534286Y-80533723D01*
X90534285Y-80533722D01*
X90534282Y-80533718D01*
X90534277Y-80533714D01*
X90534276Y-80533713D01*
X90408838Y-80437462D01*
X90262766Y-80376957D01*
X90262758Y-80376955D01*
X90106001Y-80356318D01*
X90105999Y-80356318D01*
X89949241Y-80376955D01*
X89949233Y-80376957D01*
X89803161Y-80437462D01*
X89803160Y-80437462D01*
X89677723Y-80533713D01*
X89677713Y-80533723D01*
X89581462Y-80659160D01*
X89581462Y-80659161D01*
X89520957Y-80805233D01*
X89520955Y-80805241D01*
X89500318Y-80961999D01*
X89500318Y-80962000D01*
X77908294Y-80962000D01*
X78007485Y-80747008D01*
X78181526Y-80284941D01*
X78321854Y-79811545D01*
X78346601Y-79698832D01*
X78377547Y-79646053D01*
X78433608Y-79621541D01*
X78493369Y-79634663D01*
X78527743Y-79673357D01*
X78529717Y-79672218D01*
X78532962Y-79677839D01*
X78629213Y-79803276D01*
X78629218Y-79803282D01*
X78629222Y-79803285D01*
X78629223Y-79803286D01*
X78639990Y-79811548D01*
X78754659Y-79899536D01*
X78900738Y-79960044D01*
X79018309Y-79975522D01*
X79057499Y-79980682D01*
X79057500Y-79980682D01*
X79057501Y-79980682D01*
X79088852Y-79976554D01*
X79214262Y-79960044D01*
X79360341Y-79899536D01*
X79485782Y-79803282D01*
X79582036Y-79677841D01*
X79641721Y-79533750D01*
X86706818Y-79533750D01*
X86727455Y-79690508D01*
X86727457Y-79690516D01*
X86787962Y-79836588D01*
X86787962Y-79836589D01*
X86884213Y-79962026D01*
X86884218Y-79962032D01*
X87009659Y-80058286D01*
X87155738Y-80118794D01*
X87273309Y-80134272D01*
X87312499Y-80139432D01*
X87312500Y-80139432D01*
X87312501Y-80139432D01*
X87343852Y-80135304D01*
X87469262Y-80118794D01*
X87615341Y-80058286D01*
X87740782Y-79962032D01*
X87837036Y-79836591D01*
X87897544Y-79690512D01*
X87918182Y-79533750D01*
X87897544Y-79376988D01*
X87837037Y-79230911D01*
X87837037Y-79230910D01*
X87740786Y-79105473D01*
X87740785Y-79105472D01*
X87740782Y-79105468D01*
X87740777Y-79105464D01*
X87740776Y-79105463D01*
X87615338Y-79009212D01*
X87469266Y-78948707D01*
X87469258Y-78948705D01*
X87312501Y-78928068D01*
X87312499Y-78928068D01*
X87155741Y-78948705D01*
X87155733Y-78948707D01*
X87009661Y-79009212D01*
X87009660Y-79009212D01*
X86884223Y-79105463D01*
X86884213Y-79105473D01*
X86787962Y-79230910D01*
X86787962Y-79230911D01*
X86727457Y-79376983D01*
X86727455Y-79376991D01*
X86706818Y-79533749D01*
X86706818Y-79533750D01*
X79641721Y-79533750D01*
X79642544Y-79531762D01*
X79663182Y-79375000D01*
X79642544Y-79218238D01*
X79582037Y-79072161D01*
X79582037Y-79072160D01*
X79485786Y-78946723D01*
X79485785Y-78946722D01*
X79485782Y-78946718D01*
X79485777Y-78946714D01*
X79485776Y-78946713D01*
X79414604Y-78892101D01*
X79360341Y-78850464D01*
X79360340Y-78850463D01*
X79360338Y-78850462D01*
X79214266Y-78789957D01*
X79214258Y-78789955D01*
X79057501Y-78769318D01*
X79057499Y-78769318D01*
X78900741Y-78789955D01*
X78900733Y-78789957D01*
X78754663Y-78850461D01*
X78657757Y-78924819D01*
X78600080Y-78945242D01*
X78541415Y-78927864D01*
X78504168Y-78879322D01*
X78498747Y-78839150D01*
X78528959Y-78420512D01*
X78534181Y-78348159D01*
X78534173Y-78263750D01*
X89500814Y-78263750D01*
X89521451Y-78420508D01*
X89521453Y-78420516D01*
X89581958Y-78566588D01*
X89581958Y-78566589D01*
X89581960Y-78566591D01*
X89678214Y-78692032D01*
X89803655Y-78788286D01*
X89803656Y-78788286D01*
X89803657Y-78788287D01*
X89807689Y-78789957D01*
X89949734Y-78848794D01*
X90067305Y-78864272D01*
X90106495Y-78869432D01*
X90106496Y-78869432D01*
X90106497Y-78869432D01*
X90137848Y-78865304D01*
X90263258Y-78848794D01*
X90409337Y-78788286D01*
X90534778Y-78692032D01*
X90631032Y-78566591D01*
X90691540Y-78420512D01*
X90712178Y-78263750D01*
X90691540Y-78106988D01*
X90631033Y-77960911D01*
X90631033Y-77960910D01*
X90534782Y-77835473D01*
X90534781Y-77835472D01*
X90534778Y-77835468D01*
X90534773Y-77835464D01*
X90534772Y-77835463D01*
X90409334Y-77739212D01*
X90263262Y-77678707D01*
X90263254Y-77678705D01*
X90106497Y-77658068D01*
X90106495Y-77658068D01*
X89949737Y-77678705D01*
X89949729Y-77678707D01*
X89803657Y-77739212D01*
X89803656Y-77739212D01*
X89678219Y-77835463D01*
X89678209Y-77835473D01*
X89581958Y-77960910D01*
X89581958Y-77960911D01*
X89521453Y-78106983D01*
X89521451Y-78106991D01*
X89500814Y-78263749D01*
X89500814Y-78263750D01*
X78534173Y-78263750D01*
X78534158Y-78101281D01*
X78534158Y-78035388D01*
X78534158Y-76930250D01*
X86738568Y-76930250D01*
X86759205Y-77087008D01*
X86759207Y-77087016D01*
X86819712Y-77233088D01*
X86819712Y-77233089D01*
X86819714Y-77233091D01*
X86915968Y-77358532D01*
X87041409Y-77454786D01*
X87187488Y-77515294D01*
X87305059Y-77530772D01*
X87344249Y-77535932D01*
X87344250Y-77535932D01*
X87344251Y-77535932D01*
X87375602Y-77531804D01*
X87501012Y-77515294D01*
X87647091Y-77454786D01*
X87772532Y-77358532D01*
X87868786Y-77233091D01*
X87929294Y-77087012D01*
X87949932Y-76930250D01*
X87929294Y-76773488D01*
X87879464Y-76653187D01*
X87868787Y-76627411D01*
X87868787Y-76627410D01*
X87772536Y-76501973D01*
X87772535Y-76501972D01*
X87772532Y-76501968D01*
X87772527Y-76501964D01*
X87772526Y-76501963D01*
X87647088Y-76405712D01*
X87501016Y-76345207D01*
X87501008Y-76345205D01*
X87344251Y-76324568D01*
X87344249Y-76324568D01*
X87187491Y-76345205D01*
X87187483Y-76345207D01*
X87041411Y-76405712D01*
X87041410Y-76405712D01*
X86915973Y-76501963D01*
X86915963Y-76501973D01*
X86819712Y-76627410D01*
X86819712Y-76627411D01*
X86759207Y-76773483D01*
X86759205Y-76773491D01*
X86738568Y-76930249D01*
X86738568Y-76930250D01*
X78534158Y-76930250D01*
X78534158Y-76731729D01*
X78553065Y-76673538D01*
X78602565Y-76637574D01*
X78663751Y-76637574D01*
X78693424Y-76653186D01*
X78786409Y-76724536D01*
X78786410Y-76724536D01*
X78786411Y-76724537D01*
X78921407Y-76780454D01*
X78932488Y-76785044D01*
X79050059Y-76800522D01*
X79089249Y-76805682D01*
X79089250Y-76805682D01*
X79089251Y-76805682D01*
X79120602Y-76801554D01*
X79246012Y-76785044D01*
X79392091Y-76724536D01*
X79517532Y-76628282D01*
X79613786Y-76502841D01*
X79674294Y-76356762D01*
X79694932Y-76200000D01*
X79674294Y-76043238D01*
X79613787Y-75897161D01*
X79613787Y-75897160D01*
X79517536Y-75771723D01*
X79517535Y-75771722D01*
X79517532Y-75771718D01*
X79517527Y-75771714D01*
X79517526Y-75771713D01*
X79392088Y-75675462D01*
X79246016Y-75614957D01*
X79246008Y-75614955D01*
X79089251Y-75594318D01*
X79089249Y-75594318D01*
X78932491Y-75614955D01*
X78932483Y-75614957D01*
X78786411Y-75675462D01*
X78786410Y-75675462D01*
X78693425Y-75746812D01*
X78635749Y-75767236D01*
X78577083Y-75749858D01*
X78539836Y-75701316D01*
X78534158Y-75668270D01*
X78534158Y-73581091D01*
X78553065Y-73522900D01*
X78602565Y-73486936D01*
X78663751Y-73486936D01*
X78693420Y-73502545D01*
X78754659Y-73549536D01*
X78754662Y-73549537D01*
X78754663Y-73549538D01*
X78830839Y-73581091D01*
X78900738Y-73610044D01*
X79018309Y-73625522D01*
X79057499Y-73630682D01*
X79057500Y-73630682D01*
X79057501Y-73630682D01*
X79088852Y-73626554D01*
X79214262Y-73610044D01*
X79360341Y-73549536D01*
X79485782Y-73453282D01*
X79582036Y-73327841D01*
X79642544Y-73181762D01*
X79663182Y-73025000D01*
X79642544Y-72868238D01*
X79582037Y-72722161D01*
X79582037Y-72722160D01*
X79485786Y-72596723D01*
X79485785Y-72596722D01*
X79485782Y-72596718D01*
X79485777Y-72596714D01*
X79485776Y-72596713D01*
X79414604Y-72542101D01*
X79360341Y-72500464D01*
X79360340Y-72500463D01*
X79360338Y-72500462D01*
X79214266Y-72439957D01*
X79214258Y-72439955D01*
X79057501Y-72419318D01*
X79057499Y-72419318D01*
X78900741Y-72439955D01*
X78900733Y-72439957D01*
X78754661Y-72500462D01*
X78754660Y-72500462D01*
X78693425Y-72547450D01*
X78635749Y-72567874D01*
X78577083Y-72550496D01*
X78539836Y-72501954D01*
X78534158Y-72468908D01*
X78534158Y-71882000D01*
X86770318Y-71882000D01*
X86790955Y-72038758D01*
X86790957Y-72038766D01*
X86851462Y-72184838D01*
X86851462Y-72184839D01*
X86851464Y-72184841D01*
X86947718Y-72310282D01*
X87073159Y-72406536D01*
X87219238Y-72467044D01*
X87336809Y-72482522D01*
X87375999Y-72487682D01*
X87376000Y-72487682D01*
X87376001Y-72487682D01*
X87407352Y-72483554D01*
X87532762Y-72467044D01*
X87678841Y-72406536D01*
X87804282Y-72310282D01*
X87900536Y-72184841D01*
X87961044Y-72038762D01*
X87981682Y-71882000D01*
X87961044Y-71725238D01*
X87900537Y-71579161D01*
X87900537Y-71579160D01*
X87804286Y-71453723D01*
X87804285Y-71453722D01*
X87804282Y-71453718D01*
X87804277Y-71453714D01*
X87804276Y-71453713D01*
X87678838Y-71357462D01*
X87532766Y-71296957D01*
X87532758Y-71296955D01*
X87376001Y-71276318D01*
X87375999Y-71276318D01*
X87219241Y-71296955D01*
X87219233Y-71296957D01*
X87073161Y-71357462D01*
X87073160Y-71357462D01*
X86947723Y-71453713D01*
X86947713Y-71453723D01*
X86851462Y-71579160D01*
X86851462Y-71579161D01*
X86790957Y-71725233D01*
X86790955Y-71725241D01*
X86770318Y-71881999D01*
X86770318Y-71882000D01*
X78534158Y-71882000D01*
X78534158Y-70612000D01*
X84039820Y-70612000D01*
X84060457Y-70768758D01*
X84060459Y-70768766D01*
X84120964Y-70914838D01*
X84120964Y-70914839D01*
X84120966Y-70914841D01*
X84217220Y-71040282D01*
X84342661Y-71136536D01*
X84488740Y-71197044D01*
X84606311Y-71212522D01*
X84645501Y-71217682D01*
X84645502Y-71217682D01*
X84645503Y-71217682D01*
X84676854Y-71213554D01*
X84802264Y-71197044D01*
X84948343Y-71136536D01*
X85073784Y-71040282D01*
X85170038Y-70914841D01*
X85230546Y-70768762D01*
X85251184Y-70612000D01*
X89500818Y-70612000D01*
X89521455Y-70768758D01*
X89521457Y-70768766D01*
X89581962Y-70914838D01*
X89581962Y-70914839D01*
X89581964Y-70914841D01*
X89678218Y-71040282D01*
X89803659Y-71136536D01*
X89949738Y-71197044D01*
X90067309Y-71212522D01*
X90106499Y-71217682D01*
X90106500Y-71217682D01*
X90106501Y-71217682D01*
X90137852Y-71213554D01*
X90263262Y-71197044D01*
X90409341Y-71136536D01*
X90534782Y-71040282D01*
X90631036Y-70914841D01*
X90691544Y-70768762D01*
X90712182Y-70612000D01*
X90691544Y-70455238D01*
X90658117Y-70374538D01*
X90631037Y-70309161D01*
X90631037Y-70309160D01*
X90534786Y-70183723D01*
X90534785Y-70183722D01*
X90534782Y-70183718D01*
X90534777Y-70183714D01*
X90534776Y-70183713D01*
X90409338Y-70087462D01*
X90263266Y-70026957D01*
X90263258Y-70026955D01*
X90106501Y-70006318D01*
X90106499Y-70006318D01*
X89949741Y-70026955D01*
X89949733Y-70026957D01*
X89803661Y-70087462D01*
X89803660Y-70087462D01*
X89678223Y-70183713D01*
X89678213Y-70183723D01*
X89581962Y-70309160D01*
X89581962Y-70309161D01*
X89521457Y-70455233D01*
X89521455Y-70455241D01*
X89500818Y-70611999D01*
X89500818Y-70612000D01*
X85251184Y-70612000D01*
X85230546Y-70455238D01*
X85197119Y-70374538D01*
X85170039Y-70309161D01*
X85170039Y-70309160D01*
X85073788Y-70183723D01*
X85073787Y-70183722D01*
X85073784Y-70183718D01*
X85073779Y-70183714D01*
X85073778Y-70183713D01*
X84948340Y-70087462D01*
X84802268Y-70026957D01*
X84802260Y-70026955D01*
X84645503Y-70006318D01*
X84645501Y-70006318D01*
X84488743Y-70026955D01*
X84488735Y-70026957D01*
X84342663Y-70087462D01*
X84342662Y-70087462D01*
X84217225Y-70183713D01*
X84217215Y-70183723D01*
X84120964Y-70309160D01*
X84120964Y-70309161D01*
X84060459Y-70455233D01*
X84060457Y-70455241D01*
X84039820Y-70611999D01*
X84039820Y-70612000D01*
X78534158Y-70612000D01*
X78534158Y-70406091D01*
X78553065Y-70347900D01*
X78602565Y-70311936D01*
X78663751Y-70311936D01*
X78693420Y-70327545D01*
X78754659Y-70374536D01*
X78754662Y-70374537D01*
X78754663Y-70374538D01*
X78830839Y-70406091D01*
X78900738Y-70435044D01*
X79018309Y-70450522D01*
X79057499Y-70455682D01*
X79057500Y-70455682D01*
X79057501Y-70455682D01*
X79088852Y-70451554D01*
X79214262Y-70435044D01*
X79360341Y-70374536D01*
X79485782Y-70278282D01*
X79582036Y-70152841D01*
X79642544Y-70006762D01*
X79663182Y-69850000D01*
X79642544Y-69693238D01*
X79622497Y-69644841D01*
X79582037Y-69547161D01*
X79582037Y-69547160D01*
X79485786Y-69421723D01*
X79485785Y-69421722D01*
X79485782Y-69421718D01*
X79485777Y-69421714D01*
X79485776Y-69421713D01*
X79414604Y-69367101D01*
X79381891Y-69342000D01*
X102740568Y-69342000D01*
X102761205Y-69498758D01*
X102761207Y-69498766D01*
X102821712Y-69644838D01*
X102821712Y-69644839D01*
X102917963Y-69770276D01*
X102917968Y-69770282D01*
X103043409Y-69866536D01*
X103189488Y-69927044D01*
X103307059Y-69942522D01*
X103346249Y-69947682D01*
X103346250Y-69947682D01*
X103346251Y-69947682D01*
X103377602Y-69943554D01*
X103503012Y-69927044D01*
X103649091Y-69866536D01*
X103774532Y-69770282D01*
X103870786Y-69644841D01*
X103931294Y-69498762D01*
X103951932Y-69342000D01*
X103931294Y-69185238D01*
X103870787Y-69039161D01*
X103870787Y-69039160D01*
X103774536Y-68913723D01*
X103774535Y-68913722D01*
X103774532Y-68913718D01*
X103774527Y-68913714D01*
X103774526Y-68913713D01*
X103649088Y-68817462D01*
X103503016Y-68756957D01*
X103503008Y-68756955D01*
X103346251Y-68736318D01*
X103346249Y-68736318D01*
X103189491Y-68756955D01*
X103189483Y-68756957D01*
X103043411Y-68817462D01*
X103043410Y-68817462D01*
X102917973Y-68913713D01*
X102917963Y-68913723D01*
X102821712Y-69039160D01*
X102821712Y-69039161D01*
X102761207Y-69185233D01*
X102761205Y-69185241D01*
X102740568Y-69341999D01*
X102740568Y-69342000D01*
X79381891Y-69342000D01*
X79360341Y-69325464D01*
X79360340Y-69325463D01*
X79360338Y-69325462D01*
X79214266Y-69264957D01*
X79214258Y-69264955D01*
X79057501Y-69244318D01*
X79057499Y-69244318D01*
X78900741Y-69264955D01*
X78900733Y-69264957D01*
X78754661Y-69325462D01*
X78754660Y-69325462D01*
X78693425Y-69372450D01*
X78635749Y-69392874D01*
X78577083Y-69375496D01*
X78539836Y-69326954D01*
X78534158Y-69293908D01*
X78534158Y-68072002D01*
X84039818Y-68072002D01*
X84060455Y-68228760D01*
X84060457Y-68228768D01*
X84120962Y-68374840D01*
X84120962Y-68374841D01*
X84217213Y-68500278D01*
X84217218Y-68500284D01*
X84342659Y-68596538D01*
X84488738Y-68657046D01*
X84606309Y-68672524D01*
X84645499Y-68677684D01*
X84645500Y-68677684D01*
X84645501Y-68677684D01*
X84676852Y-68673556D01*
X84802262Y-68657046D01*
X84948341Y-68596538D01*
X85073782Y-68500284D01*
X85170036Y-68374843D01*
X85230544Y-68228764D01*
X85251182Y-68072002D01*
X85251182Y-68072000D01*
X107661818Y-68072000D01*
X107682455Y-68228758D01*
X107682457Y-68228766D01*
X107742962Y-68374838D01*
X107742962Y-68374839D01*
X107839213Y-68500276D01*
X107839218Y-68500282D01*
X107964659Y-68596536D01*
X107964660Y-68596536D01*
X107964661Y-68596537D01*
X107964666Y-68596539D01*
X108110738Y-68657044D01*
X108228309Y-68672522D01*
X108267499Y-68677682D01*
X108267500Y-68677682D01*
X108267501Y-68677682D01*
X108298852Y-68673554D01*
X108424262Y-68657044D01*
X108570341Y-68596536D01*
X108695782Y-68500282D01*
X108792036Y-68374841D01*
X108852544Y-68228762D01*
X108873182Y-68072000D01*
X108852544Y-67915238D01*
X108792037Y-67769161D01*
X108792037Y-67769160D01*
X108695786Y-67643723D01*
X108695785Y-67643722D01*
X108695782Y-67643718D01*
X108695777Y-67643714D01*
X108695776Y-67643713D01*
X108624604Y-67589101D01*
X108570341Y-67547464D01*
X108570340Y-67547463D01*
X108570338Y-67547462D01*
X108424266Y-67486957D01*
X108424258Y-67486955D01*
X108267501Y-67466318D01*
X108267499Y-67466318D01*
X108110741Y-67486955D01*
X108110733Y-67486957D01*
X107964661Y-67547462D01*
X107964660Y-67547462D01*
X107839223Y-67643713D01*
X107839213Y-67643723D01*
X107742962Y-67769160D01*
X107742962Y-67769161D01*
X107682457Y-67915233D01*
X107682455Y-67915241D01*
X107661818Y-68071999D01*
X107661818Y-68072000D01*
X85251182Y-68072000D01*
X85230544Y-67915240D01*
X85170037Y-67769163D01*
X85170037Y-67769162D01*
X85073786Y-67643725D01*
X85073784Y-67643723D01*
X85073782Y-67643720D01*
X85073777Y-67643716D01*
X85073776Y-67643715D01*
X84948338Y-67547464D01*
X84802266Y-67486959D01*
X84802258Y-67486957D01*
X84645501Y-67466320D01*
X84645499Y-67466320D01*
X84488741Y-67486957D01*
X84488733Y-67486959D01*
X84342661Y-67547464D01*
X84342660Y-67547464D01*
X84217223Y-67643715D01*
X84217213Y-67643725D01*
X84120962Y-67769162D01*
X84120962Y-67769163D01*
X84060457Y-67915235D01*
X84060455Y-67915243D01*
X84039818Y-68072001D01*
X84039818Y-68072002D01*
X78534158Y-68072002D01*
X78534158Y-67231091D01*
X78553065Y-67172900D01*
X78602565Y-67136936D01*
X78663751Y-67136936D01*
X78693420Y-67152545D01*
X78754659Y-67199536D01*
X78754662Y-67199537D01*
X78754663Y-67199538D01*
X78830839Y-67231091D01*
X78900738Y-67260044D01*
X79018309Y-67275522D01*
X79057499Y-67280682D01*
X79057500Y-67280682D01*
X79057501Y-67280682D01*
X79088852Y-67276554D01*
X79214262Y-67260044D01*
X79360341Y-67199536D01*
X79485782Y-67103282D01*
X79582036Y-66977841D01*
X79642544Y-66831762D01*
X79646462Y-66802000D01*
X102708818Y-66802000D01*
X102729455Y-66958758D01*
X102729457Y-66958766D01*
X102789962Y-67104838D01*
X102789962Y-67104839D01*
X102862627Y-67199538D01*
X102886218Y-67230282D01*
X103011659Y-67326536D01*
X103157738Y-67387044D01*
X103275309Y-67402522D01*
X103314499Y-67407682D01*
X103314500Y-67407682D01*
X103314501Y-67407682D01*
X103345852Y-67403554D01*
X103471262Y-67387044D01*
X103617341Y-67326536D01*
X103742782Y-67230282D01*
X103839036Y-67104841D01*
X103899544Y-66958762D01*
X103920182Y-66802000D01*
X103899544Y-66645238D01*
X103839037Y-66499161D01*
X103839037Y-66499160D01*
X103742786Y-66373723D01*
X103742785Y-66373722D01*
X103742782Y-66373718D01*
X103742777Y-66373714D01*
X103742776Y-66373713D01*
X103617338Y-66277462D01*
X103471266Y-66216957D01*
X103471258Y-66216955D01*
X103314501Y-66196318D01*
X103314499Y-66196318D01*
X103157741Y-66216955D01*
X103157733Y-66216957D01*
X103011661Y-66277462D01*
X103011660Y-66277462D01*
X102886223Y-66373713D01*
X102886213Y-66373723D01*
X102789962Y-66499160D01*
X102789962Y-66499161D01*
X102729457Y-66645233D01*
X102729455Y-66645241D01*
X102708818Y-66801999D01*
X102708818Y-66802000D01*
X79646462Y-66802000D01*
X79663182Y-66675000D01*
X79642544Y-66518238D01*
X79582037Y-66372161D01*
X79582037Y-66372160D01*
X79485786Y-66246723D01*
X79485785Y-66246722D01*
X79485782Y-66246718D01*
X79485777Y-66246714D01*
X79485776Y-66246713D01*
X79414604Y-66192101D01*
X79360341Y-66150464D01*
X79360340Y-66150463D01*
X79360338Y-66150462D01*
X79214266Y-66089957D01*
X79214258Y-66089955D01*
X79057501Y-66069318D01*
X79057499Y-66069318D01*
X78900741Y-66089955D01*
X78900733Y-66089957D01*
X78754661Y-66150462D01*
X78754660Y-66150462D01*
X78693425Y-66197450D01*
X78635749Y-66217874D01*
X78577083Y-66200496D01*
X78539836Y-66151954D01*
X78534158Y-66118908D01*
X78534158Y-64031729D01*
X78553065Y-63973538D01*
X78602565Y-63937574D01*
X78663751Y-63937574D01*
X78693424Y-63953186D01*
X78786409Y-64024536D01*
X78932488Y-64085044D01*
X79050059Y-64100522D01*
X79089249Y-64105682D01*
X79089250Y-64105682D01*
X79089251Y-64105682D01*
X79120602Y-64101554D01*
X79246012Y-64085044D01*
X79392091Y-64024536D01*
X79517532Y-63928282D01*
X79613786Y-63802841D01*
X79674294Y-63656762D01*
X79694932Y-63500000D01*
X79674294Y-63343238D01*
X79613787Y-63197161D01*
X79613787Y-63197160D01*
X79517536Y-63071723D01*
X79517535Y-63071722D01*
X79517532Y-63071718D01*
X79517527Y-63071714D01*
X79517526Y-63071713D01*
X79392088Y-62975462D01*
X79246016Y-62914957D01*
X79246008Y-62914955D01*
X79089251Y-62894318D01*
X79089249Y-62894318D01*
X78932491Y-62914955D01*
X78932483Y-62914957D01*
X78786411Y-62975462D01*
X78786410Y-62975462D01*
X78693425Y-63046812D01*
X78635749Y-63067236D01*
X78577083Y-63049858D01*
X78539836Y-63001316D01*
X78534158Y-62968270D01*
X78534158Y-61722000D01*
X102899318Y-61722000D01*
X102919955Y-61878758D01*
X102919957Y-61878766D01*
X102980462Y-62024838D01*
X102980462Y-62024839D01*
X102980464Y-62024841D01*
X103076718Y-62150282D01*
X103202159Y-62246536D01*
X103348238Y-62307044D01*
X103465809Y-62322522D01*
X103504999Y-62327682D01*
X103505000Y-62327682D01*
X103505001Y-62327682D01*
X103536352Y-62323554D01*
X103661762Y-62307044D01*
X103807841Y-62246536D01*
X103933282Y-62150282D01*
X104029536Y-62024841D01*
X104090044Y-61878762D01*
X104110682Y-61722000D01*
X104090044Y-61565238D01*
X104029537Y-61419161D01*
X104029537Y-61419160D01*
X103933286Y-61293723D01*
X103933285Y-61293722D01*
X103933282Y-61293718D01*
X103933277Y-61293714D01*
X103933276Y-61293713D01*
X103807838Y-61197462D01*
X103661766Y-61136957D01*
X103661758Y-61136955D01*
X103505001Y-61116318D01*
X103504999Y-61116318D01*
X103348241Y-61136955D01*
X103348233Y-61136957D01*
X103202161Y-61197462D01*
X103202160Y-61197462D01*
X103076723Y-61293713D01*
X103076713Y-61293723D01*
X102980462Y-61419160D01*
X102980462Y-61419161D01*
X102919957Y-61565233D01*
X102919955Y-61565241D01*
X102899318Y-61721999D01*
X102899318Y-61722000D01*
X78534158Y-61722000D01*
X78534158Y-60881091D01*
X78553065Y-60822900D01*
X78602565Y-60786936D01*
X78663751Y-60786936D01*
X78693420Y-60802545D01*
X78754659Y-60849536D01*
X78754662Y-60849537D01*
X78754663Y-60849538D01*
X78830839Y-60881091D01*
X78900738Y-60910044D01*
X79018309Y-60925522D01*
X79057499Y-60930682D01*
X79057500Y-60930682D01*
X79057501Y-60930682D01*
X79088852Y-60926554D01*
X79214262Y-60910044D01*
X79360341Y-60849536D01*
X79485782Y-60753282D01*
X79582036Y-60627841D01*
X79642544Y-60481762D01*
X79663182Y-60325000D01*
X79642544Y-60168238D01*
X79634179Y-60148042D01*
X79582037Y-60022161D01*
X79582037Y-60022160D01*
X79485786Y-59896723D01*
X79485785Y-59896722D01*
X79485782Y-59896718D01*
X79485777Y-59896714D01*
X79485776Y-59896713D01*
X79396164Y-59827952D01*
X79360341Y-59800464D01*
X79360340Y-59800463D01*
X79360338Y-59800462D01*
X79214266Y-59739957D01*
X79214258Y-59739955D01*
X79057501Y-59719318D01*
X79057499Y-59719318D01*
X78900741Y-59739955D01*
X78900733Y-59739957D01*
X78754661Y-59800462D01*
X78754660Y-59800462D01*
X78693425Y-59847450D01*
X78635749Y-59867874D01*
X78577083Y-59850496D01*
X78539836Y-59801954D01*
X78534158Y-59768908D01*
X78534158Y-59563000D01*
X81245818Y-59563000D01*
X81266455Y-59719758D01*
X81266457Y-59719766D01*
X81326962Y-59865838D01*
X81326962Y-59865839D01*
X81406691Y-59969744D01*
X81423218Y-59991282D01*
X81548659Y-60087536D01*
X81694738Y-60148044D01*
X81812309Y-60163522D01*
X81851499Y-60168682D01*
X81851500Y-60168682D01*
X81851501Y-60168682D01*
X81882852Y-60164554D01*
X82008262Y-60148044D01*
X82154341Y-60087536D01*
X82279782Y-59991282D01*
X82376036Y-59865841D01*
X82436544Y-59719762D01*
X82457182Y-59563000D01*
X82436544Y-59406238D01*
X82436542Y-59406233D01*
X82376037Y-59260161D01*
X82376037Y-59260160D01*
X82279786Y-59134723D01*
X82279785Y-59134722D01*
X82279782Y-59134718D01*
X82279777Y-59134714D01*
X82279776Y-59134713D01*
X82154338Y-59038462D01*
X82008266Y-58977957D01*
X82008258Y-58977955D01*
X81851501Y-58957318D01*
X81851499Y-58957318D01*
X81694741Y-58977955D01*
X81694733Y-58977957D01*
X81548661Y-59038462D01*
X81548660Y-59038462D01*
X81423223Y-59134713D01*
X81423213Y-59134723D01*
X81326962Y-59260160D01*
X81326962Y-59260161D01*
X81266457Y-59406233D01*
X81266455Y-59406241D01*
X81245818Y-59562999D01*
X81245818Y-59563000D01*
X78534158Y-59563000D01*
X78534158Y-58007250D01*
X83804068Y-58007250D01*
X83824705Y-58164008D01*
X83824707Y-58164016D01*
X83885212Y-58310088D01*
X83885212Y-58310089D01*
X83981463Y-58435526D01*
X83981468Y-58435532D01*
X84106909Y-58531786D01*
X84106910Y-58531786D01*
X84106911Y-58531787D01*
X84252983Y-58592292D01*
X84252988Y-58592294D01*
X84370559Y-58607772D01*
X84409749Y-58612932D01*
X84409750Y-58612932D01*
X84409751Y-58612932D01*
X84441102Y-58608804D01*
X84566512Y-58592294D01*
X84619180Y-58570478D01*
X99182859Y-58570478D01*
X99203496Y-58727236D01*
X99203498Y-58727244D01*
X99264003Y-58873316D01*
X99264003Y-58873317D01*
X99344296Y-58977957D01*
X99360259Y-58998760D01*
X99485700Y-59095014D01*
X99485701Y-59095014D01*
X99485702Y-59095015D01*
X99581554Y-59134718D01*
X99631779Y-59155522D01*
X99749350Y-59171000D01*
X99788540Y-59176160D01*
X99788541Y-59176160D01*
X99788542Y-59176160D01*
X99819893Y-59172032D01*
X99945303Y-59155522D01*
X100091382Y-59095014D01*
X100216823Y-58998760D01*
X100313077Y-58873319D01*
X100373585Y-58727240D01*
X100394223Y-58570478D01*
X100373585Y-58413716D01*
X100357356Y-58374536D01*
X100313078Y-58267639D01*
X100313078Y-58267638D01*
X100216827Y-58142201D01*
X100216826Y-58142200D01*
X100216823Y-58142196D01*
X100216818Y-58142192D01*
X100216817Y-58142191D01*
X100091379Y-58045940D01*
X99945307Y-57985435D01*
X99945299Y-57985433D01*
X99788542Y-57964796D01*
X99788540Y-57964796D01*
X99631782Y-57985433D01*
X99631774Y-57985435D01*
X99485702Y-58045940D01*
X99485701Y-58045940D01*
X99360264Y-58142191D01*
X99360254Y-58142201D01*
X99264003Y-58267638D01*
X99264003Y-58267639D01*
X99203498Y-58413711D01*
X99203496Y-58413719D01*
X99182859Y-58570477D01*
X99182859Y-58570478D01*
X84619180Y-58570478D01*
X84712591Y-58531786D01*
X84838032Y-58435532D01*
X84934286Y-58310091D01*
X84994794Y-58164012D01*
X85015432Y-58007250D01*
X85012447Y-57984580D01*
X84999621Y-57887155D01*
X84994794Y-57850488D01*
X84994592Y-57850000D01*
X85976568Y-57850000D01*
X85997205Y-58006758D01*
X85997207Y-58006766D01*
X86057712Y-58152838D01*
X86057712Y-58152839D01*
X86145801Y-58267639D01*
X86153968Y-58278282D01*
X86279409Y-58374536D01*
X86279410Y-58374536D01*
X86279411Y-58374537D01*
X86374005Y-58413719D01*
X86425488Y-58435044D01*
X86543059Y-58450522D01*
X86582249Y-58455682D01*
X86582250Y-58455682D01*
X86582251Y-58455682D01*
X86613602Y-58451554D01*
X86739012Y-58435044D01*
X86885091Y-58374536D01*
X87010532Y-58278282D01*
X87050348Y-58226392D01*
X87100770Y-58191737D01*
X87161935Y-58193338D01*
X87207429Y-58226392D01*
X87247246Y-58278282D01*
X87372687Y-58374536D01*
X87372688Y-58374536D01*
X87372689Y-58374537D01*
X87467283Y-58413719D01*
X87518766Y-58435044D01*
X87636337Y-58450522D01*
X87675527Y-58455682D01*
X87675528Y-58455682D01*
X87675529Y-58455682D01*
X87706880Y-58451554D01*
X87832290Y-58435044D01*
X87978369Y-58374536D01*
X88103810Y-58278282D01*
X88200064Y-58152841D01*
X88260572Y-58006762D01*
X88281210Y-57850000D01*
X88260572Y-57693238D01*
X88260570Y-57693233D01*
X88200065Y-57547161D01*
X88200065Y-57547160D01*
X88158883Y-57493490D01*
X90002994Y-57493490D01*
X90023631Y-57650248D01*
X90023633Y-57650256D01*
X90084138Y-57796328D01*
X90084138Y-57796329D01*
X90180389Y-57921766D01*
X90180394Y-57921772D01*
X90305835Y-58018026D01*
X90305836Y-58018026D01*
X90305837Y-58018027D01*
X90325793Y-58026293D01*
X90451914Y-58078534D01*
X90569485Y-58094012D01*
X90608675Y-58099172D01*
X90608676Y-58099172D01*
X90608677Y-58099172D01*
X90640028Y-58095044D01*
X90765438Y-58078534D01*
X90911517Y-58018026D01*
X91036958Y-57921772D01*
X91133212Y-57796331D01*
X91190511Y-57658000D01*
X92707568Y-57658000D01*
X92728205Y-57814758D01*
X92728207Y-57814766D01*
X92788712Y-57960838D01*
X92788712Y-57960839D01*
X92880785Y-58080831D01*
X92884968Y-58086282D01*
X93010409Y-58182536D01*
X93156488Y-58243044D01*
X93274059Y-58258522D01*
X93313249Y-58263682D01*
X93313250Y-58263682D01*
X93313251Y-58263682D01*
X93344602Y-58259554D01*
X93470012Y-58243044D01*
X93616091Y-58182536D01*
X93741532Y-58086282D01*
X93837786Y-57960841D01*
X93898294Y-57814762D01*
X93918932Y-57658000D01*
X93917912Y-57650256D01*
X93908527Y-57578963D01*
X93905542Y-57556294D01*
X97114362Y-57556294D01*
X97134999Y-57713052D01*
X97135001Y-57713060D01*
X97195506Y-57859132D01*
X97195506Y-57859133D01*
X97276584Y-57964796D01*
X97291762Y-57984576D01*
X97417203Y-58080830D01*
X97417204Y-58080830D01*
X97417205Y-58080831D01*
X97563277Y-58141336D01*
X97563282Y-58141338D01*
X97680853Y-58156816D01*
X97720043Y-58161976D01*
X97720044Y-58161976D01*
X97720045Y-58161976D01*
X97751396Y-58157848D01*
X97876806Y-58141338D01*
X98022885Y-58080830D01*
X98148326Y-57984576D01*
X98244580Y-57859135D01*
X98305088Y-57713056D01*
X98312336Y-57658000D01*
X103488540Y-57658000D01*
X103506602Y-57829854D01*
X103508327Y-57846261D01*
X103566819Y-58026279D01*
X103566825Y-58026293D01*
X103639887Y-58152838D01*
X103661467Y-58190216D01*
X103661469Y-58190218D01*
X103769400Y-58310088D01*
X103788129Y-58330888D01*
X103941270Y-58442151D01*
X104114197Y-58519144D01*
X104299354Y-58558500D01*
X104299357Y-58558500D01*
X104488643Y-58558500D01*
X104488646Y-58558500D01*
X104673803Y-58519144D01*
X104846730Y-58442151D01*
X104999871Y-58330888D01*
X105126533Y-58190216D01*
X105221179Y-58026284D01*
X105279674Y-57846256D01*
X105299460Y-57658000D01*
X105279674Y-57469744D01*
X105221179Y-57289716D01*
X105221176Y-57289711D01*
X105221174Y-57289706D01*
X105140514Y-57150000D01*
X105126533Y-57125784D01*
X105060384Y-57052318D01*
X104999875Y-56985116D01*
X104999870Y-56985111D01*
X104894349Y-56908446D01*
X104846730Y-56873849D01*
X104846725Y-56873847D01*
X104846722Y-56873845D01*
X104673805Y-56796857D01*
X104673803Y-56796856D01*
X104673800Y-56796855D01*
X104673799Y-56796855D01*
X104615841Y-56784536D01*
X104488646Y-56757500D01*
X104299354Y-56757500D01*
X104181289Y-56782595D01*
X104114200Y-56796855D01*
X104114194Y-56796857D01*
X103941277Y-56873845D01*
X103941268Y-56873850D01*
X103788129Y-56985111D01*
X103788124Y-56985116D01*
X103661469Y-57125781D01*
X103661465Y-57125787D01*
X103566825Y-57289706D01*
X103566819Y-57289720D01*
X103508327Y-57469738D01*
X103508326Y-57469742D01*
X103508326Y-57469744D01*
X103488540Y-57658000D01*
X98312336Y-57658000D01*
X98325726Y-57556294D01*
X98324523Y-57547160D01*
X98320566Y-57517103D01*
X98305088Y-57399532D01*
X98286709Y-57355161D01*
X98244581Y-57253455D01*
X98244581Y-57253454D01*
X98148330Y-57128017D01*
X98148329Y-57128016D01*
X98148326Y-57128012D01*
X98148321Y-57128008D01*
X98148320Y-57128007D01*
X98076574Y-57072955D01*
X98022885Y-57031758D01*
X98022884Y-57031757D01*
X98022882Y-57031756D01*
X97876810Y-56971251D01*
X97876802Y-56971249D01*
X97720045Y-56950612D01*
X97720043Y-56950612D01*
X97563285Y-56971249D01*
X97563277Y-56971251D01*
X97417205Y-57031756D01*
X97417204Y-57031756D01*
X97291767Y-57128007D01*
X97291757Y-57128017D01*
X97195506Y-57253454D01*
X97195506Y-57253455D01*
X97135001Y-57399527D01*
X97134999Y-57399535D01*
X97114362Y-57556293D01*
X97114362Y-57556294D01*
X93905542Y-57556294D01*
X93898294Y-57501238D01*
X93888478Y-57477540D01*
X93837787Y-57355161D01*
X93837787Y-57355160D01*
X93741536Y-57229723D01*
X93741535Y-57229722D01*
X93741532Y-57229718D01*
X93741527Y-57229714D01*
X93741526Y-57229713D01*
X93616088Y-57133462D01*
X93470016Y-57072957D01*
X93470008Y-57072955D01*
X93313251Y-57052318D01*
X93313249Y-57052318D01*
X93156491Y-57072955D01*
X93156483Y-57072957D01*
X93010411Y-57133462D01*
X93010410Y-57133462D01*
X92884973Y-57229713D01*
X92884963Y-57229723D01*
X92788712Y-57355160D01*
X92788712Y-57355161D01*
X92728207Y-57501233D01*
X92728205Y-57501241D01*
X92707568Y-57657999D01*
X92707568Y-57658000D01*
X91190511Y-57658000D01*
X91193720Y-57650252D01*
X91214358Y-57493490D01*
X91193720Y-57336728D01*
X91189054Y-57325464D01*
X91133213Y-57190651D01*
X91133213Y-57190650D01*
X91036962Y-57065213D01*
X91036961Y-57065212D01*
X91036958Y-57065208D01*
X91036953Y-57065204D01*
X91036952Y-57065203D01*
X90943743Y-56993682D01*
X90911517Y-56968954D01*
X90911516Y-56968953D01*
X90911514Y-56968952D01*
X90765442Y-56908447D01*
X90765434Y-56908445D01*
X90608677Y-56887808D01*
X90608675Y-56887808D01*
X90451917Y-56908445D01*
X90451909Y-56908447D01*
X90305837Y-56968952D01*
X90305836Y-56968952D01*
X90180399Y-57065203D01*
X90180389Y-57065213D01*
X90084138Y-57190650D01*
X90084138Y-57190651D01*
X90023633Y-57336723D01*
X90023631Y-57336731D01*
X90002994Y-57493489D01*
X90002994Y-57493490D01*
X88158883Y-57493490D01*
X88103814Y-57421723D01*
X88103813Y-57421722D01*
X88103810Y-57421718D01*
X88103805Y-57421714D01*
X88103804Y-57421713D01*
X87993052Y-57336731D01*
X87978369Y-57325464D01*
X87978368Y-57325463D01*
X87978366Y-57325462D01*
X87832294Y-57264957D01*
X87832286Y-57264955D01*
X87675529Y-57244318D01*
X87675527Y-57244318D01*
X87518769Y-57264955D01*
X87518761Y-57264957D01*
X87372689Y-57325462D01*
X87372688Y-57325462D01*
X87247251Y-57421713D01*
X87247241Y-57421723D01*
X87207431Y-57473606D01*
X87157007Y-57508262D01*
X87095842Y-57506661D01*
X87050347Y-57473606D01*
X87010536Y-57421723D01*
X87010535Y-57421722D01*
X87010532Y-57421718D01*
X87010527Y-57421714D01*
X87010526Y-57421713D01*
X86899774Y-57336731D01*
X86885091Y-57325464D01*
X86885090Y-57325463D01*
X86885088Y-57325462D01*
X86739016Y-57264957D01*
X86739008Y-57264955D01*
X86582251Y-57244318D01*
X86582249Y-57244318D01*
X86425491Y-57264955D01*
X86425483Y-57264957D01*
X86279411Y-57325462D01*
X86279410Y-57325462D01*
X86153973Y-57421713D01*
X86153963Y-57421723D01*
X86057712Y-57547160D01*
X86057712Y-57547161D01*
X85997207Y-57693233D01*
X85997205Y-57693241D01*
X85976568Y-57849999D01*
X85976568Y-57850000D01*
X84994592Y-57850000D01*
X84934287Y-57704411D01*
X84934287Y-57704410D01*
X84838036Y-57578973D01*
X84838035Y-57578972D01*
X84838032Y-57578968D01*
X84838027Y-57578964D01*
X84838026Y-57578963D01*
X84736725Y-57501233D01*
X84712591Y-57482714D01*
X84712590Y-57482713D01*
X84712588Y-57482712D01*
X84566516Y-57422207D01*
X84566508Y-57422205D01*
X84409751Y-57401568D01*
X84409749Y-57401568D01*
X84252991Y-57422205D01*
X84252983Y-57422207D01*
X84106911Y-57482712D01*
X84106910Y-57482712D01*
X83981473Y-57578963D01*
X83981463Y-57578973D01*
X83885212Y-57704410D01*
X83885212Y-57704411D01*
X83824707Y-57850483D01*
X83824705Y-57850491D01*
X83804068Y-58007249D01*
X83804068Y-58007250D01*
X78534158Y-58007250D01*
X78534158Y-57706091D01*
X78553065Y-57647900D01*
X78602565Y-57611936D01*
X78663751Y-57611936D01*
X78693420Y-57627545D01*
X78754659Y-57674536D01*
X78754662Y-57674537D01*
X78754663Y-57674538D01*
X78883090Y-57727734D01*
X78900738Y-57735044D01*
X79018309Y-57750522D01*
X79057499Y-57755682D01*
X79057500Y-57755682D01*
X79057501Y-57755682D01*
X79088852Y-57751554D01*
X79214262Y-57735044D01*
X79360341Y-57674536D01*
X79485782Y-57578282D01*
X79582036Y-57452841D01*
X79642544Y-57306762D01*
X79663182Y-57150000D01*
X79642544Y-56993238D01*
X79621027Y-56941292D01*
X79582037Y-56847161D01*
X79582037Y-56847160D01*
X79485786Y-56721723D01*
X79485785Y-56721722D01*
X79485782Y-56721718D01*
X79485777Y-56721714D01*
X79485776Y-56721713D01*
X79402125Y-56657526D01*
X79360341Y-56625464D01*
X79360340Y-56625463D01*
X79360338Y-56625462D01*
X79214266Y-56564957D01*
X79214258Y-56564955D01*
X79057501Y-56544318D01*
X79057499Y-56544318D01*
X78900741Y-56564955D01*
X78900733Y-56564957D01*
X78754661Y-56625462D01*
X78754660Y-56625462D01*
X78693425Y-56672450D01*
X78635749Y-56692874D01*
X78577083Y-56675496D01*
X78539836Y-56626954D01*
X78534158Y-56593908D01*
X78534158Y-56229250D01*
X86325818Y-56229250D01*
X86346455Y-56386008D01*
X86346457Y-56386016D01*
X86406962Y-56532088D01*
X86406962Y-56532089D01*
X86499049Y-56652099D01*
X86503218Y-56657532D01*
X86503222Y-56657535D01*
X86503223Y-56657536D01*
X86526629Y-56675496D01*
X86628659Y-56753786D01*
X86628660Y-56753786D01*
X86628661Y-56753787D01*
X86732639Y-56796856D01*
X86774738Y-56814294D01*
X86892309Y-56829772D01*
X86931499Y-56834932D01*
X86931500Y-56834932D01*
X86931501Y-56834932D01*
X86962852Y-56830804D01*
X87088262Y-56814294D01*
X87234341Y-56753786D01*
X87359782Y-56657532D01*
X87456036Y-56532091D01*
X87516544Y-56386012D01*
X87520462Y-56356250D01*
X93980568Y-56356250D01*
X94001205Y-56513008D01*
X94001207Y-56513016D01*
X94061712Y-56659088D01*
X94061712Y-56659089D01*
X94157963Y-56784526D01*
X94157968Y-56784532D01*
X94283409Y-56880786D01*
X94283410Y-56880786D01*
X94283411Y-56880787D01*
X94429483Y-56941292D01*
X94429488Y-56941294D01*
X94547059Y-56956772D01*
X94586249Y-56961932D01*
X94586250Y-56961932D01*
X94586251Y-56961932D01*
X94617602Y-56957804D01*
X94743012Y-56941294D01*
X94889091Y-56880786D01*
X95014532Y-56784532D01*
X95110786Y-56659091D01*
X95171294Y-56513012D01*
X95187752Y-56388000D01*
X96136568Y-56388000D01*
X96157205Y-56544758D01*
X96157207Y-56544766D01*
X96217712Y-56690838D01*
X96217712Y-56690839D01*
X96313963Y-56816276D01*
X96313968Y-56816282D01*
X96439409Y-56912536D01*
X96585488Y-56973044D01*
X96703059Y-56988522D01*
X96742249Y-56993682D01*
X96742250Y-56993682D01*
X96742251Y-56993682D01*
X96773602Y-56989554D01*
X96899012Y-56973044D01*
X97045091Y-56912536D01*
X97170532Y-56816282D01*
X97266786Y-56690841D01*
X97323230Y-56554574D01*
X99183571Y-56554574D01*
X99204208Y-56711332D01*
X99204210Y-56711340D01*
X99264715Y-56857412D01*
X99264715Y-56857413D01*
X99352065Y-56971250D01*
X99360971Y-56982856D01*
X99360975Y-56982859D01*
X99360976Y-56982860D01*
X99374501Y-56993238D01*
X99486412Y-57079110D01*
X99486413Y-57079110D01*
X99486414Y-57079111D01*
X99604484Y-57128017D01*
X99632491Y-57139618D01*
X99750062Y-57155096D01*
X99789252Y-57160256D01*
X99789253Y-57160256D01*
X99789254Y-57160256D01*
X99820605Y-57156128D01*
X99946015Y-57139618D01*
X100092094Y-57079110D01*
X100217535Y-56982856D01*
X100313789Y-56857415D01*
X100374297Y-56711336D01*
X100394935Y-56554574D01*
X100374297Y-56397812D01*
X100369408Y-56386008D01*
X100313790Y-56251735D01*
X100313790Y-56251734D01*
X100217539Y-56126297D01*
X100217538Y-56126296D01*
X100217535Y-56126292D01*
X100217530Y-56126288D01*
X100217529Y-56126287D01*
X100146357Y-56071675D01*
X100092094Y-56030038D01*
X100092093Y-56030037D01*
X100092091Y-56030036D01*
X99946019Y-55969531D01*
X99946011Y-55969529D01*
X99789254Y-55948892D01*
X99789252Y-55948892D01*
X99632494Y-55969529D01*
X99632486Y-55969531D01*
X99486414Y-56030036D01*
X99486413Y-56030036D01*
X99360976Y-56126287D01*
X99360966Y-56126297D01*
X99264715Y-56251734D01*
X99264715Y-56251735D01*
X99204210Y-56397807D01*
X99204208Y-56397815D01*
X99183571Y-56554573D01*
X99183571Y-56554574D01*
X97323230Y-56554574D01*
X97327294Y-56544762D01*
X97347932Y-56388000D01*
X97327294Y-56231238D01*
X97266787Y-56085161D01*
X97266787Y-56085160D01*
X97170536Y-55959723D01*
X97170535Y-55959722D01*
X97170532Y-55959718D01*
X97170527Y-55959714D01*
X97170526Y-55959713D01*
X97045088Y-55863462D01*
X96899016Y-55802957D01*
X96899008Y-55802955D01*
X96742251Y-55782318D01*
X96742249Y-55782318D01*
X96585491Y-55802955D01*
X96585483Y-55802957D01*
X96439411Y-55863462D01*
X96439410Y-55863462D01*
X96313973Y-55959713D01*
X96313963Y-55959723D01*
X96217712Y-56085160D01*
X96217712Y-56085161D01*
X96157207Y-56231233D01*
X96157205Y-56231241D01*
X96136568Y-56387999D01*
X96136568Y-56388000D01*
X95187752Y-56388000D01*
X95191932Y-56356250D01*
X95171294Y-56199488D01*
X95110787Y-56053411D01*
X95110787Y-56053410D01*
X95014536Y-55927973D01*
X95014535Y-55927972D01*
X95014532Y-55927968D01*
X95014527Y-55927964D01*
X95014526Y-55927963D01*
X94943354Y-55873351D01*
X94889091Y-55831714D01*
X94889090Y-55831713D01*
X94889088Y-55831712D01*
X94743016Y-55771207D01*
X94743008Y-55771205D01*
X94586251Y-55750568D01*
X94586249Y-55750568D01*
X94429491Y-55771205D01*
X94429483Y-55771207D01*
X94283411Y-55831712D01*
X94283410Y-55831712D01*
X94157973Y-55927963D01*
X94157963Y-55927973D01*
X94061712Y-56053410D01*
X94061712Y-56053411D01*
X94001207Y-56199483D01*
X94001205Y-56199491D01*
X93980568Y-56356249D01*
X93980568Y-56356250D01*
X87520462Y-56356250D01*
X87537182Y-56229250D01*
X87516544Y-56072488D01*
X87456037Y-55926411D01*
X87456037Y-55926410D01*
X87359786Y-55800973D01*
X87359785Y-55800972D01*
X87359782Y-55800968D01*
X87359777Y-55800964D01*
X87359776Y-55800963D01*
X87234338Y-55704712D01*
X87088266Y-55644207D01*
X87088258Y-55644205D01*
X86931501Y-55623568D01*
X86931499Y-55623568D01*
X86774741Y-55644205D01*
X86774733Y-55644207D01*
X86628661Y-55704712D01*
X86628660Y-55704712D01*
X86503223Y-55800963D01*
X86503213Y-55800973D01*
X86406962Y-55926410D01*
X86406962Y-55926411D01*
X86346457Y-56072483D01*
X86346455Y-56072491D01*
X86325818Y-56229249D01*
X86325818Y-56229250D01*
X78534158Y-56229250D01*
X78534158Y-55067997D01*
X80737818Y-55067997D01*
X80758455Y-55224755D01*
X80758457Y-55224763D01*
X80818962Y-55370835D01*
X80818962Y-55370836D01*
X80818964Y-55370838D01*
X80915218Y-55496279D01*
X81040659Y-55592533D01*
X81186738Y-55653041D01*
X81304309Y-55668519D01*
X81343499Y-55673679D01*
X81343500Y-55673679D01*
X81343501Y-55673679D01*
X81374852Y-55669551D01*
X81500262Y-55653041D01*
X81646341Y-55592533D01*
X81771782Y-55496279D01*
X81868036Y-55370838D01*
X81928544Y-55224759D01*
X81937333Y-55158000D01*
X103488540Y-55158000D01*
X103495556Y-55224759D01*
X103508327Y-55346261D01*
X103566819Y-55526279D01*
X103566825Y-55526293D01*
X103634903Y-55644206D01*
X103661467Y-55690216D01*
X103661469Y-55690218D01*
X103762979Y-55802957D01*
X103788129Y-55830888D01*
X103941270Y-55942151D01*
X104114197Y-56019144D01*
X104299354Y-56058500D01*
X104299357Y-56058500D01*
X104488643Y-56058500D01*
X104488646Y-56058500D01*
X104673803Y-56019144D01*
X104846730Y-55942151D01*
X104999871Y-55830888D01*
X105126533Y-55690216D01*
X105221179Y-55526284D01*
X105279674Y-55346256D01*
X105299460Y-55158000D01*
X105279674Y-54969744D01*
X105221179Y-54789716D01*
X105221176Y-54789711D01*
X105221174Y-54789706D01*
X105143650Y-54655432D01*
X105126533Y-54625784D01*
X105041271Y-54531091D01*
X104999875Y-54485116D01*
X104999870Y-54485111D01*
X104846731Y-54373850D01*
X104846732Y-54373850D01*
X104846730Y-54373849D01*
X104846725Y-54373847D01*
X104846722Y-54373845D01*
X104673805Y-54296857D01*
X104673803Y-54296856D01*
X104673800Y-54296855D01*
X104673799Y-54296855D01*
X104638580Y-54289369D01*
X104488646Y-54257500D01*
X104299354Y-54257500D01*
X104196336Y-54279397D01*
X104114200Y-54296855D01*
X104114194Y-54296857D01*
X103941277Y-54373845D01*
X103941268Y-54373850D01*
X103788129Y-54485111D01*
X103788124Y-54485116D01*
X103661469Y-54625781D01*
X103661465Y-54625787D01*
X103566825Y-54789706D01*
X103566819Y-54789720D01*
X103508327Y-54969738D01*
X103508326Y-54969742D01*
X103508326Y-54969744D01*
X103488540Y-55158000D01*
X81937333Y-55158000D01*
X81949182Y-55067997D01*
X81928544Y-54911235D01*
X81868037Y-54765158D01*
X81868037Y-54765157D01*
X81771786Y-54639720D01*
X81771785Y-54639719D01*
X81771782Y-54639715D01*
X81771777Y-54639711D01*
X81771776Y-54639710D01*
X81646338Y-54543459D01*
X81500266Y-54482954D01*
X81500258Y-54482952D01*
X81343501Y-54462315D01*
X81343499Y-54462315D01*
X81186741Y-54482952D01*
X81186733Y-54482954D01*
X81040661Y-54543459D01*
X81040660Y-54543459D01*
X80915223Y-54639710D01*
X80915213Y-54639720D01*
X80818962Y-54765157D01*
X80818962Y-54765158D01*
X80758457Y-54911230D01*
X80758455Y-54911238D01*
X80737818Y-55067996D01*
X80737818Y-55067997D01*
X78534158Y-55067997D01*
X78534158Y-54531091D01*
X78553065Y-54472900D01*
X78602565Y-54436936D01*
X78663751Y-54436936D01*
X78693420Y-54452545D01*
X78754659Y-54499536D01*
X78754662Y-54499537D01*
X78754663Y-54499538D01*
X78830839Y-54531091D01*
X78900738Y-54560044D01*
X79008925Y-54574287D01*
X79057499Y-54580682D01*
X79057500Y-54580682D01*
X79057501Y-54580682D01*
X79106075Y-54574287D01*
X79214262Y-54560044D01*
X79360341Y-54499536D01*
X79485782Y-54403282D01*
X79582036Y-54277841D01*
X79642544Y-54131762D01*
X79653341Y-54049750D01*
X85690818Y-54049750D01*
X85711455Y-54206508D01*
X85711457Y-54206516D01*
X85771962Y-54352588D01*
X85771962Y-54352589D01*
X85832992Y-54432125D01*
X85868218Y-54478032D01*
X85868222Y-54478035D01*
X85868223Y-54478036D01*
X85877445Y-54485112D01*
X85993659Y-54574286D01*
X86139738Y-54634794D01*
X86257309Y-54650272D01*
X86296499Y-54655432D01*
X86296500Y-54655432D01*
X86296501Y-54655432D01*
X86327852Y-54651304D01*
X86453262Y-54634794D01*
X86599341Y-54574286D01*
X86724782Y-54478032D01*
X86821036Y-54352591D01*
X86881544Y-54206512D01*
X86902182Y-54049750D01*
X86881544Y-53892988D01*
X86850583Y-53818241D01*
X86821037Y-53746911D01*
X86821037Y-53746910D01*
X86724786Y-53621473D01*
X86724785Y-53621472D01*
X86724782Y-53621468D01*
X86724777Y-53621464D01*
X86724776Y-53621463D01*
X86627372Y-53546723D01*
X86599341Y-53525214D01*
X86599340Y-53525213D01*
X86599338Y-53525212D01*
X86453266Y-53464707D01*
X86453258Y-53464705D01*
X86296501Y-53444068D01*
X86296499Y-53444068D01*
X86139741Y-53464705D01*
X86139733Y-53464707D01*
X85993661Y-53525212D01*
X85993660Y-53525212D01*
X85868223Y-53621463D01*
X85868213Y-53621473D01*
X85771962Y-53746910D01*
X85771962Y-53746911D01*
X85711457Y-53892983D01*
X85711455Y-53892991D01*
X85690818Y-54049749D01*
X85690818Y-54049750D01*
X79653341Y-54049750D01*
X79663182Y-53975000D01*
X79642544Y-53818238D01*
X79582037Y-53672161D01*
X79582037Y-53672160D01*
X79485786Y-53546723D01*
X79485785Y-53546722D01*
X79485782Y-53546718D01*
X79485777Y-53546714D01*
X79485776Y-53546713D01*
X79414604Y-53492101D01*
X79360341Y-53450464D01*
X79360340Y-53450463D01*
X79360338Y-53450462D01*
X79214266Y-53389957D01*
X79214258Y-53389955D01*
X79057501Y-53369318D01*
X79057499Y-53369318D01*
X78900741Y-53389955D01*
X78900733Y-53389957D01*
X78754661Y-53450462D01*
X78754660Y-53450462D01*
X78693425Y-53497450D01*
X78635749Y-53517874D01*
X78577083Y-53500496D01*
X78539836Y-53451954D01*
X78534158Y-53418908D01*
X78534158Y-50355500D01*
X87484571Y-50355500D01*
X87505208Y-50512258D01*
X87505210Y-50512266D01*
X87565715Y-50658338D01*
X87565715Y-50658339D01*
X87565717Y-50658341D01*
X87661971Y-50783782D01*
X87787412Y-50880036D01*
X87933491Y-50940544D01*
X88051062Y-50956022D01*
X88090252Y-50961182D01*
X88090253Y-50961182D01*
X88090254Y-50961182D01*
X88121605Y-50957054D01*
X88247015Y-50940544D01*
X88393094Y-50880036D01*
X88518535Y-50783782D01*
X88614789Y-50658341D01*
X88675297Y-50512262D01*
X88695935Y-50355500D01*
X88675297Y-50198738D01*
X88614790Y-50052661D01*
X88614790Y-50052660D01*
X88518539Y-49927223D01*
X88518538Y-49927222D01*
X88518535Y-49927218D01*
X88518530Y-49927214D01*
X88518529Y-49927213D01*
X88393091Y-49830962D01*
X88247019Y-49770457D01*
X88247011Y-49770455D01*
X88090254Y-49749818D01*
X88090252Y-49749818D01*
X87933494Y-49770455D01*
X87933486Y-49770457D01*
X87787414Y-49830962D01*
X87787413Y-49830962D01*
X87661976Y-49927213D01*
X87661966Y-49927223D01*
X87565715Y-50052660D01*
X87565715Y-50052661D01*
X87505210Y-50198733D01*
X87505208Y-50198741D01*
X87484571Y-50355499D01*
X87484571Y-50355500D01*
X78534158Y-50355500D01*
X78534158Y-50264000D01*
X78553065Y-50205809D01*
X78602565Y-50169845D01*
X78633158Y-50165000D01*
X85724999Y-50165000D01*
X85725000Y-50165000D01*
X86331004Y-49558996D01*
X86385521Y-49531219D01*
X86401008Y-49530000D01*
X88860400Y-49530000D01*
X88918591Y-49548907D01*
G37*
%TD.AperFunction*%
%TD*%
%TA.AperFunction,Conductor*%
%TO.N,+3V3*%
G36*
X81704220Y-24014407D02*
G01*
X81740184Y-24063907D01*
X81740184Y-24125093D01*
X81724573Y-24154762D01*
X81707964Y-24176409D01*
X81707961Y-24176413D01*
X81647457Y-24322483D01*
X81647455Y-24322491D01*
X81626818Y-24479249D01*
X81626818Y-24479250D01*
X81647455Y-24636008D01*
X81647457Y-24636016D01*
X81707962Y-24782088D01*
X81707962Y-24782089D01*
X81804213Y-24907526D01*
X81804218Y-24907532D01*
X81929659Y-25003786D01*
X82075738Y-25064294D01*
X82193309Y-25079772D01*
X82232499Y-25084932D01*
X82232500Y-25084932D01*
X82232501Y-25084932D01*
X82263852Y-25080804D01*
X82389262Y-25064294D01*
X82535341Y-25003786D01*
X82660782Y-24907532D01*
X82757036Y-24782091D01*
X82817544Y-24636012D01*
X82838182Y-24479250D01*
X82817544Y-24322488D01*
X82817542Y-24322483D01*
X82757038Y-24176413D01*
X82757037Y-24176412D01*
X82757036Y-24176409D01*
X82740427Y-24154764D01*
X82720005Y-24097092D01*
X82737382Y-24038426D01*
X82785923Y-24001179D01*
X82818971Y-23995500D01*
X90388500Y-23995500D01*
X90446691Y-24014407D01*
X90482655Y-24063907D01*
X90487500Y-24094500D01*
X90487500Y-30797500D01*
X94932500Y-35242500D01*
X100866000Y-35242500D01*
X100924191Y-35261407D01*
X100960155Y-35310907D01*
X100965000Y-35341500D01*
X100965000Y-37231976D01*
X100946093Y-37290167D01*
X100896593Y-37326131D01*
X100835407Y-37326131D01*
X100828115Y-37323440D01*
X100677267Y-37260957D01*
X100677258Y-37260955D01*
X100520501Y-37240318D01*
X100520499Y-37240318D01*
X100363741Y-37260955D01*
X100363733Y-37260957D01*
X100217661Y-37321462D01*
X100217660Y-37321462D01*
X100092223Y-37417713D01*
X100092213Y-37417723D01*
X99995962Y-37543160D01*
X99995962Y-37543161D01*
X99935457Y-37689233D01*
X99935455Y-37689241D01*
X99914818Y-37845999D01*
X99914818Y-37846000D01*
X99935455Y-38002758D01*
X99935457Y-38002766D01*
X99995962Y-38148838D01*
X99995962Y-38148839D01*
X99996366Y-38149365D01*
X100092218Y-38274282D01*
X100217659Y-38370536D01*
X100217660Y-38370536D01*
X100217661Y-38370537D01*
X100363733Y-38431042D01*
X100363738Y-38431044D01*
X100481309Y-38446522D01*
X100520499Y-38451682D01*
X100520500Y-38451682D01*
X100520501Y-38451682D01*
X100551852Y-38447554D01*
X100677262Y-38431044D01*
X100823341Y-38370536D01*
X100823340Y-38370536D01*
X100828114Y-38368559D01*
X100889111Y-38363758D01*
X100941280Y-38395728D01*
X100964695Y-38452256D01*
X100965000Y-38460023D01*
X100965000Y-40947577D01*
X100946093Y-41005768D01*
X100903886Y-41039041D01*
X100757410Y-41099713D01*
X100631973Y-41195963D01*
X100631963Y-41195973D01*
X100535712Y-41321410D01*
X100535712Y-41321411D01*
X100475207Y-41467483D01*
X100475205Y-41467491D01*
X100454568Y-41624249D01*
X100454568Y-41624250D01*
X100475205Y-41781008D01*
X100475207Y-41781016D01*
X100535712Y-41927088D01*
X100535712Y-41927089D01*
X100631963Y-42052526D01*
X100631968Y-42052532D01*
X100757409Y-42148786D01*
X100903488Y-42209294D01*
X100903489Y-42209294D01*
X100903885Y-42209458D01*
X100950411Y-42249194D01*
X100965000Y-42300922D01*
X100965000Y-42862500D01*
X105092500Y-46990000D01*
X107533500Y-46990000D01*
X107591691Y-47008907D01*
X107627655Y-47058407D01*
X107632500Y-47089000D01*
X107632500Y-48796000D01*
X107613593Y-48854191D01*
X107564093Y-48890155D01*
X107533500Y-48895000D01*
X107249835Y-48895000D01*
X107191644Y-48876093D01*
X107179837Y-48866009D01*
X107055262Y-48741434D01*
X107055259Y-48741432D01*
X107055258Y-48741431D01*
X106902523Y-48645461D01*
X106732261Y-48585883D01*
X106732257Y-48585882D01*
X106553000Y-48565685D01*
X106373742Y-48585882D01*
X106373738Y-48585883D01*
X106203477Y-48645461D01*
X106203476Y-48645461D01*
X106050741Y-48741431D01*
X106050738Y-48741433D01*
X106050738Y-48741434D01*
X105926166Y-48866005D01*
X105871652Y-48893781D01*
X105856165Y-48895000D01*
X101917500Y-48895000D01*
X101064000Y-49748500D01*
X100993996Y-49818504D01*
X100939479Y-49846281D01*
X100923992Y-49847500D01*
X90212502Y-49847500D01*
X90154311Y-49828593D01*
X90140727Y-49816686D01*
X89566750Y-49212500D01*
X86042500Y-49212500D01*
X85506500Y-49748500D01*
X85436496Y-49818504D01*
X85381979Y-49846281D01*
X85366492Y-49847500D01*
X78633158Y-49847500D01*
X78574967Y-49828593D01*
X78539003Y-49779093D01*
X78534158Y-49748500D01*
X78534158Y-48228250D01*
X91120068Y-48228250D01*
X91140705Y-48385008D01*
X91140707Y-48385016D01*
X91201212Y-48531088D01*
X91201212Y-48531089D01*
X91243256Y-48585882D01*
X91297468Y-48656532D01*
X91422909Y-48752786D01*
X91422910Y-48752786D01*
X91422911Y-48752787D01*
X91568983Y-48813292D01*
X91568988Y-48813294D01*
X91686559Y-48828772D01*
X91725749Y-48833932D01*
X91725750Y-48833932D01*
X91725751Y-48833932D01*
X91757102Y-48829804D01*
X91882512Y-48813294D01*
X92028591Y-48752786D01*
X92154032Y-48656532D01*
X92250286Y-48531091D01*
X92310794Y-48385012D01*
X92331432Y-48228250D01*
X92310794Y-48071488D01*
X92250287Y-47925411D01*
X92250287Y-47925410D01*
X92154036Y-47799973D01*
X92154035Y-47799972D01*
X92154032Y-47799968D01*
X92154027Y-47799964D01*
X92154026Y-47799963D01*
X92061383Y-47728876D01*
X92028591Y-47703714D01*
X92028590Y-47703713D01*
X92028588Y-47703712D01*
X91882516Y-47643207D01*
X91882508Y-47643205D01*
X91725751Y-47622568D01*
X91725749Y-47622568D01*
X91568991Y-47643205D01*
X91568983Y-47643207D01*
X91422911Y-47703712D01*
X91422910Y-47703712D01*
X91297473Y-47799963D01*
X91297463Y-47799973D01*
X91201212Y-47925410D01*
X91201212Y-47925411D01*
X91140707Y-48071483D01*
X91140705Y-48071491D01*
X91120068Y-48228249D01*
X91120068Y-48228250D01*
X78534158Y-48228250D01*
X78534158Y-47123194D01*
X86260417Y-47123194D01*
X86281054Y-47279952D01*
X86281056Y-47279960D01*
X86341561Y-47426032D01*
X86341561Y-47426033D01*
X86433835Y-47546287D01*
X86437817Y-47551476D01*
X86563258Y-47647730D01*
X86709337Y-47708238D01*
X86826908Y-47723716D01*
X86866098Y-47728876D01*
X86866099Y-47728876D01*
X86866100Y-47728876D01*
X86897451Y-47724748D01*
X87022861Y-47708238D01*
X87168940Y-47647730D01*
X87294381Y-47551476D01*
X87390635Y-47426035D01*
X87451143Y-47279956D01*
X87471781Y-47123194D01*
X87458426Y-47021750D01*
X95819068Y-47021750D01*
X95839705Y-47178508D01*
X95839707Y-47178516D01*
X95900212Y-47324588D01*
X95900212Y-47324589D01*
X95996463Y-47450026D01*
X95996468Y-47450032D01*
X96121909Y-47546286D01*
X96121910Y-47546286D01*
X96121911Y-47546287D01*
X96134448Y-47551480D01*
X96267988Y-47606794D01*
X96385559Y-47622272D01*
X96424749Y-47627432D01*
X96424750Y-47627432D01*
X96424751Y-47627432D01*
X96461696Y-47622568D01*
X96581512Y-47606794D01*
X96727591Y-47546286D01*
X96853032Y-47450032D01*
X96949286Y-47324591D01*
X97009794Y-47178512D01*
X97030432Y-47021750D01*
X97009794Y-46864988D01*
X96949287Y-46718911D01*
X96949287Y-46718910D01*
X96853036Y-46593473D01*
X96853035Y-46593472D01*
X96853032Y-46593468D01*
X96853027Y-46593464D01*
X96853026Y-46593463D01*
X96727588Y-46497212D01*
X96581516Y-46436707D01*
X96581508Y-46436705D01*
X96424751Y-46416068D01*
X96424749Y-46416068D01*
X96267991Y-46436705D01*
X96267983Y-46436707D01*
X96121911Y-46497212D01*
X96121910Y-46497212D01*
X95996473Y-46593463D01*
X95996463Y-46593473D01*
X95900212Y-46718910D01*
X95900212Y-46718911D01*
X95839707Y-46864983D01*
X95839705Y-46864991D01*
X95819068Y-47021749D01*
X95819068Y-47021750D01*
X87458426Y-47021750D01*
X87451143Y-46966432D01*
X87409125Y-46864991D01*
X87390636Y-46820355D01*
X87390636Y-46820354D01*
X87294385Y-46694917D01*
X87294384Y-46694916D01*
X87294381Y-46694912D01*
X87294376Y-46694908D01*
X87294375Y-46694907D01*
X87168937Y-46598656D01*
X87022865Y-46538151D01*
X87022857Y-46538149D01*
X86866100Y-46517512D01*
X86866098Y-46517512D01*
X86709340Y-46538149D01*
X86709332Y-46538151D01*
X86563260Y-46598656D01*
X86563259Y-46598656D01*
X86437822Y-46694907D01*
X86437812Y-46694917D01*
X86341561Y-46820354D01*
X86341561Y-46820355D01*
X86281056Y-46966427D01*
X86281054Y-46966435D01*
X86260417Y-47123193D01*
X86260417Y-47123194D01*
X78534158Y-47123194D01*
X78534158Y-45867749D01*
X87581442Y-45867749D01*
X87602079Y-46024507D01*
X87602081Y-46024515D01*
X87662586Y-46170587D01*
X87662586Y-46170588D01*
X87662588Y-46170590D01*
X87758842Y-46296031D01*
X87884283Y-46392285D01*
X87884284Y-46392285D01*
X87884285Y-46392286D01*
X87991527Y-46436707D01*
X88030362Y-46452793D01*
X88147933Y-46468271D01*
X88187123Y-46473431D01*
X88187124Y-46473431D01*
X88187125Y-46473431D01*
X88218476Y-46469303D01*
X88343886Y-46452793D01*
X88489965Y-46392285D01*
X88615406Y-46296031D01*
X88711660Y-46170590D01*
X88772168Y-46024511D01*
X88792806Y-45867749D01*
X88772168Y-45710987D01*
X88711661Y-45564910D01*
X88711661Y-45564909D01*
X88615410Y-45439472D01*
X88615409Y-45439471D01*
X88615406Y-45439467D01*
X88615401Y-45439463D01*
X88615400Y-45439462D01*
X88489962Y-45343211D01*
X88343890Y-45282706D01*
X88343882Y-45282704D01*
X88187125Y-45262067D01*
X88187123Y-45262067D01*
X88030365Y-45282704D01*
X88030357Y-45282706D01*
X87884285Y-45343211D01*
X87884284Y-45343211D01*
X87758847Y-45439462D01*
X87758837Y-45439472D01*
X87662586Y-45564909D01*
X87662586Y-45564910D01*
X87602081Y-45710982D01*
X87602079Y-45710990D01*
X87581442Y-45867748D01*
X87581442Y-45867749D01*
X78534158Y-45867749D01*
X78534158Y-42418000D01*
X84858318Y-42418000D01*
X84878955Y-42574758D01*
X84878957Y-42574766D01*
X84939462Y-42720838D01*
X84939462Y-42720839D01*
X84939464Y-42720841D01*
X85035718Y-42846282D01*
X85161159Y-42942536D01*
X85161160Y-42942536D01*
X85161161Y-42942537D01*
X85289629Y-42995750D01*
X85307238Y-43003044D01*
X85424809Y-43018522D01*
X85463999Y-43023682D01*
X85464000Y-43023682D01*
X85464001Y-43023682D01*
X85495352Y-43019554D01*
X85620762Y-43003044D01*
X85766841Y-42942536D01*
X85892282Y-42846282D01*
X85904200Y-42830750D01*
X92517068Y-42830750D01*
X92537705Y-42987508D01*
X92537707Y-42987516D01*
X92598212Y-43133588D01*
X92598212Y-43133589D01*
X92611328Y-43150682D01*
X92694468Y-43259032D01*
X92819909Y-43355286D01*
X92965988Y-43415794D01*
X93083559Y-43431272D01*
X93122749Y-43436432D01*
X93122750Y-43436432D01*
X93122751Y-43436432D01*
X93154102Y-43432304D01*
X93279512Y-43415794D01*
X93425591Y-43355286D01*
X93551032Y-43259032D01*
X93632770Y-43152509D01*
X97873318Y-43152509D01*
X97893955Y-43309267D01*
X97893957Y-43309275D01*
X97954462Y-43455347D01*
X97954462Y-43455348D01*
X98050713Y-43580785D01*
X98050718Y-43580791D01*
X98176159Y-43677045D01*
X98322238Y-43737553D01*
X98439809Y-43753031D01*
X98478999Y-43758191D01*
X98479000Y-43758191D01*
X98479001Y-43758191D01*
X98510352Y-43754063D01*
X98635762Y-43737553D01*
X98781841Y-43677045D01*
X98907282Y-43580791D01*
X99003536Y-43455350D01*
X99064044Y-43309271D01*
X99084682Y-43152509D01*
X99084441Y-43150682D01*
X99073758Y-43069536D01*
X99064044Y-42995747D01*
X99003537Y-42849670D01*
X99003537Y-42849669D01*
X98907286Y-42724232D01*
X98907285Y-42724231D01*
X98907282Y-42724227D01*
X98907277Y-42724223D01*
X98907276Y-42724222D01*
X98781838Y-42627971D01*
X98635766Y-42567466D01*
X98635758Y-42567464D01*
X98479001Y-42546827D01*
X98478999Y-42546827D01*
X98322241Y-42567464D01*
X98322233Y-42567466D01*
X98176161Y-42627971D01*
X98176160Y-42627971D01*
X98050723Y-42724222D01*
X98050713Y-42724232D01*
X97954462Y-42849669D01*
X97954462Y-42849670D01*
X97893957Y-42995742D01*
X97893955Y-42995750D01*
X97873318Y-43152508D01*
X97873318Y-43152509D01*
X93632770Y-43152509D01*
X93647286Y-43133591D01*
X93707794Y-42987512D01*
X93728432Y-42830750D01*
X93707794Y-42673988D01*
X93647287Y-42527911D01*
X93647287Y-42527910D01*
X93551036Y-42402473D01*
X93551035Y-42402472D01*
X93551032Y-42402468D01*
X93551027Y-42402464D01*
X93551026Y-42402463D01*
X93479854Y-42347851D01*
X93425591Y-42306214D01*
X93425590Y-42306213D01*
X93425588Y-42306212D01*
X93279516Y-42245707D01*
X93279508Y-42245705D01*
X93122751Y-42225068D01*
X93122749Y-42225068D01*
X92965991Y-42245705D01*
X92965983Y-42245707D01*
X92819911Y-42306212D01*
X92819910Y-42306212D01*
X92694473Y-42402463D01*
X92694463Y-42402473D01*
X92598212Y-42527910D01*
X92598212Y-42527911D01*
X92537707Y-42673983D01*
X92537705Y-42673991D01*
X92517068Y-42830749D01*
X92517068Y-42830750D01*
X85904200Y-42830750D01*
X85988536Y-42720841D01*
X86049044Y-42574762D01*
X86069682Y-42418000D01*
X86049044Y-42261238D01*
X86042611Y-42245707D01*
X85988537Y-42115161D01*
X85988537Y-42115160D01*
X85892286Y-41989723D01*
X85892285Y-41989722D01*
X85892282Y-41989718D01*
X85892277Y-41989714D01*
X85892276Y-41989713D01*
X85766838Y-41893462D01*
X85620766Y-41832957D01*
X85620758Y-41832955D01*
X85464001Y-41812318D01*
X85463999Y-41812318D01*
X85307241Y-41832955D01*
X85307233Y-41832957D01*
X85161161Y-41893462D01*
X85161160Y-41893462D01*
X85035723Y-41989713D01*
X85035713Y-41989723D01*
X84939462Y-42115160D01*
X84939462Y-42115161D01*
X84878957Y-42261233D01*
X84878955Y-42261241D01*
X84858318Y-42417999D01*
X84858318Y-42418000D01*
X78534158Y-42418000D01*
X78534158Y-40325322D01*
X93930069Y-40325322D01*
X93950706Y-40482080D01*
X93950708Y-40482088D01*
X94011213Y-40628160D01*
X94011213Y-40628161D01*
X94011215Y-40628163D01*
X94107469Y-40753604D01*
X94232910Y-40849858D01*
X94232911Y-40849858D01*
X94232912Y-40849859D01*
X94378984Y-40910364D01*
X94378989Y-40910366D01*
X94496560Y-40925844D01*
X94535750Y-40931004D01*
X94535751Y-40931004D01*
X94535752Y-40931004D01*
X94567103Y-40926876D01*
X94692513Y-40910366D01*
X94838592Y-40849858D01*
X94964033Y-40753604D01*
X95060287Y-40628163D01*
X95101437Y-40528819D01*
X97835137Y-40528819D01*
X97855774Y-40685577D01*
X97855776Y-40685585D01*
X97916281Y-40831657D01*
X97916281Y-40831658D01*
X97992512Y-40931004D01*
X98012537Y-40957101D01*
X98137978Y-41053355D01*
X98284057Y-41113863D01*
X98401628Y-41129341D01*
X98440818Y-41134501D01*
X98440819Y-41134501D01*
X98440820Y-41134501D01*
X98472171Y-41130373D01*
X98597581Y-41113863D01*
X98743660Y-41053355D01*
X98869101Y-40957101D01*
X98965355Y-40831660D01*
X99025863Y-40685581D01*
X99046501Y-40528819D01*
X99025863Y-40372057D01*
X98998670Y-40306408D01*
X98965356Y-40225980D01*
X98965356Y-40225979D01*
X98869105Y-40100542D01*
X98869104Y-40100541D01*
X98869101Y-40100537D01*
X98869096Y-40100533D01*
X98869095Y-40100532D01*
X98743657Y-40004281D01*
X98597585Y-39943776D01*
X98597577Y-39943774D01*
X98440820Y-39923137D01*
X98440818Y-39923137D01*
X98284060Y-39943774D01*
X98284052Y-39943776D01*
X98137980Y-40004281D01*
X98137979Y-40004281D01*
X98012542Y-40100532D01*
X98012532Y-40100542D01*
X97916281Y-40225979D01*
X97916281Y-40225980D01*
X97855776Y-40372052D01*
X97855774Y-40372060D01*
X97835137Y-40528818D01*
X97835137Y-40528819D01*
X95101437Y-40528819D01*
X95120795Y-40482084D01*
X95141433Y-40325322D01*
X95120795Y-40168560D01*
X95116878Y-40159104D01*
X95060288Y-40022483D01*
X95060288Y-40022482D01*
X94964037Y-39897045D01*
X94964036Y-39897044D01*
X94964033Y-39897040D01*
X94964028Y-39897036D01*
X94964027Y-39897035D01*
X94838589Y-39800784D01*
X94692517Y-39740279D01*
X94692509Y-39740277D01*
X94535752Y-39719640D01*
X94535750Y-39719640D01*
X94378992Y-39740277D01*
X94378984Y-39740279D01*
X94232912Y-39800784D01*
X94232911Y-39800784D01*
X94107474Y-39897035D01*
X94107464Y-39897045D01*
X94011213Y-40022482D01*
X94011213Y-40022483D01*
X93950708Y-40168555D01*
X93950706Y-40168563D01*
X93930069Y-40325321D01*
X93930069Y-40325322D01*
X78534158Y-40325322D01*
X78534158Y-39370000D01*
X98803568Y-39370000D01*
X98824205Y-39526758D01*
X98824207Y-39526766D01*
X98884712Y-39672838D01*
X98884712Y-39672839D01*
X98955080Y-39764544D01*
X98980968Y-39798282D01*
X98980972Y-39798285D01*
X98980973Y-39798286D01*
X98984231Y-39800786D01*
X99106409Y-39894536D01*
X99106410Y-39894536D01*
X99106411Y-39894537D01*
X99252483Y-39955042D01*
X99252488Y-39955044D01*
X99370059Y-39970522D01*
X99409249Y-39975682D01*
X99409250Y-39975682D01*
X99409251Y-39975682D01*
X99440602Y-39971554D01*
X99566012Y-39955044D01*
X99712091Y-39894536D01*
X99837532Y-39798282D01*
X99933786Y-39672841D01*
X99994294Y-39526762D01*
X100014932Y-39370000D01*
X99994294Y-39213238D01*
X99933787Y-39067161D01*
X99933787Y-39067160D01*
X99837536Y-38941723D01*
X99837535Y-38941722D01*
X99837532Y-38941718D01*
X99837527Y-38941714D01*
X99837526Y-38941713D01*
X99712088Y-38845462D01*
X99566016Y-38784957D01*
X99566008Y-38784955D01*
X99409251Y-38764318D01*
X99409249Y-38764318D01*
X99252491Y-38784955D01*
X99252483Y-38784957D01*
X99106411Y-38845462D01*
X99106410Y-38845462D01*
X98980973Y-38941713D01*
X98980963Y-38941723D01*
X98884712Y-39067160D01*
X98884712Y-39067161D01*
X98824207Y-39213233D01*
X98824205Y-39213241D01*
X98803568Y-39369999D01*
X98803568Y-39370000D01*
X78534158Y-39370000D01*
X78534158Y-38876659D01*
X78534161Y-38845462D01*
X78534180Y-38641841D01*
X78498639Y-38149365D01*
X78427741Y-37660725D01*
X78384767Y-37465000D01*
X83182568Y-37465000D01*
X83203205Y-37621758D01*
X83203207Y-37621766D01*
X83263712Y-37767838D01*
X83263712Y-37767839D01*
X83359963Y-37893276D01*
X83359968Y-37893282D01*
X83485409Y-37989536D01*
X83485410Y-37989536D01*
X83485411Y-37989537D01*
X83517339Y-38002762D01*
X83631488Y-38050044D01*
X83749059Y-38065522D01*
X83788249Y-38070682D01*
X83788250Y-38070682D01*
X83788251Y-38070682D01*
X83821823Y-38066262D01*
X83945012Y-38050044D01*
X84091091Y-37989536D01*
X84216532Y-37893282D01*
X84312786Y-37767841D01*
X84373294Y-37621762D01*
X84393932Y-37465000D01*
X84373294Y-37308238D01*
X84332198Y-37209024D01*
X84312787Y-37162161D01*
X84312787Y-37162160D01*
X84228456Y-37052258D01*
X88294318Y-37052258D01*
X88314955Y-37209016D01*
X88314957Y-37209024D01*
X88375462Y-37355096D01*
X88375462Y-37355097D01*
X88471713Y-37480534D01*
X88471718Y-37480540D01*
X88471722Y-37480543D01*
X88471723Y-37480544D01*
X88501082Y-37503071D01*
X88597159Y-37576794D01*
X88597160Y-37576794D01*
X88597161Y-37576795D01*
X88705721Y-37621762D01*
X88743238Y-37637302D01*
X88860809Y-37652780D01*
X88899999Y-37657940D01*
X88900000Y-37657940D01*
X88900001Y-37657940D01*
X88931352Y-37653812D01*
X89056762Y-37637302D01*
X89202841Y-37576794D01*
X89328282Y-37480540D01*
X89424536Y-37355099D01*
X89485044Y-37209020D01*
X89505682Y-37052258D01*
X89503635Y-37036713D01*
X89485044Y-36895499D01*
X89485044Y-36895496D01*
X89438462Y-36783037D01*
X89424537Y-36749419D01*
X89424537Y-36749418D01*
X89328286Y-36623981D01*
X89328285Y-36623980D01*
X89328282Y-36623976D01*
X89328277Y-36623972D01*
X89328276Y-36623971D01*
X89238410Y-36555015D01*
X89202841Y-36527722D01*
X89202840Y-36527721D01*
X89202838Y-36527720D01*
X89056766Y-36467215D01*
X89056758Y-36467213D01*
X88900001Y-36446576D01*
X88899999Y-36446576D01*
X88743241Y-36467213D01*
X88743233Y-36467215D01*
X88597161Y-36527720D01*
X88597160Y-36527720D01*
X88471723Y-36623971D01*
X88471713Y-36623981D01*
X88375462Y-36749418D01*
X88375462Y-36749419D01*
X88314957Y-36895491D01*
X88314955Y-36895499D01*
X88294318Y-37052257D01*
X88294318Y-37052258D01*
X84228456Y-37052258D01*
X84216536Y-37036723D01*
X84216535Y-37036722D01*
X84216532Y-37036718D01*
X84216527Y-37036714D01*
X84216526Y-37036713D01*
X84091088Y-36940462D01*
X83945016Y-36879957D01*
X83945008Y-36879955D01*
X83788251Y-36859318D01*
X83788249Y-36859318D01*
X83631491Y-36879955D01*
X83631483Y-36879957D01*
X83485411Y-36940462D01*
X83485410Y-36940462D01*
X83359973Y-37036713D01*
X83359963Y-37036723D01*
X83263712Y-37162160D01*
X83263712Y-37162161D01*
X83203207Y-37308233D01*
X83203205Y-37308241D01*
X83182568Y-37464999D01*
X83182568Y-37465000D01*
X78384767Y-37465000D01*
X78321853Y-37178456D01*
X78185807Y-36719505D01*
X78187397Y-36658343D01*
X78224635Y-36609794D01*
X78283297Y-36592404D01*
X78293641Y-36593217D01*
X78380283Y-36604624D01*
X78422499Y-36610182D01*
X78422500Y-36610182D01*
X78422501Y-36610182D01*
X78453852Y-36606054D01*
X78579262Y-36589544D01*
X78725341Y-36529036D01*
X78850782Y-36432782D01*
X78947036Y-36307341D01*
X78967267Y-36258500D01*
X85246318Y-36258500D01*
X85266955Y-36415258D01*
X85266957Y-36415266D01*
X85327462Y-36561338D01*
X85327462Y-36561339D01*
X85375525Y-36623976D01*
X85423718Y-36686782D01*
X85549159Y-36783036D01*
X85549160Y-36783036D01*
X85549161Y-36783037D01*
X85654981Y-36826869D01*
X85695238Y-36843544D01*
X85812809Y-36859022D01*
X85851999Y-36864182D01*
X85852000Y-36864182D01*
X85852001Y-36864182D01*
X85888946Y-36859318D01*
X86008762Y-36843544D01*
X86154841Y-36783036D01*
X86280282Y-36686782D01*
X86376536Y-36561341D01*
X86437044Y-36415262D01*
X86457682Y-36258500D01*
X93152068Y-36258500D01*
X93172705Y-36415258D01*
X93172707Y-36415266D01*
X93233212Y-36561338D01*
X93233212Y-36561339D01*
X93281275Y-36623976D01*
X93329468Y-36686782D01*
X93454909Y-36783036D01*
X93454910Y-36783036D01*
X93454911Y-36783037D01*
X93560731Y-36826869D01*
X93600988Y-36843544D01*
X93718559Y-36859022D01*
X93757749Y-36864182D01*
X93757750Y-36864182D01*
X93757751Y-36864182D01*
X93794696Y-36859318D01*
X93914512Y-36843544D01*
X94060591Y-36783036D01*
X94186032Y-36686782D01*
X94282286Y-36561341D01*
X94342794Y-36415262D01*
X94359252Y-36290250D01*
X96612818Y-36290250D01*
X96633455Y-36447008D01*
X96633457Y-36447016D01*
X96693962Y-36593088D01*
X96693962Y-36593089D01*
X96790213Y-36718526D01*
X96790218Y-36718532D01*
X96790222Y-36718535D01*
X96790223Y-36718536D01*
X96819582Y-36741063D01*
X96915659Y-36814786D01*
X96915660Y-36814786D01*
X96915661Y-36814787D01*
X97034911Y-36864182D01*
X97061738Y-36875294D01*
X97158600Y-36888046D01*
X97218499Y-36895932D01*
X97218500Y-36895932D01*
X97218501Y-36895932D01*
X97278400Y-36888046D01*
X97375262Y-36875294D01*
X97521341Y-36814786D01*
X97646782Y-36718532D01*
X97743036Y-36593091D01*
X97803544Y-36447012D01*
X97824182Y-36290250D01*
X97803544Y-36133488D01*
X97803542Y-36133483D01*
X97743037Y-35987411D01*
X97743037Y-35987410D01*
X97646786Y-35861973D01*
X97646785Y-35861972D01*
X97646782Y-35861968D01*
X97646777Y-35861964D01*
X97646776Y-35861963D01*
X97521338Y-35765712D01*
X97375266Y-35705207D01*
X97375258Y-35705205D01*
X97218501Y-35684568D01*
X97218499Y-35684568D01*
X97061741Y-35705205D01*
X97061733Y-35705207D01*
X96915661Y-35765712D01*
X96915660Y-35765712D01*
X96790223Y-35861963D01*
X96790213Y-35861973D01*
X96693962Y-35987410D01*
X96693962Y-35987411D01*
X96633457Y-36133483D01*
X96633455Y-36133491D01*
X96612818Y-36290249D01*
X96612818Y-36290250D01*
X94359252Y-36290250D01*
X94363432Y-36258500D01*
X94342794Y-36101738D01*
X94308720Y-36019477D01*
X94282287Y-35955661D01*
X94282287Y-35955660D01*
X94186036Y-35830223D01*
X94186035Y-35830222D01*
X94186032Y-35830218D01*
X94186027Y-35830214D01*
X94186026Y-35830213D01*
X94114854Y-35775601D01*
X94060591Y-35733964D01*
X94060590Y-35733963D01*
X94060588Y-35733962D01*
X93914516Y-35673457D01*
X93914508Y-35673455D01*
X93757751Y-35652818D01*
X93757749Y-35652818D01*
X93600991Y-35673455D01*
X93600983Y-35673457D01*
X93454911Y-35733962D01*
X93454910Y-35733962D01*
X93329473Y-35830213D01*
X93329463Y-35830223D01*
X93233212Y-35955660D01*
X93233212Y-35955661D01*
X93172707Y-36101733D01*
X93172705Y-36101741D01*
X93152068Y-36258499D01*
X93152068Y-36258500D01*
X86457682Y-36258500D01*
X86437044Y-36101738D01*
X86402970Y-36019477D01*
X86376537Y-35955661D01*
X86376537Y-35955660D01*
X86280286Y-35830223D01*
X86280285Y-35830222D01*
X86280282Y-35830218D01*
X86280277Y-35830214D01*
X86280276Y-35830213D01*
X86209104Y-35775601D01*
X86154841Y-35733964D01*
X86154840Y-35733963D01*
X86154838Y-35733962D01*
X86008766Y-35673457D01*
X86008758Y-35673455D01*
X85852001Y-35652818D01*
X85851999Y-35652818D01*
X85695241Y-35673455D01*
X85695233Y-35673457D01*
X85549161Y-35733962D01*
X85549160Y-35733962D01*
X85423723Y-35830213D01*
X85423713Y-35830223D01*
X85327462Y-35955660D01*
X85327462Y-35955661D01*
X85266957Y-36101733D01*
X85266955Y-36101741D01*
X85246318Y-36258499D01*
X85246318Y-36258500D01*
X78967267Y-36258500D01*
X79007544Y-36161262D01*
X79028182Y-36004500D01*
X79007544Y-35847738D01*
X78986406Y-35796706D01*
X78947037Y-35701661D01*
X78947037Y-35701660D01*
X78850786Y-35576223D01*
X78850785Y-35576222D01*
X78850782Y-35576218D01*
X78850777Y-35576214D01*
X78850776Y-35576213D01*
X78766614Y-35511634D01*
X78725341Y-35479964D01*
X78725340Y-35479963D01*
X78725338Y-35479962D01*
X78579266Y-35419457D01*
X78579258Y-35419455D01*
X78422501Y-35398818D01*
X78422499Y-35398818D01*
X78265741Y-35419455D01*
X78265733Y-35419457D01*
X78119661Y-35479962D01*
X78119660Y-35479962D01*
X77994223Y-35576213D01*
X77994213Y-35576223D01*
X77903607Y-35694304D01*
X77853182Y-35728960D01*
X77792018Y-35727358D01*
X77743476Y-35690111D01*
X77738390Y-35681874D01*
X77562056Y-35362379D01*
X77562053Y-35362375D01*
X77562048Y-35362365D01*
X77348485Y-35033794D01*
X77292968Y-34948380D01*
X77263810Y-34909897D01*
X77128003Y-34730658D01*
X77107932Y-34672860D01*
X77125667Y-34614302D01*
X77174435Y-34577351D01*
X77193984Y-34572720D01*
X77309262Y-34557544D01*
X77455341Y-34497036D01*
X77518269Y-34448750D01*
X92104304Y-34448750D01*
X92124941Y-34605508D01*
X92124943Y-34605516D01*
X92185448Y-34751588D01*
X92185448Y-34751589D01*
X92281699Y-34877026D01*
X92281704Y-34877032D01*
X92407145Y-34973286D01*
X92407146Y-34973286D01*
X92407147Y-34973287D01*
X92553219Y-35033792D01*
X92553224Y-35033794D01*
X92670795Y-35049272D01*
X92709985Y-35054432D01*
X92709986Y-35054432D01*
X92709987Y-35054432D01*
X92741338Y-35050304D01*
X92866748Y-35033794D01*
X93012827Y-34973286D01*
X93138268Y-34877032D01*
X93234522Y-34751591D01*
X93295030Y-34605512D01*
X93315668Y-34448750D01*
X93295030Y-34291988D01*
X93248184Y-34178891D01*
X93234523Y-34145911D01*
X93234523Y-34145910D01*
X93138272Y-34020473D01*
X93138271Y-34020472D01*
X93138268Y-34020468D01*
X93138263Y-34020464D01*
X93138262Y-34020463D01*
X93012824Y-33924212D01*
X92866752Y-33863707D01*
X92866744Y-33863705D01*
X92709987Y-33843068D01*
X92709985Y-33843068D01*
X92553227Y-33863705D01*
X92553219Y-33863707D01*
X92407147Y-33924212D01*
X92407146Y-33924212D01*
X92281709Y-34020463D01*
X92281699Y-34020473D01*
X92185448Y-34145910D01*
X92185448Y-34145911D01*
X92124943Y-34291983D01*
X92124941Y-34291991D01*
X92104304Y-34448749D01*
X92104304Y-34448750D01*
X77518269Y-34448750D01*
X77580782Y-34400782D01*
X77677036Y-34275341D01*
X77737544Y-34129262D01*
X77758182Y-33972500D01*
X77737544Y-33815738D01*
X77677037Y-33669661D01*
X77677037Y-33669660D01*
X77580786Y-33544223D01*
X77580785Y-33544222D01*
X77580782Y-33544218D01*
X77580777Y-33544214D01*
X77580776Y-33544213D01*
X77455338Y-33447962D01*
X77309266Y-33387457D01*
X77309258Y-33387455D01*
X77152501Y-33366818D01*
X77152499Y-33366818D01*
X76995741Y-33387455D01*
X76995733Y-33387457D01*
X76849661Y-33447962D01*
X76849660Y-33447962D01*
X76724223Y-33544213D01*
X76724213Y-33544223D01*
X76627962Y-33669660D01*
X76627962Y-33669661D01*
X76567457Y-33815733D01*
X76567455Y-33815740D01*
X76563059Y-33849134D01*
X76536717Y-33904359D01*
X76482946Y-33933553D01*
X76422284Y-33925566D01*
X76392907Y-33904160D01*
X76206484Y-33706626D01*
X76201780Y-33701268D01*
X75939912Y-33380354D01*
X75935605Y-33374670D01*
X75697514Y-33035734D01*
X75693628Y-33029755D01*
X75480553Y-32674561D01*
X75477113Y-32668328D01*
X75438015Y-32591032D01*
X75290156Y-32298714D01*
X75287169Y-32292239D01*
X75179029Y-32033762D01*
X75127308Y-31910139D01*
X75124796Y-31903469D01*
X75115901Y-31877000D01*
X74992843Y-31510818D01*
X74990828Y-31504017D01*
X74887485Y-31102905D01*
X74885961Y-31095966D01*
X74811752Y-30688412D01*
X74810735Y-30681397D01*
X74766058Y-30269594D01*
X74765547Y-30262525D01*
X74750634Y-29848691D01*
X74750645Y-29841284D01*
X74768379Y-29389927D01*
X74768989Y-29382189D01*
X74822062Y-28933780D01*
X74823271Y-28926142D01*
X74862441Y-28729221D01*
X74892338Y-28675839D01*
X74947903Y-28650223D01*
X75007913Y-28662160D01*
X75049445Y-28707090D01*
X75058383Y-28742986D01*
X75064611Y-28853897D01*
X75064614Y-28853917D01*
X75124824Y-29208287D01*
X75124828Y-29208307D01*
X75224340Y-29553723D01*
X75361907Y-29885837D01*
X75535787Y-30200449D01*
X75688840Y-30416157D01*
X75743806Y-30493623D01*
X75983339Y-30761661D01*
X76251377Y-31001194D01*
X76544548Y-31209211D01*
X76544550Y-31209212D01*
X76859163Y-31383092D01*
X76859162Y-31383092D01*
X77191276Y-31520659D01*
X77536692Y-31620171D01*
X77536695Y-31620171D01*
X77536700Y-31620173D01*
X77891093Y-31680387D01*
X77891096Y-31680387D01*
X77891102Y-31680388D01*
X78249995Y-31700543D01*
X78250000Y-31700543D01*
X78250005Y-31700543D01*
X78608897Y-31680388D01*
X78608901Y-31680387D01*
X78608907Y-31680387D01*
X78963300Y-31620173D01*
X79308724Y-31520659D01*
X79640833Y-31383094D01*
X79955452Y-31209211D01*
X80248623Y-31001194D01*
X80516661Y-30761661D01*
X80756194Y-30493623D01*
X80964211Y-30200452D01*
X81099436Y-29955780D01*
X81138092Y-29885837D01*
X81138094Y-29885833D01*
X81275659Y-29553724D01*
X81375173Y-29208300D01*
X81435387Y-28853907D01*
X81435858Y-28845536D01*
X81454644Y-28511020D01*
X84547818Y-28511020D01*
X84568455Y-28667778D01*
X84568457Y-28667786D01*
X84628962Y-28813858D01*
X84628962Y-28813859D01*
X84715534Y-28926682D01*
X84725218Y-28939302D01*
X84850659Y-29035556D01*
X84996738Y-29096064D01*
X85114309Y-29111542D01*
X85153499Y-29116702D01*
X85153500Y-29116702D01*
X85153501Y-29116702D01*
X85187332Y-29112248D01*
X85310262Y-29096064D01*
X85456341Y-29035556D01*
X85581782Y-28939302D01*
X85678036Y-28813861D01*
X85738544Y-28667782D01*
X85759182Y-28511020D01*
X85757073Y-28495004D01*
X85738544Y-28354261D01*
X85738544Y-28354258D01*
X85738542Y-28354253D01*
X85724768Y-28321000D01*
X88734318Y-28321000D01*
X88754955Y-28477758D01*
X88754957Y-28477766D01*
X88815462Y-28623838D01*
X88815462Y-28623839D01*
X88844867Y-28662160D01*
X88911718Y-28749282D01*
X89037159Y-28845536D01*
X89037160Y-28845536D01*
X89037161Y-28845537D01*
X89057344Y-28853897D01*
X89183238Y-28906044D01*
X89300809Y-28921522D01*
X89339999Y-28926682D01*
X89340000Y-28926682D01*
X89340001Y-28926682D01*
X89376984Y-28921813D01*
X89496762Y-28906044D01*
X89642841Y-28845536D01*
X89768282Y-28749282D01*
X89864536Y-28623841D01*
X89925044Y-28477762D01*
X89945682Y-28321000D01*
X89925044Y-28164238D01*
X89891286Y-28082738D01*
X89864537Y-28018161D01*
X89864537Y-28018160D01*
X89768286Y-27892723D01*
X89768285Y-27892722D01*
X89768282Y-27892718D01*
X89768277Y-27892714D01*
X89768276Y-27892713D01*
X89642838Y-27796462D01*
X89496766Y-27735957D01*
X89496758Y-27735955D01*
X89340001Y-27715318D01*
X89339999Y-27715318D01*
X89183241Y-27735955D01*
X89183233Y-27735957D01*
X89037161Y-27796462D01*
X89037160Y-27796462D01*
X88911723Y-27892713D01*
X88911713Y-27892723D01*
X88815462Y-28018160D01*
X88815462Y-28018161D01*
X88754957Y-28164233D01*
X88754955Y-28164241D01*
X88734318Y-28320999D01*
X88734318Y-28321000D01*
X85724768Y-28321000D01*
X85678037Y-28208181D01*
X85678037Y-28208180D01*
X85581786Y-28082743D01*
X85581785Y-28082742D01*
X85581782Y-28082738D01*
X85581777Y-28082734D01*
X85581776Y-28082733D01*
X85456338Y-27986482D01*
X85310266Y-27925977D01*
X85310258Y-27925975D01*
X85153501Y-27905338D01*
X85153499Y-27905338D01*
X84996741Y-27925975D01*
X84996733Y-27925977D01*
X84850661Y-27986482D01*
X84850660Y-27986482D01*
X84725223Y-28082733D01*
X84725213Y-28082743D01*
X84628962Y-28208180D01*
X84628962Y-28208181D01*
X84568457Y-28354253D01*
X84568455Y-28354261D01*
X84547818Y-28511019D01*
X84547818Y-28511020D01*
X81454644Y-28511020D01*
X81455543Y-28495004D01*
X81455543Y-28494995D01*
X81435388Y-28136102D01*
X81435385Y-28136082D01*
X81426321Y-28082738D01*
X81375173Y-27781700D01*
X81275659Y-27436276D01*
X81138094Y-27104167D01*
X81138092Y-27104162D01*
X80964212Y-26789550D01*
X80868985Y-26655341D01*
X80814146Y-26578053D01*
X80756197Y-26496381D01*
X80756196Y-26496380D01*
X80756194Y-26496377D01*
X80516661Y-26228339D01*
X80248623Y-25988806D01*
X80248620Y-25988804D01*
X80248618Y-25988802D01*
X79955449Y-25780787D01*
X79640836Y-25606907D01*
X79640837Y-25606907D01*
X79308723Y-25469340D01*
X78963307Y-25369828D01*
X78963287Y-25369824D01*
X78608917Y-25309614D01*
X78608897Y-25309611D01*
X78250005Y-25289457D01*
X78249995Y-25289457D01*
X77891102Y-25309611D01*
X77891082Y-25309614D01*
X77536712Y-25369824D01*
X77536692Y-25369828D01*
X77191276Y-25469340D01*
X76856601Y-25607969D01*
X76856293Y-25607226D01*
X76798725Y-25615002D01*
X76744856Y-25585988D01*
X76718330Y-25530852D01*
X76729278Y-25470654D01*
X76749231Y-25444908D01*
X76798219Y-25399625D01*
X76804112Y-25394594D01*
X77158709Y-25115051D01*
X77164955Y-25110513D01*
X77540435Y-24859625D01*
X77547013Y-24855594D01*
X77941013Y-24634943D01*
X77947899Y-24631435D01*
X78357977Y-24442387D01*
X78365113Y-24439431D01*
X78788775Y-24283133D01*
X78796131Y-24280744D01*
X79230732Y-24158173D01*
X79238254Y-24156367D01*
X79681142Y-24068271D01*
X79688780Y-24067062D01*
X80137200Y-24013988D01*
X80144927Y-24013379D01*
X80598066Y-23995576D01*
X80601953Y-23995500D01*
X80665892Y-23995500D01*
X81646029Y-23995500D01*
X81704220Y-24014407D01*
G37*
%TD.AperFunction*%
%TD*%
%TA.AperFunction,Conductor*%
%TO.N,+5V*%
G36*
X91507177Y-24015185D02*
G01*
X91552932Y-24067989D01*
X91562876Y-24137147D01*
X91552095Y-24168288D01*
X91553574Y-24168901D01*
X91489956Y-24322487D01*
X91489955Y-24322489D01*
X91469318Y-24479248D01*
X91469318Y-24479251D01*
X91489955Y-24636010D01*
X91489956Y-24636012D01*
X91550464Y-24782091D01*
X91646718Y-24907532D01*
X91772159Y-25003786D01*
X91918238Y-25064294D01*
X91996619Y-25074613D01*
X92074999Y-25084932D01*
X92075000Y-25084932D01*
X92075001Y-25084932D01*
X92127254Y-25078052D01*
X92231762Y-25064294D01*
X92377841Y-25003786D01*
X92503282Y-24907532D01*
X92599536Y-24782091D01*
X92660044Y-24636012D01*
X92680682Y-24479250D01*
X92677574Y-24455645D01*
X92660044Y-24322489D01*
X92660044Y-24322488D01*
X92599536Y-24176409D01*
X92599535Y-24176408D01*
X92596426Y-24168901D01*
X92599147Y-24167773D01*
X92586002Y-24113615D01*
X92608846Y-24047585D01*
X92663762Y-24004388D01*
X92709862Y-23995500D01*
X97853638Y-23995500D01*
X97920677Y-24015185D01*
X97966432Y-24067989D01*
X97976376Y-24137147D01*
X97965595Y-24168288D01*
X97967074Y-24168901D01*
X97903456Y-24322487D01*
X97903455Y-24322489D01*
X97882818Y-24479248D01*
X97882818Y-24479251D01*
X97903455Y-24636010D01*
X97903456Y-24636012D01*
X97963964Y-24782091D01*
X98060218Y-24907532D01*
X98185659Y-25003786D01*
X98331738Y-25064294D01*
X98410119Y-25074613D01*
X98488499Y-25084932D01*
X98488500Y-25084932D01*
X98488501Y-25084932D01*
X98540754Y-25078052D01*
X98645262Y-25064294D01*
X98791341Y-25003786D01*
X98916782Y-24907532D01*
X99013036Y-24782091D01*
X99073544Y-24636012D01*
X99094182Y-24479250D01*
X99091074Y-24455645D01*
X99073544Y-24322489D01*
X99073544Y-24322488D01*
X99013036Y-24176409D01*
X99013035Y-24176408D01*
X99009926Y-24168901D01*
X99012647Y-24167773D01*
X98999502Y-24113615D01*
X99022346Y-24047585D01*
X99077262Y-24004388D01*
X99123362Y-23995500D01*
X107315138Y-23995500D01*
X107382177Y-24015185D01*
X107427932Y-24067989D01*
X107437876Y-24137147D01*
X107427095Y-24168288D01*
X107428574Y-24168901D01*
X107364956Y-24322487D01*
X107364955Y-24322489D01*
X107344318Y-24479248D01*
X107344318Y-24479251D01*
X107364955Y-24636010D01*
X107364956Y-24636012D01*
X107425464Y-24782091D01*
X107521718Y-24907532D01*
X107647159Y-25003786D01*
X107793238Y-25064294D01*
X107871619Y-25074613D01*
X107949999Y-25084932D01*
X107950000Y-25084932D01*
X107950001Y-25084932D01*
X108002254Y-25078052D01*
X108106762Y-25064294D01*
X108252841Y-25003786D01*
X108378282Y-24907532D01*
X108474536Y-24782091D01*
X108535044Y-24636012D01*
X108555682Y-24479250D01*
X108552574Y-24455645D01*
X108535044Y-24322489D01*
X108535044Y-24322488D01*
X108474536Y-24176409D01*
X108474535Y-24176408D01*
X108471426Y-24168901D01*
X108474147Y-24167773D01*
X108461002Y-24113615D01*
X108483846Y-24047585D01*
X108538762Y-24004388D01*
X108584862Y-23995500D01*
X109834108Y-23995500D01*
X109897575Y-23995500D01*
X109902443Y-23995596D01*
X110354096Y-24013341D01*
X110363766Y-24014102D01*
X110810230Y-24066945D01*
X110819835Y-24068466D01*
X111260763Y-24156172D01*
X111270223Y-24158443D01*
X111702897Y-24280470D01*
X111712157Y-24283478D01*
X112133937Y-24439081D01*
X112142933Y-24442807D01*
X112551203Y-24631022D01*
X112559866Y-24635437D01*
X112952108Y-24855104D01*
X112960410Y-24860191D01*
X113334199Y-25109948D01*
X113342073Y-25115668D01*
X113510848Y-25248720D01*
X113620302Y-25335007D01*
X113660762Y-25391969D01*
X113664004Y-25461764D01*
X113628997Y-25522231D01*
X113566856Y-25554173D01*
X113497311Y-25547449D01*
X113496081Y-25546947D01*
X113371348Y-25495281D01*
X113308724Y-25469341D01*
X113308720Y-25469339D01*
X113308718Y-25469339D01*
X112963305Y-25369828D01*
X112963296Y-25369826D01*
X112608914Y-25309614D01*
X112608902Y-25309612D01*
X112250000Y-25289457D01*
X111891097Y-25309612D01*
X111891085Y-25309614D01*
X111536703Y-25369826D01*
X111536694Y-25369828D01*
X111191281Y-25469339D01*
X110859168Y-25606905D01*
X110544545Y-25780790D01*
X110251377Y-25988805D01*
X109983339Y-26228339D01*
X109743805Y-26496377D01*
X109535790Y-26789545D01*
X109361905Y-27104168D01*
X109224339Y-27436281D01*
X109124828Y-27781694D01*
X109124826Y-27781703D01*
X109064614Y-28136085D01*
X109064612Y-28136097D01*
X109044457Y-28495000D01*
X109064612Y-28853902D01*
X109064614Y-28853914D01*
X109124826Y-29208296D01*
X109124828Y-29208305D01*
X109220088Y-29538963D01*
X109224341Y-29553724D01*
X109361906Y-29885833D01*
X109392603Y-29941375D01*
X109535790Y-30200454D01*
X109743404Y-30493057D01*
X109743806Y-30493623D01*
X109983339Y-30761661D01*
X110251377Y-31001194D01*
X110277530Y-31019751D01*
X110544548Y-31209211D01*
X110859167Y-31383094D01*
X111191276Y-31520659D01*
X111536700Y-31620173D01*
X111891093Y-31680387D01*
X112250000Y-31700543D01*
X112608907Y-31680387D01*
X112963300Y-31620173D01*
X113308724Y-31520659D01*
X113640833Y-31383094D01*
X113955452Y-31209211D01*
X114248623Y-31001194D01*
X114516661Y-30761661D01*
X114756194Y-30493623D01*
X114964211Y-30200452D01*
X115138094Y-29885833D01*
X115275659Y-29553724D01*
X115375173Y-29208300D01*
X115427292Y-28901549D01*
X115457927Y-28838757D01*
X115517649Y-28802494D01*
X115587496Y-28804275D01*
X115645292Y-28843536D01*
X115671156Y-28898132D01*
X115676532Y-28925159D01*
X115678055Y-28934775D01*
X115730895Y-29381214D01*
X115731659Y-29390921D01*
X115749316Y-29840322D01*
X115749332Y-29849656D01*
X115734486Y-30261595D01*
X115733843Y-30270503D01*
X115689363Y-30680500D01*
X115688080Y-30689339D01*
X115614206Y-31095051D01*
X115612291Y-31103775D01*
X115509397Y-31503144D01*
X115506858Y-31511707D01*
X115375494Y-31902605D01*
X115372346Y-31910964D01*
X115213175Y-32291416D01*
X115209433Y-32299526D01*
X115023298Y-32667517D01*
X115018983Y-32675336D01*
X114806832Y-33028989D01*
X114801964Y-33036478D01*
X114564914Y-33373931D01*
X114559520Y-33381050D01*
X114298794Y-33700566D01*
X114292902Y-33707278D01*
X114008325Y-34008816D01*
X114005193Y-34012017D01*
X113859397Y-34155733D01*
X113797835Y-34188776D01*
X113728181Y-34183291D01*
X113672550Y-34141019D01*
X113657787Y-34114877D01*
X113650586Y-34097492D01*
X113618036Y-34018909D01*
X113521782Y-33893468D01*
X113396341Y-33797214D01*
X113338600Y-33773297D01*
X113250262Y-33736706D01*
X113250260Y-33736705D01*
X113093501Y-33716068D01*
X113093499Y-33716068D01*
X112936739Y-33736705D01*
X112936737Y-33736706D01*
X112790660Y-33797213D01*
X112665218Y-33893468D01*
X112568963Y-34018910D01*
X112508456Y-34164987D01*
X112508455Y-34164989D01*
X112487818Y-34321748D01*
X112487818Y-34321751D01*
X112508455Y-34478510D01*
X112508456Y-34478512D01*
X112564284Y-34613294D01*
X112568964Y-34624591D01*
X112665218Y-34750032D01*
X112790659Y-34846286D01*
X112936738Y-34906794D01*
X113015691Y-34917188D01*
X113079588Y-34945454D01*
X113118059Y-35003779D01*
X113118891Y-35073643D01*
X113103474Y-35107704D01*
X112937948Y-35362369D01*
X112726019Y-35746358D01*
X112676391Y-35795539D01*
X112608052Y-35810083D01*
X112542698Y-35785371D01*
X112519080Y-35761926D01*
X112474033Y-35703219D01*
X112474032Y-35703218D01*
X112348591Y-35606964D01*
X112346483Y-35606091D01*
X112202512Y-35546456D01*
X112202510Y-35546455D01*
X112045751Y-35525818D01*
X112045749Y-35525818D01*
X111888989Y-35546455D01*
X111888987Y-35546456D01*
X111742910Y-35606963D01*
X111617468Y-35703218D01*
X111521213Y-35828660D01*
X111460706Y-35974737D01*
X111460705Y-35974739D01*
X111440068Y-36131498D01*
X111440068Y-36131501D01*
X111460705Y-36288260D01*
X111460706Y-36288262D01*
X111512278Y-36412769D01*
X111521214Y-36434341D01*
X111617468Y-36559782D01*
X111742909Y-36656036D01*
X111888988Y-36716544D01*
X111961209Y-36726052D01*
X112045749Y-36737182D01*
X112045750Y-36737182D01*
X112130290Y-36726052D01*
X112199325Y-36736817D01*
X112251581Y-36783197D01*
X112270466Y-36850466D01*
X112265361Y-36884232D01*
X112182390Y-37164140D01*
X112178146Y-37178456D01*
X112178143Y-37178467D01*
X112125152Y-37419812D01*
X112091548Y-37481070D01*
X112030160Y-37514436D01*
X111960478Y-37509317D01*
X111928551Y-37491595D01*
X111872342Y-37448464D01*
X111726262Y-37387956D01*
X111726260Y-37387955D01*
X111569501Y-37367318D01*
X111569499Y-37367318D01*
X111412739Y-37387955D01*
X111412737Y-37387956D01*
X111266660Y-37448463D01*
X111141218Y-37544718D01*
X111044963Y-37670160D01*
X110984456Y-37816237D01*
X110984455Y-37816239D01*
X110963818Y-37972998D01*
X110963818Y-37973001D01*
X110984455Y-38129760D01*
X110984456Y-38129762D01*
X111044964Y-38275841D01*
X111141218Y-38401282D01*
X111266659Y-38497536D01*
X111412738Y-38558044D01*
X111491119Y-38568363D01*
X111569499Y-38578682D01*
X111569500Y-38578682D01*
X111569501Y-38578682D01*
X111621754Y-38571802D01*
X111726262Y-38558044D01*
X111794367Y-38529833D01*
X111863836Y-38522365D01*
X111926315Y-38553640D01*
X111961967Y-38613729D01*
X111965819Y-38644383D01*
X111965842Y-38888717D01*
X111965842Y-51946000D01*
X111946157Y-52013039D01*
X111893353Y-52058794D01*
X111841842Y-52070000D01*
X103449645Y-52070000D01*
X103382606Y-52050315D01*
X103336851Y-51997511D01*
X103326907Y-51928353D01*
X103335081Y-51898552D01*
X103343797Y-51877512D01*
X103364435Y-51720750D01*
X103343797Y-51563988D01*
X103283289Y-51417909D01*
X103187035Y-51292468D01*
X103061594Y-51196214D01*
X102915515Y-51135706D01*
X102915513Y-51135705D01*
X102758754Y-51115068D01*
X102758752Y-51115068D01*
X102601992Y-51135705D01*
X102601990Y-51135706D01*
X102455913Y-51196213D01*
X102330471Y-51292468D01*
X102234216Y-51417910D01*
X102173709Y-51563987D01*
X102173708Y-51563989D01*
X102153071Y-51720748D01*
X102153071Y-51720751D01*
X102173708Y-51877509D01*
X102173708Y-51877511D01*
X102173709Y-51877512D01*
X102182423Y-51898549D01*
X102189891Y-51968018D01*
X102158615Y-52030497D01*
X102098526Y-52066149D01*
X102067861Y-52070000D01*
X101406500Y-52070000D01*
X101339461Y-52050315D01*
X101293706Y-51997511D01*
X101282500Y-51946000D01*
X101282500Y-49871982D01*
X101302185Y-49804943D01*
X101318819Y-49784301D01*
X101966301Y-49136819D01*
X102027624Y-49103334D01*
X102053982Y-49100500D01*
X105639185Y-49100500D01*
X105706224Y-49120185D01*
X105751979Y-49172989D01*
X105762405Y-49238384D01*
X105747435Y-49371247D01*
X105747435Y-49371253D01*
X105767630Y-49550499D01*
X105767631Y-49550504D01*
X105827211Y-49720773D01*
X105864831Y-49780644D01*
X105923184Y-49873512D01*
X106050738Y-50001066D01*
X106203478Y-50097039D01*
X106373745Y-50156618D01*
X106373750Y-50156619D01*
X106552996Y-50176815D01*
X106553000Y-50176815D01*
X106553004Y-50176815D01*
X106732249Y-50156619D01*
X106732252Y-50156618D01*
X106732255Y-50156618D01*
X106902522Y-50097039D01*
X107055262Y-50001066D01*
X107182816Y-49873512D01*
X107278789Y-49720772D01*
X107338368Y-49550505D01*
X107358565Y-49371250D01*
X107343595Y-49238384D01*
X107355649Y-49169562D01*
X107402999Y-49118182D01*
X107466815Y-49100500D01*
X107533494Y-49100500D01*
X107533500Y-49100500D01*
X107565644Y-49097970D01*
X107596237Y-49093125D01*
X107598871Y-49092677D01*
X107600782Y-49092353D01*
X107600782Y-49092352D01*
X107600787Y-49092352D01*
X107684883Y-49056408D01*
X107734383Y-49020444D01*
X107762128Y-48996203D01*
X107809036Y-48917693D01*
X107827943Y-48859502D01*
X107834099Y-48820629D01*
X107838000Y-48796004D01*
X107838000Y-47089006D01*
X107838000Y-47089000D01*
X107835470Y-47056856D01*
X107830625Y-47026263D01*
X107829852Y-47021713D01*
X107793908Y-46937617D01*
X107757944Y-46888117D01*
X107733703Y-46860372D01*
X107733702Y-46860371D01*
X107655194Y-46813464D01*
X107597004Y-46794557D01*
X107533504Y-46784500D01*
X107533500Y-46784500D01*
X105228982Y-46784500D01*
X105161943Y-46764815D01*
X105141301Y-46748181D01*
X105054621Y-46661501D01*
X109309228Y-46661501D01*
X109329865Y-46818260D01*
X109329866Y-46818262D01*
X109379304Y-46937617D01*
X109390374Y-46964341D01*
X109486628Y-47089782D01*
X109612069Y-47186036D01*
X109758148Y-47246544D01*
X109836529Y-47256863D01*
X109914909Y-47267182D01*
X109914910Y-47267182D01*
X109914911Y-47267182D01*
X109967164Y-47260302D01*
X110071672Y-47246544D01*
X110217751Y-47186036D01*
X110343192Y-47089782D01*
X110439446Y-46964341D01*
X110499954Y-46818262D01*
X110520592Y-46661500D01*
X110499954Y-46504738D01*
X110439446Y-46358659D01*
X110343192Y-46233218D01*
X110217751Y-46136964D01*
X110071672Y-46076456D01*
X110071670Y-46076455D01*
X109914911Y-46055818D01*
X109914909Y-46055818D01*
X109758149Y-46076455D01*
X109758147Y-46076456D01*
X109612070Y-46136963D01*
X109486628Y-46233218D01*
X109390373Y-46358660D01*
X109329866Y-46504737D01*
X109329865Y-46504739D01*
X109309228Y-46661498D01*
X109309228Y-46661501D01*
X105054621Y-46661501D01*
X101318819Y-42925699D01*
X101285334Y-42864376D01*
X101282500Y-42838018D01*
X101282500Y-42545001D01*
X102264318Y-42545001D01*
X102284955Y-42701760D01*
X102284956Y-42701762D01*
X102339208Y-42832739D01*
X102345464Y-42847841D01*
X102441718Y-42973282D01*
X102567159Y-43069536D01*
X102713238Y-43130044D01*
X102791619Y-43140363D01*
X102869999Y-43150682D01*
X102870000Y-43150682D01*
X102870001Y-43150682D01*
X102922254Y-43143802D01*
X103026762Y-43130044D01*
X103172841Y-43069536D01*
X103277145Y-42989501D01*
X103978818Y-42989501D01*
X103999455Y-43146260D01*
X103999456Y-43146262D01*
X104059964Y-43292341D01*
X104156218Y-43417782D01*
X104281659Y-43514036D01*
X104427738Y-43574544D01*
X104584500Y-43595182D01*
X104584502Y-43595181D01*
X104587915Y-43595631D01*
X104651812Y-43623897D01*
X104690283Y-43682221D01*
X104691115Y-43752086D01*
X104664546Y-43800796D01*
X104610912Y-43861336D01*
X104532387Y-44010955D01*
X104491950Y-44175015D01*
X104491950Y-44343984D01*
X104532387Y-44508044D01*
X104610912Y-44657663D01*
X104722956Y-44784134D01*
X104722958Y-44784136D01*
X104722961Y-44784139D01*
X104862018Y-44880123D01*
X104862019Y-44880123D01*
X104862021Y-44880125D01*
X105020011Y-44940043D01*
X105145662Y-44955300D01*
X105145665Y-44955300D01*
X105229838Y-44955300D01*
X105324075Y-44943857D01*
X105355489Y-44940043D01*
X105513479Y-44880125D01*
X105652539Y-44784139D01*
X105764588Y-44657662D01*
X105843112Y-44508046D01*
X105883550Y-44343985D01*
X105883550Y-44343984D01*
X106523950Y-44343984D01*
X106564387Y-44508044D01*
X106642912Y-44657663D01*
X106754956Y-44784134D01*
X106754958Y-44784136D01*
X106754961Y-44784139D01*
X106894018Y-44880123D01*
X106894019Y-44880123D01*
X106894021Y-44880125D01*
X107052011Y-44940043D01*
X107177662Y-44955300D01*
X107177665Y-44955300D01*
X107261838Y-44955300D01*
X107356075Y-44943857D01*
X107387489Y-44940043D01*
X107545479Y-44880125D01*
X107684539Y-44784139D01*
X107796588Y-44657662D01*
X107875112Y-44508046D01*
X107915550Y-44343985D01*
X107915550Y-44175015D01*
X107875112Y-44010954D01*
X107796588Y-43861338D01*
X107796587Y-43861336D01*
X107684543Y-43734865D01*
X107684541Y-43734863D01*
X107684539Y-43734861D01*
X107545480Y-43638876D01*
X107545482Y-43638876D01*
X107387488Y-43578956D01*
X107261838Y-43563700D01*
X107261835Y-43563700D01*
X107177665Y-43563700D01*
X107177662Y-43563700D01*
X107052011Y-43578956D01*
X106894018Y-43638876D01*
X106754963Y-43734859D01*
X106754956Y-43734865D01*
X106642912Y-43861336D01*
X106564387Y-44010955D01*
X106523950Y-44175015D01*
X106523950Y-44343984D01*
X105883550Y-44343984D01*
X105883550Y-44175015D01*
X105843112Y-44010954D01*
X105764588Y-43861338D01*
X105764587Y-43861336D01*
X105652543Y-43734865D01*
X105652541Y-43734863D01*
X105652539Y-43734861D01*
X105513480Y-43638876D01*
X105513482Y-43638876D01*
X105355488Y-43578956D01*
X105229838Y-43563700D01*
X105229835Y-43563700D01*
X105152262Y-43563700D01*
X105085223Y-43544015D01*
X105039468Y-43491211D01*
X105029524Y-43422053D01*
X105053884Y-43364215D01*
X105109036Y-43292341D01*
X105169544Y-43146262D01*
X105190182Y-42989500D01*
X105181782Y-42925699D01*
X105169544Y-42832739D01*
X105169544Y-42832738D01*
X105109036Y-42686659D01*
X105012782Y-42561218D01*
X104887341Y-42464964D01*
X104741262Y-42404456D01*
X104741260Y-42404455D01*
X104584501Y-42383818D01*
X104584499Y-42383818D01*
X104427739Y-42404455D01*
X104427737Y-42404456D01*
X104281660Y-42464963D01*
X104156218Y-42561218D01*
X104059963Y-42686660D01*
X103999456Y-42832737D01*
X103999455Y-42832739D01*
X103978818Y-42989498D01*
X103978818Y-42989501D01*
X103277145Y-42989501D01*
X103298282Y-42973282D01*
X103394536Y-42847841D01*
X103455044Y-42701762D01*
X103475682Y-42545000D01*
X103455044Y-42388238D01*
X103394536Y-42242159D01*
X103298282Y-42116718D01*
X103172841Y-42020464D01*
X103170733Y-42019591D01*
X103026762Y-41959956D01*
X103026760Y-41959955D01*
X102870001Y-41939318D01*
X102869999Y-41939318D01*
X102713239Y-41959955D01*
X102713237Y-41959956D01*
X102567160Y-42020463D01*
X102441718Y-42116718D01*
X102345463Y-42242160D01*
X102284956Y-42388237D01*
X102284955Y-42388239D01*
X102264318Y-42544998D01*
X102264318Y-42545001D01*
X101282500Y-42545001D01*
X101282500Y-42265021D01*
X101302185Y-42197982D01*
X101354989Y-42152227D01*
X101358992Y-42150483D01*
X101363091Y-42148786D01*
X101488532Y-42052532D01*
X101584786Y-41927091D01*
X101645294Y-41781012D01*
X101653392Y-41719501D01*
X107153818Y-41719501D01*
X107174455Y-41876260D01*
X107174456Y-41876262D01*
X107234186Y-42020464D01*
X107234964Y-42022341D01*
X107331218Y-42147782D01*
X107456659Y-42244036D01*
X107602738Y-42304544D01*
X107681119Y-42314863D01*
X107759499Y-42325182D01*
X107759500Y-42325182D01*
X107759501Y-42325182D01*
X107837706Y-42314886D01*
X107916262Y-42304544D01*
X108062341Y-42244036D01*
X108187782Y-42147782D01*
X108284036Y-42022341D01*
X108344544Y-41876262D01*
X108365182Y-41719500D01*
X108344544Y-41562738D01*
X108284036Y-41416659D01*
X108187782Y-41291218D01*
X108062341Y-41194964D01*
X107916262Y-41134456D01*
X107916260Y-41134455D01*
X107759501Y-41113818D01*
X107759499Y-41113818D01*
X107602739Y-41134455D01*
X107602737Y-41134456D01*
X107456660Y-41194963D01*
X107331218Y-41291218D01*
X107234963Y-41416660D01*
X107174456Y-41562737D01*
X107174455Y-41562739D01*
X107153818Y-41719498D01*
X107153818Y-41719501D01*
X101653392Y-41719501D01*
X101665932Y-41624250D01*
X101645294Y-41467488D01*
X101584786Y-41321409D01*
X101488532Y-41195968D01*
X101488530Y-41195967D01*
X101488530Y-41195966D01*
X101450492Y-41166779D01*
X101363091Y-41099714D01*
X101363087Y-41099712D01*
X101363086Y-41099711D01*
X101359042Y-41098036D01*
X101356153Y-41095708D01*
X101356046Y-41095646D01*
X101356055Y-41095629D01*
X101304641Y-41054193D01*
X101282579Y-40987897D01*
X101282500Y-40983477D01*
X101282500Y-39179501D01*
X103978818Y-39179501D01*
X103999455Y-39336260D01*
X103999456Y-39336262D01*
X104059964Y-39482341D01*
X104156218Y-39607782D01*
X104281659Y-39704036D01*
X104427738Y-39764544D01*
X104506119Y-39774863D01*
X104584499Y-39785182D01*
X104584500Y-39785182D01*
X104584501Y-39785182D01*
X104636754Y-39778302D01*
X104741262Y-39764544D01*
X104887341Y-39704036D01*
X105012782Y-39607782D01*
X105109036Y-39482341D01*
X105169544Y-39336262D01*
X105190182Y-39179501D01*
X107153818Y-39179501D01*
X107174455Y-39336260D01*
X107174456Y-39336262D01*
X107234964Y-39482341D01*
X107331218Y-39607782D01*
X107456659Y-39704036D01*
X107602738Y-39764544D01*
X107681119Y-39774863D01*
X107759499Y-39785182D01*
X107759500Y-39785182D01*
X107759501Y-39785182D01*
X107811754Y-39778302D01*
X107916262Y-39764544D01*
X108062341Y-39704036D01*
X108187782Y-39607782D01*
X108284036Y-39482341D01*
X108344544Y-39336262D01*
X108365182Y-39179500D01*
X108344544Y-39022738D01*
X108284036Y-38876659D01*
X108272789Y-38862001D01*
X109503318Y-38862001D01*
X109523955Y-39018760D01*
X109523956Y-39018762D01*
X109525602Y-39022737D01*
X109584464Y-39164841D01*
X109680718Y-39290282D01*
X109806159Y-39386536D01*
X109952238Y-39447044D01*
X110030619Y-39457363D01*
X110108999Y-39467682D01*
X110109000Y-39467682D01*
X110109001Y-39467682D01*
X110161254Y-39460802D01*
X110265762Y-39447044D01*
X110411841Y-39386536D01*
X110537282Y-39290282D01*
X110633536Y-39164841D01*
X110694044Y-39018762D01*
X110714682Y-38862000D01*
X110694044Y-38705238D01*
X110633536Y-38559159D01*
X110537282Y-38433718D01*
X110411841Y-38337464D01*
X110362644Y-38317086D01*
X110265762Y-38276956D01*
X110265760Y-38276955D01*
X110109001Y-38256318D01*
X110108999Y-38256318D01*
X109952239Y-38276955D01*
X109952237Y-38276956D01*
X109806160Y-38337463D01*
X109680718Y-38433718D01*
X109584463Y-38559160D01*
X109523956Y-38705237D01*
X109523955Y-38705239D01*
X109503318Y-38861998D01*
X109503318Y-38862001D01*
X108272789Y-38862001D01*
X108187782Y-38751218D01*
X108062341Y-38654964D01*
X108036796Y-38644383D01*
X107916262Y-38594456D01*
X107916260Y-38594455D01*
X107759501Y-38573818D01*
X107759499Y-38573818D01*
X107602739Y-38594455D01*
X107602737Y-38594456D01*
X107456660Y-38654963D01*
X107331218Y-38751218D01*
X107234963Y-38876660D01*
X107174456Y-39022737D01*
X107174455Y-39022739D01*
X107153818Y-39179498D01*
X107153818Y-39179501D01*
X105190182Y-39179501D01*
X105190182Y-39179500D01*
X105169544Y-39022738D01*
X105109036Y-38876659D01*
X105012782Y-38751218D01*
X104887341Y-38654964D01*
X104861796Y-38644383D01*
X104741262Y-38594456D01*
X104741260Y-38594455D01*
X104584501Y-38573818D01*
X104584499Y-38573818D01*
X104427739Y-38594455D01*
X104427737Y-38594456D01*
X104281660Y-38654963D01*
X104156218Y-38751218D01*
X104059963Y-38876660D01*
X103999456Y-39022737D01*
X103999455Y-39022739D01*
X103978818Y-39179498D01*
X103978818Y-39179501D01*
X101282500Y-39179501D01*
X101282500Y-35494404D01*
X105312318Y-35494404D01*
X105332955Y-35651163D01*
X105332956Y-35651165D01*
X105362619Y-35722779D01*
X105393464Y-35797244D01*
X105489718Y-35922685D01*
X105615159Y-36018939D01*
X105615162Y-36018940D01*
X105621762Y-36022751D01*
X105669978Y-36073318D01*
X105683202Y-36141925D01*
X105657234Y-36206790D01*
X105652579Y-36212365D01*
X105626912Y-36241336D01*
X105548387Y-36390955D01*
X105536747Y-36438181D01*
X105507950Y-36555015D01*
X105507950Y-36723985D01*
X105511113Y-36736817D01*
X105548387Y-36888044D01*
X105626912Y-37037663D01*
X105738956Y-37164134D01*
X105738958Y-37164136D01*
X105738961Y-37164139D01*
X105878018Y-37260123D01*
X105878019Y-37260123D01*
X105878021Y-37260125D01*
X105971239Y-37295478D01*
X106036011Y-37320043D01*
X106161662Y-37335300D01*
X106161665Y-37335300D01*
X106245838Y-37335300D01*
X106340075Y-37323857D01*
X106371489Y-37320043D01*
X106529479Y-37260125D01*
X106668539Y-37164139D01*
X106780588Y-37037662D01*
X106859112Y-36888046D01*
X106899550Y-36723985D01*
X106899550Y-36555015D01*
X106859112Y-36390954D01*
X106780588Y-36241338D01*
X106780587Y-36241336D01*
X106668543Y-36114865D01*
X106668541Y-36114863D01*
X106668539Y-36114861D01*
X106529479Y-36018875D01*
X106529477Y-36018874D01*
X106486322Y-36002507D01*
X106430620Y-35960329D01*
X106406564Y-35894731D01*
X106421792Y-35826541D01*
X106431915Y-35811085D01*
X106442536Y-35797244D01*
X106503044Y-35651165D01*
X106523682Y-35494403D01*
X106503044Y-35337641D01*
X106442536Y-35191562D01*
X106346282Y-35066121D01*
X106220841Y-34969867D01*
X106074762Y-34909359D01*
X106074760Y-34909358D01*
X105918001Y-34888721D01*
X105917999Y-34888721D01*
X105761239Y-34909358D01*
X105761237Y-34909359D01*
X105615160Y-34969866D01*
X105489718Y-35066121D01*
X105393463Y-35191563D01*
X105332956Y-35337640D01*
X105332955Y-35337642D01*
X105312318Y-35494401D01*
X105312318Y-35494404D01*
X101282500Y-35494404D01*
X101282500Y-34925000D01*
X98628426Y-34925000D01*
X98561387Y-34905315D01*
X98515632Y-34852511D01*
X98505688Y-34783353D01*
X98532038Y-34725653D01*
X98530834Y-34724729D01*
X98535779Y-34718284D01*
X98535782Y-34718282D01*
X98628652Y-34597251D01*
X101597568Y-34597251D01*
X101618205Y-34754010D01*
X101618206Y-34754012D01*
X101678714Y-34900091D01*
X101774968Y-35025532D01*
X101900409Y-35121786D01*
X102046488Y-35182294D01*
X102124869Y-35192613D01*
X102203249Y-35202932D01*
X102203250Y-35202932D01*
X102203251Y-35202932D01*
X102255504Y-35196052D01*
X102360012Y-35182294D01*
X102506091Y-35121786D01*
X102631532Y-35025532D01*
X102727786Y-34900091D01*
X102788294Y-34754012D01*
X102808932Y-34597250D01*
X102808351Y-34592839D01*
X102788294Y-34440489D01*
X102788294Y-34440488D01*
X102727786Y-34294409D01*
X102631532Y-34168968D01*
X102506091Y-34072714D01*
X102500130Y-34070245D01*
X102360012Y-34012206D01*
X102360010Y-34012205D01*
X102203251Y-33991568D01*
X102203249Y-33991568D01*
X102046489Y-34012205D01*
X102046487Y-34012206D01*
X101900410Y-34072713D01*
X101774968Y-34168968D01*
X101678713Y-34294410D01*
X101618206Y-34440487D01*
X101618205Y-34440489D01*
X101597568Y-34597248D01*
X101597568Y-34597251D01*
X98628652Y-34597251D01*
X98632036Y-34592841D01*
X98692544Y-34446762D01*
X98709557Y-34317532D01*
X98713182Y-34290001D01*
X98713182Y-34289998D01*
X98696245Y-34161351D01*
X98692544Y-34133238D01*
X98632036Y-33987159D01*
X98535782Y-33861718D01*
X98410341Y-33765464D01*
X98264262Y-33704956D01*
X98264260Y-33704955D01*
X98107501Y-33684318D01*
X98107499Y-33684318D01*
X97950739Y-33704955D01*
X97950737Y-33704956D01*
X97804660Y-33765463D01*
X97679218Y-33861718D01*
X97582963Y-33987160D01*
X97522456Y-34133237D01*
X97522455Y-34133239D01*
X97501818Y-34289998D01*
X97501818Y-34290001D01*
X97522455Y-34446760D01*
X97522456Y-34446762D01*
X97582964Y-34592841D01*
X97679218Y-34718282D01*
X97679220Y-34718283D01*
X97684166Y-34724729D01*
X97681572Y-34726719D01*
X97707740Y-34774642D01*
X97702756Y-34844334D01*
X97660884Y-34900267D01*
X97595420Y-34924684D01*
X97586574Y-34925000D01*
X95301362Y-34925000D01*
X95234323Y-34905315D01*
X95213681Y-34888681D01*
X94983353Y-34658353D01*
X94949868Y-34597030D01*
X94954852Y-34527338D01*
X94996724Y-34471405D01*
X95062188Y-34446988D01*
X95087214Y-34447732D01*
X95212250Y-34464194D01*
X95212251Y-34464194D01*
X95264504Y-34457314D01*
X95369012Y-34443556D01*
X95515091Y-34383048D01*
X95640532Y-34286794D01*
X95736786Y-34161353D01*
X95797294Y-34015274D01*
X95817932Y-33858512D01*
X95815785Y-33842206D01*
X95797294Y-33701751D01*
X95797294Y-33701750D01*
X95736786Y-33555671D01*
X95640532Y-33430230D01*
X95515091Y-33333976D01*
X95369012Y-33273468D01*
X95369010Y-33273467D01*
X95212251Y-33252830D01*
X95212249Y-33252830D01*
X95055489Y-33273467D01*
X95055487Y-33273468D01*
X94909410Y-33333975D01*
X94783968Y-33430230D01*
X94687713Y-33555672D01*
X94627206Y-33701749D01*
X94627205Y-33701751D01*
X94606568Y-33858510D01*
X94606568Y-33858513D01*
X94623028Y-33983542D01*
X94612262Y-34052577D01*
X94565882Y-34104833D01*
X94498613Y-34123718D01*
X94431813Y-34103237D01*
X94412408Y-34087408D01*
X93586766Y-33261766D01*
X93553281Y-33200443D01*
X93558265Y-33130751D01*
X93600137Y-33074818D01*
X93626988Y-33059527D01*
X93685587Y-33035255D01*
X93811028Y-32939001D01*
X93812862Y-32936610D01*
X93814924Y-32935104D01*
X93816775Y-32933254D01*
X93817063Y-32933542D01*
X93869286Y-32895406D01*
X93939032Y-32891248D01*
X93999954Y-32925457D01*
X94009612Y-32936602D01*
X94012776Y-32940725D01*
X94138217Y-33036979D01*
X94284296Y-33097487D01*
X94362677Y-33107806D01*
X94441057Y-33118125D01*
X94441058Y-33118125D01*
X94441059Y-33118125D01*
X94493312Y-33111245D01*
X94597820Y-33097487D01*
X94708236Y-33051751D01*
X108074568Y-33051751D01*
X108095205Y-33208510D01*
X108095206Y-33208512D01*
X108147174Y-33333975D01*
X108155714Y-33354591D01*
X108251968Y-33480032D01*
X108377409Y-33576286D01*
X108523488Y-33636794D01*
X108601869Y-33647113D01*
X108680249Y-33657432D01*
X108680250Y-33657432D01*
X108680251Y-33657432D01*
X108732504Y-33650552D01*
X108837012Y-33636794D01*
X108983091Y-33576286D01*
X109108532Y-33480032D01*
X109204786Y-33354591D01*
X109265294Y-33208512D01*
X109285932Y-33051750D01*
X109283987Y-33036979D01*
X109265294Y-32894989D01*
X109265294Y-32894988D01*
X109204786Y-32748909D01*
X109108532Y-32623468D01*
X108983091Y-32527214D01*
X108894996Y-32490724D01*
X108837012Y-32466706D01*
X108837010Y-32466705D01*
X108680251Y-32446068D01*
X108680249Y-32446068D01*
X108523489Y-32466705D01*
X108523487Y-32466706D01*
X108377410Y-32527213D01*
X108251968Y-32623468D01*
X108155713Y-32748910D01*
X108095206Y-32894987D01*
X108095205Y-32894989D01*
X108074568Y-33051748D01*
X108074568Y-33051751D01*
X94708236Y-33051751D01*
X94743899Y-33036979D01*
X94869340Y-32940725D01*
X94965594Y-32815284D01*
X95026102Y-32669205D01*
X95046740Y-32512443D01*
X95040571Y-32465588D01*
X95029083Y-32378321D01*
X95026102Y-32355681D01*
X94965594Y-32209602D01*
X94929644Y-32162751D01*
X97565318Y-32162751D01*
X97585955Y-32319510D01*
X97585956Y-32319512D01*
X97619931Y-32401536D01*
X97646464Y-32465591D01*
X97742718Y-32591032D01*
X97868159Y-32687286D01*
X98014238Y-32747794D01*
X98092619Y-32758113D01*
X98170999Y-32768432D01*
X98171000Y-32768432D01*
X98171001Y-32768432D01*
X98226821Y-32761083D01*
X98327762Y-32747794D01*
X98473841Y-32687286D01*
X98599282Y-32591032D01*
X98695536Y-32465591D01*
X98745773Y-32344307D01*
X98789614Y-32289904D01*
X98855908Y-32267839D01*
X98923607Y-32285118D01*
X98948015Y-32304079D01*
X98949213Y-32305277D01*
X98949215Y-32305279D01*
X98949218Y-32305282D01*
X99074659Y-32401536D01*
X99220738Y-32462044D01*
X99256150Y-32466706D01*
X99377499Y-32482682D01*
X99377500Y-32482682D01*
X99377501Y-32482682D01*
X99429754Y-32475802D01*
X99534262Y-32462044D01*
X99680341Y-32401536D01*
X99805782Y-32305282D01*
X99902036Y-32179841D01*
X99962544Y-32033762D01*
X99978711Y-31910964D01*
X99983182Y-31877001D01*
X99983182Y-31876998D01*
X99962544Y-31720239D01*
X99962544Y-31720238D01*
X99902036Y-31574159D01*
X99805782Y-31448718D01*
X99680341Y-31352464D01*
X99617378Y-31326384D01*
X99534262Y-31291956D01*
X99534260Y-31291955D01*
X99377501Y-31271318D01*
X99377499Y-31271318D01*
X99220739Y-31291955D01*
X99220737Y-31291956D01*
X99074660Y-31352463D01*
X98949218Y-31448718D01*
X98852964Y-31574159D01*
X98802726Y-31695443D01*
X98758884Y-31749846D01*
X98692590Y-31771910D01*
X98624891Y-31754630D01*
X98600484Y-31735670D01*
X98599286Y-31734472D01*
X98599283Y-31734470D01*
X98599282Y-31734468D01*
X98473841Y-31638214D01*
X98430286Y-31620173D01*
X98327762Y-31577706D01*
X98327760Y-31577705D01*
X98171001Y-31557068D01*
X98170999Y-31557068D01*
X98014239Y-31577705D01*
X98014237Y-31577706D01*
X97868160Y-31638213D01*
X97742718Y-31734468D01*
X97646463Y-31859910D01*
X97585956Y-32005987D01*
X97585955Y-32005989D01*
X97565318Y-32162748D01*
X97565318Y-32162751D01*
X94929644Y-32162751D01*
X94869340Y-32084161D01*
X94743899Y-31987907D01*
X94739734Y-31986182D01*
X94597820Y-31927399D01*
X94597818Y-31927398D01*
X94441059Y-31906761D01*
X94441057Y-31906761D01*
X94284297Y-31927398D01*
X94284295Y-31927399D01*
X94138218Y-31987906D01*
X94138217Y-31987907D01*
X94012776Y-32084161D01*
X94012774Y-32084162D01*
X94012773Y-32084164D01*
X94010933Y-32086562D01*
X94008865Y-32088071D01*
X94007029Y-32089908D01*
X94006742Y-32089621D01*
X93954502Y-32127760D01*
X93884756Y-32131910D01*
X93823838Y-32097693D01*
X93814193Y-32086562D01*
X93811028Y-32082437D01*
X93685587Y-31986183D01*
X93676857Y-31982567D01*
X93539508Y-31925675D01*
X93539506Y-31925674D01*
X93382747Y-31905037D01*
X93382745Y-31905037D01*
X93225985Y-31925674D01*
X93225983Y-31925675D01*
X93079906Y-31986182D01*
X92954464Y-32082437D01*
X92858209Y-32207879D01*
X92833940Y-32266470D01*
X92790098Y-32320874D01*
X92723804Y-32342938D01*
X92656105Y-32325658D01*
X92631698Y-32306698D01*
X91344751Y-31019751D01*
X103851818Y-31019751D01*
X103872455Y-31176510D01*
X103872456Y-31176512D01*
X103920274Y-31291956D01*
X103932964Y-31322591D01*
X104029218Y-31448032D01*
X104154659Y-31544286D01*
X104300738Y-31604794D01*
X104379119Y-31615113D01*
X104457499Y-31625432D01*
X104457500Y-31625432D01*
X104457501Y-31625432D01*
X104509754Y-31618552D01*
X104614262Y-31604794D01*
X104760341Y-31544286D01*
X104885782Y-31448032D01*
X104982036Y-31322591D01*
X105042544Y-31176512D01*
X105063182Y-31019750D01*
X105042544Y-30862988D01*
X104982036Y-30716909D01*
X104982035Y-30716908D01*
X104982035Y-30716907D01*
X104967658Y-30698171D01*
X104942463Y-30633002D01*
X104956501Y-30564557D01*
X105005314Y-30514567D01*
X105073406Y-30498903D01*
X105114699Y-30511297D01*
X105115526Y-30509301D01*
X105123033Y-30512410D01*
X105123034Y-30512411D01*
X105269113Y-30572919D01*
X105347494Y-30583238D01*
X105425874Y-30593557D01*
X105425875Y-30593557D01*
X105425876Y-30593557D01*
X105495779Y-30584354D01*
X105582637Y-30572919D01*
X105728716Y-30512411D01*
X105854157Y-30416157D01*
X105950411Y-30290716D01*
X106010919Y-30144637D01*
X106031557Y-29987875D01*
X106025435Y-29941377D01*
X106017798Y-29883367D01*
X106010919Y-29831113D01*
X105950411Y-29685034D01*
X105854157Y-29559593D01*
X105728716Y-29463339D01*
X105626370Y-29420946D01*
X105582637Y-29402831D01*
X105582635Y-29402830D01*
X105425876Y-29382193D01*
X105425874Y-29382193D01*
X105269114Y-29402830D01*
X105269112Y-29402831D01*
X105123035Y-29463338D01*
X104997593Y-29559593D01*
X104901338Y-29685035D01*
X104840831Y-29831112D01*
X104840830Y-29831114D01*
X104820193Y-29987873D01*
X104820193Y-29987876D01*
X104840830Y-30144635D01*
X104840831Y-30144637D01*
X104878765Y-30236219D01*
X104901339Y-30290716D01*
X104915717Y-30309454D01*
X104940911Y-30374622D01*
X104926873Y-30443067D01*
X104878059Y-30493057D01*
X104809968Y-30508721D01*
X104768674Y-30496330D01*
X104767849Y-30498324D01*
X104760338Y-30495213D01*
X104614262Y-30434706D01*
X104614260Y-30434705D01*
X104457501Y-30414068D01*
X104457499Y-30414068D01*
X104300739Y-30434705D01*
X104300737Y-30434706D01*
X104154660Y-30495213D01*
X104029218Y-30591468D01*
X103932963Y-30716910D01*
X103872456Y-30862987D01*
X103872455Y-30862989D01*
X103851818Y-31019748D01*
X103851818Y-31019751D01*
X91344751Y-31019751D01*
X90841319Y-30516319D01*
X90807834Y-30454996D01*
X90805000Y-30428638D01*
X90805000Y-29819199D01*
X91830796Y-29819199D01*
X91858502Y-29952532D01*
X91860186Y-29960634D01*
X91860187Y-29960636D01*
X91926645Y-30088893D01*
X91926649Y-30088899D01*
X92025245Y-30194469D01*
X92148672Y-30269526D01*
X92287772Y-30308500D01*
X92287773Y-30308500D01*
X92395950Y-30308500D01*
X92407502Y-30306911D01*
X92503111Y-30293771D01*
X92635609Y-30236219D01*
X92747665Y-30145054D01*
X92830971Y-30027037D01*
X92856296Y-29955779D01*
X92879345Y-29890925D01*
X92879345Y-29890923D01*
X92879346Y-29890921D01*
X92889204Y-29746801D01*
X92859814Y-29605366D01*
X92819466Y-29527499D01*
X93628318Y-29527499D01*
X93648955Y-29684258D01*
X93648956Y-29684260D01*
X93704849Y-29819199D01*
X93709464Y-29830339D01*
X93805718Y-29955780D01*
X93931159Y-30052034D01*
X94077238Y-30112542D01*
X94155619Y-30122861D01*
X94233999Y-30133180D01*
X94234000Y-30133180D01*
X94234001Y-30133180D01*
X94286254Y-30126300D01*
X94390762Y-30112542D01*
X94536841Y-30052034D01*
X94662282Y-29955780D01*
X94662283Y-29955777D01*
X94666511Y-29952534D01*
X94731680Y-29927339D01*
X94800125Y-29941377D01*
X94817484Y-29952533D01*
X94947157Y-30052035D01*
X94947158Y-30052035D01*
X94947159Y-30052036D01*
X95093238Y-30112544D01*
X95171619Y-30122863D01*
X95249999Y-30133182D01*
X95250000Y-30133182D01*
X95250001Y-30133182D01*
X95302254Y-30126302D01*
X95406762Y-30112544D01*
X95552841Y-30052036D01*
X95678282Y-29955782D01*
X95678284Y-29955779D01*
X95682516Y-29952532D01*
X95747685Y-29927337D01*
X95816130Y-29941375D01*
X95833490Y-29952532D01*
X95837716Y-29955775D01*
X95837718Y-29955777D01*
X95909209Y-30010634D01*
X95963157Y-30052030D01*
X95963158Y-30052030D01*
X95963159Y-30052031D01*
X96109238Y-30112539D01*
X96187619Y-30122858D01*
X96265999Y-30133177D01*
X96266000Y-30133177D01*
X96266001Y-30133177D01*
X96318254Y-30126297D01*
X96422762Y-30112539D01*
X96568841Y-30052031D01*
X96694282Y-29955777D01*
X96790536Y-29830336D01*
X96795149Y-29819199D01*
X97610796Y-29819199D01*
X97638502Y-29952532D01*
X97640186Y-29960634D01*
X97640187Y-29960636D01*
X97706645Y-30088893D01*
X97706649Y-30088899D01*
X97805245Y-30194469D01*
X97928672Y-30269526D01*
X98067772Y-30308500D01*
X98067773Y-30308500D01*
X98175950Y-30308500D01*
X98187502Y-30306911D01*
X98283111Y-30293771D01*
X98415609Y-30236219D01*
X98527665Y-30145054D01*
X98610971Y-30027037D01*
X98636296Y-29955779D01*
X98659345Y-29890925D01*
X98659345Y-29890923D01*
X98659346Y-29890921D01*
X98669204Y-29746801D01*
X98639814Y-29605366D01*
X98573354Y-29477105D01*
X98573351Y-29477102D01*
X98573350Y-29477100D01*
X98474754Y-29371530D01*
X98351330Y-29296475D01*
X98351329Y-29296474D01*
X98351328Y-29296474D01*
X98212228Y-29257500D01*
X98104051Y-29257500D01*
X98104050Y-29257500D01*
X97996889Y-29272229D01*
X97864389Y-29329781D01*
X97864389Y-29329782D01*
X97752338Y-29420943D01*
X97752333Y-29420948D01*
X97669028Y-29538963D01*
X97620654Y-29675074D01*
X97620654Y-29675077D01*
X97620654Y-29675079D01*
X97610796Y-29819199D01*
X96795149Y-29819199D01*
X96851044Y-29684257D01*
X96870172Y-29538963D01*
X96871682Y-29527496D01*
X96871682Y-29527493D01*
X96851149Y-29371530D01*
X96851044Y-29370733D01*
X96790536Y-29224654D01*
X96694282Y-29099213D01*
X96568841Y-29002959D01*
X96422762Y-28942451D01*
X96422760Y-28942450D01*
X96266001Y-28921813D01*
X96265999Y-28921813D01*
X96109239Y-28942450D01*
X96109237Y-28942451D01*
X95963157Y-29002959D01*
X95833482Y-29102463D01*
X95768313Y-29127657D01*
X95699868Y-29113619D01*
X95682509Y-29102463D01*
X95678284Y-29099221D01*
X95678282Y-29099218D01*
X95552841Y-29002964D01*
X95552836Y-29002962D01*
X95406762Y-28942456D01*
X95406760Y-28942455D01*
X95250001Y-28921818D01*
X95249999Y-28921818D01*
X95093239Y-28942455D01*
X95093237Y-28942456D01*
X94947157Y-29002964D01*
X94817487Y-29102464D01*
X94752318Y-29127658D01*
X94683873Y-29113620D01*
X94666515Y-29102464D01*
X94536842Y-29002962D01*
X94390762Y-28942454D01*
X94390760Y-28942453D01*
X94234001Y-28921816D01*
X94233999Y-28921816D01*
X94077239Y-28942453D01*
X94077237Y-28942454D01*
X93931160Y-29002961D01*
X93805718Y-29099216D01*
X93709463Y-29224658D01*
X93648956Y-29370735D01*
X93648955Y-29370737D01*
X93628318Y-29527496D01*
X93628318Y-29527499D01*
X92819466Y-29527499D01*
X92793354Y-29477105D01*
X92793351Y-29477102D01*
X92793350Y-29477100D01*
X92694754Y-29371530D01*
X92571330Y-29296475D01*
X92571329Y-29296474D01*
X92571328Y-29296474D01*
X92432228Y-29257500D01*
X92324051Y-29257500D01*
X92324050Y-29257500D01*
X92216889Y-29272229D01*
X92084389Y-29329781D01*
X92084389Y-29329782D01*
X91972338Y-29420943D01*
X91972333Y-29420948D01*
X91889028Y-29538963D01*
X91840654Y-29675074D01*
X91840654Y-29675077D01*
X91840654Y-29675079D01*
X91830796Y-29819199D01*
X90805000Y-29819199D01*
X90805000Y-28003501D01*
X94644318Y-28003501D01*
X94664955Y-28160260D01*
X94664956Y-28160262D01*
X94725464Y-28306341D01*
X94821718Y-28431782D01*
X94947159Y-28528036D01*
X95093238Y-28588544D01*
X95171619Y-28598863D01*
X95249999Y-28609182D01*
X95250000Y-28609182D01*
X95250001Y-28609182D01*
X95302254Y-28602302D01*
X95406762Y-28588544D01*
X95552841Y-28528036D01*
X95678282Y-28431782D01*
X95678284Y-28431778D01*
X95682513Y-28428534D01*
X95747682Y-28403340D01*
X95816127Y-28417378D01*
X95833487Y-28428534D01*
X95837715Y-28431778D01*
X95837718Y-28431782D01*
X95963159Y-28528036D01*
X96109238Y-28588544D01*
X96187619Y-28598863D01*
X96265999Y-28609182D01*
X96266000Y-28609182D01*
X96266001Y-28609182D01*
X96318254Y-28602302D01*
X96422762Y-28588544D01*
X96568841Y-28528036D01*
X96694282Y-28431782D01*
X96779284Y-28321005D01*
X100554318Y-28321005D01*
X100574955Y-28477764D01*
X100574956Y-28477766D01*
X100595778Y-28528036D01*
X100635464Y-28623845D01*
X100731718Y-28749286D01*
X100857159Y-28845540D01*
X101003238Y-28906048D01*
X101028912Y-28909428D01*
X101159999Y-28926686D01*
X101160000Y-28926686D01*
X101160001Y-28926686D01*
X101212254Y-28919806D01*
X101316762Y-28906048D01*
X101462841Y-28845540D01*
X101588282Y-28749286D01*
X101684536Y-28623845D01*
X101745044Y-28477766D01*
X101765682Y-28321004D01*
X101765681Y-28321000D01*
X101751923Y-28216496D01*
X101745044Y-28164242D01*
X101684536Y-28018163D01*
X101588282Y-27892722D01*
X101462841Y-27796468D01*
X101427195Y-27781703D01*
X101316762Y-27735960D01*
X101316760Y-27735959D01*
X101160001Y-27715322D01*
X101159999Y-27715322D01*
X101003239Y-27735959D01*
X101003237Y-27735960D01*
X100857160Y-27796467D01*
X100731718Y-27892722D01*
X100635463Y-28018164D01*
X100574956Y-28164241D01*
X100574955Y-28164243D01*
X100554318Y-28321002D01*
X100554318Y-28321005D01*
X96779284Y-28321005D01*
X96790536Y-28306341D01*
X96851044Y-28160262D01*
X96867218Y-28037405D01*
X96871682Y-28003501D01*
X96871682Y-28003498D01*
X96851044Y-27846739D01*
X96851044Y-27846738D01*
X96790536Y-27700659D01*
X96694282Y-27575218D01*
X96568841Y-27478964D01*
X96422762Y-27418456D01*
X96422760Y-27418455D01*
X96266001Y-27397818D01*
X96265999Y-27397818D01*
X96109239Y-27418455D01*
X96109237Y-27418456D01*
X95963157Y-27478964D01*
X95833486Y-27578465D01*
X95768317Y-27603659D01*
X95699872Y-27589621D01*
X95682514Y-27578465D01*
X95552842Y-27478964D01*
X95406762Y-27418456D01*
X95406760Y-27418455D01*
X95250001Y-27397818D01*
X95249999Y-27397818D01*
X95093239Y-27418455D01*
X95093237Y-27418456D01*
X94947160Y-27478963D01*
X94821718Y-27575218D01*
X94725463Y-27700660D01*
X94664956Y-27846737D01*
X94664955Y-27846739D01*
X94644318Y-28003498D01*
X94644318Y-28003501D01*
X90805000Y-28003501D01*
X90805000Y-26352501D01*
X91469318Y-26352501D01*
X91489955Y-26509260D01*
X91489956Y-26509262D01*
X91537774Y-26624706D01*
X91550464Y-26655341D01*
X91646718Y-26780782D01*
X91772159Y-26877036D01*
X91918238Y-26937544D01*
X91996619Y-26947863D01*
X92074999Y-26958182D01*
X92075000Y-26958182D01*
X92075001Y-26958182D01*
X92127254Y-26951302D01*
X92231762Y-26937544D01*
X92377841Y-26877036D01*
X92503282Y-26780782D01*
X92599536Y-26655341D01*
X92660044Y-26509262D01*
X92680682Y-26352501D01*
X97882818Y-26352501D01*
X97903455Y-26509260D01*
X97903456Y-26509262D01*
X97951274Y-26624706D01*
X97963964Y-26655341D01*
X98060218Y-26780782D01*
X98185659Y-26877036D01*
X98331738Y-26937544D01*
X98410119Y-26947863D01*
X98488499Y-26958182D01*
X98488500Y-26958182D01*
X98488501Y-26958182D01*
X98540754Y-26951302D01*
X98645262Y-26937544D01*
X98791341Y-26877036D01*
X98916782Y-26780782D01*
X99013036Y-26655341D01*
X99073544Y-26509262D01*
X99094182Y-26352500D01*
X99073544Y-26195738D01*
X99013036Y-26049659D01*
X98916782Y-25924218D01*
X98791341Y-25827964D01*
X98768862Y-25818653D01*
X98645262Y-25767456D01*
X98645260Y-25767455D01*
X98488501Y-25746818D01*
X98488499Y-25746818D01*
X98331739Y-25767455D01*
X98331737Y-25767456D01*
X98185660Y-25827963D01*
X98060218Y-25924218D01*
X97963963Y-26049660D01*
X97903456Y-26195737D01*
X97903455Y-26195739D01*
X97882818Y-26352498D01*
X97882818Y-26352501D01*
X92680682Y-26352501D01*
X92680682Y-26352500D01*
X92660044Y-26195738D01*
X92599536Y-26049659D01*
X92503282Y-25924218D01*
X92377841Y-25827964D01*
X92355362Y-25818653D01*
X92231762Y-25767456D01*
X92231760Y-25767455D01*
X92075001Y-25746818D01*
X92074999Y-25746818D01*
X91918239Y-25767455D01*
X91918237Y-25767456D01*
X91772160Y-25827963D01*
X91646718Y-25924218D01*
X91550463Y-26049660D01*
X91489956Y-26195737D01*
X91489955Y-26195739D01*
X91469318Y-26352498D01*
X91469318Y-26352501D01*
X90805000Y-26352501D01*
X90805000Y-24119500D01*
X90824685Y-24052461D01*
X90877489Y-24006706D01*
X90929000Y-23995500D01*
X91440138Y-23995500D01*
X91507177Y-24015185D01*
G37*
%TD.AperFunction*%
%TD*%
M02*
