<?xml version="1.0" encoding="UTF-8" standalone="no"?>
<!-- Created with Inkscape (http://www.inkscape.org/) -->

<svg
   width="210mm"
   height="297mm"
   viewBox="0 0 210 297"
   version="1.1"
   id="svg1"
   inkscape:version="1.4 (86a8ad7, 2024-10-11)"
   sodipodi:docname="led_pins2.svg"
   xmlns:inkscape="http://www.inkscape.org/namespaces/inkscape"
   xmlns:sodipodi="http://sodipodi.sourceforge.net/DTD/sodipodi-0.dtd"
   xmlns="http://www.w3.org/2000/svg"
   xmlns:svg="http://www.w3.org/2000/svg">
  <sodipodi:namedview
     id="namedview1"
     pagecolor="#ffffff"
     bordercolor="#111111"
     borderopacity="1"
     inkscape:showpageshadow="0"
     inkscape:pageopacity="0"
     inkscape:pagecheckerboard="1"
     inkscape:deskcolor="#d1d1d1"
     inkscape:document-units="mm"
     inkscape:zoom="1.4072596"
     inkscape:cx="210.69319"
     inkscape:cy="307.33492"
     inkscape:window-width="2560"
     inkscape:window-height="1334"
     inkscape:window-x="-11"
     inkscape:window-y="-11"
     inkscape:window-maximized="1"
     inkscape:current-layer="layer1" />
  <defs
     id="defs1" />
  <g
     inkscape:label="Layer 1"
     inkscape:groupmode="layer"
     id="layer1">
    <rect
       style="font-variation-settings:'wght' 500;fill:none;stroke:#000000;stroke-width:0.2;stroke-linejoin:round"
       id="rect1"
       width="15.371893"
       height="14.765001"
       x="17.420671"
       y="99.849472" />
    <path
       style="font-variation-settings:'wght' 500;fill:none;stroke:#000000;stroke-width:0.2;stroke-linejoin:round"
       d="M 71.350999,73.51315 V 36.360564 l -0.930618,-0.166182 -0.03324,-3.057744 0.963854,0 v -4.18261 l 2.726191,0.188014 -0.0054,3.961389 0.929432,0.133035 -0.0497,2.926395 -0.78689,0.06428 -0.148181,37.21481 z"
       id="path1"
       sodipodi:nodetypes="ccccccccccccc" />
    <path
       style="font-variation-settings:'wght' 500;fill:none;stroke:#000000;stroke-width:0.2;stroke-linejoin:round"
       d="m 79.247552,68.248782 0.883867,-32.186983 -0.697963,-0.06647 -0.0557,-3.089709 0.649404,-0.266937 0.06645,-3.684652 2.726193,-0.09401 -0.01177,3.645075 0.728086,0.13315 -0.07555,3.356818 -0.745467,0.06772 -0.02255,32.203112 z"
       id="path2"
       sodipodi:nodetypes="ccccccccccccc" />
    <path
       style="font-variation-settings:'wght' 500;fill:none;stroke:#000000;stroke-width:0.2;stroke-linejoin:round"
       d="M 86.862085,28.860022 H 68.154774 l 0.188014,-7.050494 18.331285,0.09401 z"
       id="path3" />
    <path
       style="font-variation-settings:'wght' 500;fill:none;stroke:#000000;stroke-width:0.2;stroke-linejoin:round"
       d="m 70.690961,21.82157 0.0021,-7.626576 C 70.442341,0 85.922056,0 84.417915,13.818968 l -0.0414,8.072787 z"
       id="path4"
       sodipodi:nodetypes="ccccc" />
    <path
       style="font-variation-settings:'wght' 500;fill:none;stroke:#000000;stroke-width:0.2;stroke-linejoin:round"
       d="m 62.514379,51.985642 c 4.265715,0.05444 8.524364,0.44141 12.784896,0.658045 6.612067,0.336206 -1.445305,-0.110045 4.982348,0.09401 1.160523,0.03684 2.319798,0.109474 3.478244,0.188013 3.400877,0.230568 0.788821,0.188013 3.478244,0.188013 0.219348,0 0.445918,0.05582 0.658045,0 1.295615,-0.34095 1.7549,-0.44322 2.914206,-0.940065 1.214657,-0.520568 0.320167,-0.268055 1.128077,-0.470032"
       id="path5" />
    <path
       style="font-variation-settings:'wght' 500;fill:none;stroke:#000000;stroke-width:0.2;stroke-linejoin:round"
       d="m 75.911818,86.14861 c -0.132946,-0.398835 -0.285012,-0.7918 -0.398839,-1.196507 -0.08589,-0.3054 -0.1198,-0.623522 -0.199416,-0.930619 -0.290867,-1.12191 -0.708922,-2.220303 -1.063564,-3.323634 -0.08863,-0.265891 -0.177261,-0.531781 -0.265891,-0.797672 -0.02217,-0.110789 -0.03543,-0.223729 -0.06647,-0.332364 -0.07008,-0.245295 -0.184941,-0.488349 -0.26589,-0.7312 -0.01995,-0.05983 0.01995,-0.139591 0,-0.199416 -0.01566,-0.047 -0.05833,-0.08407 -0.06647,-0.132945 -0.04521,-0.271259 0,-0.587307 0,-0.864145"
       id="path6" />
    <path
       style="font-variation-settings:'wght' 500;fill:none;stroke:#000000;stroke-width:0.2;stroke-linejoin:round"
       d="m 72.588183,80.631378 c -0.07007,-0.700661 -0.116914,-0.946457 -0.06647,-1.72829 0.0099,-0.153686 0.223284,-2.018048 0.332364,-2.127125 0.04385,-0.04386 0.318601,-0.01299 0.398836,-0.06647 0.138795,-0.09253 0.263662,-0.327906 0.332364,-0.46531 0.0099,-0.01982 -0.01566,-0.0508 0,-0.06647 0.03133,-0.03134 0.08949,-0.0087 0.132945,0 0.435277,0.08706 0.575207,0.418182 0.864145,0.7312 0.148781,0.161176 0.327295,0.29482 0.465309,0.465307 0.442148,0.248509 0.509644,0.770003 0.797672,1.130038 0.08583,0.107291 0.465309,0.474487 0.465309,0.53178"
       id="path7" />
    <ellipse
       style="font-variation-settings:'wght' 500;fill:none;stroke:#000000;stroke-width:0.2;stroke-linejoin:round"
       id="path8"
       cx="52.874557"
       cy="107.81922"
       rx="6.8624806"
       ry="7.2432313" />
    <ellipse
       style="font-variation-settings:'wght' 500;fill:none;stroke:#000000;stroke-width:0.2;stroke-linejoin:round"
       id="path9"
       cx="84.235199"
       cy="107.40897"
       rx="14.241998"
       ry="5.9224148" />
    <path
       style="font-variation-settings:'wght' 500;fill:none;stroke:#000000;stroke-width:0.2;stroke-linejoin:round"
       d="m 17.881294,95.537217 c 3.884556,0.0743 7.771154,0.047 11.656816,0.047 0.943584,0 1.922645,0.0556 2.867202,0 0.828469,-0.0487 0.238099,-0.047 0.470033,-0.047"
       id="path10" />
    <path
       style="font-variation-settings:'wght' 500;fill:none;stroke:#000000;stroke-width:0.2;stroke-linejoin:round"
       d="m 31.136222,94.409137 c 0.434235,0 0.243568,-0.0432 0.658046,0.14101 0.600604,0.26694 0.741158,0.36874 1.175083,0.84606 0.06146,0.0676 0.214096,0.1802 0.14101,0.23502 -0.362157,0.27161 -0.88941,0.36188 -1.316093,0.51703 -0.218895,0.0796 -0.437079,0.16137 -0.658046,0.23502 -0.06128,0.0204 -0.188682,0.1116 -0.188013,0.047 0.0029,-0.28201 0.130707,-0.5487 0.196059,-0.82305"
       id="path11" />
    <path
       style="font-variation-settings:'wght' 500;fill:none;stroke:#000000;stroke-width:0.2;stroke-linejoin:round"
       d="m 19.056376,93.892107 c -0.884874,0.68067 -0.363667,0.32774 -1.457102,0.94006 -0.505433,0.28304 -0.203152,0.0655 -0.611043,0.56404 -0.08419,0.10289 -0.178206,0.19897 -0.282019,0.28202 -0.02736,0.0219 -0.06923,0.0222 -0.09401,0.047 -0.01108,0.0111 0.032,-0.004 0.047,0 0.142369,0.0427 0.280338,0.0994 0.42303,0.14101 0.2335,0.0681 0.469082,0.12903 0.705049,0.18802 0.285228,0.0713 0.179783,0.002 0.42303,0.14101 0.175604,0.10034 0.187903,0.14745 0.188013,0.14101 0.0045,-0.26366 -0.0229,-0.5269 -0.03435,-0.79034"
       id="path12" />
    <path
       style="font-variation-settings:'wght' 500;fill:none;stroke:#000000;stroke-width:0.2;stroke-linejoin:round"
       d="m 13.886014,100.19055 c 0,0.0783 -0.01288,0.15774 0,0.23501 0.241177,1.44707 0.140082,-0.447153 0.235016,2.02114 0.05649,1.46861 0,2.94845 0,4.41831 0,0.36036 -0.0095,0.72084 0,1.08108 0.0127,0.48256 0.145753,1.02115 0.09401,1.50411 -0.07219,0.67375 -0.15812,1.22248 -0.188013,1.88013 -0.03404,0.74894 0,1.50623 0,2.25616 0,0.0918 -0.05081,0.56403 0.047,0.56403"
       id="path13" />
    <path
       style="font-variation-settings:'wght' 500;fill:none;stroke:#000000;stroke-width:0.2;stroke-linejoin:round"
       d="m 13.039955,112.92844 c 0.519174,0.44501 0.189884,0.0788 0.470033,0.61104 0.747938,1.28218 -0.0012,-0.0495 0.517036,0.98707 0.204729,0.40946 0.246914,-0.041 0.376026,-0.32902 0.14056,-0.31356 0.603121,-0.64742 0.42303,-0.94007 -0.150965,-0.24532 -0.532702,0.21935 -0.799053,0.32903"
       id="path14" />
    <path
       style="font-variation-settings:'wght' 500;fill:none;stroke:#000000;stroke-width:0.2;stroke-linejoin:round"
       d="m 12.616925,102.30569 c 0.05148,-0.0772 0.120963,-0.26192 0.188013,-0.32902 0.02216,-0.0222 0.07663,0.0261 0.09401,0 0.02748,-0.0412 0.02327,-0.0975 0.047,-0.14101 0.07078,-0.12976 0.166647,-0.24498 0.235017,-0.37603 0.119965,-0.22993 0.182923,-0.49076 0.329023,-0.70504 0.09382,-0.13761 0.327046,-0.16985 0.376026,-0.32903 0.03323,-0.10799 -0.282023,-0.21932 -0.188013,-0.28202 0.094,-0.0627 0.125343,0.18802 0.188013,0.28202 0.125342,-0.0313 0.25766,-0.14579 0.376027,-0.094 0.31498,0.1378 0.486286,0.64695 0.705049,0.89306 0.124594,0.14017 0.42303,0.33514 0.42303,0.56404"
       id="path15" />
    <text
       xml:space="preserve"
       style="font-size:2.11667px;line-height:0.9;font-family:'Source Code Pro';-inkscape-font-specification:'Source Code Pro, @wght=500';font-variation-settings:'wght' 500;text-align:start;writing-mode:lr-tb;direction:ltr;text-anchor:start;fill:none;stroke:#000000;stroke-width:0.2;stroke-linejoin:round"
       x="22.111589"
       y="93.892113"
       id="text15"><tspan
         sodipodi:role="line"
         id="tspan15"
         style="stroke-width:0.2"
         x="22.111589"
         y="93.892113">0.5mm</tspan></text>
    <text
       xml:space="preserve"
       style="font-size:2.11667px;line-height:0.9;font-family:'Source Code Pro';-inkscape-font-specification:'Source Code Pro, @wght=500';font-variation-settings:'wght' 500;text-align:start;writing-mode:lr-tb;direction:ltr;text-anchor:start;fill:none;stroke:#000000;stroke-width:0.2;stroke-linejoin:round"
       x="6.0393806"
       y="107.2828"
       id="text15-8"><tspan
         sodipodi:role="line"
         id="tspan15-8"
         style="stroke-width:0.2"
         x="6.0393806"
         y="107.2828">0.5mm</tspan></text>
    <text
       xml:space="preserve"
       style="font-size:2.11667px;line-height:0.9;font-family:'Source Code Pro';-inkscape-font-specification:'Source Code Pro, @wght=500';font-variation-settings:'wght' 500;text-align:start;writing-mode:lr-tb;direction:ltr;text-anchor:start;fill:none;stroke:#000000;stroke-width:0.2;stroke-linejoin:round"
       x="24.591301"
       y="130.37964"
       id="text15-8-5"><tspan
         sodipodi:role="line"
         id="tspan15-8-1"
         style="stroke-width:0.2"
         x="24.591301"
         y="130.37964">0.8mm</tspan></text>
    <path
       style="font-variation-settings:'wght' 500;fill:none;stroke:#000000;stroke-width:0.2;stroke-linejoin:round"
       d="m 17.420671,100.57319 c 0.308597,0.11079 0.626688,0.19804 0.925793,0.33236 0.410739,0.18446 0.812446,0.72544 1.130035,1.03033 0.502482,0.48238 0.452865,0.39401 1.0968,0.93062 0.515672,0.42972 0.453709,0.39942 0.930618,0.83091 0.53066,0.48012 10e-4,-0.002 0.531781,0.43207 0.498495,0.40786 0.972303,0.84549 1.462399,1.26298 0.204157,0.17391 0.429658,0.32194 0.631491,0.49855 0.188659,0.16507 0.34545,0.36408 0.531782,0.53178 0.578467,0.52062 1.188965,0.9982 1.761526,1.52887 0.744267,0.68981 0.147821,0.16126 0.7312,0.79767 0.137632,0.15014 0.297312,0.27934 0.432072,0.43207 0.198045,0.22445 0.370673,0.47031 0.565018,0.69797 0.290317,0.34008 0.587716,0.67452 0.897381,0.99709 0.260411,0.27126 0.546124,0.51817 0.797674,0.79767 0.105333,0.11704 0.196001,0.24661 0.299125,0.3656 0.147002,0.16961 0.124878,0.10907 0.299127,0.26589 0.271383,0.24424 0.56021,0.48739 0.797674,0.76444 0.123936,0.14459 0.214135,0.31555 0.332362,0.46531 0.03849,0.20802 0.252936,0.258 0.365601,0.39883 0.06032,0.0389 0.06095,0.1145 0.09971,0.16618 0.0282,0.0376 0.07869,0.0577 0.09971,0.0997 0.0049,0.01 -0.0078,0.0254 0,0.0332 0.0078,0.008 0.03323,-0.0111 0.03323,0 0,0.12753 -0.02215,0.25409 -0.03323,0.38114"
       id="path16" />
    <path
       style="font-variation-settings:'wght' 500;fill:none;stroke:#000000;stroke-width:0.2;stroke-linejoin:round"
       d="m 30.178603,113.5686 c 0.07755,0.0222 0.155673,0.0424 0.232656,0.0665 0.354653,0.11083 0.322479,0.0908 0.664726,0.33237 0.229859,0.16225 0.430765,0.3758 0.664726,0.53178 0.07729,0.0515 0.380875,0.0614 0.465309,0.0332 0.0105,-0.004 -0.0035,-0.0227 0,-0.0332 0.07074,-0.21223 0.02209,-0.0943 -0.03324,-0.23266 -0.03393,-0.0848 -0.03896,-0.17877 -0.06647,-0.26589 -0.124143,-0.39311 -0.143952,-0.27579 -0.166182,-0.63149 -0.0055,-0.0885 0.01458,-0.17846 0,-0.26589 -0.0081,-0.0489 -0.0519,-0.0856 -0.06647,-0.13294 -0.03004,-0.0976 -0.04644,-0.19897 -0.06647,-0.29913 -0.0043,-0.0217 0.0099,-0.0467 0,-0.0665 -0.03821,-0.0764 -0.19942,-0.64615 -0.19942,-0.7312"
       id="path17" />
    <path
       style="font-variation-settings:'wght' 500;fill:none;stroke:#000000;stroke-width:0.2;stroke-linejoin:round"
       d="m 17.420671,100.57319 c 0.120258,0.0886 0.290972,0.13381 0.360775,0.26589 0.280884,0.53148 0.232654,1.84886 0.232654,2.45949 0,0.16618 0,0.33236 0,0.49854 0,0.0222 -0.02216,0.0665 0,0.0665 0.02216,0 0,-0.0443 0,-0.0665 0,-0.0665 0.06647,-0.19941 0,-0.19941 -0.20868,0 -0.39562,0.13294 -0.593429,0.19941"
       id="path18" />
    <path
       style="font-variation-settings:'wght' 500;fill:none;stroke:#000000;stroke-width:0.2;stroke-linejoin:round"
       d="m 17.420671,100.57319 c 0.219967,-0.0554 0.433574,-0.15102 0.659902,-0.16618 0.115407,-0.008 0.220773,0.0693 0.332363,0.0997 0.132209,0.0361 0.265526,0.068 0.398837,0.0997 0.326623,0.0778 0.593144,0.19408 0.897381,0.33237 0.101486,0.0461 0.227035,0.0734 0.332363,0.0997 0.02149,0.005 0.0459,-0.008 0.06647,0 0.03709,0.0148 0.06321,0.0503 0.09971,0.0665 0.124075,0.0551 0.246916,0.0601 0.3656,0.0997 0.01486,0.005 0.01837,0.0283 0.03324,0.0332 0.07003,0.0233 0.219927,-0.046 0.265891,0 0.04432,0.0443 -0.05539,0.0332 0.03324,0.0332"
       id="path19" />
    <ellipse
       style="font-variation-settings:'wght' 500;fill:none;stroke:#000000;stroke-width:0.2;stroke-linejoin:round"
       id="path20"
       cx="25.096298"
       cy="130.86018"
       rx="7.0739951"
       ry="6.7449722" />
    <path
       style="font-variation-settings:'wght' 500;fill:none;stroke:#000000;stroke-width:0.2;stroke-linejoin:round"
       d="m 20.685936,125.5866 c 0.6459,-0.47876 0.314231,0.39358 0.532592,0.50276 0.01401,0.007 0.03697,-0.012 0.047,0 0.20355,0.24426 0.406227,0.56989 0.564039,0.84606 0.160064,0.28011 0.331329,0.55478 0.470034,0.84606 0.07884,0.16557 0.10889,0.3516 0.188013,0.51703 0.148411,0.31032 0.370571,0.58183 0.517036,0.89307 0.07185,0.15268 0.112547,0.3191 0.188013,0.47003 0.02452,0.049 0.318338,0.4076 0.329023,0.42303 0.08413,0.12153 0.158969,0.24928 0.235016,0.37603 0.111987,0.18664 0.208285,0.38293 0.329024,0.56404 0.135947,0.20392 0.433291,0.52324 0.564039,0.75205 0.0592,0.1036 0.07309,0.23092 0.14101,0.32902 0.07567,0.10931 0.197834,0.17913 0.28202,0.28202 0.05785,0.0707 0.09401,0.15668 0.14101,0.23502 0.125342,0.15667 0.248474,0.31515 0.376026,0.47003 0.226653,0.27522 0.561858,0.54175 0.752052,0.84606 0.0557,0.0891 0.07648,0.19906 0.14101,0.28202 0.0481,0.0618 0.137031,0.0815 0.188014,0.14101 0.123204,0.14374 0.133378,0.35732 0.235016,0.51704 0.04758,0.0748 0.125342,0.12534 0.188013,0.18801 0.047,0.12534 0.08562,0.25416 0.14101,0.37603 0.16873,0.3712 0.0036,-0.0735 0.235017,0.23501 0.0188,0.0251 -0.01401,0.066 0,0.094 0.07579,0.15158 0.180336,0.28745 0.282019,0.42303 0.03988,0.0532 0.116715,0.0791 0.14101,0.14101 0.08156,0.20771 0.112491,0.43188 0.168736,0.64782"
       id="path21" />
    <path
       style="font-variation-settings:'wght' 500;fill:none;stroke:#000000;stroke-width:0.2;stroke-linejoin:round"
       d="m 26.200877,135.63103 c 0.40421,0.17189 0.748934,0.34533 1.081075,0.61104 0.0576,0.0461 0.119491,0.17088 0.188014,0.18802 0.0456,0.0114 0.09541,-0.0114 0.141009,0 0.07285,0.0182 0.153222,0.094 0.235017,0.094 0.04217,0 0.215259,0.0668 0.235016,0.047 0.05846,-0.0585 0,-0.4383 0,-0.61105 0,-1.47405 -0.01418,0.60383 0.047,-0.98707 0.01678,-0.43631 0,-0.87858 0,-1.31609"
       id="path22" />
    <path
       style="font-variation-settings:'wght' 500;fill:none;stroke:#000000;stroke-width:0.2;stroke-linejoin:round"
       d="m 20.705099,125.57209 c 0.05969,0.97012 0.09793,0.48562 -0.144617,1.50434 -0.0933,0.39186 -0.213959,0.77806 -0.28202,1.17508 -0.02647,0.15443 0,0.31336 0,0.47004 0,0.0157 -0.01567,0.047 0,0.047 0.01567,0 0,-0.0313 0,-0.047 0,-0.21935 -0.03812,-0.44204 0,-0.65805 0.02583,-0.14638 0.101483,-0.27975 0.14101,-0.42303 0.258812,-0.93819 0.368291,-1.17257 0.285627,-2.06838 z"
       id="path23" />
    <path
       style="font-variation-settings:'wght' 500;fill:none;stroke:#000000;stroke-width:0.2;stroke-linejoin:round"
       d="m 20.705099,125.57209 c 0.186811,8e-5 0.377285,-0.0366 0.560432,2.3e-4 0.162988,0.0328 0.74671,0.42488 0.846059,0.47004 0.18042,0.082 0.371774,0.13994 0.56404,0.18801 0.05813,0.0145 0.620431,0.0564 0.705049,0.14101"
       id="path24" />
    <text
       xml:space="preserve"
       style="font-size:2.11667px;line-height:0.9;font-family:'Source Code Pro';-inkscape-font-specification:'Source Code Pro, @wght=500';font-variation-settings:'wght' 500;text-align:start;writing-mode:lr-tb;direction:ltr;text-anchor:start;fill:none;stroke:#000000;stroke-width:0.2;stroke-linejoin:round"
       x="25.447741"
       y="107.10178"
       id="text24"><tspan
         sodipodi:role="line"
         id="tspan24"
         style="stroke-width:0.2"
         x="25.447741"
         y="107.10178">d</tspan></text>
    <text
       xml:space="preserve"
       style="font-size:2.11667px;line-height:0.9;font-family:'Source Code Pro';-inkscape-font-specification:'Source Code Pro, @wght=500';font-variation-settings:'wght' 500;text-align:start;writing-mode:lr-tb;direction:ltr;text-anchor:start;fill:none;stroke:#000000;stroke-width:0.2;stroke-linejoin:round"
       x="11.10094"
       y="147.63585"
       id="text25"><tspan
         sodipodi:role="line"
         id="tspan25"
         style="stroke-width:0.2"
         x="11.10094"
         y="147.63585">d^2 = 0.5^2 + 0.5^2</tspan><tspan
         sodipodi:role="line"
         style="stroke-width:0.2"
         x="11.10094"
         y="149.54085"
         id="tspan26" /><tspan
         sodipodi:role="line"
         style="stroke-width:0.2"
         x="11.10094"
         y="151.44586"
         id="tspan27">...</tspan><tspan
         sodipodi:role="line"
         style="stroke-width:0.2"
         x="11.10094"
         y="153.35086"
         id="tspan28" /><tspan
         sodipodi:role="line"
         style="stroke-width:0.2"
         x="11.10094"
         y="155.25586"
         id="tspan29">d = 0.707mm</tspan></text>
    <path
       style="font-variation-settings:'wght' 500;fill:none;stroke:#000000;stroke-width:0.2;stroke-linejoin:round"
       d="m 85.450647,29.148278 c 0,0.346892 -0.0073,-0.133639 0.03324,0.332361 0.01442,0.165894 -0.02085,0.213604 0.01662,0.38222 0.0081,0.03627 0.04196,0.0634 0.04985,0.09971 0.02014,0.09266 0.01699,0.189093 0.03324,0.282509 0.006,0.03451 0.02748,0.06515 0.03324,0.09971 0.0055,0.03279 -0.0044,0.06677 0,0.09971 0.02299,0.172376 0.07807,0.342043 0.09971,0.515162 0.01072,0.08581 0,0.179338 0,0.265891 0,0.134943 0.01262,0.282879 0,0.415454 -0.0081,0.08506 -0.04459,0.152405 -0.06647,0.232656 -0.01175,0.04309 -0.0024,0.09058 -0.01662,0.132945 -0.01725,0.05175 -0.04812,0.09818 -0.06647,0.149564 -0.0095,0.0266 -0.0089,0.05593 -0.01662,0.08309 -0.0034,0.01191 -0.01109,0.02217 -0.01662,0.03324 -0.01109,0.03324 -0.02564,0.06551 -0.03324,0.09971 -0.0036,0.01622 0.004,0.03373 0,0.04986 -0.0019,0.0076 -0.01413,0.0092 -0.01662,0.01662 -0.0088,0.02638 0.0011,0.08309 -0.03324,0.08309"
       id="path29" />
    <path
       style="font-variation-settings:'wght' 500;fill:none;stroke:#000000;stroke-width:0.2;stroke-linejoin:round"
       d="m 85.118286,31.906892 c 0.08994,0.118049 0.05288,0.27005 0.09971,0.398838 0.02207,0.06071 0.07347,0.107149 0.09971,0.16618 0.066,0.148497 -0.0064,0.156813 0.149564,0.182801 0.0039,5.29e-4 0.09435,0.03681 0.09971,0.03324 0.128722,-0.08581 0.373239,-0.445556 0.448688,-0.565018 0.01593,-0.02521 0.0176,-0.05769 0.03324,-0.08309 0.203687,-0.330985 0.03508,-0.0037 0.132945,-0.199416"
       id="path30" />
    <path
       style="font-variation-settings:'wght' 500;fill:none;stroke:#000000;stroke-width:0.2;stroke-linejoin:round"
       d="m 84.935486,29.763148 c 0,-0.05226 0.05503,-0.08886 0.08309,-0.132945 0.05365,-0.0843 0.05304,-0.08947 0.09971,-0.182801 0.09628,-0.156461 0.241653,-0.277389 0.315743,-0.448688 0.157793,0.0585 0.167584,0.221766 0.265893,0.332363 0.04937,0.05554 0.140524,0.123906 0.199418,0.1828"
       id="path31" />
    <path
       style="font-variation-settings:'wght' 500;fill:none;stroke:#000000;stroke-width:0.2;stroke-linejoin:round"
       d="m 78.23836,29.048567 c 0,0.481928 0,0.963856 0,1.445781 0,0.17726 -0.0092,0.354759 0,0.531781 0.0075,0.144788 0.04062,0.287387 0.04985,0.432072 0.01992,0.312031 0,0.634066 0,0.947238 0,0.384389 0.02021,0.779039 0,1.163272 -0.01228,0.233164 -0.05844,0.464921 -0.06647,0.697963 -0.0055,0.160546 0.0089,0.321532 0,0.481928 -0.0099,0.177805 -0.03199,0.359383 -0.06647,0.531781 -0.01093,0.05458 0,0.128055 0,0.1828 0,0.132945 0,0.265891 0,0.398836"
       id="path32" />
    <path
       style="font-variation-settings:'wght' 500;fill:none;stroke:#000000;stroke-width:0.2;stroke-linejoin:round"
       d="m 77.739816,35.31362 c 0.121187,0.05663 0.196395,0.169013 0.282509,0.26589 0.05042,0.05672 0.106857,0.102124 0.149563,0.166182 0.01423,0.02135 0.03646,0.08631 0.04986,0.09971 0.03059,0.03059 0.06208,-0.06189 0.08309,-0.09971 0.03609,-0.06497 0.06257,-0.135046 0.09971,-0.199419 0.05989,-0.103799 0.114683,-0.214392 0.199419,-0.299127 0.09548,-0.09548 0.04555,-0.008 0.08309,-0.08309"
       id="path33" />
    <path
       style="font-variation-settings:'wght' 500;fill:none;stroke:#000000;stroke-width:0.2;stroke-linejoin:round"
       d="m 78.15527,28.948859 c -0.08889,0.09214 -0.199898,0.149963 -0.299127,0.232653 -0.07444,0.06203 -0.141598,0.137385 -0.216035,0.199419 -0.03117,0.02598 -0.09983,0.04992 -0.132946,0.06647 -0.02257,0.0113 -0.04244,0.03324 -0.06647,0.03324"
       id="path34" />
    <path
       style="font-variation-settings:'wght' 500;fill:none;stroke:#000000;stroke-width:0.2;stroke-linejoin:round"
       d="m 78.304834,28.93224 c 0.04431,0.01662 0.09543,0.02101 0.132945,0.04986 0.06461,0.0497 0.110942,0.184905 0.149563,0.249272 0.02453,0.04086 0.05973,0.0748 0.08309,0.116327 0.04137,0.07354 0.0563,0.160306 0.09971,0.232656 0.0029,0.0047 0.01167,-0.0024 0.01662,0 0.02545,0.01273 0.01299,0.02961 0.03323,0.04985 0.01413,0.01413 0.03573,0.0191 0.04986,0.03324"
       id="path35" />
    <path
       style="font-variation-settings:'wght' 500;fill:none;stroke:#000000;stroke-width:0.2;stroke-linejoin:round"
       d="m 83.871921,36.094672 c 0.178445,-0.0096 0.354163,0.03324 0.531783,0.03324"
       id="path36" />
    <path
       style="font-variation-settings:'wght' 500;fill:none;stroke:#000000;stroke-width:0.2;stroke-linejoin:round"
       d="m 84.869011,36.194383 c 0.25091,-0.03464 0.510789,-0.01662 0.764437,-0.01662"
       id="path37" />
    <path
       style="font-variation-settings:'wght' 500;fill:none;stroke:#000000;stroke-width:0.2;stroke-linejoin:round"
       d="m 86.314792,36.177765 c 0.127431,0.01402 0.24643,-0.02675 0.365601,-0.06647 0.01175,-0.0039 0.02096,-0.01508 0.03324,-0.01662 0.03298,-0.0041 0.06647,0 0.09971,0 0.0277,0 0.05539,0 0.08309,0 0.01109,0 0.0254,-0.0078 0.03324,0 0.0088,0.0088 0.0079,0.02447 0.01662,0.03324"
       id="path38" />
    <path
       style="font-variation-settings:'wght' 500;fill:none;stroke:#000000;stroke-width:0.2;stroke-linejoin:round"
       d="m 87.777192,36.194383 c 0.166182,0 0.332364,0 0.498546,0"
       id="path39" />
    <path
       style="font-variation-settings:'wght' 500;fill:none;stroke:#000000;stroke-width:0.2;stroke-linejoin:round"
       d="m 83.772213,32.704566 c 0.21014,-0.0048 0.425484,0.01826 0.631491,-0.03324"
       id="path40" />
    <path
       style="font-variation-settings:'wght' 500;fill:none;stroke:#000000;stroke-width:0.2;stroke-linejoin:round"
       d="m 84.702831,32.754419 c 0.216035,0 0.432073,0 0.648108,0"
       id="path41" />
    <path
       style="font-variation-settings:'wght' 500;fill:none;stroke:#000000;stroke-width:0.2;stroke-linejoin:round"
       d="m 85.915957,32.837511 c 0.260352,0 0.520702,0 0.781055,0"
       id="path42" />
    <path
       style="font-variation-settings:'wght' 500;fill:none;stroke:#000000;stroke-width:0.2;stroke-linejoin:round"
       d="m 87.26203,32.85413 c 0.124227,-0.01569 0.259741,0.0245 0.382217,0 0.0434,-0.0087 0.03715,-0.01662 0.08309,-0.01662"
       id="path43" />
    <path
       style="font-variation-settings:'wght' 500;fill:none;stroke:#000000;stroke-width:0.2;stroke-linejoin:round"
       d="m 76.476835,35.945109 c 0.216035,0 0.432073,0 0.648108,0"
       id="path44" />
    <path
       style="font-variation-settings:'wght' 500;fill:none;stroke:#000000;stroke-width:0.2;stroke-linejoin:round"
       d="m 77.457307,35.978345 c 0.344226,0.02365 0.686631,-0.01661 1.030327,-0.01661"
       id="path45" />
    <path
       style="font-variation-settings:'wght' 500;fill:none;stroke:#000000;stroke-width:0.2;stroke-linejoin:round"
       d="m 78.720288,35.994964 c 0.178474,0.0065 0.35356,-0.01662 0.53178,-0.01662"
       id="path46" />
    <path
       style="font-variation-settings:'wght' 500;fill:none;stroke:#000000;stroke-width:0.2;stroke-linejoin:round"
       d="m 79.517961,34.416238 c 0.229439,-0.0218 0.454017,0.01757 0.681345,0.03324 0.235979,0.01627 0.477951,0 0.714581,0 0.189177,0 0.375629,0.01662 0.565018,0.01662 0.148,0 0.301702,-0.01471 0.448691,0 0.02273,0.0024 0.04381,0.01378 0.06647,0.01662 0.04397,0.0055 0.08878,-0.0037 0.132945,0 0.111183,0.0093 0.22452,0.01527 0.332365,0.03324 0.09162,0.01527 0.190883,-0.01527 0.282508,0 0.01222,0.0021 0.02122,0.01363 0.03324,0.01662 0.06269,0.01566 0.135422,-0.01066 0.199419,0 0.04506,0.0075 0.08773,0.02678 0.132946,0.03324 0.01556,0.0021 0.0813,-0.0074 0.09971,0 0.01855,0.0074 0.03131,0.02582 0.04986,0.03324 0.03904,0.01561 0.121812,0 0.16618,0"
       id="path47" />
    <path
       style="font-variation-settings:'wght' 500;fill:none;stroke:#000000;stroke-width:0.2;stroke-linejoin:round"
       d="m 82.642177,33.93431 c 0.137856,0.05409 0.264041,0.14402 0.382217,0.232656 0.04086,0.03064 0.07645,0.0678 0.116327,0.09971 0.0523,0.04184 0.140123,0.09027 0.182801,0.132945 0.0039,0.0039 -0.0039,0.0127 0,0.01662 0.01209,0.01206 0.07101,0.02117 0.08309,0.03324 0.0053,0.0053 0,0.08309 0,0.08309 -0.01238,0.01238 -0.03324,0.01109 -0.04986,0.01662 -0.0055,0.01662 -0.0076,0.03483 -0.01662,0.04986 -0.02307,0.03847 -0.118102,0.08321 -0.132946,0.09971 -0.02484,0.02762 -0.02704,0.07038 -0.04985,0.09971 -0.01701,0.02186 -0.04588,0.03133 -0.06647,0.04986 -0.05241,0.04716 -0.09219,0.108582 -0.149564,0.149563 -0.05963,0.04259 -0.149312,0.0496 -0.199419,0.09971"
       id="path48" />
    <path
       style="font-variation-settings:'wght' 500;fill:none;stroke:#000000;stroke-width:0.2;stroke-linejoin:round"
       d="m 80.215924,33.751512 c -0.123055,0 -0.428136,0.242723 -0.498546,0.315743 -0.08768,0.09093 -0.155104,0.199417 -0.232654,0.299127 0.09876,0.139769 0.227126,0.271436 0.382219,0.348983 0.04155,0.02078 0.07477,0.01246 0.116327,0.03324 0.03065,0.01532 0.138542,0.116327 0.166182,0.116327"
       id="path49" />
  </g>
</svg>
