0
SECTION
2
HEADER
9
$INSUNITS
70
4
9
$ACADVER
1
AC1014
9
$HANDSEED
5
FFFF
0
ENDSEC
0
SECTION
2
TABLES
0
TABLE
2
VPORT
5
8
100
AcDbSymbolTable
0
ENDTAB
0
TABLE
2
LTYPE
5
5
100
AcDbSymbolTable
0
LTYPE
5
14
100
AcDbSymbolTableRecord
100
AcDbLinetypeTableRecord
2
BYBLOCK
70
0
0
LTYPE
5
15
100
AcDbSymbolTableRecord
100
AcDbLinetypeTableRecord
2
BYLAYER
70
0
0
ENDTAB
0
TABLE
2
LAYER
5
2
100
AcDbSymbolTable
70
2
0
LAYER
5
50
100
AcDbSymbolTableRecord
100
AcDbLayerTableRecord
2
0
70
0
6
CONTINUOUS
0
ENDTAB
0
TABLE
2
STYLE
5
3
100
AcDbSymbolTable
70
1
0
STYLE
5
11
100
AcDbSymbolTableRecord
100
AcDbTextStyleTableRecord
2
STANDARD
70
0
0
ENDTAB
0
TABLE
2
VIEW
5
6
100
AcDbSymbolTable
70
0
0
ENDTAB
0
TABLE
2
UCS
5
7
100
AcDbSymbolTable
70
0
0
ENDTAB
0
TABLE
2
APPID
5
9
100
AcDbSymbolTable
70
2
0
APPID
5
12
100
AcDbSymbolTableRecord
100
AcDbRegAppTableRecord
2
ACAD
70
0
0
ENDTAB
0
TABLE
2
DIMSTYLE
5
A
100
AcDbSymbolTable
70
1
0
ENDTAB
0
TABLE
2
BLOCK_RECORD
5
1
100
AcDbSymbolTable
70
1
0
BLOCK_RECORD
5
1F
100
AcDbSymbolTableRecord
100
AcDbBlockTableRecord
2
*MODEL_SPACE
0
BLOCK_RECORD
5
1B
100
AcDbSymbolTableRecord
100
AcDbBlockTableRecord
2
*PAPER_SPACE
0
ENDTAB
0
ENDSEC
0
SECTION
2
BLOCKS
0
BLOCK
5
20
100
AcDbEntity
100
AcDbBlockBegin
2
*MODEL_SPACE
0
ENDBLK
5
21
100
AcDbEntity
100
AcDbBlockEnd
0
BLOCK
5
1C
100
AcDbEntity
100
AcDbBlockBegin
2
*PAPER_SPACE
0
ENDBLK
5
1D
100
AcDbEntity
100
AcDbBlockEnd
0
ENDSEC
0
SECTION
2
ENTITIES
0
CIRCLE
5
100
100
AcDbEntity
8
0
100
AcDbCircle
10
76.25
20
-27.495000000000005
30
0
40
1.6000000000000003
210
0
220
0
230
1
0
CIRCLE
5
101
100
AcDbEntity
8
0
100
AcDbCircle
10
114.25
20
-27.495000000000005
30
0
40
1.6000000000000003
210
0
220
0
230
1
0
CIRCLE
5
102
100
AcDbEntity
8
0
100
AcDbCircle
10
76.25
20
-87.495000000000005
30
0
40
1.6000000000000003
210
0
220
0
230
1
0
CIRCLE
5
103
100
AcDbEntity
8
0
100
AcDbCircle
10
114.25
20
-87.495000000949474
30
0
40
1.6000000000000003
210
0
220
0
230
1
0
LWPOLYLINE
5
104
100
AcDbEntity
8
0
100
AcDbPolyline
90
12
70
1
43
0.0
10
79.749999999999986
20
-21.495000000000001
10
110.75
20
-21.495000000000019
42
-0.66449469774082126
10
116.10714285714282
20
-34.243906591678261
42
0.19626156829139313
10
113.24999999945075
20
-41.242448713915969
10
113.24999999945078
20
-73.747551286129124
42
0.19626156831315211
10
116.10714285688499
20
-80.746093409792806
42
-0.66449469773158942
10
110.75000000000001
20
-93.495000000400239
10
79.749999999999972
20
-93.495000000400239
42
-0.66449469772118652
10
74.392857142285337
20
-80.746093408333493
42
0.19626156827939087
10
77.249999999599765
20
-73.747551286765045
10
77.249999999599751
20
-41.242448713925334
42
0.19626156827424041
10
74.392857142859143
20
-34.243906591680286
42
-0.66449469774095615
0
CIRCLE
5
105
100
AcDbEntity
8
0
100
AcDbCircle
10
76.25
20
-27.495000000000005
30
0
40
3.0000000000000004
210
0
220
0
230
1
0
CIRCLE
5
106
100
AcDbEntity
8
0
100
AcDbCircle
10
114.25
20
-27.495000000000005
30
0
40
3.0000000000000004
210
0
220
0
230
1
0
CIRCLE
5
107
100
AcDbEntity
8
0
100
AcDbCircle
10
76.25
20
-87.495000000000005
30
0
40
3.0000000000000004
210
0
220
0
230
1
0
CIRCLE
5
108
100
AcDbEntity
8
0
100
AcDbCircle
10
114.25
20
-87.495000000949474
30
0
40
3.0000000000000004
210
0
220
0
230
1
0
LINE
5
109
100
AcDbEntity
8
0
100
AcDbLine
10
72.249999999599765
20
-21.495000000000005
30
0
11
72.249999999585199
21
-93.495000000400239
31
0
0
LINE
5
110
100
AcDbEntity
8
0
100
AcDbLine
10
118.24999999945078
20
-21.494999999999997
30
0
11
118.24999999945805
21
-93.495000000400239
31
0
0
CIRCLE
5
111
100
AcDbEntity
8
0
100
AcDbCircle
10
88.25
20
-25.495000000000001
30
0
40
1.5349999999999999
210
0
220
0
230
1
0
CIRCLE
5
112
100
AcDbEntity
8
0
100
AcDbCircle
10
88.25
20
-29.495000000000001
30
0
40
1.5349999999999999
210
0
220
0
230
1
0
CIRCLE
5
113
100
AcDbEntity
8
0
100
AcDbCircle
10
83.25
20
-26.495000000000001
30
0
40
1.3999999999999999
210
0
220
0
230
1
0
CIRCLE
5
114
100
AcDbEntity
8
0
100
AcDbCircle
10
83.25
20
-34.995000000000005
30
0
40
1.3999999999999999
210
0
220
0
230
1
0
LINE
5
115
100
AcDbEntity
8
0
100
AcDbLine
10
95.249999999999929
20
-21.495000000000001
30
0
11
95.25
21
-93.495000000400239
31
0
0
LWPOLYLINE
5
116
100
AcDbEntity
8
0
100
AcDbPolyline
90
4
70
1
43
0.0
10
90.749999999999943
20
-21.495000000000001
10
99.749999999999929
20
-21.495000000000001
10
99.749999999999929
20
-28.995000000000005
10
90.749999999999943
20
-28.995000000000005
0
CIRCLE
5
117
100
AcDbEntity
8
0
100
AcDbCircle
10
106.68000000000001
20
-60.325000000000003
30
0
40
0.25
210
0
220
0
230
1
0
LWPOLYLINE
5
118
100
AcDbEntity
8
0
100
AcDbPolyline
90
4
70
1
43
0.0
10
104.93000000000001
20
-55.800000000000011
10
108.43000000000002
20
-55.800000000000011
10
108.43000000000002
20
-64.850000000000009
10
104.93000000000001
20
-64.850000000000009
0
LINE
5
119
100
AcDbEntity
8
0
100
AcDbLine
10
79.75
20
-28.995000000000001
30
0
11
79.749999999999986
21
-21.495000000000001
31
0
0
LINE
5
120
100
AcDbEntity
8
0
100
AcDbLine
10
79.75
20
-28.995000000000001
30
0
11
74.392857142859143
21
-34.243906591680286
31
0
0
LINE
5
121
100
AcDbEntity
8
0
100
AcDbLine
10
67.249999999599751
20
-41.242448713925342
30
0
11
77.249999999599751
21
-41.242448713925334
31
0
0
LINE
5
122
100
AcDbEntity
8
0
100
AcDbLine
10
67.249999999599751
20
-41.242448713925342
30
0
11
74.392857142859143
21
-34.243906591680286
31
0
0
CIRCLE
5
123
100
AcDbEntity
8
0
100
AcDbCircle
10
102.25
20
-25.495000000000001
30
0
40
1.5349999999999999
210
0
220
0
230
1
0
CIRCLE
5
124
100
AcDbEntity
8
0
100
AcDbCircle
10
102.25
20
-29.495000000000001
30
0
40
1.5349999999999999
210
0
220
0
230
1
0
CIRCLE
5
125
100
AcDbEntity
8
0
100
AcDbCircle
10
87.749999999999986
20
-62.495000000000005
30
0
40
1.5349999999999999
210
0
220
0
230
1
0
LWPOLYLINE
5
126
100
AcDbEntity
8
0
100
AcDbPolyline
90
4
70
1
43
0.0
10
105.43000000000001
20
-58.07500000000001
10
107.93000000000001
20
-58.07500000000001
10
107.93000000000001
20
-62.575000000000003
10
105.43000000000001
20
-62.575000000000003
0
LWPOLYLINE
5
127
100
AcDbEntity
8
0
100
AcDbPolyline
90
4
70
1
43
0.0
10
105.93000000000001
20
-60.575000000000003
10
107.43000000000001
20
-60.575000000000003
10
107.43000000000001
20
-62.075000000000003
10
105.93000000000001
20
-62.075000000000003
0
LWPOLYLINE
5
128
100
AcDbEntity
8
0
100
AcDbPolyline
90
4
70
1
43
0.0
10
105.93000000000001
20
-58.57500000000001
10
107.43000000000001
20
-58.57500000000001
10
107.43000000000001
20
-60.075000000000003
10
105.93000000000001
20
-60.075000000000003
0
LINE
5
129
100
AcDbEntity
8
0
100
AcDbLine
10
106.67999999999999
20
-60.075000000000003
30
0
11
106.67999999999999
21
-60.575000000000003
31
0
0
LWPOLYLINE
5
130
100
AcDbEntity
8
0
100
AcDbPolyline
90
4
70
1
43
0.0
10
81
20
-24.245000000000001
10
85.499999999999986
20
-24.245000000000001
10
85.499999999999986
20
-28.744999899417163
10
81
20
-28.744999899417163
0
CIRCLE
5
131
100
AcDbEntity
8
0
100
AcDbCircle
10
88.25
20
-25.495000000000001
30
0
40
1.8999999999999999
210
0
220
0
230
1
0
CIRCLE
5
132
100
AcDbEntity
8
0
100
AcDbCircle
10
88.25
20
-29.495000000000001
30
0
40
1.8999999999999999
210
0
220
0
230
1
0
CIRCLE
5
133
100
AcDbEntity
8
0
100
AcDbCircle
10
102.25
20
-25.495000000000001
30
0
40
1.8999999999999999
210
0
220
0
230
1
0
CIRCLE
5
134
100
AcDbEntity
8
0
100
AcDbCircle
10
102.25
20
-29.495000000000001
30
0
40
1.8999999999999999
210
0
220
0
230
1
0
CIRCLE
5
135
100
AcDbEntity
8
0
100
AcDbCircle
10
87.749999999999986
20
-62.495000000000005
30
0
40
1.8999999999999999
210
0
220
0
230
1
0
LWPOLYLINE
5
136
100
AcDbEntity
8
0
100
AcDbPolyline
90
4
70
1
43
0.0
10
81
20
-32.745000000000005
10
85.499999999999986
20
-32.745000000000005
10
85.499999999999986
20
-37.245000000000005
10
81
20
-37.245000000000005
0
CIRCLE
5
137
100
AcDbEntity
8
0
100
AcDbCircle
10
107.25
20
-26.495000000000001
30
0
40
1.3999999999999999
210
0
220
0
230
1
0
LWPOLYLINE
5
138
100
AcDbEntity
8
0
100
AcDbPolyline
90
4
70
1
43
0.0
10
105
20
-24.245000000000001
10
109.5
20
-24.245000000000001
10
109.5
20
-28.745000000000005
10
105
20
-28.745000000000005
0
CIRCLE
5
139
100
AcDbEntity
8
0
100
AcDbCircle
10
105.75000000000001
20
-89.495000000000005
30
0
40
1.3999999999999999
210
0
220
0
230
1
0
LWPOLYLINE
5
140
100
AcDbEntity
8
0
100
AcDbPolyline
90
4
70
1
43
0.0
10
103.50000000000001
20
-87.245000000000005
10
108
20
-87.245000000000005
10
108
20
-91.745000000000005
10
103.50000000000001
20
-91.745000000000005
0
LWPOLYLINE
5
141
100
AcDbEntity
8
0
100
AcDbPolyline
90
4
70
1
43
0.0
10
85.030000000000001
20
-65.882000000000005
10
90.22999999999999
20
-65.882000000000005
10
90.22999999999999
20
-83.882000000000005
10
85.030000000000001
20
-83.882000000000005
0
LWPOLYLINE
5
142
100
AcDbEntity
8
0
100
AcDbPolyline
90
4
70
1
43
0.0
10
100.27000000000001
20
-65.882000000000005
10
105.47
20
-65.882000000000005
10
105.47
20
-83.882000000000005
10
100.27000000000001
20
-83.882000000000005
0
LWPOLYLINE
5
143
100
AcDbEntity
8
0
100
AcDbPolyline
90
4
70
1
43
0.0
10
91.22999999999999
20
-64.882000000000005
10
91.22999999999999
20
-84.882000000000005
10
84.030000000000001
20
-84.882000000000005
10
84.030000000000001
20
-64.882000000000005
0
LWPOLYLINE
5
144
100
AcDbEntity
8
0
100
AcDbPolyline
90
4
70
1
43
0.0
10
106.47
20
-84.882000000000005
10
99.27000000000001
20
-84.882000000000005
10
99.27000000000001
20
-64.882000000000005
10
106.47
20
-64.882000000000005
0
ENDSEC
0
SECTION
2
OBJECTS
0
DICTIONARY
5
C
100
AcDbDictionary
3
ACAD_GROUP
350
D
3
ACAD_MLINESTYLE
350
17
0
DICTIONARY
5
D
100
AcDbDictionary
0
DICTIONARY
5
1A
330
C
100
AcDbDictionary
0
DICTIONARY
5
17
100
AcDbDictionary
0
ENDSEC
0
EOF
