<?xml version="1.0" encoding="UTF-8" standalone="no"?>
<svg
   fill="none"
   viewBox="0 0 48 48"
   height="256"
   width="256"
   version="1.1"
   id="svg6"
   sodipodi:docname="devheads.svg"
   inkscape:version="1.3.2 (091e20e, 2023-11-25, custom)"
   xml:space="preserve"
   inkscape:export-filename="..\..\..\..\..\..\Downloads\devheads_01.png"
   inkscape:export-xdpi="96"
   inkscape:export-ydpi="96"
   xmlns:inkscape="http://www.inkscape.org/namespaces/inkscape"
   xmlns:sodipodi="http://sodipodi.sourceforge.net/DTD/sodipodi-0.dtd"
   xmlns="http://www.w3.org/2000/svg"
   xmlns:svg="http://www.w3.org/2000/svg"><defs
     id="defs10" /><sodipodi:namedview
     id="namedview8"
     pagecolor="#ffffff"
     bordercolor="#666666"
     borderopacity="1.0"
     inkscape:showpageshadow="2"
     inkscape:pageopacity="0.0"
     inkscape:pagecheckerboard="true"
     inkscape:deskcolor="#d1d1d1"
     showgrid="true"
     inkscape:zoom="3.2382812"
     inkscape:cx="135.10254"
     inkscape:cy="117.80941"
     inkscape:current-layer="svg6"
     showguides="false"
     inkscape:window-width="2560"
     inkscape:window-height="1334"
     inkscape:window-x="-11"
     inkscape:window-y="-11"
     inkscape:window-maximized="1"><inkscape:grid
       type="xygrid"
       id="grid239"
       units="px"
       spacingx="1.5"
       spacingy="1.5"
       originx="0"
       originy="0"
       visible="true" /></sodipodi:namedview><path
     style="fill:#000000;stroke-width:1;fill-opacity:1"
     d="M 1.9875784e-8,0 H 48.000001 V 47.999999 H 1.9875784e-8 Z"
     id="path1"
     sodipodi:nodetypes="ccccc"
     inkscape:export-filename="..\..\..\..\..\..\Downloads\devheads.png"
     inkscape:export-xdpi="96"
     inkscape:export-ydpi="96" /><path
     style="fill:#dabd23;stroke-width:1"
     d="m 4.3636365,40.928571 v -4.5 h 2.879823 2.8798235 l 0.15048,1.607142 0.15048,1.607143 3.030303,0.127593 3.030303,0.127594 v 2.765264 2.765264 H 10.424243 4.3636365 Z m 15.4002245,3.642856 c -0.196543,-0.353571 -0.414725,-2.924073 -0.484848,-5.712226 l -0.127497,-5.06937 -7.272727,-0.07348 -7.2727282,-0.07348 V 18.642857 3.6428571 L 16.606062,3.5282272 28.606061,3.4135974 v 4.2932012 c 0,4.1055414 -0.516238,5.5199864 -1.171892,3.2108714 C 26.253484,6.7594745 17.023481,4.2976347 8.3578203,5.8295995 L 6.8974585,6.0877707 7.1212834,18.5796 c 0.1231038,6.870505 0.3097826,12.732899 0.4148419,13.027542 0.2357431,0.66115 10.8881177,0.776456 10.8881177,0.117858 0,-0.230917 0.618763,-0.30847 1.383081,-0.173349 4.537159,0.802105 8.226491,-3.381282 8.738571,-9.908795 l 0.302591,-3.857142 h 7.030303 7.030303 l 0.121326,13.392857 c 0.07897,8.716415 -0.04801,13.392856 -0.363637,13.392856 -0.300664,0 -0.491683,-2.402295 -0.502648,-6.321428 C 42.154395,34.773214 42.099859,29.035714 42.042921,25.5 l -0.103522,-6.428572 -3.515152,-0.125919 -3.515152,-0.125918 -0.02698,1.197347 c -0.01484,0.658541 -0.03792,2.884848 -0.05128,4.947347 l -0.0243,3.75 h -3.262513 c -3.033625,0 -3.355993,0.09274 -4.594993,1.3219 -0.732865,0.727046 -2.459839,1.783107 -3.837721,2.346802 l -2.505238,1.024902 -0.242424,5.903198 c -0.133333,3.246758 -0.403232,5.613912 -0.599776,5.26034 z m 8.701091,0.160984 C 28.275895,44.565299 28.121213,42.137615 28.121213,39.33756 V 34.246551 L 31.393941,34.373275 34.666668,34.5 v 5.142856 5.142857 l -2.928989,0.125269 c -1.610944,0.0689 -3.083671,-0.01146 -3.272727,-0.178571 z M 38.878789,35.11607 c 0.116667,-0.309374 0.498486,-0.646875 0.848485,-0.75 0.363637,-0.107143 0.545455,0.05357 0.424242,0.375001 -0.116665,0.309374 -0.498484,0.646875 -0.848485,0.749999 -0.363636,0.107143 -0.545453,-0.05357 -0.424242,-0.375 z M 14.545456,23.423812 c 0,-1.966903 -0.142248,-5.631189 -0.316106,-8.142857 l -0.316105,-4.56667 h 1.973421 c 4.092541,0 4.972164,1.237842 5.307048,7.468296 0.356215,6.627327 -0.891319,8.794336 -5.072501,8.8111 l -1.575757,0.0063 z M 28.15949,13.035714 c 0.02327,-0.499262 0.138154,-0.600814 0.29293,-0.258928 0.140059,0.309374 0.122834,0.679017 -0.03827,0.821428 -0.161111,0.142411 -0.275704,-0.110715 -0.254652,-0.5625 z m 9.173845,-2.107143 V 9.4285714 H 34.181819 31.030305 V 6.4285712 3.4285714 h 6.060605 6.060607 v 4.4999999 4.4999997 h -2.909091 -2.909091 z"
     id="path2" /></svg>
