<?xml version="1.0" encoding="UTF-8" standalone="no"?>
<svg
   fill="none"
   viewBox="0 0 192 192"
   height="1024"
   width="1024"
   version="1.1"
   id="svg6"
   sodipodi:docname="square_logo_big.svg"
   inkscape:version="1.3.2 (091e20e, 2023-11-25, custom)"
   xml:space="preserve"
   xmlns:inkscape="http://www.inkscape.org/namespaces/inkscape"
   xmlns:sodipodi="http://sodipodi.sourceforge.net/DTD/sodipodi-0.dtd"
   xmlns="http://www.w3.org/2000/svg"
   xmlns:svg="http://www.w3.org/2000/svg"><defs
     id="defs10" /><sodipodi:namedview
     id="namedview8"
     pagecolor="#ffffff"
     bordercolor="#666666"
     borderopacity="1.0"
     inkscape:showpageshadow="2"
     inkscape:pageopacity="0.0"
     inkscape:pagecheckerboard="true"
     inkscape:deskcolor="#d1d1d1"
     showgrid="true"
     inkscape:zoom="0.57245265"
     inkscape:cx="350.24731"
     inkscape:cy="399.15965"
     inkscape:current-layer="svg6"
     inkscape:window-width="2560"
     inkscape:window-height="1334"
     inkscape:window-x="-11"
     inkscape:window-y="-11"
     inkscape:window-maximized="1"><inkscape:grid
       type="xygrid"
       id="grid239"
       units="px"
       spacingx="1.5"
       spacingy="1.5"
       originx="0"
       originy="0"
       visible="true" /></sodipodi:namedview><path
     style="fill:#000000;fill-opacity:1"
     d="m 8.3852501,165.88692 c 0.58561,-0.90234 1.16064,-1.725 1.27786,-1.82812 0.11722,-0.10313 1.0055699,-1.28438 1.9740999,-2.625 0.96854,-1.34063 2.1002,-2.77964 2.51481,-3.19781 0.77269,-0.77931 1.45105,-1.55188 2.44133,-2.78036 0.46282,-0.57413 2.84856,-2.99283 6,-6.0829 0.30938,-0.30334 0.78708,-0.79339 1.06157,-1.08899 0.27448,-0.29559 0.73854,-0.72666 1.03125,-0.95792 0.2927,-0.23126 1.03812,-0.88517 1.65648,-1.45312 0.61836,-0.56796 1.18789,-1.03265 1.26563,-1.03265 0.0777,0 0.49891,-0.3586 0.93596,-0.79688 0.43705,-0.43828 1.97689,-1.65978 3.42188,-2.71444 1.44498,-1.05466 2.81019,-2.07573 3.0338,-2.26904 1.39574,-1.20667 8.20302,-5.29504 12.59859,-7.56657 l 2.50515,-1.2946 0.45883,0.61764 c 0.25236,0.3397 0.63947,0.91295 0.86024,1.27389 0.38602,0.63109 1.81251,2.61905 2.01815,2.8125 0.0548,0.0516 0.3928,0.47195 0.75107,0.93419 0.35827,0.46225 0.77797,0.97595 0.93266,1.14156 0.15468,0.16562 0.70312,0.79855 1.21875,1.40653 0.51562,0.60797 2.05546,2.24025 3.42187,3.62728 1.36641,1.38703 2.48438,2.57453 2.48438,2.63888 0,0.0644 -0.85509,1.04026 -1.90019,2.16866 -1.0451,1.12841 -2.28963,2.47197 -2.76562,2.9857 -0.47599,0.51374 -1.3595,1.52344 -1.96334,2.24379 -0.60384,0.72035 -1.203,1.3969 -1.33147,1.50344 -0.12847,0.10654 -0.73129,0.82355 -1.33961,1.59335 -0.60831,0.76979 -1.23259,1.5341 -1.38727,1.69846 -1.02481,1.08889 -5.16389,6.65491 -6.70109,9.01128 l -1.08016,1.65577 -18.23017,0.008 -18.2301699,0.008 z m 43.4705699,1.41981 c 0.36432,-0.6225 1.30078,-1.9537 1.49342,-2.12293 0.11739,-0.10313 0.79175,-0.98907 1.49857,-1.96875 0.70682,-0.97969 1.38269,-1.86563 1.50194,-1.96875 0.11924,-0.10313 0.62963,-0.73594 1.13419,-1.40625 1.25226,-1.66365 1.43202,-1.88278 1.82919,-2.22992 0.18963,-0.16573 0.58149,-0.63883 0.8708,-1.05133 0.28931,-0.4125 0.68259,-0.9286 0.87397,-1.14689 0.19137,-0.21828 0.55616,-0.66874 0.81063,-1.00101 0.25447,-0.33228 0.63416,-0.79205 0.84375,-1.02173 0.57469,-0.62974 1.6248,-1.85537 2.25608,-2.63315 0.30937,-0.38118 0.75224,-0.91899 0.98414,-1.19514 0.23191,-0.27614 0.42175,-0.56537 0.42188,-0.64271 6.6e-4,-0.4049 1.23859,-0.0307 2.72684,0.82431 8.80172,5.05651 14.14133,7.19615 21.46089,8.59959 4.34603,0.8333 7.47392,1.11102 12.58513,1.11743 7.58865,0.01 13.23231,-0.81959 19.48423,-2.86238 3.57762,-1.16897 5.29076,-1.85977 9.74314,-3.92879 2.19304,-1.01911 2.06132,-1.02808 2.83911,0.19322 3.01598,4.73572 6.85759,13.0943 6.28247,13.66941 -0.2578,0.2578 -7.90035,0.40433 -31.34033,0.60091 -49.62223,0.41615 -58.45676,0.44264 -58.30004,0.17486 z m 46.39378,-13.1328 c -1.70179,-0.0819 -3.56675,-0.29093 -4.5,-0.50439 -0.87656,-0.20049 -2.31093,-0.50361 -3.1875,-0.67359 -3.90665,-0.75758 -11.13567,-3.51673 -15.21107,-5.80571 -2.41695,-1.3575 -6.99259,-4.4673 -7.5651,-5.14156 -0.20904,-0.24619 -0.71758,-0.69444 -1.13008,-0.99612 -0.4125,-0.30167 -1.2191,-0.9941 -1.79244,-1.53872 -0.57335,-0.54463 -1.16412,-1.06669 -1.31283,-1.16014 -0.14871,-0.0934 -0.55011,-0.5074 -0.892,-0.9199 -0.3419,-0.4125 -0.89019,-1.07455 -1.21843,-1.47122 -0.32824,-0.39667 -0.89671,-1.02948 -1.26327,-1.40625 -1.03474,-1.06356 -3.93034,-5.49653 -5.28518,-8.09128 -2.26931,-4.3461 -3.97364,-9.76165 -4.66166,-14.8125 -0.34244,-2.51396 -0.38205,-3.48838 -0.29339,-7.21875 0.10423,-4.38593 0.18953,-5.15625 0.571,-5.15625 0.11787,0 0.65312,0.40766 1.18944,0.90593 1.22295,1.13618 2.72312,2.44796 3.35972,2.93782 0.26803,0.20625 0.65887,0.53546 0.86853,0.73159 0.83846,0.78433 5.54293,3.384 7.87708,4.35283 2.8245,1.17236 4.54481,1.66316 6.97016,1.98857 2.27772,0.3056 10.4171,0.29923 12.55504,-0.01 3.58198,-0.51781 8.9947,-2.75914 13.04837,-5.40314 2.02145,-1.31849 2.2461,-1.48753 3.37362,-2.53861 0.36093,-0.33647 1.03216,-0.94089 1.4916,-1.34315 0.45945,-0.40226 1.1297,-1.12162 1.48945,-1.59858 0.35975,-0.47695 0.70151,-0.90937 0.75946,-0.96093 0.058,-0.0516 0.35355,-0.43125 0.65689,-0.84375 0.30334,-0.4125 0.61137,-0.79229 0.68451,-0.84398 0.20907,-0.14773 2.20483,-3.682124 3.04378,-5.390399 0.41783,-0.850782 0.82025,-1.546875 0.89426,-1.546875 0.074,0 0.19433,0.358593 0.26736,0.796875 0.18011,1.080897 0.7462,2.926313 1.4523,4.734375 0.66294,1.697554 2.8525,6.025144 3.2491,6.421754 0.14371,0.1437 0.26263,0.31854 0.26428,0.38851 0.002,0.07 0.23368,0.39037 0.51563,0.71198 0.28194,0.32162 0.84979,0.99662 1.26187,1.5 0.79085,0.96607 2.58799,2.75532 3.31754,3.30296 1.05668,0.79321 1.93796,1.49782 2.02558,1.6195 0.0523,0.0727 1.0208,0.67734 2.15216,1.34371 5.41549,3.18971 10.85272,4.68149 17.05605,4.67958 4.6923,-10e-4 9.68879,-1.19716 14.4442,-3.45666 2.14242,-1.01796 2.34898,-1.08793 2.34898,-0.79568 0,0.59474 -0.83151,4.74758 -1.33964,6.6906 -0.54933,2.10056 -1.45972,4.559 -2.53581,6.84772 -0.84167,1.79016 -3.27086,6.13752 -3.71711,6.65228 -0.2235,0.25781 -0.98281,1.27031 -1.68736,2.25 -1.60327,2.22938 -5.47421,6.36715 -7.01636,7.5 -0.35096,0.25781 -0.73022,0.55486 -0.84279,0.66012 -0.11258,0.10525 -0.62656,0.52712 -1.14218,0.9375 -0.51563,0.41037 -1.02188,0.8421 -1.125,0.95939 -0.10313,0.1173 -1.24219,0.87354 -2.53125,1.68053 -1.28907,0.80699 -2.38594,1.5251 -2.4375,1.5958 -0.24071,0.33002 -6.67737,3.27215 -9.14331,4.1793 -2.85559,1.0505 -7.66121,2.38406 -9.79419,2.7179 -3.2869,0.51445 -10.73325,0.77323 -15.56251,0.54084 z m 13.08386,-14.35635 c 0.97468,-0.37739 3.54997,-1.89364 4.18843,-2.46602 0.17961,-0.16102 0.68144,-0.58808 1.11518,-0.94901 1.02006,-0.84885 1.25896,-1.0872 2.05004,-2.04529 0.36093,-0.43715 0.78827,-0.93626 0.94962,-1.10914 0.65184,-0.69837 2.4907,-3.5125 3.00346,-4.59638 0.85823,-1.81412 0.67575,-2.94456 -0.58016,-3.59402 -0.99004,-0.51197 -1.64016,-0.33615 -4.21245,1.13926 -2.06997,1.18728 -5.90076,1.17884 -10.64266,-0.0234 -3.66453,-0.92913 -6.42347,-1.93255 -12.25586,-4.45742 -1.35123,-0.58496 -2.6069,-1.06356 -2.79036,-1.06356 -0.60668,0 -1.60209,0.77582 -2.00894,1.56577 -1.38618,2.69137 0.9817,8.38143 5.40466,12.98751 1.37468,1.43159 3.00241,2.66092 4.82489,3.64395 2.37421,1.28063 3.45346,1.49057 7.2453,1.40938 2.19247,-0.047 2.9104,-0.13242 3.70885,-0.44158 z m 27.3224,-32.02307 c -0.30938,-0.0432 -1.19532,-0.1688 -1.96875,-0.27908 -2.04508,-0.2916 -5.63949,-1.5089 -7.67539,-2.59938 -0.97302,-0.52118 -1.81677,-1.01206 -1.875,-1.09085 -0.0582,-0.0788 -0.92517,-0.75363 -1.92655,-1.49964 -1.07821,-0.80325 -2.12793,-1.77228 -2.5741,-2.37625 -0.41439,-0.56093 -0.92648,-1.14108 -1.13799,-1.28923 -0.63242,-0.44296 -2.15684,-2.802874 -2.95274,-4.571045 -0.9784,-2.173629 -1.06975,-2.434776 -1.66112,-4.748989 -0.44976,-1.760051 -0.50374,-2.316582 -0.50926,-5.25 -0.006,-2.958375 0.0442,-3.484201 0.50613,-5.34375 0.28177,-1.134375 0.62586,-2.315625 0.76465,-2.625 0.13879,-0.309375 0.44445,-1.026563 0.67925,-1.59375 0.63947,-1.544712 2.59513,-4.67975 3.45144,-5.53286 0.6729,-0.670384 1.56238,-1.709922 1.93342,-2.259576 0.0734,-0.108775 0.85069,-0.738027 1.72726,-1.398339 0.87656,-0.660311 1.69614,-1.300287 1.82129,-1.422168 0.51411,-0.5007 4.30616,-2.376812 6.00855,-2.972732 3.21574,-1.125658 4.54877,-1.32228 8.85766,-1.306492 3.48159,0.01276 4.03807,0.06078 5.90625,0.509643 3.83486,0.921407 7.99122,2.908438 10.03689,4.798332 0.4036,0.372868 1.00284,0.888879 1.33165,1.146692 0.93148,0.730361 1.07549,0.888016 2.39833,2.625618 0.35304,0.463723 0.73499,0.927507 0.84878,1.030632 0.1138,0.103125 0.65252,0.989062 1.19716,1.96875 3.30898,5.952096 3.9429,13.392514 1.65417,19.415115 -0.57232,1.506017 -2.33356,5.019359 -2.75026,5.486239 -0.1558,0.17457 -0.84942,1.03458 -1.54139,1.91115 -0.69197,0.87656 -1.36648,1.67812 -1.49893,1.78125 -0.48416,0.37697 -2.67912,2.25106 -2.77015,2.3652 -0.0516,0.0646 -0.68438,0.47537 -1.40625,0.91273 -0.72188,0.43736 -1.43907,0.89818 -1.59375,1.02404 -0.15469,0.12587 -0.74532,0.42125 -1.3125,0.65641 -0.56719,0.23516 -1.45313,0.62215 -1.96875,0.85997 -2.26633,1.04531 -5.04186,1.57845 -8.71875,1.67474 -1.49532,0.0392 -2.97188,0.0358 -3.28125,-0.007 z m 3.46662,-17.329061 c 2.8593,-0.542255 5.35754,-3.474666 5.69139,-6.680506 0.196,-1.882137 -0.79572,-4.37236 -2.49199,-6.257397 -0.41759,-0.464063 -0.75937,-0.88884 -0.75952,-0.943949 -4.5e-4,-0.173969 -1.14611,-0.785193 -1.2594,-0.671905 -0.0595,0.0595 -0.18042,0.962441 -0.2687,2.006532 -0.2796,3.306602 -0.94944,4.894653 -2.4159,5.727617 -1.51511,0.860599 -3.06093,0.436211 -6.17208,-1.694479 -0.84229,-0.576849 -1.62345,-1.048816 -1.7359,-1.048816 -0.14167,0 -0.17109,0.619003 -0.0958,2.015625 0.12081,2.241063 0.55262,3.507128 1.75462,5.144584 1.48676,2.025366 4.62114,2.996692 7.75328,2.402694 z M 71.39096,103.21555 c -2.51388,-0.49008 -5.65458,-1.53431 -7.70501,-2.56179 -0.94468,-0.47338 -1.75978,-0.91974 -1.81134,-0.9919 -0.0516,-0.0722 -0.642,-0.50081 -1.31208,-0.95254 -1.5356,-1.03523 -4.41043,-3.915965 -5.45594,-5.467169 -0.43868,-0.650845 -0.84673,-1.225543 -0.9068,-1.277105 -0.29594,-0.254057 -1.92375,-4.035299 -2.34082,-5.4375 -1.77384,-5.963725 -0.93242,-12.414703 2.32201,-17.802362 0.61837,-1.023706 1.31569,-2.067082 1.5496,-2.318613 0.74566,-0.801864 1.18344,-1.331326 1.62907,-1.970263 0.37895,-0.543318 1.2168,-1.271539 2.79694,-2.430961 0.24103,-0.176853 0.62071,-0.497752 0.84375,-0.713108 0.67128,-0.648176 4.01033,-2.473849 5.92367,-3.238855 4.5893,-1.834933 9.67712,-2.30855 15.0989,-1.405531 2.27703,0.379249 3.36184,0.67678 5.40078,1.481273 1.68371,0.664334 4.61293,2.281711 5.22025,2.882377 0.16532,0.163511 0.66483,0.592605 1.11001,0.953543 1.58967,1.288843 2.15529,1.785777 2.39046,2.100159 0.1312,0.175399 0.34477,0.428524 0.4746,0.5625 0.12983,0.133975 0.65135,0.792028 1.15895,1.462341 0.5076,0.670312 0.97961,1.260937 1.04892,1.3125 0.0693,0.05156 0.55535,0.95096 1.08007,1.998661 3.37369,6.736125 3.16843,14.269703 -0.57902,21.251339 -0.41515,0.773437 -0.85164,1.490625 -0.96998,1.59375 -0.11835,0.103125 -0.6054,0.69375 -1.08235,1.3125 -1.0505,1.362824 -3.43072,3.668084 -4.83849,4.686104 -0.56719,0.41016 -1.17595,0.87358 -1.35281,1.02982 -1.09763,0.9697 -5.9494,2.91707 -9.0933,3.64982 -2.92835,0.68251 -7.89272,0.81879 -10.60004,0.29101 z m 6.41149,-16.01573 c 3.27257,-1.143368 5.2871,-3.928886 5.32027,-7.356394 0.0134,-1.379505 -0.0467,-1.648919 -0.61794,-2.774439 -0.348,-0.685613 -0.76575,-1.408591 -0.92833,-1.606618 -0.16257,-0.198027 -0.54872,-0.708061 -0.85809,-1.13341 -0.55453,-0.762403 -1.16037,-1.234796 -1.3458,-1.049366 -0.0522,0.05221 -0.2589,0.830781 -0.4593,1.730154 -0.73013,3.276759 -1.49264,4.234201 -3.86087,4.847871 -2.06702,0.535618 -3.37983,0.312504 -6.18562,-1.051253 -0.8465,-0.411441 -1.62697,-0.693763 -1.73438,-0.627382 -0.54937,0.33953 0.12835,3.631844 1.15889,5.629813 0.49495,0.959597 1.01721,1.580497 1.92707,2.291069 0.25259,0.197257 2.29949,1.111336 3.00001,1.339702 1.08933,0.35512 3.19694,0.244892 4.58409,-0.239747 z m 99.29091,-12.185336 c -0.72188,-0.238581 -1.56563,-0.55 -1.875,-0.692043 -1.01895,-0.467825 -2.77851,-1.864537 -3.35704,-2.664765 -0.31268,-0.432509 -0.62946,-0.830444 -0.70395,-0.884299 -0.0745,-0.05385 -0.35058,-0.560105 -0.61352,-1.125 -0.44182,-0.949185 -0.47822,-1.230218 -0.47991,-3.705482 l -0.002,-2.6784 -0.89063,-1.152869 c -1.95809,-2.534652 -4.063,-4.618088 -7.17525,-7.102068 -2.75959,-2.202514 -5.43671,-3.567071 -8.07421,-4.115504 -2.43576,-0.506485 -10.11999,-0.883727 -12.23459,-0.600632 -3.01294,0.403363 -7.35367,2.180531 -12.87532,5.271379 -1.08282,0.606124 -2.01094,1.059151 -2.0625,1.006725 -0.0516,-0.05243 0.0284,-0.138561 0.17778,-0.19141 0.14934,-0.05285 0.75994,-0.568643 1.35689,-1.146206 0.59695,-0.577563 1.31851,-1.241679 1.60347,-1.475812 0.28496,-0.234134 0.89779,-0.775875 1.36186,-1.203869 0.46406,-0.427993 1.47656,-1.243503 2.25,-1.812243 0.77343,-0.568739 1.44843,-1.09119 1.5,-1.161001 0.0516,-0.06981 0.71492,-0.523717 1.47414,-1.008681 0.75922,-0.484963 1.47641,-0.964417 1.59375,-1.065453 0.37396,-0.32199 3.16618,-1.857163 4.53443,-2.493051 5.11479,-2.377073 10.6744,-2.460685 16.19283,-0.243528 2.84848,1.14444 6.58983,3.236539 7.4236,4.151143 0.10312,0.113123 0.56718,0.496657 1.03125,0.852297 0.46406,0.35564 1.01957,0.818398 1.23448,1.028351 0.2149,0.209953 1.18521,1.149787 2.15625,2.088521 1.97153,1.905949 3.83759,3.949736 4.36205,4.777514 l 0.34654,0.546948 h 2.51521 c 3.87405,0 5.93991,0.704991 8.04981,2.747075 3.1518,3.050486 3.60133,7.094233 1.18613,10.669807 -0.4219,0.624598 -1.06805,1.341786 -1.43588,1.59375 -0.36783,0.251965 -0.76338,0.552645 -0.87899,0.668179 -0.74366,0.743185 -3.52104,1.56756 -5.25435,1.559586 -0.65942,-0.003 -1.66819,-0.184699 -2.4375,-0.438959 z m -67.21502,-1.658813 c -0.10903,-0.438282 -0.32321,-1.207346 -0.47598,-1.709032 -0.15277,-0.501686 -0.27775,-0.997686 -0.27775,-1.102222 0,-0.404978 -1.5807,-3.880175 -2.49515,-5.485621 -0.97365,-1.709393 -3.40417,-5.201661 -3.69413,-5.30788 -0.0869,-0.03183 -0.38809,-0.359543 -0.66931,-0.728241 l -0.51131,-0.670362 5.60682,0.103394 c 5.2647,0.09708 9.10379,0.394574 11.74745,0.910305 0.59297,0.115678 1.07813,0.264946 1.07813,0.331708 0,0.129856 -0.51377,0.907387 -0.83608,1.265317 -0.10735,0.119208 -0.62274,0.667645 -1.14532,1.21875 -2.98184,3.144604 -5.07921,6.124008 -6.942,9.861384 -0.57824,1.160156 -1.08191,2.109375 -1.11925,2.109375 -0.0373,0 -0.1571,-0.358594 -0.26612,-0.796875 z M 97.21836,55.29594 c -1.42348,-0.866597 -5.11445,-2.703938 -7.3125,-3.640117 l -1.6875,-0.718725 -0.87921,-1.470401 c -0.48357,-0.808721 -1.08952,-1.850089 -1.34656,-2.314151 -0.25703,-0.464063 -0.74733,-1.281765 -1.08954,-1.817115 -0.3422,-0.535351 -0.89689,-1.421288 -1.23263,-1.96875 -0.78868,-1.286023 -2.42747,-3.914187 -2.6667,-4.276635 -1.28928,-1.953323 -5.33302,-7.343121 -6.45246,-8.600315 -2.81186,-3.157873 -5.16556,-5.421596 -7.05165,-6.782076 -0.77344,-0.557898 -1.44844,-1.069628 -1.5,-1.137179 -0.24232,-0.317453 -3.6169,-2.171572 -4.87263,-2.677202 -1.27038,-0.51153 -1.61104,-0.567188 -3.47112,-0.567141 -2.99405,7.5e-5 -4.73526,0.495946 -6.969,1.984667 -1.10549,0.736774 -2.68758,2.281664 -2.68636,2.623187 4.9e-4,0.137395 0.27471,0.552891 0.60938,0.923324 2.27094,2.513669 2.83466,3.268697 3.40742,4.563814 0.54121,1.223775 0.65117,2.843659 0.31011,4.568249 -0.23761,1.201435 -1.50004,3.391471 -2.30644,4.001127 -0.32249,0.243812 -0.76157,0.61294 -0.97573,0.820284 -0.47775,0.462544 -2.71296,1.342268 -3.85814,1.518468 -1.54132,0.237152 -3.31177,0.08715 -4.90252,-0.415368 -1.81787,-0.574266 -2.7159,-1.12542 -4.06089,-2.492326 -2.69218,-2.736053 -3.18339,-6.401712 -1.32165,-9.862763 0.54354,-1.010466 2.47043,-2.835512 3.59588,-3.405819 1.12805,-0.571625 2.34518,-1.813474 4.4721,-4.562931 0.82654,-1.068463 1.2672,-1.517263 2.11712,-2.15625 0.27433,-0.20625 0.82709,-0.687568 1.22834,-1.069594 1.84396,-1.755585 6.24238,-3.548198 9.27787,-3.781277 1.86617,-0.143293 4.22689,0.09341 6.1875,0.620395 1.5653,0.420732 5.04505,1.784637 5.53125,2.168002 0.15469,0.121969 0.82969,0.542766 1.5,0.935103 0.67032,0.392337 1.30313,0.806498 1.40625,0.920356 0.10313,0.113858 0.98907,0.813043 1.96876,1.553746 1.6417,1.241224 5.45716,4.821187 6.5625,6.157449 0.61496,0.743436 2.87584,3.344264 3.01172,3.46457 0.0582,0.05156 0.77015,0.979687 1.58203,2.0625 0.81187,1.082812 1.53133,2.010937 1.5988,2.0625 0.0675,0.05156 0.90894,1.275 1.86995,2.71875 0.961,1.44375 1.80842,2.667187 1.88315,2.71875 0.0747,0.05156 0.7451,1.10625 1.4897,2.34375 0.74461,1.2375 1.56387,2.5875 1.82058,3 2.17589,3.496358 6.50649,11.864572 6.40109,12.36913 -0.052,0.249083 -0.26317,0.181211 -1.18827,-0.381986 z"
     id="path6"
     sodipodi:nodetypes="sssssssssssssscssssssssssssssscccsssssssssssssscscsssssscssssssssssssssssssscsssssssssssscssssscssssssssssssssccssssssssssssssssscsssssssscsssssssssssssssssssssssssccssssssssssssssssssssssssssssssssssssssssssssssssssssssscssssccssssssssssssssssssssscssssssccsssssscsssssssssscsssssssssssssssssssssssssssssssssssssssss"
     inkscape:export-filename="logo_embeetle.png"
     inkscape:export-xdpi="90"
     inkscape:export-ydpi="90" /></svg>
